<?xml version="1.0" standalone="no"?>
<!DOCTYPE svg PUBLIC "-//W3C//DTD SVG 1.1//EN" "http://www.w3.org/Graphics/SVG/1.1/DTD/svg11.dtd" >
<svg xmlns="http://www.w3.org/2000/svg" xmlns:xlink="http://www.w3.org/1999/xlink" version="1.1">
<metadata>
Created by FontForge 20170731 at Fri Nov 23 19:18:44 2018
 By Aleksey,,,
</metadata>
<defs>
<font id="CheyenneSans-ExtraBoldItalic" horiz-adv-x="617" >
  <font-face 
    font-family="Cheyenne Sans ExtraBold"
    font-weight="800"
    font-style="italic"
    font-stretch="normal"
    units-per-em="1000"
    panose-1="0 0 9 0 0 0 0 0 0 0"
    ascent="800"
    descent="-200"
    x-height="517"
    cap-height="723"
    bbox="-405 -238 1422 990"
    underline-thickness="50"
    underline-position="-250"
    slope="-8"
    unicode-range="U+000D-FB02"
  />
<missing-glyph horiz-adv-x="640" 
d="M632.5 820.5q4.5 -5.5 2.5 -15.5l-132 -938q-2 -15 -11 -21.5t-26 -6.5h-436q-15 0 -20 5.5t-3 18.5l132 940q2 11 7.5 17t14.5 6h459q8 0 12.5 -5.5zM575.5 772.5q-3.5 4.5 -10.5 4.5h-343l241 -834l115 817q1 8 -2.5 12.5zM67 -107q4 -5 16 -5h336l-241 828l-114 -808
q-1 -10 3 -15z" />
    <glyph glyph-name="fi" unicode="fi" horiz-adv-x="703" 
d="M390 400h-101l-79 -561h-171l79 561h-89l17 117h89l10 72q9 63 53.5 98.5t113.5 35.5h128l-15 -112h-64q-26 0 -38 -12t-16 -42l-5 -40h105zM678 590h-172l21 153h172zM595 0h-171l73 517h171z" />
    <glyph glyph-name="fl" unicode="fl" horiz-adv-x="742" 
d="M390 400h-101l-79 -561h-171l79 561h-89l17 117h89l10 72q9 63 53.5 98.5t113.5 35.5h128l-15 -112h-64q-26 0 -38 -12t-16 -42l-5 -40h105zM487 13.5q-37 22.5 -43.5 56t0.5 81.5l83 592h168l-80 -570q-4 -27 6 -42.5t44 -19.5l21 -2l-14 -104q-39 -14 -68 -14
q-80 0 -117 22.5z" />
    <glyph glyph-name="f_f.liga" unicode="ff" horiz-adv-x="868" 
d="M819 400h-101l-56 -400h-171l56 400h-90l17 117h90l10 72q9 63 53.5 98.5t112.5 35.5h129l-15 -112h-64q-26 0 -38.5 -12t-16.5 -42l-5 -40h106zM397 400h-103l-56 -400h-171l56 400h-90l17 117h90l7 54q9 62 53.5 98t112.5 36h129l-15 -112h-64q-26 0 -37.5 -12
t-15.5 -42l-3 -22h107z" />
    <glyph glyph-name="colon_one_eight_F_colon.liga" unicode="&#x3a;&#x31;&#x38;F&#x3a;" horiz-adv-x="777" 
d="M818 761q11 0 9 -12l-103 -736q-2 -13 -13 -13h-737q-12 0 -10 13l103 736q2 12 14 12h737zM426.5 259.5q28.5 25.5 33.5 60.5q6 45 -27 70q31 26 35 58q4 31 -15 53t-49 22q-33 0 -58.5 -22t-29.5 -53t19 -58q-41 -25 -47 -70q-5 -35 17 -60.5t58 -25.5q35 0 63.5 25.5z
M273 515q1 5 -3 5h-67q-4 0 -5 -5l-3 -26q-1 -4 3 -4h36l-34 -242q-1 -4 4 -4h27q4 0 4 4zM642 515q1 5 -3 5h-105q-4 0 -5 -5l-38 -272q-1 -4 4 -4h26q6 0 6 4l18 124h61q4 0 4 4l4 25q1 5 -4 5h-61l12 84h73q4 0 5 4zM358.5 419q-10.5 11 -7.5 29q2 17 16 29t32 12
q17 0 26.5 -12t7.5 -29q-3 -18 -16 -29t-30 -11q-18 0 -28.5 11zM415.5 356.5q12.5 -14.5 9.5 -36.5q-3 -21 -19.5 -36t-37.5 -15q-22 0 -35 15t-10 36q3 22 20 36.5t39 14.5q21 0 33.5 -14.5z" />
    <glyph glyph-name="colon_f_l_a_g_two_colon.liga" unicode="&#x3a;flag&#x32;&#x3a;" horiz-adv-x="1161" 
d="M1175 761l-107 -760h-1067l107 760h1067zM1103 698h-535l-7 -53h535zM240 585l9 59h-62l-9 -59h62zM474 585l9 59h-61l-9 -59h61zM349 527l8 58h-61l-8 -58h61zM1079 528l8 55h-535l-8 -55h535zM224 468l8 59h-61l-8 -59h61zM405 527l-8 -59h61l8 59h-61zM280 468l-8 -58
h61l8 58h-61zM1063 411l7 55h-535l-7 -55h535zM155 410l-9 -59h61l9 59h-61zM389 410l-9 -59h61l9 59h-61zM1046 294l8 55h-535l-8 -55h535zM95 232l-8 -55h943l8 55h-943zM1014 63l7 52h-942l-7 -52h942z" />
    <glyph glyph-name="colon_f_l_a_g_colon.liga" unicode="&#x3a;flag&#x3a;" horiz-adv-x="1161" 
d="M1175 761l-107 -760h-1067l107 760h1067zM158 702l-58 -409h950l8 58h-540l9 59h540l8 58h-540l8 59h540l8 58h-540l9 59h540l8 58h-950zM258 585h-58l9 59h58zM492 585h-58l9 59h58zM367 527h-58l8 58h58zM242 468h-58l8 59h58zM476 468h-58l8 59h58zM351 410h-58l8 58
h58zM225 351h-58l9 59h58zM459 351h-58l9 59h58zM92 234l-8 -58h950l8 58h-950zM1017 59l8 58h-950l-8 -58h950z" />
    <glyph glyph-name=".notdef" horiz-adv-x="640" 
d="M632.5 820.5q4.5 -5.5 2.5 -15.5l-132 -938q-2 -15 -11 -21.5t-26 -6.5h-436q-15 0 -20 5.5t-3 18.5l132 940q2 11 7.5 17t14.5 6h459q8 0 12.5 -5.5zM575.5 772.5q-3.5 4.5 -10.5 4.5h-343l241 -834l115 817q1 8 -2.5 12.5zM67 -107q4 -5 16 -5h336l-241 828l-114 -808
q-1 -10 3 -15z" />
    <glyph glyph-name="uni0000" horiz-adv-x="20" 
 />
    <glyph glyph-name="uni0000" horiz-adv-x="20" 
 />
    <glyph glyph-name="nonmarkingreturn" unicode="&#xd;" horiz-adv-x="238" 
 />
    <glyph glyph-name="space" unicode=" " horiz-adv-x="259" 
 />
    <glyph glyph-name="exclam" unicode="!" horiz-adv-x="289" 
d="M180 241h-105l20 482h198zM183 0h-182l24 174h182z" />
    <glyph glyph-name="quotedbl" unicode="&#x22;" horiz-adv-x="500" 
d="M437 422h-82l1 301h166zM200 422h-82l1 301h166z" />
    <glyph glyph-name="numbersign" unicode="#" horiz-adv-x="612" 
d="M479 425l-35 -120h106l-12 -85h-118l-64 -223l-85 11l61 212h-128l-64 -223l-84 11l61 212h-112l12 85h125l35 120h-111l12 85h123l62 215l83 -9l-59 -206h129l62 215l84 -9l-59 -206h108l-12 -85h-120zM392 425h-129l-35 -120h129z" />
    <glyph glyph-name="dollar" unicode="$" horiz-adv-x="672" 
d="M529.5 69q-68.5 -60 -170.5 -71q-12 -1 -15.5 -4.5t-5.5 -13.5l-7 -54h-109l9 70q-79 6 -137.5 31.5t-106.5 73.5l110 104q64 -74 153 -89l26 173q-121 22 -168 79.5t-35 140.5q11 78 73.5 133.5t167.5 76.5q7 1 15 6t9 12l6 48h107l-8 -61q114 -32 183 -84l-98 -108
q-14 19 -38.5 36t-53.5 27l-4 1q-4 0 -6.5 -2.5t-2.5 -5.5l-22 -151l69 -18q73 -21 112 -74.5t29 -126.5q-13 -89 -81.5 -149zM319 601q-19 0 -42 -8.5t-40.5 -25t-20.5 -38.5q-5 -35 17.5 -53t63.5 -25zM431.5 141.5q29.5 20.5 33.5 48.5q9 63 -86 84l-23 -158
q46 5 75.5 25.5z" />
    <glyph glyph-name="percent" unicode="%" horiz-adv-x="948" 
d="M376 706q39 -28 57.5 -76t10.5 -103q-8 -54 -39 -100.5t-77.5 -74t-98.5 -27.5t-92 27.5t-58.5 74t-10.5 100.5q8 55 39.5 103t79 76t99.5 28q51 0 90 -28zM243 -4l-95 2l591 733h94zM292 439.5q19 29.5 27 87.5q9 61 -2 92t-44 31q-63 0 -80 -123q-8 -58 3 -87.5
t44 -29.5t52 29.5zM814 371.5q39 -28.5 57.5 -76t10.5 -102.5q-8 -54 -39.5 -101t-78 -74.5t-98.5 -27.5t-92 27.5t-58 74.5t-11 101q8 55 39.5 102.5t79 76t99.5 28.5t91 -28.5zM729 105q19 29 27 87q17 123 -46 123q-62 0 -79 -123q-8 -57 2.5 -86.5t43.5 -29.5t52 29z
" />
    <glyph glyph-name="ampersand" unicode="&#x26;" horiz-adv-x="813" 
d="M544.5 714q50.5 -20 75.5 -56.5t19 -82.5q-13 -94 -182 -191l77 -109q47 91 63 145h176q-18 -37 -45.5 -75t-68.5 -89q-48 -62 -59 -78l127 -178h-194l-49 66q-61 -38 -124.5 -54.5t-121.5 -16.5q-120 0 -173 50.5t-41 135.5q10 72 61.5 122.5t157.5 102.5
q-30 39 -41.5 57.5t-18.5 43t-3 54.5q7 49 41 88.5t88.5 62t119.5 22.5t115.5 -20zM373.5 616.5q-21.5 -17.5 -24.5 -43.5q-5 -36 32 -83l19 -23q46 28 66.5 51t24.5 49q4 32 -14.5 49.5t-49.5 17.5q-32 0 -53.5 -17.5zM218 206q-5 -38 20.5 -60.5t60.5 -22.5q26 0 59.5 11
t58.5 31l-105 145q-86 -46 -94 -104z" />
    <glyph glyph-name="quotesingle" unicode="'" horiz-adv-x="258" 
d="M183 422h-82l1 301h166z" />
    <glyph glyph-name="parenleft" unicode="(" horiz-adv-x="341" 
d="M254 507q-46 -114 -62 -230q-15 -110 -2 -215t52 -223h-120q-54 119 -75 219t-4 220q17 121 70.5 234t134.5 211h121q-69 -102 -115 -216z" />
    <glyph glyph-name="parenright" unicode=")" horiz-adv-x="341" 
d="M150 55q46 114 62 230q15 110 2 215t-52 223h120q54 -119 75 -219t4 -220q-17 -121 -70.5 -234t-134.5 -211h-121q69 102 115 216z" />
    <glyph glyph-name="asterisk" unicode="*" horiz-adv-x="503" 
d="M265 442l-106 -144l-79 63l124 126l-148 42l49 97l136 -64l11 161h108l-38 -162l156 65l17 -97l-155 -42l88 -124l-98 -62z" />
    <glyph glyph-name="plus" unicode="+" horiz-adv-x="596" 
d="M537 303h-184l-26 -184h-122l26 184h-185l17 122h185l26 185h122l-26 -185h184z" />
    <glyph glyph-name="comma" unicode="," horiz-adv-x="287" 
d="M57 -5l-54 6l22 155h163l-19 -137l-132 -165h-59z" />
    <glyph glyph-name="hyphen" unicode="-" horiz-adv-x="396" 
d="M316 196h-281l17 122h281z" />
    <glyph glyph-name="period" unicode="." horiz-adv-x="284" 
d="M181 0h-183l25 177h183z" />
    <glyph glyph-name="slash" unicode="/" horiz-adv-x="388" 
d="M316 723h115l-357 -732h-115z" />
    <glyph glyph-name="zero" unicode="0" horiz-adv-x="671" 
d="M545 690q62 -44 88 -128.5t10 -201.5t-65 -199.5t-123.5 -125.5t-165.5 -43q-92 0 -154 43t-88 125.5t-9 199.5q16 117 66 201.5t124.5 128.5t164.5 44t152 -44zM402.5 180q34.5 54 51.5 179q18 129 -2 185.5t-79 56.5t-94.5 -57t-53.5 -185q-17 -124 3 -178.5t79 -54.5
q61 0 95.5 54z" />
    <glyph glyph-name="one" unicode="1" horiz-adv-x="413" 
d="M176 536l-128 -32l16 114l224 105h87l-102 -723h-172z" />
    <glyph glyph-name="two" unicode="2" horiz-adv-x="630" 
d="M5 123l251 193q76 58 111.5 89t50 53t18.5 49q6 40 -18.5 63.5t-67.5 23.5q-46 0 -84.5 -25.5t-60.5 -81.5l-158 5q22 109 106 175t221 66q83 0 140.5 -27.5t83.5 -78.5t17 -118q-8 -56 -41 -99t-115 -111l-191 -158h302l-20 -141h-562z" />
    <glyph glyph-name="three" unicode="3" horiz-adv-x="680" 
d="M172.5 681.5q95.5 51.5 227.5 51.5q79 0 140.5 -24t93.5 -67.5t24 -99.5t-46 -94t-107 -61q61 -16 100 -61t30 -114q-10 -69 -62.5 -119.5t-127.5 -76.5t-150 -26q-148 0 -222 49.5t-65 175.5l161 4q7 -51 44.5 -72.5t87.5 -21.5q59 0 99 25t45 61q5 39 -25 65t-80 27
l-98 1l18 133l86 4q52 2 87.5 26.5t40.5 60.5q4 32 -25.5 53.5t-71.5 21.5q-61 0 -103.5 -19t-60.5 -76l-158 5q22 117 117.5 168.5z" />
    <glyph glyph-name="four" unicode="4" horiz-adv-x="634" 
d="M568 723l-61 -429h106l-20 -145h-106l-21 -149h-171l22 149h-321l20 140l383 434h169zM338 294l28 195l-173 -195h145z" />
    <glyph glyph-name="five" unicode="5" horiz-adv-x="671" 
d="M645 723l-28 -138h-341l-33 -147q59 18 87.5 24.5t65.5 6.5q76 0 131 -27.5t80.5 -80t15.5 -125.5q-11 -76 -54.5 -131.5t-114.5 -85t-160 -29.5q-103 0 -181 40t-111 106l139 87q34 -51 65.5 -75t85.5 -24q60 0 99.5 30t45.5 76q6 45 -21.5 74t-84.5 29
q-27 0 -52.5 -7.5t-65.5 -25.5q-9 -4 -13 -4q-3 0 -13 5l-107 63l84 359h481z" />
    <glyph glyph-name="six" unicode="6" horiz-adv-x="657" 
d="M531.5 709q56.5 -25 86 -72.5t23.5 -110.5l-154 -5q-8 41 -31.5 61t-66.5 20q-60 0 -102 -47t-52 -122q-4 -25 -3 -38q30 26 72.5 39.5t89.5 13.5q74 0 126 -27.5t75.5 -76.5t15.5 -111q-10 -68 -54.5 -122.5t-114 -85t-150.5 -30.5q-95 0 -158 43.5t-89 123t-11 186.5
q17 120 67.5 207t128 133t173.5 46q72 0 128.5 -25zM280 313q-28 -11 -46.5 -27.5t-20.5 -32.5q-6 -66 18 -99.5t73 -33.5q46 0 83 30t44 75q7 47 -22 73t-74 26q-27 0 -55 -11z" />
    <glyph glyph-name="seven" unicode="7" horiz-adv-x="592" 
d="M633 723l-25 -174q-65 -66 -134 -163.5t-120 -201t-62 -184.5h-184q12 65 52.5 161t115.5 208.5t179 215.5h-396l20 138h554z" />
    <glyph glyph-name="eight" unicode="8" horiz-adv-x="645" 
d="M512.5 706.5q58.5 -26.5 86.5 -72.5t20 -103q-8 -58 -50 -92t-81 -48q40 -21 64 -38t42.5 -53t10.5 -91q-10 -68 -54.5 -117.5t-117.5 -75.5t-166 -26q-132 0 -204 49.5t-60 137.5q16 111 155 164q-2 2 -53 33.5t-37 132.5q9 62 49.5 113.5t107.5 82t151 30.5
q78 0 136.5 -26.5zM288 586.5q-31 -21.5 -36 -56.5q-3 -24 9.5 -41.5t40.5 -26.5l67 -22q3 -1 10 -1q25 0 51.5 28.5t30.5 58.5q5 35 -21.5 58.5t-78.5 23.5q-42 0 -73 -21.5zM379 136.5q32 20.5 37 56.5q4 26 -9.5 44.5t-51.5 31.5l-78 26q-5 2 -14 2q-18 0 -39 -12
t-35.5 -32.5t-18.5 -44.5q-13 -92 126 -92q51 0 83 20.5z" />
    <glyph glyph-name="nine" unicode="9" horiz-adv-x="657" 
d="M134 18q-57 26 -87 73.5t-25 108.5l160 4q4 -37 26.5 -58.5t63.5 -21.5q69 0 117 43.5t61 136.5q3 22 4 34q-28 -33 -71.5 -51t-100.5 -18q-74 0 -129 28.5t-81 79t-17 116.5q10 69 54.5 123t114 84.5t150.5 30.5q95 0 158.5 -43t89 -123t10.5 -187
q-27 -195 -123.5 -290.5t-246.5 -95.5q-71 0 -128 26zM385.5 413q28.5 11 47 27.5t20.5 31.5q6 67 -18 101t-73 34q-45 0 -79 -30t-41 -76q-6 -45 20 -72t69 -27q26 0 54.5 11z" />
    <glyph glyph-name="colon" unicode=":" horiz-adv-x="284" 
d="M228 334h-183l24 174h183zM181 3h-183l25 174h183z" />
    <glyph glyph-name="semicolon" unicode=";" horiz-adv-x="289" 
d="M70 506h182l-25 -178h-182zM63 0h-63l25 175h182l-22 -155l-145 -180h-68z" />
    <glyph glyph-name="less" unicode="&#x3c;" horiz-adv-x="594" 
d="M489 88l-453 185l20 138l505 185l-20 -142l-311 -113l280 -109z" />
    <glyph glyph-name="equal" unicode="=" horiz-adv-x="596" 
d="M550 397h-491l17 123h491zM517 166l-491 -1l17 123h491z" />
    <glyph glyph-name="greater" unicode="&#x3e;" horiz-adv-x="594" 
d="M360 341l-280 113l20 142l453 -185l-20 -138l-505 -185l21 144z" />
    <glyph glyph-name="question" unicode="?" horiz-adv-x="535" 
d="M153.5 688.5q73.5 44.5 169.5 44.5q72 0 124.5 -23t77.5 -61.5t18 -84.5q-5 -38 -22.5 -67.5t-39.5 -50t-59 -50.5q-52 -40 -79.5 -72.5t-34.5 -79.5h-134q7 50 26.5 88t43 64.5t59.5 59.5q34 32 51 53t21 46q4 29 -16 46.5t-54 17.5q-37 0 -73 -24.5t-58 -67.5l-138 33
q44 84 117.5 128.5zM298 0h-182l24 174h182z" />
    <glyph glyph-name="at" unicode="@" horiz-adv-x="833" 
d="M509 -88.5q-68 -21.5 -146 -21.5q-117 0 -197.5 48.5t-114.5 132t-20 184.5q15 106 77 195t161.5 141.5t220.5 52.5q94 0 169.5 -33.5t115 -104.5t24.5 -176q-10 -73 -42.5 -130t-81 -89t-105.5 -32q-39 0 -60 13t-30 31q-3 6 -5 6q-3 0 -8 -6q-27 -27 -61.5 -42.5
t-74.5 -15.5q-42 0 -73.5 21t-46 60t-7.5 90q8 60 40 112t82 83.5t110 31.5q37 0 58 -12t39 -34q3 -2 5.5 -1t3.5 5l6 17h94l-65 -212q-3 -8 -5 -21q-5 -34 23 -34q22 0 43.5 17t39 51.5t24.5 84.5q17 122 -48 176.5t-177 54.5q-103 0 -177 -40t-115.5 -107t-53.5 -151
q-19 -136 50.5 -210t209.5 -74q61 0 101 14t87 44l40 -65q-42 -33 -110 -54.5zM330.5 188.5q13.5 -24.5 44.5 -24.5q41 0 73.5 35t38.5 79q5 38 -10 62.5t-46 24.5q-38 0 -70 -33.5t-39 -81.5q-5 -37 8.5 -61.5z" />
    <glyph glyph-name="A" unicode="A" horiz-adv-x="718" 
d="M327 723h177l155 -723h-169l-31 154h-244l-77 -154h-170zM439 301l-46 259l-122 -259h168z" />
    <glyph glyph-name="B" unicode="B" horiz-adv-x="690" 
d="M128 723h275q285 0 258 -190q-8 -54 -41 -92.5t-103 -69.5q80 -23 101 -69t13 -106q-14 -101 -89 -148.5t-227 -47.5h-289zM388 432q41 0 71 21t35 58q5 39 -21 61t-72 22h-122l-22 -162h131zM338 130q53 0 85 24t37 62t-20 60.5t-71 22.5h-131l-24 -169h124z" />
    <glyph glyph-name="C" unicode="C" horiz-adv-x="721" 
d="M578 700.5q62 -32.5 94.5 -90t29.5 -131.5l-178 -1q-1 55 -30.5 86t-85.5 31q-144 0 -176 -228q-17 -122 12.5 -180.5t98.5 -58.5q52 0 92 36.5t57 92.5l178 -2q-32 -121 -111.5 -193t-228.5 -72q-101 0 -171 48t-99.5 134t-13.5 197t68.5 193t134 126.5t184.5 44.5
q83 0 145 -32.5z" />
    <glyph glyph-name="D" unicode="D" horiz-adv-x="724" 
d="M230 723q105 0 135 -1q189 -6 268 -100t56 -258q-24 -169 -132.5 -266.5t-295.5 -97.5h-235l102 723h102zM216 136h68q83 0 147 56t80 174q16 111 -27.5 166.5t-134.5 55.5h-69z" />
    <glyph glyph-name="E" unicode="E" horiz-adv-x="644" 
d="M128 723h515l-21 -142h-343l-21 -148h293l-20 -139h-294l-21 -151h348l-20 -143h-518z" />
    <glyph glyph-name="F" unicode="F" horiz-adv-x="612" 
d="M639 723l-21 -140h-339l-22 -156h289l-19 -138h-289l-41 -289h-171l102 723h511z" />
    <glyph glyph-name="G" unicode="G" horiz-adv-x="763" 
d="M157 36q-69 46 -98.5 130t-14.5 193q16 112 71.5 197t140 131t185.5 46q88 0 152 -35.5t94.5 -94t22.5 -124.5l-178 -1q-4 51 -33.5 82t-82.5 31q-69 0 -119 -55t-67 -171q-18 -125 21.5 -175.5t108.5 -50.5q50 0 86.5 28t49.5 63l12 36h-138l17 116l316 -2l-53 -380
h-114l12 87q-42 -43 -92.5 -70t-129.5 -27q-100 0 -169 46z" />
    <glyph glyph-name="H" unicode="H" horiz-adv-x="733" 
d="M238 300l-42 -300h-170l102 723h170l-40 -282h247l40 282h171l-102 -723h-171l42 300h-247z" />
    <glyph glyph-name="I" unicode="I" horiz-adv-x="315" 
d="M298 723l-102 -723h-170l102 723h170z" />
    <glyph glyph-name="J" unicode="J" horiz-adv-x="422" 
d="M298.5 87.5q-23.5 -48.5 -70 -73t-126.5 -24.5q-30 0 -67.5 4t-59.5 9l24 154q7 -1 28 -5t40 -4q49 0 71 25.5t30 85.5l66 464h171l-72 -508q-11 -79 -34.5 -127.5z" />
    <glyph glyph-name="K" unicode="K" horiz-adv-x="728" 
d="M477 0l-131 321l-115 -123l-28 -198h-177l102 723h177l-44 -312l280 312h193l-248 -277l176 -446h-185z" />
    <glyph glyph-name="L" unicode="L" horiz-adv-x="568" 
d="M299 723l-82 -581h301l-20 -142h-472l102 723h171z" />
    <glyph glyph-name="M" unicode="M" horiz-adv-x="928" 
d="M128 723h250l74 -478l210 478h250l-102 -723h-171l76 538l-234 -538h-127l-82 537l-75 -537h-171z" />
    <glyph glyph-name="N" unicode="N" horiz-adv-x="791" 
d="M775 723l-102 -723h-154l-258 464l-65 -464h-170l102 723h170l244 -441l62 441h171z" />
    <glyph glyph-name="O" unicode="O" horiz-adv-x="762" 
d="M159.5 35q-71.5 45 -101 128.5t-13.5 196.5t69.5 197.5t137.5 130t187 45.5q102 0 172.5 -45.5t100.5 -130t15 -197.5q-16 -113 -69.5 -196.5t-136.5 -128.5t-186 -45q-104 0 -175.5 45zM541 357q17 123 -15.5 180.5t-105.5 57.5t-123 -57.5t-67 -180.5
q-17 -119 16.5 -174t107.5 -55q155 0 187 229z" />
    <glyph glyph-name="P" unicode="P" horiz-adv-x="655" 
d="M128 723h276q81 0 140 -27.5t88 -81.5t18 -129q-15 -106 -92.5 -165.5t-196.5 -59.5h-127l-37 -260h-171zM374 389q45 0 79 30.5t40 74.5q6 45 -20.5 73t-70.5 28h-123l-29 -206h124z" />
    <glyph glyph-name="Q" unicode="Q" horiz-adv-x="769" 
d="M105 557.5q54 84.5 138 130t187 45.5t173.5 -45.5t100.5 -130t15 -197.5q-26 -185 -152 -290q5 -25 34 -42t67 -18l-18 -134q-60 0 -100 8.5t-75.5 34t-67.5 77.5q-42 -6 -81 -6q-104 0 -175 45t-101 128.5t-14 196.5q15 113 69 197.5zM237 182.5q32 -54.5 108 -54.5
t123.5 54.5t64.5 175.5q33 237 -122 237t-189 -237q-17 -121 15 -175.5z" />
    <glyph glyph-name="R" unicode="R" horiz-adv-x="701" 
d="M432 0l-75 264h-124l-37 -264h-170l102 723h316q130 0 183.5 -61t39.5 -164q-11 -78 -50 -126.5t-100 -80.5l90 -291h-175zM454.5 422.5q34.5 29.5 40.5 73.5q6 43 -19.5 71t-67.5 28h-128l-29 -202h122q47 0 81.5 29.5z" />
    <glyph glyph-name="S" unicode="S" horiz-adv-x="705" 
d="M166 14.5q-67 24.5 -106 74.5t-36 123l177 1q3 -43 37 -67t90 -24q58 0 98.5 19t46.5 59q5 33 -24.5 50t-87.5 28l-118 22q-85 15 -127 68.5t-29 140.5q10 68 55.5 118.5t116.5 77.5t153 27q84 0 146.5 -30.5t95 -81.5t31.5 -110l-174 -2q2 91 -115 91q-56 0 -88.5 -21
t-36.5 -52q-4 -29 13.5 -46.5t67.5 -27.5l115 -22q126 -23 158.5 -86.5t21.5 -142.5q-8 -59 -54.5 -107.5t-120 -76t-161.5 -27.5q-78 0 -145 24.5z" />
    <glyph glyph-name="T" unicode="T" horiz-adv-x="618" 
d="M68 723h593l-22 -151h-210l-80 -572h-171l80 572h-212z" />
    <glyph glyph-name="U" unicode="U" horiz-adv-x="746" 
d="M565.5 67.5q-81.5 -77.5 -240.5 -77.5t-218.5 78t-39.5 222l61 433h173l-63 -443q-10 -74 20 -110.5t87 -36.5q58 0 98.5 36.5t50.5 110.5l63 443h172l-62 -436q-20 -142 -101.5 -219.5z" />
    <glyph glyph-name="V" unicode="V" horiz-adv-x="699" 
d="M398 0h-190l-144 723h161l106 -524l254 524h162z" />
    <glyph glyph-name="W" unicode="W" horiz-adv-x="971" 
d="M695 0h-131l-64 433l-187 -433h-129l-113 723h165l63 -433l182 433h121l63 -433l182 433h165z" />
    <glyph glyph-name="X" unicode="X" horiz-adv-x="717" 
d="M444 0l-114 243l-179 -243h-182l289 366l-181 357h212l97 -215l158 215h180l-267 -333l200 -390h-213z" />
    <glyph glyph-name="Y" unicode="Y" horiz-adv-x="683" 
d="M423 303l-43 -303h-171l43 303l-194 420h184l116 -275l192 275h186z" />
    <glyph glyph-name="Z" unicode="Z" horiz-adv-x="681" 
d="M8 80l425 502h-325l20 141h570l-11 -76l-432 -504h356l-20 -143h-594z" />
    <glyph glyph-name="bracketleft" unicode="[" horiz-adv-x="343" 
d="M368 723l-13 -93h-111l-100 -698h112l-13 -93h-249l125 884h249z" />
    <glyph glyph-name="backslash" unicode="\" horiz-adv-x="388" 
d="M59 723h115l151 -732h-115z" />
    <glyph glyph-name="bracketright" unicode="]" horiz-adv-x="343" 
d="M-6 -161l13 93h111l100 698h-112l13 93h249l-125 -884h-249z" />
    <glyph glyph-name="asciicircum" unicode="^" horiz-adv-x="483" 
d="M240 358l-131 -238h-111l211 371q9 17 24.5 26t31.5 9t28.5 -8.5t16.5 -25.5l105 -372h-110z" />
    <glyph glyph-name="underscore" unicode="_" horiz-adv-x="564" 
d="M437 -147h-452l17 121h452z" />
    <glyph glyph-name="grave" unicode="`" horiz-adv-x="324" 
d="M347 630l-33 -70l-262 68l52 106z" />
    <glyph glyph-name="a" unicode="a" horiz-adv-x="614" 
d="M506 0h-171h171zM335 0l7 48q-39 -32 -75.5 -45t-73.5 -13q-92 0 -141.5 67.5t-30.5 203.5q12 88 47.5 147.5t86 89t107.5 29.5q41 0 77 -15.5t61 -40.5l7 46h172l-73 -517h-171zM326.5 138q26.5 36 42.5 101l5 39q9 66 -8.5 101t-57.5 35q-42 0 -73 -38t-42 -112
q-11 -75 10 -118.5t63 -43.5q34 0 60.5 36z" />
    <glyph glyph-name="b" unicode="b" horiz-adv-x="612" 
d="M219 13q-41 23 -55 60l-28 -73h-121l104 743h171l-42 -302q29 40 72 63t88 23q96 0 139.5 -71.5t26.5 -193.5q-18 -125 -86.5 -198.5t-174.5 -73.5q-53 0 -94 23zM401 263q11 77 -8.5 109.5t-61.5 32.5q-38 0 -65 -29.5t-40 -89.5l-5 -36q-10 -68 8.5 -103.5t56.5 -35.5
q94 0 115 152z" />
    <glyph glyph-name="c" unicode="c" horiz-adv-x="535" 
d="M423 499.5q44 -27.5 64 -74t17 -102.5l-138 -3q-8 37 -22 58.5t-48 21.5q-46 0 -77.5 -37t-41.5 -105q-10 -69 13 -109t69 -40q34 0 55.5 23.5t36.5 56.5l133 -3q-11 -53 -44.5 -98t-85.5 -71.5t-116 -26.5q-73 0 -126.5 33.5t-78 94t-13.5 138.5q11 79 52 140.5t104 96
t137 34.5q66 0 110 -27.5z" />
    <glyph glyph-name="d" unicode="d" horiz-adv-x="612" 
d="M51 62q-48 72 -30 198q17 124 80.5 195.5t160.5 71.5q44 0 80 -16t56 -52l39 284h171l-104 -743h-122l-3 69q-25 -32 -71 -55.5t-105 -23.5q-104 0 -152 72zM328 142q29 31 37 86l11 76q2 53 -18 77t-57 24q-95 0 -115 -143q-11 -79 10 -115t64 -36q39 0 68 31z" />
    <glyph glyph-name="e" unicode="e" horiz-adv-x="564" 
d="M196.5 139.5q21.5 -28.5 63.5 -28.5q34 0 58.5 13t41.5 44l150 -3q-15 -53 -56 -92.5t-95.5 -61t-110.5 -21.5q-78 0 -133.5 32.5t-81 92t-14.5 137.5q11 77 50.5 139.5t102.5 99t142 36.5q119 0 173 -73t37 -192l-6 -43h-336q-7 -51 14.5 -79.5zM375 317q6 40 -14 66.5
t-63 26.5q-39 0 -68 -28t-34 -65h179z" />
    <glyph glyph-name="f" unicode="f" horiz-adv-x="408" 
d="M390 400h-101l-79 -561h-171l79 561h-89l17 117h89l10 72q9 63 53.5 98.5t113.5 35.5h128l-15 -112h-64q-26 0 -38 -12t-16 -42l-5 -40h105z" />
    <glyph glyph-name="g" unicode="g" horiz-adv-x="641" 
d="M31.5 -137q-70.5 34 -63.5 89q9 61 60.5 75.5t54.5 15.5q-2 1 -19 10t-29 28.5t-8 43.5q4 31 36 54.5t88 32.5q-49 24 -70.5 65t-15.5 86q7 50 45.5 87t99.5 56t131 19q50 0 82.5 -10t63.5 -29q7 3 19 7.5t28 9.5l123 47l-18 -125l-91 -14q2 -11 2.5 -24.5t-0.5 -22.5
q-6 -45 -39.5 -85t-92 -64.5t-135.5 -24.5l-60 2q-32 -3 -34 -15q-1 -10 15.5 -13t67.5 -7l105 -6q97 -6 141 -47.5t35 -103.5q-11 -77 -91.5 -124t-218.5 -47q-141 0 -211.5 34zM360 302.5q23 20.5 28 55.5t-12.5 58t-52.5 23t-59.5 -23t-29.5 -58q-5 -34 13.5 -55
t53.5 -21q36 0 59 20.5zM360.5 -68q22.5 11 25.5 34q3 20 -13.5 32.5t-50.5 14.5l-105 7q-35 2 -56 -13t-24 -35q-4 -28 31 -39.5t115 -11.5q55 0 77.5 11z" />
    <glyph glyph-name="h" unicode="h" 
d="M119 743h168l-41 -292q31 26 49 38.5t44.5 21t64.5 8.5q49 0 86.5 -21t55.5 -59t11 -87l-49 -352h-170l46 330q4 26 -14 42.5t-47 16.5q-27 0 -52.5 -15.5t-37.5 -40.5l-47 -333h-171z" />
    <glyph glyph-name="i" unicode="i" horiz-adv-x="296" 
d="M270 590h-172l21 153h172zM187 0h-171l73 517h171z" />
    <glyph glyph-name="j" unicode="j" horiz-adv-x="303" 
d="M275 590h-172l21 153h172zM128.5 -121q-52.5 -45 -149.5 -45q-24 0 -38 3.5t-19.5 7.5t-6.5 5l15 113l36 5q30 5 42 16t15 33l71 500h171l-71 -501q-13 -92 -65.5 -137z" />
    <glyph glyph-name="k" unicode="k" horiz-adv-x="601" 
d="M368 0l-100 207l-61 -59l-21 -148h-171l104 743h171l-60 -429l204 203h171l-218 -210l149 -307h-168z" />
    <glyph glyph-name="l" unicode="l" horiz-adv-x="334" 
d="M79 13.5q-37 22.5 -43.5 56t0.5 81.5l83 592h168l-80 -570q-4 -27 6 -42.5t44 -19.5l21 -2l-14 -104q-39 -14 -68 -14q-80 0 -117 22.5z" />
    <glyph glyph-name="m" unicode="m" horiz-adv-x="933" 
d="M88 517h168l-9 -64q41 32 82 53t94 21q45 0 82 -18t55 -56q31 34 77 54t91 20q42 0 79 -19t56.5 -57t11.5 -92l-50 -359h-171l48 340q4 32 -14.5 48.5t-48.5 16.5q-42 0 -63 -21.5t-27 -65.5l-45 -318h-169l49 346q4 27 -16 43t-50 16q-28 0 -54 -16.5t-30 -44.5
l-48 -344h-171z" />
    <glyph glyph-name="n" unicode="n" horiz-adv-x="618" 
d="M88 517h169l-9 -64q34 33 66 50t87 17q47 0 85.5 -22t58.5 -62t13 -89l-49 -347h-170l46 325q4 29 -15 46.5t-49 17.5q-31 0 -58 -16.5t-31 -43.5l-46 -329h-171z" />
    <glyph glyph-name="o" unicode="o" horiz-adv-x="572" 
d="M107.5 23.5q-53.5 33.5 -76 94t-11.5 137.5q11 80 52.5 142t104 96t138.5 34q77 0 130 -35t75.5 -96.5t11.5 -140.5q-11 -77 -50.5 -137t-102 -94t-140.5 -34t-131.5 33.5zM331.5 157.5q26.5 42.5 35.5 103.5t-6 102t-63 41q-49 0 -76 -41t-35 -102q-9 -61 6 -103.5
t64 -42.5q48 0 74.5 42.5z" />
    <glyph glyph-name="p" unicode="p" horiz-adv-x="612" 
d="M88 517h171l-9 -63q32 36 72 54.5t85 18.5q57 0 99 -29.5t60.5 -89t6.5 -147.5q-13 -92 -52 -152.5t-93.5 -89.5t-115.5 -29q-87 0 -118 67l-31 -218h-171zM370.5 149.5q33.5 38.5 44.5 111.5q10 68 -13.5 106t-64.5 38q-25 0 -48.5 -14.5t-39.5 -37t-20 -45.5l-15 -106
q0 -39 23.5 -65t57.5 -26q42 0 75.5 38.5z" />
    <glyph glyph-name="q" unicode="q" horiz-adv-x="614" 
d="M312 -161l30 209q-39 -32 -75.5 -45t-73.5 -13q-92 0 -141.5 67.5t-30.5 203.5q12 88 47.5 147.5t86 89t107.5 29.5q41 0 77 -15.5t61 -40.5l7 46h172l-96 -678h-171zM326.5 138q26.5 36 42.5 101l5 39q9 66 -8.5 101t-57.5 35q-42 0 -73 -38t-42 -112q-11 -75 10 -118.5
t63 -43.5q34 0 60.5 36z" />
    <glyph glyph-name="r" unicode="r" horiz-adv-x="435" 
d="M88 517h165l-19 -135q30 64 81 104.5t116 40.5l-22 -161q-26 2 -35 2q-73 0 -109 -30t-42 -75l-37 -263h-171z" />
    <glyph glyph-name="s" unicode="s" horiz-adv-x="522" 
d="M67.5 31q-61.5 41 -64.5 127l141 2q7 -32 31.5 -43.5t62.5 -11.5q39 0 62 11.5t26 30.5q3 18 -12 28.5t-47 16.5l-82 15q-155 29 -137 154q7 48 39 85.5t86 59t124 21.5q68 0 116 -20.5t69.5 -58t13.5 -87.5l-139 -1q-2 30 -24 43.5t-56 13.5q-73 0 -80 -44
q-2 -16 14.5 -26.5t59.5 -18.5l73 -15q80 -20 106.5 -65.5t20.5 -91.5q-11 -77 -81.5 -121.5t-170.5 -44.5q-90 0 -151.5 41z" />
    <glyph glyph-name="t" unicode="t" horiz-adv-x="437" 
d="M289 400l-34 -254q-3 -21 5 -29t25 -8h78l-14 -101q-30 -15 -98 -15q-105 0 -141 38t-27 107l37 262h-84l17 117h90l47 163h139l-23 -162h114l-17 -118h-114z" />
    <glyph glyph-name="u" unicode="u" horiz-adv-x="618" 
d="M120 9.5q-42 19.5 -66 57.5t-17 89l51 361h171l-48 -338q-4 -31 14 -49t51 -18q35 0 58.5 18.5t27.5 49.5l48 337h172l-76 -517h-127l-2 71q-27 -39 -76.5 -60t-94.5 -21q-44 0 -86 19.5z" />
    <glyph glyph-name="v" unicode="v" horiz-adv-x="561" 
d="M291 0h-112l-138 517h153l72 -296l154 296h155z" />
    <glyph glyph-name="w" unicode="w" horiz-adv-x="803" 
d="M566 0h-126l-48 282l-130 -282h-121l-99 517h149l50 -286l128 286h119l45 -286l130 286h153z" />
    <glyph glyph-name="x" unicode="x" horiz-adv-x="604" 
d="M368 0l-90 153l-134 -153h-176l236 270l-145 247h176l77 -129l113 129h176l-217 -247l160 -270h-176z" />
    <glyph glyph-name="y" unicode="y" horiz-adv-x="586" 
d="M31 -160.5q-23 4.5 -34 9t-12 6.5l15 108l50 -3q43 -3 67 5.5t32.5 18.5t15.5 23l8 19l-132 491h168l67 -309l158 309h166l-277 -503q-39 -71 -76.5 -110.5t-75.5 -54t-84 -14.5q-33 0 -56 4.5z" />
    <glyph glyph-name="z" unicode="z" horiz-adv-x="521" 
d="M-9 84l301 327h-233l15 106h447l-12 -81l-302 -329h258l-15 -107h-471z" />
    <glyph glyph-name="braceleft" unicode="{" horiz-adv-x="401" 
d="M194 666.5q28 28.5 68 42.5t80 14h83l-13 -93h-47q-40 0 -53 -13t-17 -39l-27 -192q-8 -46 -43.5 -69t-77.5 -28q-6 -1 -7 -3t6 -3q103 -9 93 -105l-27 -193q-4 -29 7.5 -41t46.5 -12h47l-13 -93h-80q-42 0 -78.5 14t-56.5 42.5t-14 69.5l28 198q5 37 -20 59.5t-82 22.5
l12 82q60 0 89.5 21t35.5 65l26 185q6 40 34 68.5z" />
    <glyph glyph-name="bar" unicode="|" horiz-adv-x="267" 
d="M3 -161l139 987h122l-139 -987h-122z" />
    <glyph glyph-name="braceright" unicode="}" horiz-adv-x="401" 
d="M228 -104.5q-28 -28.5 -68 -42.5t-80 -14h-83l13 93h47q40 0 53 13t17 39l27 192q8 46 43.5 69t77.5 28q6 1 7 3t-6 3q-103 9 -93 105l27 193q4 29 -7.5 41t-46.5 12h-47l13 93h80q42 0 78.5 -14t56.5 -42.5t14 -69.5l-28 -198q-5 -37 20 -59.5t82 -22.5l-12 -82
q-60 0 -89.5 -21t-35.5 -65l-26 -185q-6 -40 -34 -68.5z" />
    <glyph glyph-name="asciitilde" unicode="~" horiz-adv-x="627" 
d="M492 304q-45 -26 -90 -26q-28 0 -49.5 9t-49.5 26q-26 16 -43.5 23.5t-38.5 7.5q-34 0 -61 -19t-68 -59l-36 83q54 50 95 74.5t87 24.5q30 0 51 -9t51 -27q24 -15 39.5 -22t34.5 -7q33 0 64 21.5t56 55.5l38 -81q-35 -49 -80 -75z" />
    <glyph glyph-name="uni00A0" unicode="&#xa0;" horiz-adv-x="237" 
 />
    <glyph glyph-name="exclamdown" unicode="&#xa1;" horiz-adv-x="288" 
d="M51 343l25 174h183l-25 -174h-183zM-27 -161l109 436h105l-16 -436h-198z" />
    <glyph glyph-name="cent" unicode="&#xa2;" horiz-adv-x="561" 
d="M339.5 243.5q21.5 23.5 35.5 56.5l134 -3q-14 -67 -63 -119t-121 -70l-15 -108h-109l15 105q-60 10 -102 45.5t-60.5 91.5t-8.5 125q15 106 82 178.5t163 88.5l13 89h109l-13 -92q68 -17 101 -71t29 -126l-138 -3q-8 37 -22 58.5t-48 21.5q-46 0 -78 -37t-41 -105
q-10 -69 13 -109t69 -40q34 0 55.5 23.5z" />
    <glyph glyph-name="sterling" unicode="&#xa3;" horiz-adv-x="657" 
d="M-8 140h32q84 0 96 88q3 22 4 47.5t1 60.5h-102l13 91h83l5 94q0 8 2 23q8 60 47 102.5t96 64.5t120 22q86 0 145 -40t80 -115l-154 -43q-10 35 -24 50t-40 15q-29 0 -49 -19t-25 -53t-1 -100h140l-13 -91h-128q-2 -32 -4 -43q-4 -32 -16 -59q-10 -31 -25.5 -50.5
t-45.5 -43.5h117q46 0 70.5 17t46.5 62l139 -29q-76 -191 -262 -191h-368z" />
    <glyph glyph-name="currency" unicode="&#xa4;" horiz-adv-x="591" 
d="M154 167q-6 2 -7 2q-5 0 -10 -4l-71 -62l-58 71l79 68q-15 29 -19.5 57.5t0.5 63.5q9 64 46 114q4 5 4 8t-4 8l-52 62l78 71l60 -71q66 38 127 38q63 0 116 -34q7 -3 11 1l64 58l59 -71l-72 -61q29 -57 20 -122q-10 -69 -50 -118q-3 -5 -1 -7l51 -58l-78 -70l-53 62
q-64 -38 -127 -38q-65 0 -113 32zM370.5 279.5q39.5 35.5 46.5 84.5q4 31 -7.5 59t-36.5 44.5t-59 16.5t-64 -16.5t-49.5 -44.5t-24.5 -59q-4 -32 8 -59.5t37 -44t59 -16.5q51 0 90.5 35.5z" />
    <glyph glyph-name="yen" unicode="&#xa5;" horiz-adv-x="674" 
d="M462 353h127l-13 -90h-148l-10 -72h148l-13 -88h-148l-14 -103h-194l14 103h-147l13 88h147l10 72h-147l12 89h116l-173 371h221l114 -271l188 271h178z" />
    <glyph glyph-name="brokenbar" unicode="&#xa6;" horiz-adv-x="267" 
d="M84 415l58 411h122l-58 -411h-122zM3 -161l58 411h122l-58 -411h-122z" />
    <glyph glyph-name="section" unicode="&#xa7;" horiz-adv-x="517" 
d="M54.5 -46.5q-58.5 33.5 -74.5 82.5l110 51q20 -31 47.5 -49t73.5 -18q37 0 60 12t26 35q3 18 -10.5 32.5t-50.5 28.5l-68 27q-82 32 -114 69.5t-24 96.5q6 45 33 78.5t69 53.5q-36 25 -50 54t-9 65q6 46 37 82.5t81.5 57.5t113.5 21q76 0 130.5 -33t70.5 -80l-110 -50
q-24 30 -46 46t-55 16q-29 0 -47.5 -11.5t-21.5 -31.5q-4 -26 41 -44l71 -28q84 -34 116.5 -72t24.5 -98q-12 -84 -97 -131q41 -25 57.5 -54.5t10.5 -71.5q-11 -77 -76 -123.5t-173 -46.5q-88 0 -146.5 33.5zM317 278.5q17 14.5 20 37.5q3 22 -11 38.5t-51 31.5l-38 15
q-29 -2 -46.5 -17.5t-20.5 -37.5q-3 -20 9 -32t55 -29l43 -18q23 -3 40 11.5z" />
    <glyph glyph-name="dieresis" unicode="&#xa8;" horiz-adv-x="402" 
d="M200 591h-147l19 132h147zM415 591h-148l19 132h148z" />
    <glyph glyph-name="copyright" unicode="&#xa9;" horiz-adv-x="829" 
d="M184 40q-78 50 -116 135t-24 187q14 100 76 185.5t154 135.5t193 50t179.5 -50t116.5 -135.5t24 -185.5q-14 -102 -76 -187t-154.5 -135t-193.5 -50t-179 50zM522 114.5q67 34.5 110.5 98.5t55.5 149q12 84 -13.5 148t-82.5 99.5t-137 35.5q-81 0 -147.5 -35.5
t-109.5 -99.5t-55 -148q-12 -85 13 -149t81.5 -98.5t137.5 -34.5q80 0 147 34.5zM559.5 528.5q40.5 -41.5 47.5 -96.5l-118 -9q-4 28 -14.5 45t-35.5 17q-34 0 -57.5 -30t-32.5 -91q-17 -122 63 -122q31 0 52 17t42 50l80 -18q-11 -28 -36.5 -58.5t-66.5 -53t-94 -22.5
q-58 0 -101 26t-62.5 72.5t-10.5 106.5q9 61 41.5 108.5t82.5 73.5t108 26q72 0 112.5 -41.5z" />
    <glyph glyph-name="ordfeminine" unicode="&#xaa;" horiz-adv-x="411" 
d="M71.5 423q-24.5 25 -18.5 67q7 49 58.5 80.5t131.5 32.5l31 1l3 21q3 23 -8.5 32t-29.5 9q-43 0 -65 -40l-91 19q27 45 64.5 66.5t103.5 21.5q78 -1 107.5 -26.5t22.5 -75.5l-18 -129q-8 -55 -7 -72l4 -26h-107l-3 31q-31 -20 -53 -28.5t-50 -8.5q-51 0 -75.5 25z
M243 478q15 11 17 24l6 46h-26q-33 -2 -55 -15.5t-25 -35.5q-2 -15 8 -24.5t31 -9.5q25 0 44 15z" />
    <glyph glyph-name="guillemotleft" unicode="&#xab;" horiz-adv-x="511" 
d="M215 62h-89l-87 189l140 197h90l-101 -197zM411 62h-88l-88 189l141 197h90l-101 -197z" />
    <glyph glyph-name="logicalnot" unicode="&#xac;" horiz-adv-x="596" 
d="M554 425l-39 -277h-137l22 155h-354l17 122h491z" />
    <glyph glyph-name="uni00AD" unicode="&#xad;" horiz-adv-x="393" 
d="M333 196h-281l17 122h281z" />
    <glyph glyph-name="registered" unicode="&#xae;" horiz-adv-x="551" 
d="M150.5 299q-49.5 31 -73 84t-14.5 117t47.5 117t96.5 84.5t122 31.5q63 0 112 -31.5t72.5 -85t14.5 -116.5t-47.5 -116.5t-96 -84.5t-120.5 -31q-64 0 -113.5 31zM397.5 378q50.5 46 60.5 122q11 77 -27 123t-111 46q-75 0 -125.5 -46t-61.5 -123t27 -122.5t113 -45.5
q74 0 124.5 46zM216 614h110q43 0 65 -16.5t17 -46.5q-3 -21 -17.5 -37t-35.5 -25l30 -105h-69l-20 98h-34l-14 -98h-64zM312 525q12 0 20.5 6.5t9.5 16.5q2 11 -5.5 17t-21.5 6h-41l-6 -46h44z" />
    <glyph glyph-name="macron" unicode="&#xaf;" horiz-adv-x="416" 
d="M432 614h-376l15 106h376z" />
    <glyph glyph-name="degree" unicode="&#xb0;" horiz-adv-x="473" 
d="M416 574q-28 -39 -70 -61t-91 -22t-85 22t-53 61t-10 89q7 49 35 88.5t70 62t91 22.5q48 0 84.5 -22.5t53.5 -62t10 -88.5q-7 -50 -35 -89zM340.5 718.5q-17.5 21.5 -52.5 21.5q-34 0 -57.5 -21t-28.5 -55q-5 -36 12.5 -58.5t52.5 -22.5q34 0 57.5 22t28.5 57t-12.5 56.5
z" />
    <glyph glyph-name="plusminus" unicode="&#xb1;" horiz-adv-x="596" 
d="M566 514l-17 -122h-184l-26 -184h-122l26 184h-185l17 122h185l26 185h122l-26 -185h184zM24 147h491l-17 -122h-491z" />
    <glyph glyph-name="uni00B2" unicode="&#xb2;" horiz-adv-x="389" 
d="M30 461l158 122q48 37 70.5 56t32 33t11.5 31q4 25 -11.5 40t-42.5 15q-29 0 -53.5 -16.5t-38.5 -51.5l-99 3q15 69 67.5 110.5t137.5 41.5q79 0 119.5 -38.5t31.5 -102.5q-5 -35 -25.5 -62.5t-71.5 -69.5l-120 -99h190l-13 -89h-354z" />
    <glyph glyph-name="uni00B3" unicode="&#xb3;" horiz-adv-x="404" 
d="M145.5 813q60.5 32 143.5 32q76 0 123 -33.5t39 -86.5q-10 -69 -96 -98q39 -10 63 -38t18 -72q-6 -43 -39 -74.5t-80.5 -48t-94.5 -16.5q-93 0 -139.5 31t-40.5 110l102 3q5 -32 28 -45.5t54 -13.5q37 0 62.5 15.5t28.5 38.5q3 24 -15.5 40.5t-50.5 17.5h-62l12 84l54 2
q32 1 55 17t26 38q3 20 -16.5 33.5t-45.5 13.5q-38 0 -64.5 -12t-38.5 -47l-99 3q13 74 73.5 106z" />
    <glyph glyph-name="acute" unicode="&#xb4;" horiz-adv-x="324" 
d="M349 628l-280 -68l-14 70l272 104z" />
    <glyph glyph-name="paragraph" unicode="&#xb6;" horiz-adv-x="624" 
d="M541 629l-100 -712h-102l100 712h-62l-100 -712h-102l54 382q-87 9 -137 63t-36 148q8 60 42.5 108.5t91.5 76.5t130 28h298l-14 -94h-63z" />
    <glyph glyph-name="periodcentered" unicode="&#xb7;" horiz-adv-x="281" 
d="M211 285h-165l22 159h165z" />
    <glyph glyph-name="cedilla" unicode="&#xb8;" horiz-adv-x="286" 
d="M152.5 -193q-39.5 -23 -91.5 -23q-78 0 -120 28l29 54q40 -25 78 -25q22 0 36 7.5t16 20.5q3 20 -16 30t-66 10q-7 0 -9 2t2 9l49 85h72l-30 -58q54 -1 77 -25t18 -55q-5 -37 -44.5 -60z" />
    <glyph glyph-name="uni00B9" unicode="&#xb9;" horiz-adv-x="306" 
d="M125 717l-81 -20l10 72l142 66h55l-64 -455h-109z" />
    <glyph glyph-name="ordmasculine" unicode="&#xba;" horiz-adv-x="394" 
d="M368 685.5q40 -47.5 29 -121.5q-10 -73 -63 -119.5t-128 -46.5q-74 0 -113.5 46.5t-29.5 119.5q7 50 34 88t68 59.5t88 21.5q75 0 115 -47.5zM197 639q-17 -24 -23 -73q-7 -49 3 -73t39 -24q58 0 72 97t-45 97q-29 0 -46 -24z" />
    <glyph glyph-name="guillemotright" unicode="&#xbb;" horiz-adv-x="511" 
d="M71 448h90l84 -197l-139 -189h-89l99 189zM267 448h90l84 -197l-138 -189h-90l100 189z" />
    <glyph glyph-name="onequarter" unicode="&#xbc;" horiz-adv-x="980" 
d="M110 613l-81 -20l10 72l142 66h55l-64 -455h-109zM184 -4l-95 2l591 733h94zM894 455l-38 -270h66l-12 -91h-67l-13 -94h-108l14 94h-202l13 88l241 273h106zM750 185l17 123l-109 -123h92z" />
    <glyph glyph-name="onehalf" unicode="&#xbd;" horiz-adv-x="949" 
d="M110 613l-81 -20l10 72l142 66h55l-64 -455h-109zM184 -4l-95 2l591 733h94zM536 77l158 122q48 36 70 55.5t31.5 33.5t11.5 31q4 25 -11.5 40t-42.5 15q-29 0 -53 -16t-38 -52l-100 3q14 69 67 110.5t139 41.5q52 0 88.5 -17.5t52.5 -49.5t11 -74q-5 -35 -26 -62
t-72 -70l-121 -99h190l-12 -89h-354z" />
    <glyph glyph-name="threequarters" unicode="&#xbe;" horiz-adv-x="1078" 
d="M130.5 708q60.5 32 143.5 32q76 0 123 -33.5t39 -86.5q-10 -69 -96 -98q39 -10 63 -38t18 -72q-6 -43 -39 -74.5t-80.5 -48t-94.5 -16.5q-93 0 -139.5 31t-40.5 110l102 3q5 -32 28 -45.5t54 -13.5q37 0 62.5 15.5t28.5 38.5q3 24 -15.5 40.5t-50.5 17.5h-62l12 84l54 2
q32 1 55 17t26 38q3 20 -16.5 33.5t-45.5 13.5q-38 0 -64.5 -12t-38.5 -47l-99 3q13 74 73.5 106zM282 -4l-95 2l591 733h94zM992 455l-38 -270h66l-12 -91h-67l-13 -94h-108l14 94h-202l13 88l241 273h106zM848 185l17 123l-109 -123h92z" />
    <glyph glyph-name="questiondown" unicode="&#xbf;" horiz-adv-x="550" 
d="M224 517h183l-25 -174h-183zM375.5 -126q-73.5 -45 -169.5 -45q-79 0 -131.5 23t-74.5 61.5t-15 85.5q6 40 24.5 69t41.5 48.5t61 44.5q49 33 72.5 57.5t28.5 62.5h135q-6 -42 -23.5 -74t-40 -54t-56.5 -50q-36 -29 -53.5 -49t-21.5 -46q-4 -27 17 -44t54 -17
q37 0 72.5 24t57.5 64l138 -32q-43 -84 -116.5 -129z" />
    <glyph glyph-name="Agrave" unicode="&#xc0;" horiz-adv-x="718" 
d="M327 723h177l155 -723h-169l-31 154h-244l-77 -154h-170zM439 301l-46 259l-122 -259h168zM587 836l-33 -70l-262 68l52 106z" />
    <glyph glyph-name="Aacute" unicode="&#xc1;" horiz-adv-x="718" 
d="M327 723h177l155 -723h-169l-31 154h-244l-77 -154h-170zM439 301l-46 259l-122 -259h168zM592 834l-280 -68l-14 70l272 104z" />
    <glyph glyph-name="Acircumflex" unicode="&#xc2;" horiz-adv-x="718" 
d="M327 723h177l155 -723h-169l-31 154h-244l-77 -154h-170zM439 301l-46 259l-122 -259h168zM448 872l-83 -78h-120l155 143h116l112 -143h-127z" />
    <glyph glyph-name="Atilde" unicode="&#xc3;" horiz-adv-x="718" 
d="M327 723h177l155 -723h-169l-31 154h-244l-77 -154h-170zM439 301l-46 259l-122 -259h168zM572 818q-25 -8 -53 -8q-19 0 -34.5 3.5t-41.5 11.5q-17 5 -35.5 9.5t-35.5 4.5q-20 0 -35.5 -5.5t-34.5 -18.5q-8 -5 -12 -5q-6 0 -8 12l-8 47q-1 2 -1.5 4.5t0.5 6.5q1 6 12 16
q22 18 44 27.5t51 9.5q20 0 38.5 -4t46.5 -13q17 -5 34.5 -9.5t31.5 -4.5q36 0 74 25q7 4 11 4q9 0 10 -11l4 -57q1 -2 0 -7q-1 -9 -15 -19q-18 -11 -43 -19z" />
    <glyph glyph-name="Adieresis" unicode="&#xc4;" horiz-adv-x="718" 
d="M327 723h177l155 -723h-169l-31 154h-244l-77 -154h-170zM439 301l-46 259l-122 -259h168zM404 797h-147l19 132h147zM619 797h-148l19 132h148z" />
    <glyph glyph-name="Aring" unicode="&#xc5;" horiz-adv-x="718" 
d="M327 723h177l155 -723h-169l-31 154h-244l-77 -154h-170zM439 301l-46 259l-122 -259h168zM518 801.5q-37 -32.5 -84 -32.5q-46 0 -74 33t-21 80q6 45 43 76.5t83 31.5q47 0 75 -32t21 -78q-6 -46 -43 -78.5zM487 913.5q-12 13.5 -32 13.5t-36.5 -13.5t-19.5 -34.5
q-3 -19 10 -34t32 -15q20 0 36.5 15t18.5 34q3 21 -9 34.5z" />
    <glyph glyph-name="AE" unicode="&#xc6;" horiz-adv-x="1090" 
d="M989 0h-546l22 154h-226l-101 -154h-170l483 723h631l-21 -140h-341l-21 -150h223l-20 -138h-223l-21 -154h351zM529 614l-207 -313h163z" />
    <glyph glyph-name="Ccedilla" unicode="&#xc7;" horiz-adv-x="721" 
d="M578 700.5q62 -32.5 94.5 -90t29.5 -131.5l-178 -1q-1 55 -30.5 86t-85.5 31q-144 0 -176 -228q-17 -122 12.5 -180.5t98.5 -58.5q52 0 92 36.5t57 92.5l178 -2q-32 -121 -111.5 -193t-228.5 -72q-101 0 -171 48t-99.5 134t-13.5 197t68.5 193t134 126.5t184.5 44.5
q83 0 145 -32.5zM392.5 -193q-39.5 -23 -91.5 -23q-78 0 -120 28l29 54q40 -25 78 -25q22 0 36 7.5t16 20.5q3 20 -16 30t-66 10q-7 0 -9 2t2 9l49 85h72l-30 -58q54 -1 77 -25t18 -55q-5 -37 -44.5 -60z" />
    <glyph glyph-name="Egrave" unicode="&#xc8;" horiz-adv-x="643" 
d="M128 723h515l-21 -142h-343l-21 -148h293l-20 -139h-294l-21 -151h348l-20 -143h-518zM547 836l-33 -70l-262 68l52 106z" />
    <glyph glyph-name="Eacute" unicode="&#xc9;" horiz-adv-x="643" 
d="M128 723h515l-21 -142h-343l-21 -148h293l-20 -139h-294l-21 -151h348l-20 -143h-518zM552 834l-280 -68l-14 70l272 104z" />
    <glyph glyph-name="Ecircumflex" unicode="&#xca;" horiz-adv-x="643" 
d="M128 723h515l-21 -142h-343l-21 -148h293l-20 -139h-294l-21 -151h348l-20 -143h-518zM408 872l-83 -78h-120l155 143h116l112 -143h-127z" />
    <glyph glyph-name="Edieresis" unicode="&#xcb;" horiz-adv-x="643" 
d="M128 723h515l-21 -142h-343l-21 -148h293l-20 -139h-294l-21 -151h348l-20 -143h-518zM364 797h-147l19 132h147zM579 797h-148l19 132h148z" />
    <glyph glyph-name="Igrave" unicode="&#xcc;" horiz-adv-x="314" 
d="M298 723l-102 -723h-170l102 723h170zM373 836l-33 -70l-262 68l52 106z" />
    <glyph glyph-name="Iacute" unicode="&#xcd;" horiz-adv-x="314" 
d="M298 723l-102 -723h-170l102 723h170zM378 834l-280 -68l-14 70l272 104z" />
    <glyph glyph-name="Icircumflex" unicode="&#xce;" horiz-adv-x="314" 
d="M298 723l-102 -723h-170l102 723h170zM234 872l-83 -78h-120l155 143h116l112 -143h-127z" />
    <glyph glyph-name="Idieresis" unicode="&#xcf;" horiz-adv-x="314" 
d="M298 723l-102 -723h-170l102 723h170zM190 797h-147l19 132h147zM405 797h-148l19 132h148z" />
    <glyph glyph-name="Eth" unicode="&#xd0;" horiz-adv-x="752" 
d="M661.5 622q78.5 -94 55.5 -258q-24 -169 -132.5 -266.5t-295.5 -97.5h-235l41 295h-46q-13 0 -17 5t-2 17l11 80q3 20 20 20h52l43 306h102q105 0 135 -1q190 -6 268.5 -100zM459 192q64 56 80 174q16 111 -27.5 166.5t-134.5 55.5h-69l-24 -171h126q7 0 10.5 -4.5
t2.5 -12.5l-11 -80q-2 -14 -10 -19.5t-23 -5.5h-113l-22 -159h68q83 0 147 56z" />
    <glyph glyph-name="Ntilde" unicode="&#xd1;" horiz-adv-x="790" 
d="M775 723l-102 -723h-154l-258 464l-65 -464h-170l102 723h170l244 -441l62 441h171zM597 818q-25 -8 -53 -8q-19 0 -34.5 3.5t-41.5 11.5q-17 5 -35.5 9.5t-35.5 4.5q-20 0 -35.5 -5.5t-34.5 -18.5q-8 -5 -12 -5q-6 0 -8 12l-8 47q-1 2 -1.5 4.5t0.5 6.5q1 6 12 16
q22 18 44 27.5t51 9.5q20 0 38.5 -4t46.5 -13q17 -5 34.5 -9.5t31.5 -4.5q36 0 74 25q7 4 11 4q9 0 10 -11l4 -57q1 -2 0 -7q-1 -9 -15 -19q-18 -11 -43 -19z" />
    <glyph glyph-name="Ograve" unicode="&#xd2;" horiz-adv-x="762" 
d="M159.5 35q-71.5 45 -101 128.5t-13.5 196.5t69.5 197.5t137.5 130t187 45.5q102 0 172.5 -45.5t100.5 -130t15 -197.5q-16 -113 -69.5 -196.5t-136.5 -128.5t-186 -45q-104 0 -175.5 45zM541 357q17 123 -15.5 180.5t-105.5 57.5t-123 -57.5t-67 -180.5
q-17 -119 16.5 -174t107.5 -55q155 0 187 229zM596 836l-33 -70l-262 68l52 106z" />
    <glyph glyph-name="Oacute" unicode="&#xd3;" horiz-adv-x="762" 
d="M159.5 35q-71.5 45 -101 128.5t-13.5 196.5t69.5 197.5t137.5 130t187 45.5q102 0 172.5 -45.5t100.5 -130t15 -197.5q-16 -113 -69.5 -196.5t-136.5 -128.5t-186 -45q-104 0 -175.5 45zM541 357q17 123 -15.5 180.5t-105.5 57.5t-123 -57.5t-67 -180.5
q-17 -119 16.5 -174t107.5 -55q155 0 187 229zM601 834l-280 -68l-14 70l272 104z" />
    <glyph glyph-name="Ocircumflex" unicode="&#xd4;" horiz-adv-x="762" 
d="M159.5 35q-71.5 45 -101 128.5t-13.5 196.5t69.5 197.5t137.5 130t187 45.5q102 0 172.5 -45.5t100.5 -130t15 -197.5q-16 -113 -69.5 -196.5t-136.5 -128.5t-186 -45q-104 0 -175.5 45zM541 357q17 123 -15.5 180.5t-105.5 57.5t-123 -57.5t-67 -180.5
q-17 -119 16.5 -174t107.5 -55q155 0 187 229zM457 872l-83 -78h-120l155 143h116l112 -143h-127z" />
    <glyph glyph-name="Otilde" unicode="&#xd5;" horiz-adv-x="762" 
d="M159.5 35q-71.5 45 -101 128.5t-13.5 196.5t69.5 197.5t137.5 130t187 45.5q102 0 172.5 -45.5t100.5 -130t15 -197.5q-16 -113 -69.5 -196.5t-136.5 -128.5t-186 -45q-104 0 -175.5 45zM541 357q17 123 -15.5 180.5t-105.5 57.5t-123 -57.5t-67 -180.5
q-17 -119 16.5 -174t107.5 -55q155 0 187 229zM581 818q-25 -8 -53 -8q-19 0 -34.5 3.5t-41.5 11.5q-17 5 -35.5 9.5t-35.5 4.5q-20 0 -35.5 -5.5t-34.5 -18.5q-8 -5 -12 -5q-6 0 -8 12l-8 47q-1 2 -1.5 4.5t0.5 6.5q1 6 12 16q22 18 44 27.5t51 9.5q20 0 38.5 -4t46.5 -13
q17 -5 34.5 -9.5t31.5 -4.5q36 0 74 25q7 4 11 4q9 0 10 -11l4 -57q1 -2 0 -7q-1 -9 -15 -19q-18 -11 -43 -19z" />
    <glyph glyph-name="Odieresis" unicode="&#xd6;" horiz-adv-x="762" 
d="M159.5 35q-71.5 45 -101 128.5t-13.5 196.5t69.5 197.5t137.5 130t187 45.5q102 0 172.5 -45.5t100.5 -130t15 -197.5q-16 -113 -69.5 -196.5t-136.5 -128.5t-186 -45q-104 0 -175.5 45zM541 357q17 123 -15.5 180.5t-105.5 57.5t-123 -57.5t-67 -180.5
q-17 -119 16.5 -174t107.5 -55q155 0 187 229zM413 797h-147l19 132h147zM628 797h-148l19 132h148z" />
    <glyph glyph-name="multiply" unicode="&#xd7;" horiz-adv-x="593" 
d="M384 364l132 -152l-99 -87l-132 153l-174 -153l-73 87l173 152l-131 153l97 87l132 -154l176 154l75 -87z" />
    <glyph glyph-name="Oslash" unicode="&#xd8;" horiz-adv-x="774" 
d="M801 664q-1 -6 -8 -12l-86 -77q39 -89 22 -215q-16 -113 -69.5 -196.5t-136.5 -128.5t-186 -45q-67 0 -120.5 19t-91.5 55l-67 -59q-10 -10 -20 -10t-18 10l-30 36q-9 11 -9 18q1 5 9 14l79 69q-40 90 -22 218q16 113 69.5 197.5t137.5 130t187 45.5q135 0 213 -78l74 65
q9 8 18 8q6 0 10 -4l41 -49q5 -4 4 -11zM247 295l273 244q-13 31 -37 46t-61 15q-73 0 -114 -57.5t-59 -185.5q-5 -35 -2 -62zM527 421l-270 -243q25 -53 99 -53q73 0 112.5 54t56.5 178q5 37 2 64z" />
    <glyph glyph-name="Ugrave" unicode="&#xd9;" horiz-adv-x="745" 
d="M565.5 67.5q-81.5 -77.5 -240.5 -77.5t-218.5 78t-39.5 222l61 433h173l-63 -443q-10 -74 20 -110.5t87 -36.5q58 0 98.5 36.5t50.5 110.5l63 443h172l-62 -436q-20 -142 -101.5 -219.5zM573 836l-33 -70l-262 68l52 106z" />
    <glyph glyph-name="Uacute" unicode="&#xda;" horiz-adv-x="745" 
d="M565.5 67.5q-81.5 -77.5 -240.5 -77.5t-218.5 78t-39.5 222l61 433h173l-63 -443q-10 -74 20 -110.5t87 -36.5q58 0 98.5 36.5t50.5 110.5l63 443h172l-62 -436q-20 -142 -101.5 -219.5zM578 834l-280 -68l-14 70l272 104z" />
    <glyph glyph-name="Ucircumflex" unicode="&#xdb;" horiz-adv-x="745" 
d="M565.5 67.5q-81.5 -77.5 -240.5 -77.5t-218.5 78t-39.5 222l61 433h173l-63 -443q-10 -74 20 -110.5t87 -36.5q58 0 98.5 36.5t50.5 110.5l63 443h172l-62 -436q-20 -142 -101.5 -219.5zM434 872l-83 -78h-120l155 143h116l112 -143h-127z" />
    <glyph glyph-name="Udieresis" unicode="&#xdc;" horiz-adv-x="745" 
d="M565.5 67.5q-81.5 -77.5 -240.5 -77.5t-218.5 78t-39.5 222l61 433h173l-63 -443q-10 -74 20 -110.5t87 -36.5q58 0 98.5 36.5t50.5 110.5l63 443h172l-62 -436q-20 -142 -101.5 -219.5zM390 797h-147l19 132h147zM605 797h-148l19 132h148z" />
    <glyph glyph-name="Yacute" unicode="&#xdd;" horiz-adv-x="683" 
d="M423 303l-43 -303h-171l43 303l-194 420h184l116 -275l192 275h186zM581 834l-280 -68l-14 70l272 104z" />
    <glyph glyph-name="Thorn" unicode="&#xde;" horiz-adv-x="722" 
d="M604 203q-81 -59 -202 -59h-162l-20 -144h-194l102 723h194l-19 -134h140q81 0 143 -25t93 -75.5t20 -122.5q-14 -104 -95 -163zM481.5 429q-25.5 22 -70.5 22h-128l-23 -169h134q44 0 73 23.5t35 62.5q5 39 -20.5 61z" />
    <glyph glyph-name="germandbls" unicode="&#xdf;" horiz-adv-x="656" 
d="M548.5 683q50.5 -40 40.5 -113q-7 -51 -43 -84.5t-113 -63.5q-10 -5 -14 -8.5t-5 -8.5q-1 -6 2.5 -9.5t13.5 -6.5q66 -31 102.5 -54t59 -63t13.5 -100q-12 -88 -77.5 -135t-166.5 -47q-78 0 -128 33l63 103q18 -14 34.5 -21.5t41.5 -7.5q32 0 53.5 14.5t25.5 42.5
q4 25 -13.5 39.5t-62.5 33.5q-101 47 -89 136q5 35 24 61.5t50 49.5q8 6 28.5 22.5t31.5 32t14 32.5q3 24 -13.5 39t-49.5 15q-42 0 -69 -25.5t-33 -67.5l-73 -522h-167l52 372h-57l17 117h56q17 101 89.5 167.5t207.5 66.5q104 0 154.5 -40z" />
    <glyph glyph-name="agrave" unicode="&#xe0;" horiz-adv-x="577" 
d="M506 0h-171h171zM335 0l7 48q-39 -32 -75.5 -45t-73.5 -13q-92 0 -141.5 67.5t-30.5 203.5q12 88 47.5 147.5t86 89t107.5 29.5q41 0 77 -15.5t61 -40.5l7 46h172l-73 -517h-171zM326.5 138q26.5 36 42.5 101l5 39q9 66 -8.5 101t-57.5 35q-42 0 -73 -38t-42 -112
q-11 -75 10 -118.5t63 -43.5q34 0 60.5 36zM475 630l-33 -70l-262 68l52 106z" />
    <glyph glyph-name="aacute" unicode="&#xe1;" horiz-adv-x="577" 
d="M506 0h-171h171zM335 0l7 48q-39 -32 -75.5 -45t-73.5 -13q-92 0 -141.5 67.5t-30.5 203.5q12 88 47.5 147.5t86 89t107.5 29.5q41 0 77 -15.5t61 -40.5l7 46h172l-73 -517h-171zM326.5 138q26.5 36 42.5 101l5 39q9 66 -8.5 101t-57.5 35q-42 0 -73 -38t-42 -112
q-11 -75 10 -118.5t63 -43.5q34 0 60.5 36zM480 628l-280 -68l-14 70l272 104z" />
    <glyph glyph-name="acircumflex" unicode="&#xe2;" horiz-adv-x="577" 
d="M506 0h-171h171zM335 0l7 48q-39 -32 -75.5 -45t-73.5 -13q-92 0 -141.5 67.5t-30.5 203.5q12 88 47.5 147.5t86 89t107.5 29.5q41 0 77 -15.5t61 -40.5l7 46h172l-73 -517h-171zM326.5 138q26.5 36 42.5 101l5 39q9 66 -8.5 101t-57.5 35q-42 0 -73 -38t-42 -112
q-11 -75 10 -118.5t63 -43.5q34 0 60.5 36zM336 666l-83 -78h-120l155 143h116l112 -143h-127z" />
    <glyph glyph-name="atilde" unicode="&#xe3;" horiz-adv-x="577" 
d="M506 0h-171h171zM335 0l7 48q-39 -32 -75.5 -45t-73.5 -13q-92 0 -141.5 67.5t-30.5 203.5q12 88 47.5 147.5t86 89t107.5 29.5q41 0 77 -15.5t61 -40.5l7 46h172l-73 -517h-171zM326.5 138q26.5 36 42.5 101l5 39q9 66 -8.5 101t-57.5 35q-42 0 -73 -38t-42 -112
q-11 -75 10 -118.5t63 -43.5q34 0 60.5 36zM460 612q-25 -8 -53 -8q-19 0 -34.5 3.5t-41.5 11.5q-17 5 -35.5 9.5t-35.5 4.5q-20 0 -35.5 -5.5t-34.5 -18.5q-8 -5 -12 -5q-6 0 -8 12l-8 47q-1 2 -1.5 4.5t0.5 6.5q1 6 12 16q22 18 44 27.5t51 9.5q20 0 38.5 -4t46.5 -13
q17 -5 34.5 -9.5t31.5 -4.5q36 0 74 25q7 4 11 4q9 0 10 -11l4 -57q1 -2 0 -7q-1 -9 -15 -19q-18 -11 -43 -19z" />
    <glyph glyph-name="adieresis" unicode="&#xe4;" horiz-adv-x="577" 
d="M506 0h-171h171zM335 0l7 48q-39 -32 -75.5 -45t-73.5 -13q-92 0 -141.5 67.5t-30.5 203.5q12 88 47.5 147.5t86 89t107.5 29.5q41 0 77 -15.5t61 -40.5l7 46h172l-73 -517h-171zM326.5 138q26.5 36 42.5 101l5 39q9 66 -8.5 101t-57.5 35q-42 0 -73 -38t-42 -112
q-11 -75 10 -118.5t63 -43.5q34 0 60.5 36zM292 591h-147l19 132h147zM507 591h-148l19 132h148z" />
    <glyph glyph-name="aring" unicode="&#xe5;" horiz-adv-x="577" 
d="M506 0h-171h171zM335 0l7 48q-39 -32 -75.5 -45t-73.5 -13q-92 0 -141.5 67.5t-30.5 203.5q12 88 47.5 147.5t86 89t107.5 29.5q41 0 77 -15.5t61 -40.5l7 46h172l-73 -517h-171zM326.5 138q26.5 36 42.5 101l5 39q9 66 -8.5 101t-57.5 35q-42 0 -73 -38t-42 -112
q-11 -75 10 -118.5t63 -43.5q34 0 60.5 36zM406 595.5q-37 -32.5 -84 -32.5q-46 0 -74 33t-21 80q6 45 43 76.5t83 31.5q47 0 75 -32t21 -78q-6 -46 -43 -78.5zM375 707.5q-12 13.5 -32 13.5t-36.5 -13.5t-19.5 -34.5q-3 -19 10 -34t32 -15q20 0 36.5 15t18.5 34
q3 21 -9 34.5z" />
    <glyph glyph-name="ae" unicode="&#xe6;" horiz-adv-x="909" 
d="M537.5 138q28.5 -33 77.5 -33q34 0 64.5 15.5t68.5 51.5l99 -44q-61 -77 -122.5 -107.5t-147.5 -30.5q-63 0 -111.5 23t-78.5 62q-5 4 -10 0q-50 -43 -103 -64t-123 -21q-80 0 -118.5 40.5t-29.5 107.5q11 79 88 126.5t212 54.5l54 4l5 31q5 33 -11 50.5t-52 17.5
q-66 0 -105 -65l-141 31q41 71 101.5 105t164.5 34q127 -1 173 -51q35 25 75 38t82 13q75 0 129 -35.5t77.5 -103.5t10.5 -161h-349q-8 -56 20.5 -89zM571 396.5q-31 -27.5 -38 -77.5l180 -1q5 38 -13 72t-58 34t-71 -27.5zM302 233q-46 -3 -85.5 -25t-44.5 -59
q-4 -25 11.5 -40.5t47.5 -15.5q38 0 68.5 18.5t34.5 47.5l11 77z" />
    <glyph glyph-name="ccedilla" unicode="&#xe7;" horiz-adv-x="535" 
d="M423 499.5q44 -27.5 64 -74t17 -102.5l-138 -3q-8 37 -22 58.5t-48 21.5q-46 0 -77.5 -37t-41.5 -105q-10 -69 13 -109t69 -40q34 0 55.5 23.5t36.5 56.5l133 -3q-11 -53 -44.5 -98t-85.5 -71.5t-116 -26.5q-73 0 -126.5 33.5t-78 94t-13.5 138.5q11 79 52 140.5t104 96
t137 34.5q66 0 110 -27.5zM299.5 -193q-39.5 -23 -91.5 -23q-78 0 -120 28l29 54q40 -25 78 -25q22 0 36 7.5t16 20.5q3 20 -16 30t-66 10q-7 0 -9 2t2 9l49 85h72l-30 -58q54 -1 77 -25t18 -55q-5 -37 -44.5 -60z" />
    <glyph glyph-name="egrave" unicode="&#xe8;" horiz-adv-x="564" 
d="M196.5 139.5q21.5 -28.5 63.5 -28.5q34 0 58.5 13t41.5 44l150 -3q-15 -53 -56 -92.5t-95.5 -61t-110.5 -21.5q-78 0 -133.5 32.5t-81 92t-14.5 137.5q11 77 50.5 139.5t102.5 99t142 36.5q119 0 173 -73t37 -192l-6 -43h-336q-7 -51 14.5 -79.5zM375 317q6 40 -14 66.5
t-63 26.5q-39 0 -68 -28t-34 -65h179zM473 630l-33 -70l-262 68l52 106z" />
    <glyph glyph-name="eacute" unicode="&#xe9;" horiz-adv-x="564" 
d="M196.5 139.5q21.5 -28.5 63.5 -28.5q34 0 58.5 13t41.5 44l150 -3q-15 -53 -56 -92.5t-95.5 -61t-110.5 -21.5q-78 0 -133.5 32.5t-81 92t-14.5 137.5q11 77 50.5 139.5t102.5 99t142 36.5q119 0 173 -73t37 -192l-6 -43h-336q-7 -51 14.5 -79.5zM375 317q6 40 -14 66.5
t-63 26.5q-39 0 -68 -28t-34 -65h179zM478 628l-280 -68l-14 70l272 104z" />
    <glyph glyph-name="ecircumflex" unicode="&#xea;" horiz-adv-x="564" 
d="M196.5 139.5q21.5 -28.5 63.5 -28.5q34 0 58.5 13t41.5 44l150 -3q-15 -53 -56 -92.5t-95.5 -61t-110.5 -21.5q-78 0 -133.5 32.5t-81 92t-14.5 137.5q11 77 50.5 139.5t102.5 99t142 36.5q119 0 173 -73t37 -192l-6 -43h-336q-7 -51 14.5 -79.5zM375 317q6 40 -14 66.5
t-63 26.5q-39 0 -68 -28t-34 -65h179zM334 666l-83 -78h-120l155 143h116l112 -143h-127z" />
    <glyph glyph-name="edieresis" unicode="&#xeb;" horiz-adv-x="564" 
d="M196.5 139.5q21.5 -28.5 63.5 -28.5q34 0 58.5 13t41.5 44l150 -3q-15 -53 -56 -92.5t-95.5 -61t-110.5 -21.5q-78 0 -133.5 32.5t-81 92t-14.5 137.5q11 77 50.5 139.5t102.5 99t142 36.5q119 0 173 -73t37 -192l-6 -43h-336q-7 -51 14.5 -79.5zM375 317q6 40 -14 66.5
t-63 26.5q-39 0 -68 -28t-34 -65h179zM290 591h-147l19 132h147zM505 591h-148l19 132h148z" />
    <glyph glyph-name="igrave" unicode="&#xec;" horiz-adv-x="293" 
d="M186 0h-171l73 517h171zM336 630l-33 -70l-262 68l52 106z" />
    <glyph glyph-name="iacute" unicode="&#xed;" horiz-adv-x="293" 
d="M186 0h-171l73 517h171zM341 628l-280 -68l-14 70l272 104z" />
    <glyph glyph-name="icircumflex" unicode="&#xee;" horiz-adv-x="293" 
d="M186 0h-171l73 517h171zM197 666l-83 -78h-120l155 143h116l112 -143h-127z" />
    <glyph glyph-name="idieresis" unicode="&#xef;" horiz-adv-x="293" 
d="M186 0h-171l73 517h171zM153 591h-147l19 132h147zM368 591h-148l19 132h148z" />
    <glyph glyph-name="eth" unicode="&#xf0;" horiz-adv-x="592" 
d="M500.5 122.5q-42.5 -63.5 -107.5 -98t-145 -34.5q-77 0 -132.5 33t-81.5 91.5t-15 131.5q11 75 53.5 134.5t107.5 93t140 33.5q21 0 27 -6q-23 46 -68 83l-127 -66l-24 50l100 50q-43 24 -91 42l100 74q71 -19 123 -47l97 50l20 -51l-64 -34q85 -66 122 -165t20 -216
q-12 -85 -54.5 -148.5zM340 139q29 38 39 111t-8.5 111t-64.5 38q-45 0 -75 -38.5t-40 -110.5t9 -110.5t64 -38.5q47 0 76 38z" />
    <glyph glyph-name="ntilde" unicode="&#xf1;" 
d="M88 517h169l-9 -64q34 33 66 50t87 17q47 0 85.5 -22t58.5 -62t13 -89l-49 -347h-170l46 325q4 29 -15 46.5t-49 17.5q-31 0 -58 -16.5t-31 -43.5l-46 -329h-171zM481 612q-25 -8 -53 -8q-19 0 -34.5 3.5t-41.5 11.5q-17 5 -35.5 9.5t-35.5 4.5q-20 0 -35.5 -5.5
t-34.5 -18.5q-8 -5 -12 -5q-6 0 -8 12l-8 47q-1 2 -1.5 4.5t0.5 6.5q1 6 12 16q22 18 44 27.5t51 9.5q20 0 38.5 -4t46.5 -13q17 -5 34.5 -9.5t31.5 -4.5q36 0 74 25q7 4 11 4q9 0 10 -11l4 -57q1 -2 0 -7q-1 -9 -15 -19q-18 -11 -43 -19z" />
    <glyph glyph-name="ograve" unicode="&#xf2;" horiz-adv-x="572" 
d="M107.5 23.5q-53.5 33.5 -76 94t-11.5 137.5q11 80 52.5 142t104 96t138.5 34q77 0 130 -35t75.5 -96.5t11.5 -140.5q-11 -77 -50.5 -137t-102 -94t-140.5 -34t-131.5 33.5zM331.5 157.5q26.5 42.5 35.5 103.5t-6 102t-63 41q-49 0 -76 -41t-35 -102q-9 -61 6 -103.5
t64 -42.5q48 0 74.5 42.5zM473 630l-33 -70l-262 68l52 106z" />
    <glyph glyph-name="oacute" unicode="&#xf3;" horiz-adv-x="572" 
d="M107.5 23.5q-53.5 33.5 -76 94t-11.5 137.5q11 80 52.5 142t104 96t138.5 34q77 0 130 -35t75.5 -96.5t11.5 -140.5q-11 -77 -50.5 -137t-102 -94t-140.5 -34t-131.5 33.5zM331.5 157.5q26.5 42.5 35.5 103.5t-6 102t-63 41q-49 0 -76 -41t-35 -102q-9 -61 6 -103.5
t64 -42.5q48 0 74.5 42.5zM478 628l-280 -68l-14 70l272 104z" />
    <glyph glyph-name="ocircumflex" unicode="&#xf4;" horiz-adv-x="572" 
d="M107.5 23.5q-53.5 33.5 -76 94t-11.5 137.5q11 80 52.5 142t104 96t138.5 34q77 0 130 -35t75.5 -96.5t11.5 -140.5q-11 -77 -50.5 -137t-102 -94t-140.5 -34t-131.5 33.5zM331.5 157.5q26.5 42.5 35.5 103.5t-6 102t-63 41q-49 0 -76 -41t-35 -102q-9 -61 6 -103.5
t64 -42.5q48 0 74.5 42.5zM334 666l-83 -78h-120l155 143h116l112 -143h-127z" />
    <glyph glyph-name="otilde" unicode="&#xf5;" horiz-adv-x="572" 
d="M107.5 23.5q-53.5 33.5 -76 94t-11.5 137.5q11 80 52.5 142t104 96t138.5 34q77 0 130 -35t75.5 -96.5t11.5 -140.5q-11 -77 -50.5 -137t-102 -94t-140.5 -34t-131.5 33.5zM331.5 157.5q26.5 42.5 35.5 103.5t-6 102t-63 41q-49 0 -76 -41t-35 -102q-9 -61 6 -103.5
t64 -42.5q48 0 74.5 42.5zM458 612q-25 -8 -53 -8q-19 0 -34.5 3.5t-41.5 11.5q-17 5 -35.5 9.5t-35.5 4.5q-20 0 -35.5 -5.5t-34.5 -18.5q-8 -5 -12 -5q-6 0 -8 12l-8 47q-1 2 -1.5 4.5t0.5 6.5q1 6 12 16q22 18 44 27.5t51 9.5q20 0 38.5 -4t46.5 -13q17 -5 34.5 -9.5
t31.5 -4.5q36 0 74 25q7 4 11 4q9 0 10 -11l4 -57q1 -2 0 -7q-1 -9 -15 -19q-18 -11 -43 -19z" />
    <glyph glyph-name="odieresis" unicode="&#xf6;" horiz-adv-x="572" 
d="M107.5 23.5q-53.5 33.5 -76 94t-11.5 137.5q11 80 52.5 142t104 96t138.5 34q77 0 130 -35t75.5 -96.5t11.5 -140.5q-11 -77 -50.5 -137t-102 -94t-140.5 -34t-131.5 33.5zM331.5 157.5q26.5 42.5 35.5 103.5t-6 102t-63 41q-49 0 -76 -41t-35 -102q-9 -61 6 -103.5
t64 -42.5q48 0 74.5 42.5zM290 591h-147l19 132h147zM505 591h-148l19 132h148z" />
    <glyph glyph-name="divide" unicode="&#xf7;" horiz-adv-x="598" 
d="M403 489h-169l23 163h169zM537 303h-491l17 122h491zM345 76h-169l23 163h169z" />
    <glyph glyph-name="oslash" unicode="&#xf8;" horiz-adv-x="604" 
d="M526 409q29 -65 17 -154q-11 -77 -50.5 -137t-102 -94t-140.5 -34q-99 0 -161 56l-65 -54l-45 56l69 57q-29 64 -17 150q11 80 52.5 142t104 96t138.5 34q101 0 160 -59l67 56l44 -57zM195 227l173 144q-18 33 -59 33q-49 0 -76 -41t-35 -102q-2 -12 -3 -34zM380 288
l-170 -142q19 -31 58 -31q48 0 74.5 42.5t35.5 103.5q2 18 2 27z" />
    <glyph glyph-name="ugrave" unicode="&#xf9;" 
d="M120 9.5q-42 19.5 -66 57.5t-17 89l51 361h171l-48 -338q-4 -31 14 -49t51 -18q35 0 58.5 18.5t27.5 49.5l48 337h172l-76 -517h-127l-2 71q-27 -39 -76.5 -60t-94.5 -21q-44 0 -86 19.5zM492 630l-33 -70l-262 68l52 106z" />
    <glyph glyph-name="uacute" unicode="&#xfa;" 
d="M120 9.5q-42 19.5 -66 57.5t-17 89l51 361h171l-48 -338q-4 -31 14 -49t51 -18q35 0 58.5 18.5t27.5 49.5l48 337h172l-76 -517h-127l-2 71q-27 -39 -76.5 -60t-94.5 -21q-44 0 -86 19.5zM497 628l-280 -68l-14 70l272 104z" />
    <glyph glyph-name="ucircumflex" unicode="&#xfb;" 
d="M120 9.5q-42 19.5 -66 57.5t-17 89l51 361h171l-48 -338q-4 -31 14 -49t51 -18q35 0 58.5 18.5t27.5 49.5l48 337h172l-76 -517h-127l-2 71q-27 -39 -76.5 -60t-94.5 -21q-44 0 -86 19.5zM353 666l-83 -78h-120l155 143h116l112 -143h-127z" />
    <glyph glyph-name="udieresis" unicode="&#xfc;" 
d="M120 9.5q-42 19.5 -66 57.5t-17 89l51 361h171l-48 -338q-4 -31 14 -49t51 -18q35 0 58.5 18.5t27.5 49.5l48 337h172l-76 -517h-127l-2 71q-27 -39 -76.5 -60t-94.5 -21q-44 0 -86 19.5zM309 591h-147l19 132h147zM524 591h-148l19 132h148z" />
    <glyph glyph-name="yacute" unicode="&#xfd;" horiz-adv-x="586" 
d="M31 -160.5q-23 4.5 -34 9t-12 6.5l15 108l50 -3q43 -3 67 5.5t32.5 18.5t15.5 23l8 19l-132 491h168l67 -309l158 309h166l-277 -503q-39 -71 -76.5 -110.5t-75.5 -54t-84 -14.5q-33 0 -56 4.5zM505 628l-280 -68l-14 70l272 104z" />
    <glyph glyph-name="thorn" unicode="&#xfe;" horiz-adv-x="612" 
d="M250 454q39 35 76 54t88 19q88 0 132.5 -67.5t26.5 -198.5q-19 -137 -84.5 -204t-156.5 -67q-38 0 -67.5 11.5t-53.5 38.5q-9 9 -13 9q-5 0 -7 -14l-28 -196h-171l125 884h171zM281 95q47 0 77 39.5t43 131.5q12 85 -7.5 120.5t-65.5 35.5q-35 0 -61.5 -20.5t-30.5 -47.5
l-30 -214q28 -45 75 -45z" />
    <glyph glyph-name="ydieresis" unicode="&#xff;" horiz-adv-x="586" 
d="M31 -160.5q-23 4.5 -34 9t-12 6.5l15 108l50 -3q43 -3 67 5.5t32.5 18.5t15.5 23l8 19l-132 491h168l67 -309l158 309h166l-277 -503q-39 -71 -76.5 -110.5t-75.5 -54t-84 -14.5q-33 0 -56 4.5zM317 591h-147l19 132h147zM532 591h-148l19 132h148z" />
    <glyph glyph-name="Amacron" unicode="&#x100;" horiz-adv-x="718" 
d="M327 723h177l155 -723h-169l-31 154h-244l-77 -154h-170zM439 301l-46 259l-122 -259h168zM629 820h-376l15 106h376z" />
    <glyph glyph-name="amacron" unicode="&#x101;" horiz-adv-x="577" 
d="M506 0h-171h171zM335 0l7 48q-39 -32 -75.5 -45t-73.5 -13q-92 0 -141.5 67.5t-30.5 203.5q12 88 47.5 147.5t86 89t107.5 29.5q41 0 77 -15.5t61 -40.5l7 46h172l-73 -517h-171zM326.5 138q26.5 36 42.5 101l5 39q9 66 -8.5 101t-57.5 35q-42 0 -73 -38t-42 -112
q-11 -75 10 -118.5t63 -43.5q34 0 60.5 36zM517 614h-376l15 106h376z" />
    <glyph glyph-name="Abreve" unicode="&#x102;" horiz-adv-x="718" 
d="M327 723h177l155 -723h-169l-31 154h-244l-77 -154h-170zM439 301l-46 259l-122 -259h168zM559 828.5q-55 -35.5 -121 -35.5q-67 0 -112.5 35t-54.5 101h96q9 -25 31.5 -41t51.5 -16q25 0 52 16.5t44 40.5h97q-29 -65 -84 -100.5z" />
    <glyph glyph-name="abreve" unicode="&#x103;" horiz-adv-x="577" 
d="M506 0h-171h171zM335 0l7 48q-39 -32 -75.5 -45t-73.5 -13q-92 0 -141.5 67.5t-30.5 203.5q12 88 47.5 147.5t86 89t107.5 29.5q41 0 77 -15.5t61 -40.5l7 46h172l-73 -517h-171zM326.5 138q26.5 36 42.5 101l5 39q9 66 -8.5 101t-57.5 35q-42 0 -73 -38t-42 -112
q-11 -75 10 -118.5t63 -43.5q34 0 60.5 36zM447 622.5q-55 -35.5 -121 -35.5q-67 0 -112.5 35t-54.5 101h96q9 -25 31.5 -41t51.5 -16q25 0 52 16.5t44 40.5h97q-29 -65 -84 -100.5z" />
    <glyph glyph-name="Aogonek" unicode="&#x104;" horiz-adv-x="718" 
d="M327 723h177l155 -723h-169l-31 154h-244l-77 -154h-170zM439 301l-46 259l-122 -259h168zM482 -35q23 22 80 41l117 -2q-55 -18 -76.5 -33.5t-24.5 -34.5q-4 -30 27 -30q25 0 59 15q6 3 9 3q7 0 6 -12l-7 -46q-1 -10 -11 -16q-16 -8 -45 -14t-60 -6q-53 0 -80 21.5
t-21 62.5q4 29 27 51z" />
    <glyph glyph-name="aogonek" unicode="&#x105;" horiz-adv-x="577" 
d="M506 0h-171h171zM335 0l7 48q-39 -32 -75.5 -45t-73.5 -13q-92 0 -141.5 67.5t-30.5 203.5q12 88 47.5 147.5t86 89t107.5 29.5q41 0 77 -15.5t61 -40.5l7 46h172l-73 -517h-171zM326.5 138q26.5 36 42.5 101l5 39q9 66 -8.5 101t-57.5 35q-42 0 -73 -38t-42 -112
q-11 -75 10 -118.5t63 -43.5q34 0 60.5 36zM268 -33q23 22 80 41l117 -2q-55 -18 -76.5 -33.5t-24.5 -34.5q-4 -30 27 -30q25 0 59 15q6 3 9 3q7 0 6 -12l-7 -46q-1 -10 -11 -16q-16 -8 -45 -14t-60 -6q-53 0 -80 21.5t-21 62.5q4 29 27 51z" />
    <glyph glyph-name="Cacute" unicode="&#x106;" horiz-adv-x="721" 
d="M578 700.5q62 -32.5 94.5 -90t29.5 -131.5l-178 -1q-1 55 -30.5 86t-85.5 31q-144 0 -176 -228q-17 -122 12.5 -180.5t98.5 -58.5q52 0 92 36.5t57 92.5l178 -2q-32 -121 -111.5 -193t-228.5 -72q-101 0 -171 48t-99.5 134t-13.5 197t68.5 193t134 126.5t184.5 44.5
q83 0 145 -32.5zM597 834l-280 -68l-14 70l272 104z" />
    <glyph glyph-name="cacute" unicode="&#x107;" horiz-adv-x="535" 
d="M423 499.5q44 -27.5 64 -74t17 -102.5l-138 -3q-8 37 -22 58.5t-48 21.5q-46 0 -77.5 -37t-41.5 -105q-10 -69 13 -109t69 -40q34 0 55.5 23.5t36.5 56.5l133 -3q-11 -53 -44.5 -98t-85.5 -71.5t-116 -26.5q-73 0 -126.5 33.5t-78 94t-13.5 138.5q11 79 52 140.5t104 96
t137 34.5q66 0 110 -27.5zM476 628l-280 -68l-14 70l272 104z" />
    <glyph glyph-name="Ccircumflex" unicode="&#x108;" horiz-adv-x="721" 
d="M578 700.5q62 -32.5 94.5 -90t29.5 -131.5l-178 -1q-1 55 -30.5 86t-85.5 31q-144 0 -176 -228q-17 -122 12.5 -180.5t98.5 -58.5q52 0 92 36.5t57 92.5l178 -2q-32 -121 -111.5 -193t-228.5 -72q-101 0 -171 48t-99.5 134t-13.5 197t68.5 193t134 126.5t184.5 44.5
q83 0 145 -32.5zM453 872l-83 -78h-120l155 143h116l112 -143h-127z" />
    <glyph glyph-name="ccircumflex" unicode="&#x109;" horiz-adv-x="535" 
d="M423 499.5q44 -27.5 64 -74t17 -102.5l-138 -3q-8 37 -22 58.5t-48 21.5q-46 0 -77.5 -37t-41.5 -105q-10 -69 13 -109t69 -40q34 0 55.5 23.5t36.5 56.5l133 -3q-11 -53 -44.5 -98t-85.5 -71.5t-116 -26.5q-73 0 -126.5 33.5t-78 94t-13.5 138.5q11 79 52 140.5t104 96
t137 34.5q66 0 110 -27.5zM332 666l-83 -78h-120l155 143h116l112 -143h-127z" />
    <glyph glyph-name="Cdotaccent" unicode="&#x10a;" horiz-adv-x="721" 
d="M578 700.5q62 -32.5 94.5 -90t29.5 -131.5l-178 -1q-1 55 -30.5 86t-85.5 31q-144 0 -176 -228q-17 -122 12.5 -180.5t98.5 -58.5q52 0 92 36.5t57 92.5l178 -2q-32 -121 -111.5 -193t-228.5 -72q-101 0 -171 48t-99.5 134t-13.5 197t68.5 193t134 126.5t184.5 44.5
q83 0 145 -32.5zM527 777h-172l22 152h172z" />
    <glyph glyph-name="cdotaccent" unicode="&#x10b;" horiz-adv-x="535" 
d="M423 499.5q44 -27.5 64 -74t17 -102.5l-138 -3q-8 37 -22 58.5t-48 21.5q-46 0 -77.5 -37t-41.5 -105q-10 -69 13 -109t69 -40q34 0 55.5 23.5t36.5 56.5l133 -3q-11 -53 -44.5 -98t-85.5 -71.5t-116 -26.5q-73 0 -126.5 33.5t-78 94t-13.5 138.5q11 79 52 140.5t104 96
t137 34.5q66 0 110 -27.5zM406 571h-172l22 152h172z" />
    <glyph glyph-name="Ccaron" unicode="&#x10c;" horiz-adv-x="721" 
d="M578 700.5q62 -32.5 94.5 -90t29.5 -131.5l-178 -1q-1 55 -30.5 86t-85.5 31q-144 0 -176 -228q-17 -122 12.5 -180.5t98.5 -58.5q52 0 92 36.5t57 92.5l178 -2q-32 -121 -111.5 -193t-228.5 -72q-101 0 -171 48t-99.5 134t-13.5 197t68.5 193t134 126.5t184.5 44.5
q83 0 145 -32.5zM652 930l-153 -145h-117l-113 145h120l61 -79l75 79h127z" />
    <glyph glyph-name="ccaron" unicode="&#x10d;" horiz-adv-x="535" 
d="M423 499.5q44 -27.5 64 -74t17 -102.5l-138 -3q-8 37 -22 58.5t-48 21.5q-46 0 -77.5 -37t-41.5 -105q-10 -69 13 -109t69 -40q34 0 55.5 23.5t36.5 56.5l133 -3q-11 -53 -44.5 -98t-85.5 -71.5t-116 -26.5q-73 0 -126.5 33.5t-78 94t-13.5 138.5q11 79 52 140.5t104 96
t137 34.5q66 0 110 -27.5zM531 724l-153 -145h-117l-113 145h120l61 -79l75 79h127z" />
    <glyph glyph-name="Dcaron" unicode="&#x10e;" horiz-adv-x="724" 
d="M230 723q105 0 135 -1q189 -6 268 -100t56 -258q-24 -169 -132.5 -266.5t-295.5 -97.5h-235l102 723h102zM216 136h68q83 0 147 56t80 174q16 111 -27.5 166.5t-134.5 55.5h-69zM637 930l-153 -145h-117l-113 145h120l61 -79l75 79h127z" />
    <glyph glyph-name="dcaron" unicode="&#x10f;" horiz-adv-x="611" 
d="M51 62q-48 72 -30 198q17 124 80.5 195.5t160.5 71.5q44 0 80 -16t56 -52l39 284h171l-104 -743h-122l-3 69q-25 -32 -71 -55.5t-105 -23.5q-104 0 -152 72zM328 142q29 31 37 86l11 76q2 53 -18 77t-57 24q-95 0 -115 -143q-11 -79 10 -115t64 -36q39 0 68 31z
M484.5 324q-1.5 4 0.5 10l41 74q4 8 4 11q1 7 -8 8l-10 2q-9 1 -12 4t-2 10l13 92q1 7 5 10.5t9 3.5h87q12 0 10 -11l-15 -109q-1 -6 -5 -9l-48 -86q-4 -8 -10.5 -11t-19.5 -3h-32q-6 0 -7.5 4z" />
    <glyph glyph-name="Dcroat" unicode="&#x110;" horiz-adv-x="752" 
d="M661.5 622q78.5 -94 55.5 -258q-24 -169 -132.5 -266.5t-295.5 -97.5h-235l41 295h-46q-13 0 -17 5t-2 17l11 80q3 20 20 20h52l43 306h102q105 0 135 -1q190 -6 268.5 -100zM459 192q64 56 80 174q16 111 -27.5 166.5t-134.5 55.5h-69l-24 -171h126q7 0 10.5 -4.5
t2.5 -12.5l-11 -80q-2 -14 -10 -19.5t-23 -5.5h-113l-22 -159h68q83 0 147 56z" />
    <glyph glyph-name="dcroat" unicode="&#x111;" horiz-adv-x="615" 
d="M622 573h-37l-81 -573h-122l-3 69q-25 -32 -71 -55.5t-105 -23.5q-104 0 -152 72t-30 198q17 124 80.5 195.5t160.5 71.5q44 0 80 -16t56 -52l16 114h-142l13 93h142l10 77h171l-10 -77h37zM376 304q2 53 -18 77t-57 24q-95 0 -115 -143q-11 -79 10 -115t64 -36
q39 0 68 31t37 86z" />
    <glyph glyph-name="Emacron" unicode="&#x112;" horiz-adv-x="643" 
d="M128 723h515l-21 -142h-343l-21 -148h293l-20 -139h-294l-21 -151h348l-20 -143h-518zM589 820h-376l15 106h376z" />
    <glyph glyph-name="emacron" unicode="&#x113;" horiz-adv-x="564" 
d="M196.5 139.5q21.5 -28.5 63.5 -28.5q34 0 58.5 13t41.5 44l150 -3q-15 -53 -56 -92.5t-95.5 -61t-110.5 -21.5q-78 0 -133.5 32.5t-81 92t-14.5 137.5q11 77 50.5 139.5t102.5 99t142 36.5q119 0 173 -73t37 -192l-6 -43h-336q-7 -51 14.5 -79.5zM375 317q6 40 -14 66.5
t-63 26.5q-39 0 -68 -28t-34 -65h179zM515 614h-376l15 106h376z" />
    <glyph glyph-name="Ebreve" unicode="&#x114;" horiz-adv-x="643" 
d="M128 723h515l-21 -142h-343l-21 -148h293l-20 -139h-294l-21 -151h348l-20 -143h-518zM519 828.5q-55 -35.5 -121 -35.5q-67 0 -112.5 35t-54.5 101h96q9 -25 31.5 -41t51.5 -16q25 0 52 16.5t44 40.5h97q-29 -65 -84 -100.5z" />
    <glyph glyph-name="ebreve" unicode="&#x115;" horiz-adv-x="564" 
d="M196.5 139.5q21.5 -28.5 63.5 -28.5q34 0 58.5 13t41.5 44l150 -3q-15 -53 -56 -92.5t-95.5 -61t-110.5 -21.5q-78 0 -133.5 32.5t-81 92t-14.5 137.5q11 77 50.5 139.5t102.5 99t142 36.5q119 0 173 -73t37 -192l-6 -43h-336q-7 -51 14.5 -79.5zM375 317q6 40 -14 66.5
t-63 26.5q-39 0 -68 -28t-34 -65h179zM445 622.5q-55 -35.5 -121 -35.5q-67 0 -112.5 35t-54.5 101h96q9 -25 31.5 -41t51.5 -16q25 0 52 16.5t44 40.5h97q-29 -65 -84 -100.5z" />
    <glyph glyph-name="Edotaccent" unicode="&#x116;" horiz-adv-x="643" 
d="M128 723h515l-21 -142h-343l-21 -148h293l-20 -139h-294l-21 -151h348l-20 -143h-518zM482 777h-172l22 152h172z" />
    <glyph glyph-name="edotaccent" unicode="&#x117;" horiz-adv-x="564" 
d="M196.5 139.5q21.5 -28.5 63.5 -28.5q34 0 58.5 13t41.5 44l150 -3q-15 -53 -56 -92.5t-95.5 -61t-110.5 -21.5q-78 0 -133.5 32.5t-81 92t-14.5 137.5q11 77 50.5 139.5t102.5 99t142 36.5q119 0 173 -73t37 -192l-6 -43h-336q-7 -51 14.5 -79.5zM375 317q6 40 -14 66.5
t-63 26.5q-39 0 -68 -28t-34 -65h179zM408 571h-172l22 152h172z" />
    <glyph glyph-name="Eogonek" unicode="&#x118;" horiz-adv-x="643" 
d="M128 723h515l-21 -142h-343l-21 -148h293l-20 -139h-294l-21 -151h348l-20 -143h-518zM365 -34q23 22 80 41l117 -2q-55 -18 -76.5 -33.5t-24.5 -34.5q-4 -30 27 -30q25 0 59 15q6 3 9 3q7 0 6 -12l-7 -46q-1 -10 -11 -16q-16 -8 -45 -14t-60 -6q-53 0 -80 21.5t-21 62.5
q4 29 27 51z" />
    <glyph glyph-name="eogonek" unicode="&#x119;" horiz-adv-x="564" 
d="M196.5 139.5q21.5 -28.5 63.5 -28.5q34 0 58.5 13t41.5 44l150 -3q-15 -53 -56 -92.5t-95.5 -61t-110.5 -21.5q-78 0 -133.5 32.5t-81 92t-14.5 137.5q11 77 50.5 139.5t102.5 99t142 36.5q119 0 173 -73t37 -192l-6 -43h-336q-7 -51 14.5 -79.5zM375 317q6 40 -14 66.5
t-63 26.5q-39 0 -68 -28t-34 -65h179zM189 -20q23 22 80 41l117 -2q-55 -18 -76.5 -33.5t-24.5 -34.5q-4 -30 27 -30q25 0 59 15q6 3 9 3q7 0 6 -12l-7 -46q-1 -10 -11 -16q-16 -8 -45 -14t-60 -6q-53 0 -80 21.5t-21 62.5q4 29 27 51z" />
    <glyph glyph-name="Ecaron" unicode="&#x11a;" horiz-adv-x="643" 
d="M128 723h515l-21 -142h-343l-21 -148h293l-20 -139h-294l-21 -151h348l-20 -143h-518zM607 930l-153 -145h-117l-113 145h120l61 -79l75 79h127z" />
    <glyph glyph-name="ecaron" unicode="&#x11b;" horiz-adv-x="564" 
d="M196.5 139.5q21.5 -28.5 63.5 -28.5q34 0 58.5 13t41.5 44l150 -3q-15 -53 -56 -92.5t-95.5 -61t-110.5 -21.5q-78 0 -133.5 32.5t-81 92t-14.5 137.5q11 77 50.5 139.5t102.5 99t142 36.5q119 0 173 -73t37 -192l-6 -43h-336q-7 -51 14.5 -79.5zM375 317q6 40 -14 66.5
t-63 26.5q-39 0 -68 -28t-34 -65h179zM533 724l-153 -145h-117l-113 145h120l61 -79l75 79h127z" />
    <glyph glyph-name="Gcircumflex" unicode="&#x11c;" horiz-adv-x="762" 
d="M157 36q-69 46 -98.5 130t-14.5 193q16 112 71.5 197t140 131t185.5 46q88 0 152 -35.5t94.5 -94t22.5 -124.5l-178 -1q-4 51 -33.5 82t-82.5 31q-69 0 -119 -55t-67 -171q-18 -125 21.5 -175.5t108.5 -50.5q50 0 86.5 28t49.5 63l12 36h-138l17 116l316 -2l-53 -380
h-114l12 87q-42 -43 -92.5 -70t-129.5 -27q-100 0 -169 46zM451 872l-83 -78h-120l155 143h116l112 -143h-127z" />
    <glyph glyph-name="gcircumflex" unicode="&#x11d;" horiz-adv-x="641" 
d="M31.5 -137q-70.5 34 -63.5 89q9 61 60.5 75.5t54.5 15.5q-2 1 -19 10t-29 28.5t-8 43.5q4 31 36 54.5t88 32.5q-49 24 -70.5 65t-15.5 86q7 50 45.5 87t99.5 56t131 19q50 0 82.5 -10t63.5 -29q7 3 19 7.5t28 9.5l123 47l-18 -125l-91 -14q2 -11 2.5 -24.5t-0.5 -22.5
q-6 -45 -39.5 -85t-92 -64.5t-135.5 -24.5l-60 2q-32 -3 -34 -15q-1 -10 15.5 -13t67.5 -7l105 -6q97 -6 141 -47.5t35 -103.5q-11 -77 -91.5 -124t-218.5 -47q-141 0 -211.5 34zM360 302.5q23 20.5 28 55.5t-12.5 58t-52.5 23t-59.5 -23t-29.5 -58q-5 -34 13.5 -55
t53.5 -21q36 0 59 20.5zM360.5 -68q22.5 11 25.5 34q3 20 -13.5 32.5t-50.5 14.5l-105 7q-35 2 -56 -13t-24 -35q-4 -28 31 -39.5t115 -11.5q55 0 77.5 11zM361 666l-83 -78h-120l155 143h116l112 -143h-127z" />
    <glyph glyph-name="Gbreve" unicode="&#x11e;" horiz-adv-x="762" 
d="M157 36q-69 46 -98.5 130t-14.5 193q16 112 71.5 197t140 131t185.5 46q88 0 152 -35.5t94.5 -94t22.5 -124.5l-178 -1q-4 51 -33.5 82t-82.5 31q-69 0 -119 -55t-67 -171q-18 -125 21.5 -175.5t108.5 -50.5q50 0 86.5 28t49.5 63l12 36h-138l17 116l316 -2l-53 -380
h-114l12 87q-42 -43 -92.5 -70t-129.5 -27q-100 0 -169 46zM562 828.5q-55 -35.5 -121 -35.5q-67 0 -112.5 35t-54.5 101h96q9 -25 31.5 -41t51.5 -16q25 0 52 16.5t44 40.5h97q-29 -65 -84 -100.5z" />
    <glyph glyph-name="gbreve" unicode="&#x11f;" horiz-adv-x="641" 
d="M31.5 -137q-70.5 34 -63.5 89q9 61 60.5 75.5t54.5 15.5q-2 1 -19 10t-29 28.5t-8 43.5q4 31 36 54.5t88 32.5q-49 24 -70.5 65t-15.5 86q7 50 45.5 87t99.5 56t131 19q50 0 82.5 -10t63.5 -29q7 3 19 7.5t28 9.5l123 47l-18 -125l-91 -14q2 -11 2.5 -24.5t-0.5 -22.5
q-6 -45 -39.5 -85t-92 -64.5t-135.5 -24.5l-60 2q-32 -3 -34 -15q-1 -10 15.5 -13t67.5 -7l105 -6q97 -6 141 -47.5t35 -103.5q-11 -77 -91.5 -124t-218.5 -47q-141 0 -211.5 34zM360 302.5q23 20.5 28 55.5t-12.5 58t-52.5 23t-59.5 -23t-29.5 -58q-5 -34 13.5 -55
t53.5 -21q36 0 59 20.5zM360.5 -68q22.5 11 25.5 34q3 20 -13.5 32.5t-50.5 14.5l-105 7q-35 2 -56 -13t-24 -35q-4 -28 31 -39.5t115 -11.5q55 0 77.5 11zM472 622.5q-55 -35.5 -121 -35.5q-67 0 -112.5 35t-54.5 101h96q9 -25 31.5 -41t51.5 -16q25 0 52 16.5t44 40.5h97
q-29 -65 -84 -100.5z" />
    <glyph glyph-name="Gdotaccent" unicode="&#x120;" horiz-adv-x="762" 
d="M157 36q-69 46 -98.5 130t-14.5 193q16 112 71.5 197t140 131t185.5 46q88 0 152 -35.5t94.5 -94t22.5 -124.5l-178 -1q-4 51 -33.5 82t-82.5 31q-69 0 -119 -55t-67 -171q-18 -125 21.5 -175.5t108.5 -50.5q50 0 86.5 28t49.5 63l12 36h-138l17 116l316 -2l-53 -380
h-114l12 87q-42 -43 -92.5 -70t-129.5 -27q-100 0 -169 46zM525 777h-172l22 152h172z" />
    <glyph glyph-name="gdotaccent" unicode="&#x121;" horiz-adv-x="641" 
d="M31.5 -137q-70.5 34 -63.5 89q9 61 60.5 75.5t54.5 15.5q-2 1 -19 10t-29 28.5t-8 43.5q4 31 36 54.5t88 32.5q-49 24 -70.5 65t-15.5 86q7 50 45.5 87t99.5 56t131 19q50 0 82.5 -10t63.5 -29q7 3 19 7.5t28 9.5l123 47l-18 -125l-91 -14q2 -11 2.5 -24.5t-0.5 -22.5
q-6 -45 -39.5 -85t-92 -64.5t-135.5 -24.5l-60 2q-32 -3 -34 -15q-1 -10 15.5 -13t67.5 -7l105 -6q97 -6 141 -47.5t35 -103.5q-11 -77 -91.5 -124t-218.5 -47q-141 0 -211.5 34zM360 302.5q23 20.5 28 55.5t-12.5 58t-52.5 23t-59.5 -23t-29.5 -58q-5 -34 13.5 -55
t53.5 -21q36 0 59 20.5zM360.5 -68q22.5 11 25.5 34q3 20 -13.5 32.5t-50.5 14.5l-105 7q-35 2 -56 -13t-24 -35q-4 -28 31 -39.5t115 -11.5q55 0 77.5 11zM435 571h-172l22 152h172z" />
    <glyph glyph-name="Gcommaaccent" unicode="&#x122;" horiz-adv-x="762" 
d="M157 36q-69 46 -98.5 130t-14.5 193q16 112 71.5 197t140 131t185.5 46q88 0 152 -35.5t94.5 -94t22.5 -124.5l-178 -1q-4 51 -33.5 82t-82.5 31q-69 0 -119 -55t-67 -171q-18 -125 21.5 -175.5t108.5 -50.5q50 0 86.5 28t49.5 63l12 36h-138l17 116l316 -2l-53 -380
h-114l12 87q-42 -43 -92.5 -70t-129.5 -27q-100 0 -169 46zM245.5 -232q-3.5 6 1.5 12l38 45q5 5 6 12q1 5 -2 9t-9 4h-8q-12 0 -15.5 4t-1.5 15l8 61q2 17 18 17h85q14 0 12 -14l-12 -83q0 -3 -2 -6.5t-3 -5.5l-58 -64q-6 -7 -12 -9.5t-18 -2.5h-17q-7 0 -10.5 6z" />
    <glyph glyph-name="gcommaaccent" unicode="&#x123;" horiz-adv-x="641" 
d="M280 693l74 81h61l-76 -88h55l-13 -97h-115zM31.5 -137q-70.5 34 -63.5 89q9 61 60.5 75.5t54.5 15.5q-2 1 -19 10t-29 28.5t-8 43.5q4 31 36 54.5t88 32.5q-49 24 -70.5 65t-15.5 86q7 50 45.5 87t99.5 56t131 19q50 0 82.5 -10t63.5 -29q7 3 19 7.5t28 9.5l123 47
l-18 -125l-91 -14q2 -11 2.5 -24.5t-0.5 -22.5q-6 -45 -39.5 -85t-92 -64.5t-135.5 -24.5l-60 2q-32 -3 -34 -15q-1 -10 15.5 -13t67.5 -7l105 -6q97 -6 141 -47.5t35 -103.5q-11 -77 -91.5 -124t-218.5 -47q-141 0 -211.5 34zM360 302.5q23 20.5 28 55.5t-12.5 58t-52.5 23
t-59.5 -23t-29.5 -58q-5 -34 13.5 -55t53.5 -21q36 0 59 20.5zM360.5 -68q22.5 11 25.5 34q3 20 -13.5 32.5t-50.5 14.5l-105 7q-35 2 -56 -13t-24 -35q-4 -28 31 -39.5t115 -11.5q55 0 77.5 11z" />
    <glyph glyph-name="Hcircumflex" unicode="&#x124;" horiz-adv-x="732" 
d="M238 300l-42 -300h-170l102 723h170l-40 -282h247l40 282h171l-102 -723h-171l42 300h-247zM440 872l-83 -78h-120l155 143h116l112 -143h-127z" />
    <glyph glyph-name="hcircumflex" unicode="&#x125;" horiz-adv-x="616" 
d="M119 743h168l-41 -292q31 26 49 38.5t44.5 21t64.5 8.5q49 0 86.5 -21t55.5 -59t11 -87l-49 -352h-170l46 330q4 26 -14 42.5t-47 16.5q-27 0 -52.5 -15.5t-37.5 -40.5l-47 -333h-171zM476 666l-83 -78h-120l155 143h116l112 -143h-127z" />
    <glyph glyph-name="Hbar" unicode="&#x126;" horiz-adv-x="784" 
d="M811 619l-7 -53q-3 -21 -28 -21h-53l-77 -545h-171l42 300h-247l-42 -300h-170l77 545h-78q-11 0 -14.5 4.5t-2.5 15.5l8 53q3 18 15 18h84l13 87h170l-13 -87h247l13 87h171l-13 -87h64q14 0 12 -17zM552 545h-247l-15 -104h247z" />
    <glyph glyph-name="hbar" unicode="&#x127;" horiz-adv-x="631" 
d="M504.5 498q37.5 -21 55.5 -59t11 -87l-49 -352h-170l46 330q4 26 -14 42.5t-47 16.5q-27 0 -52.5 -15.5t-37.5 -40.5l-47 -333h-171l81 573h-64l13 93h64l10 77h168l-10 -77h117l-13 -93h-117l-18 -122q31 26 49 38.5t44.5 21t64.5 8.5q49 0 86.5 -21z" />
    <glyph glyph-name="Itilde" unicode="&#x128;" horiz-adv-x="314" 
d="M298 723l-102 -723h-170l102 723h170zM358 818q-25 -8 -53 -8q-19 0 -34.5 3.5t-41.5 11.5q-17 5 -35.5 9.5t-35.5 4.5q-20 0 -35.5 -5.5t-34.5 -18.5q-8 -5 -12 -5q-6 0 -8 12l-8 47q-1 2 -1.5 4.5t0.5 6.5q1 6 12 16q22 18 44 27.5t51 9.5q20 0 38.5 -4t46.5 -13
q17 -5 34.5 -9.5t31.5 -4.5q36 0 74 25q7 4 11 4q9 0 10 -11l4 -57q1 -2 0 -7q-1 -9 -15 -19q-18 -11 -43 -19z" />
    <glyph glyph-name="itilde" unicode="&#x129;" horiz-adv-x="293" 
d="M186 0h-171l73 517h171zM321 612q-25 -8 -53 -8q-19 0 -34.5 3.5t-41.5 11.5q-17 5 -35.5 9.5t-35.5 4.5q-20 0 -35.5 -5.5t-34.5 -18.5q-8 -5 -12 -5q-6 0 -8 12l-8 47q-1 2 -1.5 4.5t0.5 6.5q1 6 12 16q22 18 44 27.5t51 9.5q20 0 38.5 -4t46.5 -13q17 -5 34.5 -9.5
t31.5 -4.5q36 0 74 25q7 4 11 4q9 0 10 -11l4 -57q1 -2 0 -7q-1 -9 -15 -19q-18 -11 -43 -19z" />
    <glyph glyph-name="Imacron" unicode="&#x12a;" horiz-adv-x="314" 
d="M298 723l-102 -723h-170l102 723h170zM415 820h-376l15 106h376z" />
    <glyph glyph-name="imacron" unicode="&#x12b;" horiz-adv-x="293" 
d="M186 0h-171l73 517h171zM378 614h-376l15 106h376z" />
    <glyph glyph-name="Ibreve" unicode="&#x12c;" horiz-adv-x="314" 
d="M298 723l-102 -723h-170l102 723h170zM345 828.5q-55 -35.5 -121 -35.5q-67 0 -112.5 35t-54.5 101h96q9 -25 31.5 -41t51.5 -16q25 0 52 16.5t44 40.5h97q-29 -65 -84 -100.5z" />
    <glyph glyph-name="ibreve" unicode="&#x12d;" horiz-adv-x="293" 
d="M186 0h-171l73 517h171zM308 622.5q-55 -35.5 -121 -35.5q-67 0 -112.5 35t-54.5 101h96q9 -25 31.5 -41t51.5 -16q25 0 52 16.5t44 40.5h97q-29 -65 -84 -100.5z" />
    <glyph glyph-name="Iogonek" unicode="&#x12e;" horiz-adv-x="314" 
d="M298 723l-102 -723h-170l102 723h170zM-3 -40q23 22 80 41l117 -2q-55 -18 -76.5 -33.5t-24.5 -34.5q-4 -30 27 -30q25 0 59 15q6 3 9 3q7 0 6 -12l-7 -46q-1 -10 -11 -16q-16 -8 -45 -14t-60 -6q-53 0 -80 21.5t-21 62.5q4 29 27 51z" />
    <glyph glyph-name="iogonek" unicode="&#x12f;" horiz-adv-x="293" 
d="M186 0h-171l73 517h171zM271 571h-172l22 152h172zM-16 -34q23 22 80 41l117 -2q-55 -18 -76.5 -33.5t-24.5 -34.5q-4 -30 27 -30q25 0 59 15q6 3 9 3q7 0 6 -12l-7 -46q-1 -10 -11 -16q-16 -8 -45 -14t-60 -6q-53 0 -80 21.5t-21 62.5q4 29 27 51z" />
    <glyph glyph-name="Idotaccent" unicode="&#x130;" horiz-adv-x="314" 
d="M298 723l-102 -723h-170l102 723h170zM308 777h-172l22 152h172z" />
    <glyph glyph-name="dotlessi" unicode="&#x131;" horiz-adv-x="294" 
d="M186 0h-171l73 517h171z" />
    <glyph glyph-name="IJ" unicode="&#x132;" horiz-adv-x="735" 
d="M298 723l-102 -723h-170l102 723h170zM612.5 87.5q-23.5 -48.5 -70 -73t-126.5 -24.5q-30 0 -67.5 4t-59.5 9l24 154q7 -1 28 -5t40 -4q49 0 71 25.5t30 85.5l66 464h171l-72 -508q-11 -79 -34.5 -127.5z" />
    <glyph glyph-name="ij" unicode="&#x133;" horiz-adv-x="597" 
d="M270 590h-172l21 153h172zM187 0h-171l73 517h171zM570 590h-172l21 153h172zM423.5 -121q-52.5 -45 -149.5 -45q-24 0 -38 3.5t-19.5 7.5t-6.5 5l15 113l36 5q30 5 42 16t15 33l71 500h171l-71 -501q-13 -92 -65.5 -137z" />
    <glyph glyph-name="Jcircumflex" unicode="&#x134;" horiz-adv-x="421" 
d="M298.5 87.5q-23.5 -48.5 -70 -73t-126.5 -24.5q-30 0 -67.5 4t-59.5 9l24 154q7 -1 28 -5t40 -4q49 0 71 25.5t30 85.5l66 464h171l-72 -508q-11 -79 -34.5 -127.5zM298 872l-83 -78h-120l155 143h116l112 -143h-127z" />
    <glyph glyph-name="jcircumflex" unicode="&#x135;" horiz-adv-x="286" 
d="M115.5 -120.5q-52.5 -45.5 -149.5 -45.5q-34 0 -49.5 6t-14.5 10l15 113l36 5q30 5 42 16t15 33l71 500h171l-71 -501q-13 -91 -65.5 -136.5zM186 666l-83 -78h-120l155 143h116l112 -143h-127z" />
    <glyph glyph-name="Kcommaaccent" unicode="&#x136;" horiz-adv-x="728" 
d="M477 0l-131 321l-115 -123l-28 -198h-177l102 723h177l-44 -312l280 312h193l-248 -277l176 -446h-185zM222.5 -232q-3.5 6 1.5 12l38 45q5 5 6 12q1 5 -2 9t-9 4h-8q-12 0 -15.5 4t-1.5 15l8 61q2 17 18 17h85q14 0 12 -14l-12 -83q0 -3 -2 -6.5t-3 -5.5l-58 -64
q-6 -7 -12 -9.5t-18 -2.5h-17q-7 0 -10.5 6z" />
    <glyph glyph-name="kcommaaccent" unicode="&#x137;" horiz-adv-x="601" 
d="M368 0l-100 207l-61 -59l-21 -148h-171l104 743h171l-60 -429l204 203h171l-218 -210l149 -307h-168zM171.5 -232q-3.5 6 1.5 12l38 45q5 5 6 12q1 5 -2 9t-9 4h-8q-12 0 -15.5 4t-1.5 15l8 61q2 17 18 17h85q14 0 12 -14l-12 -83q0 -3 -2 -6.5t-3 -5.5l-58 -64
q-6 -7 -12 -9.5t-18 -2.5h-17q-7 0 -10.5 6z" />
    <glyph glyph-name="kgreenlandic" unicode="&#x138;" horiz-adv-x="627" 
d="M368 0l-72 224l-89 -76l-21 -148h-171l73 517h171l-30 -212l221 212h170l-193 -170l135 -347h-194z" />
    <glyph glyph-name="Lacute" unicode="&#x139;" horiz-adv-x="568" 
d="M299 723l-82 -581h301l-20 -142h-472l102 723h171zM369 834l-280 -68l-14 70l272 104z" />
    <glyph glyph-name="lacute" unicode="&#x13a;" horiz-adv-x="334" 
d="M79 13.5q-37 22.5 -43.5 56t0.5 81.5l83 592h168l-80 -570q-4 -27 6 -42.5t44 -19.5l21 -2l-14 -104q-39 -14 -68 -14q-80 0 -117 22.5zM372 876l-280 -68l-14 70l272 104z" />
    <glyph glyph-name="Lcommaaccent" unicode="&#x13b;" horiz-adv-x="568" 
d="M299 723l-82 -581h301l-20 -142h-472l102 723h171zM174.5 -232q-3.5 6 1.5 12l38 45q5 5 6 12q1 5 -2 9t-9 4h-8q-12 0 -15.5 4t-1.5 15l8 61q2 17 18 17h85q14 0 12 -14l-12 -83q0 -3 -2 -6.5t-3 -5.5l-58 -64q-6 -7 -12 -9.5t-18 -2.5h-17q-7 0 -10.5 6z" />
    <glyph glyph-name="lcommaaccent" unicode="&#x13c;" horiz-adv-x="334" 
d="M79 13.5q-37 22.5 -43.5 56t0.5 81.5l83 592h168l-80 -570q-4 -27 6 -42.5t44 -19.5l21 -2l-14 -104q-39 -14 -68 -14q-80 0 -117 22.5zM3.5 -232q-3.5 6 1.5 12l38 45q5 5 6 12q1 5 -2 9t-9 4h-8q-12 0 -15.5 4t-1.5 15l8 61q2 17 18 17h85q14 0 12 -14l-12 -83
q0 -3 -2 -6.5t-3 -5.5l-58 -64q-6 -7 -12 -9.5t-18 -2.5h-17q-7 0 -10.5 6z" />
    <glyph glyph-name="Lcaron" unicode="&#x13d;" horiz-adv-x="568" 
d="M299 723l-82 -581h301l-20 -142h-472l102 723h171zM402.5 498q-1.5 4 0.5 10l41 74q4 8 4 11q1 7 -8 8l-10 2q-9 1 -12 4t-2 10l13 92q1 7 5 10.5t9 3.5h87q12 0 10 -11l-15 -109q-1 -6 -5 -9l-48 -86q-4 -8 -10.5 -11t-19.5 -3h-32q-6 0 -7.5 4z" />
    <glyph glyph-name="lcaron" unicode="&#x13e;" horiz-adv-x="334" 
d="M79 13.5q-37 22.5 -43.5 56t0.5 81.5l83 592h168l-80 -570q-4 -27 6 -42.5t44 -19.5l21 -2l-14 -104q-39 -14 -68 -14q-80 0 -117 22.5zM306.5 533q-1.5 4 0.5 10l41 74q4 8 4 11q1 7 -8 8l-10 2q-9 1 -12 4t-2 10l13 92q1 7 5 10.5t9 3.5h87q12 0 10 -11l-15 -109
q-1 -6 -5 -9l-48 -86q-4 -8 -10.5 -11t-19.5 -3h-32q-6 0 -7.5 4z" />
    <glyph glyph-name="Ldot" unicode="&#x13f;" horiz-adv-x="614" 
d="M299 723l-82 -581h301l-20 -142h-472l102 723h171zM572 325h-165l22 159h165z" />
    <glyph glyph-name="ldot" unicode="&#x140;" horiz-adv-x="428" 
d="M79 13.5q-37 22.5 -43.5 56t0.5 81.5l83 592h168l-80 -570q-4 -27 6 -42.5t44 -19.5l21 -2l-14 -104q-39 -14 -68 -14q-80 0 -117 22.5zM424 201h-165l22 159h165z" />
    <glyph glyph-name="Lslash" unicode="&#x141;" horiz-adv-x="579" 
d="M530 142l-20 -142h-472l42 299l-60 -16q-8 -2 -11 -2q-13 0 -10 17l14 102q1 10 6 14t14 7l67 17l40 285h171l-34 -239l146 37q3 1 8 1q13 0 11 -17l-14 -97q-2 -15 -21 -21l-149 -40l-29 -205h301z" />
    <glyph glyph-name="lslash" unicode="&#x142;" horiz-adv-x="352" 
d="M325 109l-14 -104q-39 -14 -68 -14q-80 0 -117 22.5t-43.5 56t0.5 81.5l8 54l-94 -59l20 144l94 57l55 396h168l-40 -285l54 33l-19 -136l-54 -34l-21 -148q-4 -27 6 -42.5t44 -19.5z" />
    <glyph glyph-name="Nacute" unicode="&#x143;" horiz-adv-x="790" 
d="M775 723l-102 -723h-154l-258 464l-65 -464h-170l102 723h170l244 -441l62 441h171zM617 834l-280 -68l-14 70l272 104z" />
    <glyph glyph-name="nacute" unicode="&#x144;" 
d="M88 517h169l-9 -64q34 33 66 50t87 17q47 0 85.5 -22t58.5 -62t13 -89l-49 -347h-170l46 325q4 29 -15 46.5t-49 17.5q-31 0 -58 -16.5t-31 -43.5l-46 -329h-171zM501 628l-280 -68l-14 70l272 104z" />
    <glyph glyph-name="Ncommaaccent" unicode="&#x145;" horiz-adv-x="790" 
d="M775 723l-102 -723h-154l-258 464l-65 -464h-170l102 723h170l244 -441l62 441h171zM260.5 -232q-3.5 6 1.5 12l38 45q5 5 6 12q1 5 -2 9t-9 4h-8q-12 0 -15.5 4t-1.5 15l8 61q2 17 18 17h85q14 0 12 -14l-12 -83q0 -3 -2 -6.5t-3 -5.5l-58 -64q-6 -7 -12 -9.5t-18 -2.5
h-17q-7 0 -10.5 6z" />
    <glyph glyph-name="ncommaaccent" unicode="&#x146;" 
d="M88 517h169l-9 -64q34 33 66 50t87 17q47 0 85.5 -22t58.5 -62t13 -89l-49 -347h-170l46 325q4 29 -15 46.5t-49 17.5q-31 0 -58 -16.5t-31 -43.5l-46 -329h-171zM177.5 -232q-3.5 6 1.5 12l38 45q5 5 6 12q1 5 -2 9t-9 4h-8q-12 0 -15.5 4t-1.5 15l8 61q2 17 18 17h85
q14 0 12 -14l-12 -83q0 -3 -2 -6.5t-3 -5.5l-58 -64q-6 -7 -12 -9.5t-18 -2.5h-17q-7 0 -10.5 6z" />
    <glyph glyph-name="Ncaron" unicode="&#x147;" horiz-adv-x="790" 
d="M775 723l-102 -723h-154l-258 464l-65 -464h-170l102 723h170l244 -441l62 441h171zM672 930l-153 -145h-117l-113 145h120l61 -79l75 79h127z" />
    <glyph glyph-name="ncaron" unicode="&#x148;" 
d="M88 517h169l-9 -64q34 33 66 50t87 17q47 0 85.5 -22t58.5 -62t13 -89l-49 -347h-170l46 325q4 29 -15 46.5t-49 17.5q-31 0 -58 -16.5t-31 -43.5l-46 -329h-171zM556 724l-153 -145h-117l-113 145h120l61 -79l75 79h127z" />
    <glyph glyph-name="napostrophe" unicode="&#x149;" horiz-adv-x="738" 
d="M61 443.5q-2 4.5 0 9.5l45 106q3 5 3 11q1 7 -7 8l-9 2q-9 0 -12.5 3.5t-1.5 11.5l16 114q2 14 14 14h88q12 0 10 -11l-18 -132q-1 -6 -5 -9l-53 -118q-3 -8 -9.5 -11t-18.5 -3h-34q-6 0 -8 4.5zM210 517h169l-9 -64q34 33 66 50t87 17q47 0 85.5 -22t58.5 -62t13 -89
l-49 -347h-170l46 325q4 29 -15 46.5t-49 17.5q-31 0 -58 -16.5t-31 -43.5l-46 -329h-171z" />
    <glyph glyph-name="Eng" unicode="&#x14a;" horiz-adv-x="766" 
d="M747 708l-96 -676q-15 -107 -73.5 -155t-165.5 -48q-53 0 -118 12q-15 3 -19.5 11.5t-0.5 25.5l22 98q5 23 22 20q3 -1 21.5 -4.5t38.5 -3.5q36 0 58.5 18t29.5 60l3 16l-217 334q-3 6 -5.5 5.5t-3.5 -6.5l-55 -396l-1 -3q-1 -8 -6.5 -12t-17.5 -4h-115q-22 0 -19 18
l96 685q2 11 7 15.5t16 4.5h137q11 0 16 -2.5t12 -12.5l214 -339q6 -7 9 -7q5 0 6 11l47 332q3 18 23 18h123q14 0 12 -15z" />
    <glyph glyph-name="eng" unicode="&#x14b;" horiz-adv-x="620" 
d="M254 -161.5q-13 4.5 -13 7.5l17 118l29 3q25 3 38 13.5t16 33.5l46 331q4 28 -9.5 44t-43.5 16q-51 0 -97 -56l-49 -349h-173l76 517h167l-12 -81q96 91 184 91q70 0 106 -42.5t26 -113.5l-50 -354q-12 -84 -69 -133.5t-141 -49.5q-35 0 -48 4.5z" />
    <glyph glyph-name="Omacron" unicode="&#x14c;" horiz-adv-x="762" 
d="M159.5 35q-71.5 45 -101 128.5t-13.5 196.5t69.5 197.5t137.5 130t187 45.5q102 0 172.5 -45.5t100.5 -130t15 -197.5q-16 -113 -69.5 -196.5t-136.5 -128.5t-186 -45q-104 0 -175.5 45zM541 357q17 123 -15.5 180.5t-105.5 57.5t-123 -57.5t-67 -180.5
q-17 -119 16.5 -174t107.5 -55q155 0 187 229zM638 820h-376l15 106h376z" />
    <glyph glyph-name="omacron" unicode="&#x14d;" horiz-adv-x="572" 
d="M107.5 23.5q-53.5 33.5 -76 94t-11.5 137.5q11 80 52.5 142t104 96t138.5 34q77 0 130 -35t75.5 -96.5t11.5 -140.5q-11 -77 -50.5 -137t-102 -94t-140.5 -34t-131.5 33.5zM331.5 157.5q26.5 42.5 35.5 103.5t-6 102t-63 41q-49 0 -76 -41t-35 -102q-9 -61 6 -103.5
t64 -42.5q48 0 74.5 42.5zM515 614h-376l15 106h376z" />
    <glyph glyph-name="Obreve" unicode="&#x14e;" horiz-adv-x="762" 
d="M159.5 35q-71.5 45 -101 128.5t-13.5 196.5t69.5 197.5t137.5 130t187 45.5q102 0 172.5 -45.5t100.5 -130t15 -197.5q-16 -113 -69.5 -196.5t-136.5 -128.5t-186 -45q-104 0 -175.5 45zM541 357q17 123 -15.5 180.5t-105.5 57.5t-123 -57.5t-67 -180.5
q-17 -119 16.5 -174t107.5 -55q155 0 187 229zM568 828.5q-55 -35.5 -121 -35.5q-67 0 -112.5 35t-54.5 101h96q9 -25 31.5 -41t51.5 -16q25 0 52 16.5t44 40.5h97q-29 -65 -84 -100.5z" />
    <glyph glyph-name="obreve" unicode="&#x14f;" horiz-adv-x="572" 
d="M107.5 23.5q-53.5 33.5 -76 94t-11.5 137.5q11 80 52.5 142t104 96t138.5 34q77 0 130 -35t75.5 -96.5t11.5 -140.5q-11 -77 -50.5 -137t-102 -94t-140.5 -34t-131.5 33.5zM331.5 157.5q26.5 42.5 35.5 103.5t-6 102t-63 41q-49 0 -76 -41t-35 -102q-9 -61 6 -103.5
t64 -42.5q48 0 74.5 42.5zM445 622.5q-55 -35.5 -121 -35.5q-67 0 -112.5 35t-54.5 101h96q9 -25 31.5 -41t51.5 -16q25 0 52 16.5t44 40.5h97q-29 -65 -84 -100.5z" />
    <glyph glyph-name="Ohungarumlaut" unicode="&#x150;" horiz-adv-x="762" 
d="M159.5 35q-71.5 45 -101 128.5t-13.5 196.5t69.5 197.5t137.5 130t187 45.5q102 0 172.5 -45.5t100.5 -130t15 -197.5q-16 -113 -69.5 -196.5t-136.5 -128.5t-186 -45q-104 0 -175.5 45zM541 357q17 123 -15.5 180.5t-105.5 57.5t-123 -57.5t-67 -180.5
q-17 -119 16.5 -174t107.5 -55q155 0 187 229zM461 878q7 -10 6 -17q-1 -9 -13 -16l-148 -83q-12 -7 -18 -7q-5 0 -10 7l-26 30q-5 8 -4 14q1 5 5 8l151 118q6 5 12 5q5 0 9 -6zM664 878q6 -10 5 -17q-1 -9 -13 -16l-149 -83q-11 -7 -17 -7t-11 7l-25 30q-5 8 -4 14q1 5 5 8
l150 118q6 5 12 5t10 -6z" />
    <glyph glyph-name="ohungarumlaut" unicode="&#x151;" horiz-adv-x="572" 
d="M107.5 23.5q-53.5 33.5 -76 94t-11.5 137.5q11 80 52.5 142t104 96t138.5 34q77 0 130 -35t75.5 -96.5t11.5 -140.5q-11 -77 -50.5 -137t-102 -94t-140.5 -34t-131.5 33.5zM331.5 157.5q26.5 42.5 35.5 103.5t-6 102t-63 41q-49 0 -76 -41t-35 -102q-9 -61 6 -103.5
t64 -42.5q48 0 74.5 42.5zM338 672q7 -10 6 -17q-1 -9 -13 -16l-148 -83q-12 -7 -18 -7q-5 0 -10 7l-26 30q-5 8 -4 14q1 5 5 8l151 118q6 5 12 5q5 0 9 -6zM541 672q6 -10 5 -17q-1 -9 -13 -16l-149 -83q-11 -7 -17 -7t-11 7l-25 30q-5 8 -4 14q1 5 5 8l150 118q6 5 12 5
t10 -6z" />
    <glyph glyph-name="OE" unicode="&#x152;" horiz-adv-x="1122" 
d="M1022 0h-480l-39 21q-60 -31 -158 -31q-109 0 -182.5 45t-103.5 128.5t-14 196.5q16 114 70.5 198t142.5 129.5t200 45.5q93 0 141 -32l55 22h461l-21 -140h-345l-21 -150h225l-20 -138h-225l-21 -154h355zM466.5 179q39.5 54 56.5 178q18 128 -6.5 185.5t-96.5 57.5
q-73 0 -114 -57.5t-59 -185.5q-17 -124 8 -178t99 -54q73 0 112.5 54z" />
    <glyph glyph-name="oe" unicode="&#x153;" horiz-adv-x="938" 
d="M115 23.5q-56 33.5 -81 94t-14 137.5q11 80 54.5 142t108.5 96t141 34q102 0 161 -62q7 -5 12 -5q4 0 11 5q36 30 80 46t91 16q76 0 129.5 -36t77 -103.5t10.5 -160.5h-349q-8 -57 20 -89.5t79 -32.5q32 0 63 15.5t68 51.5l99 -44q-61 -78 -122 -108t-146 -30
q-51 0 -92.5 16t-71.5 45q-5 4 -7 4q-4 0 -10 -5q-77 -60 -179 -60q-77 0 -133 33.5zM600.5 396.5q-31.5 -27.5 -37.5 -77.5l180 -1q3 23 -3.5 48t-23.5 41.5t-44 16.5q-40 0 -71.5 -27.5zM340.5 140q28.5 39 39.5 119q22 160 -71 160q-94 0 -117 -160q-22 -158 72 -158
q48 0 76.5 39z" />
    <glyph glyph-name="Racute" unicode="&#x154;" horiz-adv-x="701" 
d="M432 0l-75 264h-124l-37 -264h-170l102 723h316q130 0 183.5 -61t39.5 -164q-11 -78 -50 -126.5t-100 -80.5l90 -291h-175zM454.5 422.5q34.5 29.5 40.5 73.5q6 43 -19.5 71t-67.5 28h-128l-29 -202h122q47 0 81.5 29.5zM562 834l-280 -68l-14 70l272 104z" />
    <glyph glyph-name="racute" unicode="&#x155;" horiz-adv-x="435" 
d="M88 517h165l-19 -135q30 64 81 104.5t116 40.5l-22 -161q-26 2 -35 2q-73 0 -109 -30t-42 -75l-37 -263h-171zM426 628l-280 -68l-14 70l272 104z" />
    <glyph glyph-name="Rcommaaccent" unicode="&#x156;" horiz-adv-x="701" 
d="M432 0l-75 264h-124l-37 -264h-170l102 723h316q130 0 183.5 -61t39.5 -164q-11 -78 -50 -126.5t-100 -80.5l90 -291h-175zM454.5 422.5q34.5 29.5 40.5 73.5q6 43 -19.5 71t-67.5 28h-128l-29 -202h122q47 0 81.5 29.5zM221.5 -232q-3.5 6 1.5 12l38 45q5 5 6 12
q1 5 -2 9t-9 4h-8q-12 0 -15.5 4t-1.5 15l8 61q2 17 18 17h85q14 0 12 -14l-12 -83q0 -3 -2 -6.5t-3 -5.5l-58 -64q-6 -7 -12 -9.5t-18 -2.5h-17q-7 0 -10.5 6z" />
    <glyph glyph-name="rcommaaccent" unicode="&#x157;" horiz-adv-x="435" 
d="M88 517h165l-19 -135q30 64 81 104.5t116 40.5l-22 -161q-26 2 -35 2q-73 0 -109 -30t-42 -75l-37 -263h-171zM25.5 -232q-3.5 6 1.5 12l38 45q5 5 6 12q1 5 -2 9t-9 4h-8q-12 0 -15.5 4t-1.5 15l8 61q2 17 18 17h85q14 0 12 -14l-12 -83q0 -3 -2 -6.5t-3 -5.5l-58 -64
q-6 -7 -12 -9.5t-18 -2.5h-17q-7 0 -10.5 6z" />
    <glyph glyph-name="Rcaron" unicode="&#x158;" horiz-adv-x="701" 
d="M432 0l-75 264h-124l-37 -264h-170l102 723h316q130 0 183.5 -61t39.5 -164q-11 -78 -50 -126.5t-100 -80.5l90 -291h-175zM454.5 422.5q34.5 29.5 40.5 73.5q6 43 -19.5 71t-67.5 28h-128l-29 -202h122q47 0 81.5 29.5zM617 930l-153 -145h-117l-113 145h120l61 -79
l75 79h127z" />
    <glyph glyph-name="rcaron" unicode="&#x159;" horiz-adv-x="435" 
d="M88 517h165l-19 -135q30 64 81 104.5t116 40.5l-22 -161q-26 2 -35 2q-73 0 -109 -30t-42 -75l-37 -263h-171zM481 724l-153 -145h-117l-113 145h120l61 -79l75 79h127z" />
    <glyph glyph-name="Sacute" unicode="&#x15a;" horiz-adv-x="705" 
d="M166 14.5q-67 24.5 -106 74.5t-36 123l177 1q3 -43 37 -67t90 -24q58 0 98.5 19t46.5 59q5 33 -24.5 50t-87.5 28l-118 22q-85 15 -127 68.5t-29 140.5q10 68 55.5 118.5t116.5 77.5t153 27q84 0 146.5 -30.5t95 -81.5t31.5 -110l-174 -2q2 91 -115 91q-56 0 -88.5 -21
t-36.5 -52q-4 -29 13.5 -46.5t67.5 -27.5l115 -22q126 -23 158.5 -86.5t21.5 -142.5q-8 -59 -54.5 -107.5t-120 -76t-161.5 -27.5q-78 0 -145 24.5zM574 834l-280 -68l-14 70l272 104z" />
    <glyph glyph-name="sacute" unicode="&#x15b;" horiz-adv-x="522" 
d="M67.5 31q-61.5 41 -64.5 127l141 2q7 -32 31.5 -43.5t62.5 -11.5q39 0 62 11.5t26 30.5q3 18 -12 28.5t-47 16.5l-82 15q-155 29 -137 154q7 48 39 85.5t86 59t124 21.5q68 0 116 -20.5t69.5 -58t13.5 -87.5l-139 -1q-2 30 -24 43.5t-56 13.5q-73 0 -80 -44
q-2 -16 14.5 -26.5t59.5 -18.5l73 -15q80 -20 106.5 -65.5t20.5 -91.5q-11 -77 -81.5 -121.5t-170.5 -44.5q-90 0 -151.5 41zM457 628l-280 -68l-14 70l272 104z" />
    <glyph glyph-name="Scircumflex" unicode="&#x15c;" horiz-adv-x="705" 
d="M166 14.5q-67 24.5 -106 74.5t-36 123l177 1q3 -43 37 -67t90 -24q58 0 98.5 19t46.5 59q5 33 -24.5 50t-87.5 28l-118 22q-85 15 -127 68.5t-29 140.5q10 68 55.5 118.5t116.5 77.5t153 27q84 0 146.5 -30.5t95 -81.5t31.5 -110l-174 -2q2 91 -115 91q-56 0 -88.5 -21
t-36.5 -52q-4 -29 13.5 -46.5t67.5 -27.5l115 -22q126 -23 158.5 -86.5t21.5 -142.5q-8 -59 -54.5 -107.5t-120 -76t-161.5 -27.5q-78 0 -145 24.5zM430 872l-83 -78h-120l155 143h116l112 -143h-127z" />
    <glyph glyph-name="scircumflex" unicode="&#x15d;" horiz-adv-x="522" 
d="M67.5 31q-61.5 41 -64.5 127l141 2q7 -32 31.5 -43.5t62.5 -11.5q39 0 62 11.5t26 30.5q3 18 -12 28.5t-47 16.5l-82 15q-155 29 -137 154q7 48 39 85.5t86 59t124 21.5q68 0 116 -20.5t69.5 -58t13.5 -87.5l-139 -1q-2 30 -24 43.5t-56 13.5q-73 0 -80 -44
q-2 -16 14.5 -26.5t59.5 -18.5l73 -15q80 -20 106.5 -65.5t20.5 -91.5q-11 -77 -81.5 -121.5t-170.5 -44.5q-90 0 -151.5 41zM313 666l-83 -78h-120l155 143h116l112 -143h-127z" />
    <glyph glyph-name="Scedilla" unicode="&#x15e;" horiz-adv-x="705" 
d="M166 14.5q-67 24.5 -106 74.5t-36 123l177 1q3 -43 37 -67t90 -24q58 0 98.5 19t46.5 59q5 33 -24.5 50t-87.5 28l-118 22q-85 15 -127 68.5t-29 140.5q10 68 55.5 118.5t116.5 77.5t153 27q84 0 146.5 -30.5t95 -81.5t31.5 -110l-174 -2q2 91 -115 91q-56 0 -88.5 -21
t-36.5 -52q-4 -29 13.5 -46.5t67.5 -27.5l115 -22q126 -23 158.5 -86.5t21.5 -142.5q-8 -59 -54.5 -107.5t-120 -76t-161.5 -27.5q-78 0 -145 24.5zM368.5 -193q-39.5 -23 -91.5 -23q-78 0 -120 28l29 54q40 -25 78 -25q22 0 36 7.5t16 20.5q3 20 -16 30t-66 10q-7 0 -9 2
t2 9l49 85h72l-30 -58q54 -1 77 -25t18 -55q-5 -37 -44.5 -60z" />
    <glyph glyph-name="scedilla" unicode="&#x15f;" horiz-adv-x="522" 
d="M67.5 31q-61.5 41 -64.5 127l141 2q7 -32 31.5 -43.5t62.5 -11.5q39 0 62 11.5t26 30.5q3 18 -12 28.5t-47 16.5l-82 15q-155 29 -137 154q7 48 39 85.5t86 59t124 21.5q68 0 116 -20.5t69.5 -58t13.5 -87.5l-139 -1q-2 30 -24 43.5t-56 13.5q-73 0 -80 -44
q-2 -16 14.5 -26.5t59.5 -18.5l73 -15q80 -20 106.5 -65.5t20.5 -91.5q-11 -77 -81.5 -121.5t-170.5 -44.5q-90 0 -151.5 41zM282.5 -193q-39.5 -23 -91.5 -23q-78 0 -120 28l29 54q40 -25 78 -25q22 0 36 7.5t16 20.5q3 20 -16 30t-66 10q-7 0 -9 2t2 9l49 85h72l-30 -58
q54 -1 77 -25t18 -55q-5 -37 -44.5 -60z" />
    <glyph glyph-name="Scaron" unicode="&#x160;" horiz-adv-x="705" 
d="M166 14.5q-67 24.5 -106 74.5t-36 123l177 1q3 -43 37 -67t90 -24q58 0 98.5 19t46.5 59q5 33 -24.5 50t-87.5 28l-118 22q-85 15 -127 68.5t-29 140.5q10 68 55.5 118.5t116.5 77.5t153 27q84 0 146.5 -30.5t95 -81.5t31.5 -110l-174 -2q2 91 -115 91q-56 0 -88.5 -21
t-36.5 -52q-4 -29 13.5 -46.5t67.5 -27.5l115 -22q126 -23 158.5 -86.5t21.5 -142.5q-8 -59 -54.5 -107.5t-120 -76t-161.5 -27.5q-78 0 -145 24.5zM629 930l-153 -145h-117l-113 145h120l61 -79l75 79h127z" />
    <glyph glyph-name="scaron" unicode="&#x161;" horiz-adv-x="522" 
d="M67.5 31q-61.5 41 -64.5 127l141 2q7 -32 31.5 -43.5t62.5 -11.5q39 0 62 11.5t26 30.5q3 18 -12 28.5t-47 16.5l-82 15q-155 29 -137 154q7 48 39 85.5t86 59t124 21.5q68 0 116 -20.5t69.5 -58t13.5 -87.5l-139 -1q-2 30 -24 43.5t-56 13.5q-73 0 -80 -44
q-2 -16 14.5 -26.5t59.5 -18.5l73 -15q80 -20 106.5 -65.5t20.5 -91.5q-11 -77 -81.5 -121.5t-170.5 -44.5q-90 0 -151.5 41zM512 724l-153 -145h-117l-113 145h120l61 -79l75 79h127z" />
    <glyph glyph-name="uni0162" unicode="&#x162;" horiz-adv-x="618" 
d="M68 723h593l-22 -151h-210l-80 -572h-171l80 572h-212zM333.5 -193q-39.5 -23 -91.5 -23q-78 0 -120 28l29 54q40 -25 78 -25q22 0 36 7.5t16 20.5q3 20 -16 30t-66 10q-7 0 -9 2t2 9l49 85h72l-30 -58q54 -1 77 -25t18 -55q-5 -37 -44.5 -60z" />
    <glyph glyph-name="uni0163" unicode="&#x163;" horiz-adv-x="437" 
d="M289 400l-34 -254q-3 -21 5 -29t25 -8h78l-14 -101q-30 -15 -98 -15q-105 0 -141 38t-27 107l37 262h-84l17 117h90l47 163h139l-23 -162h114l-17 -118h-114zM279.5 -193q-39.5 -23 -91.5 -23q-78 0 -120 28l29 54q40 -25 78 -25q22 0 36 7.5t16 20.5q3 20 -16 30t-66 10
q-7 0 -9 2t2 9l49 85h72l-30 -58q54 -1 77 -25t18 -55q-5 -37 -44.5 -60z" />
    <glyph glyph-name="Tcaron" unicode="&#x164;" horiz-adv-x="618" 
d="M68 723h593l-22 -151h-210l-80 -572h-171l80 572h-212zM593 930l-153 -145h-117l-113 145h120l61 -79l75 79h127z" />
    <glyph glyph-name="tcaron" unicode="&#x165;" horiz-adv-x="437" 
d="M289 400l-34 -254q-3 -21 5 -29t25 -8h78l-14 -101q-30 -15 -98 -15q-105 0 -141 38t-27 107l37 262h-84l17 117h90l47 163h139l-23 -162h114l-17 -118h-114zM357.5 561q-1.5 4 0.5 10l41 74q4 8 4 11q1 7 -8 8l-10 2q-9 1 -12 4t-2 10l13 92q1 7 5 10.5t9 3.5h87
q12 0 10 -11l-15 -109q-1 -6 -5 -9l-48 -86q-4 -8 -10.5 -11t-19.5 -3h-32q-6 0 -7.5 4z" />
    <glyph glyph-name="Tbar" unicode="&#x166;" horiz-adv-x="618" 
d="M429 572l-23 -164h132l-17 -122h-132l-40 -286h-171l40 286h-113l17 122h113l23 164h-212l22 151h593l-22 -151h-210z" />
    <glyph glyph-name="tbar" unicode="&#x167;" horiz-adv-x="452" 
d="M375 109l-14 -101q-30 -15 -98 -15q-105 0 -141 38t-27 107l14 95h-84l13 93h84l10 74h-84l17 117h90l47 163h139l-23 -162h114l-17 -118h-114l-10 -74h87l-13 -93h-86l-12 -87q-3 -21 5 -29t25 -8h78z" />
    <glyph glyph-name="Utilde" unicode="&#x168;" horiz-adv-x="745" 
d="M565.5 67.5q-81.5 -77.5 -240.5 -77.5t-218.5 78t-39.5 222l61 433h173l-63 -443q-10 -74 20 -110.5t87 -36.5q58 0 98.5 36.5t50.5 110.5l63 443h172l-62 -436q-20 -142 -101.5 -219.5zM558 818q-25 -8 -53 -8q-19 0 -34.5 3.5t-41.5 11.5q-17 5 -35.5 9.5t-35.5 4.5
q-20 0 -35.5 -5.5t-34.5 -18.5q-8 -5 -12 -5q-6 0 -8 12l-8 47q-1 2 -1.5 4.5t0.5 6.5q1 6 12 16q22 18 44 27.5t51 9.5q20 0 38.5 -4t46.5 -13q17 -5 34.5 -9.5t31.5 -4.5q36 0 74 25q7 4 11 4q9 0 10 -11l4 -57q1 -2 0 -7q-1 -9 -15 -19q-18 -11 -43 -19z" />
    <glyph glyph-name="utilde" unicode="&#x169;" 
d="M120 9.5q-42 19.5 -66 57.5t-17 89l51 361h171l-48 -338q-4 -31 14 -49t51 -18q35 0 58.5 18.5t27.5 49.5l48 337h172l-76 -517h-127l-2 71q-27 -39 -76.5 -60t-94.5 -21q-44 0 -86 19.5zM477 612q-25 -8 -53 -8q-19 0 -34.5 3.5t-41.5 11.5q-17 5 -35.5 9.5t-35.5 4.5
q-20 0 -35.5 -5.5t-34.5 -18.5q-8 -5 -12 -5q-6 0 -8 12l-8 47q-1 2 -1.5 4.5t0.5 6.5q1 6 12 16q22 18 44 27.5t51 9.5q20 0 38.5 -4t46.5 -13q17 -5 34.5 -9.5t31.5 -4.5q36 0 74 25q7 4 11 4q9 0 10 -11l4 -57q1 -2 0 -7q-1 -9 -15 -19q-18 -11 -43 -19z" />
    <glyph glyph-name="Umacron" unicode="&#x16a;" horiz-adv-x="745" 
d="M565.5 67.5q-81.5 -77.5 -240.5 -77.5t-218.5 78t-39.5 222l61 433h173l-63 -443q-10 -74 20 -110.5t87 -36.5q58 0 98.5 36.5t50.5 110.5l63 443h172l-62 -436q-20 -142 -101.5 -219.5zM615 820h-376l15 106h376z" />
    <glyph glyph-name="umacron" unicode="&#x16b;" 
d="M120 9.5q-42 19.5 -66 57.5t-17 89l51 361h171l-48 -338q-4 -31 14 -49t51 -18q35 0 58.5 18.5t27.5 49.5l48 337h172l-76 -517h-127l-2 71q-27 -39 -76.5 -60t-94.5 -21q-44 0 -86 19.5zM534 614h-376l15 106h376z" />
    <glyph glyph-name="Ubreve" unicode="&#x16c;" horiz-adv-x="745" 
d="M565.5 67.5q-81.5 -77.5 -240.5 -77.5t-218.5 78t-39.5 222l61 433h173l-63 -443q-10 -74 20 -110.5t87 -36.5q58 0 98.5 36.5t50.5 110.5l63 443h172l-62 -436q-20 -142 -101.5 -219.5zM545 828.5q-55 -35.5 -121 -35.5q-67 0 -112.5 35t-54.5 101h96q9 -25 31.5 -41
t51.5 -16q25 0 52 16.5t44 40.5h97q-29 -65 -84 -100.5z" />
    <glyph glyph-name="ubreve" unicode="&#x16d;" 
d="M120 9.5q-42 19.5 -66 57.5t-17 89l51 361h171l-48 -338q-4 -31 14 -49t51 -18q35 0 58.5 18.5t27.5 49.5l48 337h172l-76 -517h-127l-2 71q-27 -39 -76.5 -60t-94.5 -21q-44 0 -86 19.5zM464 622.5q-55 -35.5 -121 -35.5q-67 0 -112.5 35t-54.5 101h96q9 -25 31.5 -41
t51.5 -16q25 0 52 16.5t44 40.5h97q-29 -65 -84 -100.5z" />
    <glyph glyph-name="Uring" unicode="&#x16e;" horiz-adv-x="745" 
d="M565.5 67.5q-81.5 -77.5 -240.5 -77.5t-218.5 78t-39.5 222l61 433h173l-63 -443q-10 -74 20 -110.5t87 -36.5q58 0 98.5 36.5t50.5 110.5l63 443h172l-62 -436q-20 -142 -101.5 -219.5zM504 801.5q-37 -32.5 -84 -32.5q-46 0 -74 33t-21 80q6 45 43 76.5t83 31.5
q47 0 75 -32t21 -78q-6 -46 -43 -78.5zM473 913.5q-12 13.5 -32 13.5t-36.5 -13.5t-19.5 -34.5q-3 -19 10 -34t32 -15q20 0 36.5 15t18.5 34q3 21 -9 34.5z" />
    <glyph glyph-name="uring" unicode="&#x16f;" 
d="M120 9.5q-42 19.5 -66 57.5t-17 89l51 361h171l-48 -338q-4 -31 14 -49t51 -18q35 0 58.5 18.5t27.5 49.5l48 337h172l-76 -517h-127l-2 71q-27 -39 -76.5 -60t-94.5 -21q-44 0 -86 19.5zM423 595.5q-37 -32.5 -84 -32.5q-46 0 -74 33t-21 80q6 45 43 76.5t83 31.5
q47 0 75 -32t21 -78q-6 -46 -43 -78.5zM392 707.5q-12 13.5 -32 13.5t-36.5 -13.5t-19.5 -34.5q-3 -19 10 -34t32 -15q20 0 36.5 15t18.5 34q3 21 -9 34.5z" />
    <glyph glyph-name="Uhungarumlaut" unicode="&#x170;" horiz-adv-x="745" 
d="M565.5 67.5q-81.5 -77.5 -240.5 -77.5t-218.5 78t-39.5 222l61 433h173l-63 -443q-10 -74 20 -110.5t87 -36.5q58 0 98.5 36.5t50.5 110.5l63 443h172l-62 -436q-20 -142 -101.5 -219.5zM438 878q7 -10 6 -17q-1 -9 -13 -16l-148 -83q-12 -7 -18 -7q-5 0 -10 7l-26 30
q-5 8 -4 14q1 5 5 8l151 118q6 5 12 5q5 0 9 -6zM641 878q6 -10 5 -17q-1 -9 -13 -16l-149 -83q-11 -7 -17 -7t-11 7l-25 30q-5 8 -4 14q1 5 5 8l150 118q6 5 12 5t10 -6z" />
    <glyph glyph-name="uhungarumlaut" unicode="&#x171;" 
d="M120 9.5q-42 19.5 -66 57.5t-17 89l51 361h171l-48 -338q-4 -31 14 -49t51 -18q35 0 58.5 18.5t27.5 49.5l48 337h172l-76 -517h-127l-2 71q-27 -39 -76.5 -60t-94.5 -21q-44 0 -86 19.5zM357 672q7 -10 6 -17q-1 -9 -13 -16l-148 -83q-12 -7 -18 -7q-5 0 -10 7l-26 30
q-5 8 -4 14q1 5 5 8l151 118q6 5 12 5q5 0 9 -6zM560 672q6 -10 5 -17q-1 -9 -13 -16l-149 -83q-11 -7 -17 -7t-11 7l-25 30q-5 8 -4 14q1 5 5 8l150 118q6 5 12 5t10 -6z" />
    <glyph glyph-name="Uogonek" unicode="&#x172;" horiz-adv-x="745" 
d="M565.5 67.5q-81.5 -77.5 -240.5 -77.5t-218.5 78t-39.5 222l61 433h173l-63 -443q-10 -74 20 -110.5t87 -36.5q58 0 98.5 36.5t50.5 110.5l63 443h172l-62 -436q-20 -142 -101.5 -219.5zM227 -32q23 22 80 41l117 -2q-55 -18 -76.5 -33.5t-24.5 -34.5q-4 -30 27 -30
q25 0 59 15q6 3 9 3q7 0 6 -12l-7 -46q-1 -10 -11 -16q-16 -8 -45 -14t-60 -6q-53 0 -80 21.5t-21 62.5q4 29 27 51z" />
    <glyph glyph-name="uogonek" unicode="&#x173;" 
d="M120 9.5q-42 19.5 -66 57.5t-17 89l51 361h171l-48 -338q-4 -31 14 -49t51 -18q35 0 58.5 18.5t27.5 49.5l48 337h172l-76 -517h-127l-2 71q-27 -39 -76.5 -60t-94.5 -21q-44 0 -86 19.5zM305 -34q23 22 80 41l117 -2q-55 -18 -76.5 -33.5t-24.5 -34.5q-4 -30 27 -30
q25 0 59 15q6 3 9 3q7 0 6 -12l-7 -46q-1 -10 -11 -16q-16 -8 -45 -14t-60 -6q-53 0 -80 21.5t-21 62.5q4 29 27 51z" />
    <glyph glyph-name="Wcircumflex" unicode="&#x174;" horiz-adv-x="971" 
d="M695 0h-131l-64 433l-187 -433h-129l-113 723h165l63 -433l182 433h121l63 -433l182 433h165zM562 872l-83 -78h-120l155 143h116l112 -143h-127z" />
    <glyph glyph-name="wcircumflex" unicode="&#x175;" horiz-adv-x="803" 
d="M566 0h-126l-48 282l-130 -282h-121l-99 517h149l50 -286l128 286h119l45 -286l130 286h153zM453 666l-83 -78h-120l155 143h116l112 -143h-127z" />
    <glyph glyph-name="Ycircumflex" unicode="&#x176;" horiz-adv-x="683" 
d="M423 303l-43 -303h-171l43 303l-194 420h184l116 -275l192 275h186zM437 872l-83 -78h-120l155 143h116l112 -143h-127z" />
    <glyph glyph-name="ycircumflex" unicode="&#x177;" horiz-adv-x="586" 
d="M31 -160.5q-23 4.5 -34 9t-12 6.5l15 108l50 -3q43 -3 67 5.5t32.5 18.5t15.5 23l8 19l-132 491h168l67 -309l158 309h166l-277 -503q-39 -71 -76.5 -110.5t-75.5 -54t-84 -14.5q-33 0 -56 4.5zM361 666l-83 -78h-120l155 143h116l112 -143h-127z" />
    <glyph glyph-name="Ydieresis" unicode="&#x178;" horiz-adv-x="683" 
d="M423 303l-43 -303h-171l43 303l-194 420h184l116 -275l192 275h186zM393 797h-147l19 132h147zM608 797h-148l19 132h148z" />
    <glyph glyph-name="Zacute" unicode="&#x179;" horiz-adv-x="681" 
d="M8 80l425 502h-325l20 141h570l-11 -76l-432 -504h356l-20 -143h-594zM585 834l-280 -68l-14 70l272 104z" />
    <glyph glyph-name="zacute" unicode="&#x17a;" horiz-adv-x="521" 
d="M-9 84l301 327h-233l15 106h447l-12 -81l-302 -329h258l-15 -107h-471zM462 628l-280 -68l-14 70l272 104z" />
    <glyph glyph-name="Zdotaccent" unicode="&#x17b;" horiz-adv-x="681" 
d="M8 80l425 502h-325l20 141h570l-11 -76l-432 -504h356l-20 -143h-594zM515 777h-172l22 152h172z" />
    <glyph glyph-name="zdotaccent" unicode="&#x17c;" horiz-adv-x="521" 
d="M-9 84l301 327h-233l15 106h447l-12 -81l-302 -329h258l-15 -107h-471zM392 571h-172l22 152h172z" />
    <glyph glyph-name="Zcaron" unicode="&#x17d;" horiz-adv-x="681" 
d="M8 80l425 502h-325l20 141h570l-11 -76l-432 -504h356l-20 -143h-594zM640 930l-153 -145h-117l-113 145h120l61 -79l75 79h127z" />
    <glyph glyph-name="zcaron" unicode="&#x17e;" horiz-adv-x="521" 
d="M-9 84l301 327h-233l15 106h447l-12 -81l-302 -329h258l-15 -107h-471zM516 724l-153 -145h-117l-113 145h120l61 -79l75 79h127z" />
    <glyph glyph-name="uni018F" unicode="&#x18f;" horiz-adv-x="760" 
d="M515.5 537.5q-22.5 46.5 -98.5 46.5q-38 0 -67.5 -15.5t-51.5 -39.5t-55 -67q-4 -5 -9 -5q-6 0 -14 4l-111 58q-8 5 -7 12t6 15q55 86 137 136.5t191 50.5q108 0 178.5 -47.5t98 -130t13.5 -186.5q-15 -104 -72.5 -191t-143 -137.5t-180.5 -50.5q-167 0 -238 102.5
t-45 286.5q2 16 6.5 22t17.5 6h438q17 0 20 20q9 64 -13.5 110.5zM261 286q-11 0 -15.5 -3t-5.5 -13q-9 -61 18.5 -103t88.5 -42q69 0 105.5 40.5t54.5 119.5z" />
    <glyph glyph-name="florin" unicode="&#x192;" horiz-adv-x="540" 
d="M473 400h-101l-136 -432q-20 -63 -71.5 -99.5t-120.5 -36.5h-128l33 113h60q28 0 42.5 13.5t25.5 51.5l124 390h-83l37 117h84l22 72q21 63 71.5 98.5t118.5 35.5h129l-34 -112h-64q-20 0 -39 -16t-26 -39l-12 -39h106z" />
    <glyph glyph-name="uni01C4" unicode="&#x1c4;" horiz-adv-x="1405" 
d="M230 723q105 0 135 -1q189 -6 268 -100t56 -258q-24 -169 -132.5 -266.5t-295.5 -97.5h-235l102 723h102zM216 136h68q83 0 147 56t80 174q16 111 -27.5 166.5t-134.5 55.5h-69zM732 80l425 502h-325l20 141h570l-11 -76l-432 -504h356l-20 -143h-594zM1364 930
l-153 -145h-117l-113 145h120l61 -79l75 79h127z" />
    <glyph glyph-name="uni01C5" unicode="&#x1c5;" horiz-adv-x="1245" 
d="M230 723q105 0 135 -1q189 -6 268 -100t56 -258q-24 -169 -132.5 -266.5t-295.5 -97.5h-235l102 723h102zM216 136h68q83 0 147 56t80 174q16 111 -27.5 166.5t-134.5 55.5h-69zM715 84l301 327h-233l15 106h447l-12 -81l-302 -329h258l-15 -107h-471zM1240 724
l-153 -145h-117l-113 145h120l61 -79l75 79h127z" />
    <glyph glyph-name="uni01C6" unicode="&#x1c6;" horiz-adv-x="1132" 
d="M51 62q-48 72 -30 198q17 124 80.5 195.5t160.5 71.5q44 0 80 -16t56 -52l39 284h171l-104 -743h-122l-3 69q-25 -32 -71 -55.5t-105 -23.5q-104 0 -152 72zM328 142q29 31 37 86l11 76q2 53 -18 77t-57 24q-95 0 -115 -143q-11 -79 10 -115t64 -36q39 0 68 31zM602 84
l301 327h-233l15 106h447l-12 -81l-302 -329h258l-15 -107h-471zM1127 724l-153 -145h-117l-113 145h120l61 -79l75 79h127z" />
    <glyph glyph-name="uni01C7" unicode="&#x1c7;" horiz-adv-x="1027" 
d="M299 723l-82 -581h301l-20 -142h-472l102 723h171zM904.5 87.5q-23.5 -48.5 -70 -73t-126.5 -24.5q-30 0 -67.5 4t-59.5 9l24 154q7 -1 28 -5t40 -4q49 0 71 25.5t30 85.5l66 464h171l-72 -508q-11 -79 -34.5 -127.5z" />
    <glyph glyph-name="uni01C8" unicode="&#x1c8;" horiz-adv-x="870" 
d="M299 723l-82 -581h301l-20 -142h-472l102 723h171zM843 590h-172l21 153h172zM696.5 -121q-52.5 -45 -149.5 -45q-24 0 -38 3.5t-19.5 7.5t-6.5 5l15 113l36 5q30 5 42 16t15 33l71 500h171l-71 -501q-13 -92 -65.5 -137z" />
    <glyph glyph-name="uni01C9" unicode="&#x1c9;" horiz-adv-x="636" 
d="M79 13.5q-37 22.5 -43.5 56t0.5 81.5l83 592h168l-80 -570q-4 -27 6 -42.5t44 -19.5l21 -2l-14 -104q-39 -14 -68 -14q-80 0 -117 22.5zM609 590h-172l21 153h172zM462.5 -121q-52.5 -45 -149.5 -45q-24 0 -38 3.5t-19.5 7.5t-6.5 5l15 113l36 5q30 5 42 16t15 33l71 500
h171l-71 -501q-13 -92 -65.5 -137z" />
    <glyph glyph-name="uni01CA" unicode="&#x1ca;" horiz-adv-x="1211" 
d="M775 723l-102 -723h-154l-258 464l-65 -464h-170l102 723h170l244 -441l62 441h171zM1088.5 87.5q-23.5 -48.5 -70 -73t-126.5 -24.5q-30 0 -67.5 4t-59.5 9l24 154q7 -1 28 -5t40 -4q49 0 71 25.5t30 85.5l66 464h171l-72 -508q-11 -79 -34.5 -127.5z" />
    <glyph glyph-name="uni01CB" unicode="&#x1cb;" horiz-adv-x="1092" 
d="M775 723l-102 -723h-154l-258 464l-65 -464h-170l102 723h170l244 -441l62 441h171zM1065 590h-172l21 153h172zM918.5 -121q-52.5 -45 -149.5 -45q-24 0 -38 3.5t-19.5 7.5t-6.5 5l15 113l36 5q30 5 42 16t15 33l71 500h171l-71 -501q-13 -92 -65.5 -137z" />
    <glyph glyph-name="uni01CC" unicode="&#x1cc;" horiz-adv-x="919" 
d="M88 517h169l-9 -64q34 33 66 50t87 17q47 0 85.5 -22t58.5 -62t13 -89l-49 -347h-170l46 325q4 29 -15 46.5t-49 17.5q-31 0 -58 -16.5t-31 -43.5l-46 -329h-171zM892 590h-172l21 153h172zM745.5 -121q-52.5 -45 -149.5 -45q-24 0 -38 3.5t-19.5 7.5t-6.5 5l15 113l36 5
q30 5 42 16t15 33l71 500h171l-71 -501q-13 -92 -65.5 -137z" />
    <glyph glyph-name="uni01EA" unicode="&#x1ea;" horiz-adv-x="762" 
d="M159.5 35q-71.5 45 -101 128.5t-13.5 196.5t69.5 197.5t137.5 130t187 45.5q102 0 172.5 -45.5t100.5 -130t15 -197.5q-16 -113 -69.5 -196.5t-136.5 -128.5t-186 -45q-104 0 -175.5 45zM541 357q17 123 -15.5 180.5t-105.5 57.5t-123 -57.5t-67 -180.5
q-17 -119 16.5 -174t107.5 -55q155 0 187 229zM246 -34q23 22 80 41l117 -2q-55 -18 -76.5 -33.5t-24.5 -34.5q-4 -30 27 -30q25 0 59 15q6 3 9 3q7 0 6 -12l-7 -46q-1 -10 -11 -16q-16 -8 -45 -14t-60 -6q-53 0 -80 21.5t-21 62.5q4 29 27 51z" />
    <glyph glyph-name="uni01EB" unicode="&#x1eb;" horiz-adv-x="572" 
d="M107.5 23.5q-53.5 33.5 -76 94t-11.5 137.5q11 80 52.5 142t104 96t138.5 34q77 0 130 -35t75.5 -96.5t11.5 -140.5q-11 -77 -50.5 -137t-102 -94t-140.5 -34t-131.5 33.5zM331.5 157.5q26.5 42.5 35.5 103.5t-6 102t-63 41q-49 0 -76 -41t-35 -102q-9 -61 6 -103.5
t64 -42.5q48 0 74.5 42.5zM137 -34q23 22 80 41l117 -2q-55 -18 -76.5 -33.5t-24.5 -34.5q-4 -30 27 -30q25 0 59 15q6 3 9 3q7 0 6 -12l-7 -46q-1 -10 -11 -16q-16 -8 -45 -14t-60 -6q-53 0 -80 21.5t-21 62.5q4 29 27 51z" />
    <glyph glyph-name="uni01F1" unicode="&#x1f1;" horiz-adv-x="1405" 
d="M230 723q105 0 135 -1q189 -6 268 -100t56 -258q-24 -169 -132.5 -266.5t-295.5 -97.5h-235l102 723h102zM216 136h68q83 0 147 56t80 174q16 111 -27.5 166.5t-134.5 55.5h-69zM732 80l425 502h-325l20 141h570l-11 -76l-432 -504h356l-20 -143h-594z" />
    <glyph glyph-name="uni01F2" unicode="&#x1f2;" horiz-adv-x="1245" 
d="M230 723q105 0 135 -1q189 -6 268 -100t56 -258q-24 -169 -132.5 -266.5t-295.5 -97.5h-235l102 723h102zM216 136h68q83 0 147 56t80 174q16 111 -27.5 166.5t-134.5 55.5h-69zM715 84l301 327h-233l15 106h447l-12 -81l-302 -329h258l-15 -107h-471z" />
    <glyph glyph-name="uni01F3" unicode="&#x1f3;" horiz-adv-x="1132" 
d="M51 62q-48 72 -30 198q17 124 80.5 195.5t160.5 71.5q44 0 80 -16t56 -52l39 284h171l-104 -743h-122l-3 69q-25 -32 -71 -55.5t-105 -23.5q-104 0 -152 72zM328 142q29 31 37 86l11 76q2 53 -18 77t-57 24q-95 0 -115 -143q-11 -79 10 -115t64 -36q39 0 68 31zM602 84
l301 327h-233l15 106h447l-12 -81l-302 -329h258l-15 -107h-471z" />
    <glyph glyph-name="uni01F4" unicode="&#x1f4;" horiz-adv-x="762" 
d="M157 36q-69 46 -98.5 130t-14.5 193q16 112 71.5 197t140 131t185.5 46q88 0 152 -35.5t94.5 -94t22.5 -124.5l-178 -1q-4 51 -33.5 82t-82.5 31q-69 0 -119 -55t-67 -171q-18 -125 21.5 -175.5t108.5 -50.5q50 0 86.5 28t49.5 63l12 36h-138l17 116l316 -2l-53 -380
h-114l12 87q-42 -43 -92.5 -70t-129.5 -27q-100 0 -169 46zM595 834l-280 -68l-14 70l272 104z" />
    <glyph glyph-name="uni01F5" unicode="&#x1f5;" horiz-adv-x="641" 
d="M31.5 -137q-70.5 34 -63.5 89q9 61 60.5 75.5t54.5 15.5q-2 1 -19 10t-29 28.5t-8 43.5q4 31 36 54.5t88 32.5q-49 24 -70.5 65t-15.5 86q7 50 45.5 87t99.5 56t131 19q50 0 82.5 -10t63.5 -29q7 3 19 7.5t28 9.5l123 47l-18 -125l-91 -14q2 -11 2.5 -24.5t-0.5 -22.5
q-6 -45 -39.5 -85t-92 -64.5t-135.5 -24.5l-60 2q-32 -3 -34 -15q-1 -10 15.5 -13t67.5 -7l105 -6q97 -6 141 -47.5t35 -103.5q-11 -77 -91.5 -124t-218.5 -47q-141 0 -211.5 34zM360 302.5q23 20.5 28 55.5t-12.5 58t-52.5 23t-59.5 -23t-29.5 -58q-5 -34 13.5 -55
t53.5 -21q36 0 59 20.5zM360.5 -68q22.5 11 25.5 34q3 20 -13.5 32.5t-50.5 14.5l-105 7q-35 2 -56 -13t-24 -35q-4 -28 31 -39.5t115 -11.5q55 0 77.5 11zM505 628l-280 -68l-14 70l272 104z" />
    <glyph glyph-name="Aringacute" unicode="&#x1fa;" horiz-adv-x="774" 
d="M697 3h-203l-31 154h-240l-76 -154h-170l358 723h13q-11 23 -7 53q5 34 28.5 59t57.5 34l25 68h92l-40 -72q26 -11 39.5 -35.5t8.5 -55.5q-4 -28 -21 -51h15zM406 741.5q13 -15.5 32 -15.5q20 0 36.5 15t19.5 35t-9.5 34t-32.5 14q-19 0 -36 -14t-20 -34q-3 -19 10 -34.5
zM446 303l-50 235l-115 -235h165z" />
    <glyph glyph-name="aringacute" unicode="&#x1fb;" horiz-adv-x="577" 
d="M506 0h-171h171zM335 0l7 48q-39 -32 -75.5 -45t-73.5 -13q-92 0 -141.5 67.5t-30.5 203.5q12 88 47.5 147.5t86 89t107.5 29.5q41 0 77 -15.5t61 -40.5l7 46h172l-73 -517h-171zM326.5 138q26.5 36 42.5 101l5 39q9 66 -8.5 101t-57.5 35q-42 0 -73 -38t-42 -112
q-11 -75 10 -118.5t63 -43.5q34 0 60.5 36zM480 628l-280 -68l-14 70l272 104zM406 595.5q-37 -32.5 -84 -32.5q-46 0 -74 33t-21 80q6 45 43 76.5t83 31.5q47 0 75 -32t21 -78q-6 -46 -43 -78.5zM375 707.5q-12 13.5 -32 13.5t-36.5 -13.5t-19.5 -34.5q-3 -19 10 -34
t32 -15q20 0 36.5 15t18.5 34q3 21 -9 34.5z" />
    <glyph glyph-name="AEacute" unicode="&#x1fc;" horiz-adv-x="1089" 
d="M989 0h-546l22 154h-226l-101 -154h-170l483 723h631l-21 -140h-341l-21 -150h223l-20 -138h-223l-21 -154h351zM529 614l-207 -313h163zM913 834l-280 -68l-14 70l272 104z" />
    <glyph glyph-name="aeacute" unicode="&#x1fd;" horiz-adv-x="909" 
d="M537.5 138q28.5 -33 77.5 -33q34 0 64.5 15.5t68.5 51.5l99 -44q-61 -77 -122.5 -107.5t-147.5 -30.5q-63 0 -111.5 23t-78.5 62q-5 4 -10 0q-50 -43 -103 -64t-123 -21q-80 0 -118.5 40.5t-29.5 107.5q11 79 88 126.5t212 54.5l54 4l5 31q5 33 -11 50.5t-52 17.5
q-66 0 -105 -65l-141 31q41 71 101.5 105t164.5 34q127 -1 173 -51q35 25 75 38t82 13q75 0 129 -35.5t77.5 -103.5t10.5 -161h-349q-8 -56 20.5 -89zM571 396.5q-31 -27.5 -38 -77.5l180 -1q5 38 -13 72t-58 34t-71 -27.5zM302 233q-46 -3 -85.5 -25t-44.5 -59
q-4 -25 11.5 -40.5t47.5 -15.5q38 0 68.5 18.5t34.5 47.5l11 77zM643 628l-280 -68l-14 70l272 104z" />
    <glyph glyph-name="Oslashacute" unicode="&#x1fe;" horiz-adv-x="774" 
d="M801 664q-1 -6 -8 -12l-86 -77q39 -89 22 -215q-16 -113 -69.5 -196.5t-136.5 -128.5t-186 -45q-67 0 -120.5 19t-91.5 55l-67 -59q-10 -10 -20 -10t-18 10l-30 36q-9 11 -9 18q1 5 9 14l79 69q-40 90 -22 218q16 113 69.5 197.5t137.5 130t187 45.5q135 0 213 -78l74 65
q9 8 18 8q6 0 10 -4l41 -49q5 -4 4 -11zM247 295l273 244q-13 31 -37 46t-61 15q-73 0 -114 -57.5t-59 -185.5q-5 -35 -2 -62zM527 421l-270 -243q25 -53 99 -53q73 0 112.5 54t56.5 178q5 37 2 64zM603 834l-280 -68l-14 70l272 104z" />
    <glyph glyph-name="oslashacute" unicode="&#x1ff;" horiz-adv-x="604" 
d="M526 409q29 -65 17 -154q-11 -77 -50.5 -137t-102 -94t-140.5 -34q-99 0 -161 56l-65 -54l-45 56l69 57q-29 64 -17 150q11 80 52.5 142t104 96t138.5 34q101 0 160 -59l67 56l44 -57zM195 227l173 144q-18 33 -59 33q-49 0 -76 -41t-35 -102q-2 -12 -3 -34zM380 288
l-170 -142q19 -31 58 -31q48 0 74.5 42.5t35.5 103.5q2 18 2 27zM489 628l-280 -68l-14 70l272 104z" />
    <glyph glyph-name="uni0200" unicode="&#x200;" horiz-adv-x="718" 
d="M327 723h177l155 -723h-169l-31 154h-244l-77 -154h-170zM439 301l-46 259l-122 -259h168zM421 806l-58 -55l-162 106l84 85zM622 806l-57 -55l-163 106l85 85z" />
    <glyph glyph-name="uni0201" unicode="&#x201;" horiz-adv-x="577" 
d="M506 0h-171h171zM335 0l7 48q-39 -32 -75.5 -45t-73.5 -13q-92 0 -141.5 67.5t-30.5 203.5q12 88 47.5 147.5t86 89t107.5 29.5q41 0 77 -15.5t61 -40.5l7 46h172l-73 -517h-171zM326.5 138q26.5 36 42.5 101l5 39q9 66 -8.5 101t-57.5 35q-42 0 -73 -38t-42 -112
q-11 -75 10 -118.5t63 -43.5q34 0 60.5 36zM309 600l-58 -55l-162 106l84 85zM510 600l-57 -55l-163 106l85 85z" />
    <glyph glyph-name="uni0202" unicode="&#x202;" horiz-adv-x="718" 
d="M327 723h177l155 -723h-169l-31 154h-244l-77 -154h-170zM439 301l-46 259l-122 -259h168zM543 828q-10 24 -32.5 40.5t-47.5 16.5q-29 0 -55.5 -16t-43.5 -41h-96q28 66 84 101t123 35q66 0 111 -35.5t54 -100.5h-97z" />
    <glyph glyph-name="uni0203" unicode="&#x203;" horiz-adv-x="577" 
d="M506 0h-171h171zM335 0l7 48q-39 -32 -75.5 -45t-73.5 -13q-92 0 -141.5 67.5t-30.5 203.5q12 88 47.5 147.5t86 89t107.5 29.5q41 0 77 -15.5t61 -40.5l7 46h172l-73 -517h-171zM326.5 138q26.5 36 42.5 101l5 39q9 66 -8.5 101t-57.5 35q-42 0 -73 -38t-42 -112
q-11 -75 10 -118.5t63 -43.5q34 0 60.5 36zM431 622q-10 24 -32.5 40.5t-47.5 16.5q-29 0 -55.5 -16t-43.5 -41h-96q28 66 84 101t123 35q66 0 111 -35.5t54 -100.5h-97z" />
    <glyph glyph-name="uni0204" unicode="&#x204;" horiz-adv-x="643" 
d="M128 723h515l-21 -142h-343l-21 -148h293l-20 -139h-294l-21 -151h348l-20 -143h-518zM381 806l-58 -55l-162 106l84 85zM582 806l-57 -55l-163 106l85 85z" />
    <glyph glyph-name="uni0205" unicode="&#x205;" horiz-adv-x="564" 
d="M196.5 139.5q21.5 -28.5 63.5 -28.5q34 0 58.5 13t41.5 44l150 -3q-15 -53 -56 -92.5t-95.5 -61t-110.5 -21.5q-78 0 -133.5 32.5t-81 92t-14.5 137.5q11 77 50.5 139.5t102.5 99t142 36.5q119 0 173 -73t37 -192l-6 -43h-336q-7 -51 14.5 -79.5zM375 317q6 40 -14 66.5
t-63 26.5q-39 0 -68 -28t-34 -65h179zM307 600l-58 -55l-162 106l84 85zM508 600l-57 -55l-163 106l85 85z" />
    <glyph glyph-name="uni0206" unicode="&#x206;" horiz-adv-x="643" 
d="M128 723h515l-21 -142h-343l-21 -148h293l-20 -139h-294l-21 -151h348l-20 -143h-518zM503 828q-10 24 -32.5 40.5t-47.5 16.5q-29 0 -55.5 -16t-43.5 -41h-96q28 66 84 101t123 35q66 0 111 -35.5t54 -100.5h-97z" />
    <glyph glyph-name="uni0207" unicode="&#x207;" horiz-adv-x="564" 
d="M196.5 139.5q21.5 -28.5 63.5 -28.5q34 0 58.5 13t41.5 44l150 -3q-15 -53 -56 -92.5t-95.5 -61t-110.5 -21.5q-78 0 -133.5 32.5t-81 92t-14.5 137.5q11 77 50.5 139.5t102.5 99t142 36.5q119 0 173 -73t37 -192l-6 -43h-336q-7 -51 14.5 -79.5zM375 317q6 40 -14 66.5
t-63 26.5q-39 0 -68 -28t-34 -65h179zM429 622q-10 24 -32.5 40.5t-47.5 16.5q-29 0 -55.5 -16t-43.5 -41h-96q28 66 84 101t123 35q66 0 111 -35.5t54 -100.5h-97z" />
    <glyph glyph-name="uni0208" unicode="&#x208;" horiz-adv-x="314" 
d="M298 723l-102 -723h-170l102 723h170zM207 806l-58 -55l-162 106l84 85zM408 806l-57 -55l-163 106l85 85z" />
    <glyph glyph-name="uni0209" unicode="&#x209;" horiz-adv-x="293" 
d="M186 0h-171l73 517h171zM170 600l-58 -55l-162 106l84 85zM371 600l-57 -55l-163 106l85 85z" />
    <glyph glyph-name="uni020A" unicode="&#x20a;" horiz-adv-x="314" 
d="M298 723l-102 -723h-170l102 723h170zM329 828q-10 24 -32.5 40.5t-47.5 16.5q-29 0 -55.5 -16t-43.5 -41h-96q28 66 84 101t123 35q66 0 111 -35.5t54 -100.5h-97z" />
    <glyph glyph-name="uni020B" unicode="&#x20b;" horiz-adv-x="293" 
d="M186 0h-171l73 517h171zM292 622q-10 24 -32.5 40.5t-47.5 16.5q-29 0 -55.5 -16t-43.5 -41h-96q28 66 84 101t123 35q66 0 111 -35.5t54 -100.5h-97z" />
    <glyph glyph-name="uni020C" unicode="&#x20c;" horiz-adv-x="762" 
d="M159.5 35q-71.5 45 -101 128.5t-13.5 196.5t69.5 197.5t137.5 130t187 45.5q102 0 172.5 -45.5t100.5 -130t15 -197.5q-16 -113 -69.5 -196.5t-136.5 -128.5t-186 -45q-104 0 -175.5 45zM541 357q17 123 -15.5 180.5t-105.5 57.5t-123 -57.5t-67 -180.5
q-17 -119 16.5 -174t107.5 -55q155 0 187 229zM430 806l-58 -55l-162 106l84 85zM631 806l-57 -55l-163 106l85 85z" />
    <glyph glyph-name="uni020D" unicode="&#x20d;" horiz-adv-x="572" 
d="M107.5 23.5q-53.5 33.5 -76 94t-11.5 137.5q11 80 52.5 142t104 96t138.5 34q77 0 130 -35t75.5 -96.5t11.5 -140.5q-11 -77 -50.5 -137t-102 -94t-140.5 -34t-131.5 33.5zM331.5 157.5q26.5 42.5 35.5 103.5t-6 102t-63 41q-49 0 -76 -41t-35 -102q-9 -61 6 -103.5
t64 -42.5q48 0 74.5 42.5zM307 600l-58 -55l-162 106l84 85zM508 600l-57 -55l-163 106l85 85z" />
    <glyph glyph-name="uni020E" unicode="&#x20e;" horiz-adv-x="762" 
d="M159.5 35q-71.5 45 -101 128.5t-13.5 196.5t69.5 197.5t137.5 130t187 45.5q102 0 172.5 -45.5t100.5 -130t15 -197.5q-16 -113 -69.5 -196.5t-136.5 -128.5t-186 -45q-104 0 -175.5 45zM541 357q17 123 -15.5 180.5t-105.5 57.5t-123 -57.5t-67 -180.5
q-17 -119 16.5 -174t107.5 -55q155 0 187 229zM552 828q-10 24 -32.5 40.5t-47.5 16.5q-29 0 -55.5 -16t-43.5 -41h-96q28 66 84 101t123 35q66 0 111 -35.5t54 -100.5h-97z" />
    <glyph glyph-name="uni020F" unicode="&#x20f;" horiz-adv-x="572" 
d="M107.5 23.5q-53.5 33.5 -76 94t-11.5 137.5q11 80 52.5 142t104 96t138.5 34q77 0 130 -35t75.5 -96.5t11.5 -140.5q-11 -77 -50.5 -137t-102 -94t-140.5 -34t-131.5 33.5zM331.5 157.5q26.5 42.5 35.5 103.5t-6 102t-63 41q-49 0 -76 -41t-35 -102q-9 -61 6 -103.5
t64 -42.5q48 0 74.5 42.5zM429 622q-10 24 -32.5 40.5t-47.5 16.5q-29 0 -55.5 -16t-43.5 -41h-96q28 66 84 101t123 35q66 0 111 -35.5t54 -100.5h-97z" />
    <glyph glyph-name="uni0210" unicode="&#x210;" horiz-adv-x="701" 
d="M432 0l-75 264h-124l-37 -264h-170l102 723h316q130 0 183.5 -61t39.5 -164q-11 -78 -50 -126.5t-100 -80.5l90 -291h-175zM454.5 422.5q34.5 29.5 40.5 73.5q6 43 -19.5 71t-67.5 28h-128l-29 -202h122q47 0 81.5 29.5zM391 806l-58 -55l-162 106l84 85zM592 806
l-57 -55l-163 106l85 85z" />
    <glyph glyph-name="uni0211" unicode="&#x211;" horiz-adv-x="435" 
d="M88 517h165l-19 -135q30 64 81 104.5t116 40.5l-22 -161q-26 2 -35 2q-73 0 -109 -30t-42 -75l-37 -263h-171zM255 600l-58 -55l-162 106l84 85zM456 600l-57 -55l-163 106l85 85z" />
    <glyph glyph-name="uni0212" unicode="&#x212;" horiz-adv-x="701" 
d="M432 0l-75 264h-124l-37 -264h-170l102 723h316q130 0 183.5 -61t39.5 -164q-11 -78 -50 -126.5t-100 -80.5l90 -291h-175zM454.5 422.5q34.5 29.5 40.5 73.5q6 43 -19.5 71t-67.5 28h-128l-29 -202h122q47 0 81.5 29.5zM513 828q-10 24 -32.5 40.5t-47.5 16.5
q-29 0 -55.5 -16t-43.5 -41h-96q28 66 84 101t123 35q66 0 111 -35.5t54 -100.5h-97z" />
    <glyph glyph-name="uni0213" unicode="&#x213;" horiz-adv-x="435" 
d="M88 517h165l-19 -135q30 64 81 104.5t116 40.5l-22 -161q-26 2 -35 2q-73 0 -109 -30t-42 -75l-37 -263h-171zM377 622q-10 24 -32.5 40.5t-47.5 16.5q-29 0 -55.5 -16t-43.5 -41h-96q28 66 84 101t123 35q66 0 111 -35.5t54 -100.5h-97z" />
    <glyph glyph-name="uni0214" unicode="&#x214;" horiz-adv-x="745" 
d="M565.5 67.5q-81.5 -77.5 -240.5 -77.5t-218.5 78t-39.5 222l61 433h173l-63 -443q-10 -74 20 -110.5t87 -36.5q58 0 98.5 36.5t50.5 110.5l63 443h172l-62 -436q-20 -142 -101.5 -219.5zM407 806l-58 -55l-162 106l84 85zM608 806l-57 -55l-163 106l85 85z" />
    <glyph glyph-name="uni0215" unicode="&#x215;" 
d="M120 9.5q-42 19.5 -66 57.5t-17 89l51 361h171l-48 -338q-4 -31 14 -49t51 -18q35 0 58.5 18.5t27.5 49.5l48 337h172l-76 -517h-127l-2 71q-27 -39 -76.5 -60t-94.5 -21q-44 0 -86 19.5zM326 600l-58 -55l-162 106l84 85zM527 600l-57 -55l-163 106l85 85z" />
    <glyph glyph-name="uni0216" unicode="&#x216;" horiz-adv-x="745" 
d="M565.5 67.5q-81.5 -77.5 -240.5 -77.5t-218.5 78t-39.5 222l61 433h173l-63 -443q-10 -74 20 -110.5t87 -36.5q58 0 98.5 36.5t50.5 110.5l63 443h172l-62 -436q-20 -142 -101.5 -219.5zM529 828q-10 24 -32.5 40.5t-47.5 16.5q-29 0 -55.5 -16t-43.5 -41h-96
q28 66 84 101t123 35q66 0 111 -35.5t54 -100.5h-97z" />
    <glyph glyph-name="uni0217" unicode="&#x217;" 
d="M120 9.5q-42 19.5 -66 57.5t-17 89l51 361h171l-48 -338q-4 -31 14 -49t51 -18q35 0 58.5 18.5t27.5 49.5l48 337h172l-76 -517h-127l-2 71q-27 -39 -76.5 -60t-94.5 -21q-44 0 -86 19.5zM448 622q-10 24 -32.5 40.5t-47.5 16.5q-29 0 -55.5 -16t-43.5 -41h-96
q28 66 84 101t123 35q66 0 111 -35.5t54 -100.5h-97z" />
    <glyph glyph-name="Scommaaccent" unicode="&#x218;" horiz-adv-x="705" 
d="M166 14.5q-67 24.5 -106 74.5t-36 123l177 1q3 -43 37 -67t90 -24q58 0 98.5 19t46.5 59q5 33 -24.5 50t-87.5 28l-118 22q-85 15 -127 68.5t-29 140.5q10 68 55.5 118.5t116.5 77.5t153 27q84 0 146.5 -30.5t95 -81.5t31.5 -110l-174 -2q2 91 -115 91q-56 0 -88.5 -21
t-36.5 -52q-4 -29 13.5 -46.5t67.5 -27.5l115 -22q126 -23 158.5 -86.5t21.5 -142.5q-8 -59 -54.5 -107.5t-120 -76t-161.5 -27.5q-78 0 -145 24.5zM222.5 -232q-3.5 6 1.5 12l38 45q5 5 6 12q1 5 -2 9t-9 4h-8q-12 0 -15.5 4t-1.5 15l8 61q2 17 18 17h85q14 0 12 -14
l-12 -83q0 -3 -2 -6.5t-3 -5.5l-58 -64q-6 -7 -12 -9.5t-18 -2.5h-17q-7 0 -10.5 6z" />
    <glyph glyph-name="scommaaccent" unicode="&#x219;" horiz-adv-x="522" 
d="M67.5 31q-61.5 41 -64.5 127l141 2q7 -32 31.5 -43.5t62.5 -11.5q39 0 62 11.5t26 30.5q3 18 -12 28.5t-47 16.5l-82 15q-155 29 -137 154q7 48 39 85.5t86 59t124 21.5q68 0 116 -20.5t69.5 -58t13.5 -87.5l-139 -1q-2 30 -24 43.5t-56 13.5q-73 0 -80 -44
q-2 -16 14.5 -26.5t59.5 -18.5l73 -15q80 -20 106.5 -65.5t20.5 -91.5q-11 -77 -81.5 -121.5t-170.5 -44.5q-90 0 -151.5 41zM136.5 -232q-3.5 6 1.5 12l38 45q5 5 6 12q1 5 -2 9t-9 4h-8q-12 0 -15.5 4t-1.5 15l8 61q2 17 18 17h85q14 0 12 -14l-12 -83q0 -3 -2 -6.5
t-3 -5.5l-58 -64q-6 -7 -12 -9.5t-18 -2.5h-17q-7 0 -10.5 6z" />
    <glyph glyph-name="uni021A" unicode="&#x21a;" horiz-adv-x="618" 
d="M68 723h593l-22 -151h-210l-80 -572h-171l80 572h-212zM187.5 -232q-3.5 6 1.5 12l38 45q5 5 6 12q1 5 -2 9t-9 4h-8q-12 0 -15.5 4t-1.5 15l8 61q2 17 18 17h85q14 0 12 -14l-12 -83q0 -3 -2 -6.5t-3 -5.5l-58 -64q-6 -7 -12 -9.5t-18 -2.5h-17q-7 0 -10.5 6z" />
    <glyph glyph-name="uni021B" unicode="&#x21b;" horiz-adv-x="437" 
d="M289 400l-34 -254q-3 -21 5 -29t25 -8h78l-14 -101q-30 -15 -98 -15q-105 0 -141 38t-27 107l37 262h-84l17 117h90l47 163h139l-23 -162h114l-17 -118h-114zM133.5 -232q-3.5 6 1.5 12l38 45q5 5 6 12q1 5 -2 9t-9 4h-8q-12 0 -15.5 4t-1.5 15l8 61q2 17 18 17h85
q14 0 12 -14l-12 -83q0 -3 -2 -6.5t-3 -5.5l-58 -64q-6 -7 -12 -9.5t-18 -2.5h-17q-7 0 -10.5 6z" />
    <glyph glyph-name="uni0237" unicode="&#x237;" horiz-adv-x="287" 
d="M115.5 -120.5q-52.5 -45.5 -149.5 -45.5q-34 0 -49.5 6t-14.5 10l15 113l36 5q30 5 42 16t15 33l71 500h171l-71 -501q-13 -91 -65.5 -136.5z" />
    <glyph glyph-name="uni0259" unicode="&#x259;" horiz-adv-x="564" 
d="M348.5 377.5q-21.5 28.5 -63.5 28.5q-34 0 -58.5 -13t-41.5 -44l-150 3q15 53 56 92.5t95.5 61t110.5 21.5q78 0 133.5 -32.5t81 -92t14.5 -137.5q-11 -77 -50.5 -139.5t-102.5 -99t-142 -36.5q-119 0 -173 73t-37 192l6 43h336q7 51 -14.5 79.5zM170 200
q-6 -40 14 -66.5t63 -26.5q39 0 68 28t34 65h-179z" />
    <glyph glyph-name="uni02BC" unicode="&#x2bc;" horiz-adv-x="199" 
d="M61 443.5q-2 4.5 0 9.5l45 106q3 5 3 11q1 7 -7 8l-9 2q-9 0 -12.5 3.5t-1.5 11.5l16 114q2 14 14 14h88q12 0 10 -11l-18 -132q-1 -6 -5 -9l-53 -118q-3 -8 -9.5 -11t-18.5 -3h-34q-6 0 -8 4.5z" />
    <glyph glyph-name="circumflex" unicode="&#x2c6;" horiz-adv-x="408" 
d="M247 666l-83 -78h-120l155 143h116l112 -143h-127z" />
    <glyph glyph-name="caron" unicode="&#x2c7;" horiz-adv-x="408" 
d="M446 724l-153 -145h-117l-113 145h120l61 -79l75 79h127z" />
    <glyph glyph-name="breve" unicode="&#x2d8;" horiz-adv-x="410" 
d="M359 622.5q-55 -35.5 -121 -35.5q-67 0 -112.5 35t-54.5 101h96q9 -25 31.5 -41t51.5 -16q25 0 52 16.5t44 40.5h97q-29 -65 -84 -100.5z" />
    <glyph glyph-name="dotaccent" unicode="&#x2d9;" horiz-adv-x="211" 
d="M222 571h-172l22 152h172z" />
    <glyph glyph-name="ring" unicode="&#x2da;" horiz-adv-x="262" 
d="M243 586.5q-37 -32.5 -84 -32.5q-46 0 -74 33t-21 80q6 45 43 76.5t83 31.5q47 0 75 -32t21 -78q-6 -46 -43 -78.5zM212 698.5q-12 13.5 -32 13.5t-36.5 -13.5t-19.5 -34.5q-3 -19 10 -34t32 -15q20 0 36.5 15t18.5 34q3 21 -9 34.5z" />
    <glyph glyph-name="ogonek" unicode="&#x2db;" horiz-adv-x="263" 
d="M-15 -34q23 22 80 41l117 -2q-55 -18 -76.5 -33.5t-24.5 -34.5q-4 -30 27 -30q25 0 59 15q6 3 9 3q7 0 6 -12l-7 -46q-1 -10 -11 -16q-16 -8 -45 -14t-60 -6q-53 0 -80 21.5t-21 62.5q4 29 27 51z" />
    <glyph glyph-name="tilde" unicode="&#x2dc;" horiz-adv-x="441" 
d="M386 612q-25 -8 -53 -8q-19 0 -34.5 3.5t-41.5 11.5q-17 5 -35.5 9.5t-35.5 4.5q-20 0 -35.5 -5.5t-34.5 -18.5q-8 -5 -12 -5q-6 0 -8 12l-8 47q-1 2 -1.5 4.5t0.5 6.5q1 6 12 16q22 18 44 27.5t51 9.5q20 0 38.5 -4t46.5 -13q17 -5 34.5 -9.5t31.5 -4.5q36 0 74 25
q7 4 11 4q9 0 10 -11l4 -57q1 -2 0 -7q-1 -9 -15 -19q-18 -11 -43 -19z" />
    <glyph glyph-name="hungarumlaut" unicode="&#x2dd;" horiz-adv-x="458" 
d="M269 672q7 -10 6 -17q-1 -9 -13 -16l-148 -83q-12 -7 -18 -7q-5 0 -10 7l-26 30q-5 8 -4 14q1 5 5 8l151 118q6 5 12 5q5 0 9 -6zM472 672q6 -10 5 -17q-1 -9 -13 -16l-149 -83q-11 -7 -17 -7t-11 7l-25 30q-5 8 -4 14q1 5 5 8l150 118q6 5 12 5t10 -6z" />
    <glyph glyph-name="gravecomb" unicode="&#x300;" horiz-adv-x="0" 
d="M23 630l-33 -70l-262 68l52 106z" />
    <glyph glyph-name="acutecomb" unicode="&#x301;" horiz-adv-x="0" 
d="M25 628l-280 -68l-14 70l272 104z" />
    <glyph glyph-name="uni0302" unicode="&#x302;" horiz-adv-x="0" 
d="M-161 666l-83 -78h-120l155 143h116l112 -143h-127z" />
    <glyph glyph-name="tildecomb" unicode="&#x303;" horiz-adv-x="0" 
d="M-55 612q-25 -8 -53 -8q-19 0 -34.5 3.5t-41.5 11.5q-17 5 -35.5 9.5t-35.5 4.5q-20 0 -35.5 -5.5t-34.5 -18.5q-8 -5 -12 -5q-6 0 -8 12l-8 47q-1 2 -1.5 4.5t0.5 6.5q1 6 12 16q22 18 44 27.5t51 9.5q20 0 38.5 -4t46.5 -13q17 -5 34.5 -9.5t31.5 -4.5q36 0 74 25
q7 4 11 4q9 0 10 -11l4 -57q1 -2 0 -7q-1 -9 -15 -19q-18 -11 -43 -19z" />
    <glyph glyph-name="uni0304" unicode="&#x304;" horiz-adv-x="0" 
d="M16 614h-376l15 106h376z" />
    <glyph glyph-name="uni0306" unicode="&#x306;" horiz-adv-x="0" 
d="M-51 622.5q-55 -35.5 -121 -35.5q-67 0 -112.5 35t-54.5 101h96q9 -25 31.5 -41t51.5 -16q25 0 52 16.5t44 40.5h97q-29 -65 -84 -100.5z" />
    <glyph glyph-name="uni0307" unicode="&#x307;" horiz-adv-x="0" 
d="M11 571h-172l22 152h172z" />
    <glyph glyph-name="uni0308" unicode="&#x308;" horiz-adv-x="0" 
d="M-202 591h-147l19 132h147zM13 591h-148l19 132h148z" />
    <glyph glyph-name="uni030A" unicode="&#x30a;" horiz-adv-x="0" 
d="M-19 586.5q-37 -32.5 -84 -32.5q-46 0 -74 33t-21 80q6 45 43 76.5t83 31.5q47 0 75 -32t21 -78q-6 -46 -43 -78.5zM-50 698.5q-12 13.5 -32 13.5t-36.5 -13.5t-19.5 -34.5q-3 -19 10 -34t32 -15q20 0 36.5 15t18.5 34q3 21 -9 34.5z" />
    <glyph glyph-name="uni030B" unicode="&#x30b;" horiz-adv-x="0" 
d="M-189 672q7 -10 6 -17q-1 -9 -13 -16l-148 -83q-12 -7 -18 -7q-5 0 -10 7l-26 30q-5 8 -4 14q1 5 5 8l151 118q6 5 12 5q5 0 9 -6zM14 672q6 -10 5 -17q-1 -9 -13 -16l-149 -83q-11 -7 -17 -7t-11 7l-25 30q-5 8 -4 14q1 5 5 8l150 118q6 5 12 5t10 -6z" />
    <glyph glyph-name="uni030C" unicode="&#x30c;" horiz-adv-x="0" 
d="M38 724l-153 -145h-117l-113 145h120l61 -79l75 79h127z" />
    <glyph glyph-name="uni030F" unicode="&#x30f;" horiz-adv-x="0" 
d="M-185 600l-58 -55l-162 106l84 85zM16 600l-57 -55l-163 106l85 85z" />
    <glyph glyph-name="uni0311" unicode="&#x311;" horiz-adv-x="0" 
d="M-62 622q-10 24 -32.5 40.5t-47.5 16.5q-29 0 -55.5 -16t-43.5 -41h-96q28 66 84 101t123 35q66 0 111 -35.5t54 -100.5h-97z" />
    <glyph glyph-name="dotbelowcomb" unicode="&#x323;" horiz-adv-x="0" 
d="M-90 -141q-2 -11 -7.5 -15.5t-17.5 -4.5h-90q-10 0 -13 4t-1 14l12 85q2 17 13 17h106q12 0 10 -16z" />
    <glyph glyph-name="uni0326" unicode="&#x326;" horiz-adv-x="0" 
d="M-211.5 -232q-3.5 6 1.5 12l38 45q5 5 6 12q1 5 -2 9t-9 4h-8q-12 0 -15.5 4t-1.5 15l8 61q2 17 18 17h85q14 0 12 -14l-12 -83q0 -3 -2 -6.5t-3 -5.5l-58 -64q-6 -7 -12 -9.5t-18 -2.5h-17q-7 0 -10.5 6z" />
    <glyph glyph-name="uni0327" unicode="&#x327;" horiz-adv-x="0" 
d="M-133.5 -193q-39.5 -23 -91.5 -23q-78 0 -120 28l29 54q40 -25 78 -25q22 0 36 7.5t16 20.5q3 20 -16 30t-66 10q-7 0 -9 2t2 9l49 85h72l-30 -58q54 -1 77 -25t18 -55q-5 -37 -44.5 -60z" />
    <glyph glyph-name="uni0328" unicode="&#x328;" horiz-adv-x="0" 
d="M-278 -34q23 22 80 41l117 -2q-55 -18 -76.5 -33.5t-24.5 -34.5q-4 -30 27 -30q25 0 59 15q6 3 9 3q7 0 6 -12l-7 -46q-1 -10 -11 -16q-16 -8 -45 -14t-60 -6q-53 0 -80 21.5t-21 62.5q4 29 27 51z" />
    <glyph glyph-name="uni0394" unicode="&#x394;" horiz-adv-x="693" 
d="M-7 105l310 618h192l134 -619l-15 -104h-636zM443 137l-73 413l-190 -413h263z" />
    <glyph glyph-name="uni03A9" unicode="&#x3a9;" horiz-adv-x="768" 
d="M305.5 545.5q-49.5 -54.5 -64.5 -163.5q-12 -86 8.5 -146t58.5 -96q10 -10 13.5 -18.5t1.5 -19.5l-14 -102h-300l20 141h127q-50 46 -81 112t-19 153q12 83 63 158.5t134.5 122t185.5 46.5q106 0 174 -48.5t96 -124t17 -153.5q-11 -80 -57.5 -144.5t-103.5 -108.5
q-3 -3 -4 -7q-1 -6 6 -6h111l-20 -141h-299l17 122q55 38 100 103t58 161q15 105 -17 159.5t-97 54.5t-114.5 -54.5z" />
    <glyph glyph-name="uni03BC" unicode="&#x3bc;" 
d="M359 161l50 356h173l-77 -517h-166l11 80q-65 -64 -130 -82q-30 -6 -36 -10l-21 -149h-171l96 678h171l-49 -348q-4 -26 10.5 -42t40.5 -16q48 0 98 50z" />
    <glyph glyph-name="pi" unicode="&#x3c0;" horiz-adv-x="676" 
d="M573 400l-56 -400h-163l56 400h-133q-12 -87 -46.5 -208t-68.5 -192h-160q34 87 66.5 199.5t43.5 190.5q1 10 -7 10h-76l17 117h630l-17 -117h-86z" />
    <glyph glyph-name="uni1E0C" unicode="&#x1e0c;" horiz-adv-x="759" 
d="M230 723q105 0 135 -1q189 -6 268 -100t56 -258q-24 -169 -132.5 -266.5t-295.5 -97.5h-235l102 723h102zM216 136h68q83 0 147 56t80 174q16 111 -27.5 166.5t-134.5 55.5h-69zM368 -141q-2 -11 -7.5 -15.5t-17.5 -4.5h-90q-10 0 -13 4t-1 14l12 85q2 17 13 17h106
q12 0 10 -16z" />
    <glyph glyph-name="uni1E0D" unicode="&#x1e0d;" horiz-adv-x="611" 
d="M51 62q-48 72 -30 198q17 124 80.5 195.5t160.5 71.5q44 0 80 -16t56 -52l39 284h171l-104 -743h-122l-3 69q-25 -32 -71 -55.5t-105 -23.5q-104 0 -152 72zM328 142q29 31 37 86l11 76q2 53 -18 77t-57 24q-95 0 -115 -143q-11 -79 10 -115t64 -36q39 0 68 31zM293 -141
q-2 -11 -7.5 -15.5t-17.5 -4.5h-90q-10 0 -13 4t-1 14l12 85q2 17 13 17h106q12 0 10 -16z" />
    <glyph glyph-name="uni1E24" unicode="&#x1e24;" horiz-adv-x="732" 
d="M238 300l-42 -300h-170l102 723h170l-40 -282h247l40 282h171l-102 -723h-171l42 300h-247zM360 -141q-2 -11 -7.5 -15.5t-17.5 -4.5h-90q-10 0 -13 4t-1 14l12 85q2 17 13 17h106q12 0 10 -16z" />
    <glyph glyph-name="uni1E25" unicode="&#x1e25;" horiz-adv-x="616" 
d="M119 743h168l-41 -292q31 26 49 38.5t44.5 21t64.5 8.5q49 0 86.5 -21t55.5 -59t11 -87l-49 -352h-170l46 330q4 26 -14 42.5t-47 16.5q-27 0 -52.5 -15.5t-37.5 -40.5l-47 -333h-171zM308 -141q-2 -11 -7.5 -15.5t-17.5 -4.5h-90q-10 0 -13 4t-1 14l12 85q2 17 13 17
h106q12 0 10 -16z" />
    <glyph glyph-name="uni1E44" unicode="&#x1e44;" horiz-adv-x="790" 
d="M775 723l-102 -723h-154l-258 464l-65 -464h-170l102 723h170l244 -441l62 441h171zM547 777h-172l22 152h172z" />
    <glyph glyph-name="uni1E45" unicode="&#x1e45;" 
d="M88 517h169l-9 -64q34 33 66 50t87 17q47 0 85.5 -22t58.5 -62t13 -89l-49 -347h-170l46 325q4 29 -15 46.5t-49 17.5q-31 0 -58 -16.5t-31 -43.5l-46 -329h-171zM431 571h-172l22 152h172z" />
    <glyph glyph-name="uni1E5A" unicode="&#x1e5a;" horiz-adv-x="701" 
d="M432 0l-75 264h-124l-37 -264h-170l102 723h316q130 0 183.5 -61t39.5 -164q-11 -78 -50 -126.5t-100 -80.5l90 -291h-175zM454.5 422.5q34.5 29.5 40.5 73.5q6 43 -19.5 71t-67.5 28h-128l-29 -202h122q47 0 81.5 29.5zM350 -141q-2 -11 -7.5 -15.5t-17.5 -4.5h-90
q-10 0 -13 4t-1 14l12 85q2 17 13 17h106q12 0 10 -16z" />
    <glyph glyph-name="uni1E5B" unicode="&#x1e5b;" horiz-adv-x="435" 
d="M88 517h165l-19 -135q30 64 81 104.5t116 40.5l-22 -161q-26 2 -35 2q-73 0 -109 -30t-42 -75l-37 -263h-171zM154 -141q-2 -11 -7.5 -15.5t-17.5 -4.5h-90q-10 0 -13 4t-1 14l12 85q2 17 13 17h106q12 0 10 -16z" />
    <glyph glyph-name="uni1E62" unicode="&#x1e62;" horiz-adv-x="705" 
d="M166 14.5q-67 24.5 -106 74.5t-36 123l177 1q3 -43 37 -67t90 -24q58 0 98.5 19t46.5 59q5 33 -24.5 50t-87.5 28l-118 22q-85 15 -127 68.5t-29 140.5q10 68 55.5 118.5t116.5 77.5t153 27q84 0 146.5 -30.5t95 -81.5t31.5 -110l-174 -2q2 91 -115 91q-56 0 -88.5 -21
t-36.5 -52q-4 -29 13.5 -46.5t67.5 -27.5l115 -22q126 -23 158.5 -86.5t21.5 -142.5q-8 -59 -54.5 -107.5t-120 -76t-161.5 -27.5q-78 0 -145 24.5zM351 -141q-2 -11 -7.5 -15.5t-17.5 -4.5h-90q-10 0 -13 4t-1 14l12 85q2 17 13 17h106q12 0 10 -16z" />
    <glyph glyph-name="uni1E63" unicode="&#x1e63;" horiz-adv-x="522" 
d="M67.5 31q-61.5 41 -64.5 127l141 2q7 -32 31.5 -43.5t62.5 -11.5q39 0 62 11.5t26 30.5q3 18 -12 28.5t-47 16.5l-82 15q-155 29 -137 154q7 48 39 85.5t86 59t124 21.5q68 0 116 -20.5t69.5 -58t13.5 -87.5l-139 -1q-2 30 -24 43.5t-56 13.5q-73 0 -80 -44
q-2 -16 14.5 -26.5t59.5 -18.5l73 -15q80 -20 106.5 -65.5t20.5 -91.5q-11 -77 -81.5 -121.5t-170.5 -44.5q-90 0 -151.5 41zM265 -141q-2 -11 -7.5 -15.5t-17.5 -4.5h-90q-10 0 -13 4t-1 14l12 85q2 17 13 17h106q12 0 10 -16z" />
    <glyph glyph-name="uni1E6C" unicode="&#x1e6c;" horiz-adv-x="618" 
d="M68 723h593l-22 -151h-210l-80 -572h-171l80 572h-212zM316 -141q-2 -11 -7.5 -15.5t-17.5 -4.5h-90q-10 0 -13 4t-1 14l12 85q2 17 13 17h106q12 0 10 -16z" />
    <glyph glyph-name="uni1E6D" unicode="&#x1e6d;" horiz-adv-x="437" 
d="M289 400l-34 -254q-3 -21 5 -29t25 -8h78l-14 -101q-30 -15 -98 -15q-105 0 -141 38t-27 107l37 262h-84l17 117h90l47 163h139l-23 -162h114l-17 -118h-114zM262 -141q-2 -11 -7.5 -15.5t-17.5 -4.5h-90q-10 0 -13 4t-1 14l12 85q2 17 13 17h106q12 0 10 -16z" />
    <glyph glyph-name="Wgrave" unicode="&#x1e80;" horiz-adv-x="971" 
d="M695 0h-131l-64 433l-187 -433h-129l-113 723h165l63 -433l182 433h121l63 -433l182 433h165zM701 836l-33 -70l-262 68l52 106z" />
    <glyph glyph-name="wgrave" unicode="&#x1e81;" horiz-adv-x="803" 
d="M566 0h-126l-48 282l-130 -282h-121l-99 517h149l50 -286l128 286h119l45 -286l130 286h153zM592 630l-33 -70l-262 68l52 106z" />
    <glyph glyph-name="Wacute" unicode="&#x1e82;" horiz-adv-x="971" 
d="M695 0h-131l-64 433l-187 -433h-129l-113 723h165l63 -433l182 433h121l63 -433l182 433h165zM706 834l-280 -68l-14 70l272 104z" />
    <glyph glyph-name="wacute" unicode="&#x1e83;" horiz-adv-x="803" 
d="M566 0h-126l-48 282l-130 -282h-121l-99 517h149l50 -286l128 286h119l45 -286l130 286h153zM597 628l-280 -68l-14 70l272 104z" />
    <glyph glyph-name="Wdieresis" unicode="&#x1e84;" horiz-adv-x="971" 
d="M695 0h-131l-64 433l-187 -433h-129l-113 723h165l63 -433l182 433h121l63 -433l182 433h165zM518 797h-147l19 132h147zM733 797h-148l19 132h148z" />
    <glyph glyph-name="wdieresis" unicode="&#x1e85;" horiz-adv-x="803" 
d="M566 0h-126l-48 282l-130 -282h-121l-99 517h149l50 -286l128 286h119l45 -286l130 286h153zM409 591h-147l19 132h147zM624 591h-148l19 132h148z" />
    <glyph glyph-name="uni1E92" unicode="&#x1e92;" horiz-adv-x="681" 
d="M8 80l425 502h-325l20 141h570l-11 -76l-432 -504h356l-20 -143h-594zM345 -141q-2 -11 -7.5 -15.5t-17.5 -4.5h-90q-10 0 -13 4t-1 14l12 85q2 17 13 17h106q12 0 10 -16z" />
    <glyph glyph-name="uni1E93" unicode="&#x1e93;" horiz-adv-x="535" 
d="M-9 84l301 327h-233l15 106h447l-12 -81l-302 -329h258l-15 -107h-471zM277 -141q-2 -11 -7.5 -15.5t-17.5 -4.5h-90q-10 0 -13 4t-1 14l12 85q2 17 13 17h106q12 0 10 -16z" />
    <glyph glyph-name="uni1EB8" unicode="&#x1eb8;" horiz-adv-x="643" 
d="M128 723h515l-21 -142h-343l-21 -148h293l-20 -139h-294l-21 -151h348l-20 -143h-518zM333 -141q-2 -11 -7.5 -15.5t-17.5 -4.5h-90q-10 0 -13 4t-1 14l12 85q2 17 13 17h106q12 0 10 -16z" />
    <glyph glyph-name="uni1EB9" unicode="&#x1eb9;" horiz-adv-x="564" 
d="M196.5 139.5q21.5 -28.5 63.5 -28.5q34 0 58.5 13t41.5 44l150 -3q-15 -53 -56 -92.5t-95.5 -61t-110.5 -21.5q-78 0 -133.5 32.5t-81 92t-14.5 137.5q11 77 50.5 139.5t102.5 99t142 36.5q119 0 173 -73t37 -192l-6 -43h-336q-7 -51 14.5 -79.5zM375 317q6 40 -14 66.5
t-63 26.5q-39 0 -68 -28t-34 -65h179zM286 -141q-2 -11 -7.5 -15.5t-17.5 -4.5h-90q-10 0 -13 4t-1 14l12 85q2 17 13 17h106q12 0 10 -16z" />
    <glyph glyph-name="uni1EBC" unicode="&#x1ebc;" horiz-adv-x="643" 
d="M128 723h515l-21 -142h-343l-21 -148h293l-20 -139h-294l-21 -151h348l-20 -143h-518zM532 818q-25 -8 -53 -8q-19 0 -34.5 3.5t-41.5 11.5q-17 5 -35.5 9.5t-35.5 4.5q-20 0 -35.5 -5.5t-34.5 -18.5q-8 -5 -12 -5q-6 0 -8 12l-8 47q-1 2 -1.5 4.5t0.5 6.5q1 6 12 16
q22 18 44 27.5t51 9.5q20 0 38.5 -4t46.5 -13q17 -5 34.5 -9.5t31.5 -4.5q36 0 74 25q7 4 11 4q9 0 10 -11l4 -57q1 -2 0 -7q-1 -9 -15 -19q-18 -11 -43 -19z" />
    <glyph glyph-name="uni1EBD" unicode="&#x1ebd;" horiz-adv-x="564" 
d="M196.5 139.5q21.5 -28.5 63.5 -28.5q34 0 58.5 13t41.5 44l150 -3q-15 -53 -56 -92.5t-95.5 -61t-110.5 -21.5q-78 0 -133.5 32.5t-81 92t-14.5 137.5q11 77 50.5 139.5t102.5 99t142 36.5q119 0 173 -73t37 -192l-6 -43h-336q-7 -51 14.5 -79.5zM375 317q6 40 -14 66.5
t-63 26.5q-39 0 -68 -28t-34 -65h179zM458 612q-25 -8 -53 -8q-19 0 -34.5 3.5t-41.5 11.5q-17 5 -35.5 9.5t-35.5 4.5q-20 0 -35.5 -5.5t-34.5 -18.5q-8 -5 -12 -5q-6 0 -8 12l-8 47q-1 2 -1.5 4.5t0.5 6.5q1 6 12 16q22 18 44 27.5t51 9.5q20 0 38.5 -4t46.5 -13
q17 -5 34.5 -9.5t31.5 -4.5q36 0 74 25q7 4 11 4q9 0 10 -11l4 -57q1 -2 0 -7q-1 -9 -15 -19q-18 -11 -43 -19z" />
    <glyph glyph-name="uni1ECA" unicode="&#x1eca;" horiz-adv-x="314" 
d="M298 723l-102 -723h-170l102 723h170zM164 -141q-2 -11 -7.5 -15.5t-17.5 -4.5h-90q-10 0 -13 4t-1 14l12 85q2 17 13 17h106q12 0 10 -16z" />
    <glyph glyph-name="uni1ECB" unicode="&#x1ecb;" horiz-adv-x="299" 
d="M270 590h-172l21 153h172zM187 0h-171l73 517h171zM156 -141q-2 -11 -7.5 -15.5t-17.5 -4.5h-90q-10 0 -13 4t-1 14l12 85q2 17 13 17h106q12 0 10 -16z" />
    <glyph glyph-name="uni1ECC" unicode="&#x1ecc;" horiz-adv-x="762" 
d="M159.5 35q-71.5 45 -101 128.5t-13.5 196.5t69.5 197.5t137.5 130t187 45.5q102 0 172.5 -45.5t100.5 -130t15 -197.5q-16 -113 -69.5 -196.5t-136.5 -128.5t-186 -45q-104 0 -175.5 45zM541 357q17 123 -15.5 180.5t-105.5 57.5t-123 -57.5t-67 -180.5
q-17 -119 16.5 -174t107.5 -55q155 0 187 229zM381 -141q-2 -11 -7.5 -15.5t-17.5 -4.5h-90q-10 0 -13 4t-1 14l12 85q2 17 13 17h106q12 0 10 -16z" />
    <glyph glyph-name="uni1ECD" unicode="&#x1ecd;" horiz-adv-x="572" 
d="M107.5 23.5q-53.5 33.5 -76 94t-11.5 137.5q11 80 52.5 142t104 96t138.5 34q77 0 130 -35t75.5 -96.5t11.5 -140.5q-11 -77 -50.5 -137t-102 -94t-140.5 -34t-131.5 33.5zM331.5 157.5q26.5 42.5 35.5 103.5t-6 102t-63 41q-49 0 -76 -41t-35 -102q-9 -61 6 -103.5
t64 -42.5q48 0 74.5 42.5zM282 -141q-2 -11 -7.5 -15.5t-17.5 -4.5h-90q-10 0 -13 4t-1 14l12 85q2 17 13 17h106q12 0 10 -16z" />
    <glyph glyph-name="uni1EE4" unicode="&#x1ee4;" horiz-adv-x="723" 
d="M565.5 67.5q-81.5 -77.5 -240.5 -77.5t-218.5 78t-39.5 222l61 433h173l-63 -443q-10 -74 20 -110.5t87 -36.5q58 0 98.5 36.5t50.5 110.5l63 443h172l-62 -436q-20 -142 -101.5 -219.5zM382 -141q-2 -11 -7.5 -15.5t-17.5 -4.5h-90q-10 0 -13 4t-1 14l12 85q2 17 13 17
h106q12 0 10 -16z" />
    <glyph glyph-name="uni1EE5" unicode="&#x1ee5;" 
d="M120 9.5q-42 19.5 -66 57.5t-17 89l51 361h171l-48 -338q-4 -31 14 -49t51 -18q35 0 58.5 18.5t27.5 49.5l48 337h172l-76 -517h-127l-2 71q-27 -39 -76.5 -60t-94.5 -21q-44 0 -86 19.5zM306 -141q-2 -11 -7.5 -15.5t-17.5 -4.5h-90q-10 0 -13 4t-1 14l12 85q2 17 13 17
h106q12 0 10 -16z" />
    <glyph glyph-name="Ygrave" unicode="&#x1ef2;" horiz-adv-x="683" 
d="M423 303l-43 -303h-171l43 303l-194 420h184l116 -275l192 275h186zM576 836l-33 -70l-262 68l52 106z" />
    <glyph glyph-name="ygrave" unicode="&#x1ef3;" horiz-adv-x="586" 
d="M31 -160.5q-23 4.5 -34 9t-12 6.5l15 108l50 -3q43 -3 67 5.5t32.5 18.5t15.5 23l8 19l-132 491h168l67 -309l158 309h166l-277 -503q-39 -71 -76.5 -110.5t-75.5 -54t-84 -14.5q-33 0 -56 4.5zM500 630l-33 -70l-262 68l52 106z" />
    <glyph glyph-name="uni1EF8" unicode="&#x1ef8;" horiz-adv-x="683" 
d="M423 303l-43 -303h-171l43 303l-194 420h184l116 -275l192 275h186zM561 818q-25 -8 -53 -8q-19 0 -34.5 3.5t-41.5 11.5q-17 5 -35.5 9.5t-35.5 4.5q-20 0 -35.5 -5.5t-34.5 -18.5q-8 -5 -12 -5q-6 0 -8 12l-8 47q-1 2 -1.5 4.5t0.5 6.5q1 6 12 16q22 18 44 27.5t51 9.5
q20 0 38.5 -4t46.5 -13q17 -5 34.5 -9.5t31.5 -4.5q36 0 74 25q7 4 11 4q9 0 10 -11l4 -57q1 -2 0 -7q-1 -9 -15 -19q-18 -11 -43 -19z" />
    <glyph glyph-name="uni1EF9" unicode="&#x1ef9;" horiz-adv-x="586" 
d="M31 -160.5q-23 4.5 -34 9t-12 6.5l15 108l50 -3q43 -3 67 5.5t32.5 18.5t15.5 23l8 19l-132 491h168l67 -309l158 309h166l-277 -503q-39 -71 -76.5 -110.5t-75.5 -54t-84 -14.5q-33 0 -56 4.5zM485 612q-25 -8 -53 -8q-19 0 -34.5 3.5t-41.5 11.5q-17 5 -35.5 9.5
t-35.5 4.5q-20 0 -35.5 -5.5t-34.5 -18.5q-8 -5 -12 -5q-6 0 -8 12l-8 47q-1 2 -1.5 4.5t0.5 6.5q1 6 12 16q22 18 44 27.5t51 9.5q20 0 38.5 -4t46.5 -13q17 -5 34.5 -9.5t31.5 -4.5q36 0 74 25q7 4 11 4q9 0 10 -11l4 -57q1 -2 0 -7q-1 -9 -15 -19q-18 -11 -43 -19z" />
    <glyph glyph-name="endash" unicode="&#x2013;" horiz-adv-x="603" 
d="M523 187h-491l17 121h491z" />
    <glyph glyph-name="emdash" unicode="&#x2014;" horiz-adv-x="920" 
d="M840 187h-808l17 121h808z" />
    <glyph glyph-name="quoteleft" unicode="&#x2018;" horiz-adv-x="267" 
d="M183 611l53 -6l-22 -154h-162l20 136l131 166h59z" />
    <glyph glyph-name="quoteright" unicode="&#x2019;" horiz-adv-x="262" 
d="M138 563l-53 6l22 154h162l-20 -136l-131 -166h-59z" />
    <glyph glyph-name="quotesinglbase" unicode="&#x201a;" horiz-adv-x="266" 
d="M59 -3l-55 6l22 155h163l-19 -138l-131 -165h-59z" />
    <glyph glyph-name="quotedblleft" unicode="&#x201c;" horiz-adv-x="500" 
d="M76 558l132 165h59l-79 -141l54 -6l-22 -155h-163zM310 558l132 165h59l-80 -141l54 -6l-22 -155h-162z" />
    <glyph glyph-name="quotedblright" unicode="&#x201d;" horiz-adv-x="522" 
d="M138 563l-53 6l22 154h162l-20 -136l-131 -166h-59zM372 563l-55 6l22 154h163l-20 -136l-130 -166h-60z" />
    <glyph glyph-name="quotedblbase" unicode="&#x201e;" horiz-adv-x="542" 
d="M314 -3l-55 6l22 155h163l-19 -138l-131 -165h-59zM76 -3l-55 6l22 155h163l-19 -138l-131 -165h-59z" />
    <glyph glyph-name="dagger" unicode="&#x2020;" horiz-adv-x="543" 
d="M504 357l-180 24l-45 -542h-160l108 542l-188 -24l21 145l174 -22l8 243h163l-62 -243l182 22z" />
    <glyph glyph-name="daggerdbl" unicode="&#x2021;" horiz-adv-x="543" 
d="M295 165l186 24l-21 -146l-176 23l-4 -227h-163l60 227l-182 -23l21 146l178 -24l28 198l-185 -23l20 144l175 -21l10 260h162l-63 -260l181 21l-20 -144l-179 23z" />
    <glyph glyph-name="bullet" unicode="&#x2022;" horiz-adv-x="364" 
d="M95.5 248.5q-28.5 18.5 -42.5 50.5t-9 69t28 68.5t57 50.5t71 19t66.5 -19t43.5 -50.5t9 -68.5t-28 -69t-58 -50.5t-72 -18.5t-65.5 18.5z" />
    <glyph glyph-name="ellipsis" unicode="&#x2026;" horiz-adv-x="931" 
d="M860 0h-183l25 177h183zM198 0h-183l25 177h183zM529 0h-183l25 177h183z" />
    <glyph glyph-name="perthousand" unicode="&#x2030;" horiz-adv-x="1368" 
d="M376 706q39 -28 57.5 -76t10.5 -103q-8 -54 -39 -100.5t-77.5 -74t-98.5 -27.5t-92 27.5t-58.5 74t-10.5 100.5q8 55 39.5 103t79 76t99.5 28q51 0 90 -28zM243 -4l-95 2l591 733h94zM292 439.5q19 29.5 27 87.5q9 61 -2 92t-44 31q-63 0 -80 -123q-8 -58 3 -87.5
t44 -29.5t52 29.5zM814 371.5q39 -28.5 57.5 -76t10.5 -102.5q-8 -54 -39.5 -101t-78 -74.5t-98.5 -27.5t-92 27.5t-58 74.5t-11 101q8 55 39.5 102.5t79 76t99.5 28.5t91 -28.5zM1233 371.5q39 -28.5 57.5 -76t10.5 -102.5q-8 -54 -39 -101t-77.5 -74.5t-98.5 -27.5
q-53 0 -92.5 27.5t-58 74t-10.5 101.5t39.5 102.5t79 76t99.5 28.5q51 0 90 -28.5zM729 105q19 29 27 87q17 123 -46 123q-62 0 -79 -123q-8 -57 2.5 -86.5t43.5 -29.5t52 29zM1149 105q19 29 27 87q17 123 -46 123t-80 -123q-8 -57 3 -86.5t44 -29.5t52 29z" />
    <glyph glyph-name="guilsinglleft" unicode="&#x2039;" horiz-adv-x="316" 
d="M215 62h-89l-87 189l140 197h90l-101 -197z" />
    <glyph glyph-name="guilsinglright" unicode="&#x203a;" horiz-adv-x="316" 
d="M71 448h90l84 -197l-139 -189h-88l98 189z" />
    <glyph glyph-name="fraction" unicode="&#x2044;" horiz-adv-x="250" 
d="M-122 -4l-95 2l591 733h94z" />
    <glyph glyph-name="uni2070" unicode="&#x2070;" horiz-adv-x="420" 
d="M398.5 782.5q43.5 -62.5 27.5 -173.5q-15 -110 -74.5 -170.5t-147.5 -60.5t-130.5 60.5t-27.5 170.5q16 111 76.5 173.5t146.5 62.5t129.5 -62.5zM275 496q22 34 33 113q11 81 -1.5 116.5t-49.5 35.5t-59.5 -35.5t-33.5 -116.5q-11 -78 1.5 -112.5t49.5 -34.5q38 0 60 34
z" />
    <glyph glyph-name="uni2074" unicode="&#x2074;" horiz-adv-x="420" 
d="M388 835l-38 -270h67l-13 -91h-67l-13 -94h-108l14 94h-202l12 88l242 273h106zM244 565l17 123l-108 -123h91z" />
    <glyph glyph-name="uni2075" unicode="&#x2075;" horiz-adv-x="406" 
d="M438 835l-17 -87h-214l-21 -92q38 11 55.5 15t40.5 4q73 0 112.5 -39t30.5 -108q-10 -72 -66 -113t-142 -41q-65 0 -113.5 25t-69.5 67l87 54q22 -31 42 -46.5t54 -15.5q38 0 62.5 19t28.5 48q4 28 -13.5 46t-53.5 18q-18 0 -34 -4.5t-41 -15.5q-6 -3 -8 -3t-8 3l-67 40
l53 226h302z" />
    <glyph glyph-name="uni2076" unicode="&#x2076;" horiz-adv-x="408" 
d="M387.5 811.5q42.5 -35.5 37.5 -95.5l-98 -3q-5 26 -19.5 38.5t-41.5 12.5q-38 0 -64.5 -30t-32.5 -77q-1 -8 -2 -24q18 17 45 25.5t57 8.5q70 0 107 -38t29 -97q-6 -43 -34 -77.5t-71.5 -53.5t-94.5 -19q-90 0 -133.5 60t-29.5 162q16 113 78.5 178t154.5 65
q70 0 112.5 -35.5zM181.5 574q-24.5 -15 -26.5 -30q-4 -41 11.5 -62.5t45.5 -21.5q29 0 52.5 19t27.5 48q4 30 -14 46t-46 16q-26 0 -50.5 -15z" />
    <glyph glyph-name="uni2077" unicode="&#x2077;" horiz-adv-x="370" 
d="M442 835l-16 -110q-65 -67 -126.5 -168t-71.5 -177h-116q8 41 33 101.5t72 131t113 135.5h-250l13 87h349z" />
    <glyph glyph-name="uni2078" unicode="&#x2078;" horiz-adv-x="406" 
d="M350.5 828.5q36.5 -16.5 54 -45.5t12.5 -65q-5 -37 -31.5 -58.5t-50.5 -29.5q25 -13 40.5 -24t27 -33.5t6.5 -57.5q-9 -64 -67 -100.5t-146 -36.5q-83 0 -128.5 31t-37.5 86q10 71 97 103q-2 1 -33.5 21.5t-22.5 83.5q5 39 31 71.5t68 51.5t95 19q49 0 85.5 -16.5z
M209.5 752.5q-19.5 -13.5 -22.5 -35.5q-4 -32 31 -42l42 -14q16 -5 35.5 13.5t22.5 40.5t-13 36.5t-49 14.5q-27 0 -46.5 -13.5zM266.5 470q20.5 13 23.5 35q2 17 -6 28.5t-33 19.5l-49 17q-3 1 -9 1q-18 0 -36 -16.5t-21 -39.5q-8 -58 78 -58q32 0 52.5 13z" />
    <glyph glyph-name="uni2079" unicode="&#x2079;" horiz-adv-x="408" 
d="M78 416.5q-44 36.5 -39 94.5l100 2q3 -23 17 -36.5t40 -13.5q44 0 74 27.5t38 85.5q2 14 2 22q-36 -44 -108 -44q-71 0 -111 39t-31 102q6 43 34 77.5t71.5 53.5t94.5 19q91 0 134 -60t29 -162q-17 -123 -78 -183t-155 -60q-68 0 -112 36.5zM283.5 652.5
q24.5 14.5 26.5 29.5q5 42 -10.5 63.5t-46.5 21.5q-28 0 -49.5 -19t-25.5 -48q-4 -28 12.5 -45t43.5 -17q25 0 49.5 14.5z" />
    <glyph glyph-name="colonmonetary" unicode="&#x20a1;" horiz-adv-x="603" 
d="M339 235.5q21 23.5 36 56.5l134 -3q-13 -63 -57.5 -113t-109.5 -71l-42 -104l-86 2l36 90q-33 1 -63 11l-42 -103l-85 2l55 139q-43 35 -61.5 91t-9.5 126q13 93 67.5 161t132.5 95l44 106l86 2l-36 -93q34 0 64 -8l41 99l86 2l-55 -140q30 -28 43.5 -69t11.5 -88
l-139 -3q-8 37 -21.5 58.5t-47.5 21.5q-46 0 -78 -37t-41 -105q-10 -69 13 -109t69 -40q34 0 55 23.5z" />
    <glyph glyph-name="franc" unicode="&#x20a3;" horiz-adv-x="629" 
d="M289 583l-22 -159h238l-20 -137h-238l-12 -85h143l-12 -89h-143l-16 -113h-193l16 112h-86l12 90h86l74 521h535l-20 -140h-342z" />
    <glyph glyph-name="lira" unicode="&#x20a4;" horiz-adv-x="657" 
d="M498 49.5q-69 -49.5 -158 -49.5h-368l20 140h32q32 0 55 15.5t34 48.5q7 12 7 30q1 8 -7 8h-104l12 88h100l1 58h-92l12 89h80l2 44q0 7 2 22q9 62 47 105t95 64t121 21q78 0 141.5 -39.5t84.5 -115.5l-155 -43q-8 31 -22.5 48t-41.5 17q-29 0 -49 -19t-25 -53
q-1 -9 -1 -39q0 -12 9 -12h125l-12 -89h-121l-3 -58h115l-12 -88h-119q-11 -30 -31 -56.5t-46 -44.5h120q44 0 71 18t46 61l139 -29q-35 -92 -104 -141.5z" />
    <glyph glyph-name="uni20A6" unicode="&#x20a6;" horiz-adv-x="794" 
d="M769 442l-20 -141h27l-11 -80h-27l-31 -221h-154l-123 221l-169 -1l-31 -220h-170l31 220h-99l11 81h99l20 141h-99l11 80h99l29 201h170l110 -201h167l29 201h171l-29 -201h27l-11 -80h-27zM385 301l-78 141h-15l-20 -141h113zM598 442h-111l78 -141h13z" />
    <glyph glyph-name="uni20A9" unicode="&#x20a9;" horiz-adv-x="1158" 
d="M1010 541l-29 -67h183l-13 -89h-210l-168 -385h-131l-57 385h-28l-166 -385h-129l-60 385h-185l12 88h158l-10 68h-138l12 88h112l-14 94h165l13 -94h192l40 94h121l14 -93h192l39 93h165l-41 -93h137l-13 -89h-163zM350 473h103l29 68h-142zM848 541h-142l10 -67h104z
M417 385h-54l14 -95zM783 385h-54l14 -95z" />
    <glyph glyph-name="dong" unicode="&#x20ab;" horiz-adv-x="541" 
d="M572 671l-10 -71h-60l-65 -467h-140l7 50q-31 -29 -62 -43.5t-73 -14.5q-75 0 -113 56t-23 161q9 66 40.5 117t75 79t90.5 28q31 0 53.5 -9.5t42.5 -32.5q7 -4 8 -4q6 0 7 10l10 70h-104l10 71h104l8 52h142l-8 -52h60zM337 442q-13 18 -27 26t-35 8q-36 0 -61.5 -31.5
t-35.5 -100.5q-10 -70 6 -101t54 -31q28 0 50 18t26 44zM25 79h405l-11 -79h-405z" />
    <glyph glyph-name="Euro" unicode="&#x20ac;" horiz-adv-x="670" 
d="M461 153h-10q37 21 62 48l77 -95q-48 -52 -115 -84t-138 -32q-107 0 -177 66t-86 179h-94l13 89h79q2 30 4 45q3 20 5 30h-78l13 89h91q44 115 133 180t201 65q75 0 133 -29.5t90 -81.5l-128 -86q-25 32 -45.5 48t-52.5 16q-93 0 -136 -112h151l-13 -88h-163q7 -7 5 -33
q-4 -29 -5 -43h163l-13 -89h-146q10 -53 38 -78t70 -25q35 0 72 21z" />
    <glyph glyph-name="uni20B9" unicode="&#x20b9;" horiz-adv-x="664" 
d="M558 643q22 -28 28 -68h87l-11 -80h-83q-17 -56 -58 -96t-93 -60q-8 -3 -7 -16l91 -323h-210l-66 308h-217l17 121h220q48 0 77.5 16t42.5 50h-330l11 80h328q-11 62 -98 62h-221l12 86h616l-12 -80h-124z" />
    <glyph glyph-name="uni20BA" unicode="&#x20ba;" horiz-adv-x="693" 
d="M667 262q-61 -119 -161 -190.5t-261 -71.5h-150l30 216l-84 -29l-18 85l116 40l9 66l-101 -35l-19 85l134 46l35 249h194l-26 -179l121 42l20 -84l-154 -53l-9 -67l137 48l18 -85l-169 -58l-20 -146h29q52 2 99.5 41t84.5 111z" />
    <glyph glyph-name="uni2113" unicode="&#x2113;" horiz-adv-x="593" 
d="M268 -10q-103 0 -142.5 43t-49.5 110q-1 6 -4 3l-49 -30l-24 91l92 63l29 208q18 125 88.5 190t174.5 65q93 0 128.5 -48t24.5 -125q-10 -69 -48.5 -125.5t-90 -100.5t-138.5 -107l-4 -31q-5 -38 14 -59.5t56 -21.5t74.5 20.5t72.5 55.5q-1 0 10 9zM278 360
q65 54 102.5 104.5t45.5 103.5q9 67 -43 67q-32 0 -54 -33t-34 -115z" />
    <glyph glyph-name="uni2116" unicode="&#x2116;" horiz-adv-x="1184" 
d="M775 723l-102 -723h-154l-258 464l-65 -464h-170l102 723h170l244 -441l62 441h171zM1158 685.5q40 -47.5 29 -121.5q-10 -73 -63 -119.5t-128 -46.5q-74 0 -113.5 46.5t-29.5 119.5q7 50 34 88t68 59.5t88 21.5q75 0 115 -47.5zM987 639q-17 -24 -23 -73q-7 -49 3 -73
t39 -24q58 0 72 97t-45 97q-29 0 -46 -24z" />
    <glyph glyph-name="uni2117" unicode="&#x2117;" horiz-adv-x="829" 
d="M184 40q-78 50 -116 135t-24 187q14 100 76 185.5t154 135.5t193 50t179.5 -50t116.5 -135.5t24 -185.5q-14 -102 -76 -187t-154.5 -135t-193.5 -50t-179 50zM522 114.5q67 34.5 110.5 98.5t55.5 149q12 84 -13.5 148t-82.5 99.5t-137 35.5q-81 0 -147.5 -35.5
t-109.5 -99.5t-55 -148q-12 -85 13 -149t81.5 -98.5t137.5 -34.5q80 0 147 34.5zM560 332q-43 -33 -108 -33h-86l-18 -130h-106l54 385h180q68 0 106.5 -32t29.5 -96q-9 -61 -52 -94zM495 465q-13 13 -36 13h-68l-14 -104h71q23 0 37.5 13.5t18.5 38.5q4 26 -9 39z" />
    <glyph glyph-name="uni2120" unicode="&#x2120;" horiz-adv-x="1020" 
d="M86.5 9q-41.5 15 -66 46.5t-22.5 76.5l110 1q2 -27 23.5 -42t56.5 -15q36 0 61.5 12t28.5 37q4 21 -14.5 31.5t-55.5 17.5l-73 13q-54 10 -80 43.5t-18 87.5q6 43 34.5 74.5t73 48t95.5 16.5q53 0 92 -19t59.5 -50.5t19.5 -68.5l-109 -2q1 57 -72 57q-35 0 -55 -13
t-23 -32q-2 -18 8.5 -29t42.5 -18l72 -13q78 -15 98.5 -54.5t13.5 -88.5q-5 -37 -34 -67.5t-75 -47.5t-101 -17q-49 0 -90.5 15zM504 452h156l46 -299l132 299h156l-64 -452h-107l48 336l-147 -336h-79l-51 336l-47 -336h-107z" />
    <glyph glyph-name="trademark" unicode="&#x2122;" horiz-adv-x="966" 
d="M25 452h371l-14 -94h-131l-50 -358h-107l50 358h-132zM449 452h156l46 -299l131 299h157l-64 -452h-107l48 336l-147 -336h-79l-51 336l-47 -336h-107z" />
    <glyph glyph-name="estimated" unicode="&#x212e;" horiz-adv-x="829" 
d="M539 33q-85 -43 -176 -43q-101 0 -179 50t-116 135t-24 187q14 100 76 185.5t154 135.5t193 50q99 0 178 -48.5t118 -131t26 -178.5q-1 -7 -4.5 -10t-10.5 -3h-541l-39 -274q71 -52 175 -52q77 0 146 30t121 82h55q-67 -72 -152 -115zM281 641q-10 -6 -11 -18l-31 -215
h355l33 234q-72 44 -167 44q-97 0 -179 -45z" />
    <glyph glyph-name="uni2153" unicode="&#x2153;" horiz-adv-x="964" 
d="M110 613l-81 -20l10 72l142 66h55l-64 -455h-109zM184 -4l-95 2l591 733h94zM650.5 426q60.5 32 143.5 32q76 0 123 -33.5t40 -86.5q-10 -69 -96 -98q39 -10 62.5 -38t17.5 -72q-6 -43 -39 -74.5t-80 -48t-94 -16.5q-93 0 -140 31t-40 110l101 3q5 -32 28.5 -45.5
t54.5 -13.5q37 0 62 15.5t28 38.5q3 24 -15.5 40.5t-50.5 17.5h-62l12 84l55 2q32 1 54.5 17t25.5 38q3 20 -16 33.5t-45 13.5q-38 0 -65 -12t-38 -47l-100 3q13 74 73.5 106z" />
    <glyph glyph-name="uni2154" unicode="&#x2154;" horiz-adv-x="1047" 
d="M15 356l158 122q48 37 70.5 56t32 33t11.5 31q4 25 -11.5 40t-42.5 15q-29 0 -53.5 -16.5t-38.5 -51.5l-99 3q15 69 67.5 110.5t137.5 41.5q79 0 119.5 -38.5t31.5 -102.5q-5 -35 -25.5 -62.5t-71.5 -69.5l-120 -99h190l-13 -89h-354zM267 -4l-95 2l591 733h94z
M733.5 426q60.5 32 143.5 32q76 0 123 -33.5t40 -86.5q-10 -69 -96 -98q39 -10 62.5 -38t17.5 -72q-6 -43 -39 -74.5t-80 -48t-94 -16.5q-93 0 -140 31t-40 110l101 3q5 -32 28.5 -45.5t54.5 -13.5q37 0 62 15.5t28 38.5q3 24 -15.5 40.5t-50.5 17.5h-62l12 84l55 2
q32 1 54.5 17t25.5 38q3 20 -16 33.5t-45 13.5q-38 0 -65 -12t-38 -47l-100 3q13 74 73.5 106z" />
    <glyph glyph-name="oneeighth" unicode="&#x215b;" horiz-adv-x="966" 
d="M110 613l-81 -20l10 72l142 66h55l-64 -455h-109zM184 -4l-95 2l591 733h94zM856 440.5q37 -16.5 54 -45.5t12 -65q-5 -37 -31.5 -58.5t-50.5 -29.5q25 -13 40.5 -24t27 -33.5t6.5 -57.5q-9 -64 -66.5 -100.5t-145.5 -36.5q-83 0 -129 31t-38 86q10 71 98 103
q-2 1 -34 21.5t-23 83.5q5 39 31 71.5t68 51.5t95 19q49 0 86 -16.5zM714.5 364.5q-19.5 -13.5 -22.5 -35.5q-4 -32 31 -42l42 -14q16 -5 35.5 13.5t22.5 40.5t-13 36.5t-49 14.5q-27 0 -46.5 -13.5zM772 82q20 13 23 35q2 17 -6 28.5t-33 19.5l-48 17q-3 1 -9 1
q-18 0 -36.5 -16.5t-21.5 -39.5q-8 -58 79 -58q32 0 52 13z" />
    <glyph glyph-name="threeeighths" unicode="&#x215c;" horiz-adv-x="1064" 
d="M130.5 708q60.5 32 143.5 32q76 0 123 -33.5t39 -86.5q-10 -69 -96 -98q39 -10 63 -38t18 -72q-6 -43 -39 -74.5t-80.5 -48t-94.5 -16.5q-93 0 -139.5 31t-40.5 110l102 3q5 -32 28 -45.5t54 -13.5q37 0 62.5 15.5t28.5 38.5q3 24 -15.5 40.5t-50.5 17.5h-62l12 84l54 2
q32 1 55 17t26 38q3 20 -16.5 33.5t-45.5 13.5q-38 0 -64.5 -12t-38.5 -47l-99 3q13 74 73.5 106zM282 -4l-95 2l591 733h94zM954 440.5q37 -16.5 54 -45.5t12 -65q-5 -37 -31.5 -58.5t-50.5 -29.5q25 -13 40.5 -24t27 -33.5t6.5 -57.5q-9 -64 -66.5 -100.5t-145.5 -36.5
q-83 0 -129 31t-38 86q10 71 98 103q-2 1 -34 21.5t-23 83.5q5 39 31 71.5t68 51.5t95 19q49 0 86 -16.5zM812.5 364.5q-19.5 -13.5 -22.5 -35.5q-4 -32 31 -42l42 -14q16 -5 35.5 13.5t22.5 40.5t-13 36.5t-49 14.5q-27 0 -46.5 -13.5zM870 82q20 13 23 35q2 17 -6 28.5
t-33 19.5l-48 17q-3 1 -9 1q-18 0 -36.5 -16.5t-21.5 -39.5q-8 -58 79 -58q32 0 52 13z" />
    <glyph glyph-name="fiveeighths" unicode="&#x215d;" horiz-adv-x="1066" 
d="M423 731l-17 -87h-214l-21 -92q38 11 55.5 15t40.5 4q73 0 112.5 -39t30.5 -108q-10 -72 -66 -113t-142 -41q-65 0 -113.5 25t-69.5 67l87 54q22 -31 42 -46.5t54 -15.5q38 0 62.5 19t28.5 48q4 28 -13.5 46t-53.5 18q-18 0 -34 -4.5t-41 -15.5q-6 -3 -8 -3t-8 3l-67 40
l53 226h302zM284 -4l-95 2l591 733h94zM956 440.5q37 -16.5 54 -45.5t12 -65q-5 -37 -31.5 -58.5t-50.5 -29.5q25 -13 40.5 -24t27 -33.5t6.5 -57.5q-9 -64 -66.5 -100.5t-145.5 -36.5q-83 0 -129 31t-38 86q10 71 98 103q-2 1 -34 21.5t-23 83.5q5 39 31 71.5t68 51.5
t95 19q49 0 86 -16.5zM814.5 364.5q-19.5 -13.5 -22.5 -35.5q-4 -32 31 -42l42 -14q16 -5 35.5 13.5t22.5 40.5t-13 36.5t-49 14.5q-27 0 -46.5 -13.5zM872 82q20 13 23 35q2 17 -6 28.5t-33 19.5l-48 17q-3 1 -9 1q-18 0 -36.5 -16.5t-21.5 -39.5q-8 -58 79 -58q32 0 52 13
z" />
    <glyph glyph-name="seveneighths" unicode="&#x215e;" horiz-adv-x="1030" 
d="M427 730l-16 -110q-65 -67 -126.5 -168t-71.5 -177h-116q8 41 33 101.5t72 131t113 135.5h-250l13 87h349zM248 -4l-95 2l591 733h94zM920 440.5q37 -16.5 54 -45.5t12 -65q-5 -37 -31.5 -58.5t-50.5 -29.5q25 -13 40.5 -24t27 -33.5t6.5 -57.5q-9 -64 -66.5 -100.5
t-145.5 -36.5q-83 0 -129 31t-38 86q10 71 98 103q-2 1 -34 21.5t-23 83.5q5 39 31 71.5t68 51.5t95 19q49 0 86 -16.5zM778.5 364.5q-19.5 -13.5 -22.5 -35.5q-4 -32 31 -42l42 -14q16 -5 35.5 13.5t22.5 40.5t-13 36.5t-49 14.5q-27 0 -46.5 -13.5zM836 82q20 13 23 35
q2 17 -6 28.5t-33 19.5l-48 17q-3 1 -9 1q-18 0 -36.5 -16.5t-21.5 -39.5q-8 -58 79 -58q32 0 52 13z" />
    <glyph glyph-name="partialdiff" unicode="&#x2202;" horiz-adv-x="602" 
d="M99 665q32 25 90 46.5t127 21.5q91 0 154 -41.5t90 -126t9 -209.5q-24 -170 -109 -268t-223 -98q-78 0 -131 31t-74.5 85.5t-12.5 123.5q9 67 45 121.5t93.5 85.5t128.5 31q45 0 70.5 -11.5t51.5 -34.5q5 -5 11 -5t7 12q6 42 -7 84t-50 69.5t-99 27.5q-43 0 -75 -12
t-64 -32zM250 109q48 0 84.5 42.5t53.5 114.5q2 6 3 14q2 11 -4 21q-11 23 -34 39.5t-53 16.5q-46 0 -80 -38t-42 -97q-7 -53 13 -83t58 -30h1z" />
    <glyph glyph-name="emptyset" unicode="&#x2205;" horiz-adv-x="598" 
d="M516 491q30 -59 20 -127q-9 -63 -48 -117t-97.5 -85.5t-121.5 -31.5q-78 0 -133 48l-79 -65l-46 57l79 65q-31 58 -21 129q9 63 48 116.5t97 85t121 31.5q40 0 75 -13t62 -37l70 57l44 -56zM153 286l256 209q-36 27 -85 27q-43 0 -82 -21.5t-65.5 -58t-32.5 -78.5
q-6 -43 9 -78zM453 438l-254 -208q34 -25 81 -25q43 0 82.5 21.5t66 58t32.5 79.5q6 39 -8 74z" />
    <glyph glyph-name="product" unicode="&#x220f;" horiz-adv-x="711" 
d="M723 584h-87l-82 -584h-174l82 584h-149l-82 -584h-175l82 584h-85l20 139h670z" />
    <glyph glyph-name="summation" unicode="&#x2211;" horiz-adv-x="589" 
d="M-19 0l14 101l241 257l-158 252l16 113h497l-19 -135h-265l144 -211l-227 -234h303l-20 -143h-526z" />
    <glyph glyph-name="minus" unicode="&#x2212;" horiz-adv-x="596" 
d="M537 303h-491l17 122h491z" />
    <glyph glyph-name="uni2219" unicode="&#x2219;" horiz-adv-x="365" 
d="M113.5 307q-21.5 25 -17.5 59q5 35 33 59.5t63 24.5t56 -24.5t16 -59.5q-5 -34 -32.5 -59t-62.5 -25q-34 0 -55.5 25z" />
    <glyph glyph-name="radical" unicode="&#x221a;" horiz-adv-x="705" 
d="M375 -161h-171l-90 398l-84 -30l-21 93l217 74l82 -380l324 832h142z" />
    <glyph glyph-name="infinity" unicode="&#x221e;" horiz-adv-x="812" 
d="M753 273q-8 -58 -38.5 -101t-74.5 -65.5t-94 -22.5q-38 0 -65 13t-45.5 33t-44.5 55q-5 8 -8 8q-4 0 -11 -8q-5 -5 -32 -31.5t-70 -48t-88 -21.5q-47 0 -84 23t-55 65t-10 96q8 55 37.5 97t75.5 65t100 23q38 0 64.5 -11.5t45.5 -30t45 -51.5q7 -9 11 -9q5 0 14 9
q45 44 85.5 68.5t95.5 24.5q49 0 84.5 -22t52.5 -62.5t10 -93.5zM208 186q27 0 56.5 19.5t49.5 43.5q10 11 10 16q1 7 -6 20q-18 34 -39 51.5t-50 17.5q-34 0 -59 -23.5t-30 -59.5q-5 -37 14 -61t52 -24h2zM584 354q-28 0 -53 -17.5t-57 -48.5q-8 -8 -9 -17q-1 -7 5 -18
q40 -67 94 -67q33 0 55.5 25.5t27.5 58.5q5 34 -12 59t-50 25h-1z" />
    <glyph glyph-name="integral" unicode="&#x222b;" horiz-adv-x="477" 
d="M255.5 770q57.5 66 160.5 66q72 0 110 -26l-53 -138q-33 18 -66 18q-29 0 -45.5 -22.5t-24.5 -77.5q-14 -99 -28 -283q-11 -142 -20 -206q-19 -138 -77 -205.5t-160 -67.5q-68 0 -108 25l55 138q28 -17 63 -17q29 0 46 22.5t25 79.5q8 56 14.5 133t11.5 149
q13 162 20 212q19 134 76.5 200z" />
    <glyph glyph-name="approxequal" unicode="&#x2248;" horiz-adv-x="627" 
d="M503.5 384q-45.5 -26 -90.5 -26q-28 0 -48 8.5t-51 26.5q-24 15 -41.5 23t-39.5 8q-34 0 -61.5 -19t-67.5 -59l-37 83q54 50 95 74.5t87 24.5q30 0 51.5 -9t50.5 -27q24 -15 39.5 -22t34.5 -7q33 0 64.5 21.5t55.5 56.5l39 -82q-35 -49 -80.5 -75zM473 169
q-45 -26 -90 -26q-28 0 -49.5 9t-49.5 26q-28 16 -44.5 23t-37.5 7q-34 0 -62 -19.5t-66 -57.5l-37 83q55 50 95.5 74.5t86.5 24.5q30 0 51 -9t51 -27q24 -15 39.5 -22t34.5 -7q33 0 64.5 21t55.5 56l38 -81q-35 -49 -80 -75z" />
    <glyph glyph-name="notequal" unicode="&#x2260;" horiz-adv-x="603" 
d="M370 397l-64 -109h240l-17 -122l-293 -1l-82 -143h-82l83 143h-117l17 123h171l64 109h-219l17 123h272l80 138h79l-79 -138h139l-17 -123h-192z" />
    <glyph glyph-name="lessequal" unicode="&#x2264;" horiz-adv-x="597" 
d="M505 189l-452 186l19 138l504 185l-20 -143l-311 -112l280 -110zM491 19l-490 1l17 121h490z" />
    <glyph glyph-name="greaterequal" unicode="&#x2265;" horiz-adv-x="597" 
d="M375 443l-280 112l20 143l453 -185l-19 -138l-505 -186l20 144zM518 141l-17 -121l-490 -1l17 122h490z" />
    <glyph glyph-name="lozenge" unicode="&#x25ca;" horiz-adv-x="580" 
d="M197 0l-131 362l238 361h108l132 -359l-239 -364h-108zM193 364l79 -246l147 244l-79 240z" />
    <glyph glyph-name="i.loclTRK" horiz-adv-x="293" 
d="M186 0h-171l73 517h171zM271 571h-172l22 152h172z" />
    <glyph glyph-name="p.001" horiz-adv-x="622" 
d="M90 517h171l-9 -63q38 35 75.5 54t88.5 19q88 0 132.5 -67.5t26.5 -198.5q-19 -137 -84.5 -204t-157.5 -67q-39 0 -71 14t-67 53l-31 -218h-170zM402 264q12 83 -8 116.5t-62 33.5q-41 0 -68 -29t-36 -90l-11 -78q-4 -115 67 -115q95 0 118 162z" />
    <glyph glyph-name="q.001" horiz-adv-x="614" 
d="M312 -161l31 218q-46 -39 -82 -53t-75 -14q-91 0 -138 67t-27 204q18 131 81.5 198.5t150.5 67.5q51 0 83.5 -19t61.5 -54l9 63h172l-96 -678h-171zM365 217l11 78q9 61 -10 90t-60 29q-42 0 -71.5 -33.5t-41.5 -116.5q-23 -162 73 -162q72 0 99 115z" />
    <glyph glyph-name="l.ss01" horiz-adv-x="307" 
d="M125 743h171l-104 -743h-171z" />
    <glyph glyph-name="zero.osf" horiz-adv-x="671" 
d="M545 690q62 -44 88 -128.5t10 -201.5t-65 -199.5t-123.5 -125.5t-165.5 -43q-92 0 -154 43t-88 125.5t-9 199.5q16 117 66 201.5t124.5 128.5t164.5 44t152 -44zM402.5 180q34.5 54 51.5 179q18 129 -2 185.5t-79 56.5t-94.5 -57t-53.5 -185q-17 -124 3 -178.5t79 -54.5
q61 0 95.5 54z" />
    <glyph glyph-name="one.osf" horiz-adv-x="412" 
d="M176 536l-128 -32l16 114l224 105h87l-102 -723h-172z" />
    <glyph glyph-name="two.osf" horiz-adv-x="630" 
d="M5 123l251 193q76 58 111.5 89t50 53t18.5 49q6 40 -18.5 63.5t-67.5 23.5q-46 0 -84.5 -25.5t-60.5 -81.5l-158 5q22 109 106 175t221 66q83 0 140.5 -27.5t83.5 -78.5t17 -118q-8 -56 -41 -99t-115 -111l-191 -158h302l-20 -141h-562z" />
    <glyph glyph-name="three.osf" horiz-adv-x="651" 
d="M172.5 682.5q95.5 51.5 227.5 51.5q79 0 140.5 -24t93.5 -67.5t24 -99.5t-46 -94t-107 -61q61 -16 100 -61t30 -114q-10 -69 -62.5 -119.5t-127.5 -76.5t-150 -26q-148 0 -222 49.5t-65 175.5l161 4q7 -51 44.5 -72.5t87.5 -21.5q59 0 99 25t45 61q5 39 -25 65t-80 27
l-98 1l18 133l86 4q52 2 87.5 26.5t40.5 60.5q4 32 -25.5 53.5t-71.5 21.5q-61 0 -103.5 -19t-60.5 -76l-158 5q22 117 117.5 168.5z" />
    <glyph glyph-name="four.osf" horiz-adv-x="634" 
d="M568 723l-61 -429h106l-20 -145h-106l-21 -149h-171l22 149h-321l20 140l383 434h169zM338 294l28 195l-173 -195h145z" />
    <glyph glyph-name="five.osf" horiz-adv-x="671" 
d="M645 723l-28 -138h-341l-33 -147q59 18 87.5 24.5t65.5 6.5q76 0 131 -27.5t80.5 -80t15.5 -125.5q-11 -76 -54.5 -131.5t-114.5 -85t-160 -29.5q-103 0 -181 40t-111 106l139 87q34 -51 65.5 -75t85.5 -24q60 0 99.5 30t45.5 76q6 45 -21.5 74t-84.5 29
q-27 0 -52.5 -7.5t-65.5 -25.5q-9 -4 -13 -4q-3 0 -13 5l-107 63l84 359h481z" />
    <glyph glyph-name="six.osf" horiz-adv-x="657" 
d="M531.5 709q56.5 -25 86 -72.5t23.5 -110.5l-154 -5q-8 41 -31.5 61t-66.5 20q-60 0 -102 -47t-52 -122q-4 -25 -3 -38q30 26 72.5 39.5t89.5 13.5q74 0 126 -27.5t75.5 -76.5t15.5 -111q-10 -68 -54.5 -122.5t-114 -85t-150.5 -30.5q-95 0 -158 43.5t-89 123t-11 186.5
q17 120 67.5 207t128 133t173.5 46q72 0 128.5 -25zM280 313q-28 -11 -46.5 -27.5t-20.5 -32.5q-6 -66 18 -99.5t73 -33.5q46 0 83 30t44 75q7 47 -22 73t-74 26q-27 0 -55 -11z" />
    <glyph glyph-name="seven.osf" horiz-adv-x="592" 
d="M633 723l-25 -174q-65 -66 -134 -163.5t-120 -201t-62 -184.5h-184q12 65 52.5 161t115.5 208.5t179 215.5h-396l20 138h554z" />
    <glyph glyph-name="eight.osf" horiz-adv-x="645" 
d="M512.5 706.5q58.5 -26.5 86.5 -72.5t20 -103q-8 -58 -50 -92t-81 -48q40 -21 64 -38t42.5 -53t10.5 -91q-10 -68 -54.5 -117.5t-117.5 -75.5t-166 -26q-132 0 -204 49.5t-60 137.5q16 111 155 164q-2 2 -53 33.5t-37 132.5q9 62 49.5 113.5t107.5 82t151 30.5
q78 0 136.5 -26.5zM288 586.5q-31 -21.5 -36 -56.5q-3 -24 9.5 -41.5t40.5 -26.5l67 -22q3 -1 10 -1q25 0 51.5 28.5t30.5 58.5q5 35 -21.5 58.5t-78.5 23.5q-42 0 -73 -21.5zM379 136.5q32 20.5 37 56.5q4 26 -9.5 44.5t-51.5 31.5l-78 26q-5 2 -14 2q-18 0 -39 -12
t-35.5 -32.5t-18.5 -44.5q-13 -92 126 -92q51 0 83 20.5z" />
    <glyph glyph-name="nine.osf" horiz-adv-x="657" 
d="M134 18q-57 26 -87 73.5t-25 108.5l160 4q4 -37 26.5 -58.5t63.5 -21.5q69 0 117 43.5t61 136.5q3 22 4 34q-28 -33 -71.5 -51t-100.5 -18q-74 0 -129 28.5t-81 79t-17 116.5q10 69 54.5 123t114 84.5t150.5 30.5q95 0 158.5 -43t89 -123t10.5 -187
q-27 -195 -123.5 -290.5t-246.5 -95.5q-71 0 -128 26zM385.5 413q28.5 11 47 27.5t20.5 31.5q6 67 -18 101t-73 34q-45 0 -79 -30t-41 -76q-6 -45 20 -72t69 -27q26 0 54.5 11z" />
    <glyph glyph-name="zero.tf" horiz-adv-x="694" 
d="M557 690q62 -44 88 -128.5t10 -201.5t-65 -199.5t-123.5 -125.5t-165.5 -43q-92 0 -154 43t-88 125.5t-9 199.5q16 117 66 201.5t124.5 128.5t164.5 44t152 -44zM414.5 180q34.5 54 51.5 179q18 129 -2 185.5t-79 56.5t-94.5 -57t-53.5 -185q-17 -124 3 -178.5t79 -54.5
q61 0 95.5 54z" />
    <glyph glyph-name="one.tf" horiz-adv-x="695" 
d="M590 158l-22 -158h-528l22 158h186l54 383l-191 -48l21 146l297 84h80l-80 -565h161z" />
    <glyph glyph-name="two.tf" horiz-adv-x="694" 
d="M44 123l251 193q76 58 111.5 89t50 53t18.5 49q6 40 -18.5 63.5t-67.5 23.5q-46 0 -84.5 -25.5t-60.5 -81.5l-158 5q22 109 106 175t221 66q83 0 140.5 -27.5t83.5 -78.5t17 -118q-8 -56 -41 -99t-115 -111l-191 -158h302l-20 -141h-562z" />
    <glyph glyph-name="three.tf" horiz-adv-x="694" 
d="M192.5 681.5q95.5 51.5 227.5 51.5q79 0 140.5 -24t93.5 -67.5t24 -99.5t-46 -94t-107 -61q61 -16 100 -61t30 -114q-10 -69 -62.5 -119.5t-127.5 -76.5t-150 -26q-148 0 -222 49.5t-65 175.5l161 4q7 -51 44.5 -72.5t87.5 -21.5q59 0 99 25t45 61q5 39 -25 65t-80 27
l-98 1l18 133l86 4q52 2 87.5 26.5t40.5 60.5q4 32 -25.5 53.5t-71.5 21.5q-61 0 -103.5 -19t-60.5 -76l-158 5q22 117 117.5 168.5z" />
    <glyph glyph-name="four.tf" horiz-adv-x="694" 
d="M604 723l-61 -429h106l-20 -145h-106l-21 -149h-171l22 149h-321l20 140l383 434h169zM374 294l28 195l-173 -195h145z" />
    <glyph glyph-name="five.tf" horiz-adv-x="694" 
d="M664 723l-28 -138h-341l-33 -147q59 18 87.5 24.5t65.5 6.5q76 0 131 -27.5t80.5 -80t15.5 -125.5q-11 -76 -54.5 -131.5t-114.5 -85t-160 -29.5q-103 0 -181 40t-111 106l139 87q34 -51 65.5 -75t85.5 -24q60 0 99.5 30t45.5 76q6 45 -21.5 74t-84.5 29
q-27 0 -52.5 -7.5t-65.5 -25.5q-9 -4 -13 -4q-3 0 -13 5l-107 63l84 359h481z" />
    <glyph glyph-name="six.tf" horiz-adv-x="694" 
d="M554.5 709q56.5 -25 86 -72.5t23.5 -110.5l-154 -5q-8 41 -31.5 61t-66.5 20q-60 0 -102 -47t-52 -122q-4 -25 -3 -38q30 26 72.5 39.5t89.5 13.5q74 0 126 -27.5t75.5 -76.5t15.5 -111q-10 -68 -54.5 -122.5t-114 -85t-150.5 -30.5q-95 0 -158 43.5t-89 123t-11 186.5
q17 120 67.5 207t128 133t173.5 46q72 0 128.5 -25zM303 313q-28 -11 -46.5 -27.5t-20.5 -32.5q-6 -66 18 -99.5t73 -33.5q46 0 83 30t44 75q7 47 -22 73t-74 26q-27 0 -55 -11z" />
    <glyph glyph-name="seven.tf" horiz-adv-x="695" 
d="M680 723l-25 -174q-65 -66 -134 -163.5t-120 -201t-62 -184.5h-197q12 64 52.5 156t113.5 200.5t178 212.5h-400l22 154h572z" />
    <glyph glyph-name="eight.tf" horiz-adv-x="694" 
d="M542.5 706.5q58.5 -26.5 86.5 -72.5t20 -103q-8 -58 -50 -92t-81 -48q40 -21 64 -38t42.5 -53t10.5 -91q-10 -68 -54.5 -117.5t-117.5 -75.5t-166 -26q-132 0 -204 49.5t-60 137.5q16 111 155 164q-2 2 -53 33.5t-37 132.5q9 62 49.5 113.5t107.5 82t151 30.5
q78 0 136.5 -26.5zM318 586.5q-31 -21.5 -36 -56.5q-3 -24 9.5 -41.5t40.5 -26.5l67 -22q3 -1 10 -1q25 0 51.5 28.5t30.5 58.5q5 35 -21.5 58.5t-78.5 23.5q-42 0 -73 -21.5zM409 136.5q32 20.5 37 56.5q4 26 -9.5 44.5t-51.5 31.5l-78 26q-5 2 -14 2q-18 0 -39 -12
t-35.5 -32.5t-18.5 -44.5q-13 -92 126 -92q51 0 83 20.5z" />
    <glyph glyph-name="nine.tf" horiz-adv-x="694" 
d="M154 18q-57 26 -87 73.5t-25 108.5l160 4q4 -37 26.5 -58.5t63.5 -21.5q69 0 117 43.5t61 136.5q3 22 4 34q-28 -33 -71.5 -51t-100.5 -18q-74 0 -129 28.5t-81 79t-17 116.5q10 69 54.5 123t114 84.5t150.5 30.5q95 0 158.5 -43t89 -123t10.5 -187
q-27 -195 -123.5 -290.5t-246.5 -95.5q-71 0 -128 26zM405.5 413q28.5 11 47 27.5t20.5 31.5q6 67 -18 101t-73 34q-45 0 -79 -30t-41 -76q-6 -45 20 -72t69 -27q26 0 54.5 11z" />
    <glyph glyph-name="zero.subs" horiz-adv-x="420" 
d="M320.5 229.5q43.5 -62.5 27.5 -173.5q-15 -110 -74.5 -170.5t-147.5 -60.5t-130.5 60.5t-27.5 170.5q16 111 76.5 173.5t146.5 62.5t129.5 -62.5zM197 -57q22 34 33 113q11 81 -1.5 116.5t-49.5 35.5t-59.5 -35.5t-33.5 -116.5q-11 -78 1.5 -112.5t49.5 -34.5q38 0 60 34
z" />
    <glyph glyph-name="one.subs" horiz-adv-x="306" 
d="M49 172l-81 -20l10 72l141 66h55l-64 -455h-109z" />
    <glyph glyph-name="two.subs" horiz-adv-x="389" 
d="M-47 -88l158 122q48 36 70 55.5t31.5 33.5t11.5 31q4 25 -11.5 40t-42.5 15q-29 0 -53 -16t-38 -52l-100 3q14 69 67 110.5t139 41.5q52 0 88.5 -17.5t52.5 -49.5t11 -74q-5 -35 -26 -62t-72 -70l-121 -99h190l-12 -89h-354z" />
    <glyph glyph-name="three.subs" horiz-adv-x="404" 
d="M67.5 261q60.5 32 143.5 32q76 0 123 -33.5t40 -86.5q-10 -69 -96 -98q39 -10 62.5 -38t17.5 -72q-6 -43 -39 -74.5t-80 -48t-94 -16.5q-93 0 -140 31t-40 110l101 3q5 -32 28.5 -45.5t54.5 -13.5q37 0 62 15.5t28 38.5q3 24 -15.5 40.5t-50.5 17.5h-62l12 84l55 2
q32 1 54.5 17t25.5 38q3 20 -16 33.5t-45 13.5q-38 0 -65 -12t-38 -47l-100 3q13 74 73.5 106z" />
    <glyph glyph-name="four.subs" horiz-adv-x="420" 
d="M311 290l-38 -270h66l-12 -91h-67l-13 -94h-108l14 94h-202l13 88l241 273h106zM167 20l17 123l-109 -123h92z" />
    <glyph glyph-name="five.subs" horiz-adv-x="406" 
d="M361 287l-18 -87h-214l-21 -92q38 11 56 15t41 4q73 0 112.5 -39t29.5 -108q-10 -72 -65.5 -113t-141.5 -41q-65 0 -113.5 25t-69.5 67l87 54q22 -31 42 -46.5t54 -15.5q38 0 62.5 19t28.5 48q4 28 -13.5 46t-53.5 18q-18 0 -34 -4.5t-41 -15.5q-6 -3 -8 -3t-8 3l-67 40
l53 226h302z" />
    <glyph glyph-name="six.subs" horiz-adv-x="408" 
d="M309.5 256.5q42.5 -35.5 37.5 -95.5l-98 -3q-5 26 -19.5 38.5t-41.5 12.5q-38 0 -64.5 -30t-32.5 -77q-1 -8 -2 -24q18 17 45 25.5t57 8.5q70 0 107 -38t29 -97q-6 -43 -34 -77.5t-71.5 -53.5t-94.5 -19q-90 0 -133.5 60t-29.5 162q16 113 78.5 178t154.5 65
q70 0 112.5 -35.5zM103.5 19q-24.5 -15 -26.5 -30q-4 -41 11.5 -62.5t45.5 -21.5q29 0 52.5 19t27.5 48q4 30 -14 46t-46 16q-26 0 -50.5 -15z" />
    <glyph glyph-name="seven.subs" horiz-adv-x="370" 
d="M365 290l-16 -110q-41 -41 -84 -102.5t-75 -126.5t-39 -116h-116q7 41 32.5 101.5t73 131t112.5 135.5h-249l13 87h348z" />
    <glyph glyph-name="eight.subs" horiz-adv-x="406" 
d="M273 276.5q37 -16.5 54 -45.5t12 -65q-5 -37 -31.5 -58.5t-50.5 -29.5q25 -13 40.5 -24t27 -33.5t6.5 -57.5q-9 -64 -66.5 -100.5t-145.5 -36.5q-83 0 -129 31t-38 86q10 71 98 103q-2 1 -34 21.5t-23 83.5q5 39 31 71.5t68 51.5t95 19q49 0 86 -16.5zM131.5 200.5
q-19.5 -13.5 -22.5 -35.5q-4 -32 31 -42l42 -14q16 -5 35.5 13.5t22.5 40.5t-13 36.5t-49 14.5q-27 0 -46.5 -13.5zM189 -82q20 13 23 35q2 17 -6 28.5t-33 19.5l-48 17q-3 1 -9 1q-18 0 -36.5 -16.5t-21.5 -39.5q-8 -58 79 -58q32 0 52 13z" />
    <glyph glyph-name="nine.subs" horiz-adv-x="408" 
d="M0 -138.5q-44 36.5 -39 94.5l100 2q3 -23 17 -36.5t40 -13.5q44 0 74 27.5t38 85.5q2 14 2 22q-36 -44 -108 -44q-71 0 -111 39t-31 102q6 43 34 77.5t71.5 53.5t94.5 19q91 0 134 -60t29 -162q-17 -123 -78 -183t-155 -60q-68 0 -112 36.5zM205.5 97.5
q24.5 14.5 26.5 29.5q5 42 -10.5 63.5t-46.5 21.5q-28 0 -49.5 -19t-25.5 -48q-4 -28 12.5 -45t43.5 -17q25 0 49.5 14.5z" />
    <glyph glyph-name="zero.dnom" horiz-adv-x="420" 
d="M343.5 394.5q43.5 -62.5 27.5 -173.5q-15 -110 -74.5 -170.5t-147.5 -60.5t-130.5 60.5t-27.5 170.5q16 111 76.5 173.5t146.5 62.5t129.5 -62.5zM220 108q22 34 33 113q11 81 -1.5 116.5t-49.5 35.5t-59.5 -35.5t-33.5 -116.5q-11 -78 1.5 -112.5t49.5 -34.5q38 0 60 34
z" />
    <glyph glyph-name="one.dnom" horiz-adv-x="306" 
d="M72 337l-81 -20l10 72l141 66h55l-64 -455h-109z" />
    <glyph glyph-name="two.dnom" horiz-adv-x="389" 
d="M-24 77l158 122q48 36 70 55.5t31.5 33.5t11.5 31q4 25 -11.5 40t-42.5 15q-29 0 -53 -16t-38 -52l-100 3q14 69 67 110.5t139 41.5q52 0 88.5 -17.5t52.5 -49.5t11 -74q-5 -35 -26 -62t-72 -70l-121 -99h190l-12 -89h-354z" />
    <glyph glyph-name="three.dnom" horiz-adv-x="403" 
d="M90.5 426q60.5 32 143.5 32q76 0 123 -33.5t40 -86.5q-10 -69 -96 -98q39 -10 62.5 -38t17.5 -72q-6 -43 -39 -74.5t-80 -48t-94 -16.5q-93 0 -140 31t-40 110l101 3q5 -32 28.5 -45.5t54.5 -13.5q37 0 62 15.5t28 38.5q3 24 -15.5 40.5t-50.5 17.5h-62l12 84l55 2
q32 1 54.5 17t25.5 38q3 20 -16 33.5t-45 13.5q-38 0 -65 -12t-38 -47l-100 3q13 74 73.5 106z" />
    <glyph glyph-name="four.dnom" horiz-adv-x="420" 
d="M334 455l-38 -270h66l-12 -91h-67l-13 -94h-108l14 94h-202l13 88l241 273h106zM190 185l17 123l-109 -123h92z" />
    <glyph glyph-name="five.dnom" horiz-adv-x="406" 
d="M384 452l-18 -87h-214l-21 -92q38 11 56 15t41 4q73 0 112.5 -39t29.5 -108q-10 -72 -65.5 -113t-141.5 -41q-65 0 -113.5 25t-69.5 67l87 54q22 -31 42 -46.5t54 -15.5q38 0 62.5 19t28.5 48q4 28 -13.5 46t-53.5 18q-18 0 -34 -4.5t-41 -15.5q-6 -3 -8 -3t-8 3l-67 40
l53 226h302z" />
    <glyph glyph-name="six.dnom" horiz-adv-x="408" 
d="M332.5 421.5q42.5 -35.5 37.5 -95.5l-98 -3q-5 26 -19.5 38.5t-41.5 12.5q-38 0 -64.5 -30t-32.5 -77q-1 -8 -2 -24q18 17 45 25.5t57 8.5q70 0 107 -38t29 -97q-6 -43 -34 -77.5t-71.5 -53.5t-94.5 -19q-90 0 -133.5 60t-29.5 162q16 113 78.5 178t154.5 65
q70 0 112.5 -35.5zM126.5 184q-24.5 -15 -26.5 -30q-4 -41 11.5 -62.5t45.5 -21.5q29 0 52.5 19t27.5 48q4 30 -14 46t-46 16q-26 0 -50.5 -15z" />
    <glyph glyph-name="seven.dnom" horiz-adv-x="370" 
d="M388 455l-16 -110q-41 -41 -84 -102.5t-75 -126.5t-39 -116h-116q7 41 32.5 101.5t73 131t112.5 135.5h-249l13 87h348z" />
    <glyph glyph-name="eight.dnom" horiz-adv-x="406" 
d="M296 440.5q37 -16.5 54 -45.5t12 -65q-5 -37 -31.5 -58.5t-50.5 -29.5q25 -13 40.5 -24t27 -33.5t6.5 -57.5q-9 -64 -66.5 -100.5t-145.5 -36.5q-83 0 -129 31t-38 86q10 71 98 103q-2 1 -34 21.5t-23 83.5q5 39 31 71.5t68 51.5t95 19q49 0 86 -16.5zM154.5 364.5
q-19.5 -13.5 -22.5 -35.5q-4 -32 31 -42l42 -14q16 -5 35.5 13.5t22.5 40.5t-13 36.5t-49 14.5q-27 0 -46.5 -13.5zM212 82q20 13 23 35q2 17 -6 28.5t-33 19.5l-48 17q-3 1 -9 1q-18 0 -36.5 -16.5t-21.5 -39.5q-8 -58 79 -58q32 0 52 13z" />
    <glyph glyph-name="nine.dnom" horiz-adv-x="408" 
d="M23 26.5q-44 36.5 -39 94.5l100 2q3 -23 17 -36.5t40 -13.5q44 0 74 27.5t38 85.5q2 14 2 22q-36 -44 -108 -44q-71 0 -111 39t-31 102q6 43 34 77.5t71.5 53.5t94.5 19q91 0 134 -60t29 -162q-17 -123 -78 -183t-155 -60q-68 0 -112 36.5zM228.5 262.5
q24.5 14.5 26.5 29.5q5 42 -10.5 63.5t-46.5 21.5q-28 0 -49.5 -19t-25.5 -48q-4 -28 12.5 -45t43.5 -17q25 0 49.5 14.5z" />
    <glyph glyph-name="zero.numr" horiz-adv-x="420" 
d="M383.5 678.5q43.5 -62.5 27.5 -173.5q-15 -110 -74.5 -170.5t-147.5 -60.5t-130.5 60.5t-27.5 170.5q16 111 76.5 173.5t146.5 62.5t129.5 -62.5zM260 392q22 34 33 113q11 81 -1.5 116.5t-49.5 35.5t-59.5 -35.5t-33.5 -116.5q-11 -78 1.5 -112.5t49.5 -34.5q38 0 60 34
z" />
    <glyph glyph-name="one.numr" horiz-adv-x="308" 
d="M110 613l-81 -20l10 72l142 66h55l-64 -455h-109z" />
    <glyph glyph-name="two.numr" horiz-adv-x="389" 
d="M15 356l158 122q48 37 70.5 56t32 33t11.5 31q4 25 -11.5 40t-42.5 15q-29 0 -53.5 -16.5t-38.5 -51.5l-99 3q15 69 67.5 110.5t137.5 41.5q79 0 119.5 -38.5t31.5 -102.5q-5 -35 -25.5 -62.5t-71.5 -69.5l-120 -99h190l-13 -89h-354z" />
    <glyph glyph-name="three.numr" horiz-adv-x="403" 
d="M130.5 708q60.5 32 143.5 32q76 0 123 -33.5t39 -86.5q-10 -69 -96 -98q39 -10 63 -38t18 -72q-6 -43 -39 -74.5t-80.5 -48t-94.5 -16.5q-93 0 -139.5 31t-40.5 110l102 3q5 -32 28 -45.5t54 -13.5q37 0 62.5 15.5t28.5 38.5q3 24 -15.5 40.5t-50.5 17.5h-62l12 84l54 2
q32 1 55 17t26 38q3 20 -16.5 33.5t-45.5 13.5q-38 0 -64.5 -12t-38.5 -47l-99 3q13 74 73.5 106z" />
    <glyph glyph-name="four.numr" horiz-adv-x="420" 
d="M373 731l-38 -270h67l-13 -91h-67l-13 -94h-108l14 94h-202l12 88l242 273h106zM229 461l17 123l-108 -123h91z" />
    <glyph glyph-name="five.numr" horiz-adv-x="406" 
d="M423 731l-17 -87h-214l-21 -92q38 11 55.5 15t40.5 4q73 0 112.5 -39t30.5 -108q-10 -72 -66 -113t-142 -41q-65 0 -113.5 25t-69.5 67l87 54q22 -31 42 -46.5t54 -15.5q38 0 62.5 19t28.5 48q4 28 -13.5 46t-53.5 18q-18 0 -34 -4.5t-41 -15.5q-6 -3 -8 -3t-8 3l-67 40
l53 226h302z" />
    <glyph glyph-name="six.numr" horiz-adv-x="408" 
d="M372.5 706.5q42.5 -35.5 37.5 -95.5l-98 -3q-5 26 -19.5 38.5t-41.5 12.5q-38 0 -64.5 -30t-32.5 -77q-1 -8 -2 -24q18 17 45 25.5t57 8.5q70 0 107 -38t29 -97q-6 -43 -34 -77.5t-71.5 -53.5t-94.5 -19q-90 0 -133.5 60t-29.5 162q16 113 78.5 178t154.5 65
q70 0 112.5 -35.5zM166.5 469q-24.5 -15 -26.5 -30q-4 -41 11.5 -62.5t45.5 -21.5q29 0 52.5 19t27.5 48q4 30 -14 46t-46 16q-26 0 -50.5 -15z" />
    <glyph glyph-name="seven.numr" horiz-adv-x="370" 
d="M427 730l-16 -110q-65 -67 -126.5 -168t-71.5 -177h-116q8 41 33 101.5t72 131t113 135.5h-250l13 87h349z" />
    <glyph glyph-name="eight.numr" horiz-adv-x="406" 
d="M335.5 723.5q36.5 -16.5 54 -45.5t12.5 -65q-5 -37 -31.5 -58.5t-50.5 -29.5q25 -13 40.5 -24t27 -33.5t6.5 -57.5q-9 -64 -67 -100.5t-146 -36.5q-83 0 -128.5 31t-37.5 86q10 71 97 103q-2 1 -33.5 21.5t-22.5 83.5q5 39 31 71.5t68 51.5t95 19q49 0 85.5 -16.5z
M194.5 647.5q-19.5 -13.5 -22.5 -35.5q-4 -32 31 -42l42 -14q16 -5 35.5 13.5t22.5 40.5t-13 36.5t-49 14.5q-27 0 -46.5 -13.5zM251.5 365q20.5 13 23.5 35q2 17 -6 28.5t-33 19.5l-49 17q-3 1 -9 1q-18 0 -36 -16.5t-21 -39.5q-8 -58 78 -58q32 0 52.5 13z" />
    <glyph glyph-name="nine.numr" horiz-adv-x="408" 
d="M63 311.5q-44 36.5 -39 94.5l100 2q3 -23 17 -36.5t40 -13.5q44 0 74 27.5t38 85.5q2 14 2 22q-36 -44 -108 -44q-71 0 -111 39t-31 102q6 43 34 77.5t71.5 53.5t94.5 19q91 0 134 -60t29 -162q-17 -123 -78 -183t-155 -60q-68 0 -112 36.5zM268.5 547.5
q24.5 14.5 26.5 29.5q5 42 -10.5 63.5t-46.5 21.5q-28 0 -49.5 -19t-25.5 -48q-4 -28 12.5 -45t43.5 -17q25 0 49.5 14.5z" />
    <glyph glyph-name="comma.tf" horiz-adv-x="298" 
d="M83 -5l-54 6l22 155h163l-19 -137l-132 -165h-59z" />
    <glyph glyph-name="period.tf" horiz-adv-x="298" 
d="M206 0h-183l25 177h183z" />
    <glyph glyph-name="bullet.uc" horiz-adv-x="364" 
d="M95.5 248.5q-28.5 18.5 -42.5 50.5t-9 69t28 68.5t57 50.5t71 19t66.5 -19t43.5 -50.5t9 -68.5t-28 -69t-58 -50.5t-72 -18.5t-65.5 18.5z" />
    <glyph glyph-name="caroncomb.alt" horiz-adv-x="0" 
d="M-126.5 498q-1.5 4 0.5 10l41 74q4 8 4 11q1 7 -8 8l-10 2q-9 1 -12 4t-2 10l13 92q1 7 5 10.5t9 3.5h87q12 0 10 -11l-15 -109q-1 -6 -5 -9l-48 -86q-4 -8 -10.5 -11t-19.5 -3h-32q-6 0 -7.5 4z" />
    </font>
</defs>
</svg>
