<?xml version="1.0" standalone="no"?>
<!DOCTYPE svg PUBLIC "-//W3C//DTD SVG 1.1//EN" "http://www.w3.org/Graphics/SVG/1.1/DTD/svg11.dtd" >
<svg xmlns="http://www.w3.org/2000/svg" xmlns:xlink="http://www.w3.org/1999/xlink" version="1.1">
<metadata>
Created by FontForge 20170731 at Mon Dec 10 21:01:00 2018
 By Aleksey,,,
</metadata>
<defs>
<font id="CheyenneSans-BlackItalic" horiz-adv-x="772" >
  <font-face 
    font-family="Cheyenne Sans Black"
    font-weight="900"
    font-style="italic"
    font-stretch="normal"
    units-per-em="1000"
    panose-1="0 0 10 0 0 0 0 0 0 0"
    ascent="800"
    descent="-200"
    x-height="517"
    cap-height="723"
    bbox="-430 -240 1453 991"
    underline-thickness="50"
    underline-position="-250"
    slope="-8"
    unicode-range="U+000D-FB02"
  />
<missing-glyph horiz-adv-x="627" 
d="M625.5 820.5q4.5 -5.5 2.5 -15.5l-132 -938q-2 -15 -11 -21.5t-26 -6.5h-436q-15 0 -20 5.5t-3 18.5l132 940q2 11 7.5 17t14.5 6h459q8 0 12.5 -5.5zM568.5 772.5q-3.5 4.5 -10.5 4.5h-343l241 -834l115 817q1 8 -2.5 12.5zM60 -107q4 -5 16 -5h336l-241 828l-114 -808
q-1 -10 3 -15z" />
    <glyph glyph-name="fi" unicode="fi" horiz-adv-x="721" 
d="M396 385h-94l-77 -546h-195l77 546h-83l19 132h83l9 69q9 64 56.5 100.5t118.5 36.5h138l-17 -126h-60q-24 0 -35 -11t-15 -39l-4 -30h98zM700 579h-195l23 164h195zM619 0h-195l73 517h195z" />
    <glyph glyph-name="fl" unicode="fl" horiz-adv-x="761" 
d="M396 385h-94l-77 -546h-195l77 546h-83l19 132h83l9 69q9 64 56.5 100.5t118.5 36.5h138l-17 -126h-60q-24 0 -35 -11t-15 -39l-4 -30h98zM490.5 13q-39.5 24 -45.5 58.5t1 84.5l82 587h191l-78 -561q-3 -23 6 -37.5t44 -19.5l20 -2l-16 -118q-43 -16 -76 -16
q-89 0 -128.5 24z" />
    <glyph glyph-name=".notdef" horiz-adv-x="627" 
d="M625.5 820.5q4.5 -5.5 2.5 -15.5l-132 -938q-2 -15 -11 -21.5t-26 -6.5h-436q-15 0 -20 5.5t-3 18.5l132 940q2 11 7.5 17t14.5 6h459q8 0 12.5 -5.5zM568.5 772.5q-3.5 4.5 -10.5 4.5h-343l241 -834l115 817q1 8 -2.5 12.5zM60 -107q4 -5 16 -5h336l-241 828l-114 -808
q-1 -10 3 -15z" />
    <glyph glyph-name="uni0000" horiz-adv-x="18" 
 />
    <glyph glyph-name="uni0000" horiz-adv-x="18" 
 />
    <glyph glyph-name="nonmarkingreturn" unicode="&#xd;" horiz-adv-x="238" 
 />
    <glyph glyph-name="space" unicode=" " horiz-adv-x="255" 
 />
    <glyph glyph-name="exclam" unicode="!" horiz-adv-x="299" 
d="M194 259h-119l11 464h225zM199 0h-205l27 192h205z" />
    <glyph glyph-name="quotedbl" unicode="&#x22;" horiz-adv-x="526" 
d="M462 401h-91v322h183zM206 401h-91v322h183z" />
    <glyph glyph-name="numbersign" unicode="#" horiz-adv-x="617" 
d="M483 421l-31 -111h107l-14 -94h-120l-62 -219l-94 12l59 207h-122l-62 -219l-93 12l59 207h-111l14 94h125l31 111h-109l13 94h123l61 210l92 -9l-58 -201h123l61 210l93 -9l-58 -201h109l-13 -94h-123zM387 421h-123l-31 -111h123z" />
    <glyph glyph-name="dollar" unicode="$" horiz-adv-x="693" 
d="M549 74q-69 -62 -175 -75q-13 -1 -17 -5t-6 -15l-7 -50h-122l10 68q-77 7 -136.5 31.5t-111.5 68.5l123 120q63 -67 145 -86l22 149q-123 17 -170 77t-35 145q11 78 73 134.5t170 79.5q9 2 17 7t9 13l7 46h119l-9 -60q118 -37 183 -81l-108 -122q-32 37 -83 59q-2 1 -5 1
q-8 0 -9 -9l-17 -121l76 -18q70 -18 109.5 -73.5t29.5 -129.5q-13 -92 -82 -154zM317 585q-25 0 -54.5 -17t-32.5 -42q-4 -30 14 -44.5t56 -18.5zM438.5 155.5q25.5 17.5 28.5 39.5q8 56 -77 69l-19 -133q42 7 67.5 24.5z" />
    <glyph glyph-name="percent" unicode="%" horiz-adv-x="962" 
d="M379 705q40 -29 59.5 -77t11.5 -101q-7 -52 -39 -98.5t-80 -74.5t-101 -28q-54 0 -94.5 28t-59.5 74.5t-12 98.5q7 53 40 101t81.5 77t101.5 29q52 0 92 -29zM254 -4l-105 2l590 733h105zM286.5 446.5q14.5 25.5 22.5 80.5q8 58 0 85.5t-36 27.5t-44 -28t-24 -85
q-8 -55 0 -80.5t37 -25.5q30 0 44.5 25.5zM826.5 369.5q40.5 -29.5 59.5 -77t12 -100.5q-7 -52 -39 -98.5t-80.5 -75t-101.5 -28.5t-94 28.5t-60 75t-12 98.5q7 53 40 100.5t82 77t101 29.5t92.5 -29.5zM733 111q15 25 23 80q8 58 0 85.5t-36 27.5t-43.5 -28t-23.5 -85
q-8 -54 -0.5 -79.5t36.5 -25.5t44 25z" />
    <glyph glyph-name="ampersand" unicode="&#x26;" horiz-adv-x="846" 
d="M569.5 713.5q52.5 -20.5 79 -57t20.5 -82.5q-7 -52 -53 -97.5t-124 -92.5l60 -85l16 37q37 91 38 94h202q-16 -28 -43 -63t-55 -69q-58 -70 -83 -109l135 -189h-222l-45 62q-113 -67 -249 -67q-126 0 -179.5 50t-41.5 136q10 73 62.5 122.5t161.5 103.5l-16 21
q-29 40 -40.5 65.5t-6.5 62.5q7 51 43 91.5t93.5 63.5t126.5 23q68 0 120.5 -20.5zM401 607.5q-19 -14.5 -22 -37.5q-4 -28 28 -69l20 -24q36 23 53 43.5t20 43.5q4 27 -11 42.5t-41 15.5q-28 0 -47 -14.5zM273 260q-23 -23 -26 -49q-5 -34 18.5 -52.5t51.5 -18.5
q21 0 50.5 8.5t50.5 25.5l-91 125q-31 -16 -54 -39z" />
    <glyph glyph-name="quotesingle" unicode="'" horiz-adv-x="261" 
d="M186 401h-91v322h183z" />
    <glyph glyph-name="parenleft" unicode="(" horiz-adv-x="353" 
d="M266.5 508q-45.5 -114 -61.5 -231q-16 -111 -2.5 -215t53.5 -223h-138q-55 119 -76.5 219t-4.5 220q17 121 70.5 234.5t134.5 210.5h139q-69 -101 -114.5 -215z" />
    <glyph glyph-name="parenright" unicode=")" horiz-adv-x="353" 
d="M99.5 54q45.5 114 61.5 231q16 111 2.5 215t-53.5 223h138q55 -119 76.5 -219t4.5 -220q-17 -121 -70.5 -234.5t-134.5 -210.5h-139q69 101 114.5 215z" />
    <glyph glyph-name="asterisk" unicode="*" horiz-adv-x="537" 
d="M277 420l-108 -148l-89 70l129 129l-155 44l56 109l141 -69l11 168h120l-41 -169l164 69l19 -110l-162 -42l91 -128l-109 -69z" />
    <glyph glyph-name="plus" unicode="+" horiz-adv-x="609" 
d="M550 295h-185l-26 -185h-138l26 185h-186l20 138h186l26 186h138l-26 -186h185z" />
    <glyph glyph-name="comma" unicode="," horiz-adv-x="302" 
d="M59 -6l-57 7l24 169h177l-21 -150l-140 -173h-64z" />
    <glyph glyph-name="hyphen" unicode="-" horiz-adv-x="401" 
d="M320 188h-290l20 137h290z" />
    <glyph glyph-name="period" unicode="." horiz-adv-x="302" 
d="M200 0h-205l28 196h205z" />
    <glyph glyph-name="slash" unicode="/" horiz-adv-x="400" 
d="M315 723h129l-357 -723h-129z" />
    <glyph glyph-name="zero" unicode="0" horiz-adv-x="681" 
d="M555.5 689.5q64.5 -44.5 91 -129t10.5 -200.5q-16 -115 -66 -198t-126 -126.5t-171 -43.5t-159.5 43.5t-91.5 126.5t-10 198q16 116 67 200.5t128 129t170 44.5t157.5 -44.5zM374.5 165q24.5 21 40.5 67.5t27 126.5q17 122 2 173.5t-68 51.5q-52 0 -81.5 -51.5
t-47.5 -173.5q-11 -79 -8 -126t21 -68t54 -21t60.5 21z" />
    <glyph glyph-name="one" unicode="1" horiz-adv-x="422" 
d="M165 511l-124 -27l18 129l236 110h95l-102 -723h-195z" />
    <glyph glyph-name="two" unicode="2" horiz-adv-x="645" 
d="M4 136l248 184q78 59 113 88t48.5 48.5t16.5 44.5q5 33 -15 54t-59 21q-44 0 -79 -26t-54 -82h-183q11 77 53 136.5t115.5 94t173.5 34.5q88 0 148 -29t87 -81t18 -120q-8 -54 -39 -94.5t-108 -102.5l-180 -146h285l-22 -160h-586z" />
    <glyph glyph-name="three" unicode="3" horiz-adv-x="694" 
d="M162 677q102 56 247 56q81 0 145.5 -24t98 -68t25.5 -101q-15 -107 -150 -152q58 -16 97.5 -60t29.5 -113q-10 -71 -65.5 -122t-132.5 -77t-151 -26q-161 0 -240 54.5t-60 193.5h184q3 -52 38 -74t82 -22q52 0 88 21.5t40 51.5q4 31 -20 53.5t-69 23.5l-98 2l21 150l87 5
q45 2 74.5 23t34.5 51q4 28 -24 46t-63 18q-60 0 -101 -18.5t-55 -78.5h-183q18 131 120 187z" />
    <glyph glyph-name="four" unicode="4" horiz-adv-x="638" 
d="M581 723l-60 -421h104l-23 -164h-104l-19 -138h-196l20 138h-316l22 157l379 428h193zM328 302l22 156l-138 -156h116z" />
    <glyph glyph-name="five" unicode="5" horiz-adv-x="678" 
d="M655 723l-30 -156h-337l-28 -120q53 14 82 19.5t63 5.5q79 0 134.5 -28t81 -81.5t15.5 -126.5q-16 -116 -105 -181t-228 -65q-110 0 -192 43t-114 112l159 98q22 -35 39.5 -55t43 -33t62.5 -13q52 0 85 24.5t38 62.5q5 37 -18.5 63t-76.5 26q-23 0 -44.5 -5.5
t-57.5 -20.5q-10 -4 -15 -4q-6 0 -14 5l-122 71l85 359h494z" />
    <glyph glyph-name="six" unicode="6" horiz-adv-x="670" 
d="M542 705.5q60 -27.5 91 -79t21 -120.5h-176q-6 40 -27.5 58.5t-60.5 18.5q-52 0 -88 -38.5t-44 -93.5q-2 -16 -1 -33q59 33 149 33q75 0 128.5 -27t78 -76t15.5 -112q-10 -69 -56 -124t-118 -86.5t-156 -31.5q-98 0 -164 43.5t-92.5 123t-12.5 184.5q17 120 69 207.5
t131 134t177 46.5q76 0 136 -27.5zM291 302q-24 -9 -40.5 -22t-18.5 -22q-9 -61 12.5 -92t65.5 -31q40 0 73.5 26.5t39.5 65.5q6 43 -20.5 63.5t-66.5 20.5q-21 0 -45 -9z" />
    <glyph glyph-name="seven" unicode="7" horiz-adv-x="597" 
d="M644 723l-28 -199q-62 -60 -128.5 -150.5t-115 -190t-58.5 -183.5h-209q9 61 47 153.5t111 202.5t181 211h-391l22 156h569z" />
    <glyph glyph-name="eight" unicode="8" horiz-adv-x="652" 
d="M519 706q60 -27 89.5 -73.5t21.5 -102.5q-8 -55 -48.5 -87.5t-79.5 -45.5q40 -22 64.5 -40.5t42 -54t9.5 -88.5q-15 -106 -109 -165t-240 -59q-134 0 -209 49t-62 138q9 66 51 102t102 56q-3 2 -28.5 20t-46 57.5t-13.5 89.5q9 63 50 115.5t109.5 84t156.5 31.5
q80 0 140 -27zM302 575.5q-25 -16.5 -30 -45.5q-5 -39 40 -56l59 -22q8 -2 11 -2q23 0 45 24t26 49q4 28 -20 48.5t-70 20.5q-36 0 -61 -16.5zM372.5 148.5q25.5 16.5 29.5 45.5q3 21 -8 37t-45 29l-66 25q-7 3 -16 3q-26 0 -50.5 -22t-28.5 -53q-5 -39 21.5 -60t93.5 -21
q44 0 69.5 16.5z" />
    <glyph glyph-name="nine" unicode="9" horiz-adv-x="670" 
d="M136 20.5q-61 28.5 -92.5 80.5t-22.5 118h183q1 -36 21.5 -56.5t58.5 -20.5q62 0 104.5 33t53.5 109q1 9 2 31q-56 -51 -160 -51q-75 0 -131.5 28t-84 79t-17.5 118q10 69 56 124t118 86.5t156 31.5q99 0 164.5 -43.5t92 -123t11.5 -184.5q-28 -198 -126 -293t-251 -95
q-75 0 -136 28.5zM388 423q24 9 40.5 22t18.5 22q9 62 -12.5 93t-65.5 31q-39 0 -69 -26t-36 -67q-6 -40 18 -62t61 -22q21 0 45 9z" />
    <glyph glyph-name="colon" unicode=":" horiz-adv-x="302" 
d="M245 320h-205l27 192h205zM200 3h-205l27 192h205z" />
    <glyph glyph-name="semicolon" unicode=";" horiz-adv-x="302" 
d="M67 509h205l-28 -196h-205zM65 0h-70l27 193h205l-24 -171l-157 -187h-77z" />
    <glyph glyph-name="less" unicode="&#x3c;" horiz-adv-x="608" 
d="M501 72l-469 191l22 155l523 191l-23 -160l-305 -110l275 -105z" />
    <glyph glyph-name="equal" unicode="=" horiz-adv-x="609" 
d="M564 389h-509l19 138h509zM531 154h-509l19 138h509z" />
    <glyph glyph-name="greater" unicode="&#x3e;" horiz-adv-x="608" 
d="M353 339l-276 110l23 160l470 -191l-22 -155l-524 -191l23 162z" />
    <glyph glyph-name="question" unicode="?" horiz-adv-x="540" 
d="M148 686.5q75 46.5 176 46.5q73 0 127.5 -23t81 -61.5t20.5 -82.5q-5 -38 -23 -66.5t-40.5 -49t-57.5 -46.5q-49 -36 -76 -66.5t-33 -75.5h-152q7 51 26.5 89.5t43 64t57.5 55.5q31 29 45.5 46.5t17.5 37.5q3 23 -14 37t-43 14q-33 0 -64.5 -23.5t-53.5 -66.5l-158 35
q45 89 120 135.5zM312 0h-205l27 192h205z" />
    <glyph glyph-name="at" unicode="@" horiz-adv-x="837" 
d="M513 -88q-69 -22 -150 -22q-118 0 -198.5 48.5t-115 132t-20.5 184.5q15 106 77 195t162 141.5t223 52.5q95 0 171 -33.5t116 -104.5t25 -176q-10 -73 -42.5 -130t-81 -89t-106.5 -32q-40 0 -60 12.5t-33 29.5q-4 5 -5 5q-3 0 -8 -6q-27 -25 -61.5 -40t-72.5 -15
q-68 0 -105 47t-26 124q8 59 40.5 111t83 84t111.5 32q37 0 56.5 -10.5t38.5 -30.5q3 -3 5.5 -2t4.5 6l4 12h104l-65 -209q-4 -14 -4 -19q-4 -30 20 -30q18 0 38 15.5t35.5 48t22.5 80.5q17 119 -46 170.5t-174 51.5q-152 0 -236 -80.5t-102 -207.5q-19 -136 49.5 -207
t203.5 -71q62 0 101 13.5t87 43.5l43 -71q-41 -32 -110 -54zM340.5 197q12.5 -23 42.5 -23q36 0 65.5 31.5t35.5 70.5q4 32 -9 55.5t-43 23.5q-34 0 -64 -30t-36 -73q-4 -32 8.5 -55z" />
    <glyph glyph-name="A" unicode="A" horiz-adv-x="724" 
d="M319 723h199l154 -723h-192l-28 140h-228l-69 -140h-194zM431 306l-39 231l-104 -231h143z" />
    <glyph glyph-name="B" unicode="B" horiz-adv-x="697" 
d="M121 723h289q149 0 212.5 -48.5t50.5 -142.5q-7 -52 -39 -90t-101 -70q80 -25 99 -71t11 -104q-14 -103 -89 -150t-230 -47h-305zM398 441q34 0 57 18.5t27 47.5q4 32 -16.5 51t-55.5 19h-115l-19 -136h122zM352 146q41 0 66.5 22t29.5 53q4 30 -15.5 50t-55.5 20h-122
l-20 -145h117z" />
    <glyph glyph-name="C" unicode="C" horiz-adv-x="732" 
d="M588 699.5q64 -33.5 97.5 -94t30.5 -137.5h-203q-1 51 -27.5 80t-75.5 29q-59 0 -99 -48t-56 -161q-16 -115 10.5 -168.5t84.5 -53.5q48 0 83 35t52 89h203q-35 -130 -114.5 -205t-238.5 -75q-103 0 -175 49t-102.5 136t-15.5 196t69.5 191t138.5 126.5t189 44.5
q85 0 149 -33.5z" />
    <glyph glyph-name="D" unicode="D" horiz-adv-x="735" 
d="M235 723q115 0 145 -1q188 -7 267.5 -102t56.5 -256q-15 -108 -67.5 -190t-143.5 -128t-215 -46h-259l102 723h114zM236 153h70q40 0 81 22t72.5 70t42.5 122q14 98 -24 150.5t-114 52.5h-70z" />
    <glyph glyph-name="E" unicode="E" horiz-adv-x="651" 
d="M121 723h534l-24 -161h-337l-17 -120h282l-22 -157h-283l-17 -123h340l-23 -162h-535z" />
    <glyph glyph-name="F" unicode="F" horiz-adv-x="621" 
d="M651 723l-24 -159h-334l-18 -130h279l-22 -155h-279l-39 -279h-195l102 723h530z" />
    <glyph glyph-name="G" unicode="G" horiz-adv-x="773" 
d="M158 36.5q-71 46.5 -102 130.5t-16 192q16 111 73 196t144 131.5t190 46.5q93 0 159.5 -37.5t97 -98t22.5 -129.5h-203q-3 47 -29 75.5t-75 28.5q-60 0 -105 -49t-61 -158q-17 -119 19.5 -162.5t96.5 -43.5q39 0 71 20.5t44 47.5l13 26h-126l18 131l331 -2l-54 -382h-128
l11 80q-30 -27 -56 -45t-66.5 -31.5t-95.5 -13.5q-102 0 -173 46.5z" />
    <glyph glyph-name="H" unicode="H" horiz-adv-x="740" 
d="M255 290l-41 -290h-195l102 723h195l-39 -274h219l39 274h195l-102 -723h-195l41 290h-219z" />
    <glyph glyph-name="I" unicode="I" horiz-adv-x="326" 
d="M316 723l-102 -723h-195l102 723h195z" />
    <glyph glyph-name="J" unicode="J" horiz-adv-x="432" 
d="M315.5 93q-24.5 -51 -74.5 -77t-136 -26q-32 0 -70.5 3t-59.5 7l25 175q44 -5 63 -5q50 0 71.5 25t29.5 84l63 444h195l-70 -494q-12 -85 -36.5 -136z" />
    <glyph glyph-name="K" unicode="K" horiz-adv-x="744" 
d="M472 0l-118 305l-106 -116l-27 -189h-202l102 723h202l-41 -292l250 292h219l-238 -276l168 -447h-209z" />
    <glyph glyph-name="L" unicode="L" horiz-adv-x="570" 
d="M316 723l-80 -563h289l-22 -160h-484l102 723h195z" />
    <glyph glyph-name="M" unicode="M" horiz-adv-x="943" 
d="M121 723h289l55 -441l180 441h288l-102 -723h-195l74 524l-215 -524h-140l-67 524l-74 -524h-195z" />
    <glyph glyph-name="N" unicode="N" horiz-adv-x="804" 
d="M794 723l-102 -723h-176l-241 431l-61 -431h-195l102 723h196l225 -403l57 403h195z" />
    <glyph glyph-name="O" unicode="O" 
d="M160.5 35.5q-73.5 45.5 -104.5 129t-15 195.5t71 196.5t141 130.5t191 46q104 0 176.5 -46t104 -130.5t16.5 -196.5q-16 -111 -71 -195t-140 -129.5t-190 -45.5q-106 0 -179.5 45.5zM470 196q44 50 59 161q16 115 -13.5 167.5t-93.5 52.5t-109 -52.5t-61 -167.5
q-16 -111 14.5 -161t95.5 -50q64 0 108 50z" />
    <glyph glyph-name="P" unicode="P" horiz-adv-x="661" 
d="M121 723h286q81 0 141 -29t89.5 -84.5t18.5 -131.5q-15 -107 -93 -168t-198 -61h-116l-35 -249h-195zM379 394q36 0 65.5 29t34.5 65q5 37 -18 64t-56 27h-112l-26 -185h112z" />
    <glyph glyph-name="Q" unicode="Q" horiz-adv-x="779" 
d="M101.5 556.5q55.5 84.5 141.5 130.5t191 46t177.5 -46t104 -130.5t16.5 -196.5q-24 -170 -142 -280q3 -21 31 -37t64 -16l-22 -152q-65 0 -106 8t-76.5 34t-70.5 78q-45 -5 -80 -5q-106 0 -179.5 45.5t-104.5 129t-15 195.5q15 112 70.5 196.5zM255.5 195.5
q28.5 -49.5 96.5 -49.5t109.5 49.5t57.5 162.5q16 116 -12.5 167.5t-94.5 51.5t-109 -51.5t-60 -167.5q-16 -113 12.5 -162.5z" />
    <glyph glyph-name="R" unicode="R" horiz-adv-x="709" 
d="M421 0l-70 249h-102l-35 -249h-195l102 723h328q134 0 188.5 -64t39.5 -169q-11 -78 -48 -127t-97 -83l88 -280h-199zM446 423q30 29 35 65q5 37 -18 64t-57 27h-111l-26 -185h111q36 0 66 29z" />
    <glyph glyph-name="S" unicode="S" horiz-adv-x="716" 
d="M167 15q-69 25 -110 76.5t-36 128.5h202q3 -38 32.5 -59.5t80.5 -21.5q52 0 87.5 15.5t40.5 50.5q4 29 -24.5 41.5t-87.5 22.5l-111 19q-86 14 -129 69.5t-30 146.5q10 70 57.5 121.5t120.5 79t157 27.5q86 0 151 -31.5t99 -84t33 -112.5h-197q2 41 -24 59.5t-79 18.5
q-52 0 -78 -17t-29 -40q-4 -26 11 -40.5t59 -22.5l110 -19q135 -24 168 -90.5t22 -147.5q-9 -61 -57.5 -110t-124.5 -77t-165 -28q-80 0 -149 25z" />
    <glyph glyph-name="T" unicode="T" horiz-adv-x="631" 
d="M68 723h607l-24 -171h-207l-78 -552h-195l78 552h-205z" />
    <glyph glyph-name="U" unicode="U" horiz-adv-x="755" 
d="M580 71q-84 -81 -250 -81t-228 81t-41 228l60 424h197l-61 -432q-10 -70 18 -104t78 -34t87 34t47 104l61 432h197l-60 -424q-21 -147 -105 -228z" />
    <glyph glyph-name="V" unicode="V" horiz-adv-x="716" 
d="M419 0h-214l-142 723h183l98 -495l237 495h184z" />
    <glyph glyph-name="W" unicode="W" horiz-adv-x="976" 
d="M702 0h-145l-60 393l-170 -393h-143l-116 723h188l57 -388l163 388h136l57 -388l163 388h188z" />
    <glyph glyph-name="X" unicode="X" horiz-adv-x="737" 
d="M436 0l-101 227l-162 -227h-207l287 365l-179 358h241l84 -196l139 196h204l-263 -330l200 -393h-243z" />
    <glyph glyph-name="Y" unicode="Y" horiz-adv-x="710" 
d="M447 301l-42 -301h-195l42 301l-195 422h210l106 -257l179 257h212z" />
    <glyph glyph-name="Z" unicode="Z" horiz-adv-x="698" 
d="M8 89l407 474h-309l23 160h589l-12 -85l-415 -476h342l-23 -162h-615z" />
    <glyph glyph-name="bracketleft" unicode="[" horiz-adv-x="357" 
d="M379 723l-15 -104h-113l-95 -676h113l-15 -104h-268l125 884h268z" />
    <glyph glyph-name="backslash" unicode="\" horiz-adv-x="400" 
d="M57 723h129l153 -723h-129z" />
    <glyph glyph-name="bracketright" unicode="]" horiz-adv-x="357" 
d="M-14 -161l15 104h113l95 676h-113l15 104h268l-125 -884h-268z" />
    <glyph glyph-name="asciicircum" unicode="^" horiz-adv-x="487" 
d="M239 339l-124 -222h-123l215 374q9 17 25.5 26t34.5 9q17 0 30 -8.5t17 -25.5l107 -375h-122z" />
    <glyph glyph-name="underscore" unicode="_" horiz-adv-x="578" 
d="M451 -156h-470l19 136h470z" />
    <glyph glyph-name="grave" unicode="`" horiz-adv-x="335" 
d="M355 628l-37 -77l-267 66l58 118z" />
    <glyph glyph-name="a" unicode="a" horiz-adv-x="620" 
d="M517 0h-196h196zM321 0l8 48q-38 -32 -74 -45t-72 -13q-90 0 -139 66q-48 64 -29 204q12 88 47.5 148t85 89.5t105.5 29.5q38 0 73.5 -13t61.5 -37l6 40h196l-74 -517h-195zM325 155q24 39 34 109q19 136 -51 136q-35 0 -60.5 -34t-35.5 -102t6 -108t50 -40q33 0 57 39z
" />
    <glyph glyph-name="b" unicode="b" horiz-adv-x="618" 
d="M232.5 11q-41.5 21 -55.5 61l-30 -72h-137l104 743h195l-42 -304q31 45 72 66.5t82 21.5q95 0 138 -71t26 -194q-18 -126 -86 -199t-174 -73q-51 0 -92.5 21zM353.5 158q24.5 32 34.5 106q10 72 -6 99t-50 27q-72 0 -90 -126q-19 -138 50 -138q37 0 61.5 32z" />
    <glyph glyph-name="c" unicode="c" horiz-adv-x="535" 
d="M429.5 496.5q46.5 -30.5 66 -80.5t13.5 -110h-158q0 30 -12 53.5t-45 23.5q-38 0 -65 -32t-36 -93q-9 -62 10.5 -98t57.5 -36q32 0 50.5 25t26.5 51h153q-8 -56 -41.5 -104t-88.5 -77t-123 -29q-74 0 -129 33.5t-80.5 94t-14.5 138.5q11 79 53.5 140.5t107 96t138.5 34.5
q70 0 116.5 -30.5z" />
    <glyph glyph-name="d" unicode="d" horiz-adv-x="620" 
d="M45 63q-48 73 -30 199q17 123 80 194t158 71q44 0 80.5 -16t52.5 -53l40 285h195l-104 -743h-138l-5 68q-26 -34 -71 -56t-104 -22q-106 0 -154 73zM323.5 154.5q24.5 28.5 32.5 84.5l6 45q15 106 -62 106q-35 0 -61 -27.5t-36 -98.5q-10 -73 7.5 -105.5t54.5 -32.5
q34 0 58.5 28.5z" />
    <glyph glyph-name="e" unicode="e" horiz-adv-x="566" 
d="M210 148q18 -22 52 -22q30 0 51.5 11t36.5 39h172q-16 -55 -58.5 -97.5t-100 -65.5t-115.5 -23q-80 0 -137 32.5t-83 92t-15 137.5q11 75 51.5 138t105.5 100t145 37q82 0 134 -34.5t72.5 -95t9.5 -138.5l-6 -45h-326q-7 -44 11 -66zM361 323q4 31 -12.5 52t-51.5 21
q-30 0 -55 -22t-29 -51h148z" />
    <glyph glyph-name="f" unicode="f" horiz-adv-x="414" 
d="M396 385h-94l-77 -546h-195l77 546h-83l19 132h83l9 69q9 64 56.5 100.5t118.5 36.5h138l-17 -126h-60q-24 0 -35 -11t-15 -39l-4 -30h98z" />
    <glyph glyph-name="g" unicode="g" horiz-adv-x="653" 
d="M85 -155.5q-66 15.5 -96 42.5t-25 61q4 30 28 48t41 23.5t45 12.5q-3 1 -21 10.5t-30.5 30t-8.5 46.5q5 33 38.5 58t93.5 33q-50 23 -73 66.5t-17 87.5q7 50 47.5 86.5t103.5 55.5t135 19q50 0 82.5 -9.5t64.5 -27.5q133 48 179 67l-20 -138l-90 -12q3 -22 0 -40
q-6 -45 -41.5 -86t-96 -66.5t-138.5 -25.5q-44 0 -68 3q-14 -3 -16 -9q-1 -8 13 -11t37 -4.5t31 -1.5l102 -6q102 -7 147.5 -49.5t36.5 -105.5q-7 -51 -46 -90t-108.5 -61.5t-164.5 -22.5q-99 0 -165 15.5zM354 308q20 19 24 49t-10.5 51.5t-41.5 21.5t-47.5 -21.5
t-24.5 -51.5t11 -49t42 -19t47 19zM359.5 -61q18.5 8 20.5 24t-13.5 26.5t-45.5 12.5l-93 6q-36 2 -53 -9.5t-19 -27.5q-3 -24 28.5 -32t109.5 -8q47 0 65.5 8z" />
    <glyph glyph-name="h" unicode="h" horiz-adv-x="625" 
d="M114 743h192l-40 -290q25 23 41 35t42.5 20.5t64.5 8.5q49 0 87.5 -21.5t57.5 -60.5t12 -89l-49 -346h-195l45 323q3 21 -14 34t-40 13t-44 -14t-24 -35l-45 -321h-195z" />
    <glyph glyph-name="i" unicode="i" horiz-adv-x="308" 
d="M286 579h-195l23 164h195zM205 0h-195l73 517h195z" />
    <glyph glyph-name="j" unicode="j" horiz-adv-x="311" 
d="M289 579h-195l23 164h195zM-19 -166q-23 0 -37.5 4t-20.5 8t-7 5l17 130l31 5q28 6 39.5 15.5t13.5 26.5l69 489h195l-69 -489q-27 -194 -231 -194z" />
    <glyph glyph-name="k" unicode="k" horiz-adv-x="613" 
d="M362 0l-92 190l-44 -44l-21 -146h-195l104 743h195l-57 -411l179 185h192l-219 -214l147 -303h-189z" />
    <glyph glyph-name="l" unicode="l" horiz-adv-x="347" 
d="M76.5 13q-39.5 24 -45.5 58.5t1 84.5l82 587h191l-78 -561q-3 -23 6 -37.5t44 -19.5l20 -2l-16 -118q-43 -16 -76 -16q-89 0 -128.5 24z" />
    <glyph glyph-name="m" unicode="m" horiz-adv-x="942" 
d="M83 517h192l-9 -62q4 3 34 24t68.5 34.5t75.5 13.5q42 0 78 -17t55 -55q30 32 77.5 52t89.5 20q41 0 77 -20t56 -57t13 -86l-51 -364h-195l48 341q3 21 -13.5 34.5t-39.5 13.5q-39 0 -54 -19t-20 -60l-44 -310h-194l48 341q3 21 -14 34.5t-40 13.5t-44 -13.5t-24 -34.5
l-48 -341h-195z" />
    <glyph glyph-name="n" unicode="n" horiz-adv-x="626" 
d="M83 517h193l-9 -62q26 24 42.5 35.5t42 20t63.5 8.5q45 0 84 -22.5t59.5 -61.5t13.5 -86l-49 -349h-195l45 323q3 21 -13.5 34t-39.5 13q-24 0 -45.5 -13t-24.5 -34l-45 -323h-195z" />
    <glyph glyph-name="o" unicode="o" horiz-adv-x="573" 
d="M105 23.5q-55 33.5 -78.5 94t-12.5 137.5q11 80 53.5 142t107 96t140.5 34q79 0 133.5 -35t78 -97t12.5 -140q-11 -77 -52 -137t-105 -94t-143 -34t-134 33.5zM322 170q21 39 29 92q18 126 -55 126q-74 0 -92 -126q-8 -54 2.5 -92.5t52.5 -38.5t63 39z" />
    <glyph glyph-name="p" unicode="p" horiz-adv-x="618" 
d="M83 517h196l-9 -60q32 37 71.5 53.5t80.5 16.5q56 0 97 -29.5t59.5 -89.5t6.5 -148q-13 -94 -53 -154.5t-93.5 -88t-112.5 -27.5q-87 0 -113 68l-31 -219h-195zM367 160q28 34 38 100q8 60 -11 95t-53 35q-31 0 -60 -28.5t-34 -62.5l-11 -78q-6 -40 15 -67.5t53 -27.5
q35 0 63 34z" />
    <glyph glyph-name="q" unicode="q" horiz-adv-x="620" 
d="M299 -161l30 209q-38 -32 -74 -45t-72 -13q-90 0 -139 65.5t-29 204.5q12 88 47.5 148t85 89.5t105.5 29.5q38 0 73.5 -13t61.5 -37l6 40h196l-96 -678h-195zM325 155q24 39 34 109q19 136 -51 136q-35 0 -60.5 -34t-35.5 -102t6 -108t50 -40q33 0 57 39z" />
    <glyph glyph-name="r" unicode="r" horiz-adv-x="449" 
d="M83 517h188l-20 -143q30 68 78.5 110.5t116.5 42.5l-25 -183q-16 2 -43 2q-72 0 -102 -27t-36 -71l-35 -248h-195z" />
    <glyph glyph-name="s" unicode="s" horiz-adv-x="527" 
d="M65.5 31.5q-64.5 41.5 -66.5 132.5h160q6 -28 28 -36.5t57 -8.5q34 0 52.5 8.5t20.5 21.5q2 15 -12 22.5t-45 13.5l-75 12q-162 30 -144 160q7 48 40.5 86.5t89.5 61t129 22.5q70 0 120 -21t72.5 -59.5t13.5 -90.5h-158q-2 25 -21 36.5t-49 11.5q-62 0 -67 -33
q-2 -13 15 -21.5t58 -15.5l64 -12q85 -21 112.5 -68.5t20.5 -93.5q-11 -81 -83 -125.5t-175 -44.5q-93 0 -157.5 41.5z" />
    <glyph glyph-name="t" unicode="t" horiz-adv-x="451" 
d="M306 385l-32 -234q-2 -16 5 -22t22 -6h81l-16 -115q-34 -16 -105 -16q-114 0 -153.5 40t-29.5 110l34 243h-84l19 132h91l51 161h158l-22 -160h113l-19 -133h-113z" />
    <glyph glyph-name="u" unicode="u" horiz-adv-x="626" 
d="M114 10q-42 20 -65.5 57t-16.5 86l51 364h195l-48 -337q-3 -23 11 -38t42 -15t46.5 15t21.5 38l48 337h197l-77 -517h-144l-4 68q-29 -39 -78 -58.5t-93 -19.5t-86 20z" />
    <glyph glyph-name="v" unicode="v" horiz-adv-x="570" 
d="M302 0h-125l-138 517h173l64 -264l134 264h176z" />
    <glyph glyph-name="w" unicode="w" horiz-adv-x="811" 
d="M572 0h-139l-42 251l-117 -251h-133l-102 517h169l45 -251l112 251h135l38 -252l116 252h173z" />
    <glyph glyph-name="x" unicode="x" horiz-adv-x="623" 
d="M365 0l-80 137l-119 -137h-200l236 270l-145 247h200l67 -112l98 112h200l-217 -247l160 -270h-200z" />
    <glyph glyph-name="y" unicode="y" horiz-adv-x="603" 
d="M36.5 -160q-24.5 5 -35.5 10t-14 7l17 123l50 -3q8 -1 23 -1q35 0 54.5 8.5t25 16.5t11.5 19l3 10l-132 487h191l58 -281l142 281h190l-271 -487q-43 -79 -83.5 -121.5t-80 -58t-88.5 -15.5q-36 0 -60.5 5z" />
    <glyph glyph-name="z" unicode="z" horiz-adv-x="531" 
d="M-12 92l284 306h-219l17 119h466l-13 -89l-287 -307h245l-17 -121h-489z" />
    <glyph glyph-name="braceleft" unicode="{" horiz-adv-x="425" 
d="M197 664q31 30 73.5 44.5t83.5 14.5h93l-15 -104h-51q-29 0 -43.5 -7t-19 -17.5t-6.5 -27.5l-26 -185q-8 -44 -44.5 -65.5t-79.5 -26.5q-6 -1 -7 -3t6 -3q107 -10 97 -102l-27 -187q-4 -28 8 -40t47 -12h51l-15 -104h-90q-43 0 -82 14.5t-61 44.5t-16 74l27 192
q11 78 -102 78l13 90q61 0 89.5 19t34.5 63l25 177q6 43 37 73z" />
    <glyph glyph-name="bar" unicode="|" horiz-adv-x="269" 
d="M-4 -161l139 987h138l-139 -987h-138z" />
    <glyph glyph-name="braceright" unicode="}" horiz-adv-x="425" 
d="M248 -102q-31 -30 -73.5 -44.5t-83.5 -14.5h-93l15 104h51q29 0 43.5 7t19 17.5t6.5 27.5l26 185q8 44 44.5 65.5t79.5 26.5q6 1 7 3t-6 3q-107 10 -97 102l27 187q4 28 -8 40t-47 12h-51l15 104h90q43 0 82 -14.5t61 -44.5t16 -74l-27 -192q-11 -78 102 -78l-13 -90
q-61 0 -89.5 -19t-34.5 -63l-25 -177q-6 -43 -37 -73z" />
    <glyph glyph-name="asciitilde" unicode="~" horiz-adv-x="645" 
d="M504.5 297.5q-48.5 -28.5 -93.5 -28.5q-29 0 -51.5 10t-50.5 28q-25 16 -42 24t-38 8q-34 0 -62 -20.5t-71 -63.5l-42 92q60 56 103 82.5t91 26.5q31 0 53.5 -10t50.5 -29q22 -15 37 -22.5t34 -7.5q33 0 65.5 23t58.5 61l44 -90q-38 -55 -86.5 -83.5z" />
    <glyph glyph-name="uni00A0" unicode="&#xa0;" horiz-adv-x="238" 
 />
    <glyph glyph-name="exclamdown" unicode="&#xa1;" horiz-adv-x="299" 
d="M43 325l27 192h205l-27 -192h-205zM-36 -161l114 418h118l-6 -418h-226z" />
    <glyph glyph-name="cent" unicode="&#xa2;" horiz-adv-x="567" 
d="M338.5 260q18.5 25 26.5 51h153q-10 -69 -59 -124.5t-123 -76.5l-15 -110h-122l15 105q-59 11 -102 47t-62 91.5t-9 123.5q10 69 44 125.5t87.5 93.5t115.5 48l13 89h122l-14 -94q69 -20 102 -79t25 -133h-158q0 30 -12.5 53.5t-45.5 23.5q-38 0 -65 -32t-35 -93
q-9 -62 10.5 -98t57.5 -36q32 0 50.5 25z" />
    <glyph glyph-name="sterling" unicode="&#xa3;" horiz-adv-x="671" 
d="M-5 159h31q81 0 91 72q4 26 5 59.5t1 43.5h-103l14 101h81l9 97q4 64 43.5 109.5t100 68.5t128.5 23q91 0 152 -42t85 -124l-175 -48q-11 37 -21.5 50.5t-30.5 13.5q-23 0 -38 -16t-18 -44q-3 -22 -3 -88h133l-14 -101h-119q-4 -35 -9 -55.5t-15 -41.5
q-10 -23 -23.5 -37.5t-45.5 -39.5h99q44 0 66 16.5t44 61.5l159 -32q-39 -103 -107 -154.5t-168 -51.5h-374z" />
    <glyph glyph-name="currency" unicode="&#xa4;" horiz-adv-x="608" 
d="M157 155q-3 2 -8 2t-9 -4l-74 -64l-66 78l82 71q-15 31 -19 60t1 65q9 66 46 117q4 6 5 8q1 4 -4 9l-55 64l87 79l63 -73q68 38 130 38q66 0 120 -34q7 -3 11 1l66 58l65 -78l-72 -62q29 -60 19 -126q-10 -72 -52 -123q-2 -3 -1 -5l53 -60l-87 -78l-53 63
q-67 -38 -132 -38t-116 32zM377.5 279.5q39.5 35.5 46.5 84.5q4 31 -7.5 59t-36.5 44.5t-59 16.5q-33 0 -63 -16.5t-49.5 -44.5t-24.5 -59q-4 -32 8 -59.5t37 -44t58 -16.5q51 0 90.5 35.5z" />
    <glyph glyph-name="yen" unicode="&#xa5;" horiz-adv-x="695" 
d="M489 357h122l-14 -99h-146l-9 -67h146l-14 -98h-146l-13 -93h-221l13 93h-146l14 98h146l9 67h-146l14 99h112l-173 366h252l104 -252l173 252h203z" />
    <glyph glyph-name="brokenbar" unicode="&#xa6;" horiz-adv-x="269" 
d="M77 412l58 414h138l-58 -414h-138zM-4 -161l59 414h138l-59 -414h-138z" />
    <glyph glyph-name="section" unicode="&#xa7;" horiz-adv-x="527" 
d="M51 -48.5q-59 34.5 -75 82.5l124 56q21 -29 44.5 -45t68.5 -16q33 0 53.5 9.5t23.5 29.5q2 15 -10 27t-45 25l-65 25q-87 34 -120.5 72t-24.5 100q6 45 31 78.5t66 53.5q-33 24 -45.5 52.5t-6.5 64.5q7 47 38 85t82.5 60t117.5 22q80 0 136 -34.5t73 -82.5l-124 -55
q-24 29 -44.5 44.5t-52.5 15.5q-22 0 -36.5 -9.5t-17.5 -26.5q-3 -21 33 -33l69 -27q87 -34 120.5 -72t25.5 -100q-12 -85 -93 -132q41 -25 56 -54.5t9 -71.5q-11 -81 -78.5 -129.5t-181.5 -48.5q-92 0 -151 34.5zM315 284.5q14 11.5 16 31.5q1 7 1 11q-2 28 -61 51l-34 14
q-50 -4 -55 -46q-2 -17 9.5 -27.5t51.5 -26.5l39 -16q19 -3 33 8.5z" />
    <glyph glyph-name="dieresis" unicode="&#xa8;" horiz-adv-x="444" 
d="M219 584h-166l20 139h166zM453 584h-166l20 139h166z" />
    <glyph glyph-name="copyright" unicode="&#xa9;" horiz-adv-x="834" 
d="M185 40q-78 50 -116 135t-24 187q14 100 76 185.5t154 135.5t193 50t179.5 -50t116.5 -135.5t24 -185.5q-14 -102 -76 -187t-154.5 -135t-193.5 -50t-179 50zM521 122.5q64 33.5 105 95t53 144.5q12 82 -12 144t-79 96t-134 34q-80 0 -143.5 -34t-104.5 -96t-52 -144
q-12 -83 11.5 -144.5t78 -95t134.5 -33.5q79 0 143 33.5zM536 547q36 -22 54.5 -55.5t19.5 -68.5l-132 -7q1 59 -39 59q-59 0 -75 -111q-9 -61 4.5 -87t47.5 -26q29 0 47 15.5t39 48.5l90 -18q-8 -26 -33.5 -59t-68.5 -57t-100 -24q-59 0 -102.5 26t-63.5 72.5t-11 106.5
q9 61 42 108t83.5 73t109.5 26q52 0 88 -22z" />
    <glyph glyph-name="ordfeminine" unicode="&#xaa;" horiz-adv-x="409" 
d="M66 423.5q-24 25.5 -18 67.5q7 50 60 82t133 32h24l3 20q3 20 -7.5 27.5t-23.5 7.5q-38 0 -57 -37l-103 20q28 47 65.5 68.5t107.5 21.5q82 -1 111.5 -25.5t22.5 -74.5l-19 -132q-8 -58 -6 -73l4 -24h-119l-3 28q-33 -19 -53.5 -26.5t-46.5 -7.5q-51 0 -75 25.5zM238 482
q6 4 8.5 8t3.5 11l7 44h-20q-27 0 -47 -12.5t-23 -33.5q-2 -13 6.5 -21t26.5 -8q22 0 38 12z" />
    <glyph glyph-name="guillemotleft" unicode="&#xab;" horiz-adv-x="530" 
d="M223 59h-100l-80 192l134 200h101l-92 -200zM426 59h-100l-81 192l135 200h101l-92 -200z" />
    <glyph glyph-name="logicalnot" unicode="&#xac;" horiz-adv-x="609" 
d="M570 433l-42 -296h-156l22 158h-353l20 138h509z" />
    <glyph glyph-name="uni00AD" unicode="&#xad;" horiz-adv-x="400" 
d="M340 188h-290l20 137h290z" />
    <glyph glyph-name="registered" unicode="&#xae;" horiz-adv-x="556" 
d="M151.5 299q-49.5 31 -73 84t-14.5 117t47.5 117t96.5 84.5t122 31.5q63 0 112 -31.5t72.5 -85t14.5 -116.5t-47.5 -116.5t-96 -84.5t-120.5 -31q-64 0 -113.5 31zM394 381.5q49 44.5 59 118.5t-26 119t-107 45q-72 0 -120.5 -44.5t-59.5 -119.5t25.5 -119t108.5 -44
q71 0 120 44.5zM215 614h112q45 0 68 -16.5t18 -47.5q-3 -21 -17.5 -37t-35.5 -25l31 -104h-77l-19 96h-29l-13 -96h-70zM314 526q10 0 17.5 6t8.5 15q1 10 -5.5 15.5t-17.5 5.5h-38l-6 -42h41z" />
    <glyph glyph-name="macron" unicode="&#xaf;" horiz-adv-x="444" 
d="M456 604h-400l17 119h400z" />
    <glyph glyph-name="degree" unicode="&#xb0;" horiz-adv-x="477" 
d="M420.5 566.5q-28.5 -40.5 -72 -63t-93.5 -22.5t-87.5 22.5t-55 63t-10.5 91.5t36 91.5t72.5 63.5t93.5 23t87.5 -23t55 -63.5t9.5 -91.5q-7 -51 -35.5 -91.5zM335.5 709q-16.5 20 -48.5 20q-31 0 -52.5 -19.5t-25.5 -50.5q-5 -34 11 -54.5t48 -20.5q31 0 53 20t26 53
q5 32 -11.5 52z" />
    <glyph glyph-name="plusminus" unicode="&#xb1;" horiz-adv-x="609" 
d="M583 526l-19 -138h-185l-26 -185h-138l26 185h-186l19 138h186l26 186h138l-26 -186h185zM21 152h509l-19 -137h-509z" />
    <glyph glyph-name="uni00B2" unicode="&#xb2;" horiz-adv-x="392" 
d="M29 470l156 115q49 36 71.5 55t30.5 31.5t10 27.5q3 21 -9.5 34t-36.5 13q-27 0 -49.5 -16t-33.5 -52h-115q11 75 65.5 121t148.5 46q83 0 126 -39.5t34 -105.5q-5 -34 -24.5 -59t-68.5 -65l-113 -91h179l-14 -101h-369z" />
    <glyph glyph-name="uni00B3" unicode="&#xb3;" horiz-adv-x="407" 
d="M139 809.5q64 35.5 155 35.5q52 0 92.5 -15t61.5 -42.5t16 -63.5q-10 -68 -95 -96q37 -10 61.5 -37.5t18.5 -71.5q-6 -45 -41 -77t-83.5 -48t-95.5 -16q-101 0 -150.5 34.5t-37.5 121.5h116q0 -33 23 -47t52 -14q33 0 56 13.5t25 32.5q3 20 -12.5 34t-43.5 15l-62 1
l13 94l55 3q29 1 47.5 14.5t20.5 32.5q2 17 -15 28.5t-39 11.5q-37 0 -63 -12t-36 -49h-115q12 82 76 117.5z" />
    <glyph glyph-name="acute" unicode="&#xb4;" horiz-adv-x="335" 
d="M357 617l-287 -66l-15 77l277 107z" />
    <glyph glyph-name="paragraph" unicode="&#xb6;" horiz-adv-x="641" 
d="M561 617l-99 -700h-115l99 700h-65l-99 -700h-115l54 383q-85 10 -135 62.5t-36 149.5q9 61 43.5 108.5t91.5 75t131 27.5h324l-15 -106h-64z" />
    <glyph glyph-name="periodcentered" unicode="&#xb7;" horiz-adv-x="302" 
d="M227 277h-181l24 174h181z" />
    <glyph glyph-name="cedilla" unicode="&#xb8;" horiz-adv-x="303" 
d="M165.5 -195.5q-41.5 -23.5 -95.5 -23.5q-84 0 -129 29l33 59q44 -26 81 -26q20 0 34 7t16 19q3 19 -16.5 28.5t-67.5 9.5q-8 0 -10.5 2t2.5 10l49 86h79l-29 -57q56 0 80.5 -25t19.5 -57q-5 -38 -46.5 -61.5z" />
    <glyph glyph-name="uni00B9" unicode="&#xb9;" horiz-adv-x="309" 
d="M118 701l-77 -17l11 82l148 69h60l-64 -455h-123z" />
    <glyph glyph-name="ordmasculine" unicode="&#xba;" horiz-adv-x="389" 
d="M337 711.5q36 -21.5 52 -60t9 -87.5q-7 -48 -34 -86t-69 -59t-91 -21q-75 0 -116 46.5t-31 119.5q7 49 35 87.5t69.5 60t89.5 21.5q50 0 86 -21.5zM201.5 635.5q-14.5 -21.5 -20.5 -69.5q-7 -47 1.5 -68.5t32.5 -21.5q25 0 39.5 21.5t21.5 68.5q7 48 -2 69.5t-34 21.5
q-24 0 -38.5 -21.5z" />
    <glyph glyph-name="guillemotright" unicode="&#xbb;" horiz-adv-x="530" 
d="M73 451h101l78 -200l-134 -192h-100l91 192zM275 451h102l78 -200l-134 -192h-101l92 192z" />
    <glyph glyph-name="onequarter" unicode="&#xbc;" horiz-adv-x="988" 
d="M103 597l-77 -17l11 82l148 69h60l-64 -455h-123zM192 -4l-105 2l590 733h105zM907 455l-37 -265h65l-14 -103h-66l-12 -87h-123l13 87h-199l14 99l238 269h121zM748 190l14 98l-87 -98h73z" />
    <glyph glyph-name="onehalf" unicode="&#xbd;" horiz-adv-x="957" 
d="M103 597l-77 -17l11 82l148 69h60l-64 -455h-123zM192 -4l-105 2l590 733h105zM540 86l156 115q49 37 71.5 55.5t31 30.5t9.5 28q4 21 -9 34t-37 13q-28 0 -50 -16t-34 -52h-115q7 49 33.5 86.5t72.5 59t109 21.5q56 0 93.5 -18t54.5 -51t11 -76q-5 -34 -24.5 -59.5
t-67.5 -64.5l-113 -91h179l-14 -101h-369z" />
    <glyph glyph-name="threequarters" unicode="&#xbe;" horiz-adv-x="1086" 
d="M124 704.5q64 35.5 155 35.5q52 0 92.5 -15t61.5 -42.5t16 -63.5q-10 -68 -95 -96q37 -10 61.5 -37.5t18.5 -71.5q-6 -45 -41 -77t-83.5 -48t-95.5 -16q-101 0 -150.5 34.5t-37.5 121.5h116q0 -33 23 -47t52 -14q33 0 56 13.5t25 32.5q3 20 -12.5 34t-43.5 15l-62 1
l13 94l55 3q29 1 47.5 14.5t20.5 32.5q2 17 -15 28.5t-39 11.5q-37 0 -63 -12t-36 -49h-115q12 82 76 117.5zM290 -4l-105 2l590 733h105zM1005 455l-37 -265h65l-14 -103h-66l-12 -87h-123l13 87h-199l14 99l238 269h121zM846 190l14 98l-87 -98h73z" />
    <glyph glyph-name="questiondown" unicode="&#xbf;" horiz-adv-x="560" 
d="M219 517h205l-27 -192h-205zM389 -124.5q-75 -46.5 -176 -46.5q-82 0 -136 23t-76.5 61t-15.5 84q6 40 24.5 69.5t42.5 48.5t61 43q45 29 67.5 51t27.5 55h153q-8 -57 -37.5 -94.5t-78.5 -76.5q-33 -27 -49.5 -45t-19.5 -40q-3 -20 14.5 -33.5t43.5 -13.5q33 0 64.5 22.5
t52.5 62.5l158 -34q-45 -90 -120 -136.5z" />
    <glyph glyph-name="Agrave" unicode="&#xc0;" horiz-adv-x="724" 
d="M319 723h199l154 -723h-192l-28 140h-228l-69 -140h-194zM431 306l-39 231l-104 -231h143zM598 834l-37 -77l-267 66l58 118z" />
    <glyph glyph-name="Aacute" unicode="&#xc1;" horiz-adv-x="724" 
d="M319 723h199l154 -723h-192l-28 140h-228l-69 -140h-194zM431 306l-39 231l-104 -231h143zM600 823l-287 -66l-15 77l277 107z" />
    <glyph glyph-name="Acircumflex" unicode="&#xc2;" horiz-adv-x="724" 
d="M319 723h199l154 -723h-192l-28 140h-228l-69 -140h-194zM431 306l-39 231l-104 -231h143zM452 868l-82 -82h-132l159 153h132l113 -153h-139z" />
    <glyph glyph-name="Atilde" unicode="&#xc3;" horiz-adv-x="724" 
d="M319 723h199l154 -723h-192l-28 140h-228l-69 -140h-194zM431 306l-39 231l-104 -231h143zM581 808.5q-28 -8.5 -56 -8.5q-19 0 -39 4.5t-38 10.5q-45 15 -76 15q-20 0 -36 -5t-37 -19q-9 -5 -12 -5q-7 0 -10 12l-8 53q-1 2 -1.5 5t-0.5 7q1 7 14 18q23 19 46 29.5
t55 10.5q19 0 36.5 -4t33 -8.5t20.5 -5.5q45 -15 67 -15q37 0 79 27q6 4 12 4q9 0 11 -12l4 -64q1 -3 0 -7q-2 -11 -17 -22q-19 -12 -47 -20.5z" />
    <glyph glyph-name="Adieresis" unicode="&#xc4;" horiz-adv-x="724" 
d="M319 723h199l154 -723h-192l-28 140h-228l-69 -140h-194zM431 306l-39 231l-104 -231h143zM408 790h-166l20 139h166zM642 790h-166l20 139h166z" />
    <glyph glyph-name="Aring" unicode="&#xc5;" horiz-adv-x="724" 
d="M319 723h199l154 -723h-192l-28 140h-228l-69 -140h-194zM431 306l-39 231l-104 -231h143zM523 798q-38 -33 -85 -33q-48 0 -76.5 33.5t-21.5 82.5q6 46 44.5 78t85.5 32t76 -33t22 -79q-7 -48 -45 -81zM490 911q-12 13 -31 13q-20 0 -35.5 -13.5t-18.5 -32.5t9.5 -33.5
t31.5 -14.5t34.5 14.5t18.5 33.5q3 20 -9 33z" />
    <glyph glyph-name="AE" unicode="&#xc6;" horiz-adv-x="1113" 
d="M1016 0h-572l20 140h-220l-89 -140h-194l477 723h671l-24 -159h-340l-17 -122h213l-22 -157h-213l-18 -125h350zM528 601l-190 -295h149z" />
    <glyph glyph-name="Ccedilla" unicode="&#xc7;" horiz-adv-x="732" 
d="M588 699.5q64 -33.5 97.5 -94t30.5 -137.5h-203q-1 51 -27.5 80t-75.5 29q-59 0 -99 -48t-56 -161q-16 -115 10.5 -168.5t84.5 -53.5q48 0 83 35t52 89h203q-35 -130 -114.5 -205t-238.5 -75q-103 0 -175 49t-102.5 136t-15.5 196t69.5 191t138.5 126.5t189 44.5
q85 0 149 -33.5zM405.5 -195.5q-41.5 -23.5 -95.5 -23.5q-84 0 -129 29l33 59q44 -26 81 -26q20 0 34 7t16 19q3 19 -16.5 28.5t-67.5 9.5q-8 0 -10.5 2t2.5 10l49 86h79l-29 -57q56 0 80.5 -25t19.5 -57q-5 -38 -46.5 -61.5z" />
    <glyph glyph-name="Egrave" unicode="&#xc8;" horiz-adv-x="650" 
d="M121 723h534l-24 -161h-337l-17 -120h282l-22 -157h-283l-17 -123h340l-23 -162h-535zM553 834l-37 -77l-267 66l58 118z" />
    <glyph glyph-name="Eacute" unicode="&#xc9;" horiz-adv-x="650" 
d="M121 723h534l-24 -161h-337l-17 -120h282l-22 -157h-283l-17 -123h340l-23 -162h-535zM555 823l-287 -66l-15 77l277 107z" />
    <glyph glyph-name="Ecircumflex" unicode="&#xca;" horiz-adv-x="650" 
d="M121 723h534l-24 -161h-337l-17 -120h282l-22 -157h-283l-17 -123h340l-23 -162h-535zM407 868l-82 -82h-132l159 153h132l113 -153h-139z" />
    <glyph glyph-name="Edieresis" unicode="&#xcb;" horiz-adv-x="650" 
d="M121 723h534l-24 -161h-337l-17 -120h282l-22 -157h-283l-17 -123h340l-23 -162h-535zM363 790h-166l20 139h166zM597 790h-166l20 139h166z" />
    <glyph glyph-name="Igrave" unicode="&#xcc;" horiz-adv-x="325" 
d="M316 723l-102 -723h-195l102 723h195zM384 834l-37 -77l-267 66l58 118z" />
    <glyph glyph-name="Iacute" unicode="&#xcd;" horiz-adv-x="325" 
d="M316 723l-102 -723h-195l102 723h195zM386 823l-287 -66l-15 77l277 107z" />
    <glyph glyph-name="Icircumflex" unicode="&#xce;" horiz-adv-x="325" 
d="M316 723l-102 -723h-195l102 723h195zM238 868l-82 -82h-132l159 153h132l113 -153h-139z" />
    <glyph glyph-name="Idieresis" unicode="&#xcf;" horiz-adv-x="325" 
d="M316 723l-102 -723h-195l102 723h195zM194 790h-166l20 139h166zM428 790h-166l20 139h166z" />
    <glyph glyph-name="Eth" unicode="&#xd0;" horiz-adv-x="769" 
d="M681.5 620q79.5 -95 56.5 -256q-15 -108 -67.5 -190t-143.5 -128t-215 -46h-259l40 286h-43q-15 0 -19.5 5.5t-2.5 18.5l12 91q3 22 22 22h50l43 300h114q115 0 145 -1q188 -7 267.5 -102zM421 175q41 22 72.5 70t42.5 122q14 98 -24 150.5t-114 52.5h-70l-21 -147h116
q8 0 12.5 -5.5t3.5 -13.5l-13 -91q-2 -15 -10.5 -21t-25.5 -6h-102l-18 -133h70q40 0 81 22z" />
    <glyph glyph-name="Ntilde" unicode="&#xd1;" horiz-adv-x="803" 
d="M794 723l-102 -723h-176l-241 431l-61 -431h-195l102 723h196l225 -403l57 403h195zM605 808.5q-28 -8.5 -56 -8.5q-19 0 -39 4.5t-38 10.5q-45 15 -76 15q-20 0 -36 -5t-37 -19q-9 -5 -12 -5q-7 0 -10 12l-8 53q-1 2 -1.5 5t-0.5 7q1 7 14 18q23 19 46 29.5t55 10.5
q19 0 36.5 -4t33 -8.5t20.5 -5.5q45 -15 67 -15q37 0 79 27q6 4 12 4q9 0 11 -12l4 -64q1 -3 0 -7q-2 -11 -17 -22q-19 -12 -47 -20.5z" />
    <glyph glyph-name="Ograve" unicode="&#xd2;" 
d="M160.5 35.5q-73.5 45.5 -104.5 129t-15 195.5t71 196.5t141 130.5t191 46q104 0 176.5 -46t104 -130.5t16.5 -196.5q-16 -111 -71 -195t-140 -129.5t-190 -45.5q-106 0 -179.5 45.5zM470 196q44 50 59 161q16 115 -13.5 167.5t-93.5 52.5t-109 -52.5t-61 -167.5
q-16 -111 14.5 -161t95.5 -50q64 0 108 50zM607 834l-37 -77l-267 66l58 118z" />
    <glyph glyph-name="Oacute" unicode="&#xd3;" 
d="M160.5 35.5q-73.5 45.5 -104.5 129t-15 195.5t71 196.5t141 130.5t191 46q104 0 176.5 -46t104 -130.5t16.5 -196.5q-16 -111 -71 -195t-140 -129.5t-190 -45.5q-106 0 -179.5 45.5zM470 196q44 50 59 161q16 115 -13.5 167.5t-93.5 52.5t-109 -52.5t-61 -167.5
q-16 -111 14.5 -161t95.5 -50q64 0 108 50zM609 823l-287 -66l-15 77l277 107z" />
    <glyph glyph-name="Ocircumflex" unicode="&#xd4;" 
d="M160.5 35.5q-73.5 45.5 -104.5 129t-15 195.5t71 196.5t141 130.5t191 46q104 0 176.5 -46t104 -130.5t16.5 -196.5q-16 -111 -71 -195t-140 -129.5t-190 -45.5q-106 0 -179.5 45.5zM470 196q44 50 59 161q16 115 -13.5 167.5t-93.5 52.5t-109 -52.5t-61 -167.5
q-16 -111 14.5 -161t95.5 -50q64 0 108 50zM461 868l-82 -82h-132l159 153h132l113 -153h-139z" />
    <glyph glyph-name="Otilde" unicode="&#xd5;" 
d="M160.5 35.5q-73.5 45.5 -104.5 129t-15 195.5t71 196.5t141 130.5t191 46q104 0 176.5 -46t104 -130.5t16.5 -196.5q-16 -111 -71 -195t-140 -129.5t-190 -45.5q-106 0 -179.5 45.5zM470 196q44 50 59 161q16 115 -13.5 167.5t-93.5 52.5t-109 -52.5t-61 -167.5
q-16 -111 14.5 -161t95.5 -50q64 0 108 50zM590 808.5q-28 -8.5 -56 -8.5q-19 0 -39 4.5t-38 10.5q-45 15 -76 15q-20 0 -36 -5t-37 -19q-9 -5 -12 -5q-7 0 -10 12l-8 53q-1 2 -1.5 5t-0.5 7q1 7 14 18q23 19 46 29.5t55 10.5q19 0 36.5 -4t33 -8.5t20.5 -5.5q45 -15 67 -15
q37 0 79 27q6 4 12 4q9 0 11 -12l4 -64q1 -3 0 -7q-2 -11 -17 -22q-19 -12 -47 -20.5z" />
    <glyph glyph-name="Odieresis" unicode="&#xd6;" 
d="M160.5 35.5q-73.5 45.5 -104.5 129t-15 195.5t71 196.5t141 130.5t191 46q104 0 176.5 -46t104 -130.5t16.5 -196.5q-16 -111 -71 -195t-140 -129.5t-190 -45.5q-106 0 -179.5 45.5zM470 196q44 50 59 161q16 115 -13.5 167.5t-93.5 52.5t-109 -52.5t-61 -167.5
q-16 -111 14.5 -161t95.5 -50q64 0 108 50zM417 790h-166l20 139h166zM651 790h-166l20 139h166z" />
    <glyph glyph-name="multiply" unicode="&#xd7;" horiz-adv-x="609" 
d="M403 364l130 -151l-112 -98l-130 151l-173 -151l-82 98l172 151l-130 152l109 98l132 -153l174 153l85 -98z" />
    <glyph glyph-name="Oslash" unicode="&#xd8;" horiz-adv-x="790" 
d="M815 656q-1 -7 -9 -13l-84 -73q40 -87 23 -210q-16 -111 -71 -195t-140 -129.5t-190 -45.5q-132 0 -214 71l-64 -54q-12 -12 -23 -12q-9 0 -19 12l-33 39q-9 11 -8 20t10 16l75 64q-40 90 -23 214q16 112 71 196.5t141 130.5t191 46q136 0 215 -76l73 62q10 9 19 9
q7 0 12 -5l44 -54q5 -6 4 -13zM272 321l239 205q-10 30 -30.5 43.5t-53.5 13.5q-64 0 -99 -52.5t-52 -173.5q-3 -24 -4 -36zM516 394l-236 -204q21 -48 85 -48q43 0 71.5 21.5t46.5 68t29 125.5q3 24 4 37z" />
    <glyph glyph-name="Ugrave" unicode="&#xd9;" horiz-adv-x="754" 
d="M580 71q-84 -81 -250 -81t-228 81t-41 228l60 424h197l-61 -432q-10 -70 18 -104t78 -34t87 34t47 104l61 432h197l-60 -424q-21 -147 -105 -228zM580 834l-37 -77l-267 66l58 118z" />
    <glyph glyph-name="Uacute" unicode="&#xda;" horiz-adv-x="754" 
d="M580 71q-84 -81 -250 -81t-228 81t-41 228l60 424h197l-61 -432q-10 -70 18 -104t78 -34t87 34t47 104l61 432h197l-60 -424q-21 -147 -105 -228zM582 823l-287 -66l-15 77l277 107z" />
    <glyph glyph-name="Ucircumflex" unicode="&#xdb;" horiz-adv-x="754" 
d="M580 71q-84 -81 -250 -81t-228 81t-41 228l60 424h197l-61 -432q-10 -70 18 -104t78 -34t87 34t47 104l61 432h197l-60 -424q-21 -147 -105 -228zM434 868l-82 -82h-132l159 153h132l113 -153h-139z" />
    <glyph glyph-name="Udieresis" unicode="&#xdc;" horiz-adv-x="754" 
d="M580 71q-84 -81 -250 -81t-228 81t-41 228l60 424h197l-61 -432q-10 -70 18 -104t78 -34t87 34t47 104l61 432h197l-60 -424q-21 -147 -105 -228zM390 790h-166l20 139h166zM624 790h-166l20 139h166z" />
    <glyph glyph-name="Yacute" unicode="&#xdd;" horiz-adv-x="710" 
d="M447 301l-42 -301h-195l42 301l-195 422h210l106 -257l179 257h212zM602 823l-287 -66l-15 77l277 107z" />
    <glyph glyph-name="Thorn" unicode="&#xde;" horiz-adv-x="739" 
d="M667.5 243q-40.5 -51 -105.5 -78t-144 -27h-158l-19 -138h-222l102 723h222l-19 -130h132q82 0 145.5 -26t95 -78t21.5 -126q-10 -69 -50.5 -120zM476 417.5q-21 19.5 -55 19.5h-119l-20 -143h124q34 0 58 21t28 51q5 32 -16 51.5z" />
    <glyph glyph-name="germandbls" unicode="&#xdf;" horiz-adv-x="672" 
d="M564 683q54 -40 44 -117q-7 -51 -44 -86t-117 -66q-5 -2 -6 -6q-1 -5 6 -8q68 -32 106 -57.5t60 -66t14 -101.5q-13 -89 -79.5 -137t-171.5 -48q-78 0 -127 32l69 116q17 -13 32 -20.5t38 -7.5q24 0 42.5 11t21.5 33q3 19 -11 30.5t-56 30.5q-101 49 -88 144
q5 35 22.5 61t43.5 50q8 7 27 23.5t29.5 31t12.5 29.5q3 21 -11.5 34.5t-43.5 13.5q-37 0 -60.5 -22.5t-28.5 -57.5l-73 -522h-191l49 352h-54l19 132h53q18 102 92 170.5t218 68.5q109 0 163 -40z" />
    <glyph glyph-name="agrave" unicode="&#xe0;" horiz-adv-x="582" 
d="M517 0h-196h196zM321 0l8 48q-38 -32 -74 -45t-72 -13q-90 0 -139 66q-48 64 -29 204q12 88 47.5 148t85 89.5t105.5 29.5q38 0 73.5 -13t61.5 -37l6 40h196l-74 -517h-195zM325 155q24 39 34 109q19 136 -51 136q-35 0 -60.5 -34t-35.5 -102t6 -108t50 -40q33 0 57 39z
M484 628l-37 -77l-267 66l58 118z" />
    <glyph glyph-name="aacute" unicode="&#xe1;" horiz-adv-x="582" 
d="M517 0h-196h196zM321 0l8 48q-38 -32 -74 -45t-72 -13q-90 0 -139 66q-48 64 -29 204q12 88 47.5 148t85 89.5t105.5 29.5q38 0 73.5 -13t61.5 -37l6 40h196l-74 -517h-195zM325 155q24 39 34 109q19 136 -51 136q-35 0 -60.5 -34t-35.5 -102t6 -108t50 -40q33 0 57 39z
M486 617l-287 -66l-15 77l277 107z" />
    <glyph glyph-name="acircumflex" unicode="&#xe2;" horiz-adv-x="582" 
d="M517 0h-196h196zM321 0l8 48q-38 -32 -74 -45t-72 -13q-90 0 -139 66q-48 64 -29 204q12 88 47.5 148t85 89.5t105.5 29.5q38 0 73.5 -13t61.5 -37l6 40h196l-74 -517h-195zM325 155q24 39 34 109q19 136 -51 136q-35 0 -60.5 -34t-35.5 -102t6 -108t50 -40q33 0 57 39z
M338 662l-82 -82h-132l159 153h132l113 -153h-139z" />
    <glyph glyph-name="atilde" unicode="&#xe3;" horiz-adv-x="582" 
d="M517 0h-196h196zM321 0l8 48q-38 -32 -74 -45t-72 -13q-90 0 -139 66q-48 64 -29 204q12 88 47.5 148t85 89.5t105.5 29.5q38 0 73.5 -13t61.5 -37l6 40h196l-74 -517h-195zM325 155q24 39 34 109q19 136 -51 136q-35 0 -60.5 -34t-35.5 -102t6 -108t50 -40q33 0 57 39z
M467 602.5q-28 -8.5 -56 -8.5q-19 0 -39 4.5t-38 10.5q-45 15 -76 15q-20 0 -36 -5t-37 -19q-9 -5 -12 -5q-7 0 -10 12l-8 53q-1 2 -1.5 5t-0.5 7q1 7 14 18q23 19 46 29.5t55 10.5q19 0 36.5 -4t33 -8.5t20.5 -5.5q45 -15 67 -15q37 0 79 27q6 4 12 4q9 0 11 -12l4 -64
q1 -3 0 -7q-2 -11 -17 -22q-19 -12 -47 -20.5z" />
    <glyph glyph-name="adieresis" unicode="&#xe4;" horiz-adv-x="582" 
d="M517 0h-196h196zM321 0l8 48q-38 -32 -74 -45t-72 -13q-90 0 -139 66q-48 64 -29 204q12 88 47.5 148t85 89.5t105.5 29.5q38 0 73.5 -13t61.5 -37l6 40h196l-74 -517h-195zM325 155q24 39 34 109q19 136 -51 136q-35 0 -60.5 -34t-35.5 -102t6 -108t50 -40q33 0 57 39z
M294 584h-166l20 139h166zM528 584h-166l20 139h166z" />
    <glyph glyph-name="aring" unicode="&#xe5;" horiz-adv-x="582" 
d="M517 0h-196h196zM321 0l8 48q-38 -32 -74 -45t-72 -13q-90 0 -139 66q-48 64 -29 204q12 88 47.5 148t85 89.5t105.5 29.5q38 0 73.5 -13t61.5 -37l6 40h196l-74 -517h-195zM325 155q24 39 34 109q19 136 -51 136q-35 0 -60.5 -34t-35.5 -102t6 -108t50 -40q33 0 57 39z
M410 592q-38 -33 -85 -33q-48 0 -76.5 33.5t-21.5 82.5q6 46 44.5 78t85.5 32t76 -33t22 -79q-7 -48 -45 -81zM377 705q-12 13 -31 13q-20 0 -35.5 -13.5t-18.5 -32.5t9.5 -33.5t31.5 -14.5t34.5 14.5t18.5 33.5q3 20 -9 33z" />
    <glyph glyph-name="ae" unicode="&#xe6;" horiz-adv-x="904" 
d="M548.5 145.5q24.5 -26.5 68.5 -26.5q28 0 56 13.5t66 47.5l112 -48q-65 -81 -127 -111.5t-151 -30.5q-61 0 -111 21t-81 58q-5 6 -10 0q-51 -42 -103.5 -60.5t-120.5 -18.5q-81 0 -119.5 40.5t-28.5 108.5q11 80 89 128.5t217 55.5l41 2l4 29q8 56 -49 56q-61 0 -92 -60
l-163 33q28 50 62 81t85.5 47t127.5 16q124 -1 177 -39q71 39 146 39q77 0 132 -36.5t79.5 -105t10.5 -162.5h-335q-7 -51 17.5 -77.5zM579 389.5q-25 -22.5 -30 -64.5l143 -1q4 29 -9 58.5t-46 29.5t-58 -22.5zM301 227q-35 -3 -70.5 -23t-40.5 -52q-3 -22 10.5 -34.5
t41.5 -12.5q29 0 53 14t27 37l10 73z" />
    <glyph glyph-name="ccedilla" unicode="&#xe7;" horiz-adv-x="535" 
d="M429.5 496.5q46.5 -30.5 66 -80.5t13.5 -110h-158q0 30 -12 53.5t-45 23.5q-38 0 -65 -32t-36 -93q-9 -62 10.5 -98t57.5 -36q32 0 50.5 25t26.5 51h153q-8 -56 -41.5 -104t-88.5 -77t-123 -29q-74 0 -129 33.5t-80.5 94t-14.5 138.5q11 79 53.5 140.5t107 96t138.5 34.5
q70 0 116.5 -30.5zM307.5 -195.5q-41.5 -23.5 -95.5 -23.5q-84 0 -129 29l33 59q44 -26 81 -26q20 0 34 7t16 19q3 19 -16.5 28.5t-67.5 9.5q-8 0 -10.5 2t2.5 10l49 86h79l-29 -57q56 0 80.5 -25t19.5 -57q-5 -38 -46.5 -61.5z" />
    <glyph glyph-name="egrave" unicode="&#xe8;" horiz-adv-x="566" 
d="M210 148q18 -22 52 -22q30 0 51.5 11t36.5 39h172q-16 -55 -58.5 -97.5t-100 -65.5t-115.5 -23q-80 0 -137 32.5t-83 92t-15 137.5q11 75 51.5 138t105.5 100t145 37q82 0 134 -34.5t72.5 -95t9.5 -138.5l-6 -45h-326q-7 -44 11 -66zM361 323q4 31 -12.5 52t-51.5 21
q-30 0 -55 -22t-29 -51h148zM480 628l-37 -77l-267 66l58 118z" />
    <glyph glyph-name="eacute" unicode="&#xe9;" horiz-adv-x="566" 
d="M210 148q18 -22 52 -22q30 0 51.5 11t36.5 39h172q-16 -55 -58.5 -97.5t-100 -65.5t-115.5 -23q-80 0 -137 32.5t-83 92t-15 137.5q11 75 51.5 138t105.5 100t145 37q82 0 134 -34.5t72.5 -95t9.5 -138.5l-6 -45h-326q-7 -44 11 -66zM361 323q4 31 -12.5 52t-51.5 21
q-30 0 -55 -22t-29 -51h148zM482 617l-287 -66l-15 77l277 107z" />
    <glyph glyph-name="ecircumflex" unicode="&#xea;" horiz-adv-x="566" 
d="M210 148q18 -22 52 -22q30 0 51.5 11t36.5 39h172q-16 -55 -58.5 -97.5t-100 -65.5t-115.5 -23q-80 0 -137 32.5t-83 92t-15 137.5q11 75 51.5 138t105.5 100t145 37q82 0 134 -34.5t72.5 -95t9.5 -138.5l-6 -45h-326q-7 -44 11 -66zM361 323q4 31 -12.5 52t-51.5 21
q-30 0 -55 -22t-29 -51h148zM334 662l-82 -82h-132l159 153h132l113 -153h-139z" />
    <glyph glyph-name="edieresis" unicode="&#xeb;" horiz-adv-x="566" 
d="M210 148q18 -22 52 -22q30 0 51.5 11t36.5 39h172q-16 -55 -58.5 -97.5t-100 -65.5t-115.5 -23q-80 0 -137 32.5t-83 92t-15 137.5q11 75 51.5 138t105.5 100t145 37q82 0 134 -34.5t72.5 -95t9.5 -138.5l-6 -45h-326q-7 -44 11 -66zM361 323q4 31 -12.5 52t-51.5 21
q-30 0 -55 -22t-29 -51h148zM290 584h-166l20 139h166zM524 584h-166l20 139h166z" />
    <glyph glyph-name="igrave" unicode="&#xec;" horiz-adv-x="307" 
d="M205 0h-195l73 517h195zM349 628l-37 -77l-267 66l58 118z" />
    <glyph glyph-name="iacute" unicode="&#xed;" horiz-adv-x="307" 
d="M205 0h-195l73 517h195zM351 617l-287 -66l-15 77l277 107z" />
    <glyph glyph-name="icircumflex" unicode="&#xee;" horiz-adv-x="307" 
d="M205 0h-195l73 517h195zM203 662l-82 -82h-132l159 153h132l113 -153h-139z" />
    <glyph glyph-name="idieresis" unicode="&#xef;" horiz-adv-x="307" 
d="M205 0h-195l73 517h195zM159 584h-166l20 139h166zM393 584h-166l20 139h166z" />
    <glyph glyph-name="eth" unicode="&#xf0;" horiz-adv-x="592" 
d="M505 123.5q-43 -64.5 -109.5 -99t-147.5 -34.5q-78 0 -135.5 33.5t-84 92t-15.5 130.5q11 75 54.5 134.5t110.5 93t143 33.5q5 0 3 5q-19 33 -55 63l-117 -60l-25 53l87 44q-41 23 -88 39l112 83q74 -18 125 -45l93 48l22 -54l-58 -31q82 -64 119.5 -163t21.5 -214
q-13 -87 -56 -151.5zM327.5 148q22.5 33 32.5 102q10 70 -3.5 103t-52.5 33q-38 0 -61 -33.5t-33 -102.5t4 -102t52 -33q39 0 61.5 33z" />
    <glyph glyph-name="ntilde" unicode="&#xf1;" horiz-adv-x="625" 
d="M83 517h193l-9 -62q26 24 42.5 35.5t42 20t63.5 8.5q45 0 84 -22.5t59.5 -61.5t13.5 -86l-49 -349h-195l45 323q3 21 -13.5 34t-39.5 13q-24 0 -45.5 -13t-24.5 -34l-45 -323h-195zM487 602.5q-28 -8.5 -56 -8.5q-19 0 -39 4.5t-38 10.5q-45 15 -76 15q-20 0 -36 -5
t-37 -19q-9 -5 -12 -5q-7 0 -10 12l-8 53q-1 2 -1.5 5t-0.5 7q1 7 14 18q23 19 46 29.5t55 10.5q19 0 36.5 -4t33 -8.5t20.5 -5.5q45 -15 67 -15q37 0 79 27q6 4 12 4q9 0 11 -12l4 -64q1 -3 0 -7q-2 -11 -17 -22q-19 -12 -47 -20.5z" />
    <glyph glyph-name="ograve" unicode="&#xf2;" horiz-adv-x="573" 
d="M105 23.5q-55 33.5 -78.5 94t-12.5 137.5q11 80 53.5 142t107 96t140.5 34q79 0 133.5 -35t78 -97t12.5 -140q-11 -77 -52 -137t-105 -94t-143 -34t-134 33.5zM322 170q21 39 29 92q18 126 -55 126q-74 0 -92 -126q-8 -54 2.5 -92.5t52.5 -38.5t63 39zM479 628l-37 -77
l-267 66l58 118z" />
    <glyph glyph-name="oacute" unicode="&#xf3;" horiz-adv-x="573" 
d="M105 23.5q-55 33.5 -78.5 94t-12.5 137.5q11 80 53.5 142t107 96t140.5 34q79 0 133.5 -35t78 -97t12.5 -140q-11 -77 -52 -137t-105 -94t-143 -34t-134 33.5zM322 170q21 39 29 92q18 126 -55 126q-74 0 -92 -126q-8 -54 2.5 -92.5t52.5 -38.5t63 39zM481 617l-287 -66
l-15 77l277 107z" />
    <glyph glyph-name="ocircumflex" unicode="&#xf4;" horiz-adv-x="573" 
d="M105 23.5q-55 33.5 -78.5 94t-12.5 137.5q11 80 53.5 142t107 96t140.5 34q79 0 133.5 -35t78 -97t12.5 -140q-11 -77 -52 -137t-105 -94t-143 -34t-134 33.5zM322 170q21 39 29 92q18 126 -55 126q-74 0 -92 -126q-8 -54 2.5 -92.5t52.5 -38.5t63 39zM333 662l-82 -82
h-132l159 153h132l113 -153h-139z" />
    <glyph glyph-name="otilde" unicode="&#xf5;" horiz-adv-x="573" 
d="M105 23.5q-55 33.5 -78.5 94t-12.5 137.5q11 80 53.5 142t107 96t140.5 34q79 0 133.5 -35t78 -97t12.5 -140q-11 -77 -52 -137t-105 -94t-143 -34t-134 33.5zM322 170q21 39 29 92q18 126 -55 126q-74 0 -92 -126q-8 -54 2.5 -92.5t52.5 -38.5t63 39zM462 602.5
q-28 -8.5 -56 -8.5q-19 0 -39 4.5t-38 10.5q-45 15 -76 15q-20 0 -36 -5t-37 -19q-9 -5 -12 -5q-7 0 -10 12l-8 53q-1 2 -1.5 5t-0.5 7q1 7 14 18q23 19 46 29.5t55 10.5q19 0 36.5 -4t33 -8.5t20.5 -5.5q45 -15 67 -15q37 0 79 27q6 4 12 4q9 0 11 -12l4 -64q1 -3 0 -7
q-2 -11 -17 -22q-19 -12 -47 -20.5z" />
    <glyph glyph-name="odieresis" unicode="&#xf6;" horiz-adv-x="573" 
d="M105 23.5q-55 33.5 -78.5 94t-12.5 137.5q11 80 53.5 142t107 96t140.5 34q79 0 133.5 -35t78 -97t12.5 -140q-11 -77 -52 -137t-105 -94t-143 -34t-134 33.5zM322 170q21 39 29 92q18 126 -55 126q-74 0 -92 -126q-8 -54 2.5 -92.5t52.5 -38.5t63 39zM289 584h-166
l20 139h166zM523 584h-166l20 139h166z" />
    <glyph glyph-name="divide" unicode="&#xf7;" horiz-adv-x="611" 
d="M417 491h-185l25 178h185zM550 295h-509l20 138h509zM356 59h-185l25 178h185z" />
    <glyph glyph-name="oslash" unicode="&#xf8;" horiz-adv-x="612" 
d="M535 408q30 -67 18 -153q-11 -77 -52 -137t-105 -94t-143 -34q-99 0 -161 53l-63 -52l-50 62l66 54q-29 62 -17 148q11 80 53.5 142t107 96t140.5 34q100 0 160 -55l65 53l48 -62zM216 247l140 116q-14 25 -46 25q-74 0 -92 -126zM366 268l-138 -113q15 -24 45 -24
q42 0 63 39t29 92z" />
    <glyph glyph-name="ugrave" unicode="&#xf9;" horiz-adv-x="625" 
d="M114 10q-42 20 -65.5 57t-16.5 86l51 364h195l-48 -337q-3 -23 11 -38t42 -15t46.5 15t21.5 38l48 337h197l-77 -517h-144l-4 68q-29 -39 -78 -58.5t-93 -19.5t-86 20zM504 628l-37 -77l-267 66l58 118z" />
    <glyph glyph-name="uacute" unicode="&#xfa;" horiz-adv-x="625" 
d="M114 10q-42 20 -65.5 57t-16.5 86l51 364h195l-48 -337q-3 -23 11 -38t42 -15t46.5 15t21.5 38l48 337h197l-77 -517h-144l-4 68q-29 -39 -78 -58.5t-93 -19.5t-86 20zM506 617l-287 -66l-15 77l277 107z" />
    <glyph glyph-name="ucircumflex" unicode="&#xfb;" horiz-adv-x="625" 
d="M114 10q-42 20 -65.5 57t-16.5 86l51 364h195l-48 -337q-3 -23 11 -38t42 -15t46.5 15t21.5 38l48 337h197l-77 -517h-144l-4 68q-29 -39 -78 -58.5t-93 -19.5t-86 20zM358 662l-82 -82h-132l159 153h132l113 -153h-139z" />
    <glyph glyph-name="udieresis" unicode="&#xfc;" horiz-adv-x="625" 
d="M114 10q-42 20 -65.5 57t-16.5 86l51 364h195l-48 -337q-3 -23 11 -38t42 -15t46.5 15t21.5 38l48 337h197l-77 -517h-144l-4 68q-29 -39 -78 -58.5t-93 -19.5t-86 20zM314 584h-166l20 139h166zM548 584h-166l20 139h166z" />
    <glyph glyph-name="yacute" unicode="&#xfd;" horiz-adv-x="603" 
d="M36.5 -160q-24.5 5 -35.5 10t-14 7l17 123l50 -3q8 -1 23 -1q35 0 54.5 8.5t25 16.5t11.5 19l3 10l-132 487h191l58 -281l142 281h190l-271 -487q-43 -79 -83.5 -121.5t-80 -58t-88.5 -15.5q-36 0 -60.5 5zM520 617l-287 -66l-15 77l277 107z" />
    <glyph glyph-name="thorn" unicode="&#xfe;" horiz-adv-x="618" 
d="M270 457q38 35 75.5 52.5t85.5 17.5q85 0 128.5 -67.5t25.5 -199.5q-20 -139 -83.5 -204.5t-152.5 -65.5q-36 0 -64.5 11t-53.5 39q-10 10 -14 10q-5 0 -7 -15l-28 -196h-195l125 884h196zM288 108q39 0 63.5 34.5t36.5 123.5q11 81 -3.5 112t-54.5 31q-29 0 -50.5 -16
t-24.5 -39l-29 -207q21 -39 62 -39z" />
    <glyph glyph-name="ydieresis" unicode="&#xff;" horiz-adv-x="603" 
d="M36.5 -160q-24.5 5 -35.5 10t-14 7l17 123l50 -3q8 -1 23 -1q35 0 54.5 8.5t25 16.5t11.5 19l3 10l-132 487h191l58 -281l142 281h190l-271 -487q-43 -79 -83.5 -121.5t-80 -58t-88.5 -15.5q-36 0 -60.5 5zM328 584h-166l20 139h166zM562 584h-166l20 139h166z" />
    <glyph glyph-name="Amacron" unicode="&#x100;" horiz-adv-x="724" 
d="M319 723h199l154 -723h-192l-28 140h-228l-69 -140h-194zM431 306l-39 231l-104 -231h143zM645 810h-400l17 119h400z" />
    <glyph glyph-name="amacron" unicode="&#x101;" horiz-adv-x="582" 
d="M517 0h-196h196zM321 0l8 48q-38 -32 -74 -45t-72 -13q-90 0 -139 66q-48 64 -29 204q12 88 47.5 148t85 89.5t105.5 29.5q38 0 73.5 -13t61.5 -37l6 40h196l-74 -517h-195zM325 155q24 39 34 109q19 136 -51 136q-35 0 -60.5 -34t-35.5 -102t6 -108t50 -40q33 0 57 39z
M531 604h-400l17 119h400z" />
    <glyph glyph-name="Abreve" unicode="&#x102;" horiz-adv-x="724" 
d="M319 723h199l154 -723h-192l-28 140h-228l-69 -140h-194zM431 306l-39 231l-104 -231h143zM569.5 821q-58.5 -37 -127.5 -37t-118 36.5t-59 108.5h105q10 -26 33.5 -42t50.5 -16q25 0 53.5 16t45.5 42h106q-31 -71 -89.5 -108z" />
    <glyph glyph-name="abreve" unicode="&#x103;" horiz-adv-x="582" 
d="M517 0h-196h196zM321 0l8 48q-38 -32 -74 -45t-72 -13q-90 0 -139 66q-48 64 -29 204q12 88 47.5 148t85 89.5t105.5 29.5q38 0 73.5 -13t61.5 -37l6 40h196l-74 -517h-195zM325 155q24 39 34 109q19 136 -51 136q-35 0 -60.5 -34t-35.5 -102t6 -108t50 -40q33 0 57 39z
M455.5 615q-58.5 -37 -127.5 -37t-118 36.5t-59 108.5h105q10 -26 33.5 -42t50.5 -16q25 0 53.5 16t45.5 42h106q-31 -71 -89.5 -108z" />
    <glyph glyph-name="Aogonek" unicode="&#x104;" horiz-adv-x="724" 
d="M319 723h199l154 -723h-192l-28 140h-228l-69 -140h-194zM431 306l-39 231l-104 -231h143zM486 -36q22 22 78 41h133q-54 -17 -75.5 -31.5t-23.5 -32.5q-4 -28 23 -28q15 0 27 4t30 12q6 3 11 3q8 0 6 -14l-8 -51q-2 -11 -12 -17q-16 -8 -46.5 -14.5t-62.5 -6.5
q-55 0 -83.5 21.5t-22.5 63.5q4 28 26 50z" />
    <glyph glyph-name="aogonek" unicode="&#x105;" horiz-adv-x="582" 
d="M517 0h-196h196zM321 0l8 48q-38 -32 -74 -45t-72 -13q-90 0 -139 66q-48 64 -29 204q12 88 47.5 148t85 89.5t105.5 29.5q38 0 73.5 -13t61.5 -37l6 40h196l-74 -517h-195zM325 155q24 39 34 109q19 136 -51 136q-35 0 -60.5 -34t-35.5 -102t6 -108t50 -40q33 0 57 39z
M264 -35q22 22 78 41h133q-54 -17 -75.5 -31.5t-23.5 -32.5q-4 -28 23 -28q15 0 27 4t30 12q6 3 11 3q8 0 6 -14l-8 -51q-2 -11 -12 -17q-16 -8 -46.5 -14.5t-62.5 -6.5q-55 0 -83.5 21.5t-22.5 63.5q4 28 26 50z" />
    <glyph glyph-name="Cacute" unicode="&#x106;" horiz-adv-x="732" 
d="M588 699.5q64 -33.5 97.5 -94t30.5 -137.5h-203q-1 51 -27.5 80t-75.5 29q-59 0 -99 -48t-56 -161q-16 -115 10.5 -168.5t84.5 -53.5q48 0 83 35t52 89h203q-35 -130 -114.5 -205t-238.5 -75q-103 0 -175 49t-102.5 136t-15.5 196t69.5 191t138.5 126.5t189 44.5
q85 0 149 -33.5zM605 823l-287 -66l-15 77l277 107z" />
    <glyph glyph-name="cacute" unicode="&#x107;" horiz-adv-x="535" 
d="M429.5 496.5q46.5 -30.5 66 -80.5t13.5 -110h-158q0 30 -12 53.5t-45 23.5q-38 0 -65 -32t-36 -93q-9 -62 10.5 -98t57.5 -36q32 0 50.5 25t26.5 51h153q-8 -56 -41.5 -104t-88.5 -77t-123 -29q-74 0 -129 33.5t-80.5 94t-14.5 138.5q11 79 53.5 140.5t107 96t138.5 34.5
q70 0 116.5 -30.5zM479 617l-287 -66l-15 77l277 107z" />
    <glyph glyph-name="Ccircumflex" unicode="&#x108;" horiz-adv-x="732" 
d="M588 699.5q64 -33.5 97.5 -94t30.5 -137.5h-203q-1 51 -27.5 80t-75.5 29q-59 0 -99 -48t-56 -161q-16 -115 10.5 -168.5t84.5 -53.5q48 0 83 35t52 89h203q-35 -130 -114.5 -205t-238.5 -75q-103 0 -175 49t-102.5 136t-15.5 196t69.5 191t138.5 126.5t189 44.5
q85 0 149 -33.5zM457 868l-82 -82h-132l159 153h132l113 -153h-139z" />
    <glyph glyph-name="ccircumflex" unicode="&#x109;" horiz-adv-x="535" 
d="M429.5 496.5q46.5 -30.5 66 -80.5t13.5 -110h-158q0 30 -12 53.5t-45 23.5q-38 0 -65 -32t-36 -93q-9 -62 10.5 -98t57.5 -36q32 0 50.5 25t26.5 51h153q-8 -56 -41.5 -104t-88.5 -77t-123 -29q-74 0 -129 33.5t-80.5 94t-14.5 138.5q11 79 53.5 140.5t107 96t138.5 34.5
q70 0 116.5 -30.5zM331 662l-82 -82h-132l159 153h132l113 -153h-139z" />
    <glyph glyph-name="Cdotaccent" unicode="&#x10a;" horiz-adv-x="732" 
d="M588 699.5q64 -33.5 97.5 -94t30.5 -137.5h-203q-1 51 -27.5 80t-75.5 29q-59 0 -99 -48t-56 -161q-16 -115 10.5 -168.5t84.5 -53.5q48 0 83 35t52 89h203q-35 -130 -114.5 -205t-238.5 -75q-103 0 -175 49t-102.5 136t-15.5 196t69.5 191t138.5 126.5t189 44.5
q85 0 149 -33.5zM542 766h-195l23 163h195z" />
    <glyph glyph-name="cdotaccent" unicode="&#x10b;" horiz-adv-x="535" 
d="M429.5 496.5q46.5 -30.5 66 -80.5t13.5 -110h-158q0 30 -12 53.5t-45 23.5q-38 0 -65 -32t-36 -93q-9 -62 10.5 -98t57.5 -36q32 0 50.5 25t26.5 51h153q-8 -56 -41.5 -104t-88.5 -77t-123 -29q-74 0 -129 33.5t-80.5 94t-14.5 138.5q11 79 53.5 140.5t107 96t138.5 34.5
q70 0 116.5 -30.5zM416 560h-195l23 163h195z" />
    <glyph glyph-name="Ccaron" unicode="&#x10c;" horiz-adv-x="732" 
d="M588 699.5q64 -33.5 97.5 -94t30.5 -137.5h-203q-1 51 -27.5 80t-75.5 29q-59 0 -99 -48t-56 -161q-16 -115 10.5 -168.5t84.5 -53.5q48 0 83 35t52 89h203q-35 -130 -114.5 -205t-238.5 -75q-103 0 -175 49t-102.5 136t-15.5 196t69.5 191t138.5 126.5t189 44.5
q85 0 149 -33.5zM667 930l-156 -154h-133l-115 154h132l59 -82l74 82h139z" />
    <glyph glyph-name="ccaron" unicode="&#x10d;" horiz-adv-x="535" 
d="M429.5 496.5q46.5 -30.5 66 -80.5t13.5 -110h-158q0 30 -12 53.5t-45 23.5q-38 0 -65 -32t-36 -93q-9 -62 10.5 -98t57.5 -36q32 0 50.5 25t26.5 51h153q-8 -56 -41.5 -104t-88.5 -77t-123 -29q-74 0 -129 33.5t-80.5 94t-14.5 138.5q11 79 53.5 140.5t107 96t138.5 34.5
q70 0 116.5 -30.5zM541 724l-156 -154h-133l-115 154h132l59 -82l74 82h139z" />
    <glyph glyph-name="Dcaron" unicode="&#x10e;" horiz-adv-x="735" 
d="M235 723q115 0 145 -1q188 -7 267.5 -102t56.5 -256q-15 -108 -67.5 -190t-143.5 -128t-215 -46h-259l102 723h114zM236 153h70q40 0 81 22t72.5 70t42.5 122q14 98 -24 150.5t-114 52.5h-70zM654 930l-156 -154h-133l-115 154h132l59 -82l74 82h139z" />
    <glyph glyph-name="dcaron" unicode="&#x10f;" horiz-adv-x="619" 
d="M45 63q-48 73 -30 199q17 123 80 194t158 71q44 0 80.5 -16t52.5 -53l40 285h195l-104 -743h-138l-5 68q-26 -34 -71 -56t-104 -22q-106 0 -154 73zM323.5 154.5q24.5 28.5 32.5 84.5l6 45q15 106 -62 106q-35 0 -61 -27.5t-36 -98.5q-10 -73 7.5 -105.5t54.5 -32.5
q34 0 58.5 28.5zM468 282q-2 5 1 10l41 75q4 8 4 12q1 8 -9 9l-11 2q-9 1 -12.5 4.5t-2.5 11.5l14 96q2 15 15 15h95q13 0 11 -12l-16 -115q-1 -4 -5 -10l-49 -88q-4 -8 -11 -11.5t-21 -3.5h-36q-6 0 -8 5z" />
    <glyph glyph-name="Dcroat" unicode="&#x110;" horiz-adv-x="769" 
d="M681.5 620q79.5 -95 56.5 -256q-15 -108 -67.5 -190t-143.5 -128t-215 -46h-259l40 286h-43q-15 0 -19.5 5.5t-2.5 18.5l12 91q3 22 22 22h50l43 300h114q115 0 145 -1q188 -7 267.5 -102zM421 175q41 22 72.5 70t42.5 122q14 98 -24 150.5t-114 52.5h-70l-21 -147h116
q8 0 12.5 -5.5t3.5 -13.5l-13 -91q-2 -15 -10.5 -21t-25.5 -6h-102l-18 -133h70q40 0 81 22z" />
    <glyph glyph-name="dcroat" unicode="&#x111;" horiz-adv-x="620" 
d="M625 566h-28l-80 -566h-138l-5 68q-26 -34 -71 -56t-104 -22q-106 0 -154 73t-30 199q17 123 80 194t158 71q44 0 80.5 -16t52.5 -53l16 108h-139l14 104h139l10 73h195l-10 -73h28zM362 284q15 106 -62 106q-35 0 -61 -27.5t-36 -98.5q-10 -73 7.5 -105.5t54.5 -32.5
q34 0 58.5 28.5t32.5 84.5z" />
    <glyph glyph-name="Emacron" unicode="&#x112;" horiz-adv-x="650" 
d="M121 723h534l-24 -161h-337l-17 -120h282l-22 -157h-283l-17 -123h340l-23 -162h-535zM600 810h-400l17 119h400z" />
    <glyph glyph-name="emacron" unicode="&#x113;" horiz-adv-x="566" 
d="M210 148q18 -22 52 -22q30 0 51.5 11t36.5 39h172q-16 -55 -58.5 -97.5t-100 -65.5t-115.5 -23q-80 0 -137 32.5t-83 92t-15 137.5q11 75 51.5 138t105.5 100t145 37q82 0 134 -34.5t72.5 -95t9.5 -138.5l-6 -45h-326q-7 -44 11 -66zM361 323q4 31 -12.5 52t-51.5 21
q-30 0 -55 -22t-29 -51h148zM527 604h-400l17 119h400z" />
    <glyph glyph-name="Ebreve" unicode="&#x114;" horiz-adv-x="650" 
d="M121 723h534l-24 -161h-337l-17 -120h282l-22 -157h-283l-17 -123h340l-23 -162h-535zM524.5 821q-58.5 -37 -127.5 -37t-118 36.5t-59 108.5h105q10 -26 33.5 -42t50.5 -16q25 0 53.5 16t45.5 42h106q-31 -71 -89.5 -108z" />
    <glyph glyph-name="ebreve" unicode="&#x115;" horiz-adv-x="566" 
d="M210 148q18 -22 52 -22q30 0 51.5 11t36.5 39h172q-16 -55 -58.5 -97.5t-100 -65.5t-115.5 -23q-80 0 -137 32.5t-83 92t-15 137.5q11 75 51.5 138t105.5 100t145 37q82 0 134 -34.5t72.5 -95t9.5 -138.5l-6 -45h-326q-7 -44 11 -66zM361 323q4 31 -12.5 52t-51.5 21
q-30 0 -55 -22t-29 -51h148zM451.5 615q-58.5 -37 -127.5 -37t-118 36.5t-59 108.5h105q10 -26 33.5 -42t50.5 -16q25 0 53.5 16t45.5 42h106q-31 -71 -89.5 -108z" />
    <glyph glyph-name="Edotaccent" unicode="&#x116;" horiz-adv-x="650" 
d="M121 723h534l-24 -161h-337l-17 -120h282l-22 -157h-283l-17 -123h340l-23 -162h-535zM492 766h-195l23 163h195z" />
    <glyph glyph-name="edotaccent" unicode="&#x117;" horiz-adv-x="566" 
d="M210 148q18 -22 52 -22q30 0 51.5 11t36.5 39h172q-16 -55 -58.5 -97.5t-100 -65.5t-115.5 -23q-80 0 -137 32.5t-83 92t-15 137.5q11 75 51.5 138t105.5 100t145 37q82 0 134 -34.5t72.5 -95t9.5 -138.5l-6 -45h-326q-7 -44 11 -66zM361 323q4 31 -12.5 52t-51.5 21
q-30 0 -55 -22t-29 -51h148zM419 560h-195l23 163h195z" />
    <glyph glyph-name="Eogonek" unicode="&#x118;" horiz-adv-x="650" 
d="M121 723h534l-24 -161h-337l-17 -120h282l-22 -157h-283l-17 -123h340l-23 -162h-535zM365 -35q22 22 78 41h133q-54 -17 -75.5 -31.5t-23.5 -32.5q-4 -28 23 -28q15 0 27 4t30 12q6 3 11 3q8 0 6 -14l-8 -51q-2 -11 -12 -17q-16 -8 -46.5 -14.5t-62.5 -6.5
q-55 0 -83.5 21.5t-22.5 63.5q4 28 26 50z" />
    <glyph glyph-name="eogonek" unicode="&#x119;" horiz-adv-x="566" 
d="M210 148q18 -22 52 -22q30 0 51.5 11t36.5 39h172q-16 -55 -58.5 -97.5t-100 -65.5t-115.5 -23q-80 0 -137 32.5t-83 92t-15 137.5q11 75 51.5 138t105.5 100t145 37q82 0 134 -34.5t72.5 -95t9.5 -138.5l-6 -45h-326q-7 -44 11 -66zM361 323q4 31 -12.5 52t-51.5 21
q-30 0 -55 -22t-29 -51h148zM184 -20q22 22 78 41h133q-54 -17 -75.5 -31.5t-23.5 -32.5q-4 -28 23 -28q15 0 27 4t30 12q6 3 11 3q8 0 6 -14l-8 -51q-2 -11 -12 -17q-16 -8 -46.5 -14.5t-62.5 -6.5q-55 0 -83.5 21.5t-22.5 63.5q4 28 26 50z" />
    <glyph glyph-name="Ecaron" unicode="&#x11a;" horiz-adv-x="650" 
d="M121 723h534l-24 -161h-337l-17 -120h282l-22 -157h-283l-17 -123h340l-23 -162h-535zM617 930l-156 -154h-133l-115 154h132l59 -82l74 82h139z" />
    <glyph glyph-name="ecaron" unicode="&#x11b;" horiz-adv-x="566" 
d="M210 148q18 -22 52 -22q30 0 51.5 11t36.5 39h172q-16 -55 -58.5 -97.5t-100 -65.5t-115.5 -23q-80 0 -137 32.5t-83 92t-15 137.5q11 75 51.5 138t105.5 100t145 37q82 0 134 -34.5t72.5 -95t9.5 -138.5l-6 -45h-326q-7 -44 11 -66zM361 323q4 31 -12.5 52t-51.5 21
q-30 0 -55 -22t-29 -51h148zM544 724l-156 -154h-133l-115 154h132l59 -82l74 82h139z" />
    <glyph glyph-name="Gcircumflex" unicode="&#x11c;" 
d="M158 36.5q-71 46.5 -102 130.5t-16 192q16 111 73 196t144 131.5t190 46.5q93 0 159.5 -37.5t97 -98t22.5 -129.5h-203q-3 47 -29 75.5t-75 28.5q-60 0 -105 -49t-61 -158q-17 -119 19.5 -162.5t96.5 -43.5q39 0 71 20.5t44 47.5l13 26h-126l18 131l331 -2l-54 -382h-128
l11 80q-30 -27 -56 -45t-66.5 -31.5t-95.5 -13.5q-102 0 -173 46.5zM455 868l-82 -82h-132l159 153h132l113 -153h-139z" />
    <glyph glyph-name="gcircumflex" unicode="&#x11d;" horiz-adv-x="653" 
d="M85 -155.5q-66 15.5 -96 42.5t-25 61q4 30 28 48t41 23.5t45 12.5q-3 1 -21 10.5t-30.5 30t-8.5 46.5q5 33 38.5 58t93.5 33q-50 23 -73 66.5t-17 87.5q7 50 47.5 86.5t103.5 55.5t135 19q50 0 82.5 -9.5t64.5 -27.5q133 48 179 67l-20 -138l-90 -12q3 -22 0 -40
q-6 -45 -41.5 -86t-96 -66.5t-138.5 -25.5q-44 0 -68 3q-14 -3 -16 -9q-1 -8 13 -11t37 -4.5t31 -1.5l102 -6q102 -7 147.5 -49.5t36.5 -105.5q-7 -51 -46 -90t-108.5 -61.5t-164.5 -22.5q-99 0 -165 15.5zM354 308q20 19 24 49t-10.5 51.5t-41.5 21.5t-47.5 -21.5
t-24.5 -51.5t11 -49t42 -19t47 19zM359.5 -61q18.5 8 20.5 24t-13.5 26.5t-45.5 12.5l-93 6q-36 2 -53 -9.5t-19 -27.5q-3 -24 28.5 -32t109.5 -8q47 0 65.5 8zM365 662l-82 -82h-132l159 153h132l113 -153h-139z" />
    <glyph glyph-name="Gbreve" unicode="&#x11e;" 
d="M158 36.5q-71 46.5 -102 130.5t-16 192q16 111 73 196t144 131.5t190 46.5q93 0 159.5 -37.5t97 -98t22.5 -129.5h-203q-3 47 -29 75.5t-75 28.5q-60 0 -105 -49t-61 -158q-17 -119 19.5 -162.5t96.5 -43.5q39 0 71 20.5t44 47.5l13 26h-126l18 131l331 -2l-54 -382h-128
l11 80q-30 -27 -56 -45t-66.5 -31.5t-95.5 -13.5q-102 0 -173 46.5zM572.5 821q-58.5 -37 -127.5 -37t-118 36.5t-59 108.5h105q10 -26 33.5 -42t50.5 -16q25 0 53.5 16t45.5 42h106q-31 -71 -89.5 -108z" />
    <glyph glyph-name="gbreve" unicode="&#x11f;" horiz-adv-x="653" 
d="M85 -155.5q-66 15.5 -96 42.5t-25 61q4 30 28 48t41 23.5t45 12.5q-3 1 -21 10.5t-30.5 30t-8.5 46.5q5 33 38.5 58t93.5 33q-50 23 -73 66.5t-17 87.5q7 50 47.5 86.5t103.5 55.5t135 19q50 0 82.5 -9.5t64.5 -27.5q133 48 179 67l-20 -138l-90 -12q3 -22 0 -40
q-6 -45 -41.5 -86t-96 -66.5t-138.5 -25.5q-44 0 -68 3q-14 -3 -16 -9q-1 -8 13 -11t37 -4.5t31 -1.5l102 -6q102 -7 147.5 -49.5t36.5 -105.5q-7 -51 -46 -90t-108.5 -61.5t-164.5 -22.5q-99 0 -165 15.5zM354 308q20 19 24 49t-10.5 51.5t-41.5 21.5t-47.5 -21.5
t-24.5 -51.5t11 -49t42 -19t47 19zM359.5 -61q18.5 8 20.5 24t-13.5 26.5t-45.5 12.5l-93 6q-36 2 -53 -9.5t-19 -27.5q-3 -24 28.5 -32t109.5 -8q47 0 65.5 8zM482.5 615q-58.5 -37 -127.5 -37t-118 36.5t-59 108.5h105q10 -26 33.5 -42t50.5 -16q25 0 53.5 16t45.5 42h106
q-31 -71 -89.5 -108z" />
    <glyph glyph-name="Gdotaccent" unicode="&#x120;" 
d="M158 36.5q-71 46.5 -102 130.5t-16 192q16 111 73 196t144 131.5t190 46.5q93 0 159.5 -37.5t97 -98t22.5 -129.5h-203q-3 47 -29 75.5t-75 28.5q-60 0 -105 -49t-61 -158q-17 -119 19.5 -162.5t96.5 -43.5q39 0 71 20.5t44 47.5l13 26h-126l18 131l331 -2l-54 -382h-128
l11 80q-30 -27 -56 -45t-66.5 -31.5t-95.5 -13.5q-102 0 -173 46.5zM540 766h-195l23 163h195z" />
    <glyph glyph-name="gdotaccent" unicode="&#x121;" horiz-adv-x="653" 
d="M85 -155.5q-66 15.5 -96 42.5t-25 61q4 30 28 48t41 23.5t45 12.5q-3 1 -21 10.5t-30.5 30t-8.5 46.5q5 33 38.5 58t93.5 33q-50 23 -73 66.5t-17 87.5q7 50 47.5 86.5t103.5 55.5t135 19q50 0 82.5 -9.5t64.5 -27.5q133 48 179 67l-20 -138l-90 -12q3 -22 0 -40
q-6 -45 -41.5 -86t-96 -66.5t-138.5 -25.5q-44 0 -68 3q-14 -3 -16 -9q-1 -8 13 -11t37 -4.5t31 -1.5l102 -6q102 -7 147.5 -49.5t36.5 -105.5q-7 -51 -46 -90t-108.5 -61.5t-164.5 -22.5q-99 0 -165 15.5zM354 308q20 19 24 49t-10.5 51.5t-41.5 21.5t-47.5 -21.5
t-24.5 -51.5t11 -49t42 -19t47 19zM359.5 -61q18.5 8 20.5 24t-13.5 26.5t-45.5 12.5l-93 6q-36 2 -53 -9.5t-19 -27.5q-3 -24 28.5 -32t109.5 -8q47 0 65.5 8zM450 560h-195l23 163h195z" />
    <glyph glyph-name="Gcommaaccent" unicode="&#x122;" 
d="M158 36.5q-71 46.5 -102 130.5t-16 192q16 111 73 196t144 131.5t190 46.5q93 0 159.5 -37.5t97 -98t22.5 -129.5h-203q-3 47 -29 75.5t-75 28.5q-60 0 -105 -49t-61 -158q-17 -119 19.5 -162.5t96.5 -43.5q39 0 71 20.5t44 47.5l13 26h-126l18 131l331 -2l-54 -382h-128
l11 80q-30 -27 -56 -45t-66.5 -31.5t-95.5 -13.5q-102 0 -173 46.5zM245 -233q-3 7 2 13l39 44q6 8 7 14t-2.5 10t-9.5 4h-9q-13 0 -17 4.5t-2 16.5l9 60q3 19 19 19h92q16 0 14 -15l-12 -85q-1 -4 -3 -8t-3 -5l-61 -65q-7 -8 -14 -11t-20 -3h-18q-8 0 -11 7z" />
    <glyph glyph-name="gcommaaccent" unicode="&#x123;" horiz-adv-x="653" 
d="M277 692l79 84h66l-81 -92h61l-14 -100h-126zM85 -155.5q-66 15.5 -96 42.5t-25 61q4 30 28 48t41 23.5t45 12.5q-3 1 -21 10.5t-30.5 30t-8.5 46.5q5 33 38.5 58t93.5 33q-50 23 -73 66.5t-17 87.5q7 50 47.5 86.5t103.5 55.5t135 19q50 0 82.5 -9.5t64.5 -27.5
q133 48 179 67l-20 -138l-90 -12q3 -22 0 -40q-6 -45 -41.5 -86t-96 -66.5t-138.5 -25.5q-44 0 -68 3q-14 -3 -16 -9q-1 -8 13 -11t37 -4.5t31 -1.5l102 -6q102 -7 147.5 -49.5t36.5 -105.5q-7 -51 -46 -90t-108.5 -61.5t-164.5 -22.5q-99 0 -165 15.5zM354 308q20 19 24 49
t-10.5 51.5t-41.5 21.5t-47.5 -21.5t-24.5 -51.5t11 -49t42 -19t47 19zM359.5 -61q18.5 8 20.5 24t-13.5 26.5t-45.5 12.5l-93 6q-36 2 -53 -9.5t-19 -27.5q-3 -24 28.5 -32t109.5 -8q47 0 65.5 8z" />
    <glyph glyph-name="Hcircumflex" unicode="&#x124;" horiz-adv-x="739" 
d="M255 290l-41 -290h-195l102 723h195l-39 -274h219l39 274h195l-102 -723h-195l41 290h-219zM442 868l-82 -82h-132l159 153h132l113 -153h-139z" />
    <glyph glyph-name="hcircumflex" unicode="&#x125;" horiz-adv-x="624" 
d="M114 743h192l-40 -290q25 23 41 35t42.5 20.5t64.5 8.5q49 0 87.5 -21.5t57.5 -60.5t12 -89l-49 -346h-195l45 323q3 21 -14 34t-40 13t-44 -14t-24 -35l-45 -321h-195zM495 662l-82 -82h-132l159 153h132l113 -153h-139z" />
    <glyph glyph-name="Hbar" unicode="&#x126;" horiz-adv-x="802" 
d="M825 637q4 -5 3 -13l-9 -59q-3 -24 -31 -24h-45l-76 -541h-195l41 290h-219l-41 -290h-195l76 541h-76q-12 0 -16 5t-2 17l8 59q1 10 6 15t12 5h82l12 81h195l-12 -81h219l12 81h195l-12 -81h57q7 0 11 -5zM548 541h-219l-13 -92h219z" />
    <glyph glyph-name="hbar" unicode="&#x127;" horiz-adv-x="642" 
d="M518.5 495.5q38.5 -21.5 57.5 -60.5t12 -89l-49 -346h-195l45 323q3 21 -14 34t-40 13t-44 -14t-24 -35l-45 -321h-195l80 566h-63l14 104h63l10 73h192l-10 -73h106l-14 -104h-106l-16 -113q25 23 41 35t42.5 20.5t64.5 8.5q49 0 87.5 -21.5z" />
    <glyph glyph-name="Itilde" unicode="&#x128;" horiz-adv-x="325" 
d="M316 723l-102 -723h-195l102 723h195zM367 808.5q-28 -8.5 -56 -8.5q-19 0 -39 4.5t-38 10.5q-45 15 -76 15q-20 0 -36 -5t-37 -19q-9 -5 -12 -5q-7 0 -10 12l-8 53q-1 2 -1.5 5t-0.5 7q1 7 14 18q23 19 46 29.5t55 10.5q19 0 36.5 -4t33 -8.5t20.5 -5.5q45 -15 67 -15
q37 0 79 27q6 4 12 4q9 0 11 -12l4 -64q1 -3 0 -7q-2 -11 -17 -22q-19 -12 -47 -20.5z" />
    <glyph glyph-name="itilde" unicode="&#x129;" horiz-adv-x="307" 
d="M205 0h-195l73 517h195zM332 602.5q-28 -8.5 -56 -8.5q-19 0 -39 4.5t-38 10.5q-45 15 -76 15q-20 0 -36 -5t-37 -19q-9 -5 -12 -5q-7 0 -10 12l-8 53q-1 2 -1.5 5t-0.5 7q1 7 14 18q23 19 46 29.5t55 10.5q19 0 36.5 -4t33 -8.5t20.5 -5.5q45 -15 67 -15q37 0 79 27
q6 4 12 4q9 0 11 -12l4 -64q1 -3 0 -7q-2 -11 -17 -22q-19 -12 -47 -20.5z" />
    <glyph glyph-name="Imacron" unicode="&#x12a;" horiz-adv-x="325" 
d="M316 723l-102 -723h-195l102 723h195zM431 810h-400l17 119h400z" />
    <glyph glyph-name="imacron" unicode="&#x12b;" horiz-adv-x="307" 
d="M205 0h-195l73 517h195zM396 604h-400l17 119h400z" />
    <glyph glyph-name="Ibreve" unicode="&#x12c;" horiz-adv-x="325" 
d="M316 723l-102 -723h-195l102 723h195zM355.5 821q-58.5 -37 -127.5 -37t-118 36.5t-59 108.5h105q10 -26 33.5 -42t50.5 -16q25 0 53.5 16t45.5 42h106q-31 -71 -89.5 -108z" />
    <glyph glyph-name="ibreve" unicode="&#x12d;" horiz-adv-x="307" 
d="M205 0h-195l73 517h195zM320.5 615q-58.5 -37 -127.5 -37t-118 36.5t-59 108.5h105q10 -26 33.5 -42t50.5 -16q25 0 53.5 16t45.5 42h106q-31 -71 -89.5 -108z" />
    <glyph glyph-name="Iogonek" unicode="&#x12e;" horiz-adv-x="325" 
d="M316 723l-102 -723h-195l102 723h195zM1 -42q22 22 78 41h133q-54 -17 -75.5 -31.5t-23.5 -32.5q-4 -28 23 -28q15 0 27 4t30 12q6 3 11 3q8 0 6 -14l-8 -51q-2 -11 -12 -17q-16 -8 -46.5 -14.5t-62.5 -6.5q-55 0 -83.5 21.5t-22.5 63.5q4 28 26 50z" />
    <glyph glyph-name="iogonek" unicode="&#x12f;" horiz-adv-x="307" 
d="M205 0h-195l73 517h195zM288 560h-195l23 163h195zM-11 -36q22 22 78 41h133q-54 -17 -75.5 -31.5t-23.5 -32.5q-4 -28 23 -28q15 0 27 4t30 12q6 3 11 3q8 0 6 -14l-8 -51q-2 -11 -12 -17q-16 -8 -46.5 -14.5t-62.5 -6.5q-55 0 -83.5 21.5t-22.5 63.5q4 28 26 50z" />
    <glyph glyph-name="Idotaccent" unicode="&#x130;" horiz-adv-x="325" 
d="M316 723l-102 -723h-195l102 723h195zM323 766h-195l23 163h195z" />
    <glyph glyph-name="dotlessi" unicode="&#x131;" horiz-adv-x="308" 
d="M205 0h-195l73 517h195z" />
    <glyph glyph-name="IJ" unicode="&#x132;" horiz-adv-x="756" 
d="M316 723l-102 -723h-195l102 723h195zM640.5 93q-24.5 -51 -74.5 -77t-136 -26q-32 0 -70.5 3t-59.5 7l25 175q44 -5 63 -5q50 0 71.5 25t29.5 84l63 444h195l-70 -494q-12 -85 -36.5 -136z" />
    <glyph glyph-name="ij" unicode="&#x133;" horiz-adv-x="617" 
d="M286 579h-195l23 164h195zM205 0h-195l73 517h195zM596 579h-195l23 164h195zM288 -166q-23 0 -37.5 4t-20.5 8t-7 5l17 130l31 5q28 6 39.5 15.5t13.5 26.5l69 489h195l-69 -489q-27 -194 -231 -194z" />
    <glyph glyph-name="Jcircumflex" unicode="&#x134;" horiz-adv-x="431" 
d="M315.5 93q-24.5 -51 -74.5 -77t-136 -26q-32 0 -70.5 3t-59.5 7l25 175q44 -5 63 -5q50 0 71.5 25t29.5 84l63 444h195l-70 -494q-12 -85 -36.5 -136zM294 868l-82 -82h-132l159 153h132l113 -153h-139z" />
    <glyph glyph-name="jcircumflex" unicode="&#x135;" horiz-adv-x="299" 
d="M-31 -166q-23 0 -37 4t-20 8t-7 5l17 130l30 5q28 6 40 16t14 26l69 489h195l-69 -489q-27 -194 -232 -194zM191 662l-82 -82h-132l159 153h132l113 -153h-139z" />
    <glyph glyph-name="Kcommaaccent" unicode="&#x136;" horiz-adv-x="744" 
d="M472 0l-118 305l-106 -116l-27 -189h-202l102 723h202l-41 -292l250 292h219l-238 -276l168 -447h-209zM222 -233q-3 7 2 13l39 44q6 8 7 14t-2.5 10t-9.5 4h-9q-13 0 -17 4.5t-2 16.5l9 60q3 19 19 19h92q16 0 14 -15l-12 -85q-1 -4 -3 -8t-3 -5l-61 -65q-7 -8 -14 -11
t-20 -3h-18q-8 0 -11 7z" />
    <glyph glyph-name="kcommaaccent" unicode="&#x137;" horiz-adv-x="613" 
d="M362 0l-92 190l-44 -44l-21 -146h-195l104 743h195l-57 -411l179 185h192l-219 -214l147 -303h-189zM174 -233q-3 7 2 13l39 44q6 8 7 14t-2.5 10t-9.5 4h-9q-13 0 -17 4.5t-2 16.5l9 60q3 19 19 19h92q16 0 14 -15l-12 -85q-1 -4 -3 -8t-3 -5l-61 -65q-7 -8 -14 -11
t-20 -3h-18q-8 0 -11 7z" />
    <glyph glyph-name="kgreenlandic" unicode="&#x138;" horiz-adv-x="644" 
d="M362 0l-58 211l-78 -65l-21 -146h-195l73 517h195l-28 -195l200 195h191l-190 -167l131 -350h-220z" />
    <glyph glyph-name="Lacute" unicode="&#x139;" horiz-adv-x="570" 
d="M316 723l-80 -563h289l-22 -160h-484l102 723h195zM375 823l-287 -66l-15 77l277 107z" />
    <glyph glyph-name="lacute" unicode="&#x13a;" horiz-adv-x="347" 
d="M76.5 13q-39.5 24 -45.5 58.5t1 84.5l82 587h191l-78 -561q-3 -23 6 -37.5t44 -19.5l20 -2l-16 -118q-43 -16 -76 -16q-89 0 -128.5 24zM382 865l-287 -66l-15 77l277 107z" />
    <glyph glyph-name="Lcommaaccent" unicode="&#x13b;" horiz-adv-x="570" 
d="M316 723l-80 -563h289l-22 -160h-484l102 723h195zM169 -233q-3 7 2 13l39 44q6 8 7 14t-2.5 10t-9.5 4h-9q-13 0 -17 4.5t-2 16.5l9 60q3 19 19 19h92q16 0 14 -15l-12 -85q-1 -4 -3 -8t-3 -5l-61 -65q-7 -8 -14 -11t-20 -3h-18q-8 0 -11 7z" />
    <glyph glyph-name="lcommaaccent" unicode="&#x13c;" horiz-adv-x="347" 
d="M76.5 13q-39.5 24 -45.5 58.5t1 84.5l82 587h191l-78 -561q-3 -23 6 -37.5t44 -19.5l20 -2l-16 -118q-43 -16 -76 -16q-89 0 -128.5 24zM4 -233q-3 7 2 13l39 44q6 8 7 14t-2.5 10t-9.5 4h-9q-13 0 -17 4.5t-2 16.5l9 60q3 19 19 19h92q16 0 14 -15l-12 -85q-1 -4 -3 -8
t-3 -5l-61 -65q-7 -8 -14 -11t-20 -3h-18q-8 0 -11 7z" />
    <glyph glyph-name="Lcaron" unicode="&#x13d;" horiz-adv-x="570" 
d="M316 723l-80 -563h289l-22 -160h-484l102 723h195zM407 488q-2 5 1 10l41 75q4 8 4 12q1 8 -9 9l-11 2q-9 1 -12.5 4.5t-2.5 11.5l14 96q2 15 15 15h95q13 0 11 -12l-16 -115q-1 -4 -5 -10l-49 -88q-4 -8 -11 -11.5t-21 -3.5h-36q-6 0 -8 5z" />
    <glyph glyph-name="lcaron" unicode="&#x13e;" horiz-adv-x="347" 
d="M76.5 13q-39.5 24 -45.5 58.5t1 84.5l82 587h191l-78 -561q-3 -23 6 -37.5t44 -19.5l20 -2l-16 -118q-43 -16 -76 -16q-89 0 -128.5 24zM323 530q-2 5 1 10l41 75q4 8 4 12q1 8 -9 9l-11 2q-9 1 -12.5 4.5t-2.5 11.5l14 96q2 15 15 15h95q13 0 11 -12l-16 -115
q-1 -4 -5 -10l-49 -88q-4 -8 -11 -11.5t-21 -3.5h-36q-6 0 -8 5z" />
    <glyph glyph-name="Ldot" unicode="&#x13f;" horiz-adv-x="624" 
d="M316 723l-80 -563h289l-22 -160h-484l102 723h195zM585 320h-181l24 174h181z" />
    <glyph glyph-name="ldot" unicode="&#x140;" horiz-adv-x="454" 
d="M76.5 13q-39.5 24 -45.5 58.5t1 84.5l82 587h191l-78 -561q-3 -23 6 -37.5t44 -19.5l20 -2l-16 -118q-43 -16 -76 -16q-89 0 -128.5 24zM449 191h-181l24 174h181z" />
    <glyph glyph-name="Lslash" unicode="&#x141;" horiz-adv-x="584" 
d="M539 160l-22 -160h-484l41 292l-58 -16q-10 -2 -12 -2q-13 0 -11 19l17 117q2 11 7 16t15 7l64 17l39 273h195l-32 -222l143 37q8 2 10 2q14 0 11 -19l-15 -111q-2 -17 -24 -23l-146 -40l-27 -187h289z" />
    <glyph glyph-name="lslash" unicode="&#x142;" horiz-adv-x="377" 
d="M351 123l-16 -118q-43 -16 -76 -16q-89 0 -128.5 24t-45.5 58.5t1 84.5l6 41l-92 -55l23 162l91 53l54 386h191l-37 -267l45 26l-22 -153l-45 -27l-19 -140q-3 -23 6 -37.5t44 -19.5z" />
    <glyph glyph-name="Nacute" unicode="&#x143;" horiz-adv-x="803" 
d="M794 723l-102 -723h-176l-241 431l-61 -431h-195l102 723h196l225 -403l57 403h195zM624 823l-287 -66l-15 77l277 107z" />
    <glyph glyph-name="nacute" unicode="&#x144;" horiz-adv-x="625" 
d="M83 517h193l-9 -62q26 24 42.5 35.5t42 20t63.5 8.5q45 0 84 -22.5t59.5 -61.5t13.5 -86l-49 -349h-195l45 323q3 21 -13.5 34t-39.5 13q-24 0 -45.5 -13t-24.5 -34l-45 -323h-195zM506 617l-287 -66l-15 77l277 107z" />
    <glyph glyph-name="Ncommaaccent" unicode="&#x145;" horiz-adv-x="803" 
d="M794 723l-102 -723h-176l-241 431l-61 -431h-195l102 723h196l225 -403l57 403h195zM266 -233q-3 7 2 13l39 44q6 8 7 14t-2.5 10t-9.5 4h-9q-13 0 -17 4.5t-2 16.5l9 60q3 19 19 19h92q16 0 14 -15l-12 -85q-1 -4 -3 -8t-3 -5l-61 -65q-7 -8 -14 -11t-20 -3h-18
q-8 0 -11 7z" />
    <glyph glyph-name="ncommaaccent" unicode="&#x146;" horiz-adv-x="625" 
d="M83 517h193l-9 -62q26 24 42.5 35.5t42 20t63.5 8.5q45 0 84 -22.5t59.5 -61.5t13.5 -86l-49 -349h-195l45 323q3 21 -13.5 34t-39.5 13q-24 0 -45.5 -13t-24.5 -34l-45 -323h-195zM177 -233q-3 7 2 13l39 44q6 8 7 14t-2.5 10t-9.5 4h-9q-13 0 -17 4.5t-2 16.5l9 60
q3 19 19 19h92q16 0 14 -15l-12 -85q-1 -4 -3 -8t-3 -5l-61 -65q-7 -8 -14 -11t-20 -3h-18q-8 0 -11 7z" />
    <glyph glyph-name="Ncaron" unicode="&#x147;" horiz-adv-x="803" 
d="M794 723l-102 -723h-176l-241 431l-61 -431h-195l102 723h196l225 -403l57 403h195zM686 930l-156 -154h-133l-115 154h132l59 -82l74 82h139z" />
    <glyph glyph-name="ncaron" unicode="&#x148;" horiz-adv-x="625" 
d="M83 517h193l-9 -62q26 24 42.5 35.5t42 20t63.5 8.5q45 0 84 -22.5t59.5 -61.5t13.5 -86l-49 -349h-195l45 323q3 21 -13.5 34t-39.5 13q-24 0 -45.5 -13t-24.5 -34l-45 -323h-195zM568 724l-156 -154h-133l-115 154h132l59 -82l74 82h139z" />
    <glyph glyph-name="napostrophe" unicode="&#x149;" horiz-adv-x="766" 
d="M62.5 439q-2.5 5 0.5 10l45 105q3 5 3 11q1 8 -7 9l-11 2q-10 1 -13.5 4.5t-2.5 12.5l17 115q2 15 16 15h96q13 0 11 -12l-19 -135q-1 -4 -4 -10l-54 -117q-4 -8 -11 -11.5t-20 -3.5h-38q-6 0 -8.5 5zM224 517h193l-9 -62q26 24 42.5 35.5t42 20t63.5 8.5q45 0 84 -22.5
t59.5 -61.5t13.5 -86l-49 -349h-195l45 323q3 21 -13.5 34t-39.5 13q-24 0 -45.5 -13t-24.5 -34l-45 -323h-195z" />
    <glyph glyph-name="Eng" unicode="&#x14a;" 
d="M759 707l-93 -661q-16 -115 -79.5 -166t-177.5 -51q-61 0 -125 12q-17 3 -22.5 12.5t-1.5 29.5l24 111q5 23 22 23q11 0 26 -3q23 -4 36 -4q73 0 87 76l1 9l-194 283q-3 5 -5.5 4t-3.5 -6l-50 -355q-1 -11 -7 -16t-20 -5h-132q-25 0 -22 20l96 681q2 12 8 17t17 5h159
q12 0 17.5 -3t12.5 -14l194 -287q5 -8 9 -8q5 0 6 12l40 280q3 20 25 20h141q14 0 12 -16z" />
    <glyph glyph-name="eng" unicode="&#x14b;" horiz-adv-x="627" 
d="M253.5 -161q-13.5 5 -13.5 8l19 135l25 3q24 4 35 13t14 27l44 317q3 22 -9 34.5t-35 12.5t-42 -12t-36 -37l-48 -340h-197l76 517h191l-12 -81q40 41 86.5 66t93.5 25q69 0 105 -43t26 -115l-48 -341q-13 -89 -75 -141.5t-151 -52.5q-35 0 -48.5 5z" />
    <glyph glyph-name="Omacron" unicode="&#x14c;" 
d="M160.5 35.5q-73.5 45.5 -104.5 129t-15 195.5t71 196.5t141 130.5t191 46q104 0 176.5 -46t104 -130.5t16.5 -196.5q-16 -111 -71 -195t-140 -129.5t-190 -45.5q-106 0 -179.5 45.5zM470 196q44 50 59 161q16 115 -13.5 167.5t-93.5 52.5t-109 -52.5t-61 -167.5
q-16 -111 14.5 -161t95.5 -50q64 0 108 50zM654 810h-400l17 119h400z" />
    <glyph glyph-name="omacron" unicode="&#x14d;" horiz-adv-x="573" 
d="M105 23.5q-55 33.5 -78.5 94t-12.5 137.5q11 80 53.5 142t107 96t140.5 34q79 0 133.5 -35t78 -97t12.5 -140q-11 -77 -52 -137t-105 -94t-143 -34t-134 33.5zM322 170q21 39 29 92q18 126 -55 126q-74 0 -92 -126q-8 -54 2.5 -92.5t52.5 -38.5t63 39zM526 604h-400
l17 119h400z" />
    <glyph glyph-name="Obreve" unicode="&#x14e;" 
d="M160.5 35.5q-73.5 45.5 -104.5 129t-15 195.5t71 196.5t141 130.5t191 46q104 0 176.5 -46t104 -130.5t16.5 -196.5q-16 -111 -71 -195t-140 -129.5t-190 -45.5q-106 0 -179.5 45.5zM470 196q44 50 59 161q16 115 -13.5 167.5t-93.5 52.5t-109 -52.5t-61 -167.5
q-16 -111 14.5 -161t95.5 -50q64 0 108 50zM578.5 821q-58.5 -37 -127.5 -37t-118 36.5t-59 108.5h105q10 -26 33.5 -42t50.5 -16q25 0 53.5 16t45.5 42h106q-31 -71 -89.5 -108z" />
    <glyph glyph-name="obreve" unicode="&#x14f;" horiz-adv-x="573" 
d="M105 23.5q-55 33.5 -78.5 94t-12.5 137.5q11 80 53.5 142t107 96t140.5 34q79 0 133.5 -35t78 -97t12.5 -140q-11 -77 -52 -137t-105 -94t-143 -34t-134 33.5zM322 170q21 39 29 92q18 126 -55 126q-74 0 -92 -126q-8 -54 2.5 -92.5t52.5 -38.5t63 39zM450.5 615
q-58.5 -37 -127.5 -37t-118 36.5t-59 108.5h105q10 -26 33.5 -42t50.5 -16q25 0 53.5 16t45.5 42h106q-31 -71 -89.5 -108z" />
    <glyph glyph-name="Ohungarumlaut" unicode="&#x150;" 
d="M160.5 35.5q-73.5 45.5 -104.5 129t-15 195.5t71 196.5t141 130.5t191 46q104 0 176.5 -46t104 -130.5t16.5 -196.5q-16 -111 -71 -195t-140 -129.5t-190 -45.5q-106 0 -179.5 45.5zM470 196q44 50 59 161q16 115 -13.5 167.5t-93.5 52.5t-109 -52.5t-61 -167.5
q-16 -111 14.5 -161t95.5 -50q64 0 108 50zM458 872q7 -11 6 -19q-1 -10 -15 -17l-150 -78q-14 -8 -21 -8q-6 0 -10 8l-29 34q-6 7 -5 15q1 6 6 9l154 116q8 5 12 5q8 0 11 -7zM672 872q7 -10 5 -19q-1 -10 -14 -17l-151 -78q-14 -8 -20 -8q-5 0 -11 8l-28 34q-7 8 -6 15
q1 6 7 9l153 116q8 5 13 5q6 0 11 -7z" />
    <glyph glyph-name="ohungarumlaut" unicode="&#x151;" horiz-adv-x="573" 
d="M105 23.5q-55 33.5 -78.5 94t-12.5 137.5q11 80 53.5 142t107 96t140.5 34q79 0 133.5 -35t78 -97t12.5 -140q-11 -77 -52 -137t-105 -94t-143 -34t-134 33.5zM322 170q21 39 29 92q18 126 -55 126q-74 0 -92 -126q-8 -54 2.5 -92.5t52.5 -38.5t63 39zM330 666
q7 -11 6 -19q-1 -10 -15 -17l-150 -78q-14 -8 -21 -8q-6 0 -10 8l-29 34q-6 7 -5 15q1 6 6 9l154 116q8 5 12 5q8 0 11 -7zM544 666q7 -10 5 -19q-1 -10 -14 -17l-151 -78q-14 -8 -20 -8q-5 0 -11 8l-28 34q-7 8 -6 15q1 6 7 9l153 116q8 5 13 5q6 0 11 -7z" />
    <glyph glyph-name="OE" unicode="&#x152;" horiz-adv-x="1126" 
d="M1029 0h-539q-54 -10 -138 -10q-112 0 -188 45.5t-107.5 129t-15.5 195.5q16 113 72.5 197t147 130t206.5 46q77 0 125 -10h531l-24 -159h-341l-17 -122h214l-22 -157h-214l-18 -125h350zM432.5 163.5q28.5 21.5 46.5 68t29 125.5q17 121 -3 173.5t-82 52.5
q-64 0 -99 -52.5t-52 -173.5q-11 -79 -6 -125.5t28 -68t67 -21.5q43 0 71.5 21.5z" />
    <glyph glyph-name="oe" unicode="&#x153;" horiz-adv-x="925" 
d="M112 24q-57 34 -83 94t-15 137q11 80 55.5 142t111 96t143.5 34q93 0 156 -48q7 -5 13 -5q4 0 12 5q74 48 160 48q77 0 132 -36.5t79.5 -105t10.5 -162.5h-336q-7 -51 17.5 -77.5t69.5 -26.5q27 0 55 13.5t66 47.5l112 -48q-64 -81 -126 -111.5t-151 -30.5q-94 0 -159 49
q-4 3 -6 3q-4 0 -11 -4q-79 -48 -170 -48q-79 0 -136 34zM599 389.5q-25 -22.5 -30 -64.5l144 -1q4 29 -9.5 58.5t-46.5 29.5t-58 -22.5zM328.5 149.5q22.5 34.5 32.5 109.5q11 77 -1.5 112t-52.5 35q-39 0 -62 -35t-34 -112q-11 -75 2.5 -109.5t52.5 -34.5q40 0 62.5 34.5z
" />
    <glyph glyph-name="Racute" unicode="&#x154;" horiz-adv-x="709" 
d="M421 0l-70 249h-102l-35 -249h-195l102 723h328q134 0 188.5 -64t39.5 -169q-11 -78 -48 -127t-97 -83l88 -280h-199zM446 423q30 29 35 65q5 37 -18 64t-57 27h-111l-26 -185h111q36 0 66 29zM570 823l-287 -66l-15 77l277 107z" />
    <glyph glyph-name="racute" unicode="&#x155;" horiz-adv-x="449" 
d="M83 517h188l-20 -143q30 68 78.5 110.5t116.5 42.5l-25 -183q-16 2 -43 2q-72 0 -102 -27t-36 -71l-35 -248h-195zM436 617l-287 -66l-15 77l277 107z" />
    <glyph glyph-name="Rcommaaccent" unicode="&#x156;" horiz-adv-x="709" 
d="M421 0l-70 249h-102l-35 -249h-195l102 723h328q134 0 188.5 -64t39.5 -169q-11 -78 -48 -127t-97 -83l88 -280h-199zM446 423q30 29 35 65q5 37 -18 64t-57 27h-111l-26 -185h111q36 0 66 29zM222 -233q-3 7 2 13l39 44q6 8 7 14t-2.5 10t-9.5 4h-9q-13 0 -17 4.5
t-2 16.5l9 60q3 19 19 19h92q16 0 14 -15l-12 -85q-1 -4 -3 -8t-3 -5l-61 -65q-7 -8 -14 -11t-20 -3h-18q-8 0 -11 7z" />
    <glyph glyph-name="rcommaaccent" unicode="&#x157;" horiz-adv-x="449" 
d="M83 517h188l-20 -143q30 68 78.5 110.5t116.5 42.5l-25 -183q-16 2 -43 2q-72 0 -102 -27t-36 -71l-35 -248h-195zM30 -233q-3 7 2 13l39 44q6 8 7 14t-2.5 10t-9.5 4h-9q-13 0 -17 4.5t-2 16.5l9 60q3 19 19 19h92q16 0 14 -15l-12 -85q-1 -4 -3 -8t-3 -5l-61 -65
q-7 -8 -14 -11t-20 -3h-18q-8 0 -11 7z" />
    <glyph glyph-name="Rcaron" unicode="&#x158;" horiz-adv-x="709" 
d="M421 0l-70 249h-102l-35 -249h-195l102 723h328q134 0 188.5 -64t39.5 -169q-11 -78 -48 -127t-97 -83l88 -280h-199zM446 423q30 29 35 65q5 37 -18 64t-57 27h-111l-26 -185h111q36 0 66 29zM632 930l-156 -154h-133l-115 154h132l59 -82l74 82h139z" />
    <glyph glyph-name="rcaron" unicode="&#x159;" horiz-adv-x="449" 
d="M83 517h188l-20 -143q30 68 78.5 110.5t116.5 42.5l-25 -183q-16 2 -43 2q-72 0 -102 -27t-36 -71l-35 -248h-195zM498 724l-156 -154h-133l-115 154h132l59 -82l74 82h139z" />
    <glyph glyph-name="Sacute" unicode="&#x15a;" horiz-adv-x="716" 
d="M167 15q-69 25 -110 76.5t-36 128.5h202q3 -38 32.5 -59.5t80.5 -21.5q52 0 87.5 15.5t40.5 50.5q4 29 -24.5 41.5t-87.5 22.5l-111 19q-86 14 -129 69.5t-30 146.5q10 70 57.5 121.5t120.5 79t157 27.5q86 0 151 -31.5t99 -84t33 -112.5h-197q2 41 -24 59.5t-79 18.5
q-52 0 -78 -17t-29 -40q-4 -26 11 -40.5t59 -22.5l110 -19q135 -24 168 -90.5t22 -147.5q-9 -61 -57.5 -110t-124.5 -77t-165 -28q-80 0 -149 25zM583 823l-287 -66l-15 77l277 107z" />
    <glyph glyph-name="sacute" unicode="&#x15b;" horiz-adv-x="527" 
d="M65.5 31.5q-64.5 41.5 -66.5 132.5h160q6 -28 28 -36.5t57 -8.5q34 0 52.5 8.5t20.5 21.5q2 15 -12 22.5t-45 13.5l-75 12q-162 30 -144 160q7 48 40.5 86.5t89.5 61t129 22.5q70 0 120 -21t72.5 -59.5t13.5 -90.5h-158q-2 25 -21 36.5t-49 11.5q-62 0 -67 -33
q-2 -13 15 -21.5t58 -15.5l64 -12q85 -21 112.5 -68.5t20.5 -93.5q-11 -81 -83 -125.5t-175 -44.5q-93 0 -157.5 41.5zM466 617l-287 -66l-15 77l277 107z" />
    <glyph glyph-name="Scircumflex" unicode="&#x15c;" horiz-adv-x="716" 
d="M167 15q-69 25 -110 76.5t-36 128.5h202q3 -38 32.5 -59.5t80.5 -21.5q52 0 87.5 15.5t40.5 50.5q4 29 -24.5 41.5t-87.5 22.5l-111 19q-86 14 -129 69.5t-30 146.5q10 70 57.5 121.5t120.5 79t157 27.5q86 0 151 -31.5t99 -84t33 -112.5h-197q2 41 -24 59.5t-79 18.5
q-52 0 -78 -17t-29 -40q-4 -26 11 -40.5t59 -22.5l110 -19q135 -24 168 -90.5t22 -147.5q-9 -61 -57.5 -110t-124.5 -77t-165 -28q-80 0 -149 25zM435 868l-82 -82h-132l159 153h132l113 -153h-139z" />
    <glyph glyph-name="scircumflex" unicode="&#x15d;" horiz-adv-x="527" 
d="M65.5 31.5q-64.5 41.5 -66.5 132.5h160q6 -28 28 -36.5t57 -8.5q34 0 52.5 8.5t20.5 21.5q2 15 -12 22.5t-45 13.5l-75 12q-162 30 -144 160q7 48 40.5 86.5t89.5 61t129 22.5q70 0 120 -21t72.5 -59.5t13.5 -90.5h-158q-2 25 -21 36.5t-49 11.5q-62 0 -67 -33
q-2 -13 15 -21.5t58 -15.5l64 -12q85 -21 112.5 -68.5t20.5 -93.5q-11 -81 -83 -125.5t-175 -44.5q-93 0 -157.5 41.5zM318 662l-82 -82h-132l159 153h132l113 -153h-139z" />
    <glyph glyph-name="Scedilla" unicode="&#x15e;" horiz-adv-x="716" 
d="M167 15q-69 25 -110 76.5t-36 128.5h202q3 -38 32.5 -59.5t80.5 -21.5q52 0 87.5 15.5t40.5 50.5q4 29 -24.5 41.5t-87.5 22.5l-111 19q-86 14 -129 69.5t-30 146.5q10 70 57.5 121.5t120.5 79t157 27.5q86 0 151 -31.5t99 -84t33 -112.5h-197q2 41 -24 59.5t-79 18.5
q-52 0 -78 -17t-29 -40q-4 -26 11 -40.5t59 -22.5l110 -19q135 -24 168 -90.5t22 -147.5q-9 -61 -57.5 -110t-124.5 -77t-165 -28q-80 0 -149 25zM383.5 -195.5q-41.5 -23.5 -95.5 -23.5q-84 0 -129 29l33 59q44 -26 81 -26q20 0 34 7t16 19q3 19 -16.5 28.5t-67.5 9.5
q-8 0 -10.5 2t2.5 10l49 86h79l-29 -57q56 0 80.5 -25t19.5 -57q-5 -38 -46.5 -61.5z" />
    <glyph glyph-name="scedilla" unicode="&#x15f;" horiz-adv-x="527" 
d="M65.5 31.5q-64.5 41.5 -66.5 132.5h160q6 -28 28 -36.5t57 -8.5q34 0 52.5 8.5t20.5 21.5q2 15 -12 22.5t-45 13.5l-75 12q-162 30 -144 160q7 48 40.5 86.5t89.5 61t129 22.5q70 0 120 -21t72.5 -59.5t13.5 -90.5h-158q-2 25 -21 36.5t-49 11.5q-62 0 -67 -33
q-2 -13 15 -21.5t58 -15.5l64 -12q85 -21 112.5 -68.5t20.5 -93.5q-11 -81 -83 -125.5t-175 -44.5q-93 0 -157.5 41.5zM294.5 -195.5q-41.5 -23.5 -95.5 -23.5q-84 0 -129 29l33 59q44 -26 81 -26q20 0 34 7t16 19q3 19 -16.5 28.5t-67.5 9.5q-8 0 -10.5 2t2.5 10l49 86h79
l-29 -57q56 0 80.5 -25t19.5 -57q-5 -38 -46.5 -61.5z" />
    <glyph glyph-name="Scaron" unicode="&#x160;" horiz-adv-x="716" 
d="M167 15q-69 25 -110 76.5t-36 128.5h202q3 -38 32.5 -59.5t80.5 -21.5q52 0 87.5 15.5t40.5 50.5q4 29 -24.5 41.5t-87.5 22.5l-111 19q-86 14 -129 69.5t-30 146.5q10 70 57.5 121.5t120.5 79t157 27.5q86 0 151 -31.5t99 -84t33 -112.5h-197q2 41 -24 59.5t-79 18.5
q-52 0 -78 -17t-29 -40q-4 -26 11 -40.5t59 -22.5l110 -19q135 -24 168 -90.5t22 -147.5q-9 -61 -57.5 -110t-124.5 -77t-165 -28q-80 0 -149 25zM645 930l-156 -154h-133l-115 154h132l59 -82l74 82h139z" />
    <glyph glyph-name="scaron" unicode="&#x161;" horiz-adv-x="527" 
d="M65.5 31.5q-64.5 41.5 -66.5 132.5h160q6 -28 28 -36.5t57 -8.5q34 0 52.5 8.5t20.5 21.5q2 15 -12 22.5t-45 13.5l-75 12q-162 30 -144 160q7 48 40.5 86.5t89.5 61t129 22.5q70 0 120 -21t72.5 -59.5t13.5 -90.5h-158q-2 25 -21 36.5t-49 11.5q-62 0 -67 -33
q-2 -13 15 -21.5t58 -15.5l64 -12q85 -21 112.5 -68.5t20.5 -93.5q-11 -81 -83 -125.5t-175 -44.5q-93 0 -157.5 41.5zM528 724l-156 -154h-133l-115 154h132l59 -82l74 82h139z" />
    <glyph glyph-name="uni0162" unicode="&#x162;" horiz-adv-x="631" 
d="M68 723h607l-24 -171h-207l-78 -552h-195l78 552h-205zM347.5 -195.5q-41.5 -23.5 -95.5 -23.5q-84 0 -129 29l33 59q44 -26 81 -26q20 0 34 7t16 19q3 19 -16.5 28.5t-67.5 9.5q-8 0 -10.5 2t2.5 10l49 86h79l-29 -57q56 0 80.5 -25t19.5 -57q-5 -38 -46.5 -61.5z" />
    <glyph glyph-name="uni0163" unicode="&#x163;" horiz-adv-x="451" 
d="M306 385l-32 -234q-2 -16 5 -22t22 -6h81l-16 -115q-34 -16 -105 -16q-114 0 -153.5 40t-29.5 110l34 243h-84l19 132h91l51 161h158l-22 -160h113l-19 -133h-113zM289.5 -195.5q-41.5 -23.5 -95.5 -23.5q-84 0 -129 29l33 59q44 -26 81 -26q20 0 34 7t16 19
q3 19 -16.5 28.5t-67.5 9.5q-8 0 -10.5 2t2.5 10l49 86h79l-29 -57q56 0 80.5 -25t19.5 -57q-5 -38 -46.5 -61.5z" />
    <glyph glyph-name="Tcaron" unicode="&#x164;" horiz-adv-x="631" 
d="M68 723h607l-24 -171h-207l-78 -552h-195l78 552h-205zM609 930l-156 -154h-133l-115 154h132l59 -82l74 82h139z" />
    <glyph glyph-name="tcaron" unicode="&#x165;" horiz-adv-x="451" 
d="M306 385l-32 -234q-2 -16 5 -22t22 -6h81l-16 -115q-34 -16 -105 -16q-114 0 -153.5 40t-29.5 110l34 243h-84l19 132h91l51 161h158l-22 -160h113l-19 -133h-113zM363 560q-2 5 1 10l41 75q4 8 4 12q1 8 -9 9l-11 2q-9 1 -12.5 4.5t-2.5 11.5l14 96q2 15 15 15h95
q13 0 11 -12l-16 -115q-1 -4 -5 -10l-49 -88q-4 -8 -11 -11.5t-21 -3.5h-36q-6 0 -8 5z" />
    <glyph glyph-name="Tbar" unicode="&#x166;" horiz-adv-x="631" 
d="M444 552l-20 -141h121l-19 -137h-121l-39 -274h-195l39 274h-111l19 137h111l20 141h-205l24 171h607l-24 -171h-207z" />
    <glyph glyph-name="tbar" unicode="&#x167;" horiz-adv-x="474" 
d="M320 385l-8 -55h86l-14 -105h-85l-11 -74q-2 -16 5 -22t22 -6h81l-16 -115q-34 -16 -105 -16q-114 0 -153.5 40t-29.5 110l12 83h-82l14 105h82l8 55h-84l19 132h91l51 161h158l-22 -160h113l-19 -133h-113z" />
    <glyph glyph-name="Utilde" unicode="&#x168;" horiz-adv-x="754" 
d="M580 71q-84 -81 -250 -81t-228 81t-41 228l60 424h197l-61 -432q-10 -70 18 -104t78 -34t87 34t47 104l61 432h197l-60 -424q-21 -147 -105 -228zM563 808.5q-28 -8.5 -56 -8.5q-19 0 -39 4.5t-38 10.5q-45 15 -76 15q-20 0 -36 -5t-37 -19q-9 -5 -12 -5q-7 0 -10 12
l-8 53q-1 2 -1.5 5t-0.5 7q1 7 14 18q23 19 46 29.5t55 10.5q19 0 36.5 -4t33 -8.5t20.5 -5.5q45 -15 67 -15q37 0 79 27q6 4 12 4q9 0 11 -12l4 -64q1 -3 0 -7q-2 -11 -17 -22q-19 -12 -47 -20.5z" />
    <glyph glyph-name="utilde" unicode="&#x169;" horiz-adv-x="625" 
d="M114 10q-42 20 -65.5 57t-16.5 86l51 364h195l-48 -337q-3 -23 11 -38t42 -15t46.5 15t21.5 38l48 337h197l-77 -517h-144l-4 68q-29 -39 -78 -58.5t-93 -19.5t-86 20zM487 602.5q-28 -8.5 -56 -8.5q-19 0 -39 4.5t-38 10.5q-45 15 -76 15q-20 0 -36 -5t-37 -19
q-9 -5 -12 -5q-7 0 -10 12l-8 53q-1 2 -1.5 5t-0.5 7q1 7 14 18q23 19 46 29.5t55 10.5q19 0 36.5 -4t33 -8.5t20.5 -5.5q45 -15 67 -15q37 0 79 27q6 4 12 4q9 0 11 -12l4 -64q1 -3 0 -7q-2 -11 -17 -22q-19 -12 -47 -20.5z" />
    <glyph glyph-name="Umacron" unicode="&#x16a;" horiz-adv-x="754" 
d="M580 71q-84 -81 -250 -81t-228 81t-41 228l60 424h197l-61 -432q-10 -70 18 -104t78 -34t87 34t47 104l61 432h197l-60 -424q-21 -147 -105 -228zM627 810h-400l17 119h400z" />
    <glyph glyph-name="umacron" unicode="&#x16b;" horiz-adv-x="625" 
d="M114 10q-42 20 -65.5 57t-16.5 86l51 364h195l-48 -337q-3 -23 11 -38t42 -15t46.5 15t21.5 38l48 337h197l-77 -517h-144l-4 68q-29 -39 -78 -58.5t-93 -19.5t-86 20zM551 604h-400l17 119h400z" />
    <glyph glyph-name="Ubreve" unicode="&#x16c;" horiz-adv-x="754" 
d="M580 71q-84 -81 -250 -81t-228 81t-41 228l60 424h197l-61 -432q-10 -70 18 -104t78 -34t87 34t47 104l61 432h197l-60 -424q-21 -147 -105 -228zM551.5 821q-58.5 -37 -127.5 -37t-118 36.5t-59 108.5h105q10 -26 33.5 -42t50.5 -16q25 0 53.5 16t45.5 42h106
q-31 -71 -89.5 -108z" />
    <glyph glyph-name="ubreve" unicode="&#x16d;" horiz-adv-x="625" 
d="M114 10q-42 20 -65.5 57t-16.5 86l51 364h195l-48 -337q-3 -23 11 -38t42 -15t46.5 15t21.5 38l48 337h197l-77 -517h-144l-4 68q-29 -39 -78 -58.5t-93 -19.5t-86 20zM475.5 615q-58.5 -37 -127.5 -37t-118 36.5t-59 108.5h105q10 -26 33.5 -42t50.5 -16q25 0 53.5 16
t45.5 42h106q-31 -71 -89.5 -108z" />
    <glyph glyph-name="Uring" unicode="&#x16e;" horiz-adv-x="754" 
d="M580 71q-84 -81 -250 -81t-228 81t-41 228l60 424h197l-61 -432q-10 -70 18 -104t78 -34t87 34t47 104l61 432h197l-60 -424q-21 -147 -105 -228zM505 798q-38 -33 -85 -33q-48 0 -76.5 33.5t-21.5 82.5q6 46 44.5 78t85.5 32t76 -33t22 -79q-7 -48 -45 -81zM472 911
q-12 13 -31 13q-20 0 -35.5 -13.5t-18.5 -32.5t9.5 -33.5t31.5 -14.5t34.5 14.5t18.5 33.5q3 20 -9 33z" />
    <glyph glyph-name="uring" unicode="&#x16f;" horiz-adv-x="625" 
d="M114 10q-42 20 -65.5 57t-16.5 86l51 364h195l-48 -337q-3 -23 11 -38t42 -15t46.5 15t21.5 38l48 337h197l-77 -517h-144l-4 68q-29 -39 -78 -58.5t-93 -19.5t-86 20zM430 592q-38 -33 -85 -33q-48 0 -76.5 33.5t-21.5 82.5q6 46 44.5 78t85.5 32t76 -33t22 -79
q-7 -48 -45 -81zM397 705q-12 13 -31 13q-20 0 -35.5 -13.5t-18.5 -32.5t9.5 -33.5t31.5 -14.5t34.5 14.5t18.5 33.5q3 20 -9 33z" />
    <glyph glyph-name="Uhungarumlaut" unicode="&#x170;" horiz-adv-x="754" 
d="M580 71q-84 -81 -250 -81t-228 81t-41 228l60 424h197l-61 -432q-10 -70 18 -104t78 -34t87 34t47 104l61 432h197l-60 -424q-21 -147 -105 -228zM431 872q7 -11 6 -19q-1 -10 -15 -17l-150 -78q-14 -8 -21 -8q-6 0 -10 8l-29 34q-6 7 -5 15q1 6 6 9l154 116q8 5 12 5
q8 0 11 -7zM645 872q7 -10 5 -19q-1 -10 -14 -17l-151 -78q-14 -8 -20 -8q-5 0 -11 8l-28 34q-7 8 -6 15q1 6 7 9l153 116q8 5 13 5q6 0 11 -7z" />
    <glyph glyph-name="uhungarumlaut" unicode="&#x171;" horiz-adv-x="625" 
d="M114 10q-42 20 -65.5 57t-16.5 86l51 364h195l-48 -337q-3 -23 11 -38t42 -15t46.5 15t21.5 38l48 337h197l-77 -517h-144l-4 68q-29 -39 -78 -58.5t-93 -19.5t-86 20zM355 666q7 -11 6 -19q-1 -10 -15 -17l-150 -78q-14 -8 -21 -8q-6 0 -10 8l-29 34q-6 7 -5 15q1 6 6 9
l154 116q8 5 12 5q8 0 11 -7zM569 666q7 -10 5 -19q-1 -10 -14 -17l-151 -78q-14 -8 -20 -8q-5 0 -11 8l-28 34q-7 8 -6 15q1 6 7 9l153 116q8 5 13 5q6 0 11 -7z" />
    <glyph glyph-name="Uogonek" unicode="&#x172;" horiz-adv-x="754" 
d="M580 71q-84 -81 -250 -81t-228 81t-41 228l60 424h197l-61 -432q-10 -70 18 -104t78 -34t87 34t47 104l61 432h197l-60 -424q-21 -147 -105 -228zM222 -33q22 22 78 41h133q-54 -17 -75.5 -31.5t-23.5 -32.5q-4 -28 23 -28q15 0 27 4t30 12q6 3 11 3q8 0 6 -14l-8 -51
q-2 -11 -12 -17q-16 -8 -46.5 -14.5t-62.5 -6.5q-55 0 -83.5 21.5t-22.5 63.5q4 28 26 50z" />
    <glyph glyph-name="uogonek" unicode="&#x173;" horiz-adv-x="625" 
d="M114 10q-42 20 -65.5 57t-16.5 86l51 364h195l-48 -337q-3 -23 11 -38t42 -15t46.5 15t21.5 38l48 337h197l-77 -517h-144l-4 68q-29 -39 -78 -58.5t-93 -19.5t-86 20zM304 -35q22 22 78 41h133q-54 -17 -75.5 -31.5t-23.5 -32.5q-4 -28 23 -28q15 0 27 4t30 12q6 3 11 3
q8 0 6 -14l-8 -51q-2 -11 -12 -17q-16 -8 -46.5 -14.5t-62.5 -6.5q-55 0 -83.5 21.5t-22.5 63.5q4 28 26 50z" />
    <glyph glyph-name="Wcircumflex" unicode="&#x174;" horiz-adv-x="976" 
d="M702 0h-145l-60 393l-170 -393h-143l-116 723h188l57 -388l163 388h136l57 -388l163 388h188zM563 868l-82 -82h-132l159 153h132l113 -153h-139z" />
    <glyph glyph-name="wcircumflex" unicode="&#x175;" horiz-adv-x="811" 
d="M572 0h-139l-42 251l-117 -251h-133l-102 517h169l45 -251l112 251h135l38 -252l116 252h173zM456 662l-82 -82h-132l159 153h132l113 -153h-139z" />
    <glyph glyph-name="Ycircumflex" unicode="&#x176;" horiz-adv-x="710" 
d="M447 301l-42 -301h-195l42 301l-195 422h210l106 -257l179 257h212zM454 868l-82 -82h-132l159 153h132l113 -153h-139z" />
    <glyph glyph-name="ycircumflex" unicode="&#x177;" horiz-adv-x="603" 
d="M36.5 -160q-24.5 5 -35.5 10t-14 7l17 123l50 -3q8 -1 23 -1q35 0 54.5 8.5t25 16.5t11.5 19l3 10l-132 487h191l58 -281l142 281h190l-271 -487q-43 -79 -83.5 -121.5t-80 -58t-88.5 -15.5q-36 0 -60.5 5zM372 662l-82 -82h-132l159 153h132l113 -153h-139z" />
    <glyph glyph-name="Ydieresis" unicode="&#x178;" horiz-adv-x="710" 
d="M447 301l-42 -301h-195l42 301l-195 422h210l106 -257l179 257h212zM410 790h-166l20 139h166zM644 790h-166l20 139h166z" />
    <glyph glyph-name="Zacute" unicode="&#x179;" horiz-adv-x="698" 
d="M8 89l407 474h-309l23 160h589l-12 -85l-415 -476h342l-23 -162h-615zM600 823l-287 -66l-15 77l277 107z" />
    <glyph glyph-name="zacute" unicode="&#x17a;" horiz-adv-x="531" 
d="M-12 92l284 306h-219l17 119h466l-13 -89l-287 -307h245l-17 -121h-489zM468 617l-287 -66l-15 77l277 107z" />
    <glyph glyph-name="Zdotaccent" unicode="&#x17b;" horiz-adv-x="698" 
d="M8 89l407 474h-309l23 160h589l-12 -85l-415 -476h342l-23 -162h-615zM537 766h-195l23 163h195z" />
    <glyph glyph-name="zdotaccent" unicode="&#x17c;" horiz-adv-x="531" 
d="M-12 92l284 306h-219l17 119h466l-13 -89l-287 -307h245l-17 -121h-489zM405 560h-195l23 163h195z" />
    <glyph glyph-name="Zcaron" unicode="&#x17d;" horiz-adv-x="698" 
d="M8 89l407 474h-309l23 160h589l-12 -85l-415 -476h342l-23 -162h-615zM662 930l-156 -154h-133l-115 154h132l59 -82l74 82h139z" />
    <glyph glyph-name="zcaron" unicode="&#x17e;" horiz-adv-x="531" 
d="M-12 92l284 306h-219l17 119h466l-13 -89l-287 -307h245l-17 -121h-489zM530 724l-156 -154h-133l-115 154h132l59 -82l74 82h139z" />
    <glyph glyph-name="uni018F" unicode="&#x18f;" horiz-adv-x="770" 
d="M503.5 527q-19.5 37 -84.5 37q-43 0 -78.5 -25t-78.5 -82q-4 -6 -11 -6t-16 5l-124 67q-9 4 -9 13q1 5 8 17q58 89 141 134.5t190 45.5t179.5 -46t103.5 -128t16 -188t-75.5 -193.5t-149 -137.5t-181.5 -50q-169 0 -243 102t-47 290q3 19 7.5 25.5t19.5 6.5h422
q19 0 22 22q8 54 -11.5 91zM287 278q-12 0 -17 -3.5t-6 -14.5q-7 -50 17 -84t72 -34q57 0 88 32.5t50 102.5z" />
    <glyph glyph-name="florin" unicode="&#x192;" horiz-adv-x="567" 
d="M499 385h-93l-131 -415q-20 -64 -74 -101t-125 -37h-142l37 127h61q26 0 39 12t24 49l116 365h-84l42 132h84l21 69q21 64 74 100.5t124 36.5h139l-39 -126h-60q-17 0 -35 -15t-25 -35l-9 -30h99z" />
    <glyph glyph-name="uni01C4" unicode="&#x1c4;" horiz-adv-x="1433" 
d="M235 723q115 0 145 -1q188 -7 267.5 -102t56.5 -256q-15 -108 -67.5 -190t-143.5 -128t-215 -46h-259l102 723h114zM236 153h70q40 0 81 22t72.5 70t42.5 122q14 98 -24 150.5t-114 52.5h-70zM743 89l407 474h-309l23 160h589l-12 -85l-415 -476h342l-23 -162h-615z
M1397 930l-156 -154h-133l-115 154h132l59 -82l74 82h139z" />
    <glyph glyph-name="uni01C5" unicode="&#x1c5;" horiz-adv-x="1266" 
d="M235 723q115 0 145 -1q188 -7 267.5 -102t56.5 -256q-15 -108 -67.5 -190t-143.5 -128t-215 -46h-259l102 723h114zM236 153h70q40 0 81 22t72.5 70t42.5 122q14 98 -24 150.5t-114 52.5h-70zM723 92l284 306h-219l17 119h466l-13 -89l-287 -307h245l-17 -121h-489z
M1265 724l-156 -154h-133l-115 154h132l59 -82l74 82h139z" />
    <glyph glyph-name="uni01C6" unicode="&#x1c6;" horiz-adv-x="1150" 
d="M45 63q-48 73 -30 199q17 123 80 194t158 71q44 0 80.5 -16t52.5 -53l40 285h195l-104 -743h-138l-5 68q-26 -34 -71 -56t-104 -22q-106 0 -154 73zM323.5 154.5q24.5 28.5 32.5 84.5l6 45q15 106 -62 106q-35 0 -61 -27.5t-36 -98.5q-10 -73 7.5 -105.5t54.5 -32.5
q34 0 58.5 28.5zM607 92l284 306h-219l17 119h466l-13 -89l-287 -307h245l-17 -121h-489zM1149 724l-156 -154h-133l-115 154h132l59 -82l74 82h139z" />
    <glyph glyph-name="uni01C7" unicode="&#x1c7;" horiz-adv-x="1041" 
d="M316 723l-80 -563h289l-22 -160h-484l102 723h195zM925.5 93q-24.5 -51 -74.5 -77t-136 -26q-32 0 -70.5 3t-59.5 7l25 175q44 -5 63 -5q50 0 71.5 25t29.5 84l63 444h195l-70 -494q-12 -85 -36.5 -136z" />
    <glyph glyph-name="uni01C8" unicode="&#x1c8;" horiz-adv-x="880" 
d="M316 723l-80 -563h289l-22 -160h-484l102 723h195zM859 579h-195l23 164h195zM551 -166q-23 0 -37.5 4t-20.5 8t-7 5l17 130l31 5q28 6 39.5 15.5t13.5 26.5l69 489h195l-69 -489q-27 -194 -231 -194z" />
    <glyph glyph-name="uni01C9" unicode="&#x1c9;" horiz-adv-x="657" 
d="M76.5 13q-39.5 24 -45.5 58.5t1 84.5l82 587h191l-78 -561q-3 -23 6 -37.5t44 -19.5l20 -2l-16 -118q-43 -16 -76 -16q-89 0 -128.5 24zM636 579h-195l23 164h195zM328 -166q-23 0 -37.5 4t-20.5 8t-7 5l17 130l31 5q28 6 39.5 15.5t13.5 26.5l69 489h195l-69 -489
q-27 -194 -231 -194z" />
    <glyph glyph-name="uni01CA" unicode="&#x1ca;" horiz-adv-x="1234" 
d="M794 723l-102 -723h-176l-241 431l-61 -431h-195l102 723h196l225 -403l57 403h195zM1118.5 93q-24.5 -51 -74.5 -77t-136 -26q-32 0 -70.5 3t-59.5 7l25 175q44 -5 63 -5q50 0 71.5 25t29.5 84l63 444h195l-70 -494q-12 -85 -36.5 -136z" />
    <glyph glyph-name="uni01CB" unicode="&#x1cb;" horiz-adv-x="1113" 
d="M794 723l-102 -723h-176l-241 431l-61 -431h-195l102 723h196l225 -403l57 403h195zM1092 579h-195l23 164h195zM784 -166q-23 0 -37.5 4t-20.5 8t-7 5l17 130l31 5q28 6 39.5 15.5t13.5 26.5l69 489h195l-69 -489q-27 -194 -231 -194z" />
    <glyph glyph-name="uni01CC" unicode="&#x1cc;" horiz-adv-x="935" 
d="M83 517h193l-9 -62q26 24 42.5 35.5t42 20t63.5 8.5q45 0 84 -22.5t59.5 -61.5t13.5 -86l-49 -349h-195l45 323q3 21 -13.5 34t-39.5 13q-24 0 -45.5 -13t-24.5 -34l-45 -323h-195zM914 579h-195l23 164h195zM606 -166q-23 0 -37.5 4t-20.5 8t-7 5l17 130l31 5
q28 6 39.5 15.5t13.5 26.5l69 489h195l-69 -489q-27 -194 -231 -194z" />
    <glyph glyph-name="uni01EA" unicode="&#x1ea;" 
d="M160.5 35.5q-73.5 45.5 -104.5 129t-15 195.5t71 196.5t141 130.5t191 46q104 0 176.5 -46t104 -130.5t16.5 -196.5q-16 -111 -71 -195t-140 -129.5t-190 -45.5q-106 0 -179.5 45.5zM470 196q44 50 59 161q16 115 -13.5 167.5t-93.5 52.5t-109 -52.5t-61 -167.5
q-16 -111 14.5 -161t95.5 -50q64 0 108 50zM243 -35q22 22 78 41h133q-54 -17 -75.5 -31.5t-23.5 -32.5q-4 -28 23 -28q15 0 27 4t30 12q6 3 11 3q8 0 6 -14l-8 -51q-2 -11 -12 -17q-16 -8 -46.5 -14.5t-62.5 -6.5q-55 0 -83.5 21.5t-22.5 63.5q4 28 26 50z" />
    <glyph glyph-name="uni01EB" unicode="&#x1eb;" horiz-adv-x="573" 
d="M105 23.5q-55 33.5 -78.5 94t-12.5 137.5q11 80 53.5 142t107 96t140.5 34q79 0 133.5 -35t78 -97t12.5 -140q-11 -77 -52 -137t-105 -94t-143 -34t-134 33.5zM322 170q21 39 29 92q18 126 -55 126q-74 0 -92 -126q-8 -54 2.5 -92.5t52.5 -38.5t63 39zM129 -35
q22 22 78 41h133q-54 -17 -75.5 -31.5t-23.5 -32.5q-4 -28 23 -28q15 0 27 4t30 12q6 3 11 3q8 0 6 -14l-8 -51q-2 -11 -12 -17q-16 -8 -46.5 -14.5t-62.5 -6.5q-55 0 -83.5 21.5t-22.5 63.5q4 28 26 50z" />
    <glyph glyph-name="uni01F1" unicode="&#x1f1;" horiz-adv-x="1433" 
d="M235 723q115 0 145 -1q188 -7 267.5 -102t56.5 -256q-15 -108 -67.5 -190t-143.5 -128t-215 -46h-259l102 723h114zM236 153h70q40 0 81 22t72.5 70t42.5 122q14 98 -24 150.5t-114 52.5h-70zM743 89l407 474h-309l23 160h589l-12 -85l-415 -476h342l-23 -162h-615z" />
    <glyph glyph-name="uni01F2" unicode="&#x1f2;" horiz-adv-x="1266" 
d="M235 723q115 0 145 -1q188 -7 267.5 -102t56.5 -256q-15 -108 -67.5 -190t-143.5 -128t-215 -46h-259l102 723h114zM236 153h70q40 0 81 22t72.5 70t42.5 122q14 98 -24 150.5t-114 52.5h-70zM723 92l284 306h-219l17 119h466l-13 -89l-287 -307h245l-17 -121h-489z" />
    <glyph glyph-name="uni01F3" unicode="&#x1f3;" horiz-adv-x="1150" 
d="M45 63q-48 73 -30 199q17 123 80 194t158 71q44 0 80.5 -16t52.5 -53l40 285h195l-104 -743h-138l-5 68q-26 -34 -71 -56t-104 -22q-106 0 -154 73zM323.5 154.5q24.5 28.5 32.5 84.5l6 45q15 106 -62 106q-35 0 -61 -27.5t-36 -98.5q-10 -73 7.5 -105.5t54.5 -32.5
q34 0 58.5 28.5zM607 92l284 306h-219l17 119h466l-13 -89l-287 -307h245l-17 -121h-489z" />
    <glyph glyph-name="uni01F4" unicode="&#x1f4;" 
d="M158 36.5q-71 46.5 -102 130.5t-16 192q16 111 73 196t144 131.5t190 46.5q93 0 159.5 -37.5t97 -98t22.5 -129.5h-203q-3 47 -29 75.5t-75 28.5q-60 0 -105 -49t-61 -158q-17 -119 19.5 -162.5t96.5 -43.5q39 0 71 20.5t44 47.5l13 26h-126l18 131l331 -2l-54 -382h-128
l11 80q-30 -27 -56 -45t-66.5 -31.5t-95.5 -13.5q-102 0 -173 46.5zM603 823l-287 -66l-15 77l277 107z" />
    <glyph glyph-name="uni01F5" unicode="&#x1f5;" horiz-adv-x="653" 
d="M85 -155.5q-66 15.5 -96 42.5t-25 61q4 30 28 48t41 23.5t45 12.5q-3 1 -21 10.5t-30.5 30t-8.5 46.5q5 33 38.5 58t93.5 33q-50 23 -73 66.5t-17 87.5q7 50 47.5 86.5t103.5 55.5t135 19q50 0 82.5 -9.5t64.5 -27.5q133 48 179 67l-20 -138l-90 -12q3 -22 0 -40
q-6 -45 -41.5 -86t-96 -66.5t-138.5 -25.5q-44 0 -68 3q-14 -3 -16 -9q-1 -8 13 -11t37 -4.5t31 -1.5l102 -6q102 -7 147.5 -49.5t36.5 -105.5q-7 -51 -46 -90t-108.5 -61.5t-164.5 -22.5q-99 0 -165 15.5zM354 308q20 19 24 49t-10.5 51.5t-41.5 21.5t-47.5 -21.5
t-24.5 -51.5t11 -49t42 -19t47 19zM359.5 -61q18.5 8 20.5 24t-13.5 26.5t-45.5 12.5l-93 6q-36 2 -53 -9.5t-19 -27.5q-3 -24 28.5 -32t109.5 -8q47 0 65.5 8zM513 617l-287 -66l-15 77l277 107z" />
    <glyph glyph-name="Aringacute" unicode="&#x1fa;" horiz-adv-x="802" 
d="M726 3h-232l-28 140h-228l-69 -140h-194l359 723h25q-10 24 -6 52q5 33 27.5 58t54.5 35l26 69h100l-40 -73q25 -12 37.5 -36t8.5 -55q-4 -27 -20 -50h26zM430 807.5q-16 -13.5 -19 -32.5t9.5 -33.5t31.5 -14.5t35 14.5t19 33.5t-9 32.5t-32 13.5q-19 0 -35 -13.5z
M446 309l-43 202l-101 -202h144z" />
    <glyph glyph-name="aringacute" unicode="&#x1fb;" horiz-adv-x="582" 
d="M517 0h-196h196zM321 0l8 48q-38 -32 -74 -45t-72 -13q-90 0 -139 66q-48 64 -29 204q12 88 47.5 148t85 89.5t105.5 29.5q38 0 73.5 -13t61.5 -37l6 40h196l-74 -517h-195zM325 155q24 39 34 109q19 136 -51 136q-35 0 -60.5 -34t-35.5 -102t6 -108t50 -40q33 0 57 39z
M486 617l-287 -66l-15 77l277 107zM410 592q-38 -33 -85 -33q-48 0 -76.5 33.5t-21.5 82.5q6 46 44.5 78t85.5 32t76 -33t22 -79q-7 -48 -45 -81zM377 705q-12 13 -31 13q-20 0 -35.5 -13.5t-18.5 -32.5t9.5 -33.5t31.5 -14.5t34.5 14.5t18.5 33.5q3 20 -9 33z" />
    <glyph glyph-name="AEacute" unicode="&#x1fc;" horiz-adv-x="1112" 
d="M1016 0h-572l20 140h-220l-89 -140h-194l477 723h671l-24 -159h-340l-17 -122h213l-22 -157h-213l-18 -125h350zM528 601l-190 -295h149zM921 823l-287 -66l-15 77l277 107z" />
    <glyph glyph-name="aeacute" unicode="&#x1fd;" horiz-adv-x="904" 
d="M548.5 145.5q24.5 -26.5 68.5 -26.5q28 0 56 13.5t66 47.5l112 -48q-65 -81 -127 -111.5t-151 -30.5q-61 0 -111 21t-81 58q-5 6 -10 0q-51 -42 -103.5 -60.5t-120.5 -18.5q-81 0 -119.5 40.5t-28.5 108.5q11 80 89 128.5t217 55.5l41 2l4 29q8 56 -49 56q-61 0 -92 -60
l-163 33q28 50 62 81t85.5 47t127.5 16q124 -1 177 -39q71 39 146 39q77 0 132 -36.5t79.5 -105t10.5 -162.5h-335q-7 -51 17.5 -77.5zM579 389.5q-25 -22.5 -30 -64.5l143 -1q4 29 -9 58.5t-46 29.5t-58 -22.5zM301 227q-35 -3 -70.5 -23t-40.5 -52q-3 -22 10.5 -34.5
t41.5 -12.5q29 0 53 14t27 37l10 73zM646 617l-287 -66l-15 77l277 107z" />
    <glyph glyph-name="Oslashacute" unicode="&#x1fe;" horiz-adv-x="790" 
d="M815 656q-1 -7 -9 -13l-84 -73q40 -87 23 -210q-16 -111 -71 -195t-140 -129.5t-190 -45.5q-132 0 -214 71l-64 -54q-12 -12 -23 -12q-9 0 -19 12l-33 39q-9 11 -8 20t10 16l75 64q-40 90 -23 214q16 112 71 196.5t141 130.5t191 46q136 0 215 -76l73 62q10 9 19 9
q7 0 12 -5l44 -54q5 -6 4 -13zM272 321l239 205q-10 30 -30.5 43.5t-53.5 13.5q-64 0 -99 -52.5t-52 -173.5q-3 -24 -4 -36zM516 394l-236 -204q21 -48 85 -48q43 0 71.5 21.5t46.5 68t29 125.5q3 24 4 37zM613 823l-287 -66l-15 77l277 107z" />
    <glyph glyph-name="oslashacute" unicode="&#x1ff;" horiz-adv-x="612" 
d="M535 408q30 -67 18 -153q-11 -77 -52 -137t-105 -94t-143 -34q-99 0 -161 53l-63 -52l-50 62l66 54q-29 62 -17 148q11 80 53.5 142t107 96t140.5 34q100 0 160 -55l65 53l48 -62zM216 247l140 116q-14 25 -46 25q-74 0 -92 -126zM366 268l-138 -113q15 -24 45 -24
q42 0 63 39t29 92zM495 617l-287 -66l-15 77l277 107z" />
    <glyph glyph-name="uni0200" unicode="&#x200;" horiz-adv-x="724" 
d="M319 723h199l154 -723h-192l-28 140h-228l-69 -140h-194zM431 306l-39 231l-104 -231h143zM430 807l-65 -61l-169 103l94 94zM643 807l-64 -61l-170 103l94 94z" />
    <glyph glyph-name="uni0201" unicode="&#x201;" horiz-adv-x="582" 
d="M517 0h-196h196zM321 0l8 48q-38 -32 -74 -45t-72 -13q-90 0 -139 66q-48 64 -29 204q12 88 47.5 148t85 89.5t105.5 29.5q38 0 73.5 -13t61.5 -37l6 40h196l-74 -517h-195zM325 155q24 39 34 109q19 136 -51 136q-35 0 -60.5 -34t-35.5 -102t6 -108t50 -40q33 0 57 39z
M316 601l-65 -61l-169 103l94 94zM529 601l-64 -61l-170 103l94 94z" />
    <glyph glyph-name="uni0202" unicode="&#x202;" horiz-adv-x="724" 
d="M319 723h199l154 -723h-192l-28 140h-228l-69 -140h-194zM431 306l-39 231l-104 -231h143zM551 818q-9 26 -33 42t-49 16q-27 0 -55 -16t-46 -42h-105q31 72 90 108.5t128 36.5t117 -37t59 -108h-106z" />
    <glyph glyph-name="uni0203" unicode="&#x203;" horiz-adv-x="582" 
d="M517 0h-196h196zM321 0l8 48q-38 -32 -74 -45t-72 -13q-90 0 -139 66q-48 64 -29 204q12 88 47.5 148t85 89.5t105.5 29.5q38 0 73.5 -13t61.5 -37l6 40h196l-74 -517h-195zM325 155q24 39 34 109q19 136 -51 136q-35 0 -60.5 -34t-35.5 -102t6 -108t50 -40q33 0 57 39z
M437 612q-9 26 -33 42t-49 16q-27 0 -55 -16t-46 -42h-105q31 72 90 108.5t128 36.5t117 -37t59 -108h-106z" />
    <glyph glyph-name="uni0204" unicode="&#x204;" horiz-adv-x="650" 
d="M121 723h534l-24 -161h-337l-17 -120h282l-22 -157h-283l-17 -123h340l-23 -162h-535zM385 807l-65 -61l-169 103l94 94zM598 807l-64 -61l-170 103l94 94z" />
    <glyph glyph-name="uni0205" unicode="&#x205;" horiz-adv-x="566" 
d="M210 148q18 -22 52 -22q30 0 51.5 11t36.5 39h172q-16 -55 -58.5 -97.5t-100 -65.5t-115.5 -23q-80 0 -137 32.5t-83 92t-15 137.5q11 75 51.5 138t105.5 100t145 37q82 0 134 -34.5t72.5 -95t9.5 -138.5l-6 -45h-326q-7 -44 11 -66zM361 323q4 31 -12.5 52t-51.5 21
q-30 0 -55 -22t-29 -51h148zM312 601l-65 -61l-169 103l94 94zM525 601l-64 -61l-170 103l94 94z" />
    <glyph glyph-name="uni0206" unicode="&#x206;" horiz-adv-x="650" 
d="M121 723h534l-24 -161h-337l-17 -120h282l-22 -157h-283l-17 -123h340l-23 -162h-535zM506 818q-9 26 -33 42t-49 16q-27 0 -55 -16t-46 -42h-105q31 72 90 108.5t128 36.5t117 -37t59 -108h-106z" />
    <glyph glyph-name="uni0207" unicode="&#x207;" horiz-adv-x="566" 
d="M210 148q18 -22 52 -22q30 0 51.5 11t36.5 39h172q-16 -55 -58.5 -97.5t-100 -65.5t-115.5 -23q-80 0 -137 32.5t-83 92t-15 137.5q11 75 51.5 138t105.5 100t145 37q82 0 134 -34.5t72.5 -95t9.5 -138.5l-6 -45h-326q-7 -44 11 -66zM361 323q4 31 -12.5 52t-51.5 21
q-30 0 -55 -22t-29 -51h148zM433 612q-9 26 -33 42t-49 16q-27 0 -55 -16t-46 -42h-105q31 72 90 108.5t128 36.5t117 -37t59 -108h-106z" />
    <glyph glyph-name="uni0208" unicode="&#x208;" horiz-adv-x="325" 
d="M316 723l-102 -723h-195l102 723h195zM216 807l-65 -61l-169 103l94 94zM429 807l-64 -61l-170 103l94 94z" />
    <glyph glyph-name="uni0209" unicode="&#x209;" horiz-adv-x="307" 
d="M205 0h-195l73 517h195zM181 601l-65 -61l-169 103l94 94zM394 601l-64 -61l-170 103l94 94z" />
    <glyph glyph-name="uni020A" unicode="&#x20a;" horiz-adv-x="325" 
d="M316 723l-102 -723h-195l102 723h195zM337 818q-9 26 -33 42t-49 16q-27 0 -55 -16t-46 -42h-105q31 72 90 108.5t128 36.5t117 -37t59 -108h-106z" />
    <glyph glyph-name="uni020B" unicode="&#x20b;" horiz-adv-x="307" 
d="M205 0h-195l73 517h195zM302 612q-9 26 -33 42t-49 16q-27 0 -55 -16t-46 -42h-105q31 72 90 108.5t128 36.5t117 -37t59 -108h-106z" />
    <glyph glyph-name="uni020C" unicode="&#x20c;" 
d="M160.5 35.5q-73.5 45.5 -104.5 129t-15 195.5t71 196.5t141 130.5t191 46q104 0 176.5 -46t104 -130.5t16.5 -196.5q-16 -111 -71 -195t-140 -129.5t-190 -45.5q-106 0 -179.5 45.5zM470 196q44 50 59 161q16 115 -13.5 167.5t-93.5 52.5t-109 -52.5t-61 -167.5
q-16 -111 14.5 -161t95.5 -50q64 0 108 50zM439 807l-65 -61l-169 103l94 94zM652 807l-64 -61l-170 103l94 94z" />
    <glyph glyph-name="uni020D" unicode="&#x20d;" horiz-adv-x="573" 
d="M105 23.5q-55 33.5 -78.5 94t-12.5 137.5q11 80 53.5 142t107 96t140.5 34q79 0 133.5 -35t78 -97t12.5 -140q-11 -77 -52 -137t-105 -94t-143 -34t-134 33.5zM322 170q21 39 29 92q18 126 -55 126q-74 0 -92 -126q-8 -54 2.5 -92.5t52.5 -38.5t63 39zM311 601l-65 -61
l-169 103l94 94zM524 601l-64 -61l-170 103l94 94z" />
    <glyph glyph-name="uni020E" unicode="&#x20e;" 
d="M160.5 35.5q-73.5 45.5 -104.5 129t-15 195.5t71 196.5t141 130.5t191 46q104 0 176.5 -46t104 -130.5t16.5 -196.5q-16 -111 -71 -195t-140 -129.5t-190 -45.5q-106 0 -179.5 45.5zM470 196q44 50 59 161q16 115 -13.5 167.5t-93.5 52.5t-109 -52.5t-61 -167.5
q-16 -111 14.5 -161t95.5 -50q64 0 108 50zM560 818q-9 26 -33 42t-49 16q-27 0 -55 -16t-46 -42h-105q31 72 90 108.5t128 36.5t117 -37t59 -108h-106z" />
    <glyph glyph-name="uni020F" unicode="&#x20f;" horiz-adv-x="573" 
d="M105 23.5q-55 33.5 -78.5 94t-12.5 137.5q11 80 53.5 142t107 96t140.5 34q79 0 133.5 -35t78 -97t12.5 -140q-11 -77 -52 -137t-105 -94t-143 -34t-134 33.5zM322 170q21 39 29 92q18 126 -55 126q-74 0 -92 -126q-8 -54 2.5 -92.5t52.5 -38.5t63 39zM432 612
q-9 26 -33 42t-49 16q-27 0 -55 -16t-46 -42h-105q31 72 90 108.5t128 36.5t117 -37t59 -108h-106z" />
    <glyph glyph-name="uni0210" unicode="&#x210;" horiz-adv-x="709" 
d="M421 0l-70 249h-102l-35 -249h-195l102 723h328q134 0 188.5 -64t39.5 -169q-11 -78 -48 -127t-97 -83l88 -280h-199zM446 423q30 29 35 65q5 37 -18 64t-57 27h-111l-26 -185h111q36 0 66 29zM400 807l-65 -61l-169 103l94 94zM613 807l-64 -61l-170 103l94 94z" />
    <glyph glyph-name="uni0211" unicode="&#x211;" horiz-adv-x="449" 
d="M83 517h188l-20 -143q30 68 78.5 110.5t116.5 42.5l-25 -183q-16 2 -43 2q-72 0 -102 -27t-36 -71l-35 -248h-195zM266 601l-65 -61l-169 103l94 94zM479 601l-64 -61l-170 103l94 94z" />
    <glyph glyph-name="uni0212" unicode="&#x212;" horiz-adv-x="709" 
d="M421 0l-70 249h-102l-35 -249h-195l102 723h328q134 0 188.5 -64t39.5 -169q-11 -78 -48 -127t-97 -83l88 -280h-199zM446 423q30 29 35 65q5 37 -18 64t-57 27h-111l-26 -185h111q36 0 66 29zM521 818q-9 26 -33 42t-49 16q-27 0 -55 -16t-46 -42h-105q31 72 90 108.5
t128 36.5t117 -37t59 -108h-106z" />
    <glyph glyph-name="uni0213" unicode="&#x213;" horiz-adv-x="449" 
d="M83 517h188l-20 -143q30 68 78.5 110.5t116.5 42.5l-25 -183q-16 2 -43 2q-72 0 -102 -27t-36 -71l-35 -248h-195zM387 612q-9 26 -33 42t-49 16q-27 0 -55 -16t-46 -42h-105q31 72 90 108.5t128 36.5t117 -37t59 -108h-106z" />
    <glyph glyph-name="uni0214" unicode="&#x214;" horiz-adv-x="754" 
d="M580 71q-84 -81 -250 -81t-228 81t-41 228l60 424h197l-61 -432q-10 -70 18 -104t78 -34t87 34t47 104l61 432h197l-60 -424q-21 -147 -105 -228zM412 807l-65 -61l-169 103l94 94zM625 807l-64 -61l-170 103l94 94z" />
    <glyph glyph-name="uni0215" unicode="&#x215;" horiz-adv-x="625" 
d="M114 10q-42 20 -65.5 57t-16.5 86l51 364h195l-48 -337q-3 -23 11 -38t42 -15t46.5 15t21.5 38l48 337h197l-77 -517h-144l-4 68q-29 -39 -78 -58.5t-93 -19.5t-86 20zM336 601l-65 -61l-169 103l94 94zM549 601l-64 -61l-170 103l94 94z" />
    <glyph glyph-name="uni0216" unicode="&#x216;" horiz-adv-x="754" 
d="M580 71q-84 -81 -250 -81t-228 81t-41 228l60 424h197l-61 -432q-10 -70 18 -104t78 -34t87 34t47 104l61 432h197l-60 -424q-21 -147 -105 -228zM533 818q-9 26 -33 42t-49 16q-27 0 -55 -16t-46 -42h-105q31 72 90 108.5t128 36.5t117 -37t59 -108h-106z" />
    <glyph glyph-name="uni0217" unicode="&#x217;" horiz-adv-x="625" 
d="M114 10q-42 20 -65.5 57t-16.5 86l51 364h195l-48 -337q-3 -23 11 -38t42 -15t46.5 15t21.5 38l48 337h197l-77 -517h-144l-4 68q-29 -39 -78 -58.5t-93 -19.5t-86 20zM457 612q-9 26 -33 42t-49 16q-27 0 -55 -16t-46 -42h-105q31 72 90 108.5t128 36.5t117 -37t59 -108
h-106z" />
    <glyph glyph-name="Scommaaccent" unicode="&#x218;" horiz-adv-x="716" 
d="M167 15q-69 25 -110 76.5t-36 128.5h202q3 -38 32.5 -59.5t80.5 -21.5q52 0 87.5 15.5t40.5 50.5q4 29 -24.5 41.5t-87.5 22.5l-111 19q-86 14 -129 69.5t-30 146.5q10 70 57.5 121.5t120.5 79t157 27.5q86 0 151 -31.5t99 -84t33 -112.5h-197q2 41 -24 59.5t-79 18.5
q-52 0 -78 -17t-29 -40q-4 -26 11 -40.5t59 -22.5l110 -19q135 -24 168 -90.5t22 -147.5q-9 -61 -57.5 -110t-124.5 -77t-165 -28q-80 0 -149 25zM225 -233q-3 7 2 13l39 44q6 8 7 14t-2.5 10t-9.5 4h-9q-13 0 -17 4.5t-2 16.5l9 60q3 19 19 19h92q16 0 14 -15l-12 -85
q-1 -4 -3 -8t-3 -5l-61 -65q-7 -8 -14 -11t-20 -3h-18q-8 0 -11 7z" />
    <glyph glyph-name="scommaaccent" unicode="&#x219;" horiz-adv-x="527" 
d="M65.5 31.5q-64.5 41.5 -66.5 132.5h160q6 -28 28 -36.5t57 -8.5q34 0 52.5 8.5t20.5 21.5q2 15 -12 22.5t-45 13.5l-75 12q-162 30 -144 160q7 48 40.5 86.5t89.5 61t129 22.5q70 0 120 -21t72.5 -59.5t13.5 -90.5h-158q-2 25 -21 36.5t-49 11.5q-62 0 -67 -33
q-2 -13 15 -21.5t58 -15.5l64 -12q85 -21 112.5 -68.5t20.5 -93.5q-11 -81 -83 -125.5t-175 -44.5q-93 0 -157.5 41.5zM136 -233q-3 7 2 13l39 44q6 8 7 14t-2.5 10t-9.5 4h-9q-13 0 -17 4.5t-2 16.5l9 60q3 19 19 19h92q16 0 14 -15l-12 -85q-1 -4 -3 -8t-3 -5l-61 -65
q-7 -8 -14 -11t-20 -3h-18q-8 0 -11 7z" />
    <glyph glyph-name="uni021A" unicode="&#x21a;" horiz-adv-x="631" 
d="M68 723h607l-24 -171h-207l-78 -552h-195l78 552h-205zM189 -233q-3 7 2 13l39 44q6 8 7 14t-2.5 10t-9.5 4h-9q-13 0 -17 4.5t-2 16.5l9 60q3 19 19 19h92q16 0 14 -15l-12 -85q-1 -4 -3 -8t-3 -5l-61 -65q-7 -8 -14 -11t-20 -3h-18q-8 0 -11 7z" />
    <glyph glyph-name="uni021B" unicode="&#x21b;" horiz-adv-x="451" 
d="M306 385l-32 -234q-2 -16 5 -22t22 -6h81l-16 -115q-34 -16 -105 -16q-114 0 -153.5 40t-29.5 110l34 243h-84l19 132h91l51 161h158l-22 -160h113l-19 -133h-113zM131 -233q-3 7 2 13l39 44q6 8 7 14t-2.5 10t-9.5 4h-9q-13 0 -17 4.5t-2 16.5l9 60q3 19 19 19h92
q16 0 14 -15l-12 -85q-1 -4 -3 -8t-3 -5l-61 -65q-7 -8 -14 -11t-20 -3h-18q-8 0 -11 7z" />
    <glyph glyph-name="uni0237" unicode="&#x237;" horiz-adv-x="300" 
d="M-31 -166q-23 0 -37 4t-20 8t-7 5l17 130l30 5q28 6 40 16t14 26l69 489h195l-69 -489q-27 -194 -232 -194z" />
    <glyph glyph-name="uni0259" unicode="&#x259;" horiz-adv-x="566" 
d="M337 369q-18 22 -52 22q-30 0 -51.5 -11t-36.5 -39h-172q16 55 58.5 97.5t100 65.5t115.5 23q80 0 137 -32.5t83 -92t15 -137.5q-11 -75 -51.5 -138t-105.5 -100t-145 -37q-82 0 -134 34.5t-72.5 95t-9.5 138.5l6 45h326q7 44 -11 66zM186 194q-4 -31 12.5 -52t51.5 -21
q30 0 55 22t29 51h-148z" />
    <glyph glyph-name="uni02BC" unicode="&#x2bc;" horiz-adv-x="214" 
d="M62.5 439q-2.5 5 0.5 10l45 105q3 5 3 11q1 8 -7 9l-11 2q-10 1 -13.5 4.5t-2.5 12.5l17 115q2 15 16 15h96q13 0 11 -12l-19 -135q-1 -4 -4 -10l-54 -117q-4 -8 -11 -11.5t-20 -3.5h-38q-6 0 -8.5 5z" />
    <glyph glyph-name="circumflex" unicode="&#x2c6;" horiz-adv-x="433" 
d="M258 662l-82 -82h-132l159 153h132l113 -153h-139z" />
    <glyph glyph-name="caron" unicode="&#x2c7;" horiz-adv-x="433" 
d="M468 724l-156 -154h-133l-115 154h132l59 -82l74 82h139z" />
    <glyph glyph-name="breve" unicode="&#x2d8;" horiz-adv-x="436" 
d="M376.5 615q-58.5 -37 -127.5 -37t-118 36.5t-59 108.5h105q10 -26 33.5 -42t50.5 -16q25 0 53.5 16t45.5 42h106q-31 -71 -89.5 -108z" />
    <glyph glyph-name="dotaccent" unicode="&#x2d9;" horiz-adv-x="238" 
d="M245 560h-195l23 163h195z" />
    <glyph glyph-name="ring" unicode="&#x2da;" horiz-adv-x="271" 
d="M247 581q-38 -33 -85 -33q-48 0 -76.5 33.5t-21.5 82.5q6 46 44.5 78t85.5 32t76 -33t22 -79q-7 -48 -45 -81zM214 694q-12 13 -31 13q-20 0 -35.5 -13.5t-18.5 -32.5t9.5 -33.5t31.5 -14.5t34.5 14.5t18.5 33.5q3 20 -9 33z" />
    <glyph glyph-name="ogonek" unicode="&#x2db;" horiz-adv-x="277" 
d="M-15 -35q22 22 78 41h133q-54 -17 -75.5 -31.5t-23.5 -32.5q-4 -28 23 -28q15 0 27 4t30 12q6 3 11 3q8 0 6 -14l-8 -51q-2 -11 -12 -17q-16 -8 -46.5 -14.5t-62.5 -6.5q-55 0 -83.5 21.5t-22.5 63.5q4 28 26 50z" />
    <glyph glyph-name="tilde" unicode="&#x2dc;" horiz-adv-x="472" 
d="M405 602.5q-28 -8.5 -56 -8.5q-19 0 -39 4.5t-38 10.5q-45 15 -76 15q-20 0 -36 -5t-37 -19q-9 -5 -12 -5q-7 0 -10 12l-8 53q-1 2 -1.5 5t-0.5 7q1 7 14 18q23 19 46 29.5t55 10.5q19 0 36.5 -4t33 -8.5t20.5 -5.5q45 -15 67 -15q37 0 79 27q6 4 12 4q9 0 11 -12l4 -64
q1 -3 0 -7q-2 -11 -17 -22q-19 -12 -47 -20.5z" />
    <glyph glyph-name="hungarumlaut" unicode="&#x2dd;" horiz-adv-x="479" 
d="M278 666q7 -11 6 -19q-1 -10 -15 -17l-150 -78q-14 -8 -21 -8q-6 0 -10 8l-29 34q-6 7 -5 15q1 6 6 9l154 116q8 5 12 5q8 0 11 -7zM492 666q7 -10 5 -19q-1 -10 -14 -17l-151 -78q-14 -8 -20 -8q-5 0 -11 8l-28 34q-7 8 -6 15q1 6 7 9l153 116q8 5 13 5q6 0 11 -7z" />
    <glyph glyph-name="gravecomb" unicode="&#x300;" horiz-adv-x="0" 
d="M20 628l-37 -77l-267 66l58 118z" />
    <glyph glyph-name="acutecomb" unicode="&#x301;" horiz-adv-x="0" 
d="M22 617l-287 -66l-15 77l277 107z" />
    <glyph glyph-name="uni0302" unicode="&#x302;" horiz-adv-x="0" 
d="M-175 662l-82 -82h-132l159 153h132l113 -153h-139z" />
    <glyph glyph-name="tildecomb" unicode="&#x303;" horiz-adv-x="0" 
d="M-67 602.5q-28 -8.5 -56 -8.5q-19 0 -39 4.5t-38 10.5q-45 15 -76 15q-20 0 -36 -5t-37 -19q-9 -5 -12 -5q-7 0 -10 12l-8 53q-1 2 -1.5 5t-0.5 7q1 7 14 18q23 19 46 29.5t55 10.5q19 0 36.5 -4t33 -8.5t20.5 -5.5q45 -15 67 -15q37 0 79 27q6 4 12 4q9 0 11 -12l4 -64
q1 -3 0 -7q-2 -11 -17 -22q-19 -12 -47 -20.5z" />
    <glyph glyph-name="uni0304" unicode="&#x304;" horiz-adv-x="0" 
d="M12 604h-400l17 119h400z" />
    <glyph glyph-name="uni0306" unicode="&#x306;" horiz-adv-x="0" 
d="M-59.5 615q-58.5 -37 -127.5 -37t-118 36.5t-59 108.5h105q10 -26 33.5 -42t50.5 -16q25 0 53.5 16t45.5 42h106q-31 -71 -89.5 -108z" />
    <glyph glyph-name="uni0307" unicode="&#x307;" horiz-adv-x="0" 
d="M7 560h-195l23 163h195z" />
    <glyph glyph-name="uni0308" unicode="&#x308;" horiz-adv-x="0" 
d="M-225 584h-166l20 139h166zM9 584h-166l20 139h166z" />
    <glyph glyph-name="uni030A" unicode="&#x30a;" horiz-adv-x="0" 
d="M-24 581q-38 -33 -85 -33q-48 0 -76.5 33.5t-21.5 82.5q6 46 44.5 78t85.5 32t76 -33t22 -79q-7 -48 -45 -81zM-57 694q-12 13 -31 13q-20 0 -35.5 -13.5t-18.5 -32.5t9.5 -33.5t31.5 -14.5t34.5 14.5t18.5 33.5q3 20 -9 33z" />
    <glyph glyph-name="uni030B" unicode="&#x30b;" horiz-adv-x="0" 
d="M-201 666q7 -11 6 -19q-1 -10 -15 -17l-150 -78q-14 -8 -21 -8q-6 0 -10 8l-29 34q-6 7 -5 15q1 6 6 9l154 116q8 5 12 5q8 0 11 -7zM13 666q7 -10 5 -19q-1 -10 -14 -17l-151 -78q-14 -8 -20 -8q-5 0 -11 8l-28 34q-7 8 -6 15q1 6 7 9l153 116q8 5 13 5q6 0 11 -7z" />
    <glyph glyph-name="uni030C" unicode="&#x30c;" horiz-adv-x="0" 
d="M35 724l-156 -154h-133l-115 154h132l59 -82l74 82h139z" />
    <glyph glyph-name="uni030F" unicode="&#x30f;" horiz-adv-x="0" 
d="M-196 601l-65 -61l-169 103l94 94zM17 601l-64 -61l-170 103l94 94z" />
    <glyph glyph-name="uni0311" unicode="&#x311;" horiz-adv-x="0" 
d="M-74 612q-9 26 -33 42t-49 16q-27 0 -55 -16t-46 -42h-105q31 72 90 108.5t128 36.5t117 -37t59 -108h-106z" />
    <glyph glyph-name="dotbelowcomb" unicode="&#x323;" horiz-adv-x="0" 
d="M-92 -139q-3 -22 -27 -22h-102q-11 0 -13.5 4.5t-1.5 14.5l12 86q3 18 15 18h119q13 0 10 -16z" />
    <glyph glyph-name="uni0326" unicode="&#x326;" horiz-adv-x="0" 
d="M-224 -233q-3 7 2 13l39 44q6 8 7 14t-2.5 10t-9.5 4h-9q-13 0 -17 4.5t-2 16.5l9 60q3 19 19 19h92q16 0 14 -15l-12 -85q-1 -4 -3 -8t-3 -5l-61 -65q-7 -8 -14 -11t-20 -3h-18q-8 0 -11 7z" />
    <glyph glyph-name="uni0327" unicode="&#x327;" horiz-adv-x="0" 
d="M-137.5 -195.5q-41.5 -23.5 -95.5 -23.5q-84 0 -129 29l33 59q44 -26 81 -26q20 0 34 7t16 19q3 19 -16.5 28.5t-67.5 9.5q-8 0 -10.5 2t2.5 10l49 86h79l-29 -57q56 0 80.5 -25t19.5 -57q-5 -38 -46.5 -61.5z" />
    <glyph glyph-name="uni0328" unicode="&#x328;" horiz-adv-x="0" 
d="M-292 -35q22 22 78 41h133q-54 -17 -75.5 -31.5t-23.5 -32.5q-4 -28 23 -28q15 0 27 4t30 12q6 3 11 3q8 0 6 -14l-8 -51q-2 -11 -12 -17q-16 -8 -46.5 -14.5t-62.5 -6.5q-55 0 -83.5 21.5t-22.5 63.5q4 28 26 50z" />
    <glyph glyph-name="uni0394" unicode="&#x394;" horiz-adv-x="706" 
d="M-9 115l304 608h219l131 -609l-16 -114h-654zM433 155l-61 372l-166 -372h227z" />
    <glyph glyph-name="uni03A9" unicode="&#x3a9;" horiz-adv-x="771" 
d="M321 534.5q-45 -48.5 -60 -154.5q-11 -80 4 -135.5t47 -88.5q10 -11 14.5 -20.5t2.5 -20.5l-16 -115h-313l22 160h118q-48 44 -74 107t-15 141q12 82 64 156.5t137 121.5t189 47q107 0 176.5 -49t98 -124t17.5 -151q-10 -70 -50 -131.5t-96 -104.5q-4 -4 -4 -7
q-1 -6 5 -6h104l-22 -160h-312l19 137q49 33 87 95t51 153q14 101 -13.5 149.5t-81.5 48.5t-99 -48.5z" />
    <glyph glyph-name="uni03BC" unicode="&#x3bc;" horiz-adv-x="626" 
d="M312.5 138q20.5 11 36.5 29l50 350h197l-77 -517h-190l11 80q-55 -60 -118 -80q-11 -4 -15 -8t-5 -13l-20 -140h-195l96 678h195l-48 -342q-3 -23 8 -35.5t33 -12.5q21 0 41.5 11z" />
    <glyph glyph-name="pi" unicode="&#x3c0;" horiz-adv-x="683" 
d="M586 385l-54 -385h-186l54 385h-108q-11 -77 -45.5 -196t-67.5 -189h-183q34 85 66 196t42 179q1 10 -8 10h-71l19 132h639l-19 -132h-78z" />
    <glyph glyph-name="uni1E0C" unicode="&#x1e0c;" horiz-adv-x="775" 
d="M235 723q115 0 145 -1q188 -7 267.5 -102t56.5 -256q-15 -108 -67.5 -190t-143.5 -128t-215 -46h-259l102 723h114zM236 153h70q40 0 81 22t72.5 70t42.5 122q14 98 -24 150.5t-114 52.5h-70zM382 -139q-3 -22 -27 -22h-102q-11 0 -13.5 4.5t-1.5 14.5l12 86q3 18 15 18
h119q13 0 10 -16z" />
    <glyph glyph-name="uni1E0D" unicode="&#x1e0d;" horiz-adv-x="619" 
d="M45 63q-48 73 -30 199q17 123 80 194t158 71q44 0 80.5 -16t52.5 -53l40 285h195l-104 -743h-138l-5 68q-26 -34 -71 -56t-104 -22q-106 0 -154 73zM323.5 154.5q24.5 28.5 32.5 84.5l6 45q15 106 -62 106q-35 0 -61 -27.5t-36 -98.5q-10 -73 7.5 -105.5t54.5 -32.5
q34 0 58.5 28.5zM303 -139q-3 -22 -27 -22h-102q-11 0 -13.5 4.5t-1.5 14.5l12 86q3 18 15 18h119q13 0 10 -16z" />
    <glyph glyph-name="uni1E24" unicode="&#x1e24;" horiz-adv-x="739" 
d="M255 290l-41 -290h-195l102 723h195l-39 -274h219l39 274h195l-102 -723h-195l41 290h-219zM371 -139q-3 -22 -27 -22h-102q-11 0 -13.5 4.5t-1.5 14.5l12 86q3 18 15 18h119q13 0 10 -16z" />
    <glyph glyph-name="uni1E25" unicode="&#x1e25;" horiz-adv-x="624" 
d="M114 743h192l-40 -290q25 23 41 35t42.5 20.5t64.5 8.5q49 0 87.5 -21.5t57.5 -60.5t12 -89l-49 -346h-195l45 323q3 21 -14 34t-40 13t-44 -14t-24 -35l-45 -321h-195zM319 -139q-3 -22 -27 -22h-102q-11 0 -13.5 4.5t-1.5 14.5l12 86q3 18 15 18h119q13 0 10 -16z" />
    <glyph glyph-name="uni1E44" unicode="&#x1e44;" horiz-adv-x="803" 
d="M794 723l-102 -723h-176l-241 431l-61 -431h-195l102 723h196l225 -403l57 403h195zM561 766h-195l23 163h195z" />
    <glyph glyph-name="uni1E45" unicode="&#x1e45;" horiz-adv-x="625" 
d="M83 517h193l-9 -62q26 24 42.5 35.5t42 20t63.5 8.5q45 0 84 -22.5t59.5 -61.5t13.5 -86l-49 -349h-195l45 323q3 21 -13.5 34t-39.5 13q-24 0 -45.5 -13t-24.5 -34l-45 -323h-195zM443 560h-195l23 163h195z" />
    <glyph glyph-name="uni1E5A" unicode="&#x1e5a;" horiz-adv-x="709" 
d="M421 0l-70 249h-102l-35 -249h-195l102 723h328q134 0 188.5 -64t39.5 -169q-11 -78 -48 -127t-97 -83l88 -280h-199zM446 423q30 29 35 65q5 37 -18 64t-57 27h-111l-26 -185h111q36 0 66 29zM363 -139q-3 -22 -27 -22h-102q-11 0 -13.5 4.5t-1.5 14.5l12 86q3 18 15 18
h119q13 0 10 -16z" />
    <glyph glyph-name="uni1E5B" unicode="&#x1e5b;" horiz-adv-x="449" 
d="M83 517h188l-20 -143q30 68 78.5 110.5t116.5 42.5l-25 -183q-16 2 -43 2q-72 0 -102 -27t-36 -71l-35 -248h-195zM171 -139q-3 -22 -27 -22h-102q-11 0 -13.5 4.5t-1.5 14.5l12 86q3 18 15 18h119q13 0 10 -16z" />
    <glyph glyph-name="uni1E62" unicode="&#x1e62;" horiz-adv-x="716" 
d="M167 15q-69 25 -110 76.5t-36 128.5h202q3 -38 32.5 -59.5t80.5 -21.5q52 0 87.5 15.5t40.5 50.5q4 29 -24.5 41.5t-87.5 22.5l-111 19q-86 14 -129 69.5t-30 146.5q10 70 57.5 121.5t120.5 79t157 27.5q86 0 151 -31.5t99 -84t33 -112.5h-197q2 41 -24 59.5t-79 18.5
q-52 0 -78 -17t-29 -40q-4 -26 11 -40.5t59 -22.5l110 -19q135 -24 168 -90.5t22 -147.5q-9 -61 -57.5 -110t-124.5 -77t-165 -28q-80 0 -149 25zM366 -139q-3 -22 -27 -22h-102q-11 0 -13.5 4.5t-1.5 14.5l12 86q3 18 15 18h119q13 0 10 -16z" />
    <glyph glyph-name="uni1E63" unicode="&#x1e63;" horiz-adv-x="527" 
d="M65.5 31.5q-64.5 41.5 -66.5 132.5h160q6 -28 28 -36.5t57 -8.5q34 0 52.5 8.5t20.5 21.5q2 15 -12 22.5t-45 13.5l-75 12q-162 30 -144 160q7 48 40.5 86.5t89.5 61t129 22.5q70 0 120 -21t72.5 -59.5t13.5 -90.5h-158q-2 25 -21 36.5t-49 11.5q-62 0 -67 -33
q-2 -13 15 -21.5t58 -15.5l64 -12q85 -21 112.5 -68.5t20.5 -93.5q-11 -81 -83 -125.5t-175 -44.5q-93 0 -157.5 41.5zM277 -139q-3 -22 -27 -22h-102q-11 0 -13.5 4.5t-1.5 14.5l12 86q3 18 15 18h119q13 0 10 -16z" />
    <glyph glyph-name="uni1E6C" unicode="&#x1e6c;" horiz-adv-x="631" 
d="M68 723h607l-24 -171h-207l-78 -552h-195l78 552h-205zM330 -139q-3 -22 -27 -22h-102q-11 0 -13.5 4.5t-1.5 14.5l12 86q3 18 15 18h119q13 0 10 -16z" />
    <glyph glyph-name="uni1E6D" unicode="&#x1e6d;" horiz-adv-x="451" 
d="M306 385l-32 -234q-2 -16 5 -22t22 -6h81l-16 -115q-34 -16 -105 -16q-114 0 -153.5 40t-29.5 110l34 243h-84l19 132h91l51 161h158l-22 -160h113l-19 -133h-113zM272 -139q-3 -22 -27 -22h-102q-11 0 -13.5 4.5t-1.5 14.5l12 86q3 18 15 18h119q13 0 10 -16z" />
    <glyph glyph-name="Wgrave" unicode="&#x1e80;" horiz-adv-x="976" 
d="M702 0h-145l-60 393l-170 -393h-143l-116 723h188l57 -388l163 388h136l57 -388l163 388h188zM709 834l-37 -77l-267 66l58 118z" />
    <glyph glyph-name="wgrave" unicode="&#x1e81;" horiz-adv-x="811" 
d="M572 0h-139l-42 251l-117 -251h-133l-102 517h169l45 -251l112 251h135l38 -252l116 252h173zM602 628l-37 -77l-267 66l58 118z" />
    <glyph glyph-name="Wacute" unicode="&#x1e82;" horiz-adv-x="976" 
d="M702 0h-145l-60 393l-170 -393h-143l-116 723h188l57 -388l163 388h136l57 -388l163 388h188zM711 823l-287 -66l-15 77l277 107z" />
    <glyph glyph-name="wacute" unicode="&#x1e83;" horiz-adv-x="811" 
d="M572 0h-139l-42 251l-117 -251h-133l-102 517h169l45 -251l112 251h135l38 -252l116 252h173zM604 617l-287 -66l-15 77l277 107z" />
    <glyph glyph-name="Wdieresis" unicode="&#x1e84;" horiz-adv-x="976" 
d="M702 0h-145l-60 393l-170 -393h-143l-116 723h188l57 -388l163 388h136l57 -388l163 388h188zM519 790h-166l20 139h166zM753 790h-166l20 139h166z" />
    <glyph glyph-name="wdieresis" unicode="&#x1e85;" horiz-adv-x="811" 
d="M572 0h-139l-42 251l-117 -251h-133l-102 517h169l45 -251l112 251h135l38 -252l116 252h173zM412 584h-166l20 139h166zM646 584h-166l20 139h166z" />
    <glyph glyph-name="uni1E92" unicode="&#x1e92;" horiz-adv-x="698" 
d="M8 89l407 474h-309l23 160h589l-12 -85l-415 -476h342l-23 -162h-615zM360 -139q-3 -22 -27 -22h-102q-11 0 -13.5 4.5t-1.5 14.5l12 86q3 18 15 18h119q13 0 10 -16z" />
    <glyph glyph-name="uni1E93" unicode="&#x1e93;" horiz-adv-x="554" 
d="M-12 92l284 306h-219l17 119h466l-13 -89l-287 -307h245l-17 -121h-489zM295 -139q-3 -22 -27 -22h-102q-11 0 -13.5 4.5t-1.5 14.5l12 86q3 18 15 18h119q13 0 10 -16z" />
    <glyph glyph-name="uni1EB8" unicode="&#x1eb8;" horiz-adv-x="650" 
d="M121 723h534l-24 -161h-337l-17 -120h282l-22 -157h-283l-17 -123h340l-23 -162h-535zM338 -139q-3 -22 -27 -22h-102q-11 0 -13.5 4.5t-1.5 14.5l12 86q3 18 15 18h119q13 0 10 -16z" />
    <glyph glyph-name="uni1EB9" unicode="&#x1eb9;" horiz-adv-x="566" 
d="M210 148q18 -22 52 -22q30 0 51.5 11t36.5 39h172q-16 -55 -58.5 -97.5t-100 -65.5t-115.5 -23q-80 0 -137 32.5t-83 92t-15 137.5q11 75 51.5 138t105.5 100t145 37q82 0 134 -34.5t72.5 -95t9.5 -138.5l-6 -45h-326q-7 -44 11 -66zM361 323q4 31 -12.5 52t-51.5 21
q-30 0 -55 -22t-29 -51h148zM297 -139q-3 -22 -27 -22h-102q-11 0 -13.5 4.5t-1.5 14.5l12 86q3 18 15 18h119q13 0 10 -16z" />
    <glyph glyph-name="uni1EBC" unicode="&#x1ebc;" horiz-adv-x="650" 
d="M121 723h534l-24 -161h-337l-17 -120h282l-22 -157h-283l-17 -123h340l-23 -162h-535zM536 808.5q-28 -8.5 -56 -8.5q-19 0 -39 4.5t-38 10.5q-45 15 -76 15q-20 0 -36 -5t-37 -19q-9 -5 -12 -5q-7 0 -10 12l-8 53q-1 2 -1.5 5t-0.5 7q1 7 14 18q23 19 46 29.5t55 10.5
q19 0 36.5 -4t33 -8.5t20.5 -5.5q45 -15 67 -15q37 0 79 27q6 4 12 4q9 0 11 -12l4 -64q1 -3 0 -7q-2 -11 -17 -22q-19 -12 -47 -20.5z" />
    <glyph glyph-name="uni1EBD" unicode="&#x1ebd;" horiz-adv-x="566" 
d="M210 148q18 -22 52 -22q30 0 51.5 11t36.5 39h172q-16 -55 -58.5 -97.5t-100 -65.5t-115.5 -23q-80 0 -137 32.5t-83 92t-15 137.5q11 75 51.5 138t105.5 100t145 37q82 0 134 -34.5t72.5 -95t9.5 -138.5l-6 -45h-326q-7 -44 11 -66zM361 323q4 31 -12.5 52t-51.5 21
q-30 0 -55 -22t-29 -51h148zM463 602.5q-28 -8.5 -56 -8.5q-19 0 -39 4.5t-38 10.5q-45 15 -76 15q-20 0 -36 -5t-37 -19q-9 -5 -12 -5q-7 0 -10 12l-8 53q-1 2 -1.5 5t-0.5 7q1 7 14 18q23 19 46 29.5t55 10.5q19 0 36.5 -4t33 -8.5t20.5 -5.5q45 -15 67 -15q37 0 79 27
q6 4 12 4q9 0 11 -12l4 -64q1 -3 0 -7q-2 -11 -17 -22q-19 -12 -47 -20.5z" />
    <glyph glyph-name="uni1ECA" unicode="&#x1eca;" horiz-adv-x="325" 
d="M316 723l-102 -723h-195l102 723h195zM179 -139q-3 -22 -27 -22h-102q-11 0 -13.5 4.5t-1.5 14.5l12 86q3 18 15 18h119q13 0 10 -16z" />
    <glyph glyph-name="uni1ECB" unicode="&#x1ecb;" horiz-adv-x="307" 
d="M286 579h-195l23 164h195zM205 0h-195l73 517h195zM167 -139q-3 -22 -27 -22h-102q-11 0 -13.5 4.5t-1.5 14.5l12 86q3 18 15 18h119q13 0 10 -16z" />
    <glyph glyph-name="uni1ECC" unicode="&#x1ecc;" 
d="M160.5 35.5q-73.5 45.5 -104.5 129t-15 195.5t71 196.5t141 130.5t191 46q104 0 176.5 -46t104 -130.5t16.5 -196.5q-16 -111 -71 -195t-140 -129.5t-190 -45.5q-106 0 -179.5 45.5zM470 196q44 50 59 161q16 115 -13.5 167.5t-93.5 52.5t-109 -52.5t-61 -167.5
q-16 -111 14.5 -161t95.5 -50q64 0 108 50zM394 -139q-3 -22 -27 -22h-102q-11 0 -13.5 4.5t-1.5 14.5l12 86q3 18 15 18h119q13 0 10 -16z" />
    <glyph glyph-name="uni1ECD" unicode="&#x1ecd;" horiz-adv-x="573" 
d="M105 23.5q-55 33.5 -78.5 94t-12.5 137.5q11 80 53.5 142t107 96t140.5 34q79 0 133.5 -35t78 -97t12.5 -140q-11 -77 -52 -137t-105 -94t-143 -34t-134 33.5zM322 170q21 39 29 92q18 126 -55 126q-74 0 -92 -126q-8 -54 2.5 -92.5t52.5 -38.5t63 39zM290 -139
q-3 -22 -27 -22h-102q-11 0 -13.5 4.5t-1.5 14.5l12 86q3 18 15 18h119q13 0 10 -16z" />
    <glyph glyph-name="uni1EE4" unicode="&#x1ee4;" horiz-adv-x="733" 
d="M580 71q-84 -81 -250 -81t-228 81t-41 228l60 424h197l-61 -432q-10 -70 18 -104t78 -34t87 34t47 104l61 432h197l-60 -424q-21 -147 -105 -228zM400 -139q-3 -22 -27 -22h-102q-11 0 -13.5 4.5t-1.5 14.5l12 86q3 18 15 18h119q13 0 10 -16z" />
    <glyph glyph-name="uni1EE5" unicode="&#x1ee5;" horiz-adv-x="625" 
d="M114 10q-42 20 -65.5 57t-16.5 86l51 364h195l-48 -337q-3 -23 11 -38t42 -15t46.5 15t21.5 38l48 337h197l-77 -517h-144l-4 68q-29 -39 -78 -58.5t-93 -19.5t-86 20zM319 -139q-3 -22 -27 -22h-102q-11 0 -13.5 4.5t-1.5 14.5l12 86q3 18 15 18h119q13 0 10 -16z" />
    <glyph glyph-name="Ygrave" unicode="&#x1ef2;" horiz-adv-x="710" 
d="M447 301l-42 -301h-195l42 301l-195 422h210l106 -257l179 257h212zM600 834l-37 -77l-267 66l58 118z" />
    <glyph glyph-name="ygrave" unicode="&#x1ef3;" horiz-adv-x="603" 
d="M36.5 -160q-24.5 5 -35.5 10t-14 7l17 123l50 -3q8 -1 23 -1q35 0 54.5 8.5t25 16.5t11.5 19l3 10l-132 487h191l58 -281l142 281h190l-271 -487q-43 -79 -83.5 -121.5t-80 -58t-88.5 -15.5q-36 0 -60.5 5zM518 628l-37 -77l-267 66l58 118z" />
    <glyph glyph-name="uni1EF8" unicode="&#x1ef8;" horiz-adv-x="710" 
d="M447 301l-42 -301h-195l42 301l-195 422h210l106 -257l179 257h212zM583 808.5q-28 -8.5 -56 -8.5q-19 0 -39 4.5t-38 10.5q-45 15 -76 15q-20 0 -36 -5t-37 -19q-9 -5 -12 -5q-7 0 -10 12l-8 53q-1 2 -1.5 5t-0.5 7q1 7 14 18q23 19 46 29.5t55 10.5q19 0 36.5 -4
t33 -8.5t20.5 -5.5q45 -15 67 -15q37 0 79 27q6 4 12 4q9 0 11 -12l4 -64q1 -3 0 -7q-2 -11 -17 -22q-19 -12 -47 -20.5z" />
    <glyph glyph-name="uni1EF9" unicode="&#x1ef9;" horiz-adv-x="603" 
d="M36.5 -160q-24.5 5 -35.5 10t-14 7l17 123l50 -3q8 -1 23 -1q35 0 54.5 8.5t25 16.5t11.5 19l3 10l-132 487h191l58 -281l142 281h190l-271 -487q-43 -79 -83.5 -121.5t-80 -58t-88.5 -15.5q-36 0 -60.5 5zM501 602.5q-28 -8.5 -56 -8.5q-19 0 -39 4.5t-38 10.5
q-45 15 -76 15q-20 0 -36 -5t-37 -19q-9 -5 -12 -5q-7 0 -10 12l-8 53q-1 2 -1.5 5t-0.5 7q1 7 14 18q23 19 46 29.5t55 10.5q19 0 36.5 -4t33 -8.5t20.5 -5.5q45 -15 67 -15q37 0 79 27q6 4 12 4q9 0 11 -12l4 -64q1 -3 0 -7q-2 -11 -17 -22q-19 -12 -47 -20.5z" />
    <glyph glyph-name="endash" unicode="&#x2013;" horiz-adv-x="617" 
d="M537 178h-509l19 137h509z" />
    <glyph glyph-name="emdash" unicode="&#x2014;" horiz-adv-x="935" 
d="M855 178h-827l19 137h827z" />
    <glyph glyph-name="quoteleft" unicode="&#x2018;" horiz-adv-x="276" 
d="M186 605l57 -7l-24 -168h-177l21 149l140 173h64z" />
    <glyph glyph-name="quoteright" unicode="&#x2019;" horiz-adv-x="277" 
d="M137 548l-57 7l24 168h177l-21 -149l-140 -173h-64z" />
    <glyph glyph-name="quotesinglbase" unicode="&#x201a;" horiz-adv-x="277" 
d="M59 -4l-57 7l24 169h177l-21 -150l-139 -173h-64z" />
    <glyph glyph-name="quotedblleft" unicode="&#x201c;" horiz-adv-x="527" 
d="M72 550l140 173h64l-81 -147l57 -7l-24 -168h-177zM322 550l140 173h64l-81 -147l57 -7l-24 -168h-177z" />
    <glyph glyph-name="quotedblright" unicode="&#x201d;" horiz-adv-x="552" 
d="M137 548l-57 7l24 168h177l-21 -149l-140 -173h-64zM387 548l-58 7l24 168h178l-21 -149l-140 -173h-65z" />
    <glyph glyph-name="quotedblbase" unicode="&#x201e;" horiz-adv-x="577" 
d="M335 -4l-57 7l24 169h177l-21 -150l-139 -173h-64zM79 -4l-57 7l24 169h177l-21 -150l-139 -173h-64z" />
    <glyph glyph-name="dagger" unicode="&#x2020;" horiz-adv-x="572" 
d="M523 347l-181 28l-40 -536h-180l111 536l-188 -28l23 164l174 -25l3 237h183l-65 -237l183 25z" />
    <glyph glyph-name="daggerdbl" unicode="&#x2021;" horiz-adv-x="572" 
d="M315 168l186 27l-23 -164l-176 26l1 -218h-183l63 218l-183 -26l23 164l179 -27l26 186l-186 -27l23 163l174 -25l6 258h182l-67 -258l183 25l-23 -163l-179 27z" />
    <glyph glyph-name="bullet" unicode="&#x2022;" horiz-adv-x="377" 
d="M92.5 237.5q-31.5 20.5 -46.5 55t-9 75.5q6 40 30.5 74.5t62 55t78.5 20.5t72.5 -20.5t47 -55t10.5 -74.5q-6 -41 -31.5 -75.5t-63 -55t-78.5 -20.5t-72.5 20.5z" />
    <glyph glyph-name="ellipsis" unicode="&#x2026;" horiz-adv-x="984" 
d="M920 0h-205l28 196h205zM220 0h-205l28 196h205zM570 0h-205l28 196h205z" />
    <glyph glyph-name="perthousand" unicode="&#x2030;" horiz-adv-x="1387" 
d="M379 705q40 -29 59.5 -77t11.5 -101q-7 -52 -39 -98.5t-80 -74.5t-101 -28q-54 0 -94.5 28t-59.5 74.5t-12 98.5q7 53 40 101t81.5 77t101.5 29q52 0 92 -29zM254 -4l-105 2l590 733h105zM286.5 446.5q14.5 25.5 22.5 80.5q8 58 0 85.5t-36 27.5t-44 -28t-24 -85
q-8 -55 0 -80.5t37 -25.5q30 0 44.5 25.5zM826.5 369.5q40.5 -29.5 59.5 -77t12 -100.5q-7 -52 -39 -98.5t-80.5 -75t-101.5 -28.5t-94 28.5t-60 75t-12 98.5q7 53 40 100.5t82 77t101 29.5t92.5 -29.5zM1252 369.5q40 -29.5 59 -77t12 -100.5q-7 -52 -39 -98.5t-80 -75
t-101 -28.5q-54 0 -94.5 28.5t-59.5 75t-12 98.5q7 53 40 100.5t81.5 77t101.5 29.5q52 0 92 -29.5zM733 111q15 25 23 80q8 58 0 85.5t-36 27.5t-43.5 -28t-23.5 -85q-8 -54 -0.5 -79.5t36.5 -25.5t44 25zM1158.5 111q14.5 25 22.5 80q8 58 0.5 85.5t-35.5 27.5t-44 -28
t-24 -85q-8 -54 0 -79.5t37 -25.5t43.5 25z" />
    <glyph glyph-name="guilsinglleft" unicode="&#x2039;" horiz-adv-x="328" 
d="M223 59h-100l-80 192l134 200h101l-92 -200z" />
    <glyph glyph-name="guilsinglright" unicode="&#x203a;" horiz-adv-x="328" 
d="M73 451h101l78 -200l-134 -192h-100l91 192z" />
    <glyph glyph-name="fraction" unicode="&#x2044;" horiz-adv-x="252" 
d="M-117 -4l-105 2l590 733h105z" />
    <glyph glyph-name="uni2070" unicode="&#x2070;" horiz-adv-x="423" 
d="M405.5 782q44.5 -63 29.5 -173q-15 -109 -76.5 -170t-151.5 -61t-134.5 61t-29.5 170q15 110 77.5 173t151.5 63t133.5 -63zM272 504q18 30 29 105q11 76 1 108.5t-43 32.5t-51.5 -32.5t-29.5 -108.5q-10 -74 -1 -104.5t43 -30.5t52 30z" />
    <glyph glyph-name="uni2074" unicode="&#x2074;" horiz-adv-x="423" 
d="M396 835l-38 -265h66l-14 -103h-66l-12 -87h-123l13 87h-199l14 99l238 269h121zM237 570l14 98l-87 -98h73z" />
    <glyph glyph-name="uni2075" unicode="&#x2075;" horiz-adv-x="409" 
d="M445 835l-19 -98h-212l-18 -76q33 9 52 12.5t40 3.5q75 0 114.5 -39.5t30.5 -109.5q-10 -72 -66.5 -113t-143.5 -41q-69 0 -120.5 27t-71.5 70l100 62q20 -33 39 -48.5t52 -15.5t54 16t24 39t-12 39.5t-48 16.5q-15 0 -28.5 -3.5t-35.5 -12.5q-6 -3 -10 -3q-3 0 -8 3
l-77 45l53 226h311z" />
    <glyph glyph-name="uni2076" unicode="&#x2076;" horiz-adv-x="411" 
d="M362.5 828.5q37.5 -17.5 57 -49.5t13.5 -76h-111q-7 49 -55 49q-33 0 -56 -24.5t-28 -59.5q-1 -6 -1 -20q38 21 95 21q71 0 109.5 -38t29.5 -98q-6 -43 -35 -77.5t-74 -54.5t-98 -20q-93 0 -138 60.5t-31 160.5q16 114 79.5 179t157.5 65q48 0 85.5 -17.5zM190.5 569
q-21.5 -12 -23.5 -22q-5 -38 8.5 -57.5t40.5 -19.5q25 0 46.5 16.5t24.5 41.5q4 27 -12.5 40t-41.5 13q-21 0 -42.5 -12z" />
    <glyph glyph-name="uni2077" unicode="&#x2077;" horiz-adv-x="373" 
d="M449 835l-18 -125q-39 -38 -80.5 -95t-72.5 -119.5t-37 -115.5h-131q5 38 28.5 96.5t70 127.5t114.5 133h-246l14 98h358z" />
    <glyph glyph-name="uni2078" unicode="&#x2078;" horiz-adv-x="409" 
d="M354.5 828q37.5 -17 56.5 -46t14 -65q-5 -34 -31 -55t-51 -28q25 -14 41 -25.5t27 -34t6 -55.5q-9 -67 -68.5 -104t-151.5 -37q-85 0 -131.5 30.5t-38.5 86.5q6 42 32.5 64.5t63.5 35.5q-2 1 -33 22.5t-22 82.5q6 40 32 73t69 52.5t98 19.5q50 0 87.5 -17zM217.5 745.5
q-15.5 -10.5 -18.5 -28.5q-2 -11 5 -20.5t20 -14.5l37 -14q15 -5 32 11t19 34q3 18 -12 30.5t-44 12.5q-23 0 -38.5 -10.5zM262.5 477.5q16.5 10.5 18.5 28.5q2 13 -5 23.5t-29 18.5l-41 15q-6 2 -9 2q-17 0 -32.5 -13.5t-18.5 -33.5q-7 -51 73 -51q27 0 43.5 10.5z" />
    <glyph glyph-name="uni2079" unicode="&#x2079;" horiz-adv-x="411" 
d="M112 398q-38 18 -58 50.5t-14 74.5h115q1 -23 13.5 -36t36.5 -13q40 0 66.5 21t33.5 69q2 12 1 19q-36 -32 -101 -32q-72 0 -113.5 39t-32.5 103q6 43 35 78t74 54.5t98 19.5q93 0 138 -60t31 -161q-18 -125 -79.5 -184.5t-157.5 -59.5q-48 0 -86 18zM284.5 657
q21.5 12 23.5 22q5 38 -8.5 58t-40.5 20q-24 0 -43.5 -16.5t-23.5 -42.5q-4 -25 11.5 -39t38.5 -14q21 0 42.5 12z" />
    <glyph glyph-name="colonmonetary" unicode="&#x20a1;" horiz-adv-x="609" 
d="M338.5 252q18.5 25 26.5 51h153q-9 -65 -53.5 -118.5t-111.5 -77.5l-43 -106l-93 3l35 89q-35 1 -66 11l-42 -103l-92 3l56 143q-41 36 -59 90.5t-9 121.5q13 89 66 156t130 96l45 110l94 2l-36 -93h1q34 0 66 -8l41 99l94 2l-57 -145q31 -31 44 -75t7 -94h-158
q0 30 -12 53.5t-45 23.5q-38 0 -65 -32t-35 -93q-9 -62 10.5 -98t57.5 -36q32 0 50.5 25z" />
    <glyph glyph-name="franc" unicode="&#x20a3;" horiz-adv-x="636" 
d="M306 564l-18 -130h215l-22 -155h-215l-10 -74h136l-14 -99h-136l-15 -106h-221l15 106h-84l14 99h84l73 518h555l-24 -159h-333z" />
    <glyph glyph-name="lira" unicode="&#x20a4;" horiz-adv-x="671" 
d="M513.5 53.5q-72.5 -53.5 -166.5 -53.5h-374l22 159h31q63 0 84 44q6 11 7 28q1 8 -7 8h-102l13 98h98l1 48h-92l14 99h78l4 48q4 64 43.5 109.5t100 68.5t128.5 23q81 0 148 -41.5t90 -124.5l-176 -48q-7 30 -18 47t-34 17t-38 -16t-18 -44q-1 -7 -2 -27q0 -12 10 -12
h114l-14 -99h-109l-3 -48h105l-13 -98h-111q-25 -49 -77 -79h103q41 0 66.5 18t43.5 60l159 -32q-36 -99 -108.5 -152.5z" />
    <glyph glyph-name="uni20A6" unicode="&#x20a6;" horiz-adv-x="813" 
d="M794 444l-20 -146h19l-12 -88h-19l-30 -210h-176l-117 210h-155l-30 -210h-195l30 210h-98l12 88h98l20 146h-98l13 88h98l27 191h196l107 -191h148l27 191h195l-27 -191h19l-13 -88h-19zM599 444h-87l70 -124zM389 298l-74 133l-19 -133h93z" />
    <glyph glyph-name="uni20A9" unicode="&#x20a9;" horiz-adv-x="1193" 
d="M1041 561l-26 -58h187l-14 -98h-216l-178 -405h-145l-60 393l-170 -393h-143l-65 405h-193l14 98h163l-9 58h-146l14 98h116l-10 64h188l9 -64h184l27 64h136l9 -64h184l27 64h188l-28 -64h140l-14 -98h-169zM381 503h95l24 58h-128zM856 561h-128l9 -58h95zM405 335
l29 70h-39zM790 405h-39l10 -70z" />
    <glyph glyph-name="dong" unicode="&#x20ab;" horiz-adv-x="552" 
d="M573 596h-60l-65 -463h-159l6 48q-32 -29 -62 -42.5t-70 -13.5q-74 0 -110.5 56.5t-21.5 162.5q9 66 40 116.5t74 78.5t88 28q29 0 51 -9t42 -32q7 -4 9 -4q6 0 8 10l9 64h-95l11 78h95l7 49h161l-7 -49h60zM328 437q-12 16 -22.5 23.5t-28.5 7.5q-31 0 -52 -28t-31 -95
q-9 -67 3 -95.5t45 -28.5q24 0 42 15t22 39zM26 87h415l-12 -87h-415z" />
    <glyph glyph-name="Euro" unicode="&#x20ac;" horiz-adv-x="692" 
d="M474 173q39 23 62 53l88 -107q-51 -57 -123 -93t-149 -36q-104 0 -174.5 65t-89.5 174h-95l14 99h77q2 28 4 43q2 16 5 24h-76l13 98h90q47 112 137 176t201 64q80 0 142.5 -33t95.5 -90l-146 -94q-22 33 -42 50t-53 17q-73 0 -112 -90h137l-13 -98h-151l-4 -27
q-4 -27 -5 -40h150l-14 -99h-130q10 -41 33.5 -60t53.5 -19q35 0 74 23z" />
    <glyph glyph-name="uni20B9" unicode="&#x20b9;" horiz-adv-x="690" 
d="M584 635q18 -27 23 -59h90l-12 -88h-85q-15 -53 -54.5 -93.5t-92.5 -60.5q-5 -1 -6 -8q-1 -4 0 -10l92 -316h-240l-62 299h-215l19 136h228q39 0 63.5 13t36.5 40h-320l12 88h317q-13 52 -87 52h-223l14 95h636l-13 -88h-121z" />
    <glyph glyph-name="uni20BA" unicode="&#x20ba;" horiz-adv-x="732" 
d="M706 271q-63 -122 -168 -196.5t-278 -74.5h-158l30 214l-85 -30l-21 93l121 42l8 57l-106 -37l-21 93l142 49l34 242h222l-23 -161l113 39l22 -92l-150 -52l-8 -57l134 46l20 -93l-169 -58l-19 -135h23q47 2 93 40.5t80 105.5z" />
    <glyph glyph-name="uni2113" unicode="&#x2113;" horiz-adv-x="621" 
d="M282 -10q-106 0 -152 39t-55 106q-1 6 -5 3l-47 -29l-25 102l93 64l27 195q18 129 92.5 196t186.5 67q99 0 136 -49t26 -129q-10 -69 -47.5 -124t-88 -97t-140.5 -105l-5 -34q-4 -27 16.5 -45.5t54.5 -18.5q35 0 74 20t76 55q-1 0 10 9zM304 377q60 52 93 96.5t39 89.5
q9 61 -37 61q-28 0 -48.5 -30.5t-31.5 -106.5z" />
    <glyph glyph-name="uni2116" unicode="&#x2116;" horiz-adv-x="1192" 
d="M794 723l-102 -723h-176l-241 431l-61 -431h-195l102 723h196l225 -403l57 403h195zM1140 711.5q36 -21.5 52 -60t9 -87.5q-7 -48 -34 -86t-69 -59t-91 -21q-75 0 -116 46.5t-31 119.5q7 49 35 87.5t69.5 60t89.5 21.5q50 0 86 -21.5zM1004.5 635.5
q-14.5 -21.5 -20.5 -69.5q-7 -47 1.5 -68.5t32.5 -21.5q25 0 39.5 21.5t21.5 68.5q7 48 -2 69.5t-34 21.5q-24 0 -38.5 -21.5z" />
    <glyph glyph-name="uni2117" unicode="&#x2117;" horiz-adv-x="834" 
d="M185 40q-78 50 -116 135t-24 187q14 100 76 185.5t154 135.5t193 50t179.5 -50t116.5 -135.5t24 -185.5q-14 -102 -76 -187t-154.5 -135t-193.5 -50t-179 50zM521 122.5q64 33.5 105 95t53 144.5q12 82 -12 144t-79 96t-134 34q-80 0 -143.5 -34t-104.5 -96t-52 -144
q-12 -83 11.5 -144.5t78 -95t134.5 -33.5q79 0 143 33.5zM566 326.5q-44 -33.5 -109 -33.5h-83l-17 -123h-118l54 384h188q68 0 107 -33.5t30 -99.5q-8 -61 -52 -94.5zM491.5 458q-10.5 12 -29.5 12h-63l-13 -95h66q19 0 31 13t15 35q4 23 -6.5 35z" />
    <glyph glyph-name="uni2120" unicode="&#x2120;" horiz-adv-x="1036" 
d="M87 9.5q-43 15.5 -68.5 47.5t-22.5 81h126q2 -24 20.5 -37.5t50.5 -13.5t54.5 9.5t25.5 31.5q2 18 -15.5 26t-54.5 14l-70 12q-53 9 -80 43.5t-19 91.5q6 44 36 76t75.5 49.5t97.5 17.5q54 0 94.5 -20t62 -52.5t20.5 -70.5h-123q1 26 -15 37.5t-49 11.5t-49 -10.5
t-18 -25.5q-3 -16 6.5 -25t37.5 -14l68 -12q85 -15 105.5 -56.5t13.5 -92.5q-5 -38 -35.5 -68.5t-78 -48t-103.5 -17.5q-50 0 -93 15.5zM506 452h181l34 -276l113 276h180l-64 -452h-122l46 328l-134 -328h-87l-42 328l-47 -328h-121z" />
    <glyph glyph-name="trademark" unicode="&#x2122;" horiz-adv-x="983" 
d="M25 452h380l-15 -107h-130l-48 -345h-122l48 345h-128zM452 452h181l34 -276l113 276h180l-64 -452h-122l46 328l-134 -328h-87l-42 328l-47 -328h-121z" />
    <glyph glyph-name="estimated" unicode="&#x212e;" horiz-adv-x="834" 
d="M540 33q-85 -43 -176 -43q-101 0 -179 50t-116 135t-24 187q14 100 76 185.5t154 135.5t193 50q99 0 178 -48.5t118 -131t26 -178.5q-1 -7 -4.5 -10t-10.5 -3h-541l-38 -272q72 -51 174 -51q78 0 146 28.5t119 80.5h57q-67 -72 -152 -115zM282 639q-10 -6 -12 -18
l-29 -211h355l32 230q-72 44 -167 44q-97 0 -179 -45z" />
    <glyph glyph-name="uni2153" unicode="&#x2153;" horiz-adv-x="972" 
d="M103 597l-77 -17l11 82l148 69h60l-64 -455h-123zM192 -4l-105 2l590 733h105zM649 422.5q64 35.5 155 35.5q52 0 92.5 -15t61.5 -42.5t16 -63.5q-10 -68 -95 -96q37 -10 62 -37.5t19 -71.5q-6 -45 -41.5 -77t-83.5 -48t-95 -16q-101 0 -151 34.5t-37 121.5h116
q0 -33 22.5 -47t51.5 -14q33 0 56 13.5t26 32.5q3 20 -13 34t-44 15l-61 1l13 94l54 3q29 1 47.5 14.5t21.5 32.5q2 17 -15.5 28.5t-39.5 11.5q-37 0 -63 -12t-35 -49h-115q11 82 75 117.5z" />
    <glyph glyph-name="uni2154" unicode="&#x2154;" horiz-adv-x="1055" 
d="M14 365l156 115q49 36 71.5 55t30.5 31.5t10 27.5q3 21 -9.5 34t-36.5 13q-27 0 -49.5 -16t-33.5 -52h-115q11 75 65.5 121t148.5 46q83 0 126 -39.5t34 -105.5q-5 -34 -24.5 -59t-68.5 -65l-113 -91h179l-14 -101h-369zM275 -4l-105 2l590 733h105zM732 422.5
q64 35.5 155 35.5q52 0 92.5 -15t61.5 -42.5t16 -63.5q-10 -68 -95 -96q37 -10 62 -37.5t19 -71.5q-6 -45 -41.5 -77t-83.5 -48t-95 -16q-101 0 -151 34.5t-37 121.5h116q0 -33 22.5 -47t51.5 -14q33 0 56 13.5t26 32.5q3 20 -13 34t-44 15l-61 1l13 94l54 3q29 1 47.5 14.5
t21.5 32.5q2 17 -15.5 28.5t-39.5 11.5q-37 0 -63 -12t-35 -49h-115q11 82 75 117.5z" />
    <glyph glyph-name="oneeighth" unicode="&#x215b;" horiz-adv-x="974" 
d="M103 597l-77 -17l11 82l148 69h60l-64 -455h-123zM192 -4l-105 2l590 733h105zM864.5 440q37.5 -17 56.5 -46t14 -65q-5 -34 -30.5 -55t-50.5 -28q25 -14 40.5 -25.5t26.5 -34t6 -55.5q-9 -67 -68 -104t-151 -37q-85 0 -132 30.5t-39 86.5q6 42 32.5 64.5t63.5 35.5
q-2 1 -33 22.5t-22 82.5q6 40 32 73t69 52.5t98 19.5q50 0 87.5 -17zM728 357.5q-16 -10.5 -19 -28.5q-2 -11 5 -20.5t20 -14.5l37 -14q15 -5 32 11t20 34t-12 30.5t-44 12.5q-23 0 -39 -10.5zM772.5 89.5q16.5 10.5 19.5 28.5q2 13 -5.5 23.5t-29.5 18.5l-40 15q-6 2 -10 2
q-17 0 -32.5 -13.5t-18.5 -33.5q-7 -51 73 -51q27 0 43.5 10.5z" />
    <glyph glyph-name="threeeighths" unicode="&#x215c;" horiz-adv-x="1072" 
d="M124 704.5q64 35.5 155 35.5q52 0 92.5 -15t61.5 -42.5t16 -63.5q-10 -68 -95 -96q37 -10 61.5 -37.5t18.5 -71.5q-6 -45 -41 -77t-83.5 -48t-95.5 -16q-101 0 -150.5 34.5t-37.5 121.5h116q0 -33 23 -47t52 -14q33 0 56 13.5t25 32.5q3 20 -12.5 34t-43.5 15l-62 1
l13 94l55 3q29 1 47.5 14.5t20.5 32.5q2 17 -15 28.5t-39 11.5q-37 0 -63 -12t-36 -49h-115q12 82 76 117.5zM290 -4l-105 2l590 733h105zM962.5 440q37.5 -17 56.5 -46t14 -65q-5 -34 -30.5 -55t-50.5 -28q25 -14 40.5 -25.5t26.5 -34t6 -55.5q-9 -67 -68 -104t-151 -37
q-85 0 -132 30.5t-39 86.5q6 42 32.5 64.5t63.5 35.5q-2 1 -33 22.5t-22 82.5q6 40 32 73t69 52.5t98 19.5q50 0 87.5 -17zM826 357.5q-16 -10.5 -19 -28.5q-2 -11 5 -20.5t20 -14.5l37 -14q15 -5 32 11t20 34t-12 30.5t-44 12.5q-23 0 -39 -10.5zM870.5 89.5
q16.5 10.5 19.5 28.5q2 13 -5.5 23.5t-29.5 18.5l-40 15q-6 2 -10 2q-17 0 -32.5 -13.5t-18.5 -33.5q-7 -51 73 -51q27 0 43.5 10.5z" />
    <glyph glyph-name="fiveeighths" unicode="&#x215d;" horiz-adv-x="1074" 
d="M430 731l-19 -98h-212l-18 -76q33 9 52 12.5t40 3.5q75 0 114.5 -39.5t30.5 -109.5q-10 -72 -66.5 -113t-143.5 -41q-69 0 -120.5 27t-71.5 70l100 62q20 -33 39 -48.5t52 -15.5t54 16t24 39t-12 39.5t-48 16.5q-15 0 -28.5 -3.5t-35.5 -12.5q-6 -3 -10 -3q-3 0 -8 3
l-77 45l53 226h311zM292 -4l-105 2l590 733h105zM964.5 440q37.5 -17 56.5 -46t14 -65q-5 -34 -30.5 -55t-50.5 -28q25 -14 40.5 -25.5t26.5 -34t6 -55.5q-9 -67 -68 -104t-151 -37q-85 0 -132 30.5t-39 86.5q6 42 32.5 64.5t63.5 35.5q-2 1 -33 22.5t-22 82.5q6 40 32 73
t69 52.5t98 19.5q50 0 87.5 -17zM828 357.5q-16 -10.5 -19 -28.5q-2 -11 5 -20.5t20 -14.5l37 -14q15 -5 32 11t20 34t-12 30.5t-44 12.5q-23 0 -39 -10.5zM872.5 89.5q16.5 10.5 19.5 28.5q2 13 -5.5 23.5t-29.5 18.5l-40 15q-6 2 -10 2q-17 0 -32.5 -13.5t-18.5 -33.5
q-7 -51 73 -51q27 0 43.5 10.5z" />
    <glyph glyph-name="seveneighths" unicode="&#x215e;" horiz-adv-x="1038" 
d="M434 730l-18 -125q-39 -38 -80.5 -95t-72.5 -119.5t-37 -115.5h-131q5 38 28.5 96.5t70 127.5t114.5 133h-246l14 98h358zM256 -4l-105 2l590 733h105zM928.5 440q37.5 -17 56.5 -46t14 -65q-5 -34 -30.5 -55t-50.5 -28q25 -14 40.5 -25.5t26.5 -34t6 -55.5
q-9 -67 -68 -104t-151 -37q-85 0 -132 30.5t-39 86.5q6 42 32.5 64.5t63.5 35.5q-2 1 -33 22.5t-22 82.5q6 40 32 73t69 52.5t98 19.5q50 0 87.5 -17zM792 357.5q-16 -10.5 -19 -28.5q-2 -11 5 -20.5t20 -14.5l37 -14q15 -5 32 11t20 34t-12 30.5t-44 12.5q-23 0 -39 -10.5z
M836.5 89.5q16.5 10.5 19.5 28.5q2 13 -5.5 23.5t-29.5 18.5l-40 15q-6 2 -10 2q-17 0 -32.5 -13.5t-18.5 -33.5q-7 -51 73 -51q27 0 43.5 10.5z" />
    <glyph glyph-name="partialdiff" unicode="&#x2202;" horiz-adv-x="608" 
d="M91 665q33 24 92 46t131 22q93 0 158 -41.5t93.5 -126.5t11.5 -211q-24 -168 -110 -266t-229 -98q-80 0 -134 31.5t-76 86.5t-12 124q10 68 45.5 123.5t92.5 88t127 32.5q44 0 69.5 -11.5t48.5 -33.5q7 -6 11 -6q6 0 8 14q4 30 -9 66.5t-48.5 63t-96.5 26.5
q-42 0 -73.5 -11.5t-63.5 -30.5zM254 123q43 0 74 38t47 103q2 6 3 14q1 10 -4 21q-9 22 -28 37.5t-45 15.5q-39 0 -68.5 -36.5t-37.5 -91.5q-7 -50 9.5 -75.5t48.5 -25.5h1z" />
    <glyph glyph-name="emptyset" unicode="&#x2205;" horiz-adv-x="605" 
d="M526 493q30 -59 20 -129q-9 -65 -49.5 -120.5t-100.5 -88t-125 -32.5q-79 0 -136 48l-80 -66l-51 62l82 66q-31 59 -21 131q9 65 49.5 120t100 87.5t124.5 32.5q83 0 139 -49l71 58l49 -61zM155 290l253 208q-35 24 -81 24q-43 0 -82 -21.5t-65.5 -58t-32.5 -78.5
q-5 -38 8 -74zM456 436l-252 -208q34 -23 79 -23q43 0 82.5 21.5t66 58t32.5 79.5q5 39 -8 72z" />
    <glyph glyph-name="product" unicode="&#x220f;" horiz-adv-x="729" 
d="M737 566h-82l-80 -566h-199l80 566h-125l-80 -566h-199l80 566h-81l22 157h686z" />
    <glyph glyph-name="summation" unicode="&#x2211;" horiz-adv-x="608" 
d="M-18 0l16 114l236 243l-158 238l18 128h514l-22 -153h-250l142 -190l-220 -218h289l-23 -162h-542z" />
    <glyph glyph-name="minus" unicode="&#x2212;" horiz-adv-x="609" 
d="M550 295h-509l20 138h509z" />
    <glyph glyph-name="uni2219" unicode="&#x2219;" horiz-adv-x="379" 
d="M113.5 302q-23.5 27 -18.5 64q5 38 36 64.5t68 26.5q38 0 61 -26.5t17 -64.5q-5 -37 -35 -64t-68 -27q-37 0 -60.5 27z" />
    <glyph glyph-name="radical" unicode="&#x221a;" horiz-adv-x="727" 
d="M396 -161h-194l-85 382l-86 -30l-24 104l235 79l79 -362l314 814h160z" />
    <glyph glyph-name="infinity" unicode="&#x221e;" horiz-adv-x="838" 
d="M779 273q-8 -60 -40 -104.5t-78 -68t-97 -23.5q-39 0 -67 13.5t-47.5 34.5t-45.5 57q-5 8 -9 8t-11 -8q-6 -5 -34.5 -33t-72.5 -50t-91 -22q-49 0 -87 24t-56.5 67.5t-10.5 99.5q8 57 39 100.5t78.5 67.5t103.5 24q40 0 67 -12t46.5 -31t46.5 -54q6 -9 12 -9q4 0 14 9
q46 45 88 71t100 26q51 0 88 -23t54.5 -65t10.5 -97zM216 190q26 0 53.5 18t47.5 42q8 10 9 15t-5 19q-17 33 -38 49.5t-48 16.5q-33 0 -56.5 -22t-28.5 -57q-5 -36 13.5 -58.5t50.5 -22.5h2zM600 350q-26 0 -50.5 -17t-53.5 -46q-8 -8 -9 -16t5 -17q38 -64 90 -64
q31 0 53 24.5t26 55.5q5 33 -11.5 56.5t-48.5 23.5h-1z" />
    <glyph glyph-name="integral" unicode="&#x222b;" horiz-adv-x="489" 
d="M255 766q60 70 171 70q37 0 65.5 -7.5t43.5 -17.5l-58 -156q-16 8 -30 12.5t-33 4.5q-26 0 -40 -21.5t-21 -76.5q-11 -75 -30 -273q-10 -124 -18 -180q-21 -149 -81.5 -221t-171.5 -72q-35 0 -62.5 7t-44.5 17l60 156q28 -16 60 -16q26 0 40 21.5t22 79.5q13 91 28 271
q11 130 19 187q21 145 81 215z" />
    <glyph glyph-name="approxequal" unicode="&#x2248;" horiz-adv-x="645" 
d="M515.5 377.5q-48.5 -28.5 -93.5 -28.5q-29 0 -51.5 10t-50.5 28q-25 16 -42 24t-38 8q-34 0 -62 -20.5t-71 -63.5l-42 92q60 56 103 82.5t91 26.5q31 0 54 -10t50 -29q22 -15 37.5 -22.5t34.5 -7.5q33 0 65 23t58 61l44 -90q-38 -55 -86.5 -83.5zM484.5 156.5
q-48.5 -28.5 -93.5 -28.5q-29 0 -51.5 10t-50.5 28q-25 16 -42 24t-38 8q-34 0 -62.5 -21t-69.5 -63l-43 92q60 56 103 82.5t91 26.5q31 0 53.5 -10t50.5 -29q22 -15 37.5 -22.5t34.5 -7.5q33 0 65 23t58 61l44 -90q-38 -55 -86.5 -83.5z" />
    <glyph glyph-name="notequal" unicode="&#x2260;" horiz-adv-x="608" 
d="M377 389l-56 -97h243l-19 -138h-302l-82 -143h-91l83 143h-117l19 138h177l57 97h-220l19 138h280l81 139h87l-80 -139h141l-19 -138h-201z" />
    <glyph glyph-name="lessequal" unicode="&#x2264;" horiz-adv-x="611" 
d="M517 177l-469 192l22 155l522 191l-22 -161l-305 -109l275 -106zM505 8h-509l19 137h509z" />
    <glyph glyph-name="greaterequal" unicode="&#x2265;" horiz-adv-x="611" 
d="M370 445l-276 109l22 161l471 -191l-22 -155l-524 -192l23 162zM534 145l-19 -137h-509l19 137h509z" />
    <glyph glyph-name="lozenge" unicode="&#x25ca;" horiz-adv-x="608" 
d="M208 0l-138 362l244 361h120l138 -359l-245 -364h-119zM212 364l78 -232l143 230l-80 225z" />
    <glyph glyph-name="i.loclTRK" horiz-adv-x="307" 
d="M205 0h-195l73 517h195zM288 560h-195l23 163h195z" />
    <glyph glyph-name="p.001" horiz-adv-x="630" 
d="M83 517h196l-9 -60q38 35 75.5 52.5t85.5 17.5q85 0 128.5 -67.5t25.5 -199.5q-20 -139 -83.5 -204.5t-152.5 -65.5q-38 0 -69.5 14t-66.5 54l-31 -219h-195zM352 149.5q25 33.5 36 114.5q11 78 -4.5 107t-50.5 29t-57 -26.5t-31 -89.5l-6 -45q-17 -123 51 -123
q37 0 62 33.5z" />
    <glyph glyph-name="q.001" horiz-adv-x="620" 
d="M299 -161l31 219q-47 -40 -82 -54t-73 -14q-89 0 -134.5 65.5t-25.5 204.5q19 132 81 199.5t147 67.5q48 0 80.5 -17.5t61.5 -52.5l9 60h196l-96 -678h-195zM356 239l6 45q9 63 -6.5 89.5t-50.5 26.5t-58.5 -29t-34.5 -107q-11 -81 4 -114.5t52 -33.5q71 0 88 123z" />
    <glyph glyph-name="l.ss01" horiz-adv-x="317" 
d="M118 743h195l-104 -743h-195z" />
    <glyph glyph-name="zero.osf" horiz-adv-x="681" 
d="M555.5 689.5q64.5 -44.5 91 -129t10.5 -200.5q-16 -115 -66 -198t-126 -126.5t-171 -43.5t-159.5 43.5t-91.5 126.5t-10 198q16 116 67 200.5t128 129t170 44.5t157.5 -44.5zM374.5 165q24.5 21 40.5 67.5t27 126.5q17 122 2 173.5t-68 51.5q-52 0 -81.5 -51.5
t-47.5 -173.5q-11 -79 -8 -126t21 -68t54 -21t60.5 21z" />
    <glyph glyph-name="one.osf" horiz-adv-x="421" 
d="M165 511l-124 -27l18 129l236 110h95l-102 -723h-195z" />
    <glyph glyph-name="two.osf" horiz-adv-x="645" 
d="M4 136l248 184q78 59 113 88t48.5 48.5t16.5 44.5q5 33 -15 54t-59 21q-44 0 -79 -26t-54 -82h-183q11 77 53 136.5t115.5 94t173.5 34.5q88 0 148 -29t87 -81t18 -120q-8 -54 -39 -94.5t-108 -102.5l-180 -146h285l-22 -160h-586z" />
    <glyph glyph-name="three.osf" horiz-adv-x="660" 
d="M162 677q102 56 247 56q81 0 145.5 -24t98 -68t25.5 -101q-15 -107 -150 -152q58 -16 97.5 -60t29.5 -113q-10 -71 -65.5 -122t-132.5 -77t-151 -26q-161 0 -240 54.5t-60 193.5h184q3 -52 38 -74t82 -22q52 0 88 21.5t40 51.5q4 31 -20 53.5t-69 23.5l-98 2l21 150l87 5
q45 2 74.5 23t34.5 51q4 28 -24 46t-63 18q-60 0 -101 -18.5t-55 -78.5h-183q18 131 120 187z" />
    <glyph glyph-name="four.osf" horiz-adv-x="638" 
d="M581 723l-60 -421h104l-23 -164h-104l-19 -138h-196l20 138h-316l22 157l379 428h193zM328 302l22 156l-138 -156h116z" />
    <glyph glyph-name="five.osf" horiz-adv-x="678" 
d="M655 723l-30 -156h-337l-28 -120q53 14 82 19.5t63 5.5q79 0 134.5 -28t81 -81.5t15.5 -126.5q-16 -116 -105 -181t-228 -65q-110 0 -192 43t-114 112l159 98q22 -35 39.5 -55t43 -33t62.5 -13q52 0 85 24.5t38 62.5q5 37 -18.5 63t-76.5 26q-23 0 -44.5 -5.5
t-57.5 -20.5q-10 -4 -15 -4q-6 0 -14 5l-122 71l85 359h494z" />
    <glyph glyph-name="six.osf" horiz-adv-x="670" 
d="M542 705.5q60 -27.5 91 -79t21 -120.5h-176q-6 40 -27.5 58.5t-60.5 18.5q-52 0 -88 -38.5t-44 -93.5q-2 -16 -1 -33q59 33 149 33q75 0 128.5 -27t78 -76t15.5 -112q-10 -69 -56 -124t-118 -86.5t-156 -31.5q-98 0 -164 43.5t-92.5 123t-12.5 184.5q17 120 69 207.5
t131 134t177 46.5q76 0 136 -27.5zM291 302q-24 -9 -40.5 -22t-18.5 -22q-9 -61 12.5 -92t65.5 -31q40 0 73.5 26.5t39.5 65.5q6 43 -20.5 63.5t-66.5 20.5q-21 0 -45 -9z" />
    <glyph glyph-name="seven.osf" horiz-adv-x="597" 
d="M644 723l-28 -199q-62 -60 -128.5 -150.5t-115 -190t-58.5 -183.5h-209q9 61 47 153.5t111 202.5t181 211h-391l22 156h569z" />
    <glyph glyph-name="eight.osf" horiz-adv-x="652" 
d="M519 706q60 -27 89.5 -73.5t21.5 -102.5q-8 -55 -48.5 -87.5t-79.5 -45.5q40 -22 64.5 -40.5t42 -54t9.5 -88.5q-15 -106 -109 -165t-240 -59q-134 0 -209 49t-62 138q9 66 51 102t102 56q-3 2 -28.5 20t-46 57.5t-13.5 89.5q9 63 50 115.5t109.5 84t156.5 31.5
q80 0 140 -27zM302 575.5q-25 -16.5 -30 -45.5q-5 -39 40 -56l59 -22q8 -2 11 -2q23 0 45 24t26 49q4 28 -20 48.5t-70 20.5q-36 0 -61 -16.5zM372.5 148.5q25.5 16.5 29.5 45.5q3 21 -8 37t-45 29l-66 25q-7 3 -16 3q-26 0 -50.5 -22t-28.5 -53q-5 -39 21.5 -60t93.5 -21
q44 0 69.5 16.5z" />
    <glyph glyph-name="nine.osf" horiz-adv-x="670" 
d="M136 20.5q-61 28.5 -92.5 80.5t-22.5 118h183q1 -36 21.5 -56.5t58.5 -20.5q62 0 104.5 33t53.5 109q1 9 2 31q-56 -51 -160 -51q-75 0 -131.5 28t-84 79t-17.5 118q10 69 56 124t118 86.5t156 31.5q99 0 164.5 -43.5t92 -123t11.5 -184.5q-28 -198 -126 -293t-251 -95
q-75 0 -136 28.5zM388 423q24 9 40.5 22t18.5 22q9 62 -12.5 93t-65.5 31q-39 0 -69 -26t-36 -67q-6 -40 18 -62t61 -22q21 0 45 9z" />
    <glyph glyph-name="zero.tf" horiz-adv-x="694" 
d="M562.5 689.5q64.5 -44.5 91 -129t10.5 -200.5q-16 -115 -66 -198t-126 -126.5t-171 -43.5t-159.5 43.5t-91.5 126.5t-10 198q16 116 67 200.5t128 129t170 44.5t157.5 -44.5zM381.5 165q24.5 21 40.5 67.5t27 126.5q17 122 2 173.5t-68 51.5q-52 0 -81.5 -51.5
t-47.5 -173.5q-11 -79 -8 -126t21 -68t54 -21t60.5 21z" />
    <glyph glyph-name="one.tf" horiz-adv-x="695" 
d="M591 180l-25 -180h-530l25 180h177l48 336l-183 -39l23 164l308 82h88l-77 -543h146z" />
    <glyph glyph-name="two.tf" horiz-adv-x="694" 
d="M33 136l248 184q78 59 113 88t48.5 48.5t16.5 44.5q5 33 -15 54t-59 21q-44 0 -79 -26t-54 -82h-183q11 77 53 136.5t115.5 94t173.5 34.5q88 0 148 -29t87 -81t18 -120q-8 -54 -39 -94.5t-108 -102.5l-180 -146h285l-22 -160h-586z" />
    <glyph glyph-name="three.tf" horiz-adv-x="694" 
d="M176 677q102 56 247 56q81 0 145.5 -24t98 -68t25.5 -101q-15 -107 -150 -152q58 -16 97.5 -60t29.5 -113q-10 -71 -65.5 -122t-132.5 -77t-151 -26q-161 0 -240 54.5t-60 193.5h184q3 -52 38 -74t82 -22q52 0 88 21.5t40 51.5q4 31 -20 53.5t-69 23.5l-98 2l21 150l87 5
q45 2 74.5 23t34.5 51q4 28 -24 46t-63 18q-60 0 -101 -18.5t-55 -78.5h-183q18 131 120 187z" />
    <glyph glyph-name="four.tf" horiz-adv-x="694" 
d="M613 723l-60 -421h104l-23 -164h-104l-19 -138h-196l20 138h-316l22 157l379 428h193zM360 302l22 156l-138 -156h116z" />
    <glyph glyph-name="five.tf" horiz-adv-x="694" 
d="M669 723l-30 -156h-337l-28 -120q53 14 82 19.5t63 5.5q79 0 134.5 -28t81 -81.5t15.5 -126.5q-16 -116 -105 -181t-228 -65q-110 0 -192 43t-114 112l159 98q22 -35 39.5 -55t43 -33t62.5 -13q52 0 85 24.5t38 62.5q5 37 -18.5 63t-76.5 26q-23 0 -44.5 -5.5
t-57.5 -20.5q-10 -4 -15 -4q-6 0 -14 5l-122 71l85 359h494z" />
    <glyph glyph-name="six.tf" horiz-adv-x="694" 
d="M560 705.5q60 -27.5 91 -79t21 -120.5h-176q-6 40 -27.5 58.5t-60.5 18.5q-52 0 -88 -38.5t-44 -93.5q-2 -16 -1 -33q59 33 149 33q75 0 128.5 -27t78 -76t15.5 -112q-10 -69 -56 -124t-118 -86.5t-156 -31.5q-98 0 -164 43.5t-92.5 123t-12.5 184.5q17 120 69 207.5
t131 134t177 46.5q76 0 136 -27.5zM309 302q-24 -9 -40.5 -22t-18.5 -22q-9 -61 12.5 -92t65.5 -31q40 0 73.5 26.5t39.5 65.5q6 43 -20.5 63.5t-66.5 20.5q-21 0 -45 -9z" />
    <glyph glyph-name="seven.tf" horiz-adv-x="695" 
d="M684 723l-28 -199q-62 -60 -128.5 -150.5t-115 -190t-58.5 -183.5h-224q8 60 45 148t110 193t180 207h-385l25 175h579z" />
    <glyph glyph-name="eight.tf" horiz-adv-x="694" 
d="M545 706q60 -27 89.5 -73.5t21.5 -102.5q-8 -55 -48.5 -87.5t-79.5 -45.5q40 -22 64.5 -40.5t42 -54t9.5 -88.5q-15 -106 -109 -165t-240 -59q-134 0 -209 49t-62 138q9 66 51 102t102 56q-3 2 -28.5 20t-46 57.5t-13.5 89.5q9 63 50 115.5t109.5 84t156.5 31.5
q80 0 140 -27zM328 575.5q-25 -16.5 -30 -45.5q-5 -39 40 -56l59 -22q8 -2 11 -2q23 0 45 24t26 49q4 28 -20 48.5t-70 20.5q-36 0 -61 -16.5zM398.5 148.5q25.5 16.5 29.5 45.5q3 21 -8 37t-45 29l-66 25q-7 3 -16 3q-26 0 -50.5 -22t-28.5 -53q-5 -39 21.5 -60t93.5 -21
q44 0 69.5 16.5z" />
    <glyph glyph-name="nine.tf" horiz-adv-x="694" 
d="M148 20.5q-61 28.5 -92.5 80.5t-22.5 118h183q1 -36 21.5 -56.5t58.5 -20.5q62 0 104.5 33t53.5 109q1 9 2 31q-56 -51 -160 -51q-75 0 -131.5 28t-84 79t-17.5 118q10 69 56 124t118 86.5t156 31.5q99 0 164.5 -43.5t92 -123t11.5 -184.5q-28 -198 -126 -293t-251 -95
q-75 0 -136 28.5zM400 423q24 9 40.5 22t18.5 22q9 62 -12.5 93t-65.5 31q-39 0 -69 -26t-36 -67q-6 -40 18 -62t61 -22q21 0 45 9z" />
    <glyph glyph-name="zero.subs" horiz-adv-x="423" 
d="M328 229q45 -63 29 -173q-15 -109 -76.5 -170t-151.5 -61t-134.5 61t-29.5 170q15 110 77.5 173t151.5 63t134 -63zM194.5 -49q18.5 30 28.5 105q11 76 1 108.5t-43 32.5t-51.5 -32.5t-29.5 -108.5q-10 -74 -1 -104.5t43 -30.5t52.5 30z" />
    <glyph glyph-name="one.subs" horiz-adv-x="309" 
d="M42 156l-78 -17l11 82l148 69h60l-64 -455h-123z" />
    <glyph glyph-name="two.subs" horiz-adv-x="392" 
d="M-48 -79l156 115q49 37 71.5 55.5t31 30.5t9.5 28q4 21 -9 34t-37 13q-28 0 -50 -16t-34 -52h-115q7 49 33.5 86.5t72.5 59t109 21.5q56 0 93.5 -18t54.5 -51t11 -76q-5 -34 -24.5 -59.5t-67.5 -64.5l-113 -91h179l-14 -101h-369z" />
    <glyph glyph-name="three.subs" horiz-adv-x="407" 
d="M61 257.5q64 35.5 155 35.5q52 0 92.5 -15t61.5 -42.5t16 -63.5q-10 -68 -95 -96q37 -10 62 -37.5t19 -71.5q-6 -45 -41.5 -77t-83.5 -48t-95 -16q-101 0 -151 34.5t-37 121.5h116q0 -33 22.5 -47t51.5 -14q33 0 56 13.5t26 32.5q3 20 -13 34t-44 15l-61 1l13 94l54 3
q29 1 47.5 14.5t21.5 32.5q2 17 -15.5 28.5t-39.5 11.5q-37 0 -63 -12t-35 -49h-115q11 82 75 117.5z" />
    <glyph glyph-name="four.subs" horiz-adv-x="423" 
d="M319 290l-37 -265h65l-14 -103h-66l-12 -87h-123l13 87h-199l14 99l238 269h121zM160 25l14 98l-87 -98h73z" />
    <glyph glyph-name="five.subs" horiz-adv-x="409" 
d="M368 287l-19 -98h-212l-18 -76q33 9 51.5 12.5t39.5 3.5q75 0 115 -39.5t30 -109.5q-10 -72 -66 -113t-143 -41q-69 0 -121 27t-72 70l101 62q20 -33 39 -48.5t52 -15.5t54 16t24 39t-12 39.5t-48 16.5q-15 0 -28.5 -3.5t-36.5 -12.5q-6 -3 -9 -3t-9 3l-76 45l53 226h311
z" />
    <glyph glyph-name="six.subs" horiz-adv-x="411" 
d="M284.5 273.5q37.5 -17.5 57 -49.5t13.5 -76h-111q-7 49 -55 49q-33 0 -56 -24.5t-28 -59.5q-1 -6 -1 -20q38 21 95 21q71 0 109.5 -38t29.5 -98q-6 -43 -35 -77.5t-74 -54.5t-98 -20q-93 0 -138 60.5t-31 160.5q16 114 79.5 179t157.5 65q48 0 85.5 -17.5zM112 14
q-22 -12 -23 -22q-5 -38 8.5 -57.5t40.5 -19.5q25 0 46.5 16.5t24.5 41.5q4 27 -12.5 40t-41.5 13q-21 0 -43 -12z" />
    <glyph glyph-name="seven.subs" horiz-adv-x="373" 
d="M372 290l-18 -125q-39 -38 -80.5 -95t-72 -119.5t-37.5 -115.5h-131q6 38 29.5 96.5t69.5 127.5t114 133h-246l14 98h358z" />
    <glyph glyph-name="eight.subs" horiz-adv-x="409" 
d="M276.5 276q37.5 -17 56.5 -46t14 -65q-5 -34 -30.5 -55t-50.5 -28q25 -14 40.5 -25.5t26.5 -34t6 -55.5q-9 -67 -68 -104t-151 -37q-85 0 -132 30.5t-39 86.5q6 42 32.5 64.5t63.5 35.5q-2 1 -33 22.5t-22 82.5q6 40 32 73t69 52.5t98 19.5q50 0 87.5 -17zM140 193.5
q-16 -10.5 -19 -28.5q-2 -11 5 -20.5t20 -14.5l37 -14q15 -5 32 11t20 34t-12 30.5t-44 12.5q-23 0 -39 -10.5zM184.5 -74.5q16.5 10.5 19.5 28.5q2 13 -5.5 23.5t-29.5 18.5l-40 15q-6 2 -10 2q-17 0 -32.5 -13.5t-18.5 -33.5q-7 -51 73 -51q27 0 43.5 10.5z" />
    <glyph glyph-name="nine.subs" horiz-adv-x="411" 
d="M34 -157q-38 18 -58 50.5t-14 74.5h115q1 -23 13.5 -36t36.5 -13q40 0 66.5 21t32.5 69q2 12 2 19q-36 -32 -101 -32q-72 0 -113.5 39t-32.5 103q6 43 34.5 78t74 54.5t98.5 19.5q93 0 138 -60t31 -161q-18 -125 -79.5 -184.5t-157.5 -59.5q-48 0 -86 18zM206.5 102
q21.5 12 23.5 22q5 38 -8.5 58t-40.5 20q-24 0 -43.5 -16.5t-23.5 -42.5q-4 -25 11.5 -39t38.5 -14q21 0 42.5 12z" />
    <glyph glyph-name="zero.dnom" horiz-adv-x="423" 
d="M351 394q45 -63 29 -173q-15 -109 -76.5 -170t-151.5 -61t-134.5 61t-29.5 170q15 110 77.5 173t151.5 63t134 -63zM217.5 116q18.5 30 28.5 105q11 76 1 108.5t-43 32.5t-51.5 -32.5t-29.5 -108.5q-10 -74 -1 -104.5t43 -30.5t52.5 30z" />
    <glyph glyph-name="one.dnom" horiz-adv-x="309" 
d="M65 321l-78 -17l11 82l148 69h60l-64 -455h-123z" />
    <glyph glyph-name="two.dnom" horiz-adv-x="392" 
d="M-25 86l156 115q49 37 71.5 55.5t31 30.5t9.5 28q4 21 -9 34t-37 13q-28 0 -50 -16t-34 -52h-115q7 49 33.5 86.5t72.5 59t109 21.5q56 0 93.5 -18t54.5 -51t11 -76q-5 -34 -24.5 -59.5t-67.5 -64.5l-113 -91h179l-14 -101h-369z" />
    <glyph glyph-name="three.dnom" horiz-adv-x="406" 
d="M84 422.5q64 35.5 155 35.5q52 0 92.5 -15t61.5 -42.5t16 -63.5q-10 -68 -95 -96q37 -10 62 -37.5t19 -71.5q-6 -45 -41.5 -77t-83.5 -48t-95 -16q-101 0 -151 34.5t-37 121.5h116q0 -33 22.5 -47t51.5 -14q33 0 56 13.5t26 32.5q3 20 -13 34t-44 15l-61 1l13 94l54 3
q29 1 47.5 14.5t21.5 32.5q2 17 -15.5 28.5t-39.5 11.5q-37 0 -63 -12t-35 -49h-115q11 82 75 117.5z" />
    <glyph glyph-name="four.dnom" horiz-adv-x="423" 
d="M342 455l-37 -265h65l-14 -103h-66l-12 -87h-123l13 87h-199l14 99l238 269h121zM183 190l14 98l-87 -98h73z" />
    <glyph glyph-name="five.dnom" horiz-adv-x="409" 
d="M391 452l-19 -98h-212l-18 -76q33 9 51.5 12.5t39.5 3.5q75 0 115 -39.5t30 -109.5q-10 -72 -66 -113t-143 -41q-69 0 -121 27t-72 70l101 62q20 -33 39 -48.5t52 -15.5t54 16t24 39t-12 39.5t-48 16.5q-15 0 -28.5 -3.5t-36.5 -12.5q-6 -3 -9 -3t-9 3l-76 45l53 226h311
z" />
    <glyph glyph-name="six.dnom" horiz-adv-x="411" 
d="M307.5 438.5q37.5 -17.5 57 -49.5t13.5 -76h-111q-7 49 -55 49q-33 0 -56 -24.5t-28 -59.5q-1 -6 -1 -20q38 21 95 21q71 0 109.5 -38t29.5 -98q-6 -43 -35 -77.5t-74 -54.5t-98 -20q-93 0 -138 60.5t-31 160.5q16 114 79.5 179t157.5 65q48 0 85.5 -17.5zM135 179
q-22 -12 -23 -22q-5 -38 8.5 -57.5t40.5 -19.5q25 0 46.5 16.5t24.5 41.5q4 27 -12.5 40t-41.5 13q-21 0 -43 -12z" />
    <glyph glyph-name="seven.dnom" horiz-adv-x="373" 
d="M395 455l-18 -125q-39 -38 -80.5 -95t-72 -119.5t-37.5 -115.5h-131q6 38 29.5 96.5t69.5 127.5t114 133h-246l14 98h358z" />
    <glyph glyph-name="eight.dnom" horiz-adv-x="409" 
d="M299.5 440q37.5 -17 56.5 -46t14 -65q-5 -34 -30.5 -55t-50.5 -28q25 -14 40.5 -25.5t26.5 -34t6 -55.5q-9 -67 -68 -104t-151 -37q-85 0 -132 30.5t-39 86.5q6 42 32.5 64.5t63.5 35.5q-2 1 -33 22.5t-22 82.5q6 40 32 73t69 52.5t98 19.5q50 0 87.5 -17zM163 357.5
q-16 -10.5 -19 -28.5q-2 -11 5 -20.5t20 -14.5l37 -14q15 -5 32 11t20 34t-12 30.5t-44 12.5q-23 0 -39 -10.5zM207.5 89.5q16.5 10.5 19.5 28.5q2 13 -5.5 23.5t-29.5 18.5l-40 15q-6 2 -10 2q-17 0 -32.5 -13.5t-18.5 -33.5q-7 -51 73 -51q27 0 43.5 10.5z" />
    <glyph glyph-name="nine.dnom" horiz-adv-x="411" 
d="M57 8q-38 18 -58 50.5t-14 74.5h115q1 -23 13.5 -36t36.5 -13q40 0 66.5 21t32.5 69q2 12 2 19q-36 -32 -101 -32q-72 0 -113.5 39t-32.5 103q6 43 34.5 78t74 54.5t98.5 19.5q93 0 138 -60t31 -161q-18 -125 -79.5 -184.5t-157.5 -59.5q-48 0 -86 18zM229.5 267
q21.5 12 23.5 22q5 38 -8.5 58t-40.5 20q-24 0 -43.5 -16.5t-23.5 -42.5q-4 -25 11.5 -39t38.5 -14q21 0 42.5 12z" />
    <glyph glyph-name="zero.numr" horiz-adv-x="423" 
d="M390.5 678q44.5 -63 29.5 -173q-15 -109 -76.5 -170t-151.5 -61t-134.5 61t-29.5 170q15 110 77.5 173t151.5 63t133.5 -63zM257 400q18 30 29 105q11 76 1 108.5t-43 32.5t-51.5 -32.5t-29.5 -108.5q-10 -74 -1 -104.5t43 -30.5t52 30z" />
    <glyph glyph-name="one.numr" horiz-adv-x="311" 
d="M103 597l-77 -17l11 82l148 69h60l-64 -455h-123z" />
    <glyph glyph-name="two.numr" horiz-adv-x="392" 
d="M14 365l156 115q49 36 71.5 55t30.5 31.5t10 27.5q3 21 -9.5 34t-36.5 13q-27 0 -49.5 -16t-33.5 -52h-115q11 75 65.5 121t148.5 46q83 0 126 -39.5t34 -105.5q-5 -34 -24.5 -59t-68.5 -65l-113 -91h179l-14 -101h-369z" />
    <glyph glyph-name="three.numr" horiz-adv-x="406" 
d="M124 704.5q64 35.5 155 35.5q52 0 92.5 -15t61.5 -42.5t16 -63.5q-10 -68 -95 -96q37 -10 61.5 -37.5t18.5 -71.5q-6 -45 -41 -77t-83.5 -48t-95.5 -16q-101 0 -150.5 34.5t-37.5 121.5h116q0 -33 23 -47t52 -14q33 0 56 13.5t25 32.5q3 20 -12.5 34t-43.5 15l-62 1
l13 94l55 3q29 1 47.5 14.5t20.5 32.5q2 17 -15 28.5t-39 11.5q-37 0 -63 -12t-36 -49h-115q12 82 76 117.5z" />
    <glyph glyph-name="four.numr" horiz-adv-x="423" 
d="M381 731l-38 -265h66l-14 -103h-66l-12 -87h-123l13 87h-199l14 99l238 269h121zM222 466l14 98l-87 -98h73z" />
    <glyph glyph-name="five.numr" horiz-adv-x="409" 
d="M430 731l-19 -98h-212l-18 -76q33 9 52 12.5t40 3.5q75 0 114.5 -39.5t30.5 -109.5q-10 -72 -66.5 -113t-143.5 -41q-69 0 -120.5 27t-71.5 70l100 62q20 -33 39 -48.5t52 -15.5t54 16t24 39t-12 39.5t-48 16.5q-15 0 -28.5 -3.5t-35.5 -12.5q-6 -3 -10 -3q-3 0 -8 3
l-77 45l53 226h311z" />
    <glyph glyph-name="six.numr" horiz-adv-x="411" 
d="M347.5 723.5q37.5 -17.5 57 -49.5t13.5 -76h-111q-7 49 -55 49q-33 0 -56 -24.5t-28 -59.5q-1 -6 -1 -20q38 21 95 21q71 0 109.5 -38t29.5 -98q-6 -43 -35 -77.5t-74 -54.5t-98 -20q-93 0 -138 60.5t-31 160.5q16 114 79.5 179t157.5 65q48 0 85.5 -17.5zM175.5 464
q-21.5 -12 -23.5 -22q-5 -38 8.5 -57.5t40.5 -19.5q25 0 46.5 16.5t24.5 41.5q4 27 -12.5 40t-41.5 13q-21 0 -42.5 -12z" />
    <glyph glyph-name="seven.numr" horiz-adv-x="372" 
d="M434 730l-18 -125q-39 -38 -80.5 -95t-72.5 -119.5t-37 -115.5h-131q5 38 28.5 96.5t70 127.5t114.5 133h-246l14 98h358z" />
    <glyph glyph-name="eight.numr" horiz-adv-x="409" 
d="M339.5 723q37.5 -17 56.5 -46t14 -65q-5 -34 -31 -55t-51 -28q25 -14 41 -25.5t27 -34t6 -55.5q-9 -67 -68.5 -104t-151.5 -37q-85 0 -131.5 30.5t-38.5 86.5q6 42 32.5 64.5t63.5 35.5q-2 1 -33 22.5t-22 82.5q6 40 32 73t69 52.5t98 19.5q50 0 87.5 -17zM202.5 640.5
q-15.5 -10.5 -18.5 -28.5q-2 -11 5 -20.5t20 -14.5l37 -14q15 -5 32 11t19 34q3 18 -12 30.5t-44 12.5q-23 0 -38.5 -10.5zM247.5 372.5q16.5 10.5 18.5 28.5q2 13 -5 23.5t-29 18.5l-41 15q-6 2 -9 2q-17 0 -32.5 -13.5t-18.5 -33.5q-7 -51 73 -51q27 0 43.5 10.5z" />
    <glyph glyph-name="nine.numr" horiz-adv-x="411" 
d="M97 293q-38 18 -58 50.5t-14 74.5h115q1 -23 13.5 -36t36.5 -13q40 0 66.5 21t33.5 69q2 12 1 19q-36 -32 -101 -32q-72 0 -113.5 39t-32.5 103q6 43 35 78t74 54.5t98 19.5q93 0 138 -60t31 -161q-18 -125 -79.5 -184.5t-157.5 -59.5q-48 0 -86 18zM269.5 552
q21.5 12 23.5 22q5 38 -8.5 58t-40.5 20q-24 0 -43.5 -16.5t-23.5 -42.5q-4 -25 11.5 -39t38.5 -14q21 0 42.5 12z" />
    <glyph glyph-name="comma.tf" horiz-adv-x="301" 
d="M79 -6l-57 7l24 169h177l-21 -150l-140 -173h-64z" />
    <glyph glyph-name="period.tf" horiz-adv-x="301" 
d="M220 0h-205l28 196h205z" />
    <glyph glyph-name="bullet.uc" horiz-adv-x="377" 
d="M92.5 237.5q-31.5 20.5 -46.5 55t-9 75.5q6 40 30.5 74.5t62 55t78.5 20.5t72.5 -20.5t47 -55t10.5 -74.5q-6 -41 -31.5 -75.5t-63 -55t-78.5 -20.5t-72.5 20.5z" />
    <glyph glyph-name="caroncomb.alt" horiz-adv-x="1" 
d="M-142 488q-2 5 1 10l41 75q4 8 4 12q1 8 -9 9l-11 2q-9 1 -12.5 4.5t-2.5 11.5l14 96q2 15 15 15h95q13 0 11 -12l-16 -115q-1 -4 -5 -10l-49 -88q-4 -8 -11 -11.5t-21 -3.5h-36q-6 0 -8 5z" />
    </font>
</defs>
</svg>
