<?xml version="1.0" standalone="no"?>
<!DOCTYPE svg PUBLIC "-//W3C//DTD SVG 1.1//EN" "http://www.w3.org/Graphics/SVG/1.1/DTD/svg11.dtd" >
<svg xmlns="http://www.w3.org/2000/svg" xmlns:xlink="http://www.w3.org/1999/xlink" version="1.1">
<metadata>
Created by FontForge 20170731 at Thu Oct  4 21:44:52 2018
 By Aleksey,,,
</metadata>
<defs>
<font id="CheyenneSans-SemiBold" horiz-adv-x="600" >
  <font-face 
    font-family="Cheyenne Sans SemiBold"
    font-weight="600"
    font-stretch="normal"
    units-per-em="1000"
    panose-1="0 0 7 0 0 0 0 0 0 0"
    ascent="800"
    descent="-200"
    x-height="517"
    cap-height="723"
    bbox="-400 -235 1303 988"
    underline-thickness="50"
    underline-position="-200"
    unicode-range="U+000D-FB02"
  />
<missing-glyph horiz-adv-x="666" 
d="M576 820.5q5 -5.5 5 -15.5v-938q0 -15 -8 -21.5t-25 -6.5h-436q-15 0 -21 5.5t-6 18.5v940q0 11 5 17t14 6h459q8 0 13 -5.5zM526 772.5q-4 4.5 -11 4.5h-343l358 -834v817q0 8 -4 12.5zM141 -107q5 -5 17 -5h336l-358 828v-808q0 -10 5 -15z" />
    <glyph glyph-name="fi" unicode="fi" horiz-adv-x="667" 
d="M365 431h-117v-431h-122v431h-102v86h102v77q0 62 34.5 95.5t99.5 33.5h109l1 -83h-73q-29 0 -40 -14.5t-11 -48.5v-60h119v-86zM595 611h-126v132h126v-132zM593 0h-122v517h122v-517z" />
    <glyph glyph-name="fl" unicode="fl" horiz-adv-x="705" 
d="M365 431h-117v-431h-122v431h-102v86h102v77q0 62 34.5 95.5t99.5 33.5h109l1 -83h-73q-29 0 -40 -14.5t-11 -48.5v-60h119v-86zM523 15q-33 20 -43.5 51.5t-10.5 75.5v601h120v-587q0 -34 14 -52.5t44 -21.5l26 -1v-76q-30 -10 -54 -10q-63 0 -96 20z" />
    <glyph glyph-name="f_f.liga" unicode="ff" horiz-adv-x="824" 
d="M774 431h-117v-431h-122v431h-103v86h103v77q0 62 34.5 95.5t99.5 33.5h109l1 -83h-73q-29 0 -40.5 -14.5t-11.5 -48.5v-60h120v-86zM369 431h-118v-431h-122v431h-102v86h102v66q0 62 34.5 95.5t99.5 33.5h109l1 -84h-72q-29 0 -40.5 -14.5t-11.5 -47.5v-49h120v-86z
" />
    <glyph glyph-name="colon_one_eight_F_colon.liga" unicode="&#x3a;&#x31;&#x38;F&#x3a;" horiz-adv-x="771" 
d="M754 761q11 0 11 -12v-736q0 -13 -11 -13h-737q-12 0 -12 13v736q0 12 12 12h737zM433 259.5q25 25.5 25 60.5q0 45 -37 70q27 26 27 58q0 31 -22.5 53t-52.5 22q-33 0 -55 -22t-22 -53t27 -58q-37 -25 -37 -70q0 -35 25.5 -60.5t61.5 -25.5q35 0 60 25.5zM244 515
q0 5 -4 5h-67q-4 0 -4 -5v-26q0 -4 4 -4h36v-242q0 -4 4 -4h27q4 0 4 4v272zM613 515q0 5 -4 5h-105q-4 0 -4 -5v-272q0 -4 4 -4h26q6 0 6 4v124h61q4 0 4 4v25q0 5 -4 5h-61v84h73q4 0 4 4v26zM343 419q-12 11 -12 29q0 17 12 29t30 12q17 0 28.5 -12t11.5 -29
q0 -18 -11.5 -29t-28.5 -11q-18 0 -30 11zM408.5 356.5q14.5 -14.5 14.5 -36.5q0 -21 -14.5 -36t-35.5 -15q-22 0 -37 15t-15 36q0 22 15 36.5t37 14.5q21 0 35.5 -14.5z" />
    <glyph glyph-name="colon_f_l_a_g_two_colon.liga" unicode="&#x3a;flag&#x32;&#x3a;" horiz-adv-x="1155" 
d="M1111 761v-760h-1067v760h1067zM1048 698h-535v-53h535v53zM201 585v59h-62v-59h62zM435 585v59h-61v-59h61zM318 527v58h-61v-58h61zM1048 528v55h-535v-55h535zM201 468v59h-61v-59h61zM374 527v-59h61v59h-61zM257 468v-58h61v58h-61zM1048 411v55h-535v-55h535z
M140 410v-59h61v59h-61zM374 410v-59h61v59h-61zM1048 294v55h-535v-55h535zM105 232v-55h943v55h-943zM1048 63v52h-942v-52h942z" />
    <glyph glyph-name="colon_f_l_a_g_colon.liga" unicode="&#x3a;flag&#x3a;" horiz-adv-x="1155" 
d="M1111 761v-760h-1067v760h1067zM102 702v-409h950v58h-540v59h540v58h-540v59h540v58h-540v59h540v58h-950zM219 585h-58v59h58v-59zM453 585h-58v59h58v-59zM336 527h-58v58h58v-58zM219 468h-58v59h58v-59zM453 468h-58v59h58v-59zM336 410h-58v58h58v-58zM219 351h-58
v59h58v-59zM453 351h-58v59h58v-59zM102 234v-58h950v58h-950zM1052 59v58h-950v-58h950z" />
    <glyph glyph-name=".notdef" horiz-adv-x="666" 
d="M576 820.5q5 -5.5 5 -15.5v-938q0 -15 -8 -21.5t-25 -6.5h-436q-15 0 -21 5.5t-6 18.5v940q0 11 5 17t14 6h459q8 0 13 -5.5zM526 772.5q-4 4.5 -11 4.5h-343l358 -834v817q0 8 -4 12.5zM141 -107q5 -5 17 -5h336l-358 828v-808q0 -10 5 -15z" />
    <glyph glyph-name="uni0000" horiz-adv-x="23" 
 />
    <glyph glyph-name="uni0000" horiz-adv-x="23" 
 />
    <glyph glyph-name="nonmarkingreturn" unicode="&#xd;" horiz-adv-x="233" 
 />
    <glyph glyph-name="space" unicode=" " horiz-adv-x="262" 
 />
    <glyph glyph-name="exclam" unicode="!" horiz-adv-x="265" 
d="M169 205h-78l-34 518h144zM197 0h-137v138h137v-138z" />
    <glyph glyph-name="quotedbl" unicode="&#x22;" horiz-adv-x="449" 
d="M366 464h-64l-33 259h132zM167 464h-64l-33 259h132z" />
    <glyph glyph-name="numbersign" unicode="#" horiz-adv-x="603" 
d="M452 434l-21 -138h107v-67h-117l-34 -231l-68 9l33 222h-140l-34 -231l-67 9l33 222h-115v67h125l21 138h-114v67h124l33 224l67 -8l-32 -216h140l34 224l67 -8l-32 -216h108v-67h-118zM383 434h-140l-21 -138h140z" />
    <glyph glyph-name="dollar" unicode="$" horiz-adv-x="631" 
d="M560.5 97.5q-26.5 -44.5 -74.5 -71.5t-111 -31q-9 -1 -12 -3.5t-3 -10.5v-61h-82v74q-83 4 -143 31.5t-110 82.5l72 73q38 -43 81 -67t101 -29l1 223q-122 32 -174 84t-52 130t55.5 132t153.5 70q6 1 11 4.5t5 9.5v53h81v-64q116 -23 197 -90l-65 -78q-20 24 -52.5 43
t-69.5 28l-3 1q-4 0 -6 -2.5t-2 -5.5v-210l59 -17q80 -28 124.5 -78t44.5 -121q0 -55 -26.5 -99.5zM281 634q-25 0 -53.5 -11.5t-48 -34.5t-19.5 -54q0 -45 34 -69t85 -38zM447.5 115q32.5 27 32.5 66t-28.5 66t-91.5 46v-208q55 3 87.5 30z" />
    <glyph glyph-name="percent" unicode="%" horiz-adv-x="921" 
d="M317 707.5q40 -26.5 63 -74t23 -106.5t-23 -105.5t-63 -72.5t-90 -26q-51 0 -91.5 26t-63.5 72.5t-23 105.5t23.5 106.5t64 74t90.5 26.5t90 -26.5zM268 -4l-75 1l488 734h73zM290 424q22 37 22 103q0 67 -22.5 105t-63.5 38q-42 0 -64 -38t-22 -105q0 -65 22 -102.5
t64 -37.5t64 37zM781.5 375.5q40.5 -26.5 63.5 -74t23 -106.5t-23 -106t-63.5 -73t-90.5 -26t-91 26t-64 73t-23 106t23.5 106.5t64 74t90.5 26.5t90.5 -26.5zM753.5 92.5q22.5 37.5 22.5 101.5q0 66 -22.5 105t-63.5 39q-40 0 -62.5 -39.5t-22.5 -104.5q0 -64 22.5 -101.5
t62.5 -37.5q41 0 63.5 37.5z" />
    <glyph glyph-name="ampersand" unicode="&#x26;" horiz-adv-x="746" 
d="M439 714.5q48 -19.5 76.5 -55t28.5 -81.5t-39.5 -96t-125.5 -98l133 -157q48 88 56 174h123q-13 -62 -41 -114t-79 -131l133 -156h-140l-66 75q-103 -80 -229 -80q-110 0 -168 50.5t-58 135.5q0 71 42.5 122t134.5 100q-46 50 -67 86.5t-21 80.5q0 46 25.5 83.5t71.5 59
t104 21.5t106 -19.5zM276.5 634.5q-23.5 -22.5 -23.5 -56.5q0 -28 16.5 -57.5t38.5 -52.5l19 -21q62 38 85.5 67t23.5 60q0 41 -27.5 62t-67.5 21q-41 0 -64.5 -22.5zM205 272q-28 -34 -28 -75q0 -48 36 -78t85 -30q35 0 73.5 16t67.5 43l-159 184q-47 -26 -75 -60z" />
    <glyph glyph-name="quotesingle" unicode="'" horiz-adv-x="252" 
d="M157 464h-64l-33 259h132z" />
    <glyph glyph-name="parenleft" unicode="(" horiz-adv-x="316" 
d="M205 506.5q-31 -114.5 -31 -229.5q0 -110 27.5 -215.5t82.5 -222.5h-84q-69 118 -103.5 218.5t-34.5 220.5t38 234t105 211h85q-54 -102 -85 -216.5z" />
    <glyph glyph-name="parenright" unicode=")" horiz-adv-x="321" 
d="M100 506.5q31 -114.5 31 -229.5q0 -110 -27.5 -215.5t-82.5 -222.5h84q69 118 103.5 218.5t34.5 220.5t-38 234t-105 211h-85q54 -102 85 -216.5z" />
    <glyph glyph-name="asterisk" unicode="*" horiz-adv-x="435" 
d="M218 486l-82 -135l-68 47l99 120l-139 40l26 73l133 -56l-11 148h83l-11 -149l135 59l23 -73l-136 -41l97 -117l-68 -48z" />
    <glyph glyph-name="plus" unicode="+" horiz-adv-x="570" 
d="M510 318h-181v-181h-90v181h-183v91h182v182h91v-182h181v-91z" />
    <glyph glyph-name="comma" unicode="," horiz-adv-x="256" 
d="M100 -3l-48 4v127h133v-112l-93 -149h-49z" />
    <glyph glyph-name="hyphen" unicode="-" horiz-adv-x="386" 
d="M323 212h-265v91h265v-91z" />
    <glyph glyph-name="period" unicode="." horiz-adv-x="248" 
d="M189 0h-138v140h138v-140z" />
    <glyph glyph-name="slash" unicode="/" horiz-adv-x="363" 
d="M261 723h88l-252 -751h-88z" />
    <glyph glyph-name="zero" unicode="0" horiz-adv-x="651" 
d="M473 690.5q64 -43.5 100 -127.5t36 -203q0 -118 -35.5 -201t-99.5 -125.5t-148 -42.5q-85 0 -149 42t-99.5 125t-35.5 201q0 119 36 203.5t100.5 128t147.5 43.5t147 -43.5zM437 155q38 64 38 204q0 276 -150 276q-72 0 -110.5 -67t-38.5 -209q0 -268 150 -268
q73 0 111 64z" />
    <glyph glyph-name="one" unicode="1" horiz-adv-x="395" 
d="M164 585l-134 -42v86l187 94h71v-723h-124v585z" />
    <glyph glyph-name="two" unicode="2" horiz-adv-x="599" 
d="M39 96l230 213q62 56 93 90t44.5 61.5t13.5 59.5q0 54 -36.5 82t-87.5 28q-50 0 -90.5 -25t-61.5 -79l-111 13q19 90 87.5 142t179.5 52q112 0 180 -57t68 -156q-1 -58 -31.5 -106.5t-110.5 -127.5l-187 -182h336v-104h-516v96z" />
    <glyph glyph-name="three" unicode="3" horiz-adv-x="652" 
d="M141.5 690.5q77.5 42.5 184.5 42.5q75 0 135 -24t94 -66.5t34 -95.5q0 -113 -136 -161q69 -18 113.5 -65t44.5 -116q0 -64 -39.5 -113t-106 -75.5t-145.5 -26.5q-119 0 -191 40t-95 138l113 13q24 -49 68 -70t99 -21q74 0 118 32t44 82q0 53 -45 86.5t-109 33.5l-98 1v98
l83 3q66 1 108.5 33t42.5 79q0 42 -39.5 70t-95.5 28q-60 0 -102 -20.5t-61 -70.5l-111 13q15 90 92.5 132.5z" />
    <glyph glyph-name="four" unicode="4" horiz-adv-x="625" 
d="M487 723v-445h110v-107h-110v-171h-122v171h-331v107l330 445h123zM364 278v273l-203 -273h203z" />
    <glyph glyph-name="five" unicode="5" horiz-adv-x="656" 
d="M568 723l-7 -102h-348l-17 -201q55 23 87 33t76 10q71 0 127.5 -25.5t89.5 -77t33 -124.5q0 -76 -35.5 -131.5t-100 -85t-149.5 -29.5q-89 0 -164 34t-120 94l91 66q44 -49 82 -72t96 -23q78 0 122.5 40t44.5 103q0 61 -40 96t-106 35q-37 0 -69 -12t-74 -35
q-7 -4 -10 -4q-2 0 -5 2t-6 3l-83 47l31 359h454z" />
    <glyph glyph-name="six" unicode="6" horiz-adv-x="632" 
d="M502 690.5q66 -46.5 78 -123.5l-106 -15q-21 43 -51 65t-80 22q-79 0 -123 -65.5t-44 -181.5q0 -27 1 -42q23 44 70.5 68.5t105.5 24.5q73 0 126.5 -28.5t82 -77.5t28.5 -111q0 -67 -34 -119.5t-94 -81.5t-135 -29q-89 0 -154 43t-99 123.5t-34 190.5q0 119 36 205.5
t104 132.5t160 46q96 0 162 -46.5zM258 335q-33 -14 -53 -38t-20 -53q9 -76 45 -115t94 -39t97.5 37t39.5 93q0 57 -37.5 93t-95.5 36q-37 0 -70 -14z" />
    <glyph glyph-name="seven" unicode="7" horiz-adv-x="581" 
d="M556 723v-124q-60 -79 -119 -190t-99 -221.5t-45 -187.5h-133q9 71 41.5 173.5t91.5 221t143 226.5h-406v102h526z" />
    <glyph glyph-name="eight" unicode="8" horiz-adv-x="631" 
d="M444.5 707q57.5 -26 89 -71.5t31.5 -103.5q0 -63 -37 -99t-74 -53q6 -3 46 -21.5t68.5 -60t28.5 -99.5q0 -64 -36 -111.5t-101 -72.5t-151 -25q-126 0 -200.5 49.5t-74.5 138.5q0 57 35 101.5t99 72.5q-115 54 -115 164q0 60 32.5 109.5t91.5 78.5t136 29q74 0 131.5 -26
zM221.5 608.5q-37.5 -30.5 -37.5 -77.5q0 -71 82 -92l86 -23q3 -1 8 -1q19 0 40 17.5t35.5 44.5t14.5 54q0 47 -36.5 77.5t-98.5 30.5q-56 0 -93.5 -30.5zM424.5 113.5q39.5 28.5 39.5 76.5q0 37 -21 61t-69 37l-106 28q-8 2 -11 2q-21 0 -45.5 -16.5t-41.5 -44t-17 -59.5
q0 -54 41.5 -83.5t122.5 -29.5q68 0 107.5 28.5z" />
    <glyph glyph-name="nine" unicode="9" horiz-adv-x="632" 
d="M174 13q-52 22 -85.5 60.5t-41.5 87.5l111 14q18 -40 47.5 -63t78.5 -23q84 0 132.5 63.5t48.5 192.5q0 25 -1 38q-20 -48 -68 -75.5t-112 -27.5q-73 0 -128.5 28.5t-86 79t-30.5 114.5q0 68 34.5 120t94.5 81t135 29q89 0 153.5 -43t99 -123.5t34.5 -190.5
q0 -188 -79.5 -286t-221.5 -98q-63 0 -115 22zM371 393.5q33 14.5 53.5 38.5t20.5 51q-9 77 -45 116t-94 39t-95.5 -36.5t-37.5 -93.5q0 -55 36 -92t92 -37q37 0 70 14.5z" />
    <glyph glyph-name="colon" unicode=":" horiz-adv-x="248" 
d="M189 362h-138v139h138v-139zM189 3h-138v138h138v-138z" />
    <glyph glyph-name="semicolon" unicode=";" horiz-adv-x="262" 
d="M52 499h138v-141h-138v141zM105 0h-50v139h137v-123l-98 -165h-51z" />
    <glyph glyph-name="less" unicode="&#x3c;" horiz-adv-x="566" 
d="M494 120l-443 172v104l444 175v-108l-306 -119l305 -117v-107z" />
    <glyph glyph-name="equal" unicode="=" horiz-adv-x="570" 
d="M510 414h-454v91h454v-91zM510 189l-454 -1v91h454v-90z" />
    <glyph glyph-name="greater" unicode="&#x3e;" horiz-adv-x="566" 
d="M373 344l-307 119v108l444 -175v-104l-443 -172v107z" />
    <glyph glyph-name="question" unicode="?" horiz-adv-x="525" 
d="M112 692.5q64 40.5 151 40.5q68 0 120.5 -22.5t81 -61.5t28.5 -88q0 -39 -13.5 -70.5t-33.5 -55t-53 -55.5t-51.5 -54t-31.5 -51.5t-13 -66.5h-100q0 49 14.5 87.5t34.5 66t53 63.5q37 41 54.5 68.5t17.5 61.5q0 42 -30 66.5t-79 24.5q-45 0 -85 -27t-56 -69l-105 28
q32 74 96 114.5zM316 0h-137v138h137v-138z" />
    <glyph glyph-name="at" unicode="@" horiz-adv-x="826" 
d="M557.5 -89q-61.5 -21 -132.5 -21q-116 0 -202 48.5t-132 132t-46 184.5q0 105 49.5 194.5t140 142t207.5 52.5q91 0 170.5 -33.5t129 -104t49.5 -175.5q0 -73 -24.5 -130.5t-68 -89.5t-98.5 -32q-73 0 -91 49q-3 6 -6 6t-7 -6q-51 -63 -132 -63q-39 0 -72 21.5t-52 60
t-19 89.5q0 61 24 113t68 83t101 31q38 0 64 -14.5t45 -40.5q2 -2 4 -1t3 5l7 26h74l-36 -218q-3 -15 -3 -27q0 -41 36 -41q27 0 51 20.5t38.5 59.5t14.5 93q0 87 -38 142.5t-99 80.5t-133 25q-102 0 -173.5 -42.5t-107 -115t-35.5 -160.5q0 -89 37 -156t108 -104t169 -37
q61 0 98.5 14.5t82.5 46.5l41 -53q-43 -34 -104.5 -55zM331 171q19 -28 54 -28q44 0 76.5 37.5t37.5 87.5q1 7 1 19q0 45 -22.5 71.5t-56.5 26.5q-47 0 -78 -40.5t-31 -99.5q0 -46 19 -74z" />
    <glyph glyph-name="A" unicode="A" horiz-adv-x="705" 
d="M287 723h132l260 -723h-123l-64 181h-276l-66 -181h-123zM462 290l-108 315l-110 -315h218z" />
    <glyph glyph-name="B" unicode="B" horiz-adv-x="676" 
d="M85 723h249q136 0 205 -48.5t69 -140.5q0 -58 -29.5 -97.5t-99.5 -66.5q81 -20 113.5 -66t32.5 -109q0 -99 -69 -147t-212 -48h-259v723zM354 415q57 0 96.5 25t39.5 78t-40 81t-107 28h-136v-212h147zM345 97q77 0 117 27.5t40 80.5q0 55 -41 83t-107 28h-147v-219h138z
" />
    <glyph glyph-name="C" unicode="C" horiz-adv-x="698" 
d="M504.5 702.5q62.5 -30.5 100.5 -83.5t46 -119l-128 -3q-12 62 -53.5 98t-109.5 36q-179 0 -179 -267q0 -136 46.5 -204t136.5 -68q60 0 102.5 38t54.5 100l128 -5q-13 -104 -84 -169.5t-198 -65.5q-98 0 -170.5 46t-111 131t-38.5 198t38 196t109 127.5t169 44.5
q79 0 141.5 -30.5z" />
    <glyph glyph-name="D" unicode="D" horiz-adv-x="702" 
d="M280 722q193 -4 284 -95t91 -262q0 -177 -95.5 -271t-287.5 -94h-187v723q133 0 195 -1zM209 101h65q119 0 186 62.5t67 201.5q0 136 -64 197t-186 61h-68v-522z" />
    <glyph glyph-name="E" unicode="E" horiz-adv-x="630" 
d="M85 723h478v-104h-355v-203h313v-103h-314v-207l363 -1v-105h-485v723z" />
    <glyph glyph-name="F" unicode="F" horiz-adv-x="594" 
d="M558 723v-103h-349v-208h308v-102h-308v-310h-124v723h473z" />
    <glyph glyph-name="G" unicode="G" horiz-adv-x="741" 
d="M196.5 35.5q-71.5 45.5 -110.5 128.5t-39 195q0 114 40.5 198.5t113.5 130t170 45.5q77 0 141 -32.5t102 -86t41 -113.5l-129 -4q-11 57 -53.5 94t-104.5 37q-87 0 -138 -66.5t-51 -196.5q0 -138 53 -202.5t140 -64.5q48 0 83.5 21.5t55 53.5t22.5 64l5 54h-162v86
l289 -2v-375h-86v102q-34 -50 -85 -81t-130 -31q-96 0 -167.5 45.5z" />
    <glyph glyph-name="H" unicode="H" horiz-adv-x="717" 
d="M207 321v-321h-122v723h122v-298h303v298h122v-723h-122v321h-303z" />
    <glyph glyph-name="I" unicode="I" horiz-adv-x="292" 
d="M207 723v-723h-122v723h122z" />
    <glyph glyph-name="J" unicode="J" horiz-adv-x="400" 
d="M299.5 76.5q-14.5 -42.5 -51.5 -64.5t-104 -22q-32 0 -66 6t-56 13l5 113q6 -2 29 -9.5t51 -7.5q49 0 67.5 26t18.5 89v503h121v-536q0 -68 -14.5 -110.5z" />
    <glyph glyph-name="K" unicode="K" horiz-adv-x="697" 
d="M534 0l-207 353l-115 -136v-217h-127v723h127v-351l291 351h141l-228 -280l253 -443h-135z" />
    <glyph glyph-name="L" unicode="L" horiz-adv-x="563" 
d="M209 723v-618h326v-105h-450v723h124z" />
    <glyph glyph-name="M" unicode="M" horiz-adv-x="898" 
d="M85 723h174l190 -553l191 553h173v-723h-123v567l-191 -567h-101l-189 563v-563h-124v723z" />
    <glyph glyph-name="N" unicode="N" horiz-adv-x="765" 
d="M680 723v-723h-110l-363 530v-530h-122v723h119l354 -516v516h122z" />
    <glyph glyph-name="O" unicode="O" horiz-adv-x="742" 
d="M198.5 34q-73.5 44 -112.5 127t-39 198q0 116 40 200.5t113 129t172 44.5q98 0 170.5 -44.5t112 -128.5t39.5 -200q0 -115 -39 -198.5t-111.5 -127.5t-171.5 -44q-100 0 -173.5 44zM513 157q49 65 49 201q0 139 -49.5 206t-140.5 67t-141 -67t-50 -206q0 -136 50 -201
t141 -65q92 0 141 65z" />
    <glyph glyph-name="P" unicode="P" horiz-adv-x="644" 
d="M85 723h257q122 0 197 -57.5t75 -166.5q0 -106 -69 -162t-187 -56h-149v-281h-124v723zM355 378q64 0 104 34t40 94t-40.5 90.5t-107.5 30.5h-143v-249h147z" />
    <glyph glyph-name="Q" unicode="Q" horiz-adv-x="747" 
d="M80.5 560q39.5 84 112.5 128.5t172 44.5t172 -44.5t112.5 -128.5t39.5 -200q0 -213 -131 -309q15 -34 49 -53t77 -21v-99q-74 0 -130.5 24.5t-104.5 95.5q-45 -8 -84 -8q-99 0 -172 43.5t-112.5 127t-39.5 199.5t39.5 200zM365 92q191 0 191 267q0 138 -49 205t-142 67
t-141.5 -67.5t-48.5 -205.5q0 -266 190 -266z" />
    <glyph glyph-name="R" unicode="R" horiz-adv-x="686" 
d="M499 0l-124 294h-168v-294h-122v723h294q121 0 182 -55.5t61 -152.5q0 -143 -134 -201l138 -314h-127zM459 422q39 32 39 89q0 55 -35.5 86t-95.5 31h-160v-238h144q69 0 108 32z" />
    <glyph glyph-name="S" unicode="S" horiz-adv-x="683" 
d="M207.5 13q-65.5 23 -109 69.5t-51.5 112.5l127 4q12 -53 59.5 -82.5t113.5 -29.5q71 0 117 27.5t46 76.5q0 42 -32.5 66.5t-93.5 37.5l-136 29q-85 17 -132 66t-47 128q0 64 35.5 112.5t98.5 75t141 26.5q82 0 144 -29t97.5 -77.5t41.5 -104.5l-124 -4q-9 61 -50.5 88.5
t-107.5 27.5q-62 0 -103.5 -28t-41.5 -76q0 -37 25 -60t88 -37l132 -29q191 -38 191 -211q0 -57 -36 -103t-101.5 -72.5t-151.5 -26.5q-74 0 -139.5 23z" />
    <glyph glyph-name="T" unicode="T" horiz-adv-x="591" 
d="M13 723h564v-110h-217v-613h-121v613h-226v110z" />
    <glyph glyph-name="U" unicode="U" horiz-adv-x="726" 
d="M574.5 60.5q-66.5 -70.5 -211.5 -70.5q-146 0 -212 71.5t-66 209.5v452h125v-464q0 -83 40 -124t113 -41t114 41t41 124v464h123v-459q0 -133 -66.5 -203.5z" />
    <glyph glyph-name="V" unicode="V" horiz-adv-x="664" 
d="M401 0h-141l-249 723h117l203 -583l205 583h118z" />
    <glyph glyph-name="W" unicode="W" horiz-adv-x="960" 
d="M728 0h-103l-146 513l-148 -513h-100l-211 723h120l147 -522l147 522h91l148 -522l147 522h120z" />
    <glyph glyph-name="X" unicode="X" horiz-adv-x="677" 
d="M505 0l-177 276l-175 -276h-133l243 368l-235 355h153l159 -252l159 252h132l-227 -340l254 -383h-153z" />
    <glyph glyph-name="Y" unicode="Y" horiz-adv-x="630" 
d="M376 306v-306h-122v306l-249 417h132l179 -311l175 311h133z" />
    <glyph glyph-name="Z" unicode="Z" horiz-adv-x="646" 
d="M48 62l380 558h-359v103h532v-59l-385 -560h382v-104h-550v62z" />
    <glyph glyph-name="bracketleft" unicode="[" horiz-adv-x="316" 
d="M289 723v-72h-107l-1 -740h108v-72h-209l-1 884h210z" />
    <glyph glyph-name="backslash" unicode="\" horiz-adv-x="363" 
d="M7 723h88l252 -751h-89z" />
    <glyph glyph-name="bracketright" unicode="]" horiz-adv-x="325" 
d="M18 723v-72h107l1 -740h-108v-72h209l1 884h-210z" />
    <glyph glyph-name="asciicircum" unicode="^" horiz-adv-x="476" 
d="M234 397l-110 -271h-86l153 365q7 17 18.5 26t25.5 9q13 0 24.5 -8.5t18.5 -25.5l153 -367h-87z" />
    <glyph glyph-name="underscore" unicode="_" horiz-adv-x="535" 
d="M473 -129h-415v90l415 1v-91z" />
    <glyph glyph-name="grave" unicode="`" horiz-adv-x="302" 
d="M287 633l-19 -55l-259 71l29 84z" />
    <glyph glyph-name="a" unicode="a" horiz-adv-x="567" 
d="M89 31q-48 41 -48 113q0 85 62 126.5t197 46.5l78 5v32q0 41 -25.5 64.5t-70.5 23.5q-37 0 -70 -17t-54 -52l-100 10q17 70 78 107t149 37q107 0 158.5 -43.5t51.5 -121.5v-362h-103l-9 69q-28 -37 -71.5 -58t-97.5 -21q-77 0 -125 41zM312 87q29 14 47.5 37t18.5 47v83
l-64 -4q-78 -5 -117 -25t-39 -69q0 -38 26.5 -60.5t68.5 -22.5q30 0 59 14z" />
    <glyph glyph-name="b" unicode="b" horiz-adv-x="601" 
d="M235 16q-44 26 -61 59l-13 -75h-89v743h122v-299q20 33 62.5 58t97.5 25q100 0 153 -73t53 -193q0 -125 -59 -198t-164 -73q-58 0 -102 26zM400.5 124.5q34.5 44.5 34.5 137.5q0 88 -32 131t-90 43q-43 0 -74.5 -27.5t-44.5 -78.5v-109q0 -64 33 -102.5t81 -38.5
q58 0 92.5 44.5z" />
    <glyph glyph-name="c" unicode="c" horiz-adv-x="536" 
d="M421 480q52 -47 71 -123l-99 -10q-26 45 -47.5 65.5t-58.5 20.5q-61 0 -96.5 -47t-35.5 -128q0 -82 36.5 -130.5t97.5 -48.5q40 0 64.5 23.5t44.5 65.5l96 -10q-17 -75 -71.5 -121.5t-137.5 -46.5q-72 0 -127.5 33.5t-86 94t-30.5 138.5q0 79 30.5 140.5t86 96
t127.5 34.5q84 0 136 -47z" />
    <glyph glyph-name="d" unicode="d" horiz-adv-x="595" 
d="M98.5 60q-57.5 70 -57.5 196q0 125 55.5 198t155.5 73q92 0 149 -67v283h122v-743h-90l-8 72q-23 -31 -65 -56.5t-103 -25.5q-101 0 -158.5 70zM367.5 116.5q33.5 36.5 33.5 88.5v140q-31 91 -114 91q-58 0 -92.5 -44t-34.5 -133q0 -91 34 -135t91 -44q49 0 82.5 36.5z
" />
    <glyph glyph-name="e" unicode="e" horiz-adv-x="559" 
d="M196 122q34 -41 95 -41q43 0 71.5 17t42.5 53l109 -8q-15 -70 -77.5 -111.5t-142.5 -41.5q-74 0 -131.5 32t-89.5 91.5t-32 139.5t29 142t84 97t131 35q111 0 172 -70.5t61 -189.5v-37h-356q0 -67 34 -108zM404 306q0 59 -31 96t-89 37q-57 0 -89.5 -40t-32.5 -93h242z
" />
    <glyph glyph-name="f" unicode="f" horiz-adv-x="397" 
d="M365 431h-117v-431h-122v431h-102v86h102v77q0 62 34.5 95.5t99.5 33.5h109l1 -83h-73q-29 0 -40 -14.5t-11 -48.5v-60h119v-86z" />
    <glyph glyph-name="g" unicode="g" horiz-adv-x="618" 
d="M100 -135.5q-70 35.5 -70 95.5q0 40 27 62t47.5 31t24.5 11q-3 2 -19.5 11t-28 25t-11.5 36q0 27 25.5 49t73.5 31q-100 49 -100 146q0 76 65.5 119.5t169.5 43.5q49 0 83.5 -11t66.5 -32l143 58l-1 -100l-90 -16q6 -12 10 -30.5t4 -30.5q0 -45 -25.5 -83.5t-76 -61.5
t-123.5 -23q-20 0 -42 2q-70 -3 -70 -28q0 -12 20 -17t74 -9l110 -6q90 -6 134.5 -44t44.5 -100q0 -76 -69 -120t-197 -44q-130 0 -200 35.5zM377 291q28 24 28 68q0 45 -28.5 71.5t-78.5 26.5t-79 -26.5t-29 -71.5q0 -43 28.5 -67.5t79.5 -24.5t79 24zM418.5 -82
q30.5 17 30.5 53q0 58 -85 64l-131 9q-32 2 -58 -19.5t-26 -50.5q0 -38 43 -55.5t128 -17.5q68 0 98.5 17z" />
    <glyph glyph-name="h" unicode="h" horiz-adv-x="599" 
d="M72 743h119v-296q35 29 55 43t47 23t64 9q75 0 122.5 -44t47.5 -115v-363h-122v344q0 38 -23.5 60t-64.5 22q-35 0 -65 -17t-58 -51v-358h-122v743z" />
    <glyph glyph-name="i" unicode="i" horiz-adv-x="270" 
d="M198 611h-126v132h126v-132zM196 0h-122v517h122v-517z" />
    <glyph glyph-name="j" unicode="j" horiz-adv-x="285" 
d="M207 611h-126v132h126v-132zM167.5 -127.5q-37.5 -38.5 -122.5 -38.5q-24 0 -38.5 3t-20 6t-6.5 4l-1 81l45 4q33 3 46 17.5t13 44.5v523h122v-526q0 -80 -37.5 -118.5z" />
    <glyph glyph-name="k" unicode="k" horiz-adv-x="578" 
d="M427 0l-149 240l-84 -88v-152h-122v743h122v-466l220 240h128l-187 -202l196 -315h-124z" />
    <glyph glyph-name="l" unicode="l" horiz-adv-x="308" 
d="M126 15q-33 20 -43.5 51.5t-10.5 75.5v601h120v-587q0 -34 14 -52.5t44 -21.5l26 -1v-76q-30 -10 -54 -10q-63 0 -96 20z" />
    <glyph glyph-name="m" unicode="m" horiz-adv-x="914" 
d="M72 517h119v-69q28 33 68.5 56t94.5 23q51 0 92.5 -20t61.5 -59q26 37 68 58t93 21q70 0 121.5 -43t51.5 -134v-350h-122v338q0 52 -26.5 75t-70.5 23q-49 0 -77.5 -25t-28.5 -78v-333h-121v357q0 37 -28.5 58t-69.5 21q-39 0 -71.5 -22.5t-32.5 -63.5v-350h-122v517z
" />
    <glyph glyph-name="n" unicode="n" 
d="M72 517h119v-69q26 35 62.5 55t93.5 20q49 0 90 -22t66 -63t25 -96v-342h-122v329q0 45 -27.5 71t-71.5 26q-47 0 -80 -22.5t-33 -63.5v-340h-122v517z" />
    <glyph glyph-name="o" unicode="o" horiz-adv-x="569" 
d="M155 23.5q-55 33.5 -84.5 93.5t-29.5 138q0 80 30 141.5t86 96t129 34.5q74 0 129 -34.5t84 -96t29 -140.5q0 -78 -29 -138.5t-84 -94t-130 -33.5t-130 33.5zM379 132.5q30 50.5 30 127.5t-30.5 126t-92.5 49q-64 0 -94.5 -49t-30.5 -126t31 -127.5t94 -50.5t93 50.5z
" />
    <glyph glyph-name="p" unicode="p" 
d="M72 517h121v-68q61 78 156 78q60 0 107.5 -29.5t75 -88.5t27.5 -145q0 -89 -30 -150.5t-81.5 -92.5t-115.5 -31q-88 0 -138 64v-215h-122v678zM406.5 128q37.5 48 37.5 134q0 83 -38 128.5t-93 45.5q-33 0 -60 -16.5t-43 -42.5t-16 -52v-160q17 -38 48 -61.5t68 -23.5
q59 0 96.5 48z" />
    <glyph glyph-name="q" unicode="q" horiz-adv-x="601" 
d="M407 -161v210q-36 -32 -71.5 -45.5t-75.5 -13.5q-64 0 -113.5 31t-77.5 92.5t-28 150.5q0 86 28 145t75.5 88.5t107.5 29.5q51 0 87 -19t68 -48v57h122v-678h-122zM407 188v119q0 59 -31.5 97t-82.5 38q-55 0 -91.5 -45t-36.5 -133t37 -139t95 -51q73 0 110 114z" />
    <glyph glyph-name="r" unicode="r" horiz-adv-x="406" 
d="M72 517h117v-120q24 57 74 93.5t110 36.5l1 -116l-19 1q-51 0 -87.5 -17.5t-55 -45t-18.5 -57.5v-292h-122v517z" />
    <glyph glyph-name="s" unicode="s" horiz-adv-x="513" 
d="M112 29.5q-61 39.5 -75 115.5l102 7q13 -42 44.5 -59t76.5 -17q48 0 79 18t31 48q0 48 -73 65l-97 20q-145 29 -146 141q0 72 56 115.5t152 43.5q97 0 152 -43.5t56 -112.5l-102 -4q-8 40 -37 58.5t-72 18.5q-42 0 -69 -15.5t-27 -52.5q0 -20 19 -34.5t65 -24.5l93 -22
q74 -18 105 -59.5t31 -87.5q0 -48 -28 -83.5t-77.5 -55t-112.5 -19.5q-85 0 -146 39.5z" />
    <glyph glyph-name="t" unicode="t" horiz-adv-x="409" 
d="M242 431l1 -294q0 -32 11 -44t33 -12h74v-74q-24 -11 -84 -11q-87 0 -121.5 33.5t-34.5 100.5v301h-84v86h88l15 168h102v-167h116v-87h-116z" />
    <glyph glyph-name="u" unicode="u" 
d="M174.5 9.5q-44.5 18.5 -73.5 57.5t-29 96v355h122v-341q0 -48 30.5 -72t72.5 -24q46 0 76.5 26.5t31.5 73.5v337h123l-2 -518h-94l-7 76q-19 -37 -66 -61.5t-94 -24.5q-46 1 -90.5 19.5z" />
    <glyph glyph-name="v" unicode="v" horiz-adv-x="543" 
d="M315 0h-86l-210 517h111l142 -360l141 360h112z" />
    <glyph glyph-name="w" unicode="w" horiz-adv-x="786" 
d="M599 0h-99l-109 344l-106 -344h-97l-167 517h109l111 -356l108 356h88l111 -355l107 355h111z" />
    <glyph glyph-name="x" unicode="x" horiz-adv-x="566" 
d="M419 0l-136 184l-136 -184h-129l199 269l-182 248h129l119 -162l120 162h129l-183 -248l199 -269h-129z" />
    <glyph glyph-name="y" unicode="y" horiz-adv-x="551" 
d="M88 -161.5q-20 3.5 -29 7t-11 4.5v78l52 -1q55 -3 76 13t31 40l13 37l-201 500h121l137 -365l137 365h119l-213 -536q-34 -83 -77.5 -114.5t-105.5 -31.5q-29 0 -49 3.5z" />
    <glyph glyph-name="z" unicode="z" horiz-adv-x="501" 
d="M34 67l281 371h-259v79h409v-66l-281 -371h285v-80h-435v67z" />
    <glyph glyph-name="braceleft" unicode="{" horiz-adv-x="352" 
d="M162.5 693.5q41.5 29.5 100.5 29.5h62v-72h-40q-37 0 -49.5 -13t-12.5 -39v-204q-1 -50 -31 -76.5t-71 -30.5q-6 -1 -6.5 -3.5t6.5 -3.5q42 -4 71.5 -29.5t30.5 -80.5v-207q0 -29 13.5 -41t49.5 -12h39v-72h-60q-62 0 -103 30t-41 83v209q0 38 -29 64t-84 26v66
q113 0 113 95v200q0 52 41.5 81.5z" />
    <glyph glyph-name="bar" unicode="|" horiz-adv-x="261" 
d="M86 -161l-1 987h91v-987h-90z" />
    <glyph glyph-name="braceright" unicode="}" horiz-adv-x="359" 
d="M182.5 693.5q-41.5 29.5 -100.5 29.5h-62v-72h40q37 0 49.5 -13t12.5 -39v-204q1 -50 31 -76.5t71 -30.5q6 -1 6.5 -3.5t-6.5 -3.5q-42 -4 -71.5 -29.5t-30.5 -80.5v-207q0 -29 -13.5 -41t-49.5 -12h-39v-72h60q62 0 103 30t41 83v209q0 38 29 64t84 26v66
q-113 0 -113 95v200q0 52 -41.5 81.5z" />
    <glyph glyph-name="asciitilde" unicode="~" horiz-adv-x="590" 
d="M470 317q-36 -21 -80 -21q-28 0 -49 7.5t-53 23.5q-25 13 -43.5 20t-40.5 7q-34 0 -59.5 -17t-53.5 -48l-35 64q40 40 72.5 60t75.5 20q27 0 49.5 -8t51.5 -23q26 -13 44.5 -20t39.5 -7q62 0 103 64l36 -64q-22 -37 -58 -58z" />
    <glyph glyph-name="uni00A0" unicode="&#xa0;" horiz-adv-x="230" 
 />
    <glyph glyph-name="exclamdown" unicode="&#xa1;" horiz-adv-x="265" 
d="M62 379v138h137v-138h-137zM59 -161l33 472h78l33 -472h-144z" />
    <glyph glyph-name="cent" unicode="&#xa2;" horiz-adv-x="549" 
d="M442 160.5q-43 -44.5 -108 -55.5v-105h-83v104q-93 14 -148.5 85t-55.5 178q0 109 55.5 181.5t148.5 86.5v88h83v-89q65 -11 106.5 -56t57.5 -110l-99 -10q-26 45 -47.5 65.5t-58.5 20.5q-61 0 -96.5 -47t-35.5 -128q0 -82 36.5 -130.5t97.5 -48.5q40 0 64.5 23.5
t44.5 65.5l96 -10q-15 -64 -58 -108.5z" />
    <glyph glyph-name="sterling" unicode="&#xa3;" horiz-adv-x="629" 
d="M16 102h35q40 0 64 29.5t24 89.5q0 43 -11 120h-101v71h87l-12 87q-3 21 -3 41q0 59 30 103t80 67t109 23q76 0 135 -36t85 -96l-107 -35q-16 36 -38 52t-58 16q-43 0 -70.5 -26t-27.5 -71q0 -50 20 -124h153v-71h-144q5 -45 5 -67q0 -20 -3 -43q-4 -48 -19 -77t-39 -52
h152q50 0 77 18t43 63l104 -24q-48 -160 -215 -160h-355v102z" />
    <glyph glyph-name="currency" unicode="&#xa4;" horiz-adv-x="557" 
d="M168 190q-6 2 -7 2q-5 0 -8 -4l-57 -57l-53 56l63 62q-35 53 -35 114t30 107q3 5 3 7t-4 8l-57 57l54 55l64 -65q52 36 114 36q60 0 110 -32q7 -3 11 1l55 56l54 -56l-61 -59q36 -53 36 -114q0 -30 -8 -58.5t-24 -50.5q-4 -5 0 -9l57 -55l-53 -55l-60 60
q-55 -37 -115 -37q-59 0 -109 31zM338.5 259.5q27.5 16.5 43 44.5t15.5 60q0 31 -15.5 59t-43 45t-61.5 17t-61.5 -17t-43.5 -45t-16 -59q0 -32 16 -60t43.5 -44.5t61.5 -16.5t61.5 16.5z" />
    <glyph glyph-name="yen" unicode="&#xa5;" horiz-adv-x="634" 
d="M404 344h136v-70h-151v-83h151v-69h-151v-122h-139v122h-150v69h150v82h-150v70h125l-228 380h158l176 -308l176 308h129z" />
    <glyph glyph-name="brokenbar" unicode="&#xa6;" horiz-adv-x="261" 
d="M86 421l-1 405h91v-405h-90zM86 -161l-1 405h91v-405h-90z" />
    <glyph glyph-name="section" unicode="&#xa7;" horiz-adv-x="498" 
d="M114.5 -42.5q-60.5 32.5 -85.5 83.5l77 39q53 -77 145 -77q45 0 72 16t27 46q0 24 -19 42.5t-67 37.5l-81 31q-75 29 -108.5 65t-33.5 89q0 44 24.5 77.5t67.5 52.5q-49 28 -68 58t-19 67q0 42 24 75.5t68 53t103 19.5q69 0 123 -30.5t80 -75.5l-77 -39q-26 31 -55.5 49
t-65.5 18q-42 0 -66 -16t-24 -43q0 -38 66 -65l80 -31q82 -32 118 -70.5t36 -93.5q0 -46 -22.5 -77t-62.5 -53q46 -26 67.5 -56t21.5 -70q0 -69 -55.5 -112t-151.5 -43q-78 0 -138.5 32.5zM331 264.5q22 19.5 22 49.5q0 29 -17.5 49t-62.5 38l-49 19q-36 -3 -59 -24.5
t-23 -49.5q0 -24 16.5 -40t65.5 -36l54 -22q31 -3 53 16.5z" />
    <glyph glyph-name="dieresis" unicode="&#xa8;" horiz-adv-x="318" 
d="M124 605h-110v118h110v-118zM300 605h-111v118h111v-118z" />
    <glyph glyph-name="copyright" unicode="&#xa9;" horiz-adv-x="822" 
d="M222 40q-85 50 -135 135t-50 187q0 100 50 185.5t135 135.5t186 50t186.5 -50t135.5 -135.5t50 -185.5q0 -102 -50 -187t-135.5 -135t-186.5 -50t-186 50zM557 100q67 37 105.5 105t38.5 157q0 88 -38.5 156.5t-105.5 106t-149 37.5q-84 0 -150.5 -37.5t-104.5 -106
t-38 -156.5q0 -89 38 -157t104.5 -105t150.5 -37q82 0 149 37zM517.5 537q43.5 -35 63.5 -86l-86 -14q-14 31 -33.5 49t-47.5 18q-45 0 -72 -36.5t-27 -102.5q0 -68 28 -104.5t76 -36.5q34 0 58 19t42 53l63 -18q-21 -49 -63.5 -85.5t-107.5 -36.5q-57 0 -101.5 26t-69.5 73
t-25 108t25 108.5t70 74t101 26.5q63 0 106.5 -35z" />
    <glyph glyph-name="ordfeminine" unicode="&#xaa;" horiz-adv-x="414" 
d="M69.5 421.5q-28.5 24.5 -28.5 66.5q0 48 44 77t123 33l46 3v23q0 28 -17 40.5t-44 12.5q-25 0 -42.5 -9.5t-30.5 -34.5l-71 17q20 41 54.5 61.5t92.5 20.5q136 -1 136 -106v-122q0 -49 4 -69l6 -32h-81l-7 38q-28 -24 -51.5 -34t-53.5 -10q-51 0 -79.5 24.5zM235 470
q19 17 19 34v51l-38 -2q-46 -3 -70 -19t-24 -42q0 -19 15.5 -31t41.5 -12q32 0 56 21z" />
    <glyph glyph-name="guillemotleft" unicode="&#xab;" horiz-adv-x="473" 
d="M233 67h-66l-124 184l124 192h67l-90 -192zM417 67h-66l-124 184l124 192h67l-90 -192z" />
    <glyph glyph-name="logicalnot" unicode="&#xac;" horiz-adv-x="570" 
d="M510 409v-238h-100v147h-354v91h454z" />
    <glyph glyph-name="uni00AD" unicode="&#xad;" horiz-adv-x="379" 
d="M333 212h-265v91h265v-91z" />
    <glyph glyph-name="registered" unicode="&#xae;" horiz-adv-x="544" 
d="M152.5 299q-53.5 31 -84.5 84t-31 117t31 117t84.5 84.5t117.5 31.5q63 0 116.5 -31.5t84.5 -85t31 -116.5t-31 -116.5t-84.5 -84.5t-116.5 -31q-64 0 -117.5 31zM396.5 370q48.5 49 48.5 130t-48.5 130.5t-126.5 49.5q-80 0 -128 -49t-48 -131t48 -130.5t128 -48.5
q78 0 126.5 49zM178 614h106q40 0 62 -15.5t22 -44.5q0 -24 -13 -39t-34 -23l45 -108h-55l-37 103h-45v-103h-51v230zM280 524q16 0 26 6.5t10 19.5t-9.5 20t-29.5 7h-48v-53h51z" />
    <glyph glyph-name="macron" unicode="&#xaf;" horiz-adv-x="360" 
d="M341 634h-327v80h327v-80z" />
    <glyph glyph-name="degree" unicode="&#xb0;" horiz-adv-x="465" 
d="M371 589q-21 -37 -58 -57.5t-83 -20.5q-47 0 -84 20.5t-58 57.5t-21 84t21 84t58.5 58t83.5 21t83 -21t58 -58t21 -84t-21 -84zM291.5 737q-23.5 25 -63.5 25q-39 0 -62.5 -24.5t-23.5 -63.5q0 -41 23 -66.5t64 -25.5q39 0 62.5 25t23.5 65t-23.5 65z" />
    <glyph glyph-name="plusminus" unicode="&#xb1;" horiz-adv-x="570" 
d="M510 490v-90h-181v-182h-90v181h-183v91h182v182h91v-182h181zM56 136l454 1v-91h-454v90z" />
    <glyph glyph-name="uni00B2" unicode="&#xb2;" horiz-adv-x="382" 
d="M14 444l144 134q57 52 76 78t19 55q0 34 -23 51.5t-55 17.5q-31 0 -56.5 -15.5t-38.5 -49.5l-70 8q12 57 55 89.5t113 32.5q71 0 113.5 -36t42.5 -98q-1 -37 -20 -67.5t-70 -79.5l-117 -115h211v-65h-324v60z" />
    <glyph glyph-name="uni00B3" unicode="&#xb3;" horiz-adv-x="397" 
d="M88.5 818.5q48.5 26.5 115.5 26.5q71 0 118 -33t47 -84q0 -72 -85 -101q44 -12 71.5 -41.5t27.5 -72.5q0 -40 -25 -71t-67 -47.5t-91 -16.5q-75 0 -120 25t-60 87l71 8q29 -57 106 -57q46 0 73.5 20t27.5 51q0 34 -28 55t-68 21h-62v62l52 2q41 1 68 21t27 49
q0 27 -25 44.5t-60 17.5q-38 0 -64 -13t-38 -44l-70 8q10 57 58.5 83.5z" />
    <glyph glyph-name="acute" unicode="&#xb4;" horiz-adv-x="302" 
d="M288 649l-259 -71l-18 55l249 100z" />
    <glyph glyph-name="paragraph" unicode="&#xb6;" horiz-adv-x="590" 
d="M457 652v-735h-77v735h-55v-735h-77v381q-60 3 -107 30t-73.5 73t-26.5 106q0 59 26.5 108t79 78.5t125.5 29.5h246v-71h-61z" />
    <glyph glyph-name="periodcentered" unicode="&#xb7;" horiz-adv-x="239" 
d="M182 300h-133v129h133v-129z" />
    <glyph glyph-name="cedilla" unicode="&#xb8;" horiz-adv-x="251" 
d="M199 -188.5q-33 -21.5 -82 -21.5q-64 0 -105 27l18 44q35 -24 73 -24q25 0 38 8.5t13 24.5q0 21 -19 31.5t-63 11.5q-6 0 -7.5 1.5t0.5 6.5l36 84h58l-23 -59q50 -2 73 -24.5t23 -51.5q0 -37 -33 -58.5z" />
    <glyph glyph-name="uni00B9" unicode="&#xb9;" horiz-adv-x="299" 
d="M80 748l-84 -26v54l117 59h45v-455h-78v368z" />
    <glyph glyph-name="ordmasculine" unicode="&#xba;" horiz-adv-x="403" 
d="M318 686q44 -47 44 -122q0 -74 -44 -120t-117 -46t-116.5 46t-43.5 120q0 75 44.5 122t115.5 47q73 0 117 -47zM144 648q-19 -28 -19 -82q0 -55 19 -83.5t57 -28.5t57.5 29t19.5 83t-19.5 82t-57.5 28t-57 -28z" />
    <glyph glyph-name="guillemotright" unicode="&#xbb;" horiz-adv-x="473" 
d="M50 443h67l124 -192l-124 -184h-66l90 184zM234 443h67l124 -192l-124 -184h-66l90 184z" />
    <glyph glyph-name="onequarter" unicode="&#xbc;" horiz-adv-x="963" 
d="M80 644l-84 -26v54l117 59h45v-455h-78v368zM214 -4l-75 1l488 734h73zM849 455v-280h69v-67h-69v-108h-76v108h-209v67l208 280h77zM772 175v172l-128 -172h128z" />
    <glyph glyph-name="onehalf" unicode="&#xbd;" horiz-adv-x="932" 
d="M80 644l-84 -26v54l117 59h45v-455h-78v368zM214 -4l-75 1l488 734h73zM564 60l144 134q39 36 58.5 57t28 38.5t8.5 37.5q0 34 -23 51.5t-55 17.5q-31 0 -56.5 -15.5t-38.5 -49.5l-70 8q12 57 55 89.5t113 32.5t113 -36t43 -98q-1 -36 -20 -66.5t-70 -80.5l-117 -115h211
v-65h-324v60z" />
    <glyph glyph-name="threequarters" unicode="&#xbe;" horiz-adv-x="1061" 
d="M88.5 713.5q48.5 26.5 115.5 26.5q71 0 118 -33t47 -84q0 -72 -85 -101q44 -12 71.5 -41.5t27.5 -72.5q0 -40 -25 -71t-67 -47.5t-91 -16.5q-75 0 -120 25t-60 87l71 8q29 -57 106 -57q46 0 73.5 20t27.5 51q0 34 -28 55t-68 21h-62v62l52 2q41 1 68 21t27 49
q0 27 -25 44.5t-60 17.5q-38 0 -64 -13t-38 -44l-70 8q10 57 58.5 83.5zM312 -4l-75 1l488 734h73zM947 455v-280h69v-67h-69v-108h-76v108h-209v67l208 280h77zM870 175v172l-128 -172h128z" />
    <glyph glyph-name="questiondown" unicode="&#xbf;" horiz-adv-x="529" 
d="M207 517h138v-138h-138v138zM411.5 -130q-64.5 -41 -150.5 -41q-73 0 -125 22.5t-79 61.5t-27 89q0 39 14 68t34 49t53 47q31 25 49.5 43.5t31.5 44.5t13 60h101q0 -46 -14.5 -80t-35 -57.5t-52.5 -52.5q-37 -34 -54.5 -58.5t-17.5 -57.5q0 -40 31 -65t79 -25q44 0 84 27
t56 67l106 -27q-32 -74 -96.5 -115z" />
    <glyph glyph-name="Agrave" unicode="&#xc0;" horiz-adv-x="705" 
d="M287 723h132l260 -723h-123l-64 181h-276l-66 -181h-123zM462 290l-108 315l-110 -315h218zM491 839l-19 -55l-259 71l29 84z" />
    <glyph glyph-name="Aacute" unicode="&#xc1;" horiz-adv-x="705" 
d="M287 723h132l260 -723h-123l-64 181h-276l-66 -181h-123zM462 290l-108 315l-110 -315h218zM500 855l-259 -71l-18 55l249 100z" />
    <glyph glyph-name="Acircumflex" unicode="&#xc2;" horiz-adv-x="705" 
d="M287 723h132l260 -723h-123l-64 181h-276l-66 -181h-123zM462 290l-108 315l-110 -315h218zM361 880l-74 -71h-97l129 125h85l126 -125h-102z" />
    <glyph glyph-name="Atilde" unicode="&#xc3;" horiz-adv-x="705" 
d="M287 723h132l260 -723h-123l-64 181h-276l-66 -181h-123zM462 290l-108 315l-110 -315h218zM432 829q-29 0 -73 14q-37 13 -63 13q-19 0 -32 -5t-31 -17q-6 -4 -9 -4q-5 0 -8 10l-11 35l-2 8q0 5 7 12q19 16 37 24.5t44 8.5q18 0 38 -4.5t38 -10.5q16 -5 33 -9.5t32 -4.5
q17 0 31.5 6t30.5 16q5 3 9 3q7 0 10 -9l10 -42q1 -2 1 -6q0 -7 -10 -14q-37 -24 -82 -24z" />
    <glyph glyph-name="Adieresis" unicode="&#xc4;" horiz-adv-x="705" 
d="M287 723h132l260 -723h-123l-64 181h-276l-66 -181h-123zM462 290l-108 315l-110 -315h218zM328 811h-110v118h110v-118zM504 811h-111v118h111v-118z" />
    <glyph glyph-name="Aring" unicode="&#xc5;" horiz-adv-x="705" 
d="M287 723h132l260 -723h-123l-64 181h-276l-66 -181h-123zM462 290l-108 315l-110 -315h218zM436 808.5q-31 -30.5 -75 -30.5q-45 0 -75.5 31t-30.5 77q0 43 31 72.5t75 29.5t75 -30.5t31 -73.5q0 -45 -31 -75.5zM396.5 919.5q-14.5 14.5 -36.5 14.5q-21 0 -36.5 -14.5
t-15.5 -36.5q0 -20 15.5 -36t36.5 -16t36 15.5t15 36.5q0 22 -14.5 36.5z" />
    <glyph glyph-name="AE" unicode="&#xc6;" horiz-adv-x="1042" 
d="M982 0h-494v183h-239l-99 -183h-123l393 723h551l-1 -103h-343v-205h243v-101h-243v-211h355v-103zM488 640l-192 -350h192v350z" />
    <glyph glyph-name="Ccedilla" unicode="&#xc7;" horiz-adv-x="698" 
d="M504.5 702.5q62.5 -30.5 100.5 -83.5t46 -119l-128 -3q-12 62 -53.5 98t-109.5 36q-179 0 -179 -267q0 -136 46.5 -204t136.5 -68q60 0 102.5 38t54.5 100l128 -5q-13 -104 -84 -169.5t-198 -65.5q-98 0 -170.5 46t-111 131t-38.5 198t38 196t109 127.5t169 44.5
q79 0 141.5 -30.5zM439 -188.5q-33 -21.5 -82 -21.5q-64 0 -105 27l18 44q35 -24 73 -24q25 0 38 8.5t13 24.5q0 21 -19 31.5t-63 11.5q-6 0 -7.5 1.5t0.5 6.5l36 84h58l-23 -59q50 -2 73 -24.5t23 -51.5q0 -37 -33 -58.5z" />
    <glyph glyph-name="Egrave" unicode="&#xc8;" horiz-adv-x="630" 
d="M85 723h478v-104h-355v-203h313v-103h-314v-207l363 -1v-105h-485v723zM461 839l-19 -55l-259 71l29 84z" />
    <glyph glyph-name="Eacute" unicode="&#xc9;" horiz-adv-x="630" 
d="M85 723h478v-104h-355v-203h313v-103h-314v-207l363 -1v-105h-485v723zM470 855l-259 -71l-18 55l249 100z" />
    <glyph glyph-name="Ecircumflex" unicode="&#xca;" horiz-adv-x="630" 
d="M85 723h478v-104h-355v-203h313v-103h-314v-207l363 -1v-105h-485v723zM331 880l-74 -71h-97l129 125h85l126 -125h-102z" />
    <glyph glyph-name="Edieresis" unicode="&#xcb;" horiz-adv-x="630" 
d="M85 723h478v-104h-355v-203h313v-103h-314v-207l363 -1v-105h-485v723zM298 811h-110v118h110v-118zM474 811h-111v118h111v-118z" />
    <glyph glyph-name="Igrave" unicode="&#xcc;" horiz-adv-x="292" 
d="M207 723v-723h-122v723h122zM278 839l-19 -55l-259 71l29 84z" />
    <glyph glyph-name="Iacute" unicode="&#xcd;" horiz-adv-x="292" 
d="M207 723v-723h-122v723h122zM287 855l-259 -71l-18 55l249 100z" />
    <glyph glyph-name="Icircumflex" unicode="&#xce;" horiz-adv-x="292" 
d="M207 723v-723h-122v723h122zM148 880l-74 -71h-97l129 125h85l126 -125h-102z" />
    <glyph glyph-name="Idieresis" unicode="&#xcf;" horiz-adv-x="292" 
d="M207 723v-723h-122v723h122zM115 811h-110v118h110v-118zM291 811h-111v118h111v-118z" />
    <glyph glyph-name="Eth" unicode="&#xd0;" horiz-adv-x="719" 
d="M581 627q91 -91 91 -262q0 -177 -95.5 -271t-287.5 -94h-187v313h-52q-10 0 -14 4t-4 14v58q0 16 13 16h57v318q133 0 195 -1q193 -4 284 -95zM477 163.5q67 62.5 67 201.5q0 136 -64 197t-186 61h-68v-218h145q12 0 12 -14v-58q0 -11 -5 -15.5t-17 -4.5h-135v-212h65
q119 0 186 62.5z" />
    <glyph glyph-name="Ntilde" unicode="&#xd1;" horiz-adv-x="765" 
d="M680 723v-723h-110l-363 530v-530h-122v723h119l354 -516v516h122zM460 829q-29 0 -73 14q-37 13 -63 13q-19 0 -32 -5t-31 -17q-6 -4 -9 -4q-5 0 -8 10l-11 35l-2 8q0 5 7 12q19 16 37 24.5t44 8.5q18 0 38 -4.5t38 -10.5q16 -5 33 -9.5t32 -4.5q17 0 31.5 6t30.5 16
q5 3 9 3q7 0 10 -9l10 -42q1 -2 1 -6q0 -7 -10 -14q-37 -24 -82 -24z" />
    <glyph glyph-name="Ograve" unicode="&#xd2;" horiz-adv-x="742" 
d="M198.5 34q-73.5 44 -112.5 127t-39 198q0 116 40 200.5t113 129t172 44.5q98 0 170.5 -44.5t112 -128.5t39.5 -200q0 -115 -39 -198.5t-111.5 -127.5t-171.5 -44q-100 0 -173.5 44zM513 157q49 65 49 201q0 139 -49.5 206t-140.5 67t-141 -67t-50 -206q0 -136 50 -201
t141 -65q92 0 141 65zM502 839l-19 -55l-259 71l29 84z" />
    <glyph glyph-name="Oacute" unicode="&#xd3;" horiz-adv-x="742" 
d="M198.5 34q-73.5 44 -112.5 127t-39 198q0 116 40 200.5t113 129t172 44.5q98 0 170.5 -44.5t112 -128.5t39.5 -200q0 -115 -39 -198.5t-111.5 -127.5t-171.5 -44q-100 0 -173.5 44zM513 157q49 65 49 201q0 139 -49.5 206t-140.5 67t-141 -67t-50 -206q0 -136 50 -201
t141 -65q92 0 141 65zM511 855l-259 -71l-18 55l249 100z" />
    <glyph glyph-name="Ocircumflex" unicode="&#xd4;" horiz-adv-x="742" 
d="M198.5 34q-73.5 44 -112.5 127t-39 198q0 116 40 200.5t113 129t172 44.5q98 0 170.5 -44.5t112 -128.5t39.5 -200q0 -115 -39 -198.5t-111.5 -127.5t-171.5 -44q-100 0 -173.5 44zM513 157q49 65 49 201q0 139 -49.5 206t-140.5 67t-141 -67t-50 -206q0 -136 50 -201
t141 -65q92 0 141 65zM372 880l-74 -71h-97l129 125h85l126 -125h-102z" />
    <glyph glyph-name="Otilde" unicode="&#xd5;" horiz-adv-x="742" 
d="M198.5 34q-73.5 44 -112.5 127t-39 198q0 116 40 200.5t113 129t172 44.5q98 0 170.5 -44.5t112 -128.5t39.5 -200q0 -115 -39 -198.5t-111.5 -127.5t-171.5 -44q-100 0 -173.5 44zM513 157q49 65 49 201q0 139 -49.5 206t-140.5 67t-141 -67t-50 -206q0 -136 50 -201
t141 -65q92 0 141 65zM443 829q-29 0 -73 14q-37 13 -63 13q-19 0 -32 -5t-31 -17q-6 -4 -9 -4q-5 0 -8 10l-11 35l-2 8q0 5 7 12q19 16 37 24.5t44 8.5q18 0 38 -4.5t38 -10.5q16 -5 33 -9.5t32 -4.5q17 0 31.5 6t30.5 16q5 3 9 3q7 0 10 -9l10 -42q1 -2 1 -6q0 -7 -10 -14
q-37 -24 -82 -24z" />
    <glyph glyph-name="Odieresis" unicode="&#xd6;" horiz-adv-x="742" 
d="M198.5 34q-73.5 44 -112.5 127t-39 198q0 116 40 200.5t113 129t172 44.5q98 0 170.5 -44.5t112 -128.5t39.5 -200q0 -115 -39 -198.5t-111.5 -127.5t-171.5 -44q-100 0 -173.5 44zM513 157q49 65 49 201q0 139 -49.5 206t-140.5 67t-141 -67t-50 -206q0 -136 50 -201
t141 -65q92 0 141 65zM339 811h-110v118h110v-118zM515 811h-111v118h111v-118z" />
    <glyph glyph-name="multiply" unicode="&#xd7;" horiz-adv-x="559" 
d="M342 364l155 -155l-65 -65l-155 155l-155 -155l-63 65l154 154l-155 156l63 64l156 -155l156 156l65 -64z" />
    <glyph glyph-name="Oslash" unicode="&#xd8;" horiz-adv-x="743" 
d="M723 678q0 -4 -5 -9l-78 -84q53 -92 53 -225q0 -115 -39.5 -198.5t-112.5 -127.5t-172 -44q-135 0 -217 79l-64 -67q-7 -9 -15 -9q-6 0 -16 8l-28 29q-9 9 -9 15q0 5 5 10l74 79q-53 88 -53 225q0 116 39.5 200.5t112.5 129t172 44.5q134 0 219 -83l68 73q7 7 14 7
q4 0 8 -4l39 -38q5 -5 5 -10zM209 244l295 321q-44 69 -134 69q-91 0 -134.5 -67t-43.5 -209q0 -70 17 -114zM529 475l-294 -321q45 -64 135 -64q91 0 133.5 64t42.5 204q0 68 -17 117z" />
    <glyph glyph-name="Ugrave" unicode="&#xd9;" horiz-adv-x="726" 
d="M574.5 60.5q-66.5 -70.5 -211.5 -70.5q-146 0 -212 71.5t-66 209.5v452h125v-464q0 -83 40 -124t113 -41t114 41t41 124v464h123v-459q0 -133 -66.5 -203.5zM485 839l-19 -55l-259 71l29 84z" />
    <glyph glyph-name="Uacute" unicode="&#xda;" horiz-adv-x="726" 
d="M574.5 60.5q-66.5 -70.5 -211.5 -70.5q-146 0 -212 71.5t-66 209.5v452h125v-464q0 -83 40 -124t113 -41t114 41t41 124v464h123v-459q0 -133 -66.5 -203.5zM494 855l-259 -71l-18 55l249 100z" />
    <glyph glyph-name="Ucircumflex" unicode="&#xdb;" horiz-adv-x="726" 
d="M574.5 60.5q-66.5 -70.5 -211.5 -70.5q-146 0 -212 71.5t-66 209.5v452h125v-464q0 -83 40 -124t113 -41t114 41t41 124v464h123v-459q0 -133 -66.5 -203.5zM355 880l-74 -71h-97l129 125h85l126 -125h-102z" />
    <glyph glyph-name="Udieresis" unicode="&#xdc;" horiz-adv-x="726" 
d="M574.5 60.5q-66.5 -70.5 -211.5 -70.5q-146 0 -212 71.5t-66 209.5v452h125v-464q0 -83 40 -124t113 -41t114 41t41 124v464h123v-459q0 -133 -66.5 -203.5zM322 811h-110v118h110v-118zM498 811h-111v118h111v-118z" />
    <glyph glyph-name="Yacute" unicode="&#xdd;" horiz-adv-x="630" 
d="M376 306v-306h-122v306l-249 417h132l179 -311l175 311h133zM465 855l-259 -71l-18 55l249 100z" />
    <glyph glyph-name="Thorn" unicode="&#xde;" horiz-adv-x="687" 
d="M585.5 211.5q-71.5 -55.5 -190.5 -55.5h-171v-156h-139v723h139v-143h155q123 0 200.5 -53.5t77.5 -155.5q0 -104 -71.5 -159.5zM476.5 453q-38.5 26 -105.5 26h-147v-222h153q64 0 101 29.5t37 86.5q0 54 -38.5 80z" />
    <glyph glyph-name="germandbls" unicode="&#xdf;" horiz-adv-x="624" 
d="M467.5 683.5q48.5 -39.5 48.5 -104.5q0 -51 -30 -81.5t-96 -59.5q-25 -14 -32.5 -20.5t-7.5 -18.5t8.5 -18.5t31.5 -13.5q66 -27 102.5 -47t64.5 -58t28 -97q0 -83 -56.5 -129t-149.5 -46q-38 0 -73.5 9.5t-60.5 24.5l38 77q23 -15 43.5 -22.5t47.5 -7.5q45 0 72.5 21.5
t27.5 60.5q0 27 -13.5 44.5t-35 28t-60.5 24.5q-50 20 -78.5 47t-28.5 75q0 35 18 60.5t56 50.5q6 4 28 19.5t33 33t11 38.5q0 31 -23 49t-64 18q-52 0 -82 -31.5t-30 -87.5v-522h-120v413h-63v86h62q2 99 62.5 161.5t178.5 62.5q94 0 142.5 -39.5z" />
    <glyph glyph-name="agrave" unicode="&#xe0;" horiz-adv-x="567" 
d="M89 31q-48 41 -48 113q0 85 62 126.5t197 46.5l78 5v32q0 41 -25.5 64.5t-70.5 23.5q-37 0 -70 -17t-54 -52l-100 10q17 70 78 107t149 37q107 0 158.5 -43.5t51.5 -121.5v-362h-103l-9 69q-28 -37 -71.5 -58t-97.5 -21q-77 0 -125 41zM312 87q29 14 47.5 37t18.5 47v83
l-64 -4q-78 -5 -117 -25t-39 -69q0 -38 26.5 -60.5t68.5 -22.5q30 0 59 14zM413 633l-19 -55l-259 71l29 84z" />
    <glyph glyph-name="aacute" unicode="&#xe1;" horiz-adv-x="567" 
d="M89 31q-48 41 -48 113q0 85 62 126.5t197 46.5l78 5v32q0 41 -25.5 64.5t-70.5 23.5q-37 0 -70 -17t-54 -52l-100 10q17 70 78 107t149 37q107 0 158.5 -43.5t51.5 -121.5v-362h-103l-9 69q-28 -37 -71.5 -58t-97.5 -21q-77 0 -125 41zM312 87q29 14 47.5 37t18.5 47v83
l-64 -4q-78 -5 -117 -25t-39 -69q0 -38 26.5 -60.5t68.5 -22.5q30 0 59 14zM422 649l-259 -71l-18 55l249 100z" />
    <glyph glyph-name="acircumflex" unicode="&#xe2;" horiz-adv-x="567" 
d="M89 31q-48 41 -48 113q0 85 62 126.5t197 46.5l78 5v32q0 41 -25.5 64.5t-70.5 23.5q-37 0 -70 -17t-54 -52l-100 10q17 70 78 107t149 37q107 0 158.5 -43.5t51.5 -121.5v-362h-103l-9 69q-28 -37 -71.5 -58t-97.5 -21q-77 0 -125 41zM312 87q29 14 47.5 37t18.5 47v83
l-64 -4q-78 -5 -117 -25t-39 -69q0 -38 26.5 -60.5t68.5 -22.5q30 0 59 14zM283 674l-74 -71h-97l129 125h85l126 -125h-102z" />
    <glyph glyph-name="atilde" unicode="&#xe3;" horiz-adv-x="567" 
d="M89 31q-48 41 -48 113q0 85 62 126.5t197 46.5l78 5v32q0 41 -25.5 64.5t-70.5 23.5q-37 0 -70 -17t-54 -52l-100 10q17 70 78 107t149 37q107 0 158.5 -43.5t51.5 -121.5v-362h-103l-9 69q-28 -37 -71.5 -58t-97.5 -21q-77 0 -125 41zM312 87q29 14 47.5 37t18.5 47v83
l-64 -4q-78 -5 -117 -25t-39 -69q0 -38 26.5 -60.5t68.5 -22.5q30 0 59 14zM354 623q-29 0 -73 14q-37 13 -63 13q-19 0 -32 -5t-31 -17q-6 -4 -9 -4q-5 0 -8 10l-11 35l-2 8q0 5 7 12q19 16 37 24.5t44 8.5q18 0 38 -4.5t38 -10.5q16 -5 33 -9.5t32 -4.5q17 0 31.5 6
t30.5 16q5 3 9 3q7 0 10 -9l10 -42q1 -2 1 -6q0 -7 -10 -14q-37 -24 -82 -24z" />
    <glyph glyph-name="adieresis" unicode="&#xe4;" horiz-adv-x="567" 
d="M89 31q-48 41 -48 113q0 85 62 126.5t197 46.5l78 5v32q0 41 -25.5 64.5t-70.5 23.5q-37 0 -70 -17t-54 -52l-100 10q17 70 78 107t149 37q107 0 158.5 -43.5t51.5 -121.5v-362h-103l-9 69q-28 -37 -71.5 -58t-97.5 -21q-77 0 -125 41zM312 87q29 14 47.5 37t18.5 47v83
l-64 -4q-78 -5 -117 -25t-39 -69q0 -38 26.5 -60.5t68.5 -22.5q30 0 59 14zM250 605h-110v118h110v-118zM426 605h-111v118h111v-118z" />
    <glyph glyph-name="aring" unicode="&#xe5;" horiz-adv-x="567" 
d="M89 31q-48 41 -48 113q0 85 62 126.5t197 46.5l78 5v32q0 41 -25.5 64.5t-70.5 23.5q-37 0 -70 -17t-54 -52l-100 10q17 70 78 107t149 37q107 0 158.5 -43.5t51.5 -121.5v-362h-103l-9 69q-28 -37 -71.5 -58t-97.5 -21q-77 0 -125 41zM312 87q29 14 47.5 37t18.5 47v83
l-64 -4q-78 -5 -117 -25t-39 -69q0 -38 26.5 -60.5t68.5 -22.5q30 0 59 14zM358 602.5q-31 -30.5 -75 -30.5q-45 0 -75.5 31t-30.5 77q0 43 31 72.5t75 29.5t75 -30.5t31 -73.5q0 -45 -31 -75.5zM318.5 713.5q-14.5 14.5 -36.5 14.5q-21 0 -36.5 -14.5t-15.5 -36.5
q0 -20 15.5 -36t36.5 -16t36 15.5t15 36.5q0 22 -14.5 36.5z" />
    <glyph glyph-name="ae" unicode="&#xe6;" horiz-adv-x="918" 
d="M521.5 155.5q19.5 -36.5 52.5 -58t73 -21.5q47 0 79 20t65 59l77 -36q-41 -67 -98.5 -98t-137.5 -31q-120 0 -201 96q-4 4 -8 0q-43 -45 -92.5 -70.5t-123.5 -25.5q-78 0 -122 39.5t-44 106.5q0 77 65.5 122.5t193.5 53.5l81 6v36q0 44 -25.5 68.5t-75.5 24.5
q-77 0 -122 -77l-103 27q32 65 86.5 97.5t144.5 32.5q134 -1 177 -76q30 37 73 56.5t95 19.5q73 0 128.5 -34.5t86.5 -100.5t31 -157l-375 -1q0 -42 19.5 -78.5zM542 410q-37 -38 -37 -104l252 -1q0 35 -15 68t-42.5 54t-64.5 21q-56 0 -93 -38zM314 245q-69 -5 -110.5 -31
t-41.5 -70q0 -34 23 -54.5t64 -20.5q53 0 92.5 27.5t39.5 67.5v86z" />
    <glyph glyph-name="ccedilla" unicode="&#xe7;" horiz-adv-x="536" 
d="M421 480q52 -47 71 -123l-99 -10q-26 45 -47.5 65.5t-58.5 20.5q-61 0 -96.5 -47t-35.5 -128q0 -82 36.5 -130.5t97.5 -48.5q40 0 64.5 23.5t44.5 65.5l96 -10q-17 -75 -71.5 -121.5t-137.5 -46.5q-72 0 -127.5 33.5t-86 94t-30.5 138.5q0 79 30.5 140.5t86 96
t127.5 34.5q84 0 136 -47zM356 -188.5q-33 -21.5 -82 -21.5q-64 0 -105 27l18 44q35 -24 73 -24q25 0 38 8.5t13 24.5q0 21 -19 31.5t-63 11.5q-6 0 -7.5 1.5t0.5 6.5l36 84h58l-23 -59q50 -2 73 -24.5t23 -51.5q0 -37 -33 -58.5z" />
    <glyph glyph-name="egrave" unicode="&#xe8;" horiz-adv-x="559" 
d="M196 122q34 -41 95 -41q43 0 71.5 17t42.5 53l109 -8q-15 -70 -77.5 -111.5t-142.5 -41.5q-74 0 -131.5 32t-89.5 91.5t-32 139.5t29 142t84 97t131 35q111 0 172 -70.5t61 -189.5v-37h-356q0 -67 34 -108zM404 306q0 59 -31 96t-89 37q-57 0 -89.5 -40t-32.5 -93h242z
M415 633l-19 -55l-259 71l29 84z" />
    <glyph glyph-name="eacute" unicode="&#xe9;" horiz-adv-x="559" 
d="M196 122q34 -41 95 -41q43 0 71.5 17t42.5 53l109 -8q-15 -70 -77.5 -111.5t-142.5 -41.5q-74 0 -131.5 32t-89.5 91.5t-32 139.5t29 142t84 97t131 35q111 0 172 -70.5t61 -189.5v-37h-356q0 -67 34 -108zM404 306q0 59 -31 96t-89 37q-57 0 -89.5 -40t-32.5 -93h242z
M424 649l-259 -71l-18 55l249 100z" />
    <glyph glyph-name="ecircumflex" unicode="&#xea;" horiz-adv-x="559" 
d="M196 122q34 -41 95 -41q43 0 71.5 17t42.5 53l109 -8q-15 -70 -77.5 -111.5t-142.5 -41.5q-74 0 -131.5 32t-89.5 91.5t-32 139.5t29 142t84 97t131 35q111 0 172 -70.5t61 -189.5v-37h-356q0 -67 34 -108zM404 306q0 59 -31 96t-89 37q-57 0 -89.5 -40t-32.5 -93h242z
M285 674l-74 -71h-97l129 125h85l126 -125h-102z" />
    <glyph glyph-name="edieresis" unicode="&#xeb;" horiz-adv-x="559" 
d="M196 122q34 -41 95 -41q43 0 71.5 17t42.5 53l109 -8q-15 -70 -77.5 -111.5t-142.5 -41.5q-74 0 -131.5 32t-89.5 91.5t-32 139.5t29 142t84 97t131 35q111 0 172 -70.5t61 -189.5v-37h-356q0 -67 34 -108zM404 306q0 59 -31 96t-89 37q-57 0 -89.5 -40t-32.5 -93h242z
M252 605h-110v118h110v-118zM428 605h-111v118h111v-118z" />
    <glyph glyph-name="igrave" unicode="&#xec;" horiz-adv-x="266" 
d="M194 0h-122v517h122v-517zM265 633l-19 -55l-259 71l29 84z" />
    <glyph glyph-name="iacute" unicode="&#xed;" horiz-adv-x="266" 
d="M194 0h-122v517h122v-517zM274 649l-259 -71l-18 55l249 100z" />
    <glyph glyph-name="icircumflex" unicode="&#xee;" horiz-adv-x="266" 
d="M194 0h-122v517h122v-517zM135 674l-74 -71h-97l129 125h85l126 -125h-102z" />
    <glyph glyph-name="idieresis" unicode="&#xef;" horiz-adv-x="266" 
d="M194 0h-122v517h122v-517zM102 605h-110v118h110v-118zM278 605h-111v118h111v-118z" />
    <glyph glyph-name="eth" unicode="&#xf0;" horiz-adv-x="593" 
d="M520.5 120q-31.5 -62 -89.5 -96t-136 -34q-74 0 -132 33t-90 91.5t-32 131.5q0 75 32.5 134.5t90 93t128.5 33.5q51 0 80 -29q-37 71 -111 124l-138 -78l-26 43l116 64q-41 23 -106 48l70 55q68 -20 127 -52l96 54l24 -44l-72 -40q100 -68 150 -168t50 -221
q0 -81 -31.5 -143zM392.5 121.5q35.5 47.5 35.5 127.5t-35.5 128t-95.5 48t-96 -48t-36 -128t36 -127.5t96 -47.5t95.5 47.5z" />
    <glyph glyph-name="ntilde" unicode="&#xf1;" 
d="M72 517h119v-69q26 35 62.5 55t93.5 20q49 0 90 -22t66 -63t25 -96v-342h-122v329q0 45 -27.5 71t-71.5 26q-47 0 -80 -22.5t-33 -63.5v-340h-122v517zM376 623q-29 0 -73 14q-37 13 -63 13q-19 0 -32 -5t-31 -17q-6 -4 -9 -4q-5 0 -8 10l-11 35l-2 8q0 5 7 12
q19 16 37 24.5t44 8.5q18 0 38 -4.5t38 -10.5q16 -5 33 -9.5t32 -4.5q17 0 31.5 6t30.5 16q5 3 9 3q7 0 10 -9l10 -42q1 -2 1 -6q0 -7 -10 -14q-37 -24 -82 -24z" />
    <glyph glyph-name="ograve" unicode="&#xf2;" horiz-adv-x="569" 
d="M155 23.5q-55 33.5 -84.5 93.5t-29.5 138q0 80 30 141.5t86 96t129 34.5q74 0 129 -34.5t84 -96t29 -140.5q0 -78 -29 -138.5t-84 -94t-130 -33.5t-130 33.5zM379 132.5q30 50.5 30 127.5t-30.5 126t-92.5 49q-64 0 -94.5 -49t-30.5 -126t31 -127.5t94 -50.5t93 50.5z
M416 633l-19 -55l-259 71l29 84z" />
    <glyph glyph-name="oacute" unicode="&#xf3;" horiz-adv-x="569" 
d="M155 23.5q-55 33.5 -84.5 93.5t-29.5 138q0 80 30 141.5t86 96t129 34.5q74 0 129 -34.5t84 -96t29 -140.5q0 -78 -29 -138.5t-84 -94t-130 -33.5t-130 33.5zM379 132.5q30 50.5 30 127.5t-30.5 126t-92.5 49q-64 0 -94.5 -49t-30.5 -126t31 -127.5t94 -50.5t93 50.5z
M425 649l-259 -71l-18 55l249 100z" />
    <glyph glyph-name="ocircumflex" unicode="&#xf4;" horiz-adv-x="569" 
d="M155 23.5q-55 33.5 -84.5 93.5t-29.5 138q0 80 30 141.5t86 96t129 34.5q74 0 129 -34.5t84 -96t29 -140.5q0 -78 -29 -138.5t-84 -94t-130 -33.5t-130 33.5zM379 132.5q30 50.5 30 127.5t-30.5 126t-92.5 49q-64 0 -94.5 -49t-30.5 -126t31 -127.5t94 -50.5t93 50.5z
M286 674l-74 -71h-97l129 125h85l126 -125h-102z" />
    <glyph glyph-name="otilde" unicode="&#xf5;" horiz-adv-x="569" 
d="M155 23.5q-55 33.5 -84.5 93.5t-29.5 138q0 80 30 141.5t86 96t129 34.5q74 0 129 -34.5t84 -96t29 -140.5q0 -78 -29 -138.5t-84 -94t-130 -33.5t-130 33.5zM379 132.5q30 50.5 30 127.5t-30.5 126t-92.5 49q-64 0 -94.5 -49t-30.5 -126t31 -127.5t94 -50.5t93 50.5z
M357 623q-29 0 -73 14q-37 13 -63 13q-19 0 -32 -5t-31 -17q-6 -4 -9 -4q-5 0 -8 10l-11 35l-2 8q0 5 7 12q19 16 37 24.5t44 8.5q18 0 38 -4.5t38 -10.5q16 -5 33 -9.5t32 -4.5q17 0 31.5 6t30.5 16q5 3 9 3q7 0 10 -9l10 -42q1 -2 1 -6q0 -7 -10 -14q-37 -24 -82 -24z" />
    <glyph glyph-name="odieresis" unicode="&#xf6;" horiz-adv-x="569" 
d="M155 23.5q-55 33.5 -84.5 93.5t-29.5 138q0 80 30 141.5t86 96t129 34.5q74 0 129 -34.5t84 -96t29 -140.5q0 -78 -29 -138.5t-84 -94t-130 -33.5t-130 33.5zM379 132.5q30 50.5 30 127.5t-30.5 126t-92.5 49q-64 0 -94.5 -49t-30.5 -126t31 -127.5t94 -50.5t93 50.5z
M253 605h-110v118h110v-118zM429 605h-111v118h111v-118z" />
    <glyph glyph-name="divide" unicode="&#xf7;" horiz-adv-x="571" 
d="M352 486h-136v131h136v-131zM510 318h-454v91h454v-91zM352 111h-136v131h136v-131z" />
    <glyph glyph-name="oslash" unicode="&#xf8;" horiz-adv-x="588" 
d="M497 411q37 -66 37 -155q0 -78 -29 -138.5t-84 -94t-130 -33.5q-103 0 -169 63l-62 -60l-43 46l67 64q-37 65 -37 152q0 80 30 141.5t86 96t129 34.5q102 0 167 -65l63 60l43 -46zM175 190l208 199q-33 46 -91 46q-64 0 -94.5 -49t-30.5 -126q0 -41 8 -70zM408 326
l-207 -198q33 -46 91 -46q63 0 93 50.5t30 127.5q0 38 -7 66z" />
    <glyph glyph-name="ugrave" unicode="&#xf9;" 
d="M174.5 9.5q-44.5 18.5 -73.5 57.5t-29 96v355h122v-341q0 -48 30.5 -72t72.5 -24q46 0 76.5 26.5t31.5 73.5v337h123l-2 -518h-94l-7 76q-19 -37 -66 -61.5t-94 -24.5q-46 1 -90.5 19.5zM424 633l-19 -55l-259 71l29 84z" />
    <glyph glyph-name="uacute" unicode="&#xfa;" 
d="M174.5 9.5q-44.5 18.5 -73.5 57.5t-29 96v355h122v-341q0 -48 30.5 -72t72.5 -24q46 0 76.5 26.5t31.5 73.5v337h123l-2 -518h-94l-7 76q-19 -37 -66 -61.5t-94 -24.5q-46 1 -90.5 19.5zM433 649l-259 -71l-18 55l249 100z" />
    <glyph glyph-name="ucircumflex" unicode="&#xfb;" 
d="M174.5 9.5q-44.5 18.5 -73.5 57.5t-29 96v355h122v-341q0 -48 30.5 -72t72.5 -24q46 0 76.5 26.5t31.5 73.5v337h123l-2 -518h-94l-7 76q-19 -37 -66 -61.5t-94 -24.5q-46 1 -90.5 19.5zM294 674l-74 -71h-97l129 125h85l126 -125h-102z" />
    <glyph glyph-name="udieresis" unicode="&#xfc;" 
d="M174.5 9.5q-44.5 18.5 -73.5 57.5t-29 96v355h122v-341q0 -48 30.5 -72t72.5 -24q46 0 76.5 26.5t31.5 73.5v337h123l-2 -518h-94l-7 76q-19 -37 -66 -61.5t-94 -24.5q-46 1 -90.5 19.5zM261 605h-110v118h110v-118zM437 605h-111v118h111v-118z" />
    <glyph glyph-name="yacute" unicode="&#xfd;" horiz-adv-x="551" 
d="M88 -161.5q-20 3.5 -29 7t-11 4.5v78l52 -1q55 -3 76 13t31 40l13 37l-201 500h121l137 -365l137 365h119l-213 -536q-34 -83 -77.5 -114.5t-105.5 -31.5q-29 0 -49 3.5zM428 649l-259 -71l-18 55l249 100z" />
    <glyph glyph-name="thorn" unicode="&#xfe;" 
d="M193 449q33 36 68 57t92 21q59 0 105.5 -29.5t73.5 -88.5t27 -145q0 -133 -59 -203.5t-156 -70.5q-78 0 -133 50q-8 7 -13 7q-4 0 -4 -13v-195h-122v884h121v-274zM303 70q62 0 97 48t35 147q0 95 -35 138.5t-94 43.5q-31 0 -57 -14t-40.5 -35.5t-14.5 -43.5v-229
q50 -55 109 -55z" />
    <glyph glyph-name="ydieresis" unicode="&#xff;" horiz-adv-x="551" 
d="M88 -161.5q-20 3.5 -29 7t-11 4.5v78l52 -1q55 -3 76 13t31 40l13 37l-201 500h121l137 -365l137 365h119l-213 -536q-34 -83 -77.5 -114.5t-105.5 -31.5q-29 0 -49 3.5zM256 605h-110v118h110v-118zM432 605h-111v118h111v-118z" />
    <glyph glyph-name="Amacron" unicode="&#x100;" horiz-adv-x="705" 
d="M287 723h132l260 -723h-123l-64 181h-276l-66 -181h-123zM462 290l-108 315l-110 -315h218zM524 840h-327v80h327v-80z" />
    <glyph glyph-name="amacron" unicode="&#x101;" horiz-adv-x="567" 
d="M89 31q-48 41 -48 113q0 85 62 126.5t197 46.5l78 5v32q0 41 -25.5 64.5t-70.5 23.5q-37 0 -70 -17t-54 -52l-100 10q17 70 78 107t149 37q107 0 158.5 -43.5t51.5 -121.5v-362h-103l-9 69q-28 -37 -71.5 -58t-97.5 -21q-77 0 -125 41zM312 87q29 14 47.5 37t18.5 47v83
l-64 -4q-78 -5 -117 -25t-39 -69q0 -38 26.5 -60.5t68.5 -22.5q30 0 59 14zM446 634h-327v80h327v-80z" />
    <glyph glyph-name="Abreve" unicode="&#x102;" horiz-adv-x="705" 
d="M287 723h132l260 -723h-123l-64 181h-276l-66 -181h-123zM462 290l-108 315l-110 -315h218zM467 843q-44 -33 -105 -33q-62 0 -106 32.5t-58 86.5h78q13 -23 34 -38.5t52 -15.5q27 0 50 16t35 38h80q-16 -53 -60 -86z" />
    <glyph glyph-name="abreve" unicode="&#x103;" horiz-adv-x="567" 
d="M89 31q-48 41 -48 113q0 85 62 126.5t197 46.5l78 5v32q0 41 -25.5 64.5t-70.5 23.5q-37 0 -70 -17t-54 -52l-100 10q17 70 78 107t149 37q107 0 158.5 -43.5t51.5 -121.5v-362h-103l-9 69q-28 -37 -71.5 -58t-97.5 -21q-77 0 -125 41zM312 87q29 14 47.5 37t18.5 47v83
l-64 -4q-78 -5 -117 -25t-39 -69q0 -38 26.5 -60.5t68.5 -22.5q30 0 59 14zM389 637q-44 -33 -105 -33q-62 0 -106 32.5t-58 86.5h78q13 -23 34 -38.5t52 -15.5q27 0 50 16t35 38h80q-16 -53 -60 -86z" />
    <glyph glyph-name="Aogonek" unicode="&#x104;" horiz-adv-x="705" 
d="M287 723h132l260 -723h-123l-64 181h-276l-66 -181h-123zM462 290l-108 315l-110 -315h218zM525.5 -34q21.5 23 77.5 41l86 -4q-52 -20 -73 -37.5t-21 -39.5q0 -17 9.5 -25.5t31.5 -8.5q33 0 59 14q3 2 8 2t5 -9v-36q0 -9 -8 -13q-13 -7 -38.5 -12.5t-53.5 -5.5
q-50 0 -77 21t-27 60q0 30 21.5 53z" />
    <glyph glyph-name="aogonek" unicode="&#x105;" horiz-adv-x="567" 
d="M89 31q-48 41 -48 113q0 85 62 126.5t197 46.5l78 5v32q0 41 -25.5 64.5t-70.5 23.5q-37 0 -70 -17t-54 -52l-100 10q17 70 78 107t149 37q107 0 158.5 -43.5t51.5 -121.5v-362h-103l-9 69q-28 -37 -71.5 -58t-97.5 -21q-77 0 -125 41zM312 87q29 14 47.5 37t18.5 47v83
l-64 -4q-78 -5 -117 -25t-39 -69q0 -38 26.5 -60.5t68.5 -22.5q30 0 59 14zM327.5 -32q21.5 23 77.5 41l86 -4q-52 -20 -73 -37.5t-21 -39.5q0 -17 9.5 -25.5t31.5 -8.5q33 0 59 14q3 2 8 2t5 -9v-36q0 -9 -8 -13q-13 -7 -38.5 -12.5t-53.5 -5.5q-50 0 -77 21t-27 60
q0 30 21.5 53z" />
    <glyph glyph-name="Cacute" unicode="&#x106;" horiz-adv-x="698" 
d="M504.5 702.5q62.5 -30.5 100.5 -83.5t46 -119l-128 -3q-12 62 -53.5 98t-109.5 36q-179 0 -179 -267q0 -136 46.5 -204t136.5 -68q60 0 102.5 38t54.5 100l128 -5q-13 -104 -84 -169.5t-198 -65.5q-98 0 -170.5 46t-111 131t-38.5 198t38 196t109 127.5t169 44.5
q79 0 141.5 -30.5zM506 855l-259 -71l-18 55l249 100z" />
    <glyph glyph-name="cacute" unicode="&#x107;" horiz-adv-x="536" 
d="M421 480q52 -47 71 -123l-99 -10q-26 45 -47.5 65.5t-58.5 20.5q-61 0 -96.5 -47t-35.5 -128q0 -82 36.5 -130.5t97.5 -48.5q40 0 64.5 23.5t44.5 65.5l96 -10q-17 -75 -71.5 -121.5t-137.5 -46.5q-72 0 -127.5 33.5t-86 94t-30.5 138.5q0 79 30.5 140.5t86 96
t127.5 34.5q84 0 136 -47zM423 649l-259 -71l-18 55l249 100z" />
    <glyph glyph-name="Ccircumflex" unicode="&#x108;" horiz-adv-x="698" 
d="M504.5 702.5q62.5 -30.5 100.5 -83.5t46 -119l-128 -3q-12 62 -53.5 98t-109.5 36q-179 0 -179 -267q0 -136 46.5 -204t136.5 -68q60 0 102.5 38t54.5 100l128 -5q-13 -104 -84 -169.5t-198 -65.5q-98 0 -170.5 46t-111 131t-38.5 198t38 196t109 127.5t169 44.5
q79 0 141.5 -30.5zM367 880l-74 -71h-97l129 125h85l126 -125h-102z" />
    <glyph glyph-name="ccircumflex" unicode="&#x109;" horiz-adv-x="536" 
d="M421 480q52 -47 71 -123l-99 -10q-26 45 -47.5 65.5t-58.5 20.5q-61 0 -96.5 -47t-35.5 -128q0 -82 36.5 -130.5t97.5 -48.5q40 0 64.5 23.5t44.5 65.5l96 -10q-17 -75 -71.5 -121.5t-137.5 -46.5q-72 0 -127.5 33.5t-86 94t-30.5 138.5q0 79 30.5 140.5t86 96
t127.5 34.5q84 0 136 -47zM284 674l-74 -71h-97l129 125h85l126 -125h-102z" />
    <glyph glyph-name="Cdotaccent" unicode="&#x10a;" horiz-adv-x="698" 
d="M504.5 702.5q62.5 -30.5 100.5 -83.5t46 -119l-128 -3q-12 62 -53.5 98t-109.5 36q-179 0 -179 -267q0 -136 46.5 -204t136.5 -68q60 0 102.5 38t54.5 100l128 -5q-13 -104 -84 -169.5t-198 -65.5q-98 0 -170.5 46t-111 131t-38.5 198t38 196t109 127.5t169 44.5
q79 0 141.5 -30.5zM431 798h-126v131h126v-131z" />
    <glyph glyph-name="cdotaccent" unicode="&#x10b;" horiz-adv-x="536" 
d="M421 480q52 -47 71 -123l-99 -10q-26 45 -47.5 65.5t-58.5 20.5q-61 0 -96.5 -47t-35.5 -128q0 -82 36.5 -130.5t97.5 -48.5q40 0 64.5 23.5t44.5 65.5l96 -10q-17 -75 -71.5 -121.5t-137.5 -46.5q-72 0 -127.5 33.5t-86 94t-30.5 138.5q0 79 30.5 140.5t86 96
t127.5 34.5q84 0 136 -47zM348 592h-126v131h126v-131z" />
    <glyph glyph-name="Ccaron" unicode="&#x10c;" horiz-adv-x="698" 
d="M504.5 702.5q62.5 -30.5 100.5 -83.5t46 -119l-128 -3q-12 62 -53.5 98t-109.5 36q-179 0 -179 -267q0 -136 46.5 -204t136.5 -68q60 0 102.5 38t54.5 100l128 -5q-13 -104 -84 -169.5t-198 -65.5q-98 0 -170.5 46t-111 131t-38.5 198t38 196t109 127.5t169 44.5
q79 0 141.5 -30.5zM536 930l-126 -127h-85l-129 127h97l74 -72l67 72h102z" />
    <glyph glyph-name="ccaron" unicode="&#x10d;" horiz-adv-x="536" 
d="M421 480q52 -47 71 -123l-99 -10q-26 45 -47.5 65.5t-58.5 20.5q-61 0 -96.5 -47t-35.5 -128q0 -82 36.5 -130.5t97.5 -48.5q40 0 64.5 23.5t44.5 65.5l96 -10q-17 -75 -71.5 -121.5t-137.5 -46.5q-72 0 -127.5 33.5t-86 94t-30.5 138.5q0 79 30.5 140.5t86 96
t127.5 34.5q84 0 136 -47zM453 724l-126 -127h-85l-129 127h97l74 -72l67 72h102z" />
    <glyph glyph-name="Dcaron" unicode="&#x10e;" horiz-adv-x="702" 
d="M280 722q193 -4 284 -95t91 -262q0 -177 -95.5 -271t-287.5 -94h-187v723q133 0 195 -1zM209 101h65q119 0 186 62.5t67 201.5q0 136 -64 197t-186 61h-68v-522zM516 930l-126 -127h-85l-129 127h97l74 -72l67 72h102z" />
    <glyph glyph-name="dcaron" unicode="&#x10f;" horiz-adv-x="595" 
d="M98.5 60q-57.5 70 -57.5 196q0 125 55.5 198t155.5 73q92 0 149 -67v283h122v-743h-90l-8 72q-23 -31 -65 -56.5t-103 -25.5q-101 0 -158.5 70zM367.5 116.5q33.5 36.5 33.5 88.5v140q-31 91 -114 91q-58 0 -92.5 -44t-34.5 -133q0 -91 34 -135t91 -44q49 0 82.5 36.5z
M505.5 410.5q-2.5 3.5 -0.5 7.5l29 72l2 9q0 5 -7 6l-8 2q-8 1 -10.5 3t-2.5 8v85q0 11 9 11h71q9 0 9 -9v-98q0 -3 -1 -4.5t-1 -2.5l-35 -82q-2 -6 -7 -8.5t-15 -2.5h-26q-4 0 -6.5 3.5z" />
    <glyph glyph-name="Dcroat" unicode="&#x110;" horiz-adv-x="719" 
d="M581 627q91 -91 91 -262q0 -177 -95.5 -271t-287.5 -94h-187v313h-52q-10 0 -14 4t-4 14v58q0 16 13 16h57v318q133 0 195 -1q193 -4 284 -95zM477 163.5q67 62.5 67 201.5q0 136 -64 197t-186 61h-68v-218h145q12 0 12 -14v-58q0 -11 -5 -15.5t-17 -4.5h-135v-212h65
q119 0 186 62.5z" />
    <glyph glyph-name="dcroat" unicode="&#x111;" horiz-adv-x="605" 
d="M578 587h-55v-587h-90l-8 72q-23 -31 -65 -56.5t-103 -25.5q-101 0 -158.5 70t-57.5 196q0 125 55.5 198t155.5 73q92 0 149 -67v127h-147v71h147v85h122v-85h55v-71zM401 345q-31 91 -114 91q-58 0 -92.5 -44t-34.5 -133q0 -91 34 -135t91 -44q49 0 82.5 36.5t33.5 88.5
v140z" />
    <glyph glyph-name="Emacron" unicode="&#x112;" horiz-adv-x="630" 
d="M85 723h478v-104h-355v-203h313v-103h-314v-207l363 -1v-105h-485v723zM494 840h-327v80h327v-80z" />
    <glyph glyph-name="emacron" unicode="&#x113;" horiz-adv-x="559" 
d="M196 122q34 -41 95 -41q43 0 71.5 17t42.5 53l109 -8q-15 -70 -77.5 -111.5t-142.5 -41.5q-74 0 -131.5 32t-89.5 91.5t-32 139.5t29 142t84 97t131 35q111 0 172 -70.5t61 -189.5v-37h-356q0 -67 34 -108zM404 306q0 59 -31 96t-89 37q-57 0 -89.5 -40t-32.5 -93h242z
M448 634h-327v80h327v-80z" />
    <glyph glyph-name="Ebreve" unicode="&#x114;" horiz-adv-x="630" 
d="M85 723h478v-104h-355v-203h313v-103h-314v-207l363 -1v-105h-485v723zM437 843q-44 -33 -105 -33q-62 0 -106 32.5t-58 86.5h78q13 -23 34 -38.5t52 -15.5q27 0 50 16t35 38h80q-16 -53 -60 -86z" />
    <glyph glyph-name="ebreve" unicode="&#x115;" horiz-adv-x="559" 
d="M196 122q34 -41 95 -41q43 0 71.5 17t42.5 53l109 -8q-15 -70 -77.5 -111.5t-142.5 -41.5q-74 0 -131.5 32t-89.5 91.5t-32 139.5t29 142t84 97t131 35q111 0 172 -70.5t61 -189.5v-37h-356q0 -67 34 -108zM404 306q0 59 -31 96t-89 37q-57 0 -89.5 -40t-32.5 -93h242z
M391 637q-44 -33 -105 -33q-62 0 -106 32.5t-58 86.5h78q13 -23 34 -38.5t52 -15.5q27 0 50 16t35 38h80q-16 -53 -60 -86z" />
    <glyph glyph-name="Edotaccent" unicode="&#x116;" horiz-adv-x="630" 
d="M85 723h478v-104h-355v-203h313v-103h-314v-207l363 -1v-105h-485v723zM395 798h-126v131h126v-131z" />
    <glyph glyph-name="edotaccent" unicode="&#x117;" horiz-adv-x="559" 
d="M196 122q34 -41 95 -41q43 0 71.5 17t42.5 53l109 -8q-15 -70 -77.5 -111.5t-142.5 -41.5q-74 0 -131.5 32t-89.5 91.5t-32 139.5t29 142t84 97t131 35q111 0 172 -70.5t61 -189.5v-37h-356q0 -67 34 -108zM404 306q0 59 -31 96t-89 37q-57 0 -89.5 -40t-32.5 -93h242z
M349 592h-126v131h126v-131z" />
    <glyph glyph-name="Eogonek" unicode="&#x118;" horiz-adv-x="630" 
d="M85 723h478v-104h-355v-203h313v-103h-314v-207l363 -1v-105h-485v723zM416.5 -34q21.5 23 77.5 41l86 -4q-52 -20 -73 -37.5t-21 -39.5q0 -17 9.5 -25.5t31.5 -8.5q33 0 59 14q3 2 8 2t5 -9v-36q0 -9 -8 -13q-13 -7 -38.5 -12.5t-53.5 -5.5q-50 0 -77 21t-27 60
q0 30 21.5 53z" />
    <glyph glyph-name="eogonek" unicode="&#x119;" horiz-adv-x="559" 
d="M196 122q34 -41 95 -41q43 0 71.5 17t42.5 53l109 -8q-15 -70 -77.5 -111.5t-142.5 -41.5q-74 0 -131.5 32t-89.5 91.5t-32 139.5t29 142t84 97t131 35q111 0 172 -70.5t61 -189.5v-37h-356q0 -67 34 -108zM404 306q0 59 -31 96t-89 37q-57 0 -89.5 -40t-32.5 -93h242z
M247.5 -22q21.5 23 77.5 41l86 -4q-52 -20 -73 -37.5t-21 -39.5q0 -17 9.5 -25.5t31.5 -8.5q33 0 59 14q3 2 8 2t5 -9v-36q0 -9 -8 -13q-13 -7 -38.5 -12.5t-53.5 -5.5q-50 0 -77 21t-27 60q0 30 21.5 53z" />
    <glyph glyph-name="Ecaron" unicode="&#x11a;" horiz-adv-x="630" 
d="M85 723h478v-104h-355v-203h313v-103h-314v-207l363 -1v-105h-485v723zM500 930l-126 -127h-85l-129 127h97l74 -72l67 72h102z" />
    <glyph glyph-name="ecaron" unicode="&#x11b;" horiz-adv-x="559" 
d="M196 122q34 -41 95 -41q43 0 71.5 17t42.5 53l109 -8q-15 -70 -77.5 -111.5t-142.5 -41.5q-74 0 -131.5 32t-89.5 91.5t-32 139.5t29 142t84 97t131 35q111 0 172 -70.5t61 -189.5v-37h-356q0 -67 34 -108zM404 306q0 59 -31 96t-89 37q-57 0 -89.5 -40t-32.5 -93h242z
M454 724l-126 -127h-85l-129 127h97l74 -72l67 72h102z" />
    <glyph glyph-name="Gcircumflex" unicode="&#x11c;" horiz-adv-x="741" 
d="M196.5 35.5q-71.5 45.5 -110.5 128.5t-39 195q0 114 40.5 198.5t113.5 130t170 45.5q77 0 141 -32.5t102 -86t41 -113.5l-129 -4q-11 57 -53.5 94t-104.5 37q-87 0 -138 -66.5t-51 -196.5q0 -138 53 -202.5t140 -64.5q48 0 83.5 21.5t55 53.5t22.5 64l5 54h-162v86
l289 -2v-375h-86v102q-34 -50 -85 -81t-130 -31q-96 0 -167.5 45.5zM365 880l-74 -71h-97l129 125h85l126 -125h-102z" />
    <glyph glyph-name="gcircumflex" unicode="&#x11d;" horiz-adv-x="618" 
d="M100 -135.5q-70 35.5 -70 95.5q0 40 27 62t47.5 31t24.5 11q-3 2 -19.5 11t-28 25t-11.5 36q0 27 25.5 49t73.5 31q-100 49 -100 146q0 76 65.5 119.5t169.5 43.5q49 0 83.5 -11t66.5 -32l143 58l-1 -100l-90 -16q6 -12 10 -30.5t4 -30.5q0 -45 -25.5 -83.5t-76 -61.5
t-123.5 -23q-20 0 -42 2q-70 -3 -70 -28q0 -12 20 -17t74 -9l110 -6q90 -6 134.5 -44t44.5 -100q0 -76 -69 -120t-197 -44q-130 0 -200 35.5zM377 291q28 24 28 68q0 45 -28.5 71.5t-78.5 26.5t-79 -26.5t-29 -71.5q0 -43 28.5 -67.5t79.5 -24.5t79 24zM418.5 -82
q30.5 17 30.5 53q0 58 -85 64l-131 9q-32 2 -58 -19.5t-26 -50.5q0 -38 43 -55.5t128 -17.5q68 0 98.5 17zM304 674l-74 -71h-97l129 125h85l126 -125h-102z" />
    <glyph glyph-name="Gbreve" unicode="&#x11e;" horiz-adv-x="741" 
d="M196.5 35.5q-71.5 45.5 -110.5 128.5t-39 195q0 114 40.5 198.5t113.5 130t170 45.5q77 0 141 -32.5t102 -86t41 -113.5l-129 -4q-11 57 -53.5 94t-104.5 37q-87 0 -138 -66.5t-51 -196.5q0 -138 53 -202.5t140 -64.5q48 0 83.5 21.5t55 53.5t22.5 64l5 54h-162v86
l289 -2v-375h-86v102q-34 -50 -85 -81t-130 -31q-96 0 -167.5 45.5zM471 843q-44 -33 -105 -33q-62 0 -106 32.5t-58 86.5h78q13 -23 34 -38.5t52 -15.5q27 0 50 16t35 38h80q-16 -53 -60 -86z" />
    <glyph glyph-name="gbreve" unicode="&#x11f;" horiz-adv-x="618" 
d="M100 -135.5q-70 35.5 -70 95.5q0 40 27 62t47.5 31t24.5 11q-3 2 -19.5 11t-28 25t-11.5 36q0 27 25.5 49t73.5 31q-100 49 -100 146q0 76 65.5 119.5t169.5 43.5q49 0 83.5 -11t66.5 -32l143 58l-1 -100l-90 -16q6 -12 10 -30.5t4 -30.5q0 -45 -25.5 -83.5t-76 -61.5
t-123.5 -23q-20 0 -42 2q-70 -3 -70 -28q0 -12 20 -17t74 -9l110 -6q90 -6 134.5 -44t44.5 -100q0 -76 -69 -120t-197 -44q-130 0 -200 35.5zM377 291q28 24 28 68q0 45 -28.5 71.5t-78.5 26.5t-79 -26.5t-29 -71.5q0 -43 28.5 -67.5t79.5 -24.5t79 24zM418.5 -82
q30.5 17 30.5 53q0 58 -85 64l-131 9q-32 2 -58 -19.5t-26 -50.5q0 -38 43 -55.5t128 -17.5q68 0 98.5 17zM410 637q-44 -33 -105 -33q-62 0 -106 32.5t-58 86.5h78q13 -23 34 -38.5t52 -15.5q27 0 50 16t35 38h80q-16 -53 -60 -86z" />
    <glyph glyph-name="Gdotaccent" unicode="&#x120;" horiz-adv-x="741" 
d="M196.5 35.5q-71.5 45.5 -110.5 128.5t-39 195q0 114 40.5 198.5t113.5 130t170 45.5q77 0 141 -32.5t102 -86t41 -113.5l-129 -4q-11 57 -53.5 94t-104.5 37q-87 0 -138 -66.5t-51 -196.5q0 -138 53 -202.5t140 -64.5q48 0 83.5 21.5t55 53.5t22.5 64l5 54h-162v86
l289 -2v-375h-86v102q-34 -50 -85 -81t-130 -31q-96 0 -167.5 45.5zM429 798h-126v131h126v-131z" />
    <glyph glyph-name="gdotaccent" unicode="&#x121;" horiz-adv-x="618" 
d="M100 -135.5q-70 35.5 -70 95.5q0 40 27 62t47.5 31t24.5 11q-3 2 -19.5 11t-28 25t-11.5 36q0 27 25.5 49t73.5 31q-100 49 -100 146q0 76 65.5 119.5t169.5 43.5q49 0 83.5 -11t66.5 -32l143 58l-1 -100l-90 -16q6 -12 10 -30.5t4 -30.5q0 -45 -25.5 -83.5t-76 -61.5
t-123.5 -23q-20 0 -42 2q-70 -3 -70 -28q0 -12 20 -17t74 -9l110 -6q90 -6 134.5 -44t44.5 -100q0 -76 -69 -120t-197 -44q-130 0 -200 35.5zM377 291q28 24 28 68q0 45 -28.5 71.5t-78.5 26.5t-79 -26.5t-29 -71.5q0 -43 28.5 -67.5t79.5 -24.5t79 24zM418.5 -82
q30.5 17 30.5 53q0 58 -85 64l-131 9q-32 2 -58 -19.5t-26 -50.5q0 -38 43 -55.5t128 -17.5q68 0 98.5 17zM368 592h-126v131h126v-131z" />
    <glyph glyph-name="Gcommaaccent" unicode="&#x122;" horiz-adv-x="741" 
d="M196.5 35.5q-71.5 45.5 -110.5 128.5t-39 195q0 114 40.5 198.5t113.5 130t170 45.5q77 0 141 -32.5t102 -86t41 -113.5l-129 -4q-11 57 -53.5 94t-104.5 37q-87 0 -138 -66.5t-51 -196.5q0 -138 53 -202.5t140 -64.5q48 0 83.5 21.5t55 53.5t22.5 64l5 54h-162v86
l289 -2v-375h-86v102q-34 -50 -85 -81t-130 -31q-96 0 -167.5 45.5zM323.5 -230.5q-2.5 4.5 0.5 9.5l29 48q3 4 3 9q0 10 -10 10h-8q-9 0 -12 3.5t-3 11.5v62q0 14 11 14h70q11 0 11 -11v-80q0 -4 -1 -6t-1 -4l-42 -61q-4 -6 -9 -8t-15 -2h-15q-6 0 -8.5 4.5z" />
    <glyph glyph-name="gcommaaccent" unicode="&#x123;" horiz-adv-x="618" 
d="M236 696l51 75h50l-51 -81h43v-91h-93v97zM100 -135.5q-70 35.5 -70 95.5q0 40 27 62t47.5 31t24.5 11q-3 2 -19.5 11t-28 25t-11.5 36q0 27 25.5 49t73.5 31q-100 49 -100 146q0 76 65.5 119.5t169.5 43.5q49 0 83.5 -11t66.5 -32l143 58l-1 -100l-90 -16
q6 -12 10 -30.5t4 -30.5q0 -45 -25.5 -83.5t-76 -61.5t-123.5 -23q-20 0 -42 2q-70 -3 -70 -28q0 -12 20 -17t74 -9l110 -6q90 -6 134.5 -44t44.5 -100q0 -76 -69 -120t-197 -44q-130 0 -200 35.5zM377 291q28 24 28 68q0 45 -28.5 71.5t-78.5 26.5t-79 -26.5t-29 -71.5
q0 -43 28.5 -67.5t79.5 -24.5t79 24zM418.5 -82q30.5 17 30.5 53q0 58 -85 64l-131 9q-32 2 -58 -19.5t-26 -50.5q0 -38 43 -55.5t128 -17.5q68 0 98.5 17z" />
    <glyph glyph-name="Hcircumflex" unicode="&#x124;" horiz-adv-x="717" 
d="M207 321v-321h-122v723h122v-298h303v298h122v-723h-122v321h-303zM358 880l-74 -71h-97l129 125h85l126 -125h-102z" />
    <glyph glyph-name="hcircumflex" unicode="&#x125;" horiz-adv-x="599" 
d="M72 743h119v-296q35 29 55 43t47 23t64 9q75 0 122.5 -44t47.5 -115v-363h-122v344q0 38 -23.5 60t-64.5 22q-35 0 -65 -17t-58 -51v-358h-122v743zM388 674l-74 -71h-97l129 125h85l126 -125h-102z" />
    <glyph glyph-name="Hbar" unicode="&#x126;" horiz-adv-x="749" 
d="M738 610v-41q0 -10 -4.5 -13.5t-15.5 -3.5h-67v-552h-122v321h-303v-321h-122v552h-82q-9 0 -12.5 3.5t-3.5 12.5v41q0 15 11 15h87v99h122v-99h303v99h122v-99h76q11 0 11 -14zM529 552h-303v-127h303v127z" />
    <glyph glyph-name="hbar" unicode="&#x127;" horiz-adv-x="607" 
d="M487.5 478q47.5 -44 47.5 -115v-363h-122v344q0 38 -23.5 60t-64.5 22q-35 0 -65 -17t-58 -51v-358h-122v587h-66v71h66v85h119v-85h139v-71h-139v-140q35 29 55 43t47 23t64 9q75 0 122.5 -44z" />
    <glyph glyph-name="Itilde" unicode="&#x128;" horiz-adv-x="292" 
d="M207 723v-723h-122v723h122zM219 829q-29 0 -73 14q-37 13 -63 13q-19 0 -32 -5t-31 -17q-6 -4 -9 -4q-5 0 -8 10l-11 35l-2 8q0 5 7 12q19 16 37 24.5t44 8.5q18 0 38 -4.5t38 -10.5q16 -5 33 -9.5t32 -4.5q17 0 31.5 6t30.5 16q5 3 9 3q7 0 10 -9l10 -42q1 -2 1 -6
q0 -7 -10 -14q-37 -24 -82 -24z" />
    <glyph glyph-name="itilde" unicode="&#x129;" horiz-adv-x="266" 
d="M194 0h-122v517h122v-517zM206 623q-29 0 -73 14q-37 13 -63 13q-19 0 -32 -5t-31 -17q-6 -4 -9 -4q-5 0 -8 10l-11 35l-2 8q0 5 7 12q19 16 37 24.5t44 8.5q18 0 38 -4.5t38 -10.5q16 -5 33 -9.5t32 -4.5q17 0 31.5 6t30.5 16q5 3 9 3q7 0 10 -9l10 -42q1 -2 1 -6
q0 -7 -10 -14q-37 -24 -82 -24z" />
    <glyph glyph-name="Imacron" unicode="&#x12a;" horiz-adv-x="292" 
d="M207 723v-723h-122v723h122zM311 840h-327v80h327v-80z" />
    <glyph glyph-name="imacron" unicode="&#x12b;" horiz-adv-x="266" 
d="M194 0h-122v517h122v-517zM298 634h-327v80h327v-80z" />
    <glyph glyph-name="Ibreve" unicode="&#x12c;" horiz-adv-x="292" 
d="M207 723v-723h-122v723h122zM254 843q-44 -33 -105 -33q-62 0 -106 32.5t-58 86.5h78q13 -23 34 -38.5t52 -15.5q27 0 50 16t35 38h80q-16 -53 -60 -86z" />
    <glyph glyph-name="ibreve" unicode="&#x12d;" horiz-adv-x="266" 
d="M194 0h-122v517h122v-517zM241 637q-44 -33 -105 -33q-62 0 -106 32.5t-58 86.5h78q13 -23 34 -38.5t52 -15.5q27 0 50 16t35 38h80q-16 -53 -60 -86z" />
    <glyph glyph-name="Iogonek" unicode="&#x12e;" horiz-adv-x="292" 
d="M207 723v-723h-122v723h122zM41.5 -38q21.5 23 77.5 41l86 -4q-52 -20 -73 -37.5t-21 -39.5q0 -17 9.5 -25.5t31.5 -8.5q33 0 59 14q3 2 8 2t5 -9v-36q0 -9 -8 -13q-13 -7 -38.5 -12.5t-53.5 -5.5q-50 0 -77 21t-27 60q0 30 21.5 53z" />
    <glyph glyph-name="iogonek" unicode="&#x12f;" horiz-adv-x="266" 
d="M194 0h-122v517h122v-517zM199 592h-126v131h126v-131zM25.5 -33q21.5 23 77.5 41l86 -4q-52 -20 -73 -37.5t-21 -39.5q0 -17 9.5 -25.5t31.5 -8.5q33 0 59 14q3 2 8 2t5 -9v-36q0 -9 -8 -13q-13 -7 -38.5 -12.5t-53.5 -5.5q-50 0 -77 21t-27 60q0 30 21.5 53z" />
    <glyph glyph-name="Idotaccent" unicode="&#x130;" horiz-adv-x="292" 
d="M207 723v-723h-122v723h122zM212 798h-126v131h126v-131z" />
    <glyph glyph-name="dotlessi" unicode="&#x131;" horiz-adv-x="266" 
d="M194 0h-122v517h122v-517z" />
    <glyph glyph-name="IJ" unicode="&#x132;" horiz-adv-x="692" 
d="M207 723v-723h-122v723h122zM591.5 76.5q-14.5 -42.5 -51.5 -64.5t-104 -22q-32 0 -66 6t-56 13l5 113q6 -2 29 -9.5t51 -7.5q49 0 67.5 26t18.5 89v503h121v-536q0 -68 -14.5 -110.5z" />
    <glyph glyph-name="ij" unicode="&#x133;" horiz-adv-x="555" 
d="M198 611h-126v132h126v-132zM196 0h-122v517h122v-517zM477 611h-126v132h126v-132zM437.5 -127.5q-37.5 -38.5 -122.5 -38.5q-24 0 -38.5 3t-20 6t-6.5 4l-1 81l45 4q33 3 46 17.5t13 44.5v523h122v-526q0 -80 -37.5 -118.5z" />
    <glyph glyph-name="Jcircumflex" unicode="&#x134;" horiz-adv-x="400" 
d="M299.5 76.5q-14.5 -42.5 -51.5 -64.5t-104 -22q-32 0 -66 6t-56 13l5 113q6 -2 29 -9.5t51 -7.5q49 0 67.5 26t18.5 89v503h121v-536q0 -68 -14.5 -110.5zM228 880l-74 -71h-97l129 125h85l126 -125h-102z" />
    <glyph glyph-name="jcircumflex" unicode="&#x135;" horiz-adv-x="260" 
d="M151 -127.5q-38 -38.5 -122 -38.5q-36 0 -50.5 4t-14.5 9l-1 81l45 4q33 3 46 17.5t13 44.5v523h122v-526q0 -80 -38 -118.5zM128 674l-74 -71h-97l129 125h85l126 -125h-102z" />
    <glyph glyph-name="Kcommaaccent" unicode="&#x136;" horiz-adv-x="697" 
d="M534 0l-207 353l-115 -136v-217h-127v723h127v-351l291 351h141l-228 -280l253 -443h-135zM299.5 -230.5q-2.5 4.5 0.5 9.5l29 48q3 4 3 9q0 10 -10 10h-8q-9 0 -12 3.5t-3 11.5v62q0 14 11 14h70q11 0 11 -11v-80q0 -4 -1 -6t-1 -4l-42 -61q-4 -6 -9 -8t-15 -2h-15
q-6 0 -8.5 4.5z" />
    <glyph glyph-name="kcommaaccent" unicode="&#x137;" horiz-adv-x="578" 
d="M427 0l-149 240l-84 -88v-152h-122v743h122v-466l220 240h128l-187 -202l196 -315h-124zM244.5 -230.5q-2.5 4.5 0.5 9.5l29 48q3 4 3 9q0 10 -10 10h-8q-9 0 -12 3.5t-3 11.5v62q0 14 11 14h70q11 0 11 -11v-80q0 -4 -1 -6t-1 -4l-42 -61q-4 -6 -9 -8t-15 -2h-15
q-6 0 -8.5 4.5z" />
    <glyph glyph-name="kgreenlandic" unicode="&#x138;" horiz-adv-x="594" 
d="M427 0l-133 251l-100 -99v-152h-122v517h122v-246l230 246h127l-175 -177l192 -340h-141z" />
    <glyph glyph-name="Lacute" unicode="&#x139;" horiz-adv-x="563" 
d="M209 723v-618h326v-105h-450v723h124zM282 855l-259 -71l-18 55l249 100z" />
    <glyph glyph-name="lacute" unicode="&#x13a;" horiz-adv-x="308" 
d="M126 15q-33 20 -43.5 51.5t-10.5 75.5v601h120v-587q0 -34 14 -52.5t44 -21.5l26 -1v-76q-30 -10 -54 -10q-63 0 -96 20zM270 896l-259 -71l-18 55l249 100z" />
    <glyph glyph-name="Lcommaaccent" unicode="&#x13b;" horiz-adv-x="563" 
d="M209 723v-618h326v-105h-450v723h124zM261.5 -230.5q-2.5 4.5 0.5 9.5l29 48q3 4 3 9q0 10 -10 10h-8q-9 0 -12 3.5t-3 11.5v62q0 14 11 14h70q11 0 11 -11v-80q0 -4 -1 -6t-1 -4l-42 -61q-4 -6 -9 -8t-15 -2h-15q-6 0 -8.5 4.5z" />
    <glyph glyph-name="lcommaaccent" unicode="&#x13c;" horiz-adv-x="308" 
d="M126 15q-33 20 -43.5 51.5t-10.5 75.5v601h120v-587q0 -34 14 -52.5t44 -21.5l26 -1v-76q-30 -10 -54 -10q-63 0 -96 20zM79.5 -230.5q-2.5 4.5 0.5 9.5l29 48q3 4 3 9q0 10 -10 10h-8q-9 0 -12 3.5t-3 11.5v62q0 14 11 14h70q11 0 11 -11v-80q0 -4 -1 -6t-1 -4l-42 -61
q-4 -6 -9 -8t-15 -2h-15q-6 0 -8.5 4.5z" />
    <glyph glyph-name="Lcaron" unicode="&#x13d;" horiz-adv-x="563" 
d="M209 723v-618h326v-105h-450v723h124zM366.5 519.5q-2.5 3.5 -0.5 7.5l29 72l2 9q0 5 -7 6l-8 2q-8 1 -10.5 3t-2.5 8v85q0 11 9 11h71q9 0 9 -9v-98q0 -3 -1 -4.5t-1 -2.5l-35 -82q-2 -6 -7 -8.5t-15 -2.5h-26q-4 0 -6.5 3.5z" />
    <glyph glyph-name="lcaron" unicode="&#x13e;" horiz-adv-x="308" 
d="M126 15q-33 20 -43.5 51.5t-10.5 75.5v601h120v-587q0 -34 14 -52.5t44 -21.5l26 -1v-76q-30 -10 -54 -10q-63 0 -96 20zM244.5 541.5q-2.5 3.5 -0.5 7.5l29 72l2 9q0 5 -7 6l-8 2q-8 1 -10.5 3t-2.5 8v85q0 11 9 11h71q9 0 9 -9v-98q0 -3 -1 -4.5t-1 -2.5l-35 -82
q-2 -6 -7 -8.5t-15 -2.5h-26q-4 0 -6.5 3.5z" />
    <glyph glyph-name="Ldot" unicode="&#x13f;" horiz-adv-x="593" 
d="M209 723v-618h326v-105h-450v723h124zM543 334h-133v129h133v-129z" />
    <glyph glyph-name="ldot" unicode="&#x140;" horiz-adv-x="377" 
d="M126 15q-33 20 -43.5 51.5t-10.5 75.5v601h120v-587q0 -34 14 -52.5t44 -21.5l26 -1v-76q-30 -10 -54 -10q-63 0 -96 20zM389 219h-133v129h133v-129z" />
    <glyph glyph-name="Lslash" unicode="&#x141;" horiz-adv-x="569" 
d="M542 105v-105h-450v313l-61 -17q-3 -1 -7 -1q-6 0 -8 3t-2 10v72q0 14 12 17l66 17v309h124v-276l149 39q2 1 6 1q10 0 10 -13v-70q0 -12 -14 -16l-151 -41v-242h326z" />
    <glyph glyph-name="lslash" unicode="&#x142;" horiz-adv-x="304" 
d="M308 81v-76q-30 -10 -54 -10q-63 0 -96 20t-43.5 51.5t-10.5 75.5v81l-89 -68v107l89 67v414h120v-324l67 50v-102l-67 -51v-160q0 -34 14 -52.5t44 -21.5z" />
    <glyph glyph-name="Nacute" unicode="&#x143;" horiz-adv-x="765" 
d="M680 723v-723h-110l-363 530v-530h-122v723h119l354 -516v516h122zM528 855l-259 -71l-18 55l249 100z" />
    <glyph glyph-name="nacute" unicode="&#x144;" 
d="M72 517h119v-69q26 35 62.5 55t93.5 20q49 0 90 -22t66 -63t25 -96v-342h-122v329q0 45 -27.5 71t-71.5 26q-47 0 -80 -22.5t-33 -63.5v-340h-122v517zM444 649l-259 -71l-18 55l249 100z" />
    <glyph glyph-name="Ncommaaccent" unicode="&#x145;" horiz-adv-x="765" 
d="M680 723v-723h-110l-363 530v-530h-122v723h119l354 -516v516h122zM326.5 -230.5q-2.5 4.5 0.5 9.5l29 48q3 4 3 9q0 10 -10 10h-8q-9 0 -12 3.5t-3 11.5v62q0 14 11 14h70q11 0 11 -11v-80q0 -4 -1 -6t-1 -4l-42 -61q-4 -6 -9 -8t-15 -2h-15q-6 0 -8.5 4.5z" />
    <glyph glyph-name="ncommaaccent" unicode="&#x146;" 
d="M72 517h119v-69q26 35 62.5 55t93.5 20q49 0 90 -22t66 -63t25 -96v-342h-122v329q0 45 -27.5 71t-71.5 26q-47 0 -80 -22.5t-33 -63.5v-340h-122v517zM255.5 -230.5q-2.5 4.5 0.5 9.5l29 48q3 4 3 9q0 10 -10 10h-8q-9 0 -12 3.5t-3 11.5v62q0 14 11 14h70q11 0 11 -11
v-80q0 -4 -1 -6t-1 -4l-42 -61q-4 -6 -9 -8t-15 -2h-15q-6 0 -8.5 4.5z" />
    <glyph glyph-name="Ncaron" unicode="&#x147;" horiz-adv-x="765" 
d="M680 723v-723h-110l-363 530v-530h-122v723h119l354 -516v516h122zM558 930l-126 -127h-85l-129 127h97l74 -72l67 72h102z" />
    <glyph glyph-name="ncaron" unicode="&#x148;" 
d="M72 517h119v-69q26 35 62.5 55t93.5 20q49 0 90 -22t66 -63t25 -96v-342h-122v329q0 45 -27.5 71t-71.5 26q-47 0 -80 -22.5t-33 -63.5v-340h-122v517zM474 724l-126 -127h-85l-129 127h97l74 -72l67 72h102z" />
    <glyph glyph-name="napostrophe" unicode="&#x149;" horiz-adv-x="683" 
d="M39 452.5q-2 3.5 -1 7.5l30 110l2 9q0 6 -7 7l-8 1q-7 0 -10 2.5t-3 9.5v113q0 11 10 11h71q9 0 9 -9v-127q0 -5 -2 -7l-36 -120q-3 -11 -21 -11h-27q-5 0 -7 3.5zM155 517h119v-69q26 35 62.5 55t93.5 20q49 0 90 -22t66 -63t25 -96v-342h-122v329q0 45 -27.5 71
t-71.5 26q-47 0 -80 -22.5t-33 -63.5v-340h-122v517z" />
    <glyph glyph-name="Eng" unicode="&#x14a;" horiz-adv-x="752" 
d="M664 720q3 -3 3 -10v-707q0 -89 -43.5 -131.5t-135.5 -42.5q-46 0 -105 13q-18 4 -17 27l6 70q2 17 16 14q40 -10 63 -10q38 0 58 19.5t21 64.5v29l-320 437q-4 7 -6.5 6t-2.5 -7v-477v-2q0 -13 -17 -13h-81q-18 0 -18 15v692q0 9 4 12.5t12 3.5h94q9 0 13.5 -2t10.5 -10
l319 -441q5 -6 9 -6q5 0 5 9v436q0 14 16 14h86q7 0 10 -3z" />
    <glyph glyph-name="eng" unicode="&#x14b;" horiz-adv-x="606" 
d="M311 -155v83l38 2q31 2 44 16.5t13 45.5v359q0 40 -21 62.5t-64 22.5q-65 0 -126 -69v-367h-123l2 517h118v-80q49 47 91 68.5t90 21.5q71 0 113 -41.5t42 -109.5v-380q0 -76 -42 -119t-115 -43q-60 0 -60 11z" />
    <glyph glyph-name="Omacron" unicode="&#x14c;" horiz-adv-x="742" 
d="M198.5 34q-73.5 44 -112.5 127t-39 198q0 116 40 200.5t113 129t172 44.5q98 0 170.5 -44.5t112 -128.5t39.5 -200q0 -115 -39 -198.5t-111.5 -127.5t-171.5 -44q-100 0 -173.5 44zM513 157q49 65 49 201q0 139 -49.5 206t-140.5 67t-141 -67t-50 -206q0 -136 50 -201
t141 -65q92 0 141 65zM535 840h-327v80h327v-80z" />
    <glyph glyph-name="omacron" unicode="&#x14d;" horiz-adv-x="569" 
d="M155 23.5q-55 33.5 -84.5 93.5t-29.5 138q0 80 30 141.5t86 96t129 34.5q74 0 129 -34.5t84 -96t29 -140.5q0 -78 -29 -138.5t-84 -94t-130 -33.5t-130 33.5zM379 132.5q30 50.5 30 127.5t-30.5 126t-92.5 49q-64 0 -94.5 -49t-30.5 -126t31 -127.5t94 -50.5t93 50.5z
M449 634h-327v80h327v-80z" />
    <glyph glyph-name="Obreve" unicode="&#x14e;" horiz-adv-x="742" 
d="M198.5 34q-73.5 44 -112.5 127t-39 198q0 116 40 200.5t113 129t172 44.5q98 0 170.5 -44.5t112 -128.5t39.5 -200q0 -115 -39 -198.5t-111.5 -127.5t-171.5 -44q-100 0 -173.5 44zM513 157q49 65 49 201q0 139 -49.5 206t-140.5 67t-141 -67t-50 -206q0 -136 50 -201
t141 -65q92 0 141 65zM478 843q-44 -33 -105 -33q-62 0 -106 32.5t-58 86.5h78q13 -23 34 -38.5t52 -15.5q27 0 50 16t35 38h80q-16 -53 -60 -86z" />
    <glyph glyph-name="obreve" unicode="&#x14f;" horiz-adv-x="569" 
d="M155 23.5q-55 33.5 -84.5 93.5t-29.5 138q0 80 30 141.5t86 96t129 34.5q74 0 129 -34.5t84 -96t29 -140.5q0 -78 -29 -138.5t-84 -94t-130 -33.5t-130 33.5zM379 132.5q30 50.5 30 127.5t-30.5 126t-92.5 49q-64 0 -94.5 -49t-30.5 -126t31 -127.5t94 -50.5t93 50.5z
M392 637q-44 -33 -105 -33q-62 0 -106 32.5t-58 86.5h78q13 -23 34 -38.5t52 -15.5q27 0 50 16t35 38h80q-16 -53 -60 -86z" />
    <glyph glyph-name="Ohungarumlaut" unicode="&#x150;" horiz-adv-x="742" 
d="M198.5 34q-73.5 44 -112.5 127t-39 198q0 116 40 200.5t113 129t172 44.5q98 0 170.5 -44.5t112 -128.5t39.5 -200q0 -115 -39 -198.5t-111.5 -127.5t-171.5 -44q-100 0 -173.5 44zM513 157q49 65 49 201q0 139 -49.5 206t-140.5 67t-141 -67t-50 -206q0 -136 50 -201
t141 -65q92 0 141 65zM393 889q6 -6 6 -13t-9 -12l-130 -95q-9 -6 -13 -6q-5 0 -9 6l-22 24q-4 5 -4.5 10t2.5 8l127 122q6 4 8 4q5 0 8 -5zM572 889q5 -7 5 -12q0 -7 -9 -13l-131 -95q-7 -6 -12 -6q-6 0 -10 6l-21 24q-5 5 -5 10t4 8l126 122q4 4 8 4q5 0 8 -5z" />
    <glyph glyph-name="ohungarumlaut" unicode="&#x151;" horiz-adv-x="569" 
d="M155 23.5q-55 33.5 -84.5 93.5t-29.5 138q0 80 30 141.5t86 96t129 34.5q74 0 129 -34.5t84 -96t29 -140.5q0 -78 -29 -138.5t-84 -94t-130 -33.5t-130 33.5zM379 132.5q30 50.5 30 127.5t-30.5 126t-92.5 49q-64 0 -94.5 -49t-30.5 -126t31 -127.5t94 -50.5t93 50.5z
M307 683q6 -6 6 -13t-9 -12l-130 -95q-9 -6 -13 -6q-5 0 -9 6l-22 24q-4 5 -4.5 10t2.5 8l127 122q6 4 8 4q5 0 8 -5zM486 683q5 -7 5 -12q0 -7 -9 -13l-131 -95q-7 -6 -12 -6q-6 0 -10 6l-21 24q-5 5 -5 10t4 8l126 122q4 4 8 4q5 0 8 -5z" />
    <glyph glyph-name="OE" unicode="&#x152;" horiz-adv-x="1113" 
d="M1053 0h-460l-26 64q-63 -74 -189 -74q-103 0 -177.5 44t-114 127t-39.5 198q0 117 40.5 201t116.5 128.5t180 44.5q122 0 183 -75l32 65h443l-1 -103h-353v-205h249v-101h-249v-211h365v-103zM505.5 154q42.5 64 42.5 204q0 142 -43 209t-133 67q-91 0 -135 -67
t-44 -209q0 -139 43.5 -203.5t135.5 -64.5q91 0 133.5 64z" />
    <glyph glyph-name="oe" unicode="&#x153;" horiz-adv-x="965" 
d="M163 23.5q-58 33.5 -90 93.5t-32 138q0 80 33 142t91 96t132 34q58 0 105.5 -23t78.5 -66q6 -6 10 -6q5 0 9 6q30 42 76.5 65.5t101.5 23.5q74 0 130 -35t86.5 -101t30.5 -156h-374q0 -46 19 -82.5t52.5 -56.5t73.5 -20q42 0 76.5 19t65.5 60l78 -36q-45 -70 -100 -99.5
t-134 -29.5q-58 0 -105.5 22.5t-79.5 63.5q-5 5 -8 5q-4 0 -10 -7q-32 -40 -78.5 -62t-104.5 -22q-75 0 -133 33.5zM589.5 409q-37.5 -39 -36.5 -103l253 -1q0 36 -15 69t-43 53.5t-65 20.5q-56 0 -93.5 -39zM394 122q34 48 34 136q0 89 -34.5 137.5t-96.5 48.5t-97 -48.5
t-35 -137.5q0 -88 35 -136t97 -48q63 0 97 48z" />
    <glyph glyph-name="Racute" unicode="&#x154;" horiz-adv-x="686" 
d="M499 0l-124 294h-168v-294h-122v723h294q121 0 182 -55.5t61 -152.5q0 -143 -134 -201l138 -314h-127zM459 422q39 32 39 89q0 55 -35.5 86t-95.5 31h-160v-238h144q69 0 108 32zM472 855l-259 -71l-18 55l249 100z" />
    <glyph glyph-name="racute" unicode="&#x155;" horiz-adv-x="406" 
d="M72 517h117v-120q24 57 74 93.5t110 36.5l1 -116l-19 1q-51 0 -87.5 -17.5t-55 -45t-18.5 -57.5v-292h-122v517zM361 649l-259 -71l-18 55l249 100z" />
    <glyph glyph-name="Rcommaaccent" unicode="&#x156;" horiz-adv-x="686" 
d="M499 0l-124 294h-168v-294h-122v723h294q121 0 182 -55.5t61 -152.5q0 -143 -134 -201l138 -314h-127zM459 422q39 32 39 89q0 55 -35.5 86t-95.5 31h-160v-238h144q69 0 108 32zM297.5 -230.5q-2.5 4.5 0.5 9.5l29 48q3 4 3 9q0 10 -10 10h-8q-9 0 -12 3.5t-3 11.5v62
q0 14 11 14h70q11 0 11 -11v-80q0 -4 -1 -6t-1 -4l-42 -61q-4 -6 -9 -8t-15 -2h-15q-6 0 -8.5 4.5z" />
    <glyph glyph-name="rcommaaccent" unicode="&#x157;" horiz-adv-x="406" 
d="M72 517h117v-120q24 57 74 93.5t110 36.5l1 -116l-19 1q-51 0 -87.5 -17.5t-55 -45t-18.5 -57.5v-292h-122v517zM94.5 -230.5q-2.5 4.5 0.5 9.5l29 48q3 4 3 9q0 10 -10 10h-8q-9 0 -12 3.5t-3 11.5v62q0 14 11 14h70q11 0 11 -11v-80q0 -4 -1 -6t-1 -4l-42 -61
q-4 -6 -9 -8t-15 -2h-15q-6 0 -8.5 4.5z" />
    <glyph glyph-name="Rcaron" unicode="&#x158;" horiz-adv-x="686" 
d="M499 0l-124 294h-168v-294h-122v723h294q121 0 182 -55.5t61 -152.5q0 -143 -134 -201l138 -314h-127zM459 422q39 32 39 89q0 55 -35.5 86t-95.5 31h-160v-238h144q69 0 108 32zM502 930l-126 -127h-85l-129 127h97l74 -72l67 72h102z" />
    <glyph glyph-name="rcaron" unicode="&#x159;" horiz-adv-x="406" 
d="M72 517h117v-120q24 57 74 93.5t110 36.5l1 -116l-19 1q-51 0 -87.5 -17.5t-55 -45t-18.5 -57.5v-292h-122v517zM391 724l-126 -127h-85l-129 127h97l74 -72l67 72h102z" />
    <glyph glyph-name="Sacute" unicode="&#x15a;" horiz-adv-x="683" 
d="M207.5 13q-65.5 23 -109 69.5t-51.5 112.5l127 4q12 -53 59.5 -82.5t113.5 -29.5q71 0 117 27.5t46 76.5q0 42 -32.5 66.5t-93.5 37.5l-136 29q-85 17 -132 66t-47 128q0 64 35.5 112.5t98.5 75t141 26.5q82 0 144 -29t97.5 -77.5t41.5 -104.5l-124 -4q-9 61 -50.5 88.5
t-107.5 27.5q-62 0 -103.5 -28t-41.5 -76q0 -37 25 -60t88 -37l132 -29q191 -38 191 -211q0 -57 -36 -103t-101.5 -72.5t-151.5 -26.5q-74 0 -139.5 23zM482 855l-259 -71l-18 55l249 100z" />
    <glyph glyph-name="sacute" unicode="&#x15b;" horiz-adv-x="513" 
d="M112 29.5q-61 39.5 -75 115.5l102 7q13 -42 44.5 -59t76.5 -17q48 0 79 18t31 48q0 48 -73 65l-97 20q-145 29 -146 141q0 72 56 115.5t152 43.5q97 0 152 -43.5t56 -112.5l-102 -4q-8 40 -37 58.5t-72 18.5q-42 0 -69 -15.5t-27 -52.5q0 -20 19 -34.5t65 -24.5l93 -22
q74 -18 105 -59.5t31 -87.5q0 -48 -28 -83.5t-77.5 -55t-112.5 -19.5q-85 0 -146 39.5zM394 649l-259 -71l-18 55l249 100z" />
    <glyph glyph-name="Scircumflex" unicode="&#x15c;" horiz-adv-x="683" 
d="M207.5 13q-65.5 23 -109 69.5t-51.5 112.5l127 4q12 -53 59.5 -82.5t113.5 -29.5q71 0 117 27.5t46 76.5q0 42 -32.5 66.5t-93.5 37.5l-136 29q-85 17 -132 66t-47 128q0 64 35.5 112.5t98.5 75t141 26.5q82 0 144 -29t97.5 -77.5t41.5 -104.5l-124 -4q-9 61 -50.5 88.5
t-107.5 27.5q-62 0 -103.5 -28t-41.5 -76q0 -37 25 -60t88 -37l132 -29q191 -38 191 -211q0 -57 -36 -103t-101.5 -72.5t-151.5 -26.5q-74 0 -139.5 23zM343 880l-74 -71h-97l129 125h85l126 -125h-102z" />
    <glyph glyph-name="scircumflex" unicode="&#x15d;" horiz-adv-x="513" 
d="M112 29.5q-61 39.5 -75 115.5l102 7q13 -42 44.5 -59t76.5 -17q48 0 79 18t31 48q0 48 -73 65l-97 20q-145 29 -146 141q0 72 56 115.5t152 43.5q97 0 152 -43.5t56 -112.5l-102 -4q-8 40 -37 58.5t-72 18.5q-42 0 -69 -15.5t-27 -52.5q0 -20 19 -34.5t65 -24.5l93 -22
q74 -18 105 -59.5t31 -87.5q0 -48 -28 -83.5t-77.5 -55t-112.5 -19.5q-85 0 -146 39.5zM255 674l-74 -71h-97l129 125h85l126 -125h-102z" />
    <glyph glyph-name="Scedilla" unicode="&#x15e;" horiz-adv-x="683" 
d="M207.5 13q-65.5 23 -109 69.5t-51.5 112.5l127 4q12 -53 59.5 -82.5t113.5 -29.5q71 0 117 27.5t46 76.5q0 42 -32.5 66.5t-93.5 37.5l-136 29q-85 17 -132 66t-47 128q0 64 35.5 112.5t98.5 75t141 26.5q82 0 144 -29t97.5 -77.5t41.5 -104.5l-124 -4q-9 61 -50.5 88.5
t-107.5 27.5q-62 0 -103.5 -28t-41.5 -76q0 -37 25 -60t88 -37l132 -29q191 -38 191 -211q0 -57 -36 -103t-101.5 -72.5t-151.5 -26.5q-74 0 -139.5 23zM412 -188.5q-33 -21.5 -82 -21.5q-64 0 -105 27l18 44q35 -24 73 -24q25 0 38 8.5t13 24.5q0 21 -19 31.5t-63 11.5
q-6 0 -7.5 1.5t0.5 6.5l36 84h58l-23 -59q50 -2 73 -24.5t23 -51.5q0 -37 -33 -58.5z" />
    <glyph glyph-name="scedilla" unicode="&#x15f;" horiz-adv-x="513" 
d="M112 29.5q-61 39.5 -75 115.5l102 7q13 -42 44.5 -59t76.5 -17q48 0 79 18t31 48q0 48 -73 65l-97 20q-145 29 -146 141q0 72 56 115.5t152 43.5q97 0 152 -43.5t56 -112.5l-102 -4q-8 40 -37 58.5t-72 18.5q-42 0 -69 -15.5t-27 -52.5q0 -20 19 -34.5t65 -24.5l93 -22
q74 -18 105 -59.5t31 -87.5q0 -48 -28 -83.5t-77.5 -55t-112.5 -19.5q-85 0 -146 39.5zM330 -188.5q-33 -21.5 -82 -21.5q-64 0 -105 27l18 44q35 -24 73 -24q25 0 38 8.5t13 24.5q0 21 -19 31.5t-63 11.5q-6 0 -7.5 1.5t0.5 6.5l36 84h58l-23 -59q50 -2 73 -24.5t23 -51.5
q0 -37 -33 -58.5z" />
    <glyph glyph-name="Scaron" unicode="&#x160;" horiz-adv-x="683" 
d="M207.5 13q-65.5 23 -109 69.5t-51.5 112.5l127 4q12 -53 59.5 -82.5t113.5 -29.5q71 0 117 27.5t46 76.5q0 42 -32.5 66.5t-93.5 37.5l-136 29q-85 17 -132 66t-47 128q0 64 35.5 112.5t98.5 75t141 26.5q82 0 144 -29t97.5 -77.5t41.5 -104.5l-124 -4q-9 61 -50.5 88.5
t-107.5 27.5q-62 0 -103.5 -28t-41.5 -76q0 -37 25 -60t88 -37l132 -29q191 -38 191 -211q0 -57 -36 -103t-101.5 -72.5t-151.5 -26.5q-74 0 -139.5 23zM512 930l-126 -127h-85l-129 127h97l74 -72l67 72h102z" />
    <glyph glyph-name="scaron" unicode="&#x161;" horiz-adv-x="513" 
d="M112 29.5q-61 39.5 -75 115.5l102 7q13 -42 44.5 -59t76.5 -17q48 0 79 18t31 48q0 48 -73 65l-97 20q-145 29 -146 141q0 72 56 115.5t152 43.5q97 0 152 -43.5t56 -112.5l-102 -4q-8 40 -37 58.5t-72 18.5q-42 0 -69 -15.5t-27 -52.5q0 -20 19 -34.5t65 -24.5l93 -22
q74 -18 105 -59.5t31 -87.5q0 -48 -28 -83.5t-77.5 -55t-112.5 -19.5q-85 0 -146 39.5zM424 724l-126 -127h-85l-129 127h97l74 -72l67 72h102z" />
    <glyph glyph-name="uni0162" unicode="&#x162;" horiz-adv-x="591" 
d="M13 723h564v-110h-217v-613h-121v613h-226v110zM377 -188.5q-33 -21.5 -82 -21.5q-64 0 -105 27l18 44q35 -24 73 -24q25 0 38 8.5t13 24.5q0 21 -19 31.5t-63 11.5q-6 0 -7.5 1.5t0.5 6.5l36 84h58l-23 -59q50 -2 73 -24.5t23 -51.5q0 -37 -33 -58.5z" />
    <glyph glyph-name="uni0163" unicode="&#x163;" horiz-adv-x="409" 
d="M242 431l1 -294q0 -32 11 -44t33 -12h74v-74q-24 -11 -84 -11q-87 0 -121.5 33.5t-34.5 100.5v301h-84v86h88l15 168h102v-167h116v-87h-116zM333 -188.5q-33 -21.5 -82 -21.5q-64 0 -105 27l18 44q35 -24 73 -24q25 0 38 8.5t13 24.5q0 21 -19 31.5t-63 11.5
q-6 0 -7.5 1.5t0.5 6.5l36 84h58l-23 -59q50 -2 73 -24.5t23 -51.5q0 -37 -33 -58.5z" />
    <glyph glyph-name="Tcaron" unicode="&#x164;" horiz-adv-x="591" 
d="M13 723h564v-110h-217v-613h-121v613h-226v110zM474 930l-126 -127h-85l-129 127h97l74 -72l67 72h102z" />
    <glyph glyph-name="tcaron" unicode="&#x165;" horiz-adv-x="409" 
d="M242 431l1 -294q0 -32 11 -44t33 -12h74v-74q-24 -11 -84 -11q-87 0 -121.5 33.5t-34.5 100.5v301h-84v86h88l15 168h102v-167h116v-87h-116zM314.5 563.5q-2.5 3.5 -0.5 7.5l29 72l2 9q0 5 -7 6l-8 2q-8 1 -10.5 3t-2.5 8v85q0 11 9 11h71q9 0 9 -9v-98q0 -3 -1 -4.5
t-1 -2.5l-35 -82q-2 -6 -7 -8.5t-15 -2.5h-26q-4 0 -6.5 3.5z" />
    <glyph glyph-name="Tbar" unicode="&#x166;" horiz-adv-x="591" 
d="M360 613v-211h154v-92h-154v-310h-121v310h-119v92h119v211h-226v110h564v-110h-217z" />
    <glyph glyph-name="tbar" unicode="&#x167;" horiz-adv-x="408" 
d="M368 81v-74q-24 -11 -84 -11q-87 0 -121.5 33.5t-34.5 100.5v118h-87v71h87v112h-84v86h88l15 168h102v-167h116v-87h-116v-112h89v-71h-88v-111q0 -32 11 -44t33 -12h74z" />
    <glyph glyph-name="Utilde" unicode="&#x168;" horiz-adv-x="726" 
d="M574.5 60.5q-66.5 -70.5 -211.5 -70.5q-146 0 -212 71.5t-66 209.5v452h125v-464q0 -83 40 -124t113 -41t114 41t41 124v464h123v-459q0 -133 -66.5 -203.5zM426 829q-29 0 -73 14q-37 13 -63 13q-19 0 -32 -5t-31 -17q-6 -4 -9 -4q-5 0 -8 10l-11 35l-2 8q0 5 7 12
q19 16 37 24.5t44 8.5q18 0 38 -4.5t38 -10.5q16 -5 33 -9.5t32 -4.5q17 0 31.5 6t30.5 16q5 3 9 3q7 0 10 -9l10 -42q1 -2 1 -6q0 -7 -10 -14q-37 -24 -82 -24z" />
    <glyph glyph-name="utilde" unicode="&#x169;" 
d="M174.5 9.5q-44.5 18.5 -73.5 57.5t-29 96v355h122v-341q0 -48 30.5 -72t72.5 -24q46 0 76.5 26.5t31.5 73.5v337h123l-2 -518h-94l-7 76q-19 -37 -66 -61.5t-94 -24.5q-46 1 -90.5 19.5zM365 623q-29 0 -73 14q-37 13 -63 13q-19 0 -32 -5t-31 -17q-6 -4 -9 -4
q-5 0 -8 10l-11 35l-2 8q0 5 7 12q19 16 37 24.5t44 8.5q18 0 38 -4.5t38 -10.5q16 -5 33 -9.5t32 -4.5q17 0 31.5 6t30.5 16q5 3 9 3q7 0 10 -9l10 -42q1 -2 1 -6q0 -7 -10 -14q-37 -24 -82 -24z" />
    <glyph glyph-name="Umacron" unicode="&#x16a;" horiz-adv-x="726" 
d="M574.5 60.5q-66.5 -70.5 -211.5 -70.5q-146 0 -212 71.5t-66 209.5v452h125v-464q0 -83 40 -124t113 -41t114 41t41 124v464h123v-459q0 -133 -66.5 -203.5zM518 840h-327v80h327v-80z" />
    <glyph glyph-name="umacron" unicode="&#x16b;" 
d="M174.5 9.5q-44.5 18.5 -73.5 57.5t-29 96v355h122v-341q0 -48 30.5 -72t72.5 -24q46 0 76.5 26.5t31.5 73.5v337h123l-2 -518h-94l-7 76q-19 -37 -66 -61.5t-94 -24.5q-46 1 -90.5 19.5zM457 634h-327v80h327v-80z" />
    <glyph glyph-name="Ubreve" unicode="&#x16c;" horiz-adv-x="726" 
d="M574.5 60.5q-66.5 -70.5 -211.5 -70.5q-146 0 -212 71.5t-66 209.5v452h125v-464q0 -83 40 -124t113 -41t114 41t41 124v464h123v-459q0 -133 -66.5 -203.5zM461 843q-44 -33 -105 -33q-62 0 -106 32.5t-58 86.5h78q13 -23 34 -38.5t52 -15.5q27 0 50 16t35 38h80
q-16 -53 -60 -86z" />
    <glyph glyph-name="ubreve" unicode="&#x16d;" 
d="M174.5 9.5q-44.5 18.5 -73.5 57.5t-29 96v355h122v-341q0 -48 30.5 -72t72.5 -24q46 0 76.5 26.5t31.5 73.5v337h123l-2 -518h-94l-7 76q-19 -37 -66 -61.5t-94 -24.5q-46 1 -90.5 19.5zM400 637q-44 -33 -105 -33q-62 0 -106 32.5t-58 86.5h78q13 -23 34 -38.5t52 -15.5
q27 0 50 16t35 38h80q-16 -53 -60 -86z" />
    <glyph glyph-name="Uring" unicode="&#x16e;" horiz-adv-x="726" 
d="M574.5 60.5q-66.5 -70.5 -211.5 -70.5q-146 0 -212 71.5t-66 209.5v452h125v-464q0 -83 40 -124t113 -41t114 41t41 124v464h123v-459q0 -133 -66.5 -203.5zM430 808.5q-31 -30.5 -75 -30.5q-45 0 -75.5 31t-30.5 77q0 43 31 72.5t75 29.5t75 -30.5t31 -73.5
q0 -45 -31 -75.5zM390.5 919.5q-14.5 14.5 -36.5 14.5q-21 0 -36.5 -14.5t-15.5 -36.5q0 -20 15.5 -36t36.5 -16t36 15.5t15 36.5q0 22 -14.5 36.5z" />
    <glyph glyph-name="uring" unicode="&#x16f;" 
d="M174.5 9.5q-44.5 18.5 -73.5 57.5t-29 96v355h122v-341q0 -48 30.5 -72t72.5 -24q46 0 76.5 26.5t31.5 73.5v337h123l-2 -518h-94l-7 76q-19 -37 -66 -61.5t-94 -24.5q-46 1 -90.5 19.5zM369 602.5q-31 -30.5 -75 -30.5q-45 0 -75.5 31t-30.5 77q0 43 31 72.5t75 29.5
t75 -30.5t31 -73.5q0 -45 -31 -75.5zM329.5 713.5q-14.5 14.5 -36.5 14.5q-21 0 -36.5 -14.5t-15.5 -36.5q0 -20 15.5 -36t36.5 -16t36 15.5t15 36.5q0 22 -14.5 36.5z" />
    <glyph glyph-name="Uhungarumlaut" unicode="&#x170;" horiz-adv-x="726" 
d="M574.5 60.5q-66.5 -70.5 -211.5 -70.5q-146 0 -212 71.5t-66 209.5v452h125v-464q0 -83 40 -124t113 -41t114 41t41 124v464h123v-459q0 -133 -66.5 -203.5zM376 889q6 -6 6 -13t-9 -12l-130 -95q-9 -6 -13 -6q-5 0 -9 6l-22 24q-4 5 -4.5 10t2.5 8l127 122q6 4 8 4
q5 0 8 -5zM555 889q5 -7 5 -12q0 -7 -9 -13l-131 -95q-7 -6 -12 -6q-6 0 -10 6l-21 24q-5 5 -5 10t4 8l126 122q4 4 8 4q5 0 8 -5z" />
    <glyph glyph-name="uhungarumlaut" unicode="&#x171;" 
d="M174.5 9.5q-44.5 18.5 -73.5 57.5t-29 96v355h122v-341q0 -48 30.5 -72t72.5 -24q46 0 76.5 26.5t31.5 73.5v337h123l-2 -518h-94l-7 76q-19 -37 -66 -61.5t-94 -24.5q-46 1 -90.5 19.5zM315 683q6 -6 6 -13t-9 -12l-130 -95q-9 -6 -13 -6q-5 0 -9 6l-22 24q-4 5 -4.5 10
t2.5 8l127 122q6 4 8 4q5 0 8 -5zM494 683q5 -7 5 -12q0 -7 -9 -13l-131 -95q-7 -6 -12 -6q-6 0 -10 6l-21 24q-5 5 -5 10t4 8l126 122q4 4 8 4q5 0 8 -5z" />
    <glyph glyph-name="Uogonek" unicode="&#x172;" horiz-adv-x="726" 
d="M574.5 60.5q-66.5 -70.5 -211.5 -70.5q-146 0 -212 71.5t-66 209.5v452h125v-464q0 -83 40 -124t113 -41t114 41t41 124v464h123v-459q0 -133 -66.5 -203.5zM288.5 -33q21.5 23 77.5 41l86 -4q-52 -20 -73 -37.5t-21 -39.5q0 -17 9.5 -25.5t31.5 -8.5q33 0 59 14q3 2 8 2
t5 -9v-36q0 -9 -8 -13q-13 -7 -38.5 -12.5t-53.5 -5.5q-50 0 -77 21t-27 60q0 30 21.5 53z" />
    <glyph glyph-name="uogonek" unicode="&#x173;" 
d="M174.5 9.5q-44.5 18.5 -73.5 57.5t-29 96v355h122v-341q0 -48 30.5 -72t72.5 -24q46 0 76.5 26.5t31.5 73.5v337h123l-2 -518h-94l-7 76q-19 -37 -66 -61.5t-94 -24.5q-46 1 -90.5 19.5zM357.5 -34q21.5 23 77.5 41l86 -4q-52 -20 -73 -37.5t-21 -39.5q0 -17 9.5 -25.5
t31.5 -8.5q33 0 59 14q3 2 8 2t5 -9v-36q0 -9 -8 -13q-13 -7 -38.5 -12.5t-53.5 -5.5q-50 0 -77 21t-27 60q0 30 21.5 53z" />
    <glyph glyph-name="Wcircumflex" unicode="&#x174;" horiz-adv-x="960" 
d="M728 0h-103l-146 513l-148 -513h-100l-211 723h120l147 -522l147 522h91l148 -522l147 522h120zM482 880l-74 -71h-97l129 125h85l126 -125h-102z" />
    <glyph glyph-name="wcircumflex" unicode="&#x175;" horiz-adv-x="786" 
d="M599 0h-99l-109 344l-106 -344h-97l-167 517h109l111 -356l108 356h88l111 -355l107 355h111zM397 674l-74 -71h-97l129 125h85l126 -125h-102z" />
    <glyph glyph-name="Ycircumflex" unicode="&#x176;" horiz-adv-x="630" 
d="M376 306v-306h-122v306l-249 417h132l179 -311l175 311h133zM326 880l-74 -71h-97l129 125h85l126 -125h-102z" />
    <glyph glyph-name="ycircumflex" unicode="&#x177;" horiz-adv-x="551" 
d="M88 -161.5q-20 3.5 -29 7t-11 4.5v78l52 -1q55 -3 76 13t31 40l13 37l-201 500h121l137 -365l137 365h119l-213 -536q-34 -83 -77.5 -114.5t-105.5 -31.5q-29 0 -49 3.5zM289 674l-74 -71h-97l129 125h85l126 -125h-102z" />
    <glyph glyph-name="Ydieresis" unicode="&#x178;" horiz-adv-x="630" 
d="M376 306v-306h-122v306l-249 417h132l179 -311l175 311h133zM293 811h-110v118h110v-118zM469 811h-111v118h111v-118z" />
    <glyph glyph-name="Zacute" unicode="&#x179;" horiz-adv-x="646" 
d="M48 62l380 558h-359v103h532v-59l-385 -560h382v-104h-550v62zM479 855l-259 -71l-18 55l249 100z" />
    <glyph glyph-name="zacute" unicode="&#x17a;" horiz-adv-x="501" 
d="M34 67l281 371h-259v79h409v-66l-281 -371h285v-80h-435v67zM403 649l-259 -71l-18 55l249 100z" />
    <glyph glyph-name="Zdotaccent" unicode="&#x17b;" horiz-adv-x="646" 
d="M48 62l380 558h-359v103h532v-59l-385 -560h382v-104h-550v62zM404 798h-126v131h126v-131z" />
    <glyph glyph-name="zdotaccent" unicode="&#x17c;" horiz-adv-x="501" 
d="M34 67l281 371h-259v79h409v-66l-281 -371h285v-80h-435v67zM328 592h-126v131h126v-131z" />
    <glyph glyph-name="Zcaron" unicode="&#x17d;" horiz-adv-x="646" 
d="M48 62l380 558h-359v103h532v-59l-385 -560h382v-104h-550v62zM509 930l-126 -127h-85l-129 127h97l74 -72l67 72h102z" />
    <glyph glyph-name="zcaron" unicode="&#x17e;" horiz-adv-x="501" 
d="M34 67l281 371h-259v79h409v-66l-281 -371h285v-80h-435v67zM432 724l-126 -127h-85l-129 127h97l74 -72l67 72h102z" />
    <glyph glyph-name="uni018F" unicode="&#x18f;" horiz-adv-x="740" 
d="M508 558.5q-37 65.5 -137 65.5q-49 0 -82.5 -18.5t-51.5 -44t-37 -62.5l-15 -27q-1 -4 -6 -4q-3 0 -11 3l-89 41q-6 3 -6 9q0 5 3 11q41 84 108 142.5t186 58.5q110 0 182.5 -51t106.5 -134.5t34 -183.5q0 -101 -39 -186.5t-113 -136.5t-173 -51q-164 0 -242.5 103
t-78.5 279q0 12 3 17t13 5h469q7 0 10 3t3 11q0 85 -37 150.5zM212 302q-9 0 -12 -2.5t-3 -9.5q0 -83 41.5 -141.5t128.5 -58.5q92 0 131.5 57t45.5 155h-332z" />
    <glyph glyph-name="florin" unicode="&#x192;" horiz-adv-x="486" 
d="M407 431h-117l-81 -466q-11 -62 -52 -97t-106 -35h-101l13 83h58q32 1 47.5 16.5t22.5 57.5l77 441h-83l15 86h83l14 77q11 62 52 95.5t104 33.5h109l-13 -83h-70q-24 0 -42.5 -18t-23.5 -47l-10 -58h119z" />
    <glyph glyph-name="uni01C4" unicode="&#x1c4;" horiz-adv-x="1348" 
d="M280 722q193 -4 284 -95t91 -262q0 -177 -95.5 -271t-287.5 -94h-187v723q133 0 195 -1zM209 101h65q119 0 186 62.5t67 201.5q0 136 -64 197t-186 61h-68v-522zM750 62l380 558h-359v103h532v-59l-385 -560h382v-104h-550v62zM1211 930l-126 -127h-85l-129 127h97
l74 -72l67 72h102z" />
    <glyph glyph-name="uni01C5" unicode="&#x1c5;" horiz-adv-x="1203" 
d="M280 722q193 -4 284 -95t91 -262q0 -177 -95.5 -271t-287.5 -94h-187v723q133 0 195 -1zM209 101h65q119 0 186 62.5t67 201.5q0 136 -64 197t-186 61h-68v-522zM736 67l281 371h-259v79h409v-66l-281 -371h285v-80h-435v67zM1134 724l-126 -127h-85l-129 127h97l74 -72
l67 72h102z" />
    <glyph glyph-name="uni01C6" unicode="&#x1c6;" horiz-adv-x="1096" 
d="M98.5 60q-57.5 70 -57.5 196q0 125 55.5 198t155.5 73q92 0 149 -67v283h122v-743h-90l-8 72q-23 -31 -65 -56.5t-103 -25.5q-101 0 -158.5 70zM367.5 116.5q33.5 36.5 33.5 88.5v140q-31 91 -114 91q-58 0 -92.5 -44t-34.5 -133q0 -91 34 -135t91 -44q49 0 82.5 36.5z
M629 67l281 371h-259v79h409v-66l-281 -371h285v-80h-435v67zM1027 724l-126 -127h-85l-129 127h97l74 -72l67 72h102z" />
    <glyph glyph-name="uni01C7" unicode="&#x1c7;" horiz-adv-x="998" 
d="M209 723v-618h326v-105h-450v723h124zM897.5 76.5q-14.5 -42.5 -51.5 -64.5t-104 -22q-32 0 -66 6t-56 13l5 113q6 -2 29 -9.5t51 -7.5q49 0 67.5 26t18.5 89v503h121v-536q0 -68 -14.5 -110.5z" />
    <glyph glyph-name="uni01C8" unicode="&#x1c8;" horiz-adv-x="848" 
d="M209 723v-618h326v-105h-450v723h124zM770 611h-126v132h126v-132zM730.5 -127.5q-37.5 -38.5 -122.5 -38.5q-24 0 -38.5 3t-20 6t-6.5 4l-1 81l45 4q33 3 46 17.5t13 44.5v523h122v-526q0 -80 -37.5 -118.5z" />
    <glyph glyph-name="uni01C9" unicode="&#x1c9;" horiz-adv-x="593" 
d="M126 15q-33 20 -43.5 51.5t-10.5 75.5v601h120v-587q0 -34 14 -52.5t44 -21.5l26 -1v-76q-30 -10 -54 -10q-63 0 -96 20zM515 611h-126v132h126v-132zM475.5 -127.5q-37.5 -38.5 -122.5 -38.5q-24 0 -38.5 3t-20 6t-6.5 4l-1 81l45 4q33 3 46 17.5t13 44.5v523h122v-526
q0 -80 -37.5 -118.5z" />
    <glyph glyph-name="uni01CA" unicode="&#x1ca;" horiz-adv-x="1165" 
d="M680 723v-723h-110l-363 530v-530h-122v723h119l354 -516v516h122zM1064.5 76.5q-14.5 -42.5 -51.5 -64.5t-104 -22q-32 0 -66 6t-56 13l5 113q6 -2 29 -9.5t51 -7.5q49 0 67.5 26t18.5 89v503h121v-536q0 -68 -14.5 -110.5z" />
    <glyph glyph-name="uni01CB" unicode="&#x1cb;" horiz-adv-x="1050" 
d="M680 723v-723h-110l-363 530v-530h-122v723h119l354 -516v516h122zM972 611h-126v132h126v-132zM932.5 -127.5q-37.5 -38.5 -122.5 -38.5q-24 0 -38.5 3t-20 6t-6.5 4l-1 81l45 4q33 3 46 17.5t13 44.5v523h122v-526q0 -80 -37.5 -118.5z" />
    <glyph glyph-name="uni01CC" unicode="&#x1cc;" horiz-adv-x="885" 
d="M72 517h119v-69q26 35 62.5 55t93.5 20q49 0 90 -22t66 -63t25 -96v-342h-122v329q0 45 -27.5 71t-71.5 26q-47 0 -80 -22.5t-33 -63.5v-340h-122v517zM807 611h-126v132h126v-132zM767.5 -127.5q-37.5 -38.5 -122.5 -38.5q-24 0 -38.5 3t-20 6t-6.5 4l-1 81l45 4
q33 3 46 17.5t13 44.5v523h122v-526q0 -80 -37.5 -118.5z" />
    <glyph glyph-name="uni01EA" unicode="&#x1ea;" horiz-adv-x="742" 
d="M198.5 34q-73.5 44 -112.5 127t-39 198q0 116 40 200.5t113 129t172 44.5q98 0 170.5 -44.5t112 -128.5t39.5 -200q0 -115 -39 -198.5t-111.5 -127.5t-171.5 -44q-100 0 -173.5 44zM513 157q49 65 49 201q0 139 -49.5 206t-140.5 67t-141 -67t-50 -206q0 -136 50 -201
t141 -65q92 0 141 65zM302.5 -34q21.5 23 77.5 41l86 -4q-52 -20 -73 -37.5t-21 -39.5q0 -17 9.5 -25.5t31.5 -8.5q33 0 59 14q3 2 8 2t5 -9v-36q0 -9 -8 -13q-13 -7 -38.5 -12.5t-53.5 -5.5q-50 0 -77 21t-27 60q0 30 21.5 53z" />
    <glyph glyph-name="uni01EB" unicode="&#x1eb;" horiz-adv-x="569" 
d="M155 23.5q-55 33.5 -84.5 93.5t-29.5 138q0 80 30 141.5t86 96t129 34.5q74 0 129 -34.5t84 -96t29 -140.5q0 -78 -29 -138.5t-84 -94t-130 -33.5t-130 33.5zM379 132.5q30 50.5 30 127.5t-30.5 126t-92.5 49q-64 0 -94.5 -49t-30.5 -126t31 -127.5t94 -50.5t93 50.5z
M205.5 -34q21.5 23 77.5 41l86 -4q-52 -20 -73 -37.5t-21 -39.5q0 -17 9.5 -25.5t31.5 -8.5q33 0 59 14q3 2 8 2t5 -9v-36q0 -9 -8 -13q-13 -7 -38.5 -12.5t-53.5 -5.5q-50 0 -77 21t-27 60q0 30 21.5 53z" />
    <glyph glyph-name="uni01F1" unicode="&#x1f1;" horiz-adv-x="1348" 
d="M280 722q193 -4 284 -95t91 -262q0 -177 -95.5 -271t-287.5 -94h-187v723q133 0 195 -1zM209 101h65q119 0 186 62.5t67 201.5q0 136 -64 197t-186 61h-68v-522zM750 62l380 558h-359v103h532v-59l-385 -560h382v-104h-550v62z" />
    <glyph glyph-name="uni01F2" unicode="&#x1f2;" horiz-adv-x="1203" 
d="M280 722q193 -4 284 -95t91 -262q0 -177 -95.5 -271t-287.5 -94h-187v723q133 0 195 -1zM209 101h65q119 0 186 62.5t67 201.5q0 136 -64 197t-186 61h-68v-522zM736 67l281 371h-259v79h409v-66l-281 -371h285v-80h-435v67z" />
    <glyph glyph-name="uni01F3" unicode="&#x1f3;" horiz-adv-x="1096" 
d="M98.5 60q-57.5 70 -57.5 196q0 125 55.5 198t155.5 73q92 0 149 -67v283h122v-743h-90l-8 72q-23 -31 -65 -56.5t-103 -25.5q-101 0 -158.5 70zM367.5 116.5q33.5 36.5 33.5 88.5v140q-31 91 -114 91q-58 0 -92.5 -44t-34.5 -133q0 -91 34 -135t91 -44q49 0 82.5 36.5z
M629 67l281 371h-259v79h409v-66l-281 -371h285v-80h-435v67z" />
    <glyph glyph-name="uni01F4" unicode="&#x1f4;" horiz-adv-x="741" 
d="M196.5 35.5q-71.5 45.5 -110.5 128.5t-39 195q0 114 40.5 198.5t113.5 130t170 45.5q77 0 141 -32.5t102 -86t41 -113.5l-129 -4q-11 57 -53.5 94t-104.5 37q-87 0 -138 -66.5t-51 -196.5q0 -138 53 -202.5t140 -64.5q48 0 83.5 21.5t55 53.5t22.5 64l5 54h-162v86
l289 -2v-375h-86v102q-34 -50 -85 -81t-130 -31q-96 0 -167.5 45.5zM504 855l-259 -71l-18 55l249 100z" />
    <glyph glyph-name="uni01F5" unicode="&#x1f5;" horiz-adv-x="618" 
d="M100 -135.5q-70 35.5 -70 95.5q0 40 27 62t47.5 31t24.5 11q-3 2 -19.5 11t-28 25t-11.5 36q0 27 25.5 49t73.5 31q-100 49 -100 146q0 76 65.5 119.5t169.5 43.5q49 0 83.5 -11t66.5 -32l143 58l-1 -100l-90 -16q6 -12 10 -30.5t4 -30.5q0 -45 -25.5 -83.5t-76 -61.5
t-123.5 -23q-20 0 -42 2q-70 -3 -70 -28q0 -12 20 -17t74 -9l110 -6q90 -6 134.5 -44t44.5 -100q0 -76 -69 -120t-197 -44q-130 0 -200 35.5zM377 291q28 24 28 68q0 45 -28.5 71.5t-78.5 26.5t-79 -26.5t-29 -71.5q0 -43 28.5 -67.5t79.5 -24.5t79 24zM418.5 -82
q30.5 17 30.5 53q0 58 -85 64l-131 9q-32 2 -58 -19.5t-26 -50.5q0 -38 43 -55.5t128 -17.5q68 0 98.5 17zM443 649l-259 -71l-18 55l249 100z" />
    <glyph glyph-name="Aringacute" unicode="&#x1fa;" horiz-adv-x="717" 
d="M684 2h-145l-62 183h-264l-63 -183h-122l249 713q-23 28 -23 66q0 35 22 60.5t56 32.5l15 66h78l-29 -70q28 -12 45.5 -36t17.5 -55q0 -35 -21 -62zM318.5 814.5q-15.5 -14.5 -15.5 -36.5q0 -21 16 -37t36 -16q21 0 36.5 16t15.5 37q0 22 -15 36.5t-37 14.5
q-21 0 -36.5 -14.5zM448 291l-103 301l-104 -301h207z" />
    <glyph glyph-name="aringacute" unicode="&#x1fb;" horiz-adv-x="567" 
d="M89 31q-48 41 -48 113q0 85 62 126.5t197 46.5l78 5v32q0 41 -25.5 64.5t-70.5 23.5q-37 0 -70 -17t-54 -52l-100 10q17 70 78 107t149 37q107 0 158.5 -43.5t51.5 -121.5v-362h-103l-9 69q-28 -37 -71.5 -58t-97.5 -21q-77 0 -125 41zM312 87q29 14 47.5 37t18.5 47v83
l-64 -4q-78 -5 -117 -25t-39 -69q0 -38 26.5 -60.5t68.5 -22.5q30 0 59 14zM422 649l-259 -71l-18 55l249 100zM358 602.5q-31 -30.5 -75 -30.5q-45 0 -75.5 31t-30.5 77q0 43 31 72.5t75 29.5t75 -30.5t31 -73.5q0 -45 -31 -75.5zM318.5 713.5q-14.5 14.5 -36.5 14.5
q-21 0 -36.5 -14.5t-15.5 -36.5q0 -20 15.5 -36t36.5 -16t36 15.5t15 36.5q0 22 -14.5 36.5z" />
    <glyph glyph-name="AEacute" unicode="&#x1fc;" horiz-adv-x="1042" 
d="M982 0h-494v183h-239l-99 -183h-123l393 723h551l-1 -103h-343v-205h243v-101h-243v-211h355v-103zM488 640l-192 -350h192v350zM822 855l-259 -71l-18 55l249 100z" />
    <glyph glyph-name="aeacute" unicode="&#x1fd;" horiz-adv-x="918" 
d="M521.5 155.5q19.5 -36.5 52.5 -58t73 -21.5q47 0 79 20t65 59l77 -36q-41 -67 -98.5 -98t-137.5 -31q-120 0 -201 96q-4 4 -8 0q-43 -45 -92.5 -70.5t-123.5 -25.5q-78 0 -122 39.5t-44 106.5q0 77 65.5 122.5t193.5 53.5l81 6v36q0 44 -25.5 68.5t-75.5 24.5
q-77 0 -122 -77l-103 27q32 65 86.5 97.5t144.5 32.5q134 -1 177 -76q30 37 73 56.5t95 19.5q73 0 128.5 -34.5t86.5 -100.5t31 -157l-375 -1q0 -42 19.5 -78.5zM542 410q-37 -38 -37 -104l252 -1q0 35 -15 68t-42.5 54t-64.5 21q-56 0 -93 -38zM314 245q-69 -5 -110.5 -31
t-41.5 -70q0 -34 23 -54.5t64 -20.5q53 0 92.5 27.5t39.5 67.5v86zM592 649l-259 -71l-18 55l249 100z" />
    <glyph glyph-name="Oslashacute" unicode="&#x1fe;" horiz-adv-x="743" 
d="M723 678q0 -4 -5 -9l-78 -84q53 -92 53 -225q0 -115 -39.5 -198.5t-112.5 -127.5t-172 -44q-135 0 -217 79l-64 -67q-7 -9 -15 -9q-6 0 -16 8l-28 29q-9 9 -9 15q0 5 5 10l74 79q-53 88 -53 225q0 116 39.5 200.5t112.5 129t172 44.5q134 0 219 -83l68 73q7 7 14 7
q4 0 8 -4l39 -38q5 -5 5 -10zM209 244l295 321q-44 69 -134 69q-91 0 -134.5 -67t-43.5 -209q0 -70 17 -114zM529 475l-294 -321q45 -64 135 -64q91 0 133.5 64t42.5 204q0 68 -17 117zM508 855l-259 -71l-18 55l249 100z" />
    <glyph glyph-name="oslashacute" unicode="&#x1ff;" horiz-adv-x="588" 
d="M497 411q37 -66 37 -155q0 -78 -29 -138.5t-84 -94t-130 -33.5q-103 0 -169 63l-62 -60l-43 46l67 64q-37 65 -37 152q0 80 30 141.5t86 96t129 34.5q102 0 167 -65l63 60l43 -46zM175 190l208 199q-33 46 -91 46q-64 0 -94.5 -49t-30.5 -126q0 -41 8 -70zM408 326
l-207 -198q33 -46 91 -46q63 0 93 50.5t30 127.5q0 38 -7 66zM431 649l-259 -71l-18 55l249 100z" />
    <glyph glyph-name="uni0200" unicode="&#x200;" horiz-adv-x="705" 
d="M287 723h132l260 -723h-123l-64 181h-276l-66 -181h-123zM462 290l-108 315l-110 -315h218zM335 804l-38 -44l-161 114l56 67zM512 804l-38 -44l-161 114l57 67z" />
    <glyph glyph-name="uni0201" unicode="&#x201;" horiz-adv-x="567" 
d="M89 31q-48 41 -48 113q0 85 62 126.5t197 46.5l78 5v32q0 41 -25.5 64.5t-70.5 23.5q-37 0 -70 -17t-54 -52l-100 10q17 70 78 107t149 37q107 0 158.5 -43.5t51.5 -121.5v-362h-103l-9 69q-28 -37 -71.5 -58t-97.5 -21q-77 0 -125 41zM312 87q29 14 47.5 37t18.5 47v83
l-64 -4q-78 -5 -117 -25t-39 -69q0 -38 26.5 -60.5t68.5 -22.5q30 0 59 14zM257 598l-38 -44l-161 114l56 67zM434 598l-38 -44l-161 114l57 67z" />
    <glyph glyph-name="uni0202" unicode="&#x202;" horiz-adv-x="705" 
d="M287 723h132l260 -723h-123l-64 181h-276l-66 -181h-123zM462 290l-108 315l-110 -315h218zM453 848q-12 22 -35 38t-50 16q-31 0 -52 -15.5t-34 -38.5h-78q14 54 58 86.5t106 32.5q61 0 105 -33t60 -86h-80z" />
    <glyph glyph-name="uni0203" unicode="&#x203;" horiz-adv-x="567" 
d="M89 31q-48 41 -48 113q0 85 62 126.5t197 46.5l78 5v32q0 41 -25.5 64.5t-70.5 23.5q-37 0 -70 -17t-54 -52l-100 10q17 70 78 107t149 37q107 0 158.5 -43.5t51.5 -121.5v-362h-103l-9 69q-28 -37 -71.5 -58t-97.5 -21q-77 0 -125 41zM312 87q29 14 47.5 37t18.5 47v83
l-64 -4q-78 -5 -117 -25t-39 -69q0 -38 26.5 -60.5t68.5 -22.5q30 0 59 14zM375 642q-12 22 -35 38t-50 16q-31 0 -52 -15.5t-34 -38.5h-78q14 54 58 86.5t106 32.5q61 0 105 -33t60 -86h-80z" />
    <glyph glyph-name="uni0204" unicode="&#x204;" horiz-adv-x="630" 
d="M85 723h478v-104h-355v-203h313v-103h-314v-207l363 -1v-105h-485v723zM305 804l-38 -44l-161 114l56 67zM482 804l-38 -44l-161 114l57 67z" />
    <glyph glyph-name="uni0205" unicode="&#x205;" horiz-adv-x="559" 
d="M196 122q34 -41 95 -41q43 0 71.5 17t42.5 53l109 -8q-15 -70 -77.5 -111.5t-142.5 -41.5q-74 0 -131.5 32t-89.5 91.5t-32 139.5t29 142t84 97t131 35q111 0 172 -70.5t61 -189.5v-37h-356q0 -67 34 -108zM404 306q0 59 -31 96t-89 37q-57 0 -89.5 -40t-32.5 -93h242z
M259 598l-38 -44l-161 114l56 67zM436 598l-38 -44l-161 114l57 67z" />
    <glyph glyph-name="uni0206" unicode="&#x206;" horiz-adv-x="630" 
d="M85 723h478v-104h-355v-203h313v-103h-314v-207l363 -1v-105h-485v723zM423 848q-12 22 -35 38t-50 16q-31 0 -52 -15.5t-34 -38.5h-78q14 54 58 86.5t106 32.5q61 0 105 -33t60 -86h-80z" />
    <glyph glyph-name="uni0207" unicode="&#x207;" horiz-adv-x="559" 
d="M196 122q34 -41 95 -41q43 0 71.5 17t42.5 53l109 -8q-15 -70 -77.5 -111.5t-142.5 -41.5q-74 0 -131.5 32t-89.5 91.5t-32 139.5t29 142t84 97t131 35q111 0 172 -70.5t61 -189.5v-37h-356q0 -67 34 -108zM404 306q0 59 -31 96t-89 37q-57 0 -89.5 -40t-32.5 -93h242z
M377 642q-12 22 -35 38t-50 16q-31 0 -52 -15.5t-34 -38.5h-78q14 54 58 86.5t106 32.5q61 0 105 -33t60 -86h-80z" />
    <glyph glyph-name="uni0208" unicode="&#x208;" horiz-adv-x="292" 
d="M207 723v-723h-122v723h122zM122 804l-38 -44l-161 114l56 67zM299 804l-38 -44l-161 114l57 67z" />
    <glyph glyph-name="uni0209" unicode="&#x209;" horiz-adv-x="266" 
d="M194 0h-122v517h122v-517zM109 598l-38 -44l-161 114l56 67zM286 598l-38 -44l-161 114l57 67z" />
    <glyph glyph-name="uni020A" unicode="&#x20a;" horiz-adv-x="292" 
d="M207 723v-723h-122v723h122zM240 848q-12 22 -35 38t-50 16q-31 0 -52 -15.5t-34 -38.5h-78q14 54 58 86.5t106 32.5q61 0 105 -33t60 -86h-80z" />
    <glyph glyph-name="uni020B" unicode="&#x20b;" horiz-adv-x="266" 
d="M194 0h-122v517h122v-517zM227 642q-12 22 -35 38t-50 16q-31 0 -52 -15.5t-34 -38.5h-78q14 54 58 86.5t106 32.5q61 0 105 -33t60 -86h-80z" />
    <glyph glyph-name="uni020C" unicode="&#x20c;" horiz-adv-x="742" 
d="M198.5 34q-73.5 44 -112.5 127t-39 198q0 116 40 200.5t113 129t172 44.5q98 0 170.5 -44.5t112 -128.5t39.5 -200q0 -115 -39 -198.5t-111.5 -127.5t-171.5 -44q-100 0 -173.5 44zM513 157q49 65 49 201q0 139 -49.5 206t-140.5 67t-141 -67t-50 -206q0 -136 50 -201
t141 -65q92 0 141 65zM346 804l-38 -44l-161 114l56 67zM523 804l-38 -44l-161 114l57 67z" />
    <glyph glyph-name="uni020D" unicode="&#x20d;" horiz-adv-x="569" 
d="M155 23.5q-55 33.5 -84.5 93.5t-29.5 138q0 80 30 141.5t86 96t129 34.5q74 0 129 -34.5t84 -96t29 -140.5q0 -78 -29 -138.5t-84 -94t-130 -33.5t-130 33.5zM379 132.5q30 50.5 30 127.5t-30.5 126t-92.5 49q-64 0 -94.5 -49t-30.5 -126t31 -127.5t94 -50.5t93 50.5z
M260 598l-38 -44l-161 114l56 67zM437 598l-38 -44l-161 114l57 67z" />
    <glyph glyph-name="uni020E" unicode="&#x20e;" horiz-adv-x="742" 
d="M198.5 34q-73.5 44 -112.5 127t-39 198q0 116 40 200.5t113 129t172 44.5q98 0 170.5 -44.5t112 -128.5t39.5 -200q0 -115 -39 -198.5t-111.5 -127.5t-171.5 -44q-100 0 -173.5 44zM513 157q49 65 49 201q0 139 -49.5 206t-140.5 67t-141 -67t-50 -206q0 -136 50 -201
t141 -65q92 0 141 65zM464 848q-12 22 -35 38t-50 16q-31 0 -52 -15.5t-34 -38.5h-78q14 54 58 86.5t106 32.5q61 0 105 -33t60 -86h-80z" />
    <glyph glyph-name="uni020F" unicode="&#x20f;" horiz-adv-x="569" 
d="M155 23.5q-55 33.5 -84.5 93.5t-29.5 138q0 80 30 141.5t86 96t129 34.5q74 0 129 -34.5t84 -96t29 -140.5q0 -78 -29 -138.5t-84 -94t-130 -33.5t-130 33.5zM379 132.5q30 50.5 30 127.5t-30.5 126t-92.5 49q-64 0 -94.5 -49t-30.5 -126t31 -127.5t94 -50.5t93 50.5z
M378 642q-12 22 -35 38t-50 16q-31 0 -52 -15.5t-34 -38.5h-78q14 54 58 86.5t106 32.5q61 0 105 -33t60 -86h-80z" />
    <glyph glyph-name="uni0210" unicode="&#x210;" horiz-adv-x="686" 
d="M499 0l-124 294h-168v-294h-122v723h294q121 0 182 -55.5t61 -152.5q0 -143 -134 -201l138 -314h-127zM459 422q39 32 39 89q0 55 -35.5 86t-95.5 31h-160v-238h144q69 0 108 32zM307 804l-38 -44l-161 114l56 67zM484 804l-38 -44l-161 114l57 67z" />
    <glyph glyph-name="uni0211" unicode="&#x211;" horiz-adv-x="406" 
d="M72 517h117v-120q24 57 74 93.5t110 36.5l1 -116l-19 1q-51 0 -87.5 -17.5t-55 -45t-18.5 -57.5v-292h-122v517zM196 598l-38 -44l-161 114l56 67zM373 598l-38 -44l-161 114l57 67z" />
    <glyph glyph-name="uni0212" unicode="&#x212;" horiz-adv-x="686" 
d="M499 0l-124 294h-168v-294h-122v723h294q121 0 182 -55.5t61 -152.5q0 -143 -134 -201l138 -314h-127zM459 422q39 32 39 89q0 55 -35.5 86t-95.5 31h-160v-238h144q69 0 108 32zM425 848q-12 22 -35 38t-50 16q-31 0 -52 -15.5t-34 -38.5h-78q14 54 58 86.5t106 32.5
q61 0 105 -33t60 -86h-80z" />
    <glyph glyph-name="uni0213" unicode="&#x213;" horiz-adv-x="406" 
d="M72 517h117v-120q24 57 74 93.5t110 36.5l1 -116l-19 1q-51 0 -87.5 -17.5t-55 -45t-18.5 -57.5v-292h-122v517zM314 642q-12 22 -35 38t-50 16q-31 0 -52 -15.5t-34 -38.5h-78q14 54 58 86.5t106 32.5q61 0 105 -33t60 -86h-80z" />
    <glyph glyph-name="uni0214" unicode="&#x214;" horiz-adv-x="726" 
d="M574.5 60.5q-66.5 -70.5 -211.5 -70.5q-146 0 -212 71.5t-66 209.5v452h125v-464q0 -83 40 -124t113 -41t114 41t41 124v464h123v-459q0 -133 -66.5 -203.5zM329 804l-38 -44l-161 114l56 67zM506 804l-38 -44l-161 114l57 67z" />
    <glyph glyph-name="uni0215" unicode="&#x215;" 
d="M174.5 9.5q-44.5 18.5 -73.5 57.5t-29 96v355h122v-341q0 -48 30.5 -72t72.5 -24q46 0 76.5 26.5t31.5 73.5v337h123l-2 -518h-94l-7 76q-19 -37 -66 -61.5t-94 -24.5q-46 1 -90.5 19.5zM268 598l-38 -44l-161 114l56 67zM445 598l-38 -44l-161 114l57 67z" />
    <glyph glyph-name="uni0216" unicode="&#x216;" horiz-adv-x="726" 
d="M574.5 60.5q-66.5 -70.5 -211.5 -70.5q-146 0 -212 71.5t-66 209.5v452h125v-464q0 -83 40 -124t113 -41t114 41t41 124v464h123v-459q0 -133 -66.5 -203.5zM447 848q-12 22 -35 38t-50 16q-31 0 -52 -15.5t-34 -38.5h-78q14 54 58 86.5t106 32.5q61 0 105 -33t60 -86
h-80z" />
    <glyph glyph-name="uni0217" unicode="&#x217;" 
d="M174.5 9.5q-44.5 18.5 -73.5 57.5t-29 96v355h122v-341q0 -48 30.5 -72t72.5 -24q46 0 76.5 26.5t31.5 73.5v337h123l-2 -518h-94l-7 76q-19 -37 -66 -61.5t-94 -24.5q-46 1 -90.5 19.5zM386 642q-12 22 -35 38t-50 16q-31 0 -52 -15.5t-34 -38.5h-78q14 54 58 86.5
t106 32.5q61 0 105 -33t60 -86h-80z" />
    <glyph glyph-name="Scommaaccent" unicode="&#x218;" horiz-adv-x="683" 
d="M207.5 13q-65.5 23 -109 69.5t-51.5 112.5l127 4q12 -53 59.5 -82.5t113.5 -29.5q71 0 117 27.5t46 76.5q0 42 -32.5 66.5t-93.5 37.5l-136 29q-85 17 -132 66t-47 128q0 64 35.5 112.5t98.5 75t141 26.5q82 0 144 -29t97.5 -77.5t41.5 -104.5l-124 -4q-9 61 -50.5 88.5
t-107.5 27.5q-62 0 -103.5 -28t-41.5 -76q0 -37 25 -60t88 -37l132 -29q191 -38 191 -211q0 -57 -36 -103t-101.5 -72.5t-151.5 -26.5q-74 0 -139.5 23zM295.5 -230.5q-2.5 4.5 0.5 9.5l29 48q3 4 3 9q0 10 -10 10h-8q-9 0 -12 3.5t-3 11.5v62q0 14 11 14h70q11 0 11 -11
v-80q0 -4 -1 -6t-1 -4l-42 -61q-4 -6 -9 -8t-15 -2h-15q-6 0 -8.5 4.5z" />
    <glyph glyph-name="scommaaccent" unicode="&#x219;" horiz-adv-x="513" 
d="M112 29.5q-61 39.5 -75 115.5l102 7q13 -42 44.5 -59t76.5 -17q48 0 79 18t31 48q0 48 -73 65l-97 20q-145 29 -146 141q0 72 56 115.5t152 43.5q97 0 152 -43.5t56 -112.5l-102 -4q-8 40 -37 58.5t-72 18.5q-42 0 -69 -15.5t-27 -52.5q0 -20 19 -34.5t65 -24.5l93 -22
q74 -18 105 -59.5t31 -87.5q0 -48 -28 -83.5t-77.5 -55t-112.5 -19.5q-85 0 -146 39.5zM213.5 -230.5q-2.5 4.5 0.5 9.5l29 48q3 4 3 9q0 10 -10 10h-8q-9 0 -12 3.5t-3 11.5v62q0 14 11 14h70q11 0 11 -11v-80q0 -4 -1 -6t-1 -4l-42 -61q-4 -6 -9 -8t-15 -2h-15
q-6 0 -8.5 4.5z" />
    <glyph glyph-name="uni021A" unicode="&#x21a;" horiz-adv-x="591" 
d="M13 723h564v-110h-217v-613h-121v613h-226v110zM260.5 -230.5q-2.5 4.5 0.5 9.5l29 48q3 4 3 9q0 10 -10 10h-8q-9 0 -12 3.5t-3 11.5v62q0 14 11 14h70q11 0 11 -11v-80q0 -4 -1 -6t-1 -4l-42 -61q-4 -6 -9 -8t-15 -2h-15q-6 0 -8.5 4.5z" />
    <glyph glyph-name="uni021B" unicode="&#x21b;" horiz-adv-x="409" 
d="M242 431l1 -294q0 -32 11 -44t33 -12h74v-74q-24 -11 -84 -11q-87 0 -121.5 33.5t-34.5 100.5v301h-84v86h88l15 168h102v-167h116v-87h-116zM216.5 -230.5q-2.5 4.5 0.5 9.5l29 48q3 4 3 9q0 10 -10 10h-8q-9 0 -12 3.5t-3 11.5v62q0 14 11 14h70q11 0 11 -11v-80
q0 -4 -1 -6t-1 -4l-42 -61q-4 -6 -9 -8t-15 -2h-15q-6 0 -8.5 4.5z" />
    <glyph glyph-name="uni0237" unicode="&#x237;" horiz-adv-x="260" 
d="M151 -127.5q-38 -38.5 -122 -38.5q-36 0 -50.5 4t-14.5 9l-1 81l45 4q33 3 46 17.5t13 44.5v523h122v-526q0 -80 -38 -118.5z" />
    <glyph glyph-name="uni0259" unicode="&#x259;" horiz-adv-x="559" 
d="M363 395q-34 41 -95 41q-43 0 -71.5 -17t-42.5 -53l-109 8q15 70 77.5 111.5t142.5 41.5q74 0 131.5 -32t89.5 -91.5t32 -139.5t-29 -142t-84 -97t-131 -35q-111 0 -172 70.5t-61 189.5v37h356q0 67 -34 108zM155 211q0 -59 31 -96t89 -37q57 0 89.5 40t32.5 93h-242z
" />
    <glyph glyph-name="uni02BC" unicode="&#x2bc;" horiz-adv-x="172" 
d="M39 452.5q-2 3.5 -1 7.5l30 110l2 9q0 6 -7 7l-8 1q-7 0 -10 2.5t-3 9.5v113q0 11 10 11h71q9 0 9 -9v-127q0 -5 -2 -7l-36 -120q-3 -11 -21 -11h-27q-5 0 -7 3.5z" />
    <glyph glyph-name="circumflex" unicode="&#x2c6;" horiz-adv-x="358" 
d="M176 674l-74 -71h-97l129 125h85l126 -125h-102z" />
    <glyph glyph-name="caron" unicode="&#x2c7;" horiz-adv-x="358" 
d="M345 724l-126 -127h-85l-129 127h97l74 -72l67 72h102z" />
    <glyph glyph-name="breve" unicode="&#x2d8;" horiz-adv-x="359" 
d="M282 637q-44 -33 -105 -33q-62 0 -106 32.5t-58 86.5h78q13 -23 34 -38.5t52 -15.5q27 0 50 16t35 38h80q-16 -53 -60 -86z" />
    <glyph glyph-name="dotaccent" unicode="&#x2d9;" horiz-adv-x="158" 
d="M140 592h-126v131h126v-131z" />
    <glyph glyph-name="ring" unicode="&#x2da;" horiz-adv-x="244" 
d="M195 596.5q-31 -30.5 -75 -30.5q-45 0 -75.5 31t-30.5 77q0 43 31 72.5t75 29.5t75 -30.5t31 -73.5q0 -45 -31 -75.5zM155.5 707.5q-14.5 14.5 -36.5 14.5q-21 0 -36.5 -14.5t-15.5 -36.5q0 -20 15.5 -36t36.5 -16t36 15.5t15 36.5q0 22 -14.5 36.5z" />
    <glyph glyph-name="ogonek" unicode="&#x2db;" horiz-adv-x="236" 
d="M35.5 -33q21.5 23 77.5 41l86 -4q-52 -20 -73 -37.5t-21 -39.5q0 -17 9.5 -25.5t31.5 -8.5q33 0 59 14q3 2 8 2t5 -9v-36q0 -9 -8 -13q-13 -7 -38.5 -12.5t-53.5 -5.5q-50 0 -77 21t-27 60q0 30 21.5 53z" />
    <glyph glyph-name="tilde" unicode="&#x2dc;" horiz-adv-x="380" 
d="M257 623q-29 0 -73 14q-37 13 -63 13q-19 0 -32 -5t-31 -17q-6 -4 -9 -4q-5 0 -8 10l-11 35l-2 8q0 5 7 12q19 16 37 24.5t44 8.5q18 0 38 -4.5t38 -10.5q16 -5 33 -9.5t32 -4.5q17 0 31.5 6t30.5 16q5 3 9 3q7 0 10 -9l10 -42q1 -2 1 -6q0 -7 -10 -14q-37 -24 -82 -24z
" />
    <glyph glyph-name="hungarumlaut" unicode="&#x2dd;" horiz-adv-x="416" 
d="M204 683q6 -6 6 -13t-9 -12l-130 -95q-9 -6 -13 -6q-5 0 -9 6l-22 24q-4 5 -4.5 10t2.5 8l127 122q6 4 8 4q5 0 8 -5zM383 683q5 -7 5 -12q0 -7 -9 -13l-131 -95q-7 -6 -12 -6q-6 0 -10 6l-21 24q-5 5 -5 10t4 8l126 122q4 4 8 4q5 0 8 -5z" />
    <glyph glyph-name="gravecomb" unicode="&#x300;" horiz-adv-x="0" 
d="M-15 633l-19 -55l-259 71l29 84z" />
    <glyph glyph-name="acutecomb" unicode="&#x301;" horiz-adv-x="0" 
d="M-14 649l-259 -71l-18 55l249 100z" />
    <glyph glyph-name="uni0302" unicode="&#x302;" horiz-adv-x="0" 
d="M-182 674l-74 -71h-97l129 125h85l126 -125h-102z" />
    <glyph glyph-name="tildecomb" unicode="&#x303;" horiz-adv-x="0" 
d="M-123 623q-29 0 -73 14q-37 13 -63 13q-19 0 -32 -5t-31 -17q-6 -4 -9 -4q-5 0 -8 10l-11 35l-2 8q0 5 7 12q19 16 37 24.5t44 8.5q18 0 38 -4.5t38 -10.5q16 -5 33 -9.5t32 -4.5q17 0 31.5 6t30.5 16q5 3 9 3q7 0 10 -9l10 -42q1 -2 1 -6q0 -7 -10 -14q-37 -24 -82 -24z
" />
    <glyph glyph-name="uni0304" unicode="&#x304;" horiz-adv-x="0" 
d="M-19 634h-327v80h327v-80z" />
    <glyph glyph-name="uni0306" unicode="&#x306;" horiz-adv-x="0" 
d="M-77 637q-44 -33 -105 -33q-62 0 -106 32.5t-58 86.5h78q13 -23 34 -38.5t52 -15.5q27 0 50 16t35 38h80q-16 -53 -60 -86z" />
    <glyph glyph-name="uni0307" unicode="&#x307;" horiz-adv-x="0" 
d="M-18 592h-126v131h126v-131z" />
    <glyph glyph-name="uni0308" unicode="&#x308;" horiz-adv-x="0" 
d="M-194 605h-110v118h110v-118zM-18 605h-111v118h111v-118z" />
    <glyph glyph-name="uni030A" unicode="&#x30a;" horiz-adv-x="0" 
d="M-49 596.5q-31 -30.5 -75 -30.5q-45 0 -75.5 31t-30.5 77q0 43 31 72.5t75 29.5t75 -30.5t31 -73.5q0 -45 -31 -75.5zM-88.5 707.5q-14.5 14.5 -36.5 14.5q-21 0 -36.5 -14.5t-15.5 -36.5q0 -20 15.5 -36t36.5 -16t36 15.5t15 36.5q0 22 -14.5 36.5z" />
    <glyph glyph-name="uni030B" unicode="&#x30b;" horiz-adv-x="0" 
d="M-212 683q6 -6 6 -13t-9 -12l-130 -95q-9 -6 -13 -6q-5 0 -9 6l-22 24q-4 5 -4.5 10t2.5 8l127 122q6 4 8 4q5 0 8 -5zM-33 683q5 -7 5 -12q0 -7 -9 -13l-131 -95q-7 -6 -12 -6q-6 0 -10 6l-21 24q-5 5 -5 10t4 8l126 122q4 4 8 4q5 0 8 -5z" />
    <glyph glyph-name="uni030C" unicode="&#x30c;" horiz-adv-x="0" 
d="M-13 724l-126 -127h-85l-129 127h97l74 -72l67 72h102z" />
    <glyph glyph-name="uni030F" unicode="&#x30f;" horiz-adv-x="0" 
d="M-201 598l-38 -44l-161 114l56 67zM-24 598l-38 -44l-161 114l57 67z" />
    <glyph glyph-name="uni0311" unicode="&#x311;" horiz-adv-x="0" 
d="M-81 642q-12 22 -35 38t-50 16q-31 0 -52 -15.5t-34 -38.5h-78q14 54 58 86.5t106 32.5q61 0 105 -33t60 -86h-80z" />
    <glyph glyph-name="dotbelowcomb" unicode="&#x323;" horiz-adv-x="0" 
d="M-18 -144q0 -9 -4 -13t-14 -4h-68q-9 0 -11.5 3.5t-2.5 11.5v83q0 8 2 11.5t8 3.5h79q11 0 11 -14v-82z" />
    <glyph glyph-name="uni0326" unicode="&#x326;" horiz-adv-x="0" 
d="M-110.5 -230.5q-2.5 4.5 0.5 9.5l29 48q3 4 3 9q0 10 -10 10h-8q-9 0 -12 3.5t-3 11.5v62q0 14 11 14h70q11 0 11 -11v-80q0 -4 -1 -6t-1 -4l-42 -61q-4 -6 -9 -8t-15 -2h-15q-6 0 -8.5 4.5z" />
    <glyph glyph-name="uni0327" unicode="&#x327;" horiz-adv-x="0" 
d="M-52 -188.5q-33 -21.5 -82 -21.5q-64 0 -105 27l18 44q35 -24 73 -24q25 0 38 8.5t13 24.5q0 21 -19 31.5t-63 11.5q-6 0 -7.5 1.5t0.5 6.5l36 84h58l-23 -59q50 -2 73 -24.5t23 -51.5q0 -37 -33 -58.5z" />
    <glyph glyph-name="uni0328" unicode="&#x328;" horiz-adv-x="0" 
d="M-200.5 -33q21.5 23 77.5 41l86 -4q-52 -20 -73 -37.5t-21 -39.5q0 -17 9.5 -25.5t31.5 -8.5q33 0 59 14q3 2 8 2t5 -9v-36q0 -9 -8 -13q-13 -7 -38.5 -12.5t-53.5 -5.5q-50 0 -77 21t-27 60q0 30 21.5 53z" />
    <glyph glyph-name="uni0394" unicode="&#x394;" horiz-adv-x="666" 
d="M29 84l233 639h138l231 -639v-84h-602v84zM496 102l-167 493l-169 -493h336z" />
    <glyph glyph-name="uni03A9" unicode="&#x3a9;" horiz-adv-x="760" 
d="M279 603.5q-43 -30.5 -66 -86.5t-23 -131q0 -169 140 -279q9 -7 13 -14t4 -18v-75h-273v104h143q-63 50 -113 120.5t-50 178.5q0 86 39 161.5t112.5 122t173.5 46.5q101 0 174 -47.5t110.5 -123.5t37.5 -158q0 -101 -46 -168.5t-105 -119.5q-3 -3 -3 -7q0 -5 7 -5h127
v-104h-273v93q157 114 157 296q0 110 -49.5 177.5t-136.5 67.5q-57 0 -100 -30.5z" />
    <glyph glyph-name="uni03BC" unicode="&#x3bc;" horiz-adv-x="598" 
d="M403 150v367h123l-2 -517h-118v80q-42 -40 -76 -60t-69 -25q-45 -3 -67 11v-167h-122v678h122v-361q0 -32 23.5 -54t58.5 -22q62 0 127 70z" />
    <glyph glyph-name="pi" unicode="&#x3c0;" horiz-adv-x="663" 
d="M533 431v-431h-118v431h-183q0 -108 -17.5 -233t-41.5 -198h-112q23 88 39 205t16 216q0 10 -8 10h-85v86h612v-86h-102z" />
    <glyph glyph-name="uni1E0C" unicode="&#x1e0c;" horiz-adv-x="726" 
d="M280 722q193 -4 284 -95t91 -262q0 -177 -95.5 -271t-287.5 -94h-187v723q133 0 195 -1zM209 101h65q119 0 186 62.5t67 201.5q0 136 -64 197t-186 61h-68v-522zM406 -144q0 -9 -4 -13t-14 -4h-68q-9 0 -11.5 3.5t-2.5 11.5v83q0 8 2 11.5t8 3.5h79q11 0 11 -14v-82z" />
    <glyph glyph-name="uni1E0D" unicode="&#x1e0d;" horiz-adv-x="595" 
d="M98.5 60q-57.5 70 -57.5 196q0 125 55.5 198t155.5 73q92 0 149 -67v283h122v-743h-90l-8 72q-23 -31 -65 -56.5t-103 -25.5q-101 0 -158.5 70zM367.5 116.5q33.5 36.5 33.5 88.5v140q-31 91 -114 91q-58 0 -92.5 -44t-34.5 -133q0 -91 34 -135t91 -44q49 0 82.5 36.5z
M341 -144q0 -9 -4 -13t-14 -4h-68q-9 0 -11.5 3.5t-2.5 11.5v83q0 8 2 11.5t8 3.5h79q11 0 11 -14v-82z" />
    <glyph glyph-name="uni1E24" unicode="&#x1e24;" horiz-adv-x="717" 
d="M207 321v-321h-122v723h122v-298h303v298h122v-723h-122v321h-303zM407 -144q0 -9 -4 -13t-14 -4h-68q-9 0 -11.5 3.5t-2.5 11.5v83q0 8 2 11.5t8 3.5h79q11 0 11 -14v-82z" />
    <glyph glyph-name="uni1E25" unicode="&#x1e25;" horiz-adv-x="599" 
d="M72 743h119v-296q35 29 55 43t47 23t64 9q75 0 122.5 -44t47.5 -115v-363h-122v344q0 38 -23.5 60t-64.5 22q-35 0 -65 -17t-58 -51v-358h-122v743zM355 -144q0 -9 -4 -13t-14 -4h-68q-9 0 -11.5 3.5t-2.5 11.5v83q0 8 2 11.5t8 3.5h79q11 0 11 -14v-82z" />
    <glyph glyph-name="uni1E44" unicode="&#x1e44;" horiz-adv-x="765" 
d="M680 723v-723h-110l-363 530v-530h-122v723h119l354 -516v516h122zM453 798h-126v131h126v-131z" />
    <glyph glyph-name="uni1E45" unicode="&#x1e45;" 
d="M72 517h119v-69q26 35 62.5 55t93.5 20q49 0 90 -22t66 -63t25 -96v-342h-122v329q0 45 -27.5 71t-71.5 26q-47 0 -80 -22.5t-33 -63.5v-340h-122v517zM369 592h-126v131h126v-131z" />
    <glyph glyph-name="uni1E5A" unicode="&#x1e5a;" horiz-adv-x="686" 
d="M499 0l-124 294h-168v-294h-122v723h294q121 0 182 -55.5t61 -152.5q0 -143 -134 -201l138 -314h-127zM459 422q39 32 39 89q0 55 -35.5 86t-95.5 31h-160v-238h144q69 0 108 32zM392 -144q0 -9 -4 -13t-14 -4h-68q-9 0 -11.5 3.5t-2.5 11.5v83q0 8 2 11.5t8 3.5h79
q11 0 11 -14v-82z" />
    <glyph glyph-name="uni1E5B" unicode="&#x1e5b;" horiz-adv-x="406" 
d="M72 517h117v-120q24 57 74 93.5t110 36.5l1 -116l-19 1q-51 0 -87.5 -17.5t-55 -45t-18.5 -57.5v-292h-122v517zM189 -144q0 -9 -4 -13t-14 -4h-68q-9 0 -11.5 3.5t-2.5 11.5v83q0 8 2 11.5t8 3.5h79q11 0 11 -14v-82z" />
    <glyph glyph-name="uni1E62" unicode="&#x1e62;" horiz-adv-x="683" 
d="M207.5 13q-65.5 23 -109 69.5t-51.5 112.5l127 4q12 -53 59.5 -82.5t113.5 -29.5q71 0 117 27.5t46 76.5q0 42 -32.5 66.5t-93.5 37.5l-136 29q-85 17 -132 66t-47 128q0 64 35.5 112.5t98.5 75t141 26.5q82 0 144 -29t97.5 -77.5t41.5 -104.5l-124 -4q-9 61 -50.5 88.5
t-107.5 27.5q-62 0 -103.5 -28t-41.5 -76q0 -37 25 -60t88 -37l132 -29q191 -38 191 -211q0 -57 -36 -103t-101.5 -72.5t-151.5 -26.5q-74 0 -139.5 23zM390 -144q0 -9 -4 -13t-14 -4h-68q-9 0 -11.5 3.5t-2.5 11.5v83q0 8 2 11.5t8 3.5h79q11 0 11 -14v-82z" />
    <glyph glyph-name="uni1E63" unicode="&#x1e63;" horiz-adv-x="513" 
d="M112 29.5q-61 39.5 -75 115.5l102 7q13 -42 44.5 -59t76.5 -17q48 0 79 18t31 48q0 48 -73 65l-97 20q-145 29 -146 141q0 72 56 115.5t152 43.5q97 0 152 -43.5t56 -112.5l-102 -4q-8 40 -37 58.5t-72 18.5q-42 0 -69 -15.5t-27 -52.5q0 -20 19 -34.5t65 -24.5l93 -22
q74 -18 105 -59.5t31 -87.5q0 -48 -28 -83.5t-77.5 -55t-112.5 -19.5q-85 0 -146 39.5zM308 -144q0 -9 -4 -13t-14 -4h-68q-9 0 -11.5 3.5t-2.5 11.5v83q0 8 2 11.5t8 3.5h79q11 0 11 -14v-82z" />
    <glyph glyph-name="uni1E6C" unicode="&#x1e6c;" horiz-adv-x="591" 
d="M13 723h564v-110h-217v-613h-121v613h-226v110zM355 -144q0 -9 -4 -13t-14 -4h-68q-9 0 -11.5 3.5t-2.5 11.5v83q0 8 2 11.5t8 3.5h79q11 0 11 -14v-82z" />
    <glyph glyph-name="uni1E6D" unicode="&#x1e6d;" horiz-adv-x="409" 
d="M242 431l1 -294q0 -32 11 -44t33 -12h74v-74q-24 -11 -84 -11q-87 0 -121.5 33.5t-34.5 100.5v301h-84v86h88l15 168h102v-167h116v-87h-116zM311 -144q0 -9 -4 -13t-14 -4h-68q-9 0 -11.5 3.5t-2.5 11.5v83q0 8 2 11.5t8 3.5h79q11 0 11 -14v-82z" />
    <glyph glyph-name="Wgrave" unicode="&#x1e80;" horiz-adv-x="960" 
d="M728 0h-103l-146 513l-148 -513h-100l-211 723h120l147 -522l147 522h91l148 -522l147 522h120zM612 839l-19 -55l-259 71l29 84z" />
    <glyph glyph-name="wgrave" unicode="&#x1e81;" horiz-adv-x="786" 
d="M599 0h-99l-109 344l-106 -344h-97l-167 517h109l111 -356l108 356h88l111 -355l107 355h111zM527 633l-19 -55l-259 71l29 84z" />
    <glyph glyph-name="Wacute" unicode="&#x1e82;" horiz-adv-x="960" 
d="M728 0h-103l-146 513l-148 -513h-100l-211 723h120l147 -522l147 522h91l148 -522l147 522h120zM621 855l-259 -71l-18 55l249 100z" />
    <glyph glyph-name="wacute" unicode="&#x1e83;" horiz-adv-x="786" 
d="M599 0h-99l-109 344l-106 -344h-97l-167 517h109l111 -356l108 356h88l111 -355l107 355h111zM536 649l-259 -71l-18 55l249 100z" />
    <glyph glyph-name="Wdieresis" unicode="&#x1e84;" horiz-adv-x="960" 
d="M728 0h-103l-146 513l-148 -513h-100l-211 723h120l147 -522l147 522h91l148 -522l147 522h120zM449 811h-110v118h110v-118zM625 811h-111v118h111v-118z" />
    <glyph glyph-name="wdieresis" unicode="&#x1e85;" horiz-adv-x="786" 
d="M599 0h-99l-109 344l-106 -344h-97l-167 517h109l111 -356l108 356h88l111 -355l107 355h111zM364 605h-110v118h110v-118zM540 605h-111v118h111v-118z" />
    <glyph glyph-name="uni1E92" unicode="&#x1e92;" horiz-adv-x="646" 
d="M48 62l380 558h-359v103h532v-59l-385 -560h382v-104h-550v62zM382 -144q0 -9 -4 -13t-14 -4h-68q-9 0 -11.5 3.5t-2.5 11.5v83q0 8 2 11.5t8 3.5h79q11 0 11 -14v-82z" />
    <glyph glyph-name="uni1E93" unicode="&#x1e93;" horiz-adv-x="496" 
d="M34 67l281 371h-259v79h409v-66l-281 -371h285v-80h-435v67zM309 -144q0 -9 -4 -13t-14 -4h-68q-9 0 -11.5 3.5t-2.5 11.5v83q0 8 2 11.5t8 3.5h79q11 0 11 -14v-82z" />
    <glyph glyph-name="uni1EB8" unicode="&#x1eb8;" horiz-adv-x="630" 
d="M85 723h478v-104h-355v-203h313v-103h-314v-207l363 -1v-105h-485v723zM390 -144q0 -9 -4 -13t-14 -4h-68q-9 0 -11.5 3.5t-2.5 11.5v83q0 8 2 11.5t8 3.5h79q11 0 11 -14v-82z" />
    <glyph glyph-name="uni1EB9" unicode="&#x1eb9;" horiz-adv-x="559" 
d="M196 122q34 -41 95 -41q43 0 71.5 17t42.5 53l109 -8q-15 -70 -77.5 -111.5t-142.5 -41.5q-74 0 -131.5 32t-89.5 91.5t-32 139.5t29 142t84 97t131 35q111 0 172 -70.5t61 -189.5v-37h-356q0 -67 34 -108zM404 306q0 59 -31 96t-89 37q-57 0 -89.5 -40t-32.5 -93h242z
M333 -144q0 -9 -4 -13t-14 -4h-68q-9 0 -11.5 3.5t-2.5 11.5v83q0 8 2 11.5t8 3.5h79q11 0 11 -14v-82z" />
    <glyph glyph-name="uni1EBC" unicode="&#x1ebc;" horiz-adv-x="630" 
d="M85 723h478v-104h-355v-203h313v-103h-314v-207l363 -1v-105h-485v723zM402 829q-29 0 -73 14q-37 13 -63 13q-19 0 -32 -5t-31 -17q-6 -4 -9 -4q-5 0 -8 10l-11 35l-2 8q0 5 7 12q19 16 37 24.5t44 8.5q18 0 38 -4.5t38 -10.5q16 -5 33 -9.5t32 -4.5q17 0 31.5 6
t30.5 16q5 3 9 3q7 0 10 -9l10 -42q1 -2 1 -6q0 -7 -10 -14q-37 -24 -82 -24z" />
    <glyph glyph-name="uni1EBD" unicode="&#x1ebd;" horiz-adv-x="559" 
d="M196 122q34 -41 95 -41q43 0 71.5 17t42.5 53l109 -8q-15 -70 -77.5 -111.5t-142.5 -41.5q-74 0 -131.5 32t-89.5 91.5t-32 139.5t29 142t84 97t131 35q111 0 172 -70.5t61 -189.5v-37h-356q0 -67 34 -108zM404 306q0 59 -31 96t-89 37q-57 0 -89.5 -40t-32.5 -93h242z
M356 623q-29 0 -73 14q-37 13 -63 13q-19 0 -32 -5t-31 -17q-6 -4 -9 -4q-5 0 -8 10l-11 35l-2 8q0 5 7 12q19 16 37 24.5t44 8.5q18 0 38 -4.5t38 -10.5q16 -5 33 -9.5t32 -4.5q17 0 31.5 6t30.5 16q5 3 9 3q7 0 10 -9l10 -42q1 -2 1 -6q0 -7 -10 -14q-37 -24 -82 -24z" />
    <glyph glyph-name="uni1ECA" unicode="&#x1eca;" horiz-adv-x="292" 
d="M207 723v-723h-122v723h122zM202 -144q0 -9 -4 -13t-14 -4h-68q-9 0 -11.5 3.5t-2.5 11.5v83q0 8 2 11.5t8 3.5h79q11 0 11 -14v-82z" />
    <glyph glyph-name="uni1ECB" unicode="&#x1ecb;" horiz-adv-x="284" 
d="M198 611h-126v132h126v-132zM196 0h-122v517h122v-517zM202 -144q0 -9 -4 -13t-14 -4h-68q-9 0 -11.5 3.5t-2.5 11.5v83q0 8 2 11.5t8 3.5h79q11 0 11 -14v-82z" />
    <glyph glyph-name="uni1ECC" unicode="&#x1ecc;" horiz-adv-x="742" 
d="M198.5 34q-73.5 44 -112.5 127t-39 198q0 116 40 200.5t113 129t172 44.5q98 0 170.5 -44.5t112 -128.5t39.5 -200q0 -115 -39 -198.5t-111.5 -127.5t-171.5 -44q-100 0 -173.5 44zM513 157q49 65 49 201q0 139 -49.5 206t-140.5 67t-141 -67t-50 -206q0 -136 50 -201
t141 -65q92 0 141 65zM423 -144q0 -9 -4 -13t-14 -4h-68q-9 0 -11.5 3.5t-2.5 11.5v83q0 8 2 11.5t8 3.5h79q11 0 11 -14v-82z" />
    <glyph glyph-name="uni1ECD" unicode="&#x1ecd;" horiz-adv-x="569" 
d="M155 23.5q-55 33.5 -84.5 93.5t-29.5 138q0 80 30 141.5t86 96t129 34.5q74 0 129 -34.5t84 -96t29 -140.5q0 -78 -29 -138.5t-84 -94t-130 -33.5t-130 33.5zM379 132.5q30 50.5 30 127.5t-30.5 126t-92.5 49q-64 0 -94.5 -49t-30.5 -126t31 -127.5t94 -50.5t93 50.5z
M333 -144q0 -9 -4 -13t-14 -4h-68q-9 0 -11.5 3.5t-2.5 11.5v83q0 8 2 11.5t8 3.5h79q11 0 11 -14v-82z" />
    <glyph glyph-name="uni1EE4" unicode="&#x1ee4;" horiz-adv-x="703" 
d="M574.5 60.5q-66.5 -70.5 -211.5 -70.5q-146 0 -212 71.5t-66 209.5v452h125v-464q0 -83 40 -124t113 -41t114 41t41 124v464h123v-459q0 -133 -66.5 -203.5zM414 -144q0 -9 -4 -13t-14 -4h-68q-9 0 -11.5 3.5t-2.5 11.5v83q0 8 2 11.5t8 3.5h79q11 0 11 -14v-82z" />
    <glyph glyph-name="uni1EE5" unicode="&#x1ee5;" 
d="M174.5 9.5q-44.5 18.5 -73.5 57.5t-29 96v355h122v-341q0 -48 30.5 -72t72.5 -24q46 0 76.5 26.5t31.5 73.5v337h123l-2 -518h-94l-7 76q-19 -37 -66 -61.5t-94 -24.5q-46 1 -90.5 19.5zM349 -144q0 -9 -4 -13t-14 -4h-68q-9 0 -11.5 3.5t-2.5 11.5v83q0 8 2 11.5t8 3.5
h79q11 0 11 -14v-82z" />
    <glyph glyph-name="Ygrave" unicode="&#x1ef2;" horiz-adv-x="630" 
d="M376 306v-306h-122v306l-249 417h132l179 -311l175 311h133zM456 839l-19 -55l-259 71l29 84z" />
    <glyph glyph-name="ygrave" unicode="&#x1ef3;" horiz-adv-x="551" 
d="M88 -161.5q-20 3.5 -29 7t-11 4.5v78l52 -1q55 -3 76 13t31 40l13 37l-201 500h121l137 -365l137 365h119l-213 -536q-34 -83 -77.5 -114.5t-105.5 -31.5q-29 0 -49 3.5zM419 633l-19 -55l-259 71l29 84z" />
    <glyph glyph-name="uni1EF8" unicode="&#x1ef8;" horiz-adv-x="630" 
d="M376 306v-306h-122v306l-249 417h132l179 -311l175 311h133zM397 829q-29 0 -73 14q-37 13 -63 13q-19 0 -32 -5t-31 -17q-6 -4 -9 -4q-5 0 -8 10l-11 35l-2 8q0 5 7 12q19 16 37 24.5t44 8.5q18 0 38 -4.5t38 -10.5q16 -5 33 -9.5t32 -4.5q17 0 31.5 6t30.5 16q5 3 9 3
q7 0 10 -9l10 -42q1 -2 1 -6q0 -7 -10 -14q-37 -24 -82 -24z" />
    <glyph glyph-name="uni1EF9" unicode="&#x1ef9;" horiz-adv-x="551" 
d="M88 -161.5q-20 3.5 -29 7t-11 4.5v78l52 -1q55 -3 76 13t31 40l13 37l-201 500h121l137 -365l137 365h119l-213 -536q-34 -83 -77.5 -114.5t-105.5 -31.5q-29 0 -49 3.5zM360 623q-29 0 -73 14q-37 13 -63 13q-19 0 -32 -5t-31 -17q-6 -4 -9 -4q-5 0 -8 10l-11 35l-2 8
q0 5 7 12q19 16 37 24.5t44 8.5q18 0 38 -4.5t38 -10.5q16 -5 33 -9.5t32 -4.5q17 0 31.5 6t30.5 16q5 3 9 3q7 0 10 -9l10 -42q1 -2 1 -6q0 -7 -10 -14q-37 -24 -82 -24z" />
    <glyph glyph-name="endash" unicode="&#x2013;" horiz-adv-x="574" 
d="M512 204h-454v91h454v-91z" />
    <glyph glyph-name="emdash" unicode="&#x2014;" horiz-adv-x="890" 
d="M827 204h-769v91h769v-91z" />
    <glyph glyph-name="quoteleft" unicode="&#x2018;" horiz-adv-x="249" 
d="M133 623l47 -4v-126h-133v111l94 150h49z" />
    <glyph glyph-name="quoteright" unicode="&#x2019;" horiz-adv-x="233" 
d="M104 593l-47 4v126h133v-111l-94 -150h-49z" />
    <glyph glyph-name="quotesinglbase" unicode="&#x201a;" horiz-adv-x="243" 
d="M102 -2l-47 4v127h133v-112l-93 -149h-49z" />
    <glyph glyph-name="quotedblleft" unicode="&#x201c;" horiz-adv-x="446" 
d="M51 574l94 149h49l-57 -130l47 -4v-127h-133v112zM251 574l94 149h49l-58 -130l48 -4v-127h-133v112z" />
    <glyph glyph-name="quotedblright" unicode="&#x201d;" horiz-adv-x="460" 
d="M104 593l-47 4v126h133v-111l-94 -150h-49zM304 593l-48 4v126h133v-111l-93 -150h-50z" />
    <glyph glyph-name="quotedblbase" unicode="&#x201e;" horiz-adv-x="472" 
d="M316 -2l-47 4v127h133v-112l-93 -149h-49zM112 -2l-47 4v127h133v-112l-93 -149h-49z" />
    <glyph glyph-name="dagger" unicode="&#x2020;" horiz-adv-x="488" 
d="M461 376l-183 17l24 -554h-120l23 554l-183 -17v108l178 -15l-19 254h122l-20 -254l178 15v-108z" />
    <glyph glyph-name="daggerdbl" unicode="&#x2021;" horiz-adv-x="488" 
d="M279 159l182 17v-109l-179 16l21 -244h-122l20 244l-179 -16v109l182 -17v223l-182 -17v108l178 -15l-19 265h121l-19 -265l178 15v-108l-182 17v-223z" />
    <glyph glyph-name="bullet" unicode="&#x2022;" horiz-adv-x="335" 
d="M84 288q-33 33 -33 80t33 80t79 33q47 0 80 -33t33 -80t-33 -80t-80 -33q-46 0 -79 33z" />
    <glyph glyph-name="ellipsis" unicode="&#x2026;" horiz-adv-x="825" 
d="M786 0h-138v140h138v-140zM199 0h-138v140h138v-140zM492 0h-138v140h138v-140z" />
    <glyph glyph-name="perthousand" unicode="&#x2030;" horiz-adv-x="1329" 
d="M317 707.5q40 -26.5 63 -74t23 -106.5t-23 -105.5t-63 -72.5t-90 -26q-51 0 -91.5 26t-63.5 72.5t-23 105.5t23.5 106.5t64 74t90.5 26.5t90 -26.5zM268 -4l-75 1l488 734h73zM290 424q22 37 22 103q0 67 -22.5 105t-63.5 38q-42 0 -64 -38t-22 -105q0 -65 22 -102.5
t64 -37.5t64 37zM781.5 375.5q40.5 -26.5 63.5 -74t23 -106.5t-23 -106t-63.5 -73t-90.5 -26t-91 26t-64 73t-23 106t23.5 106.5t64 74t90.5 26.5t90.5 -26.5zM1188.5 375.5q40.5 -26.5 63.5 -74t23 -106.5t-23 -106t-63 -73t-90 -26q-51 0 -91.5 26t-63.5 73t-23 106
t23 106.5t64 74t91 26.5q49 0 89.5 -26.5zM753.5 92.5q22.5 37.5 22.5 101.5q0 66 -22.5 105t-63.5 39q-40 0 -62.5 -39.5t-22.5 -104.5q0 -64 22.5 -101.5t62.5 -37.5q41 0 63.5 37.5zM1161.5 92.5q22.5 37.5 22.5 101.5q0 66 -22.5 105t-63.5 39q-40 0 -63 -39.5
t-23 -104.5q0 -64 22.5 -101.5t63.5 -37.5t63.5 37.5z" />
    <glyph glyph-name="guilsinglleft" unicode="&#x2039;" horiz-adv-x="290" 
d="M233 67h-66l-124 184l124 192h67l-90 -192z" />
    <glyph glyph-name="guilsinglright" unicode="&#x203a;" horiz-adv-x="290" 
d="M51 443h66l124 -192l-124 -184h-65l89 184z" />
    <glyph glyph-name="fraction" unicode="&#x2044;" horiz-adv-x="251" 
d="M-85 -4l-75 1l488 734h73z" />
    <glyph glyph-name="uni2070" unicode="&#x2070;" horiz-adv-x="413" 
d="M318 783q49 -62 49 -174q0 -111 -48.5 -171.5t-129.5 -60.5q-82 0 -130.5 60.5t-48.5 171.5q0 112 49.5 174t129.5 62t129 -62zM283 609q0 173 -95 173q-44 0 -68.5 -42t-24.5 -131q0 -169 94 -169t94 169z" />
    <glyph glyph-name="uni2074" unicode="&#x2074;" horiz-adv-x="413" 
d="M299 835v-280h70v-67h-70v-108h-76v108h-209v67l208 280h77zM222 555v172l-128 -172h128z" />
    <glyph glyph-name="uni2075" unicode="&#x2075;" horiz-adv-x="399" 
d="M352 835l-4 -64h-219l-11 -127q32 14 53.5 20.5t49.5 6.5q69 0 113 -37t44 -106q0 -72 -49 -113t-130 -41q-56 0 -103.5 21.5t-75.5 58.5l57 42q28 -31 52 -45.5t60 -14.5q49 0 77 25t28 65q0 38 -25 60t-66 22q-23 0 -43 -7.5t-47 -21.5q-4 -2 -6.5 -2.5t-4 0.5t-3.5 2
l-52 30l20 226h285z" />
    <glyph glyph-name="uni2076" unicode="&#x2076;" horiz-adv-x="401" 
d="M299 819.5q42 -29.5 49 -77.5l-67 -10q-13 27 -32 41t-50 14q-50 0 -78 -41.5t-28 -115.5q0 -16 1 -25q15 28 45 43.5t66 15.5q69 0 109 -38.5t40 -98.5q0 -64 -46.5 -104.5t-118.5 -40.5q-85 0 -133 60t-48 165q0 113 50.5 177.5t138.5 64.5q60 0 102 -29.5z
M126.5 585.5q-27.5 -19.5 -27.5 -47.5q6 -47 28.5 -71.5t59.5 -24.5q36 0 61 23t25 58q0 37 -23.5 59.5t-60.5 22.5q-35 0 -62.5 -19.5z" />
    <glyph glyph-name="uni2077" unicode="&#x2077;" horiz-adv-x="363" 
d="M356 835v-78q-59 -78 -110 -191t-56 -186h-83q10 75 53 184t120 207h-255v64h331z" />
    <glyph glyph-name="uni2078" unicode="&#x2078;" horiz-adv-x="399" 
d="M301 809.5q44 -35.5 44 -90.5q0 -40 -23 -63t-46 -33q4 -2 29.5 -14t43 -38t17.5 -62q0 -61 -49.5 -96t-132.5 -35q-79 0 -126 31t-47 87q0 35 22.5 63t62.5 46q-26 13 -49.5 35.5t-23.5 68.5q0 38 20.5 69t57.5 49t86 18q70 0 114 -35.5zM129.5 767q-23.5 -19 -23.5 -49
q0 -44 51 -58l54 -14q12 -3 26.5 7t25 28.5t10.5 36.5q0 30 -23 49t-62 19q-35 0 -58.5 -19zM257 455q25 18 25 49q0 23 -13 38t-44 23l-66 18q-12 4 -29.5 -5.5t-30.5 -28t-13 -40.5q0 -34 26 -53t77 -19q43 0 68 18z" />
    <glyph glyph-name="uni2079" unicode="&#x2079;" horiz-adv-x="401" 
d="M67 409q-42 30 -50 77l69 9q12 -25 30.5 -39.5t49.5 -14.5q53 0 83.5 40t30.5 121l-1 24q-13 -30 -43 -47.5t-70 -17.5q-70 0 -112 39t-42 101q0 64 47 104t119 40q84 0 132 -59.5t48 -164.5q0 -119 -50 -180.5t-139 -61.5q-60 0 -102 30zM239.5 643q27.5 20 27.5 46
q-6 49 -28.5 73t-59.5 24q-36 0 -59.5 -23t-23.5 -58t22.5 -58.5t57.5 -23.5q36 0 63.5 20z" />
    <glyph glyph-name="colonmonetary" unicode="&#x20a1;" horiz-adv-x="590" 
d="M448.5 158q-38.5 -43 -96.5 -58l-26 -99l-70 1l24 91q-33 2 -60 10l-27 -102l-69 1l34 129q-52 34 -81 93t-29 135q0 99 46.5 168.5t126.5 92.5l27 102l69 1l-24 -93q31 0 61 -8l27 100l68 1l-34 -130q63 -45 84 -133l-99 -10q-26 45 -47.5 65.5t-58.5 20.5
q-61 0 -96.5 -47t-35.5 -128q0 -82 36.5 -130.5t97.5 -48.5q40 0 64.5 23.5t44.5 65.5l96 -10q-14 -60 -52.5 -103z" />
    <glyph glyph-name="franc" unicode="&#x20a3;" horiz-adv-x="615" 
d="M214 620v-215h282v-101h-282v-108h156v-70h-156v-126h-138v125h-90v70h90v528h496v-103h-358z" />
    <glyph glyph-name="lira" unicode="&#x20a4;" horiz-adv-x="629" 
d="M507.5 41q-56.5 -41 -136.5 -41h-355v102h35q36 0 59 26t27 78q2 19 1 34q0 7 -8 7h-106v69h104l-12 77h-92v70h82l-4 36q-3 21 -3 40q0 98 62 146t157 48q71 0 133.5 -35.5t87.5 -96.5l-108 -35q-14 32 -36.5 50t-59.5 18q-43 0 -70.5 -26t-27.5 -71q0 -11 8 -63
q2 -11 11 -11l145 1v-70l-144 -1l11 -77l133 1v-70h-133q-2 -40 -17.5 -79t-43.5 -65h155q48 0 76.5 18.5t43.5 62.5l104 -24q-22 -78 -78.5 -119z" />
    <glyph glyph-name="uni20A6" unicode="&#x20a6;" horiz-adv-x="756" 
d="M702 439v-133h43v-64h-43v-242h-110l-165 242l-198 -1v-241h-122v241h-100v65h100v133h-100v64h100v220h119l151 -220h203v220h122v-220h43v-64h-43zM229 503h18l-18 27v-27zM382 306l-91 133h-62v-133h153zM580 439h-159l91 -133h68v133zM580 242h-24l24 -35v35z" />
    <glyph glyph-name="uni20A9" unicode="&#x20a9;" horiz-adv-x="1087" 
d="M924 501l-25 -86h175v-70h-196l-101 -345h-103l-98 345h-96l-100 -345h-100l-101 345h-167v69h147l-25 87h-122v69h102l-45 153h120l43 -153h208l43 153h91l43 -152h209l43 152h120l-45 -152h130v-70h-150zM276 414h120l24 87h-168zM556 415l-25 86h-6l-25 -87zM806 501
h-169l24 -86h121zM377 345h-82l41 -144zM763 345h-82l41 -144z" />
    <glyph glyph-name="dong" unicode="&#x20ab;" horiz-adv-x="518" 
d="M502 664v-57h-61v-475h-101v56q-26 -29 -55 -46.5t-77 -17.5q-76 0 -124 56t-48 159q0 67 24 118t65 79.5t92 28.5q34 0 59.5 -11t48.5 -33q5 -4 9 -4t4 9v81h-121v57h121v59h103v-59h61zM336 451q-20 21 -40.5 31.5t-46.5 10.5q-48 0 -76.5 -38t-28.5 -114
q0 -75 28 -111.5t75 -36.5q38 0 63.5 24t25.5 54v180zM61 62h383v-62h-383v62z" />
    <glyph glyph-name="Euro" unicode="&#x20ac;" horiz-adv-x="627" 
d="M465.5 111.5q33.5 16.5 56.5 40.5l66 -72q-39 -41 -92 -65.5t-113 -24.5q-113 0 -191 68.5t-105 188.5h-91v70h81q-2 32 -2 48q0 15 2 43h-81v70h90q25 120 103.5 187.5t191.5 67.5q61 0 115 -23.5t92 -64.5l-84 -68q-28 27 -54 42t-59 15q-130 0 -164 -156h180v-69h-189
q-1 -15 -1 -45q0 -17 2 -47h188v-70h-178q18 -76 61.5 -114t107.5 -38q34 0 67.5 16.5z" />
    <glyph glyph-name="uni20B9" unicode="&#x20b9;" horiz-adv-x="613" 
d="M591 659h-131q37 -35 47 -87h84v-64h-83q-8 -60 -45 -100t-90 -59q-7 -3 -4 -13l134 -336h-150l-117 326h-222v90h203q67 0 103 22t44 70h-349v64h348q-18 82 -133 82h-216v69h577v-64z" />
    <glyph glyph-name="uni20BA" unicode="&#x20ba;" horiz-adv-x="614" 
d="M600 243q-39 -113 -121.5 -178t-217.5 -65h-134v220l-77 -28l-24 69l101 37v84l-87 -32l-25 69l112 41v263h139v-212l127 46l26 -69l-153 -56v-84l137 50l25 -69l-162 -59v-167h41q124 3 184 164z" />
    <glyph glyph-name="uni2113" unicode="&#x2113;" horiz-adv-x="536" 
d="M246.5 110.5q22.5 -27.5 65.5 -27.5q49 0 92 36l-116 -129q-70 0 -108.5 28.5t-51 58t-26.5 82.5q-1 6 -5 2l-46 -31l-31 69l80 60v234q0 118 54.5 179t143.5 61q80 0 118 -45t38 -118q0 -69 -31.5 -128.5t-78.5 -107.5t-120 -110v-26q0 -60 22.5 -87.5zM224 326
q147 134 147 253q0 37 -16 57t-48 20q-41 0 -62 -38t-21 -131v-161zM449 170q-8 -9 -7 -9q-17 -23 -38 -42z" />
    <glyph glyph-name="uni2116" unicode="&#x2116;" horiz-adv-x="1168" 
d="M680 723v-723h-110l-363 530v-530h-122v723h119l354 -516v516h122zM1083 686q44 -47 44 -122q0 -74 -44 -120t-117 -46t-116.5 46t-43.5 120q0 75 44.5 122t115.5 47q73 0 117 -47zM909 648q-19 -28 -19 -82q0 -55 19 -83.5t57 -28.5t57.5 29t19.5 83t-19.5 82t-57.5 28
t-57 -28z" />
    <glyph glyph-name="uni2117" unicode="&#x2117;" horiz-adv-x="822" 
d="M222 40q-85 50 -135 135t-50 187q0 100 50 185.5t135 135.5t186 50t186.5 -50t135.5 -135.5t50 -185.5q0 -102 -50 -187t-135.5 -135t-186.5 -50t-186 50zM557 100q67 37 105.5 105t38.5 157q0 88 -38.5 156.5t-105.5 106t-149 37.5q-84 0 -150.5 -37.5t-104.5 -106
t-38 -156.5q0 -89 38 -157t104.5 -105t150.5 -37q82 0 149 37zM545 343q-38 -32 -102 -32h-91v-144h-81v387h163q67 0 108 -29.5t41 -88.5q0 -61 -38 -93zM430 493h-78v-122h82q30 0 48 16t18 46q0 60 -70 60z" />
    <glyph glyph-name="uni2120" unicode="&#x2120;" horiz-adv-x="988" 
d="M130 8q-41 14 -68.5 43.5t-32.5 70.5l80 2q7 -33 37 -51.5t71 -18.5q44 0 73 17.5t29 47.5q0 27 -20.5 42t-58.5 23l-85 18q-53 11 -82.5 41.5t-29.5 80.5q0 40 22.5 70t61.5 46.5t88 16.5q51 0 90 -18t61 -48t26 -65l-78 -3q-5 38 -31 55.5t-67 17.5q-39 0 -65 -17.5
t-26 -47.5q0 -24 15.5 -38t55.5 -23l82 -18q119 -24 120 -132q0 -36 -23 -64.5t-63.5 -45t-94.5 -16.5q-46 0 -87 14zM480 452h109l119 -346l119 346h108v-452h-77v354l-119 -354h-63l-118 352v-352h-78v452z" />
    <glyph glyph-name="trademark" unicode="&#x2122;" horiz-adv-x="931" 
d="M8 452h353v-69h-136v-383h-76v383h-141v69zM422 452h109l119 -346l119 346h108v-452h-77v354l-119 -354h-63l-118 352v-352h-78v452z" />
    <glyph glyph-name="estimated" unicode="&#x212e;" horiz-adv-x="822" 
d="M578 33q-79 -43 -170 -43q-101 0 -186 50t-135 135t-50 187q0 100 50 185.5t135 135.5t186 50q99 0 185 -48.5t136.5 -131t50.5 -178.5q0 -7 -3 -10t-10 -3h-541v-279q77 -53 182 -53q76 0 143 32.5t112 85.5h51q-57 -72 -136 -115zM235 646q-9 -6 -9 -18v-225h355v244
q-78 44 -173 44q-97 0 -173 -45z" />
    <glyph glyph-name="uni2153" unicode="&#x2153;" horiz-adv-x="947" 
d="M80 644l-84 -26v54l117 59h45v-455h-78v368zM214 -4l-75 1l488 734h73zM638.5 431.5q48.5 26.5 115.5 26.5q71 0 118 -33t47 -84q0 -72 -85 -101q44 -12 71.5 -41.5t27.5 -72.5q0 -40 -25 -71t-67 -47.5t-91 -16.5q-75 0 -120 25t-60 87l71 8q29 -57 106 -57
q46 0 73.5 20t27.5 51q0 34 -28 55t-68 21h-62v62l52 2q41 1 68 21t27 49q0 27 -25 44.5t-60 17.5q-38 0 -64 -13t-38 -44l-70 8q10 57 58.5 83.5z" />
    <glyph glyph-name="uni2154" unicode="&#x2154;" horiz-adv-x="1030" 
d="M14 339l144 134q57 52 76 78t19 55q0 34 -23 51.5t-55 17.5q-31 0 -56.5 -15.5t-38.5 -49.5l-70 8q12 57 55 89.5t113 32.5q71 0 113.5 -36t42.5 -98q-1 -37 -20 -67.5t-70 -79.5l-117 -115h211v-65h-324v60zM297 -4l-75 1l488 734h73zM721.5 431.5q48.5 26.5 115.5 26.5
q71 0 118 -33t47 -84q0 -72 -85 -101q44 -12 71.5 -41.5t27.5 -72.5q0 -40 -25 -71t-67 -47.5t-91 -16.5q-75 0 -120 25t-60 87l71 8q29 -57 106 -57q46 0 73.5 20t27.5 51q0 34 -28 55t-68 21h-62v62l52 2q41 1 68 21t27 49q0 27 -25 44.5t-60 17.5q-38 0 -64 -13t-38 -44
l-70 8q10 57 58.5 83.5z" />
    <glyph glyph-name="oneeighth" unicode="&#x215b;" horiz-adv-x="949" 
d="M80 644l-84 -26v54l117 59h45v-455h-78v368zM214 -4l-75 1l488 734h73zM851 421.5q44 -35.5 44 -90.5q0 -40 -23 -63t-46 -33q4 -2 29.5 -14t43 -38t17.5 -62q0 -61 -49.5 -96t-132.5 -35q-79 0 -126 31t-47 87q0 35 22.5 63t62.5 46q-26 13 -49.5 35.5t-23.5 68.5
q0 38 20.5 69t57.5 49t86 18q70 0 114 -35.5zM679.5 379q-23.5 -19 -23.5 -49q0 -44 51 -58l54 -14q12 -3 26.5 7t25 28.5t10.5 36.5q0 30 -23 49t-62 19q-35 0 -58.5 -19zM807 67q25 18 25 49q0 23 -13 38t-44 23l-66 18q-12 4 -29.5 -5.5t-30.5 -28t-13 -40.5
q0 -34 26 -53t77 -19q43 0 68 18z" />
    <glyph glyph-name="threeeighths" unicode="&#x215c;" horiz-adv-x="1047" 
d="M88.5 713.5q48.5 26.5 115.5 26.5q71 0 118 -33t47 -84q0 -72 -85 -101q44 -12 71.5 -41.5t27.5 -72.5q0 -40 -25 -71t-67 -47.5t-91 -16.5q-75 0 -120 25t-60 87l71 8q29 -57 106 -57q46 0 73.5 20t27.5 51q0 34 -28 55t-68 21h-62v62l52 2q41 1 68 21t27 49
q0 27 -25 44.5t-60 17.5q-38 0 -64 -13t-38 -44l-70 8q10 57 58.5 83.5zM312 -4l-75 1l488 734h73zM949 421.5q44 -35.5 44 -90.5q0 -40 -23 -63t-46 -33q4 -2 29.5 -14t43 -38t17.5 -62q0 -61 -49.5 -96t-132.5 -35q-79 0 -126 31t-47 87q0 35 22.5 63t62.5 46
q-26 13 -49.5 35.5t-23.5 68.5q0 38 20.5 69t57.5 49t86 18q70 0 114 -35.5zM777.5 379q-23.5 -19 -23.5 -49q0 -44 51 -58l54 -14q12 -3 26.5 7t25 28.5t10.5 36.5q0 30 -23 49t-62 19q-35 0 -58.5 -19zM905 67q25 18 25 49q0 23 -13 38t-44 23l-66 18q-12 4 -29.5 -5.5
t-30.5 -28t-13 -40.5q0 -34 26 -53t77 -19q43 0 68 18z" />
    <glyph glyph-name="fiveeighths" unicode="&#x215d;" horiz-adv-x="1049" 
d="M352 731l-4 -64h-219l-11 -127q32 14 53.5 20.5t49.5 6.5q69 0 113 -37t44 -106q0 -72 -49 -113t-130 -41q-56 0 -103.5 21.5t-75.5 58.5l57 42q28 -31 52 -45.5t60 -14.5q49 0 77 25t28 65q0 38 -25 60t-66 22q-23 0 -43 -7.5t-47 -21.5q-4 -2 -6.5 -2.5t-4 0.5t-3.5 2
l-52 30l20 226h285zM314 -4l-75 1l488 734h73zM951 421.5q44 -35.5 44 -90.5q0 -40 -23 -63t-46 -33q4 -2 29.5 -14t43 -38t17.5 -62q0 -61 -49.5 -96t-132.5 -35q-79 0 -126 31t-47 87q0 35 22.5 63t62.5 46q-26 13 -49.5 35.5t-23.5 68.5q0 38 20.5 69t57.5 49t86 18
q70 0 114 -35.5zM779.5 379q-23.5 -19 -23.5 -49q0 -44 51 -58l54 -14q12 -3 26.5 7t25 28.5t10.5 36.5q0 30 -23 49t-62 19q-35 0 -58.5 -19zM907 67q25 18 25 49q0 23 -13 38t-44 23l-66 18q-12 4 -29.5 -5.5t-30.5 -28t-13 -40.5q0 -34 26 -53t77 -19q43 0 68 18z" />
    <glyph glyph-name="seveneighths" unicode="&#x215e;" horiz-adv-x="1013" 
d="M356 730v-78q-59 -78 -110 -191t-56 -186h-83q10 75 53 184t120 207h-255v64h331zM278 -4l-75 1l488 734h73zM915 421.5q44 -35.5 44 -90.5q0 -40 -23 -63t-46 -33q4 -2 29.5 -14t43 -38t17.5 -62q0 -61 -49.5 -96t-132.5 -35q-79 0 -126 31t-47 87q0 35 22.5 63t62.5 46
q-26 13 -49.5 35.5t-23.5 68.5q0 38 20.5 69t57.5 49t86 18q70 0 114 -35.5zM743.5 379q-23.5 -19 -23.5 -49q0 -44 51 -58l54 -14q12 -3 26.5 7t25 28.5t10.5 36.5q0 30 -23 49t-62 19q-35 0 -58.5 -19zM871 67q25 18 25 49q0 23 -13 38t-44 23l-66 18q-12 4 -29.5 -5.5
t-30.5 -28t-13 -40.5q0 -34 26 -53t77 -19q43 0 68 18z" />
    <glyph glyph-name="partialdiff" unicode="&#x2202;" horiz-adv-x="591" 
d="M67 666q26 26 80 46.5t117 20.5q131 0 207.5 -94.5t76.5 -278.5q0 -174 -68.5 -272t-198.5 -98q-72 0 -126.5 30.5t-84 84t-29.5 120.5q0 66 28.5 117.5t81.5 80.5t126 29q47 0 75.5 -11.5t65.5 -35.5q8 -5 10 -5q5 0 5 9q0 102 -49 166.5t-145 64.5q-44 0 -74.5 -12.5
t-62.5 -34.5zM276 80q60 0 100 52.5t48 138.5q1 6 1 14q0 11 -7 21q-18 25 -53.5 43t-73.5 18q-58 0 -95 -42t-37 -106q0 -61 33.5 -100t82.5 -39h1z" />
    <glyph glyph-name="emptyset" unicode="&#x2205;" horiz-adv-x="585" 
d="M473 485q37 -56 37 -121q0 -59 -29.5 -109.5t-80 -80t-109.5 -29.5q-76 0 -134 47l-68 -63l-44 46l68 63q-40 56 -40 126q0 59 29.5 109t79.5 79.5t109 29.5q39 0 75 -13.5t65 -37.5l60 55l42 -45zM158 279l229 211q-43 32 -96 32q-43 0 -79 -21.5t-57.5 -58t-21.5 -78.5
q0 -47 25 -85zM428 444l-227 -211q40 -28 90 -28q43 0 79.5 21.5t58 58t21.5 79.5q0 42 -22 80z" />
    <glyph glyph-name="product" unicode="&#x220f;" horiz-adv-x="674" 
d="M654 621h-95v-621h-126v621h-197v-621h-127v621h-93v102h638v-102z" />
    <glyph glyph-name="summation" unicode="&#x2211;" horiz-adv-x="550" 
d="M26 0v76l211 283l-199 280v84h464v-100h-297l184 -251l-202 -268h333v-104h-494z" />
    <glyph glyph-name="minus" unicode="&#x2212;" horiz-adv-x="570" 
d="M510 318h-454v91h454v-91z" />
    <glyph glyph-name="uni2219" unicode="&#x2219;" horiz-adv-x="335" 
d="M113.5 317.5q-20.5 20.5 -20.5 49.5t20.5 49.5t49.5 20.5t49.5 -20.5t20.5 -49.5t-20.5 -49.5t-49.5 -20.5t-49.5 20.5z" />
    <glyph glyph-name="radical" unicode="&#x221a;" horiz-adv-x="661" 
d="M402 -161h-126l-158 429l-77 -29l-26 72l173 63l148 -417l221 869h104z" />
    <glyph glyph-name="infinity" unicode="&#x221e;" horiz-adv-x="759" 
d="M710 273q0 -54 -22.5 -93.5t-61 -60.5t-84.5 -21q-50 0 -82.5 22.5t-73.5 70.5l-4 4q-3 3 -5 3q-3 0 -9 -7q-3 -4 -24.5 -28.5t-58.5 -44.5t-79 -20q-44 0 -81 21.5t-59 60t-22 88.5q0 77 48.5 124t124.5 47q35 0 61.5 -11t45.5 -27.5t47 -47.5q10 -8 13 -8q5 0 11 8
q36 40 70 63t86 23q69 0 114 -45t45 -120v-1zM215 178q29 0 57.5 21t47.5 48q9 12 9 18q0 4 -10 21q-26 37 -51.5 56t-56.5 19q-37 0 -60.5 -25t-23.5 -65q0 -41 24.5 -67t60.5 -26h3zM545 361q-31 0 -55.5 -19t-52.5 -53q-8 -9 -8 -18q0 -7 8 -19q52 -74 112 -74
q36 0 57 28t21 64q0 37 -22.5 64t-58.5 27h-1z" />
    <glyph glyph-name="integral" unicode="&#x222b;" horiz-adv-x="454" 
d="M195 778q45 58 131 58q39 0 65 -6.5t48 -20.5l-26 -103q-21 11 -38 16t-39 5q-72 0 -72 -105q0 -64 5.5 -146t11.5 -158q15 -172 15 -257q0 -115 -45 -174t-129 -59q-38 0 -63 6.5t-49 20.5l27 103q20 -11 37 -16t39 -5q70 0 70 106q0 63 -5.5 145t-11.5 158
q-6 70 -11 140t-5 121q0 113 45 171z" />
    <glyph glyph-name="approxequal" unicode="&#x2248;" horiz-adv-x="590" 
d="M470 398q-36 -21 -80 -21q-27 0 -49 7.5t-50 22.5q-26 13 -45.5 20t-41.5 7q-34 0 -59.5 -17t-53.5 -48l-35 64q40 40 72.5 60t75.5 20q27 0 48.5 -7.5t52.5 -22.5q26 -13 44.5 -20t39.5 -7q62 0 103 64l36 -65q-22 -36 -58 -57zM470 193q-36 -21 -80 -21q-28 0 -48 7
t-54 23q-25 13 -43.5 20t-40.5 7q-34 0 -60.5 -17.5t-51.5 -47.5l-36 65q39 39 72 59t76 20q27 0 48.5 -7.5t52.5 -22.5q26 -13 44.5 -20t39.5 -7q62 0 103 64l36 -64q-22 -37 -58 -58z" />
    <glyph glyph-name="notequal" unicode="&#x2260;" horiz-adv-x="590" 
d="M344 414l-60 -135h233v-90l-272 -1l-63 -143h-66l63 143h-116v91h157l59 135h-216v91h257l60 136h63l-60 -136h134v-91h-173z" />
    <glyph glyph-name="lessequal" unicode="&#x2264;" horiz-adv-x="567" 
d="M496 213l-443 173v105l443 173v-108l-305 -118l305 -117v-108zM503 42l-454 1v90l454 -1v-90z" />
    <glyph glyph-name="greaterequal" unicode="&#x2265;" horiz-adv-x="567" 
d="M371 438l-306 118v108l443 -173v-105l-443 -173v108zM513 133v-90l-454 -1v90z" />
    <glyph glyph-name="lozenge" unicode="&#x25ca;" horiz-adv-x="523" 
d="M222 0l-170 362l175 361h86l171 -359l-176 -364h-86zM151 365l118 -276l118 273l-118 270z" />
    <glyph glyph-name="i.loclTRK" horiz-adv-x="266" 
d="M194 0h-122v517h122v-517zM199 592h-126v131h126v-131z" />
    <glyph glyph-name="p.001" horiz-adv-x="605" 
d="M76 517h121v-68q33 36 68 57t93 21q91 0 148 -67.5t57 -195.5q0 -133 -58.5 -203.5t-156.5 -70.5q-41 0 -76 14t-74 50v-215h-122v678zM403.5 122q35.5 48 35.5 142q0 93 -35 135.5t-91 42.5q-52 0 -83.5 -34.5t-31.5 -90.5v-143q33 -100 109 -100q61 0 96.5 48z" />
    <glyph glyph-name="q.001" horiz-adv-x="601" 
d="M407 -161v215q-40 -36 -75 -50t-76 -14q-98 0 -156.5 70.5t-58.5 203.5q0 128 57 195.5t148 67.5q58 0 93 -21t68 -57v68h122v-678h-122zM407 174v143q0 56 -32 90.5t-84 34.5q-56 0 -91 -42.5t-35 -135.5q0 -94 36 -142t96 -48q76 0 110 100z" />
    <glyph glyph-name="l.ss01" horiz-adv-x="286" 
d="M82 743h122v-743h-122v743z" />
    <glyph glyph-name="zero.osf" horiz-adv-x="651" 
d="M473 690.5q64 -43.5 100 -127.5t36 -203q0 -118 -35.5 -201t-99.5 -125.5t-148 -42.5q-85 0 -149 42t-99.5 125t-35.5 201q0 119 36 203.5t100.5 128t147.5 43.5t147 -43.5zM437 155q38 64 38 204q0 276 -150 276q-72 0 -110.5 -67t-38.5 -209q0 -268 150 -268
q73 0 111 64z" />
    <glyph glyph-name="one.osf" horiz-adv-x="395" 
d="M164 585l-134 -42v86l187 94h71v-723h-124v585z" />
    <glyph glyph-name="two.osf" horiz-adv-x="599" 
d="M39 96l230 213q62 56 93 90t44.5 61.5t13.5 59.5q0 54 -36.5 82t-87.5 28q-50 0 -90.5 -25t-61.5 -79l-111 13q19 90 87.5 142t179.5 52q112 0 180 -57t68 -156q-1 -58 -31.5 -106.5t-110.5 -127.5l-187 -182h336v-104h-516v96z" />
    <glyph glyph-name="three.osf" horiz-adv-x="634" 
d="M141.5 692.5q77.5 42.5 184.5 42.5q75 0 135 -24t94 -66.5t34 -95.5q0 -113 -136 -161q69 -18 113.5 -65t44.5 -116q0 -64 -39.5 -113t-106 -75.5t-145.5 -26.5q-119 0 -191 40t-95 138l113 13q24 -49 68 -70t99 -21q74 0 118 32t44 82q0 53 -45 86.5t-109 33.5l-98 1v98
l83 3q66 1 108.5 33t42.5 79q0 42 -39.5 70t-95.5 28q-60 0 -102 -20.5t-61 -70.5l-111 13q15 90 92.5 132.5z" />
    <glyph glyph-name="four.osf" horiz-adv-x="625" 
d="M487 723v-445h110v-107h-110v-171h-122v171h-331v107l330 445h123zM364 278v273l-203 -273h203z" />
    <glyph glyph-name="five.osf" horiz-adv-x="656" 
d="M568 723l-7 -102h-348l-17 -201q55 23 87 33t76 10q71 0 127.5 -25.5t89.5 -77t33 -124.5q0 -76 -35.5 -131.5t-100 -85t-149.5 -29.5q-89 0 -164 34t-120 94l91 66q44 -49 82 -72t96 -23q78 0 122.5 40t44.5 103q0 61 -40 96t-106 35q-37 0 -69 -12t-74 -35
q-7 -4 -10 -4q-2 0 -5 2t-6 3l-83 47l31 359h454z" />
    <glyph glyph-name="six.osf" horiz-adv-x="632" 
d="M502 690.5q66 -46.5 78 -123.5l-106 -15q-21 43 -51 65t-80 22q-79 0 -123 -65.5t-44 -181.5q0 -27 1 -42q23 44 70.5 68.5t105.5 24.5q73 0 126.5 -28.5t82 -77.5t28.5 -111q0 -67 -34 -119.5t-94 -81.5t-135 -29q-89 0 -154 43t-99 123.5t-34 190.5q0 119 36 205.5
t104 132.5t160 46q96 0 162 -46.5zM258 335q-33 -14 -53 -38t-20 -53q9 -76 45 -115t94 -39t97.5 37t39.5 93q0 57 -37.5 93t-95.5 36q-37 0 -70 -14z" />
    <glyph glyph-name="seven.osf" horiz-adv-x="581" 
d="M556 723v-124q-60 -79 -119 -190t-99 -221.5t-45 -187.5h-133q9 71 41.5 173.5t91.5 221t143 226.5h-406v102h526z" />
    <glyph glyph-name="eight.osf" horiz-adv-x="631" 
d="M444.5 707q57.5 -26 89 -71.5t31.5 -103.5q0 -63 -37 -99t-74 -53q6 -3 46 -21.5t68.5 -60t28.5 -99.5q0 -64 -36 -111.5t-101 -72.5t-151 -25q-126 0 -200.5 49.5t-74.5 138.5q0 57 35 101.5t99 72.5q-115 54 -115 164q0 60 32.5 109.5t91.5 78.5t136 29q74 0 131.5 -26
zM221.5 608.5q-37.5 -30.5 -37.5 -77.5q0 -71 82 -92l86 -23q3 -1 8 -1q19 0 40 17.5t35.5 44.5t14.5 54q0 47 -36.5 77.5t-98.5 30.5q-56 0 -93.5 -30.5zM424.5 113.5q39.5 28.5 39.5 76.5q0 37 -21 61t-69 37l-106 28q-8 2 -11 2q-21 0 -45.5 -16.5t-41.5 -44t-17 -59.5
q0 -54 41.5 -83.5t122.5 -29.5q68 0 107.5 28.5z" />
    <glyph glyph-name="nine.osf" horiz-adv-x="632" 
d="M174 13q-52 22 -85.5 60.5t-41.5 87.5l111 14q18 -40 47.5 -63t78.5 -23q84 0 132.5 63.5t48.5 192.5q0 25 -1 38q-20 -48 -68 -75.5t-112 -27.5q-73 0 -128.5 28.5t-86 79t-30.5 114.5q0 68 34.5 120t94.5 81t135 29q89 0 153.5 -43t99 -123.5t34.5 -190.5
q0 -188 -79.5 -286t-221.5 -98q-63 0 -115 22zM371 393.5q33 14.5 53.5 38.5t20.5 51q-9 77 -45 116t-94 39t-95.5 -36.5t-37.5 -93.5q0 -55 36 -92t92 -37q37 0 70 14.5z" />
    <glyph glyph-name="zero.tf" horiz-adv-x="693" 
d="M496 690.5q64 -43.5 100 -127.5t36 -203q0 -118 -35.5 -201t-99.5 -125.5t-148 -42.5q-85 0 -149 42t-99.5 125t-35.5 201q0 119 36 203.5t100.5 128t147.5 43.5t147 -43.5zM460 155q38 64 38 204q0 276 -150 276q-72 0 -110.5 -67t-38.5 -209q0 -268 150 -268
q73 0 111 64z" />
    <glyph glyph-name="one.tf" horiz-adv-x="693" 
d="M618 115v-115h-525v115h205v477l-199 -67v109l263 89h66v-608h190z" />
    <glyph glyph-name="two.tf" horiz-adv-x="693" 
d="M98 96l230 213q62 56 93 90t44.5 61.5t13.5 59.5q0 54 -36.5 82t-87.5 28q-50 0 -90.5 -25t-61.5 -79l-111 13q19 90 87.5 142t179.5 52q112 0 180 -57t68 -156q-1 -58 -31.5 -106.5t-110.5 -127.5l-187 -182h336v-104h-516v96z" />
    <glyph glyph-name="three.tf" horiz-adv-x="693" 
d="M174.5 690.5q77.5 42.5 184.5 42.5q75 0 135 -24t94 -66.5t34 -95.5q0 -113 -136 -161q69 -18 113.5 -65t44.5 -116q0 -64 -39.5 -113t-106 -75.5t-145.5 -26.5q-119 0 -191 40t-95 138l113 13q24 -49 68 -70t99 -21q74 0 118 32t44 82q0 53 -45 86.5t-109 33.5l-98 1v98
l83 3q66 1 108.5 33t42.5 79q0 42 -39.5 70t-95.5 28q-60 0 -102 -20.5t-61 -70.5l-111 13q15 90 92.5 132.5z" />
    <glyph glyph-name="four.tf" horiz-adv-x="693" 
d="M531 723v-445h110v-107h-110v-171h-122v171h-331v107l330 445h123zM408 278v273l-203 -273h203z" />
    <glyph glyph-name="five.tf" horiz-adv-x="693" 
d="M597 723l-7 -102h-348l-17 -201q55 23 87 33t76 10q71 0 127.5 -25.5t89.5 -77t33 -124.5q0 -76 -35.5 -131.5t-100 -85t-149.5 -29.5q-89 0 -164 34t-120 94l91 66q44 -49 82 -72t96 -23q78 0 122.5 40t44.5 103q0 61 -40 96t-106 35q-37 0 -69 -12t-74 -35
q-7 -4 -10 -4q-2 0 -5 2t-6 3l-83 47l31 359h454z" />
    <glyph glyph-name="six.tf" horiz-adv-x="693" 
d="M536 690.5q66 -46.5 78 -123.5l-106 -15q-21 43 -51 65t-80 22q-79 0 -123 -65.5t-44 -181.5q0 -27 1 -42q23 44 70.5 68.5t105.5 24.5q73 0 126.5 -28.5t82 -77.5t28.5 -111q0 -67 -34 -119.5t-94 -81.5t-135 -29q-89 0 -154 43t-99 123.5t-34 190.5q0 119 36 205.5
t104 132.5t160 46q96 0 162 -46.5zM292 335q-33 -14 -53 -38t-20 -53q9 -76 45 -115t94 -39t97.5 37t39.5 93q0 57 -37.5 93t-95.5 36q-37 0 -70 -14z" />
    <glyph glyph-name="seven.tf" horiz-adv-x="693" 
d="M616 723v-124q-60 -79 -119 -190t-98.5 -221.5t-44.5 -187.5h-141q9 70 41 170.5t91 216.5t143 224h-431v112h559z" />
    <glyph glyph-name="eight.tf" horiz-adv-x="693" 
d="M482.5 707q57.5 -26 89 -71.5t31.5 -103.5q0 -63 -37 -99t-74 -53q6 -3 46 -21.5t68.5 -60t28.5 -99.5q0 -64 -36 -111.5t-101 -72.5t-151 -25q-126 0 -200.5 49.5t-74.5 138.5q0 57 35 101.5t99 72.5q-115 54 -115 164q0 60 32.5 109.5t91.5 78.5t136 29q74 0 131.5 -26
zM259.5 608.5q-37.5 -30.5 -37.5 -77.5q0 -71 82 -92l86 -23q3 -1 8 -1q19 0 40 17.5t35.5 44.5t14.5 54q0 47 -36.5 77.5t-98.5 30.5q-56 0 -93.5 -30.5zM462.5 113.5q39.5 28.5 39.5 76.5q0 37 -21 61t-69 37l-106 28q-8 2 -11 2q-21 0 -45.5 -16.5t-41.5 -44t-17 -59.5
q0 -54 41.5 -83.5t122.5 -29.5q68 0 107.5 28.5z" />
    <glyph glyph-name="nine.tf" horiz-adv-x="693" 
d="M209 13q-52 22 -85.5 60.5t-41.5 87.5l111 14q18 -40 47.5 -63t78.5 -23q84 0 132.5 63.5t48.5 192.5q0 25 -1 38q-20 -48 -68 -75.5t-112 -27.5q-73 0 -128.5 28.5t-86 79t-30.5 114.5q0 68 34.5 120t94.5 81t135 29q89 0 153.5 -43t99 -123.5t34.5 -190.5
q0 -188 -79.5 -286t-221.5 -98q-63 0 -115 22zM406 393.5q33 14.5 53.5 38.5t20.5 51q-9 77 -45 116t-94 39t-95.5 -36.5t-37.5 -93.5q0 -55 36 -92t92 -37q37 0 70 14.5z" />
    <glyph glyph-name="zero.subs" horiz-adv-x="413" 
d="M318 230q49 -62 49 -174q0 -111 -48.5 -171.5t-129.5 -60.5q-82 0 -130.5 60.5t-48.5 171.5q0 112 49.5 174t129.5 62t129 -62zM283 56q0 173 -95 173q-44 0 -68.5 -42t-24.5 -131q0 -169 94 -169t94 169z" />
    <glyph glyph-name="one.subs" horiz-adv-x="299" 
d="M80 203l-84 -26v54l117 59h45v-455h-78v368z" />
    <glyph glyph-name="two.subs" horiz-adv-x="382" 
d="M14 -105l144 134q39 36 58.5 57t28 38.5t8.5 37.5q0 34 -23 51.5t-55 17.5q-31 0 -56.5 -15.5t-38.5 -49.5l-70 8q12 57 55 89.5t113 32.5t113 -36t43 -98q-1 -36 -20 -66.5t-70 -80.5l-117 -115h211v-65h-324v60z" />
    <glyph glyph-name="three.subs" horiz-adv-x="397" 
d="M88.5 266.5q48.5 26.5 115.5 26.5q71 0 118 -33t47 -84q0 -72 -85 -101q44 -12 71.5 -41.5t27.5 -72.5q0 -40 -25 -71t-67 -47.5t-91 -16.5q-75 0 -120 25t-60 87l71 8q29 -57 106 -57q46 0 73.5 20t27.5 51q0 34 -28 55t-68 21h-62v62l52 2q41 1 68 21t27 49
q0 27 -25 44.5t-60 17.5q-38 0 -64 -13t-38 -44l-70 8q10 57 58.5 83.5z" />
    <glyph glyph-name="four.subs" horiz-adv-x="413" 
d="M299 290v-280h69v-67h-69v-108h-76v108h-209v67l208 280h77zM222 10v172l-128 -172h128z" />
    <glyph glyph-name="five.subs" horiz-adv-x="399" 
d="M352 287l-4 -64h-219l-11 -127q32 14 53.5 20.5t49.5 6.5q69 0 113 -37t44 -106q0 -72 -49 -113t-130 -41q-56 0 -103.5 21.5t-75.5 58.5l57 42q28 -31 52 -45.5t60 -14.5q49 0 77 25t28 65q0 38 -25 60t-66 22q-23 0 -43 -7.5t-47 -21.5q-4 -2 -6.5 -2.5t-4 0.5t-3.5 2
l-52 30l20 226h285z" />
    <glyph glyph-name="six.subs" horiz-adv-x="401" 
d="M299 264.5q42 -29.5 49 -77.5l-67 -10q-13 27 -32 41t-50 14q-50 0 -78 -41.5t-28 -115.5q0 -16 1 -25q15 28 45 43.5t66 15.5q69 0 109 -38.5t40 -98.5q0 -64 -46.5 -104.5t-118.5 -40.5q-85 0 -133 60t-48 165q0 113 50.5 177.5t138.5 64.5q60 0 102 -29.5zM126.5 30.5
q-27.5 -19.5 -27.5 -47.5q6 -47 29 -71.5t59 -24.5t61 23t25 58q0 37 -23.5 59.5t-60.5 22.5q-35 0 -62.5 -19.5z" />
    <glyph glyph-name="seven.subs" horiz-adv-x="363" 
d="M356 290v-78q-38 -50 -75 -120t-62.5 -139.5t-28.5 -117.5h-83q5 45 25.5 109.5t57.5 139t90 142.5h-255v64h331z" />
    <glyph glyph-name="eight.subs" horiz-adv-x="399" 
d="M301 257.5q44 -35.5 44 -90.5q0 -40 -23 -63t-46 -33q4 -2 29.5 -14t43 -38t17.5 -62q0 -61 -49.5 -96t-132.5 -35q-79 0 -126 31t-47 87q0 35 22.5 63t62.5 46q-26 13 -49.5 35.5t-23.5 68.5q0 38 20.5 69t57.5 49t86 18q70 0 114 -35.5zM129.5 215q-23.5 -19 -23.5 -49
q0 -44 51 -58l54 -14q12 -3 26.5 7t25 28.5t10.5 36.5q0 30 -23 49t-62 19q-35 0 -58.5 -19zM257 -97q25 18 25 49q0 23 -13 38t-44 23l-66 18q-12 4 -29.5 -5.5t-30.5 -28t-13 -40.5q0 -34 26 -53t77 -19q43 0 68 18z" />
    <glyph glyph-name="nine.subs" horiz-adv-x="401" 
d="M67 -146q-42 30 -50 77l69 9q12 -25 30.5 -39.5t49.5 -14.5q53 0 83.5 40t30.5 121l-1 24q-13 -30 -43 -47.5t-70 -17.5q-70 0 -112 39t-42 101q0 64 47 104t119 40q84 0 132 -59.5t48 -164.5q0 -119 -50 -180.5t-139 -61.5q-60 0 -102 30zM239.5 88q27.5 20 27.5 46
q-6 49 -28.5 73t-59.5 24q-36 0 -59.5 -23t-23.5 -58t22.5 -58.5t57.5 -23.5q36 0 63.5 20z" />
    <glyph glyph-name="zero.dnom" horiz-adv-x="413" 
d="M318 395q49 -62 49 -174q0 -111 -48.5 -171.5t-129.5 -60.5q-82 0 -130.5 60.5t-48.5 171.5q0 112 49.5 174t129.5 62t129 -62zM283 221q0 173 -95 173q-44 0 -68.5 -42t-24.5 -131q0 -169 94 -169t94 169z" />
    <glyph glyph-name="one.dnom" horiz-adv-x="299" 
d="M80 368l-84 -26v54l117 59h45v-455h-78v368z" />
    <glyph glyph-name="two.dnom" horiz-adv-x="382" 
d="M14 60l144 134q39 36 58.5 57t28 38.5t8.5 37.5q0 34 -23 51.5t-55 17.5q-31 0 -56.5 -15.5t-38.5 -49.5l-70 8q12 57 55 89.5t113 32.5t113 -36t43 -98q-1 -36 -20 -66.5t-70 -80.5l-117 -115h211v-65h-324v60z" />
    <glyph glyph-name="three.dnom" horiz-adv-x="397" 
d="M88.5 431.5q48.5 26.5 115.5 26.5q71 0 118 -33t47 -84q0 -72 -85 -101q44 -12 71.5 -41.5t27.5 -72.5q0 -40 -25 -71t-67 -47.5t-91 -16.5q-75 0 -120 25t-60 87l71 8q29 -57 106 -57q46 0 73.5 20t27.5 51q0 34 -28 55t-68 21h-62v62l52 2q41 1 68 21t27 49
q0 27 -25 44.5t-60 17.5q-38 0 -64 -13t-38 -44l-70 8q10 57 58.5 83.5z" />
    <glyph glyph-name="four.dnom" horiz-adv-x="413" 
d="M299 455v-280h69v-67h-69v-108h-76v108h-209v67l208 280h77zM222 175v172l-128 -172h128z" />
    <glyph glyph-name="five.dnom" horiz-adv-x="399" 
d="M352 452l-4 -64h-219l-11 -127q32 14 53.5 20.5t49.5 6.5q69 0 113 -37t44 -106q0 -72 -49 -113t-130 -41q-56 0 -103.5 21.5t-75.5 58.5l57 42q28 -31 52 -45.5t60 -14.5q49 0 77 25t28 65q0 38 -25 60t-66 22q-23 0 -43 -7.5t-47 -21.5q-4 -2 -6.5 -2.5t-4 0.5t-3.5 2
l-52 30l20 226h285z" />
    <glyph glyph-name="six.dnom" horiz-adv-x="401" 
d="M299 429.5q42 -29.5 49 -77.5l-67 -10q-13 27 -32 41t-50 14q-50 0 -78 -41.5t-28 -115.5q0 -16 1 -25q15 28 45 43.5t66 15.5q69 0 109 -38.5t40 -98.5q0 -64 -46.5 -104.5t-118.5 -40.5q-85 0 -133 60t-48 165q0 113 50.5 177.5t138.5 64.5q60 0 102 -29.5z
M126.5 195.5q-27.5 -19.5 -27.5 -47.5q6 -47 29 -71.5t59 -24.5t61 23t25 58q0 37 -23.5 59.5t-60.5 22.5q-35 0 -62.5 -19.5z" />
    <glyph glyph-name="seven.dnom" horiz-adv-x="363" 
d="M356 455v-78q-38 -50 -75 -120t-62.5 -139.5t-28.5 -117.5h-83q5 45 25.5 109.5t57.5 139t90 142.5h-255v64h331z" />
    <glyph glyph-name="eight.dnom" horiz-adv-x="399" 
d="M301 421.5q44 -35.5 44 -90.5q0 -40 -23 -63t-46 -33q4 -2 29.5 -14t43 -38t17.5 -62q0 -61 -49.5 -96t-132.5 -35q-79 0 -126 31t-47 87q0 35 22.5 63t62.5 46q-26 13 -49.5 35.5t-23.5 68.5q0 38 20.5 69t57.5 49t86 18q70 0 114 -35.5zM129.5 379q-23.5 -19 -23.5 -49
q0 -44 51 -58l54 -14q12 -3 26.5 7t25 28.5t10.5 36.5q0 30 -23 49t-62 19q-35 0 -58.5 -19zM257 67q25 18 25 49q0 23 -13 38t-44 23l-66 18q-12 4 -29.5 -5.5t-30.5 -28t-13 -40.5q0 -34 26 -53t77 -19q43 0 68 18z" />
    <glyph glyph-name="nine.dnom" horiz-adv-x="401" 
d="M67 19q-42 30 -50 77l69 9q12 -25 30.5 -39.5t49.5 -14.5q53 0 83.5 40t30.5 121l-1 24q-13 -30 -43 -47.5t-70 -17.5q-70 0 -112 39t-42 101q0 64 47 104t119 40q84 0 132 -59.5t48 -164.5q0 -119 -50 -180.5t-139 -61.5q-60 0 -102 30zM239.5 253q27.5 20 27.5 46
q-6 49 -28.5 73t-59.5 24q-36 0 -59.5 -23t-23.5 -58t22.5 -58.5t57.5 -23.5q36 0 63.5 20z" />
    <glyph glyph-name="zero.numr" horiz-adv-x="413" 
d="M318 679q49 -62 49 -174q0 -111 -48.5 -171.5t-129.5 -60.5q-82 0 -130.5 60.5t-48.5 171.5q0 112 49.5 174t129.5 62t129 -62zM283 505q0 173 -95 173q-44 0 -68.5 -42t-24.5 -131q0 -169 94 -169t94 169z" />
    <glyph glyph-name="one.numr" horiz-adv-x="299" 
d="M80 644l-84 -26v54l117 59h45v-455h-78v368z" />
    <glyph glyph-name="two.numr" horiz-adv-x="382" 
d="M14 339l144 134q57 52 76 78t19 55q0 34 -23 51.5t-55 17.5q-31 0 -56.5 -15.5t-38.5 -49.5l-70 8q12 57 55 89.5t113 32.5q71 0 113.5 -36t42.5 -98q-1 -37 -20 -67.5t-70 -79.5l-117 -115h211v-65h-324v60z" />
    <glyph glyph-name="three.numr" horiz-adv-x="397" 
d="M88.5 713.5q48.5 26.5 115.5 26.5q71 0 118 -33t47 -84q0 -72 -85 -101q44 -12 71.5 -41.5t27.5 -72.5q0 -40 -25 -71t-67 -47.5t-91 -16.5q-75 0 -120 25t-60 87l71 8q29 -57 106 -57q46 0 73.5 20t27.5 51q0 34 -28 55t-68 21h-62v62l52 2q41 1 68 21t27 49
q0 27 -25 44.5t-60 17.5q-38 0 -64 -13t-38 -44l-70 8q10 57 58.5 83.5z" />
    <glyph glyph-name="four.numr" horiz-adv-x="413" 
d="M299 731v-280h70v-67h-70v-108h-76v108h-209v67l208 280h77zM222 451v172l-128 -172h128z" />
    <glyph glyph-name="five.numr" horiz-adv-x="399" 
d="M352 731l-4 -64h-219l-11 -127q32 14 53.5 20.5t49.5 6.5q69 0 113 -37t44 -106q0 -72 -49 -113t-130 -41q-56 0 -103.5 21.5t-75.5 58.5l57 42q28 -31 52 -45.5t60 -14.5q49 0 77 25t28 65q0 38 -25 60t-66 22q-23 0 -43 -7.5t-47 -21.5q-4 -2 -6.5 -2.5t-4 0.5t-3.5 2
l-52 30l20 226h285z" />
    <glyph glyph-name="six.numr" horiz-adv-x="401" 
d="M299 714.5q42 -29.5 49 -77.5l-67 -10q-13 27 -32 41t-50 14q-50 0 -78 -41.5t-28 -115.5q0 -16 1 -25q15 28 45 43.5t66 15.5q69 0 109 -38.5t40 -98.5q0 -64 -46.5 -104.5t-118.5 -40.5q-85 0 -133 60t-48 165q0 113 50.5 177.5t138.5 64.5q60 0 102 -29.5z
M126.5 480.5q-27.5 -19.5 -27.5 -47.5q6 -47 28.5 -71.5t59.5 -24.5q36 0 61 23t25 58q0 37 -23.5 59.5t-60.5 22.5q-35 0 -62.5 -19.5z" />
    <glyph glyph-name="seven.numr" horiz-adv-x="363" 
d="M356 730v-78q-59 -78 -110 -191t-56 -186h-83q10 75 53 184t120 207h-255v64h331z" />
    <glyph glyph-name="eight.numr" horiz-adv-x="399" 
d="M301 704.5q44 -35.5 44 -90.5q0 -40 -23 -63t-46 -33q4 -2 29.5 -14t43 -38t17.5 -62q0 -61 -49.5 -96t-132.5 -35q-79 0 -126 31t-47 87q0 35 22.5 63t62.5 46q-26 13 -49.5 35.5t-23.5 68.5q0 38 20.5 69t57.5 49t86 18q70 0 114 -35.5zM129.5 662q-23.5 -19 -23.5 -49
q0 -44 51 -58l54 -14q12 -3 26.5 7t25 28.5t10.5 36.5q0 30 -23 49t-62 19q-35 0 -58.5 -19zM257 350q25 18 25 49q0 23 -13 38t-44 23l-66 18q-12 4 -29.5 -5.5t-30.5 -28t-13 -40.5q0 -34 26 -53t77 -19q43 0 68 18z" />
    <glyph glyph-name="nine.numr" horiz-adv-x="401" 
d="M67 304q-42 30 -50 77l69 9q12 -25 30.5 -39.5t49.5 -14.5q53 0 83.5 40t30.5 121l-1 24q-13 -30 -43 -47.5t-70 -17.5q-70 0 -112 39t-42 101q0 64 47 104t119 40q84 0 132 -59.5t48 -164.5q0 -119 -50 -180.5t-139 -61.5q-60 0 -102 30zM239.5 538q27.5 20 27.5 46
q-6 49 -28.5 73t-59.5 24q-36 0 -59.5 -23t-23.5 -58t22.5 -58.5t57.5 -23.5q36 0 63.5 20z" />
    <glyph glyph-name="comma.tf" horiz-adv-x="292" 
d="M139 -3l-48 4v127h133v-112l-93 -149h-49z" />
    <glyph glyph-name="period.tf" horiz-adv-x="292" 
d="M225 0h-138v140h138v-140z" />
    <glyph glyph-name="bullet.uc" horiz-adv-x="335" 
d="M84 288q-33 33 -33 80t33 80t79 33q47 0 80 -33t33 -80t-33 -80t-80 -33q-46 0 -79 33z" />
    <glyph glyph-name="caroncomb.alt" horiz-adv-x="0" 
d="M-122.5 519.5q-2.5 3.5 -0.5 7.5l29 72l2 9q0 5 -7 6l-8 2q-8 1 -10.5 3t-2.5 8v85q0 11 9 11h71q9 0 9 -9v-98q0 -3 -1 -4.5t-1 -2.5l-35 -82q-2 -6 -7 -8.5t-15 -2.5h-26q-4 0 -6.5 3.5z" />
    </font>
</defs>
</svg>
