<?xml version="1.0" standalone="no"?>
<!DOCTYPE svg PUBLIC "-//W3C//DTD SVG 1.1//EN" "http://www.w3.org/Graphics/SVG/1.1/DTD/svg11.dtd" >
<svg xmlns="http://www.w3.org/2000/svg" xmlns:xlink="http://www.w3.org/1999/xlink" version="1.1">
<metadata>
Created by FontForge 20170731 at Thu Oct  4 20:56:38 2018
 By Aleksey,,,
</metadata>
<defs>
<font id="CheyenneSans-Black" horiz-adv-x="625" >
  <font-face 
    font-family="Cheyenne Sans Black"
    font-weight="900"
    font-stretch="normal"
    units-per-em="1000"
    panose-1="0 0 10 0 0 0 0 0 0 0"
    ascent="800"
    descent="-200"
    x-height="517"
    cap-height="723"
    bbox="-474 -240 1397 991"
    underline-thickness="50"
    underline-position="-200"
    unicode-range="U+000D-FB02"
  />
<missing-glyph horiz-adv-x="626" 
d="M556 820.5q5 -5.5 5 -15.5v-938q0 -15 -8 -21.5t-25 -6.5h-436q-15 0 -21 5.5t-6 18.5v940q0 11 5 17t14 6h459q8 0 13 -5.5zM506 772.5q-4 4.5 -11 4.5h-343l358 -834v817q0 8 -4 12.5zM121 -107q5 -5 17 -5h336l-358 828v-808q0 -10 5 -15z" />
    <glyph glyph-name="fi" unicode="fi" horiz-adv-x="721" 
d="M388 385h-94v-385h-195v385h-83v132h83v69q0 64 42 100.5t113 36.5h138l1 -126h-60q-24 0 -33.5 -11t-9.5 -39v-30h98v-132zM665 579h-195v164h195v-164zM665 0h-195v517h195v-517z" />
    <glyph glyph-name="fl" unicode="fl" horiz-adv-x="761" 
d="M388 385h-94v-385h-195v385h-83v132h83v69q0 64 42 100.5t113 36.5h138l1 -126h-60q-24 0 -33.5 -11t-9.5 -39v-30h98v-132zM535 13q-43 24 -54 58.5t-11 84.5v587h191v-561q0 -23 11.5 -37.5t46.5 -19.5l21 -2v-118q-41 -16 -73 -16q-89 0 -132 24z" />
    <glyph glyph-name="f_f.liga" unicode="ff" horiz-adv-x="888" 
d="M827 385h-94v-385h-195v385h-84v132h84v69q0 64 41.5 100.5t112.5 36.5h139l1 -126h-60q-24 0 -34 -11t-10 -39v-30h99v-132zM396 385h-96v-385h-195v385h-84v132h84v48q0 63 41.5 100t112.5 37h139l1 -127h-60q-24 0 -34 -10.5t-10 -38.5v-9h101v-132z" />
    <glyph glyph-name="colon_one_eight_F_colon.liga" unicode="&#x3a;&#x31;&#x38;F&#x3a;" horiz-adv-x="780" 
d="M759 761q11 0 11 -12v-736q0 -6 -3 -9.5t-8 -3.5h-738q-11 0 -11 13v736q0 12 11 12h738zM437.5 259.5q25.5 25.5 25.5 60.5q0 21 -10 39.5t-27 30.5q26 25 26 58q0 31 -22 53t-53 22q-33 0 -54.5 -22t-21.5 -53t27 -58q-37 -25 -37 -70q0 -35 25 -60.5t61 -25.5
q35 0 60.5 25.5zM249 515q0 5 -4 5h-68q-3 0 -3 -5v-26q0 -4 3 -4h37v-242q0 -4 3 -4h28q4 0 4 4v272zM618 515q0 5 -4 5h-105q-4 0 -4 -5v-272q0 -4 4 -4h26q6 0 6 4v124h61q3 0 3 4v25q0 5 -3 5h-61v84h73q4 0 4 4v26zM347 419q-12 11 -12 29q0 17 12.5 29t29.5 12t29 -12
t12 -29q0 -18 -11.5 -29t-29.5 -11t-30 11zM413.5 356.5q14.5 -14.5 14.5 -36.5q0 -21 -14.5 -36t-36.5 -15q-21 0 -36 15t-15 36q0 22 15 36.5t36 14.5q22 0 36.5 -14.5z" />
    <glyph glyph-name="colon_f_l_a_g_two_colon.liga" unicode="&#x3a;flag&#x32;&#x3a;" horiz-adv-x="1164" 
d="M1115 761v-760h-1066v760h1066zM1053 698h-535v-53h535v53zM206 585v59h-63v-59h63zM440 585v59h-61v-59h61zM323 527v58h-61v-58h61zM1053 528v55h-535v-55h535zM206 468v59h-61v-59h61zM379 527v-59h61v59h-61zM262 468v-58h61v58h-61zM1053 411v55h-535v-55h535z
M145 410v-59h61v59h-61zM379 410v-59h61v59h-61zM1053 294v55h-535v-55h535zM110 232v-55h943v55h-943zM1053 63v52h-942v-52h942z" />
    <glyph glyph-name="colon_f_l_a_g_colon.liga" unicode="&#x3a;flag&#x3a;" horiz-adv-x="1164" 
d="M1115 761v-760h-1066v760h1066zM107 702v-409h950v58h-540v59h540v58h-540v59h540v58h-540v59h540v58h-950zM224 585h-58v59h58v-59zM458 585h-58v59h58v-59zM341 527h-58v58h58v-58zM224 468h-58v59h58v-59zM458 468h-58v59h58v-59zM341 410h-58v58h58v-58zM224 351h-58
v59h58v-59zM458 351h-58v59h58v-59zM107 234v-58h950v58h-950zM1057 59v58h-950v-58h950z" />
    <glyph glyph-name=".notdef" horiz-adv-x="626" 
d="M556 820.5q5 -5.5 5 -15.5v-938q0 -15 -8 -21.5t-25 -6.5h-436q-15 0 -21 5.5t-6 18.5v940q0 11 5 17t14 6h459q8 0 13 -5.5zM506 772.5q-4 4.5 -11 4.5h-343l358 -834v817q0 8 -4 12.5zM121 -107q5 -5 17 -5h336l-358 828v-808q0 -10 5 -15z" />
    <glyph glyph-name="uni0000" horiz-adv-x="18" 
 />
    <glyph glyph-name="uni0000" horiz-adv-x="18" 
 />
    <glyph glyph-name="nonmarkingreturn" unicode="&#xd;" horiz-adv-x="234" 
 />
    <glyph glyph-name="space" unicode=" " horiz-adv-x="250" 
 />
    <glyph glyph-name="exclam" unicode="!" horiz-adv-x="299" 
d="M204 259h-119l-55 464h225zM245 0h-205v192h205v-192z" />
    <glyph glyph-name="quotedbl" unicode="&#x22;" horiz-adv-x="526" 
d="M452 401h-91l-46 322h183zM196 401h-91l-46 322h183z" />
    <glyph glyph-name="numbersign" unicode="#" horiz-adv-x="617" 
d="M470 421l-16 -111h107v-94h-120l-32 -219l-95 12l30 207h-122l-32 -219l-94 12l30 207h-111v94h125l16 111h-109v94h123l31 210l93 -9l-29 -201h123l31 210l94 -9l-29 -201h109v-94h-123zM374 421h-123l-16 -111h123z" />
    <glyph glyph-name="dollar" unicode="$" horiz-adv-x="693" 
d="M584.5 74q-60.5 -62 -164.5 -75q-13 -1 -16.5 -5t-3.5 -15v-50h-122v68q-78 7 -140.5 31.5t-121.5 68.5l107 120q72 -67 157 -86l1 149q-125 17 -181 77t-56 145q0 78 54.5 134.5t158.5 79.5q9 2 16.5 7t7.5 13v46h119v-60q123 -37 194 -81l-91 -122q-37 37 -91 59
q-2 1 -5 1q-8 0 -8 -9v-121l78 -18q73 -18 120.5 -73.5t47.5 -129.5q0 -92 -60.5 -154zM281 585q-25 0 -52 -17t-27 -42q0 -30 20 -44.5t59 -18.5v122zM463 155.5q23 17.5 23 39.5q0 56 -87 69v-133q41 7 64 24.5z" />
    <glyph glyph-name="percent" unicode="%" horiz-adv-x="962" 
d="M326 705q44 -29 70 -77t26 -101q0 -52 -25.5 -98.5t-69.5 -74.5t-97 -28q-54 0 -98.5 28t-70 74.5t-25.5 98.5q0 53 26 101t70.5 77t97.5 29q52 0 96 -29zM301 -4l-106 2l487 733h105zM270 446.5q11 25.5 11 80.5q0 58 -12 85.5t-40 27.5t-40 -28t-12 -85
q0 -55 11.5 -80.5t40.5 -25.5q30 0 41 25.5zM820.5 369.5q44.5 -29.5 70.5 -77t26 -100.5q0 -52 -25.5 -98.5t-70 -75t-97.5 -28.5t-98 28.5t-70.5 75t-25.5 98.5q0 53 26 100.5t71 77t97 29.5t96.5 -29.5zM763.5 111q11.5 25 11.5 80q0 58 -12 85.5t-40 27.5t-39.5 -28
t-11.5 -85q0 -54 11 -79.5t40 -25.5t40.5 25z" />
    <glyph glyph-name="ampersand" unicode="&#x26;" horiz-adv-x="846" 
d="M515.5 713.5q55.5 -20.5 87 -57t31.5 -82.5q0 -52 -39.5 -97.5t-110.5 -92.5l72 -85l11 37q24 91 25 94h202q-12 -28 -34.5 -63t-45.5 -69q-48 -70 -68 -109l162 -189h-222l-54 62q-104 -67 -239 -67q-126 0 -186.5 50t-60.5 136q0 73 45 122.5t147 103.5l-19 21
q-35 40 -50 65.5t-15 62.5q0 51 30 91.5t84.5 63.5t123.5 23q68 0 123.5 -20.5zM362 607.5q-17 -14.5 -17 -37.5q0 -28 38 -69l23 -24q33 23 47 43.5t14 43.5q0 27 -17 42.5t-43 15.5q-28 0 -45 -14.5zM282.5 260q-19.5 -23 -19.5 -49q0 -34 26 -52.5t54 -18.5
q21 0 49.5 8.5t47.5 25.5l-109 125q-29 -16 -48.5 -39z" />
    <glyph glyph-name="quotesingle" unicode="'" horiz-adv-x="261" 
d="M176 401h-91l-46 322h183z" />
    <glyph glyph-name="parenleft" unicode="(" horiz-adv-x="353" 
d="M241.5 508q-29.5 -114 -29.5 -231q0 -111 28 -215t85 -223h-138q-72 119 -107.5 219t-35.5 220q0 121 37.5 234.5t104.5 210.5h139q-54 -101 -83.5 -215z" />
    <glyph glyph-name="parenright" unicode=")" horiz-adv-x="353" 
d="M90.5 508q29.5 -114 29.5 -231q0 -111 -28 -215t-85 -223h138q72 119 107.5 219t35.5 220q0 121 -37.5 234.5t-104.5 210.5h-139q54 -101 83.5 -215z" />
    <glyph glyph-name="asterisk" unicode="*" horiz-adv-x="537" 
d="M264 420l-87 -148l-99 70l111 129l-161 44l40 109l151 -69l-13 168h120l-17 -169l154 69l35 -110l-156 -42l109 -128l-100 -69z" />
    <glyph glyph-name="plus" unicode="+" horiz-adv-x="608" 
d="M555 295h-185v-185h-138v185h-186v138h186v186h138v-186h185v-138z" />
    <glyph glyph-name="comma" unicode="," horiz-adv-x="301" 
d="M106 -6l-58 7v169h177v-150l-115 -173h-64z" />
    <glyph glyph-name="hyphen" unicode="-" horiz-adv-x="400" 
d="M340 188h-290v137h290v-137z" />
    <glyph glyph-name="period" unicode="." horiz-adv-x="301" 
d="M246 0h-205v196h205v-196z" />
    <glyph glyph-name="slash" unicode="/" horiz-adv-x="400" 
d="M259 723h129l-255 -723h-129z" />
    <glyph glyph-name="zero" unicode="0" horiz-adv-x="681" 
d="M504.5 689.5q70.5 -44.5 109 -129t38.5 -200.5q0 -115 -38 -198t-108 -126.5t-165 -43.5t-165.5 43.5t-109 126.5t-38.5 198q0 116 39 200.5t110 129t164 44.5t163.5 -44.5zM397.5 165q21.5 21 31 67.5t9.5 126.5q0 122 -22.5 173.5t-75.5 51.5q-52 0 -74.5 -51.5
t-22.5 -173.5q0 -79 9.5 -126t30.5 -68t57 -21t57.5 21z" />
    <glyph glyph-name="one" unicode="1" horiz-adv-x="421" 
d="M139 511l-120 -27v129l220 110h95v-723h-195v511z" />
    <glyph glyph-name="two" unicode="2" horiz-adv-x="645" 
d="M31 136l222 184q70 59 101 88t41.5 48.5t10.5 44.5q0 33 -23 54t-62 21q-44 0 -75.5 -26t-42.5 -82h-183q0 77 34 136.5t102.5 94t168.5 34.5q88 0 152 -29t98.5 -81t34.5 -120q0 -54 -25.5 -94.5t-93.5 -102.5l-159 -146h285v-160h-586v136z" />
    <glyph glyph-name="three" unicode="3" horiz-adv-x="694" 
d="M113 677q94 56 239 56q81 0 149 -24t107.5 -68t39.5 -101q0 -107 -129 -152q60 -16 106 -60t46 -113q0 -71 -48.5 -122t-122 -77t-147.5 -26q-161 0 -247.5 54.5t-86.5 193.5h184q10 -52 48 -74t85 -22q52 0 85 21.5t33 51.5q0 31 -27.5 53.5t-72.5 23.5l-98 2v150l86 5
q45 2 71.5 23t26.5 51q0 28 -30 46t-65 18q-60 0 -98.5 -18.5t-44.5 -78.5h-183q0 131 94 187z" />
    <glyph glyph-name="four" unicode="4" horiz-adv-x="638" 
d="M525 723v-421h104v-164h-104v-138h-196l1 138h-316v157l318 428h193zM332 302v156l-116 -156h116z" />
    <glyph glyph-name="five" unicode="5" horiz-adv-x="678" 
d="M599 723l-8 -156h-337l-11 -120q51 14 79.5 19.5t62.5 5.5q79 0 138.5 -28t92.5 -81.5t33 -126.5q0 -116 -80 -181t-219 -65q-110 0 -198 43t-129 112l145 98q27 -35 47 -55t47.5 -33t64.5 -13q52 0 81.5 24.5t29.5 62.5q0 37 -27.5 63t-80.5 26q-23 0 -43.5 -5.5
t-54.5 -20.5q-9 -4 -14 -4q-6 0 -15 5l-132 71l34 359h494z" />
    <glyph glyph-name="six" unicode="6" horiz-adv-x="670" 
d="M489 705.5q64 -27.5 102 -79t38 -120.5h-176q-12 40 -36 58.5t-63 18.5q-52 0 -82.5 -38.5t-30.5 -93.5q0 -16 3 -33q54 33 145 33q75 0 132 -27t88.5 -76t31.5 -112q0 -69 -38.5 -124t-106 -86.5t-151.5 -31.5q-98 0 -170 43.5t-110 123t-38 184.5q0 120 39.5 207.5
t112 134t170.5 46.5q76 0 140 -27.5zM294.5 302q-22.5 -9 -37.5 -22t-15 -22q0 -61 25.5 -92t69.5 -31q40 0 70 26.5t30 65.5q0 43 -29.5 63.5t-69.5 20.5q-21 0 -43.5 -9z" />
    <glyph glyph-name="seven" unicode="7" horiz-adv-x="597" 
d="M588 723v-199q-54 -60 -107.5 -150.5t-88 -190t-32.5 -183.5h-209q0 61 25 153.5t83 202.5t151 211h-391v156h569z" />
    <glyph glyph-name="eight" unicode="8" horiz-adv-x="652" 
d="M466 706q64 -27 100 -73.5t36 -102.5q0 -55 -36.5 -87.5t-73.5 -45.5q43 -22 70 -40.5t49.5 -54t22.5 -88.5q0 -106 -86 -165t-232 -59q-134 0 -215.5 49t-81.5 138q0 66 37 102t94 56q-3 2 -31 20t-54.5 57.5t-26.5 89.5q0 63 34 115.5t98 84t152 31.5q80 0 144 -27z
M267 575.5q-23 -16.5 -23 -45.5q0 -39 47 -56l62 -22q8 -2 12 -2q23 0 41.5 24t18.5 49q0 28 -26.5 48.5t-72.5 20.5q-36 0 -59 -16.5zM397.5 148.5q23.5 16.5 23.5 45.5q0 21 -13.5 37t-49.5 29l-69 25q-7 3 -16 3q-26 0 -47.5 -22t-21.5 -53q0 -39 29.5 -60t96.5 -21
q44 0 67.5 16.5z" />
    <glyph glyph-name="nine" unicode="9" horiz-adv-x="670" 
d="M179 20.5q-65 28.5 -104 80.5t-39 118h183q6 -36 29.5 -56.5t61.5 -20.5q62 0 100 33t38 109q0 9 -2 31q-49 -51 -153 -51q-75 0 -135.5 28t-95 79t-34.5 118q0 69 38.5 124t106 86.5t151.5 31.5q99 0 170.5 -43.5t109.5 -123t38 -184.5q0 -198 -85 -293t-238 -95
q-75 0 -140 28.5zM374.5 423q22.5 9 37.5 22t15 22q0 62 -25.5 93t-69.5 31q-39 0 -65.5 -26t-26.5 -67q0 -40 27 -62t64 -22q21 0 43.5 9z" />
    <glyph glyph-name="colon" unicode=":" horiz-adv-x="301" 
d="M246 320h-205v192h205v-192zM246 3h-205v192h205v-192z" />
    <glyph glyph-name="semicolon" unicode=";" horiz-adv-x="301" 
d="M41 509h205v-196h-205v196zM111 0h-70v193h205v-171l-131 -187h-77z" />
    <glyph glyph-name="less" unicode="&#x3c;" horiz-adv-x="607" 
d="M537 72l-496 191v155l496 191v-160l-290 -110l290 -105v-162z" />
    <glyph glyph-name="equal" unicode="=" horiz-adv-x="608" 
d="M555 389h-509v138h509v-138zM555 154h-509v138h509v-138z" />
    <glyph glyph-name="greater" unicode="&#x3e;" horiz-adv-x="607" 
d="M351 339l-291 110v160l497 -191v-155l-497 -191v162z" />
    <glyph glyph-name="question" unicode="?" horiz-adv-x="540" 
d="M97.5 686.5q68.5 46.5 169.5 46.5q73 0 130.5 -23t89.5 -61.5t32 -82.5q0 -38 -13.5 -66.5t-33 -49t-51.5 -46.5q-44 -36 -66.5 -66.5t-22.5 -75.5h-152q0 51 14 89.5t34 64t50 55.5q27 29 39 46.5t12 37.5q0 23 -19 37t-45 14q-33 0 -61.5 -23.5t-44.5 -66.5l-162 35
q32 89 100.5 135.5zM358 0h-205v192h205v-192z" />
    <glyph glyph-name="at" unicode="@" horiz-adv-x="837" 
d="M571 -88q-66 -22 -147 -22q-118 0 -205 48.5t-133.5 132t-46.5 184.5q0 106 49.5 195t142 141.5t215.5 52.5q95 0 176 -33.5t131 -104.5t50 -176q0 -73 -24.5 -130t-68.5 -89t-102 -32q-40 0 -62 12.5t-37 29.5q-5 5 -6 5q-3 0 -7 -6q-23 -25 -55.5 -40t-70.5 -15
q-68 0 -111.5 47t-43.5 124q0 59 25 111t71 84t107 32q37 0 58 -10.5t43 -30.5q3 -3 5.5 -2t3.5 6l2 12h104l-35 -209q-2 -14 -2 -19q0 -30 25 -30q18 0 35.5 15.5t28.5 48t11 80.5q0 119 -70 170.5t-181 51.5q-152 0 -224.5 -80.5t-72.5 -207.5q0 -136 78.5 -207t213.5 -71
q62 0 99 13.5t81 43.5l53 -71q-37 -32 -103 -54zM359 197q16 -23 46 -23q36 0 61 31.5t25 70.5q0 32 -16.5 55.5t-46.5 23.5q-34 0 -59.5 -30t-25.5 -73q0 -32 16 -55z" />
    <glyph glyph-name="A" unicode="A" horiz-adv-x="724" 
d="M263 723h199l256 -723h-192l-48 140h-228l-49 -140h-194zM434 306l-71 231l-72 -231h143z" />
    <glyph glyph-name="B" unicode="B" horiz-adv-x="697" 
d="M65 723h289q149 0 219.5 -48.5t70.5 -142.5q0 -52 -26.5 -90t-90.5 -70q84 -25 109 -71t25 -104q0 -103 -68 -150t-223 -47h-305v723zM382 441q34 0 54.5 18.5t20.5 47.5q0 32 -23.5 51t-58.5 19h-115v-136h122zM377 146q41 0 63.5 22t22.5 53q0 30 -22.5 50t-58.5 20
h-122v-145h117z" />
    <glyph glyph-name="C" unicode="C" horiz-adv-x="732" 
d="M535.5 699.5q68.5 -33.5 110.5 -94t50 -137.5h-203q-8 51 -38.5 80t-79.5 29q-59 0 -92.5 -48t-33.5 -161q0 -115 34 -168.5t92 -53.5q48 0 78.5 35t39.5 89h203q-17 -130 -86 -205t-228 -75q-103 0 -181.5 49t-121.5 136t-43 196t42.5 191t120.5 126.5t183 44.5
q85 0 153.5 -33.5z" />
    <glyph glyph-name="D" unicode="D" horiz-adv-x="735" 
d="M179 723q115 0 146 -1q189 -7 281.5 -102t92.5 -256q0 -108 -41 -190t-125.5 -128t-208.5 -46h-259v723h114zM260 153h70q40 0 78 22t63 70t25 122q0 98 -45 150.5t-121 52.5h-70v-417z" />
    <glyph glyph-name="E" unicode="E" horiz-adv-x="650" 
d="M65 723h534l-1 -161h-337v-120h282v-157h-283v-123h340v-162h-535v723z" />
    <glyph glyph-name="F" unicode="F" horiz-adv-x="621" 
d="M595 723l-1 -159h-334v-130h279v-155h-279v-279h-195v723h530z" />
    <glyph glyph-name="G" unicode="G" horiz-adv-x="772" 
d="M198.5 36.5q-77.5 46.5 -120 130.5t-42.5 192q0 111 45 196t125.5 131.5t183.5 46.5q93 0 165 -37.5t111 -98t40 -129.5h-203q-10 47 -39.5 75.5t-78.5 28.5q-60 0 -98.5 -49t-38.5 -158q0 -119 42.5 -162.5t102.5 -43.5q39 0 68 20.5t37 47.5l9 26h-126v131l331 -2v-382
h-128v80q-26 -27 -49.5 -45t-62.5 -31.5t-94 -13.5q-102 0 -179.5 46.5z" />
    <glyph glyph-name="H" unicode="H" horiz-adv-x="739" 
d="M260 290v-290h-195v723h195v-274h219v274h195v-723h-195v290h-219z" />
    <glyph glyph-name="I" unicode="I" horiz-adv-x="325" 
d="M260 723v-723h-195v723h195z" />
    <glyph glyph-name="J" unicode="J" horiz-adv-x="431" 
d="M348.5 93q-17.5 -51 -64 -77t-132.5 -26q-32 0 -70.5 3t-60.5 7v175q45 -5 64 -5q50 0 68 25t18 84v444h195v-494q0 -85 -17.5 -136z" />
    <glyph glyph-name="K" unicode="K" horiz-adv-x="744" 
d="M518 0l-161 305l-90 -116v-189h-202v723h202v-292l209 292h219l-199 -276l231 -447h-209z" />
    <glyph glyph-name="L" unicode="L" horiz-adv-x="570" 
d="M260 723v-563h289v-160h-484v723h195z" />
    <glyph glyph-name="M" unicode="M" horiz-adv-x="942" 
d="M65 723h289l117 -441l118 441h288v-723h-195v524l-141 -524h-140l-141 524v-524h-195v723z" />
    <glyph glyph-name="N" unicode="N" horiz-adv-x="803" 
d="M738 723v-723h-176l-302 431v-431h-195v723h196l282 -403v403h195z" />
    <glyph glyph-name="O" unicode="O" horiz-adv-x="772" 
d="M201.5 35.5q-79.5 45.5 -122.5 129t-43 195.5t43.5 196.5t123 130.5t184.5 46q104 0 183 -46t122.5 -130.5t43.5 -196.5q0 -111 -43 -195t-122 -129.5t-184 -45.5q-106 0 -185.5 45.5zM488 196q37 50 37 161q0 115 -37 167.5t-101 52.5t-101.5 -52.5t-37.5 -167.5
q0 -111 37 -161t102 -50q64 0 101 50z" />
    <glyph glyph-name="P" unicode="P" horiz-adv-x="661" 
d="M65 723h286q81 0 145.5 -29t101.5 -84.5t37 -131.5q0 -107 -69.5 -168t-189.5 -61h-116v-249h-195v723zM370 394q36 0 61 29t25 65q0 37 -26.5 64t-59.5 27h-112v-185h112z" />
    <glyph glyph-name="Q" unicode="Q" horiz-adv-x="778" 
d="M69.5 556.5q43.5 84.5 123 130.5t184.5 46t184 -46t122.5 -130.5t43.5 -196.5q0 -170 -102 -280q6 -21 36 -37t66 -16v-152q-65 0 -107.5 8t-81.5 34t-81 78q-44 -5 -80 -5q-106 0 -185.5 45.5t-122.5 129t-43 195.5t43.5 196.5zM274 195.5q35 -49.5 103 -49.5t103 49.5
t35 162.5q0 116 -36 167.5t-102 51.5t-102 -51.5t-36 -167.5q0 -113 35 -162.5z" />
    <glyph glyph-name="R" unicode="R" horiz-adv-x="709" 
d="M467 0l-105 249h-102v-249h-195v723h328q134 0 197.5 -64t63.5 -169q0 -78 -30 -127t-85 -83l127 -280h-199zM432.5 423q25.5 29 25.5 65q0 37 -26.5 64t-60.5 27h-111v-185h111q36 0 61.5 29z" />
    <glyph glyph-name="S" unicode="S" horiz-adv-x="716" 
d="M210.5 15q-72.5 25 -120.5 76.5t-54 128.5h202q8 -38 40.5 -59.5t83.5 -21.5q52 0 85.5 15.5t33.5 50.5q0 29 -30 41.5t-91 22.5l-113 19q-88 14 -139 69.5t-51 146.5q0 70 40.5 121.5t109.5 79t153 27.5q86 0 155.5 -31.5t111 -84t48.5 -112.5h-197q-4 41 -32.5 59.5
t-81.5 18.5q-52 0 -75.5 -17t-23.5 -40q0 -26 17 -40.5t62 -22.5l113 -19q138 -24 180.5 -90.5t42.5 -147.5q0 -61 -41.5 -110t-114 -77t-161.5 -28q-80 0 -152.5 25z" />
    <glyph glyph-name="T" unicode="T" horiz-adv-x="631" 
d="M12 723h607v-171h-207v-552h-195v552h-205v171z" />
    <glyph glyph-name="U" unicode="U" horiz-adv-x="754" 
d="M616 71q-73 -81 -239 -81t-239 81t-73 228v424h197v-432q0 -70 32.5 -104t82.5 -34t82.5 34t32.5 104v432h197v-424q0 -147 -73 -228z" />
    <glyph glyph-name="V" unicode="V" horiz-adv-x="716" 
d="M465 0h-214l-244 723h183l168 -495l167 495h184z" />
    <glyph glyph-name="W" unicode="W" horiz-adv-x="976" 
d="M748 0h-145l-115 393l-115 -393h-143l-218 723h188l112 -388l108 388h136l112 -388l108 388h188z" />
    <glyph glyph-name="X" unicode="X" horiz-adv-x="737" 
d="M482 0l-133 227l-130 -227h-207l236 365l-230 358h241l112 -196l111 196h204l-216 -330l255 -393h-243z" />
    <glyph glyph-name="Y" unicode="Y" horiz-adv-x="710" 
d="M451 301v-301h-195v301l-255 422h210l143 -257l142 257h212z" />
    <glyph glyph-name="Z" unicode="Z" horiz-adv-x="698" 
d="M41 89l341 474h-309v160h589v-85l-348 -476h342v-162h-615v89z" />
    <glyph glyph-name="bracketleft" unicode="[" horiz-adv-x="357" 
d="M323 723v-104h-113v-676h113v-104h-268v884h268z" />
    <glyph glyph-name="backslash" unicode="\" horiz-adv-x="400" 
d="M1 723h129l255 -723h-129z" />
    <glyph glyph-name="bracketright" unicode="]" horiz-adv-x="357" 
d="M13 723v-104h113v-676h-113v-104h268v884h-268z" />
    <glyph glyph-name="asciicircum" unicode="^" horiz-adv-x="487" 
d="M237 339l-92 -222h-123l162 374q7 17 22 26t33 9q17 0 31 -8.5t21 -25.5l160 -375h-122z" />
    <glyph glyph-name="underscore" unicode="_" horiz-adv-x="577" 
d="M519 -156h-470v136h470v-136z" />
    <glyph glyph-name="grave" unicode="`" horiz-adv-x="335" 
d="M313 628l-26 -77l-277 66l42 118z" />
    <glyph glyph-name="a" unicode="a" horiz-adv-x="582" 
d="M76 34q-51 44 -51 121q0 86 68.5 131.5t206.5 45.5h40v22q0 47 -53 47q-26 0 -49.5 -10t-34.5 -35h-158q4 87 72 129t175 42q128 0 181 -42t53 -119v-366h-161l-15 60q-16 -31 -55.5 -50.5t-90.5 -19.5q-77 0 -128 44zM319.5 131.5q19.5 18.5 20.5 43.5v61h-31
q-35 0 -68 -14t-33 -47q0 -28 19 -45t45 -17q28 0 47.5 18.5z" />
    <glyph glyph-name="b" unicode="b" horiz-adv-x="618" 
d="M277 11q-44 21 -64 61l-20 -72h-137v743h195v-304q25 45 63 66.5t79 21.5q95 0 148 -71t53 -194q0 -126 -58 -199t-164 -73q-51 0 -95 21zM377 158q20 32 20 106q0 72 -20 99t-54 27q-72 0 -72 -126q0 -138 69 -138q37 0 57 32z" />
    <glyph glyph-name="c" unicode="c" horiz-adv-x="535" 
d="M406 496.5q51 -30.5 77.5 -80.5t28.5 -110h-158q-4 30 -19.5 53.5t-48.5 23.5q-38 0 -60.5 -32t-22.5 -93q0 -62 24.5 -98t62.5 -36q32 0 47 25t19 51h153q0 -56 -27 -104t-78 -77t-119 -29q-74 0 -133.5 33.5t-93.5 94t-34 138.5q0 79 34 140.5t93.5 96t133.5 34.5
q70 0 121 -30.5z" />
    <glyph glyph-name="d" unicode="d" horiz-adv-x="619" 
d="M82 63q-58 73 -58 199q0 123 53 194t148 71q44 0 82.5 -16t60.5 -53v285h195v-743h-138l-15 68q-21 -34 -63 -56t-101 -22q-106 0 -164 73zM347.5 154.5q20.5 28.5 20.5 84.5v45q0 106 -77 106q-35 0 -57 -27.5t-22 -98.5q0 -73 22 -105.5t59 -32.5q34 0 54.5 28.5z" />
    <glyph glyph-name="e" unicode="e" horiz-adv-x="566" 
d="M235 148q21 -22 55 -22q30 0 50 11t31 39h172q-8 -55 -44.5 -97.5t-91 -65.5t-112.5 -23q-80 0 -141.5 32.5t-95.5 92t-34 137.5q0 75 31.5 138t91.5 100t140 37q82 0 139 -34.5t86 -95t29 -138.5v-45h-326q-1 -44 20 -66zM362 323q0 31 -20 52t-55 21q-30 0 -51.5 -22
t-21.5 -51h148z" />
    <glyph glyph-name="f" unicode="f" horiz-adv-x="414" 
d="M388 385h-94v-385h-195v385h-83v132h83v69q0 64 42 100.5t113 36.5h138l1 -126h-60q-24 0 -33.5 -11t-9.5 -39v-30h98v-132z" />
    <glyph glyph-name="g" unicode="g" horiz-adv-x="653" 
d="M153 -155.5q-68 15.5 -102 42.5t-34 61q0 30 21.5 48t37.5 23.5t44 12.5q-3 1 -22.5 10.5t-35 30t-15.5 46.5q0 33 30.5 58t88.5 33q-53 23 -82 66.5t-29 87.5q0 50 35.5 86.5t95.5 55.5t132 19q50 0 84 -9.5t68 -27.5q126 48 170 67l-1 -138l-88 -12q6 -22 6 -40
q0 -45 -29.5 -86t-86.5 -66.5t-135 -25.5q-44 0 -69 3q-14 -3 -14 -9q0 -8 14.5 -11t37.5 -4.5t31 -1.5l103 -6q103 -7 154.5 -49.5t51.5 -105.5q0 -51 -33.5 -90t-100 -61.5t-161.5 -22.5q-99 0 -167 15.5zM356.5 308q17.5 19 17.5 49t-17.5 51.5t-44.5 21.5t-44.5 -21.5
t-17.5 -51.5t17.5 -49t44.5 -19t44.5 19zM414 -61q17 8 17 24t-17 26.5t-47 12.5l-94 6q-36 2 -51.5 -9.5t-15.5 -27.5q0 -24 33 -32t111 -8q47 0 64 8z" />
    <glyph glyph-name="h" unicode="h" horiz-adv-x="624" 
d="M56 743h192v-290q22 23 36.5 35t39.5 20.5t63 8.5q49 0 90.5 -21.5t66 -60.5t24.5 -89v-346h-195v323q0 21 -19 34t-42 13t-42 -14t-19 -35v-321h-195v743z" />
    <glyph glyph-name="i" unicode="i" horiz-adv-x="307" 
d="M251 579h-195v164h195v-164zM251 0h-195v517h195v-517z" />
    <glyph glyph-name="j" unicode="j" horiz-adv-x="310" 
d="M254 579h-195v164h195v-164zM50 -166q-23 0 -38 4t-21.5 8t-7.5 5l-1 130l30 5q27 6 37 15.5t10 26.5v489h195v-489q0 -194 -204 -194z" />
    <glyph glyph-name="k" unicode="k" horiz-adv-x="613" 
d="M408 0l-119 190l-38 -44v-146h-195v743h195v-411l153 185h192l-189 -214l190 -303h-189z" />
    <glyph glyph-name="l" unicode="l" horiz-adv-x="347" 
d="M121 13q-43 24 -54 58.5t-11 84.5v587h191v-561q0 -23 11.5 -37.5t46.5 -19.5l21 -2v-118q-41 -16 -73 -16q-89 0 -132 24z" />
    <glyph glyph-name="m" unicode="m" horiz-adv-x="941" 
d="M56 517h192v-62q4 3 31 24t63.5 34.5t73.5 13.5q42 0 80.5 -17t62.5 -55q26 32 70.5 52t86.5 20q41 0 80 -20t64 -57t25 -86v-364h-195v341q0 21 -18.5 34.5t-41.5 13.5q-39 0 -51 -19t-12 -60v-310h-194v341q0 21 -19 34.5t-42 13.5t-42 -13.5t-19 -34.5v-341h-195v517z
" />
    <glyph glyph-name="n" unicode="n" 
d="M56 517h193v-62q23 24 37.5 35.5t39 20t62.5 8.5q45 0 87 -22.5t68 -61.5t26 -86v-349h-195v323q0 21 -18.5 34t-41.5 13q-24 0 -43.5 -13t-19.5 -34v-323h-195v517z" />
    <glyph glyph-name="o" unicode="o" horiz-adv-x="573" 
d="M147.5 23.5q-59.5 33.5 -91.5 94t-32 137.5q0 80 33.5 142t93.5 96t136 34q79 0 138.5 -35t91.5 -97t32 -140q0 -77 -32.5 -137t-92 -94t-138.5 -34t-138.5 33.5zM344.5 170q15.5 39 15.5 92q0 126 -73 126q-74 0 -74 -126q0 -54 16 -92.5t58 -38.5t57.5 39z" />
    <glyph glyph-name="p" unicode="p" horiz-adv-x="618" 
d="M56 517h196v-60q27 37 64 53.5t78 16.5q56 0 101 -29.5t72 -89.5t27 -148q0 -94 -31 -154.5t-81 -88t-109 -27.5q-87 0 -122 68v-219h-195v678zM390.5 160q23.5 34 23.5 100q0 60 -24 95t-58 35q-31 0 -56 -28.5t-25 -62.5v-78q0 -40 24.5 -67.5t56.5 -27.5q35 0 58.5 34
z" />
    <glyph glyph-name="q" unicode="q" horiz-adv-x="619" 
d="M368 -161v209q-34 -32 -68 -45t-70 -13q-90 0 -148 65.5t-58 204.5q0 88 27 148t72.5 89.5t101.5 29.5q38 0 75.5 -13t66.5 -37v40h196v-678h-195zM349.5 155q18.5 39 18.5 109q0 136 -70 136q-35 0 -56 -34t-21 -102t21.5 -108t55.5 -40q33 0 51.5 39z" />
    <glyph glyph-name="r" unicode="r" horiz-adv-x="449" 
d="M56 517h188v-143q20 68 63 110.5t111 42.5l1 -183q-16 2 -44 2q-72 0 -98 -27t-26 -71v-248h-195v517z" />
    <glyph glyph-name="s" unicode="s" horiz-adv-x="527" 
d="M107 31.5q-70 41.5 -85 132.5h160q10 -28 33 -36.5t58 -8.5q34 0 51.5 8.5t17.5 21.5q0 15 -15 22.5t-47 13.5l-77 12q-166 30 -166 160q0 48 28 86.5t81 61t126 22.5q70 0 123 -21t81 -59.5t26 -90.5h-158q-6 25 -26.5 36.5t-50.5 11.5q-62 0 -62 -33q0 -13 18 -21.5
t60 -15.5l66 -12q88 -21 122 -68.5t34 -93.5q0 -81 -66 -125.5t-169 -44.5q-93 0 -163 41.5z" />
    <glyph glyph-name="t" unicode="t" horiz-adv-x="451" 
d="M298 385l1 -234q0 -16 8 -22t23 -6h81v-115q-32 -16 -103 -16q-114 0 -159 40t-45 110v243h-84v132h91l29 161h158v-160h113v-133h-113z" />
    <glyph glyph-name="u" unicode="u" 
d="M158.5 10q-44.5 20 -73.5 57t-29 86v364h195v-337q0 -23 16 -38t44 -15t44.5 15t16.5 38v337h197l-4 -517h-144l-14 68q-24 -39 -70 -58.5t-90 -19.5t-88.5 20z" />
    <glyph glyph-name="v" unicode="v" horiz-adv-x="570" 
d="M348 0h-125l-211 517h173l101 -264l97 264h176z" />
    <glyph glyph-name="w" unicode="w" horiz-adv-x="811" 
d="M618 0h-139l-77 251l-82 -251h-133l-175 517h169l81 -251l76 251h135l74 -252l80 252h173z" />
    <glyph glyph-name="x" unicode="x" horiz-adv-x="623" 
d="M411 0l-99 137l-100 -137h-200l198 270l-180 247h200l83 -112l82 112h200l-182 -247l198 -270h-200z" />
    <glyph glyph-name="y" unicode="y" horiz-adv-x="603" 
d="M105 -160q-25 5 -37 10t-15 7v123l50 -3q8 -1 23 -1q35 0 53.5 8.5t23 16.5t8.5 19l2 10l-201 487h191l98 -281l102 281h190l-202 -487q-32 -79 -66.5 -121.5t-72 -58t-86.5 -15.5q-36 0 -61 5z" />
    <glyph glyph-name="z" unicode="z" horiz-adv-x="531" 
d="M21 92l241 306h-219v119h466v-89l-244 -307h245v-121h-489v92z" />
    <glyph glyph-name="braceleft" unicode="{" horiz-adv-x="425" 
d="M149.5 664q26.5 30 67 44.5t81.5 14.5h93v-104h-51q-29 0 -42.5 -7t-16.5 -17.5t-3 -27.5v-185q-2 -44 -35 -65.5t-76 -26.5q-6 -1 -6.5 -3t6.5 -3q108 -10 111 -102v-187q0 -28 13.5 -40t48.5 -12h51v-104h-90q-43 0 -84 14.5t-67.5 44.5t-26.5 74v192q0 78 -113 78v90
q61 0 87 19t26 63v177q0 43 26.5 73z" />
    <glyph glyph-name="bar" unicode="|" horiz-adv-x="268" 
d="M65 -161v987h138v-987h-138z" />
    <glyph glyph-name="braceright" unicode="}" horiz-adv-x="425" 
d="M256.5 664q-26.5 30 -67 44.5t-81.5 14.5h-93v-104h51q29 0 42.5 -7t16.5 -17.5t3 -27.5v-185q2 -44 35 -65.5t76 -26.5q6 -1 6.5 -3t-6.5 -3q-108 -10 -111 -102v-187q0 -28 -13.5 -40t-48.5 -12h-51v-104h90q43 0 84 14.5t67.5 44.5t26.5 74v192q0 78 113 78v90
q-61 0 -87 19t-26 63v177q0 43 -26.5 73z" />
    <glyph glyph-name="asciitilde" unicode="~" horiz-adv-x="644" 
d="M508.5 297.5q-44.5 -28.5 -89.5 -28.5q-29 0 -53 10t-54 28q-27 16 -45.5 24t-39.5 8q-34 0 -59 -20.5t-62 -63.5l-55 92q52 56 91.5 82.5t87.5 26.5q31 0 55 -10t54 -29q24 -15 40.5 -22.5t35.5 -7.5q33 0 62 23t50 61l56 -90q-30 -55 -74.5 -83.5z" />
    <glyph glyph-name="uni00A0" unicode="&#xa0;" horiz-adv-x="234" 
 />
    <glyph glyph-name="exclamdown" unicode="&#xa1;" horiz-adv-x="299" 
d="M43 325v192h205v-192h-205zM33 -161l55 418h118l53 -418h-226z" />
    <glyph glyph-name="cent" unicode="&#xa2;" horiz-adv-x="567" 
d="M348 260q15 25 19 51h153q0 -69 -41 -124.5t-112 -76.5v-110h-122v105q-61 11 -108.5 47t-74.5 91.5t-27 123.5q0 69 26.5 125.5t74.5 93.5t109 48v89h122v-94q72 -20 113 -79t43 -133h-158q-4 30 -19.5 53.5t-48.5 23.5q-38 0 -60.5 -32t-22.5 -93q0 -62 24.5 -98
t62.5 -36q32 0 47 25z" />
    <glyph glyph-name="sterling" unicode="&#xa3;" horiz-adv-x="671" 
d="M19 159h31q81 0 81 72q0 26 -4 59.5t-5 43.5h-103v101h81l-5 97q-5 64 28 109.5t90.5 68.5t125.5 23q91 0 158 -42t102 -124l-168 -48q-16 37 -28.5 50.5t-32.5 13.5q-23 0 -35.5 -16t-12.5 -44q0 -22 10 -88h133v-101h-119q1 -35 -1 -55.5t-9 -41.5q-7 -23 -18.5 -37.5
t-39.5 -39.5h99q44 0 63.5 16.5t35.5 61.5l163 -32q-25 -103 -85.5 -154.5t-160.5 -51.5h-374v159z" />
    <glyph glyph-name="currency" unicode="&#xa4;" horiz-adv-x="608" 
d="M181 155q-3 2 -8 2t-9 -4l-65 -64l-76 78l72 71q-19 31 -27.5 60t-8.5 65q0 66 30 117q3 6 3 8q0 4 -5 9l-64 64l76 79l73 -73q63 38 125 38q66 0 125 -34q7 -3 11 1l57 58l76 -78l-63 -62q37 -60 37 -126q0 -72 -35 -123q-2 -3 0 -5l61 -60l-76 -78l-62 63
q-62 -38 -126 -38q-66 0 -121 32zM384.5 279.5q34.5 35.5 34.5 84.5q0 31 -15.5 59t-43 44.5t-61.5 16.5q-33 0 -60.5 -16.5t-43.5 -44.5t-16 -59q0 -32 16 -59.5t43.5 -44t60.5 -16.5q51 0 85.5 35.5z" />
    <glyph glyph-name="yen" unicode="&#xa5;" horiz-adv-x="696" 
d="M485 357h122v-99h-146v-67h146v-98h-146v-93h-221v93h-146v98h146v67h-146v99h112l-225 366h252l140 -252l137 252h203z" />
    <glyph glyph-name="brokenbar" unicode="&#xa6;" horiz-adv-x="268" 
d="M65 412v414h138v-414h-138zM65 -161v414h138v-414h-138z" />
    <glyph glyph-name="section" unicode="&#xa7;" horiz-adv-x="527" 
d="M104 -48.5q-64 34.5 -87 82.5l116 56q25 -29 51 -45t71 -16q33 0 52 9.5t19 29.5q0 15 -13.5 27t-48.5 25l-68 25q-92 34 -131 72t-39 100q0 45 20.5 78.5t58.5 53.5q-36 24 -52.5 52.5t-16.5 64.5q0 47 26 85t74.5 60t114.5 22q80 0 141 -34.5t84 -82.5l-116 -55
q-28 29 -50.5 44.5t-54.5 15.5q-22 0 -35.5 -9.5t-13.5 -26.5q0 -21 37 -33l73 -27q92 -34 131 -72t39 -100q0 -85 -74 -132q45 -25 64 -54.5t19 -71.5q0 -81 -60.5 -129.5t-174.5 -48.5q-92 0 -156 34.5zM321 284.5q12 11.5 12 31.5q0 7 -1 11q-6 28 -68 51l-36 14
q-49 -4 -49 -46q0 -17 13.5 -27.5t55.5 -26.5l41 -16q20 -3 32 8.5z" />
    <glyph glyph-name="dieresis" unicode="&#xa8;" horiz-adv-x="444" 
d="M183 584h-166v139h166v-139zM417 584h-166v139h166v-139z" />
    <glyph glyph-name="copyright" unicode="&#xa9;" horiz-adv-x="833" 
d="M225 40q-85 50 -135 135t-50 187q0 100 50 185.5t135 135.5t186 50t186.5 -50t135.5 -135.5t50 -185.5q0 -102 -50 -187t-135.5 -135t-186.5 -50t-186 50zM549.5 122.5q59.5 33.5 92 95t32.5 144.5q0 82 -32.5 144t-92 96t-138.5 34q-80 0 -139 -34t-91 -96t-32 -144
q0 -83 32 -144.5t91 -95t139 -33.5q79 0 138.5 33.5zM505 547q39 -22 62.5 -55.5t29.5 -68.5l-131 -7q-7 59 -48 59q-59 0 -59 -111q0 -61 17 -87t51 -26q29 0 44.5 15.5t32.5 48.5l92 -18q-4 -26 -25 -59t-60.5 -57t-96.5 -24q-59 0 -106 26t-73.5 72.5t-26.5 106.5
q0 61 26.5 108t73.5 73t106 26q52 0 91 -22z" />
    <glyph glyph-name="ordfeminine" unicode="&#xaa;" horiz-adv-x="408" 
d="M52.5 423.5q-27.5 25.5 -27.5 67.5q0 50 48.5 82t128.5 32h24v20q0 20 -11.5 27.5t-24.5 7.5q-38 0 -52 -37l-105 20q21 47 55.5 68.5t104.5 21.5q82 -1 115 -25.5t33 -74.5v-132q0 -58 4 -73l7 -24h-119l-7 28q-30 -19 -49.5 -26.5t-45.5 -7.5q-51 0 -78.5 25.5z
M216 482q5 4 7.5 8t2.5 11v44h-20q-27 0 -45 -12.5t-18 -33.5q0 -13 9.5 -21t27.5 -8q22 0 36 12z" />
    <glyph glyph-name="guillemotleft" unicode="&#xab;" horiz-adv-x="529" 
d="M261 59h-100l-107 192l106 200h101l-64 -200zM464 59h-100l-108 192l107 200h101l-64 -200z" />
    <glyph glyph-name="logicalnot" unicode="&#xac;" horiz-adv-x="608" 
d="M555 433v-296h-156v158h-353v138h509z" />
    <glyph glyph-name="uni00AD" unicode="&#xad;" horiz-adv-x="400" 
d="M360 188h-290v137h290v-137z" />
    <glyph glyph-name="registered" unicode="&#xae;" horiz-adv-x="555" 
d="M155.5 299q-53.5 31 -84.5 84t-31 117t31 117t84.5 84.5t117.5 31.5q63 0 116.5 -31.5t84.5 -85t31 -116.5t-31 -116.5t-84.5 -84.5t-116.5 -31q-64 0 -117.5 31zM386.5 381.5q42.5 44.5 42.5 118.5t-42.5 119t-113.5 45q-72 0 -114.5 -44.5t-42.5 -119.5t42.5 -119
t114.5 -44q71 0 113.5 44.5zM175 614h112q45 0 70 -16.5t25 -47.5q0 -21 -12.5 -37t-32.5 -25l46 -104h-77l-32 96h-29v-96h-70v230zM286 526q10 0 16.5 6t6.5 15q0 10 -7.5 15.5t-18.5 5.5h-38v-42h41z" />
    <glyph glyph-name="macron" unicode="&#xaf;" horiz-adv-x="444" 
d="M417 604h-400v119h400v-119z" />
    <glyph glyph-name="degree" unicode="&#xb0;" horiz-adv-x="476" 
d="M387 566.5q-23 -40.5 -63.5 -63t-90.5 -22.5t-90.5 22.5t-63.5 63t-23 91.5t23 91.5t63.5 63.5t90.5 23t90.5 -23t63.5 -63.5t23 -91.5t-23 -91.5zM282 709q-19 20 -51 20q-31 0 -50 -19.5t-19 -50.5q0 -34 19 -54.5t51 -20.5q31 0 50 20t19 53q0 32 -19 52z" />
    <glyph glyph-name="plusminus" unicode="&#xb1;" horiz-adv-x="608" 
d="M555 526v-138h-185v-185h-138v185h-186v138h186v186h138v-186h185zM46 152h509v-137h-509v137z" />
    <glyph glyph-name="uni00B2" unicode="&#xb2;" horiz-adv-x="392" 
d="M9 470l140 115q44 36 63.5 55t26 31.5t6.5 27.5q0 21 -14.5 34t-38.5 13q-27 0 -47.5 -16t-26.5 -52h-115q0 75 48.5 121t142.5 46q83 0 131.5 -39.5t48.5 -105.5q0 -34 -16 -59t-59 -65l-100 -91h179v-101h-369v86z" />
    <glyph glyph-name="uni00B3" unicode="&#xb3;" horiz-adv-x="407" 
d="M71 809.5q59 35.5 150 35.5q52 0 94.5 -15t67.5 -42.5t25 -63.5q0 -68 -82 -96q38 -10 67 -37.5t29 -71.5q0 -45 -30.5 -77t-76.5 -48t-93 -16q-101 0 -155.5 34.5t-54.5 121.5h116q5 -33 29.5 -47t53.5 -14q33 0 54 13.5t21 32.5q0 20 -17.5 34t-45.5 15l-62 1v94l54 3
q29 1 45.5 14.5t16.5 32.5q0 17 -19 28.5t-41 11.5q-37 0 -61.5 -12t-28.5 -49h-115q0 82 59 117.5z" />
    <glyph glyph-name="acute" unicode="&#xb4;" horiz-adv-x="335" 
d="M316 617l-277 -66l-26 77l262 107z" />
    <glyph glyph-name="paragraph" unicode="&#xb6;" horiz-adv-x="640" 
d="M520 617v-700h-115v700h-65v-700h-115v383q-86 10 -143.5 62.5t-57.5 149.5q0 61 28 108.5t81 75t127 27.5h324v-106h-64z" />
    <glyph glyph-name="periodcentered" unicode="&#xb7;" horiz-adv-x="301" 
d="M234 277h-181v174h181v-174z" />
    <glyph glyph-name="cedilla" unicode="&#xb8;" horiz-adv-x="303" 
d="M239 -195.5q-38 -23.5 -92 -23.5q-84 0 -133 29l24 59q48 -26 85 -26q20 0 33 7t13 19q0 19 -20.5 28.5t-68.5 9.5q-8 0 -10.5 2t0.5 10l37 86h79l-21 -57q56 0 84 -25t28 -57q0 -38 -38 -61.5z" />
    <glyph glyph-name="uni00B9" unicode="&#xb9;" horiz-adv-x="309" 
d="M65 701l-75 -17v82l138 69h60v-455h-123v321z" />
    <glyph glyph-name="ordmasculine" unicode="&#xba;" horiz-adv-x="389" 
d="M283 711.5q39 -21.5 60.5 -60t21.5 -87.5q0 -48 -22 -86t-61 -59t-88 -21q-75 0 -122.5 46.5t-47.5 119.5q0 49 22.5 87.5t61 60t86.5 21.5q50 0 89 -21.5zM158.5 635.5q-11.5 -21.5 -11.5 -69.5q0 -47 11.5 -68.5t35.5 -21.5q25 0 36.5 21.5t11.5 68.5q0 48 -11.5 69.5
t-36.5 21.5q-24 0 -35.5 -21.5z" />
    <glyph glyph-name="guillemotright" unicode="&#xbb;" horiz-adv-x="529" 
d="M56 451h101l106 -200l-107 -192h-100l64 192zM258 451h102l106 -200l-107 -192h-101l65 192z" />
    <glyph glyph-name="onequarter" unicode="&#xbc;" horiz-adv-x="988" 
d="M65 597l-75 -17v82l138 69h60v-455h-123v321zM239 -4l-106 2l487 733h105zM889 455v-265h66v-103h-66v-87h-123l1 87h-199v99l200 269h121zM768 190v98l-73 -98h73z" />
    <glyph glyph-name="onehalf" unicode="&#xbd;" horiz-adv-x="957" 
d="M65 597l-75 -17v82l138 69h60v-455h-123v321zM239 -4l-106 2l487 733h105zM574 86l140 115q44 37 63.5 55.5t26 30.5t6.5 28q0 21 -14.5 34t-38.5 13q-28 0 -47.5 -16t-26.5 -52h-115q0 49 21 86.5t64.5 59t105.5 21.5q56 0 96 -18t62 -51t22 -76q0 -34 -16 -59.5
t-59 -64.5l-100 -91h179v-101h-369v86z" />
    <glyph glyph-name="threequarters" unicode="&#xbe;" horiz-adv-x="1086" 
d="M71 704.5q59 35.5 150 35.5q52 0 94.5 -15t67.5 -42.5t25 -63.5q0 -68 -82 -96q38 -10 67 -37.5t29 -71.5q0 -45 -30.5 -77t-76.5 -48t-93 -16q-101 0 -155.5 34.5t-54.5 121.5h116q5 -33 29.5 -47t53.5 -14q33 0 54 13.5t21 32.5q0 20 -17.5 34t-45.5 15l-62 1v94l54 3
q29 1 45.5 14.5t16.5 32.5q0 17 -19 28.5t-41 11.5q-37 0 -61.5 -12t-28.5 -49h-115q0 82 59 117.5zM337 -4l-106 2l487 733h105zM987 455v-265h66v-103h-66v-87h-123l1 87h-199v99l200 269h121zM866 190v98l-73 -98h73z" />
    <glyph glyph-name="questiondown" unicode="&#xbf;" horiz-adv-x="560" 
d="M192 517h205v-192h-205v192zM452.5 -124.5q-68.5 -46.5 -169.5 -46.5q-82 0 -139 23t-85 61t-28 84q0 40 15 69.5t36 48.5t55 43q41 29 60.5 51t19.5 55h153q0 -57 -24.5 -94.5t-67.5 -76.5q-29 -27 -43 -45t-14 -40q0 -20 19 -33.5t45 -13.5q33 0 61.5 22.5t44.5 62.5
l162 -34q-32 -90 -100.5 -136.5z" />
    <glyph glyph-name="Agrave" unicode="&#xc0;" horiz-adv-x="724" 
d="M263 723h199l256 -723h-192l-48 140h-228l-49 -140h-194zM434 306l-71 231l-72 -231h143zM527 834l-26 -77l-277 66l42 118z" />
    <glyph glyph-name="Aacute" unicode="&#xc1;" horiz-adv-x="724" 
d="M263 723h199l256 -723h-192l-48 140h-228l-49 -140h-194zM434 306l-71 231l-72 -231h143zM530 823l-277 -66l-26 77l262 107z" />
    <glyph glyph-name="Acircumflex" unicode="&#xc2;" horiz-adv-x="724" 
d="M263 723h199l256 -723h-192l-48 140h-228l-49 -140h-194zM434 306l-71 231l-72 -231h143zM376 868l-71 -82h-132l138 153h132l134 -153h-139z" />
    <glyph glyph-name="Atilde" unicode="&#xc3;" horiz-adv-x="724" 
d="M263 723h199l256 -723h-192l-48 140h-228l-49 -140h-194zM434 306l-71 231l-72 -231h143zM513.5 808.5q-26.5 -8.5 -54.5 -8.5q-19 0 -40 4.5t-40 10.5q-47 15 -78 15q-20 0 -35 -5t-34 -19q-8 -5 -12 -5q-7 0 -11 12l-16 53q-1 2 -2 5t-1 7q0 7 11 18q20 19 41.5 29.5
t53.5 10.5q19 0 37.5 -4t34.5 -8.5t21 -5.5q47 -15 69 -15q37 0 75 27q5 4 12 4q9 0 12 -12l13 -64q1 -3 1 -7q0 -11 -14 -22q-17 -12 -43.5 -20.5z" />
    <glyph glyph-name="Adieresis" unicode="&#xc4;" horiz-adv-x="724" 
d="M263 723h199l256 -723h-192l-48 140h-228l-49 -140h-194zM434 306l-71 231l-72 -231h143zM343 790h-166v139h166v-139zM577 790h-166v139h166v-139z" />
    <glyph glyph-name="Aring" unicode="&#xc5;" horiz-adv-x="724" 
d="M263 723h199l256 -723h-192l-48 140h-228l-49 -140h-194zM434 306l-71 231l-72 -231h143zM457.5 798q-33.5 -33 -80.5 -33q-48 0 -81 33.5t-33 82.5q0 46 33.5 78t80.5 32t80.5 -33t33.5 -79q0 -48 -33.5 -81zM408.5 911q-13.5 13 -32.5 13q-20 0 -34 -13.5t-14 -32.5
t14.5 -33.5t33.5 -14.5t32.5 14.5t13.5 33.5q0 20 -13.5 33z" />
    <glyph glyph-name="AE" unicode="&#xc6;" horiz-adv-x="1112" 
d="M1062 0h-572v140h-220l-69 -140h-194l375 723h671l-1 -159h-340v-122h213v-157h-213v-125h350v-160zM490 601l-149 -295h149v295z" />
    <glyph glyph-name="Ccedilla" unicode="&#xc7;" horiz-adv-x="732" 
d="M535.5 699.5q68.5 -33.5 110.5 -94t50 -137.5h-203q-8 51 -38.5 80t-79.5 29q-59 0 -92.5 -48t-33.5 -161q0 -115 34 -168.5t92 -53.5q48 0 78.5 35t39.5 89h203q-17 -130 -86 -205t-228 -75q-103 0 -181.5 49t-121.5 136t-43 196t42.5 191t120.5 126.5t183 44.5
q85 0 153.5 -33.5zM479 -195.5q-38 -23.5 -92 -23.5q-84 0 -133 29l24 59q48 -26 85 -26q20 0 33 7t13 19q0 19 -20.5 28.5t-68.5 9.5q-8 0 -10.5 2t0.5 10l37 86h79l-21 -57q56 0 84 -25t28 -57q0 -38 -38 -61.5z" />
    <glyph glyph-name="Egrave" unicode="&#xc8;" horiz-adv-x="650" 
d="M65 723h534l-1 -161h-337v-120h282v-157h-283v-123h340v-162h-535v723zM482 834l-26 -77l-277 66l42 118z" />
    <glyph glyph-name="Eacute" unicode="&#xc9;" horiz-adv-x="650" 
d="M65 723h534l-1 -161h-337v-120h282v-157h-283v-123h340v-162h-535v723zM485 823l-277 -66l-26 77l262 107z" />
    <glyph glyph-name="Ecircumflex" unicode="&#xca;" horiz-adv-x="650" 
d="M65 723h534l-1 -161h-337v-120h282v-157h-283v-123h340v-162h-535v723zM331 868l-71 -82h-132l138 153h132l134 -153h-139z" />
    <glyph glyph-name="Edieresis" unicode="&#xcb;" horiz-adv-x="650" 
d="M65 723h534l-1 -161h-337v-120h282v-157h-283v-123h340v-162h-535v723zM298 790h-166v139h166v-139zM532 790h-166v139h166v-139z" />
    <glyph glyph-name="Igrave" unicode="&#xcc;" horiz-adv-x="325" 
d="M260 723v-723h-195v723h195zM313 834l-26 -77l-277 66l42 118z" />
    <glyph glyph-name="Iacute" unicode="&#xcd;" horiz-adv-x="325" 
d="M260 723v-723h-195v723h195zM316 823l-277 -66l-26 77l262 107z" />
    <glyph glyph-name="Icircumflex" unicode="&#xce;" horiz-adv-x="325" 
d="M260 723v-723h-195v723h195zM162 868l-71 -82h-132l138 153h132l134 -153h-139z" />
    <glyph glyph-name="Idieresis" unicode="&#xcf;" horiz-adv-x="325" 
d="M260 723v-723h-195v723h195zM129 790h-166v139h166v-139zM363 790h-166v139h166v-139z" />
    <glyph glyph-name="Eth" unicode="&#xd0;" horiz-adv-x="769" 
d="M640.5 620q92.5 -95 92.5 -256q0 -108 -41 -190t-125.5 -128t-208.5 -46h-259v286h-43q-15 0 -20.5 5.5t-5.5 18.5v91q0 22 19 22h50v300h114q115 0 146 -1q189 -7 281.5 -102zM442 175q38 22 63 70t25 122q0 98 -45 150.5t-121 52.5h-70v-147h116q8 0 13 -5.5t5 -13.5
v-91q0 -15 -7.5 -21t-24.5 -6h-102v-133h70q40 0 78 22z" />
    <glyph glyph-name="Ntilde" unicode="&#xd1;" horiz-adv-x="803" 
d="M738 723v-723h-176l-302 431v-431h-195v723h196l282 -403v403h195zM537.5 808.5q-26.5 -8.5 -54.5 -8.5q-19 0 -40 4.5t-40 10.5q-47 15 -78 15q-20 0 -35 -5t-34 -19q-8 -5 -12 -5q-7 0 -11 12l-16 53q-1 2 -2 5t-1 7q0 7 11 18q20 19 41.5 29.5t53.5 10.5q19 0 37.5 -4
t34.5 -8.5t21 -5.5q47 -15 69 -15q37 0 75 27q5 4 12 4q9 0 12 -12l13 -64q1 -3 1 -7q0 -11 -14 -22q-17 -12 -43.5 -20.5z" />
    <glyph glyph-name="Ograve" unicode="&#xd2;" horiz-adv-x="772" 
d="M201.5 35.5q-79.5 45.5 -122.5 129t-43 195.5t43.5 196.5t123 130.5t184.5 46q104 0 183 -46t122.5 -130.5t43.5 -196.5q0 -111 -43 -195t-122 -129.5t-184 -45.5q-106 0 -185.5 45.5zM488 196q37 50 37 161q0 115 -37 167.5t-101 52.5t-101.5 -52.5t-37.5 -167.5
q0 -111 37 -161t102 -50q64 0 101 50zM536 834l-26 -77l-277 66l42 118z" />
    <glyph glyph-name="Oacute" unicode="&#xd3;" horiz-adv-x="772" 
d="M201.5 35.5q-79.5 45.5 -122.5 129t-43 195.5t43.5 196.5t123 130.5t184.5 46q104 0 183 -46t122.5 -130.5t43.5 -196.5q0 -111 -43 -195t-122 -129.5t-184 -45.5q-106 0 -185.5 45.5zM488 196q37 50 37 161q0 115 -37 167.5t-101 52.5t-101.5 -52.5t-37.5 -167.5
q0 -111 37 -161t102 -50q64 0 101 50zM539 823l-277 -66l-26 77l262 107z" />
    <glyph glyph-name="Ocircumflex" unicode="&#xd4;" horiz-adv-x="772" 
d="M201.5 35.5q-79.5 45.5 -122.5 129t-43 195.5t43.5 196.5t123 130.5t184.5 46q104 0 183 -46t122.5 -130.5t43.5 -196.5q0 -111 -43 -195t-122 -129.5t-184 -45.5q-106 0 -185.5 45.5zM488 196q37 50 37 161q0 115 -37 167.5t-101 52.5t-101.5 -52.5t-37.5 -167.5
q0 -111 37 -161t102 -50q64 0 101 50zM385 868l-71 -82h-132l138 153h132l134 -153h-139z" />
    <glyph glyph-name="Otilde" unicode="&#xd5;" horiz-adv-x="772" 
d="M201.5 35.5q-79.5 45.5 -122.5 129t-43 195.5t43.5 196.5t123 130.5t184.5 46q104 0 183 -46t122.5 -130.5t43.5 -196.5q0 -111 -43 -195t-122 -129.5t-184 -45.5q-106 0 -185.5 45.5zM488 196q37 50 37 161q0 115 -37 167.5t-101 52.5t-101.5 -52.5t-37.5 -167.5
q0 -111 37 -161t102 -50q64 0 101 50zM522.5 808.5q-26.5 -8.5 -54.5 -8.5q-19 0 -40 4.5t-40 10.5q-47 15 -78 15q-20 0 -35 -5t-34 -19q-8 -5 -12 -5q-7 0 -11 12l-16 53q-1 2 -2 5t-1 7q0 7 11 18q20 19 41.5 29.5t53.5 10.5q19 0 37.5 -4t34.5 -8.5t21 -5.5
q47 -15 69 -15q37 0 75 27q5 4 12 4q9 0 12 -12l13 -64q1 -3 1 -7q0 -11 -14 -22q-17 -12 -43.5 -20.5z" />
    <glyph glyph-name="Odieresis" unicode="&#xd6;" horiz-adv-x="772" 
d="M201.5 35.5q-79.5 45.5 -122.5 129t-43 195.5t43.5 196.5t123 130.5t184.5 46q104 0 183 -46t122.5 -130.5t43.5 -196.5q0 -111 -43 -195t-122 -129.5t-184 -45.5q-106 0 -185.5 45.5zM488 196q37 50 37 161q0 115 -37 167.5t-101 52.5t-101.5 -52.5t-37.5 -167.5
q0 -111 37 -161t102 -50q64 0 101 50zM352 790h-166v139h166v-139zM586 790h-166v139h166v-139z" />
    <glyph glyph-name="multiply" unicode="&#xd7;" horiz-adv-x="608" 
d="M398 364l151 -151l-98 -98l-151 151l-152 -151l-96 98l151 151l-152 152l96 98l153 -153l153 153l98 -98z" />
    <glyph glyph-name="Oslash" unicode="&#xd8;" horiz-adv-x="790" 
d="M769 656q0 -7 -7 -13l-74 -73q52 -87 52 -210q0 -111 -43 -195t-122 -129.5t-184 -45.5q-132 0 -224 71l-56 -54q-10 -12 -21 -12q-9 0 -21 12l-38 39q-11 11 -11 20t7 16l66 64q-53 90 -53 214q0 112 43.5 196.5t123 130.5t184.5 46q136 0 226 -76l64 62q9 9 18 9
q7 0 12 -5l52 -54q6 -6 6 -13zM273 321l210 205q-14 30 -36.5 43.5t-55.5 13.5q-64 0 -91.5 -52.5t-27.5 -173.5q0 -24 1 -36zM507 394l-208 -204q28 -48 92 -48q43 0 68.5 21.5t37 68t11.5 125.5q0 24 -1 37z" />
    <glyph glyph-name="Ugrave" unicode="&#xd9;" horiz-adv-x="754" 
d="M616 71q-73 -81 -239 -81t-239 81t-73 228v424h197v-432q0 -70 32.5 -104t82.5 -34t82.5 34t32.5 104v432h197v-424q0 -147 -73 -228zM509 834l-26 -77l-277 66l42 118z" />
    <glyph glyph-name="Uacute" unicode="&#xda;" horiz-adv-x="754" 
d="M616 71q-73 -81 -239 -81t-239 81t-73 228v424h197v-432q0 -70 32.5 -104t82.5 -34t82.5 34t32.5 104v432h197v-424q0 -147 -73 -228zM512 823l-277 -66l-26 77l262 107z" />
    <glyph glyph-name="Ucircumflex" unicode="&#xdb;" horiz-adv-x="754" 
d="M616 71q-73 -81 -239 -81t-239 81t-73 228v424h197v-432q0 -70 32.5 -104t82.5 -34t82.5 34t32.5 104v432h197v-424q0 -147 -73 -228zM358 868l-71 -82h-132l138 153h132l134 -153h-139z" />
    <glyph glyph-name="Udieresis" unicode="&#xdc;" horiz-adv-x="754" 
d="M616 71q-73 -81 -239 -81t-239 81t-73 228v424h197v-432q0 -70 32.5 -104t82.5 -34t82.5 34t32.5 104v432h197v-424q0 -147 -73 -228zM325 790h-166v139h166v-139zM559 790h-166v139h166v-139z" />
    <glyph glyph-name="Yacute" unicode="&#xdd;" horiz-adv-x="710" 
d="M451 301v-301h-195v301l-255 422h210l143 -257l142 257h212zM532 823l-277 -66l-26 77l262 107z" />
    <glyph glyph-name="Thorn" unicode="&#xde;" horiz-adv-x="739" 
d="M679.5 243q-33.5 -51 -94.5 -78t-140 -27h-158v-138h-222v723h222v-130h132q82 0 149 -26t106 -78t39 -126q0 -69 -33.5 -120zM463.5 417.5q-23.5 19.5 -57.5 19.5h-119v-143h124q34 0 55 21t21 51q0 32 -23.5 51.5z" />
    <glyph glyph-name="germandbls" unicode="&#xdf;" horiz-adv-x="672" 
d="M514 683q60 -40 60 -117q0 -51 -32 -86t-107 -66q-5 -2 -5 -6q0 -5 7 -8q72 -32 113.5 -57.5t69.5 -66t28 -101.5q0 -89 -60 -137t-165 -48q-78 0 -131 32l53 116q19 -13 35 -20.5t39 -7.5q24 0 40.5 11t16.5 33q0 19 -15.5 30.5t-59.5 30.5q-108 49 -108 144
q0 35 13.5 61t36.5 50l23 24q17 16 25.5 30.5t8.5 29.5q0 21 -16.5 34.5t-45.5 13.5q-37 0 -57 -22.5t-20 -57.5v-522h-191v352h-54v132h53q4 102 68 170.5t208 68.5q109 0 169 -40z" />
    <glyph glyph-name="agrave" unicode="&#xe0;" horiz-adv-x="582" 
d="M76 34q-51 44 -51 121q0 86 68.5 131.5t206.5 45.5h40v22q0 47 -53 47q-26 0 -49.5 -10t-34.5 -35h-158q4 87 72 129t175 42q128 0 181 -42t53 -119v-366h-161l-15 60q-16 -31 -55.5 -50.5t-90.5 -19.5q-77 0 -128 44zM319.5 131.5q19.5 18.5 20.5 43.5v61h-31
q-35 0 -68 -14t-33 -47q0 -28 19 -45t45 -17q28 0 47.5 18.5zM442 628l-26 -77l-277 66l42 118z" />
    <glyph glyph-name="aacute" unicode="&#xe1;" horiz-adv-x="582" 
d="M76 34q-51 44 -51 121q0 86 68.5 131.5t206.5 45.5h40v22q0 47 -53 47q-26 0 -49.5 -10t-34.5 -35h-158q4 87 72 129t175 42q128 0 181 -42t53 -119v-366h-161l-15 60q-16 -31 -55.5 -50.5t-90.5 -19.5q-77 0 -128 44zM319.5 131.5q19.5 18.5 20.5 43.5v61h-31
q-35 0 -68 -14t-33 -47q0 -28 19 -45t45 -17q28 0 47.5 18.5zM445 617l-277 -66l-26 77l262 107z" />
    <glyph glyph-name="acircumflex" unicode="&#xe2;" horiz-adv-x="582" 
d="M76 34q-51 44 -51 121q0 86 68.5 131.5t206.5 45.5h40v22q0 47 -53 47q-26 0 -49.5 -10t-34.5 -35h-158q4 87 72 129t175 42q128 0 181 -42t53 -119v-366h-161l-15 60q-16 -31 -55.5 -50.5t-90.5 -19.5q-77 0 -128 44zM319.5 131.5q19.5 18.5 20.5 43.5v61h-31
q-35 0 -68 -14t-33 -47q0 -28 19 -45t45 -17q28 0 47.5 18.5zM291 662l-71 -82h-132l138 153h132l134 -153h-139z" />
    <glyph glyph-name="atilde" unicode="&#xe3;" horiz-adv-x="582" 
d="M76 34q-51 44 -51 121q0 86 68.5 131.5t206.5 45.5h40v22q0 47 -53 47q-26 0 -49.5 -10t-34.5 -35h-158q4 87 72 129t175 42q128 0 181 -42t53 -119v-366h-161l-15 60q-16 -31 -55.5 -50.5t-90.5 -19.5q-77 0 -128 44zM319.5 131.5q19.5 18.5 20.5 43.5v61h-31
q-35 0 -68 -14t-33 -47q0 -28 19 -45t45 -17q28 0 47.5 18.5zM428.5 602.5q-26.5 -8.5 -54.5 -8.5q-19 0 -40 4.5t-40 10.5q-47 15 -78 15q-20 0 -35 -5t-34 -19q-8 -5 -12 -5q-7 0 -11 12l-16 53q-1 2 -2 5t-1 7q0 7 11 18q20 19 41.5 29.5t53.5 10.5q19 0 37.5 -4
t34.5 -8.5t21 -5.5q47 -15 69 -15q37 0 75 27q5 4 12 4q9 0 12 -12l13 -64q1 -3 1 -7q0 -11 -14 -22q-17 -12 -43.5 -20.5z" />
    <glyph glyph-name="adieresis" unicode="&#xe4;" horiz-adv-x="582" 
d="M76 34q-51 44 -51 121q0 86 68.5 131.5t206.5 45.5h40v22q0 47 -53 47q-26 0 -49.5 -10t-34.5 -35h-158q4 87 72 129t175 42q128 0 181 -42t53 -119v-366h-161l-15 60q-16 -31 -55.5 -50.5t-90.5 -19.5q-77 0 -128 44zM319.5 131.5q19.5 18.5 20.5 43.5v61h-31
q-35 0 -68 -14t-33 -47q0 -28 19 -45t45 -17q28 0 47.5 18.5zM258 584h-166v139h166v-139zM492 584h-166v139h166v-139z" />
    <glyph glyph-name="aring" unicode="&#xe5;" horiz-adv-x="582" 
d="M76 34q-51 44 -51 121q0 86 68.5 131.5t206.5 45.5h40v22q0 47 -53 47q-26 0 -49.5 -10t-34.5 -35h-158q4 87 72 129t175 42q128 0 181 -42t53 -119v-366h-161l-15 60q-16 -31 -55.5 -50.5t-90.5 -19.5q-77 0 -128 44zM319.5 131.5q19.5 18.5 20.5 43.5v61h-31
q-35 0 -68 -14t-33 -47q0 -28 19 -45t45 -17q28 0 47.5 18.5zM372.5 592q-33.5 -33 -80.5 -33q-48 0 -81 33.5t-33 82.5q0 46 33.5 78t80.5 32t80.5 -33t33.5 -79q0 -48 -33.5 -81zM323.5 705q-13.5 13 -32.5 13q-20 0 -34 -13.5t-14 -32.5t14.5 -33.5t33.5 -14.5t32.5 14.5
t13.5 33.5q0 20 -13.5 33z" />
    <glyph glyph-name="ae" unicode="&#xe6;" horiz-adv-x="904" 
d="M574 145.5q28 -26.5 72 -26.5q28 0 54 13.5t60 47.5l118 -48q-54 -81 -111.5 -111.5t-146.5 -30.5q-61 0 -113.5 21t-89.5 58q-6 6 -10 0q-45 -42 -95 -60.5t-118 -18.5q-81 0 -125 40.5t-44 108.5q0 80 71.5 128.5t209.5 55.5l40 2v29q0 56 -57 56q-61 0 -83 -60
l-168 33q21 50 50.5 81t79 47t125.5 16q124 -1 182 -39q66 39 141 39q77 0 137 -36.5t94 -105t34 -162.5h-335q0 -51 28 -77.5zM570 389.5q-22 -22.5 -21 -64.5l143 -1q0 29 -17 58.5t-50 29.5t-55 -22.5zM315 227q-35 -3 -67.5 -23t-32.5 -52q0 -22 15 -34.5t43 -12.5
q29 0 51 14t22 37v73z" />
    <glyph glyph-name="ccedilla" unicode="&#xe7;" horiz-adv-x="535" 
d="M406 496.5q51 -30.5 77.5 -80.5t28.5 -110h-158q-4 30 -19.5 53.5t-48.5 23.5q-38 0 -60.5 -32t-22.5 -93q0 -62 24.5 -98t62.5 -36q32 0 47 25t19 51h153q0 -56 -27 -104t-78 -77t-119 -29q-74 0 -133.5 33.5t-93.5 94t-34 138.5q0 79 34 140.5t93.5 96t133.5 34.5
q70 0 121 -30.5zM381 -195.5q-38 -23.5 -92 -23.5q-84 0 -133 29l24 59q48 -26 85 -26q20 0 33 7t13 19q0 19 -20.5 28.5t-68.5 9.5q-8 0 -10.5 2t0.5 10l37 86h79l-21 -57q56 0 84 -25t28 -57q0 -38 -38 -61.5z" />
    <glyph glyph-name="egrave" unicode="&#xe8;" horiz-adv-x="566" 
d="M235 148q21 -22 55 -22q30 0 50 11t31 39h172q-8 -55 -44.5 -97.5t-91 -65.5t-112.5 -23q-80 0 -141.5 32.5t-95.5 92t-34 137.5q0 75 31.5 138t91.5 100t140 37q82 0 139 -34.5t86 -95t29 -138.5v-45h-326q-1 -44 20 -66zM362 323q0 31 -20 52t-55 21q-30 0 -51.5 -22
t-21.5 -51h148zM438 628l-26 -77l-277 66l42 118z" />
    <glyph glyph-name="eacute" unicode="&#xe9;" horiz-adv-x="566" 
d="M235 148q21 -22 55 -22q30 0 50 11t31 39h172q-8 -55 -44.5 -97.5t-91 -65.5t-112.5 -23q-80 0 -141.5 32.5t-95.5 92t-34 137.5q0 75 31.5 138t91.5 100t140 37q82 0 139 -34.5t86 -95t29 -138.5v-45h-326q-1 -44 20 -66zM362 323q0 31 -20 52t-55 21q-30 0 -51.5 -22
t-21.5 -51h148zM441 617l-277 -66l-26 77l262 107z" />
    <glyph glyph-name="ecircumflex" unicode="&#xea;" horiz-adv-x="566" 
d="M235 148q21 -22 55 -22q30 0 50 11t31 39h172q-8 -55 -44.5 -97.5t-91 -65.5t-112.5 -23q-80 0 -141.5 32.5t-95.5 92t-34 137.5q0 75 31.5 138t91.5 100t140 37q82 0 139 -34.5t86 -95t29 -138.5v-45h-326q-1 -44 20 -66zM362 323q0 31 -20 52t-55 21q-30 0 -51.5 -22
t-21.5 -51h148zM287 662l-71 -82h-132l138 153h132l134 -153h-139z" />
    <glyph glyph-name="edieresis" unicode="&#xeb;" horiz-adv-x="566" 
d="M235 148q21 -22 55 -22q30 0 50 11t31 39h172q-8 -55 -44.5 -97.5t-91 -65.5t-112.5 -23q-80 0 -141.5 32.5t-95.5 92t-34 137.5q0 75 31.5 138t91.5 100t140 37q82 0 139 -34.5t86 -95t29 -138.5v-45h-326q-1 -44 20 -66zM362 323q0 31 -20 52t-55 21q-30 0 -51.5 -22
t-21.5 -51h148zM254 584h-166v139h166v-139zM488 584h-166v139h166v-139z" />
    <glyph glyph-name="igrave" unicode="&#xec;" horiz-adv-x="307" 
d="M251 0h-195v517h195v-517zM307 628l-26 -77l-277 66l42 118z" />
    <glyph glyph-name="iacute" unicode="&#xed;" horiz-adv-x="307" 
d="M251 0h-195v517h195v-517zM310 617l-277 -66l-26 77l262 107z" />
    <glyph glyph-name="icircumflex" unicode="&#xee;" horiz-adv-x="307" 
d="M251 0h-195v517h195v-517zM156 662l-71 -82h-132l138 153h132l134 -153h-139z" />
    <glyph glyph-name="idieresis" unicode="&#xef;" horiz-adv-x="307" 
d="M251 0h-195v517h195v-517zM123 584h-166v139h166v-139zM357 584h-166v139h166v-139z" />
    <glyph glyph-name="eth" unicode="&#xf0;" horiz-adv-x="592" 
d="M534 123.5q-34 -64.5 -96 -99t-143 -34.5q-78 0 -140 33.5t-96.5 92t-34.5 130.5q0 75 35.5 134.5t98 93t138.5 33.5q5 0 2 5q-24 33 -64 63l-108 -60l-33 53l81 44q-44 23 -93 39l100 83q77 -18 131 -45l86 48l30 -54l-54 -31q91 -64 142.5 -163t51.5 -214
q0 -87 -34 -151.5zM353 148q18 33 18 102q0 70 -18 103t-57 33q-38 0 -56.5 -33.5t-18.5 -102.5t18.5 -102t56.5 -33q39 0 57 33z" />
    <glyph glyph-name="ntilde" unicode="&#xf1;" 
d="M56 517h193v-62q23 24 37.5 35.5t39 20t62.5 8.5q45 0 87 -22.5t68 -61.5t26 -86v-349h-195v323q0 21 -18.5 34t-41.5 13q-24 0 -43.5 -13t-19.5 -34v-323h-195v517zM448.5 602.5q-26.5 -8.5 -54.5 -8.5q-19 0 -40 4.5t-40 10.5q-47 15 -78 15q-20 0 -35 -5t-34 -19
q-8 -5 -12 -5q-7 0 -11 12l-16 53q-1 2 -2 5t-1 7q0 7 11 18q20 19 41.5 29.5t53.5 10.5q19 0 37.5 -4t34.5 -8.5t21 -5.5q47 -15 69 -15q37 0 75 27q5 4 12 4q9 0 12 -12l13 -64q1 -3 1 -7q0 -11 -14 -22q-17 -12 -43.5 -20.5z" />
    <glyph glyph-name="ograve" unicode="&#xf2;" horiz-adv-x="573" 
d="M147.5 23.5q-59.5 33.5 -91.5 94t-32 137.5q0 80 33.5 142t93.5 96t136 34q79 0 138.5 -35t91.5 -97t32 -140q0 -77 -32.5 -137t-92 -94t-138.5 -34t-138.5 33.5zM344.5 170q15.5 39 15.5 92q0 126 -73 126q-74 0 -74 -126q0 -54 16 -92.5t58 -38.5t57.5 39zM437 628
l-26 -77l-277 66l42 118z" />
    <glyph glyph-name="oacute" unicode="&#xf3;" horiz-adv-x="573" 
d="M147.5 23.5q-59.5 33.5 -91.5 94t-32 137.5q0 80 33.5 142t93.5 96t136 34q79 0 138.5 -35t91.5 -97t32 -140q0 -77 -32.5 -137t-92 -94t-138.5 -34t-138.5 33.5zM344.5 170q15.5 39 15.5 92q0 126 -73 126q-74 0 -74 -126q0 -54 16 -92.5t58 -38.5t57.5 39zM440 617
l-277 -66l-26 77l262 107z" />
    <glyph glyph-name="ocircumflex" unicode="&#xf4;" horiz-adv-x="573" 
d="M147.5 23.5q-59.5 33.5 -91.5 94t-32 137.5q0 80 33.5 142t93.5 96t136 34q79 0 138.5 -35t91.5 -97t32 -140q0 -77 -32.5 -137t-92 -94t-138.5 -34t-138.5 33.5zM344.5 170q15.5 39 15.5 92q0 126 -73 126q-74 0 -74 -126q0 -54 16 -92.5t58 -38.5t57.5 39zM286 662
l-71 -82h-132l138 153h132l134 -153h-139z" />
    <glyph glyph-name="otilde" unicode="&#xf5;" horiz-adv-x="573" 
d="M147.5 23.5q-59.5 33.5 -91.5 94t-32 137.5q0 80 33.5 142t93.5 96t136 34q79 0 138.5 -35t91.5 -97t32 -140q0 -77 -32.5 -137t-92 -94t-138.5 -34t-138.5 33.5zM344.5 170q15.5 39 15.5 92q0 126 -73 126q-74 0 -74 -126q0 -54 16 -92.5t58 -38.5t57.5 39zM423.5 602.5
q-26.5 -8.5 -54.5 -8.5q-19 0 -40 4.5t-40 10.5q-47 15 -78 15q-20 0 -35 -5t-34 -19q-8 -5 -12 -5q-7 0 -11 12l-16 53q-1 2 -2 5t-1 7q0 7 11 18q20 19 41.5 29.5t53.5 10.5q19 0 37.5 -4t34.5 -8.5t21 -5.5q47 -15 69 -15q37 0 75 27q5 4 12 4q9 0 12 -12l13 -64
q1 -3 1 -7q0 -11 -14 -22q-17 -12 -43.5 -20.5z" />
    <glyph glyph-name="odieresis" unicode="&#xf6;" horiz-adv-x="573" 
d="M147.5 23.5q-59.5 33.5 -91.5 94t-32 137.5q0 80 33.5 142t93.5 96t136 34q79 0 138.5 -35t91.5 -97t32 -140q0 -77 -32.5 -137t-92 -94t-138.5 -34t-138.5 33.5zM344.5 170q15.5 39 15.5 92q0 126 -73 126q-74 0 -74 -126q0 -54 16 -92.5t58 -38.5t57.5 39zM253 584
h-166v139h166v-139zM487 584h-166v139h166v-139z" />
    <glyph glyph-name="divide" unicode="&#xf7;" horiz-adv-x="610" 
d="M394 491h-185v178h185v-178zM555 295h-509v138h509v-138zM394 59h-185v178h185v-178z" />
    <glyph glyph-name="oslash" unicode="&#xf8;" horiz-adv-x="612" 
d="M524 408q39 -67 39 -153q0 -77 -32.5 -137t-92 -94t-138.5 -34q-99 0 -168 53l-56 -52l-58 62l58 54q-38 62 -38 148q0 80 33.5 142t93.5 96t136 34q100 0 168 -55l57 53l57 -62zM227 247l124 116q-18 25 -50 25q-74 0 -74 -126v-15zM374 268l-122 -113q18 -24 49 -24
q42 0 57.5 39t15.5 92v6z" />
    <glyph glyph-name="ugrave" unicode="&#xf9;" 
d="M158.5 10q-44.5 20 -73.5 57t-29 86v364h195v-337q0 -23 16 -38t44 -15t44.5 15t16.5 38v337h197l-4 -517h-144l-14 68q-24 -39 -70 -58.5t-90 -19.5t-88.5 20zM462 628l-26 -77l-277 66l42 118z" />
    <glyph glyph-name="uacute" unicode="&#xfa;" 
d="M158.5 10q-44.5 20 -73.5 57t-29 86v364h195v-337q0 -23 16 -38t44 -15t44.5 15t16.5 38v337h197l-4 -517h-144l-14 68q-24 -39 -70 -58.5t-90 -19.5t-88.5 20zM465 617l-277 -66l-26 77l262 107z" />
    <glyph glyph-name="ucircumflex" unicode="&#xfb;" 
d="M158.5 10q-44.5 20 -73.5 57t-29 86v364h195v-337q0 -23 16 -38t44 -15t44.5 15t16.5 38v337h197l-4 -517h-144l-14 68q-24 -39 -70 -58.5t-90 -19.5t-88.5 20zM311 662l-71 -82h-132l138 153h132l134 -153h-139z" />
    <glyph glyph-name="udieresis" unicode="&#xfc;" 
d="M158.5 10q-44.5 20 -73.5 57t-29 86v364h195v-337q0 -23 16 -38t44 -15t44.5 15t16.5 38v337h197l-4 -517h-144l-14 68q-24 -39 -70 -58.5t-90 -19.5t-88.5 20zM278 584h-166v139h166v-139zM512 584h-166v139h166v-139z" />
    <glyph glyph-name="yacute" unicode="&#xfd;" horiz-adv-x="603" 
d="M105 -160q-25 5 -37 10t-15 7v123l50 -3q8 -1 23 -1q35 0 53.5 8.5t23 16.5t8.5 19l2 10l-201 487h191l98 -281l102 281h190l-202 -487q-32 -79 -66.5 -121.5t-72 -58t-86.5 -15.5q-36 0 -61 5zM479 617l-277 -66l-26 77l262 107z" />
    <glyph glyph-name="thorn" unicode="&#xfe;" horiz-adv-x="618" 
d="M252 457q33 35 68 52.5t83 17.5q85 0 138 -67.5t53 -199.5q0 -139 -54.5 -204.5t-143.5 -65.5q-36 0 -66 11t-59 39q-11 10 -15 10q-5 0 -5 -15v-196h-195v884h196v-266zM319 108q39 0 58.5 34.5t19.5 123.5q0 81 -19 112t-59 31q-29 0 -48.5 -16t-19.5 -39v-207
q27 -39 68 -39z" />
    <glyph glyph-name="ydieresis" unicode="&#xff;" horiz-adv-x="603" 
d="M105 -160q-25 5 -37 10t-15 7v123l50 -3q8 -1 23 -1q35 0 53.5 8.5t23 16.5t8.5 19l2 10l-201 487h191l98 -281l102 281h190l-202 -487q-32 -79 -66.5 -121.5t-72 -58t-86.5 -15.5q-36 0 -61 5zM292 584h-166v139h166v-139zM526 584h-166v139h166v-139z" />
    <glyph glyph-name="Amacron" unicode="&#x100;" horiz-adv-x="724" 
d="M263 723h199l256 -723h-192l-48 140h-228l-49 -140h-194zM434 306l-71 231l-72 -231h143zM577 810h-400v119h400v-119z" />
    <glyph glyph-name="amacron" unicode="&#x101;" horiz-adv-x="582" 
d="M76 34q-51 44 -51 121q0 86 68.5 131.5t206.5 45.5h40v22q0 47 -53 47q-26 0 -49.5 -10t-34.5 -35h-158q4 87 72 129t175 42q128 0 181 -42t53 -119v-366h-161l-15 60q-16 -31 -55.5 -50.5t-90.5 -19.5q-77 0 -128 44zM319.5 131.5q19.5 18.5 20.5 43.5v61h-31
q-35 0 -68 -14t-33 -47q0 -28 19 -45t45 -17q28 0 47.5 18.5zM492 604h-400v119h400v-119z" />
    <glyph glyph-name="Abreve" unicode="&#x102;" horiz-adv-x="724" 
d="M263 723h199l256 -723h-192l-48 140h-228l-49 -140h-194zM434 306l-71 231l-72 -231h143zM500 821q-53 -37 -122 -37t-123 36.5t-75 108.5h105q14 -26 40 -42t53 -16q25 0 51 16t39 42h106q-21 -71 -74 -108z" />
    <glyph glyph-name="abreve" unicode="&#x103;" horiz-adv-x="582" 
d="M76 34q-51 44 -51 121q0 86 68.5 131.5t206.5 45.5h40v22q0 47 -53 47q-26 0 -49.5 -10t-34.5 -35h-158q4 87 72 129t175 42q128 0 181 -42t53 -119v-366h-161l-15 60q-16 -31 -55.5 -50.5t-90.5 -19.5q-77 0 -128 44zM319.5 131.5q19.5 18.5 20.5 43.5v61h-31
q-35 0 -68 -14t-33 -47q0 -28 19 -45t45 -17q28 0 47.5 18.5zM415 615q-53 -37 -122 -37t-123 36.5t-75 108.5h105q14 -26 40 -42t53 -16q25 0 51 16t39 42h106q-21 -71 -74 -108z" />
    <glyph glyph-name="Aogonek" unicode="&#x104;" horiz-adv-x="724" 
d="M263 723h199l256 -723h-192l-48 140h-228l-49 -140h-194zM434 306l-71 231l-72 -231h143zM537 -36q19 22 72 41h133q-52 -17 -71 -31.5t-19 -32.5q0 -28 27 -28q15 0 26.5 4t28.5 12q6 3 10 3q8 0 8 -14v-51q0 -11 -10 -17q-15 -8 -44.5 -14.5t-61.5 -6.5
q-55 0 -86.5 21.5t-31.5 63.5q0 28 19 50z" />
    <glyph glyph-name="aogonek" unicode="&#x105;" horiz-adv-x="582" 
d="M76 34q-51 44 -51 121q0 86 68.5 131.5t206.5 45.5h40v22q0 47 -53 47q-26 0 -49.5 -10t-34.5 -35h-158q4 87 72 129t175 42q128 0 181 -42t53 -119v-366h-161l-15 60q-16 -31 -55.5 -50.5t-90.5 -19.5q-77 0 -128 44zM319.5 131.5q19.5 18.5 20.5 43.5v61h-31
q-35 0 -68 -14t-33 -47q0 -28 19 -45t45 -17q28 0 47.5 18.5zM315 -35q19 22 72 41h133q-52 -17 -71 -31.5t-19 -32.5q0 -28 27 -28q15 0 26.5 4t28.5 12q6 3 10 3q8 0 8 -14v-51q0 -11 -10 -17q-15 -8 -44.5 -14.5t-61.5 -6.5q-55 0 -86.5 21.5t-31.5 63.5q0 28 19 50z" />
    <glyph glyph-name="Cacute" unicode="&#x106;" horiz-adv-x="732" 
d="M535.5 699.5q68.5 -33.5 110.5 -94t50 -137.5h-203q-8 51 -38.5 80t-79.5 29q-59 0 -92.5 -48t-33.5 -161q0 -115 34 -168.5t92 -53.5q48 0 78.5 35t39.5 89h203q-17 -130 -86 -205t-228 -75q-103 0 -181.5 49t-121.5 136t-43 196t42.5 191t120.5 126.5t183 44.5
q85 0 153.5 -33.5zM535 823l-277 -66l-26 77l262 107z" />
    <glyph glyph-name="cacute" unicode="&#x107;" horiz-adv-x="535" 
d="M406 496.5q51 -30.5 77.5 -80.5t28.5 -110h-158q-4 30 -19.5 53.5t-48.5 23.5q-38 0 -60.5 -32t-22.5 -93q0 -62 24.5 -98t62.5 -36q32 0 47 25t19 51h153q0 -56 -27 -104t-78 -77t-119 -29q-74 0 -133.5 33.5t-93.5 94t-34 138.5q0 79 34 140.5t93.5 96t133.5 34.5
q70 0 121 -30.5zM438 617l-277 -66l-26 77l262 107z" />
    <glyph glyph-name="Ccircumflex" unicode="&#x108;" horiz-adv-x="732" 
d="M535.5 699.5q68.5 -33.5 110.5 -94t50 -137.5h-203q-8 51 -38.5 80t-79.5 29q-59 0 -92.5 -48t-33.5 -161q0 -115 34 -168.5t92 -53.5q48 0 78.5 35t39.5 89h203q-17 -130 -86 -205t-228 -75q-103 0 -181.5 49t-121.5 136t-43 196t42.5 191t120.5 126.5t183 44.5
q85 0 153.5 -33.5zM381 868l-71 -82h-132l138 153h132l134 -153h-139z" />
    <glyph glyph-name="ccircumflex" unicode="&#x109;" horiz-adv-x="535" 
d="M406 496.5q51 -30.5 77.5 -80.5t28.5 -110h-158q-4 30 -19.5 53.5t-48.5 23.5q-38 0 -60.5 -32t-22.5 -93q0 -62 24.5 -98t62.5 -36q32 0 47 25t19 51h153q0 -56 -27 -104t-78 -77t-119 -29q-74 0 -133.5 33.5t-93.5 94t-34 138.5q0 79 34 140.5t93.5 96t133.5 34.5
q70 0 121 -30.5zM284 662l-71 -82h-132l138 153h132l134 -153h-139z" />
    <glyph glyph-name="Cdotaccent" unicode="&#x10a;" horiz-adv-x="732" 
d="M535.5 699.5q68.5 -33.5 110.5 -94t50 -137.5h-203q-8 51 -38.5 80t-79.5 29q-59 0 -92.5 -48t-33.5 -161q0 -115 34 -168.5t92 -53.5q48 0 78.5 35t39.5 89h203q-17 -130 -86 -205t-228 -75q-103 0 -181.5 49t-121.5 136t-43 196t42.5 191t120.5 126.5t183 44.5
q85 0 153.5 -33.5zM480 766h-195v163h195v-163z" />
    <glyph glyph-name="cdotaccent" unicode="&#x10b;" horiz-adv-x="535" 
d="M406 496.5q51 -30.5 77.5 -80.5t28.5 -110h-158q-4 30 -19.5 53.5t-48.5 23.5q-38 0 -60.5 -32t-22.5 -93q0 -62 24.5 -98t62.5 -36q32 0 47 25t19 51h153q0 -56 -27 -104t-78 -77t-119 -29q-74 0 -133.5 33.5t-93.5 94t-34 138.5q0 79 34 140.5t93.5 96t133.5 34.5
q70 0 121 -30.5zM383 560h-195v163h195v-163z" />
    <glyph glyph-name="Ccaron" unicode="&#x10c;" horiz-adv-x="732" 
d="M535.5 699.5q68.5 -33.5 110.5 -94t50 -137.5h-203q-8 51 -38.5 80t-79.5 29q-59 0 -92.5 -48t-33.5 -161q0 -115 34 -168.5t92 -53.5q48 0 78.5 35t39.5 89h203q-17 -130 -86 -205t-228 -75q-103 0 -181.5 49t-121.5 136t-43 196t42.5 191t120.5 126.5t183 44.5
q85 0 153.5 -33.5zM582 930l-134 -154h-133l-137 154h132l71 -82l62 82h139z" />
    <glyph glyph-name="ccaron" unicode="&#x10d;" horiz-adv-x="535" 
d="M406 496.5q51 -30.5 77.5 -80.5t28.5 -110h-158q-4 30 -19.5 53.5t-48.5 23.5q-38 0 -60.5 -32t-22.5 -93q0 -62 24.5 -98t62.5 -36q32 0 47 25t19 51h153q0 -56 -27 -104t-78 -77t-119 -29q-74 0 -133.5 33.5t-93.5 94t-34 138.5q0 79 34 140.5t93.5 96t133.5 34.5
q70 0 121 -30.5zM485 724l-134 -154h-133l-137 154h132l71 -82l62 82h139z" />
    <glyph glyph-name="Dcaron" unicode="&#x10e;" horiz-adv-x="735" 
d="M179 723q115 0 146 -1q189 -7 281.5 -102t92.5 -256q0 -108 -41 -190t-125.5 -128t-208.5 -46h-259v723h114zM260 153h70q40 0 78 22t63 70t25 122q0 98 -45 150.5t-121 52.5h-70v-417zM569 930l-134 -154h-133l-137 154h132l71 -82l62 82h139z" />
    <glyph glyph-name="dcaron" unicode="&#x10f;" horiz-adv-x="619" 
d="M82 63q-58 73 -58 199q0 123 53 194t148 71q44 0 82.5 -16t60.5 -53v285h195v-743h-138l-15 68q-21 -34 -63 -56t-101 -22q-106 0 -164 73zM347.5 154.5q20.5 28.5 20.5 84.5v45q0 106 -77 106q-35 0 -57 -27.5t-22 -98.5q0 -73 22 -105.5t59 -32.5q34 0 54.5 28.5z
M474.5 282q-2.5 5 -0.5 10l30 75q3 8 3 12q0 8 -10 9l-12 2q-9 1 -13 4.5t-4 11.5v96q0 15 13 15h95q13 0 13 -12v-115q0 -4 -3 -10l-37 -88q-3 -8 -9.5 -11.5t-20.5 -3.5h-36q-6 0 -8.5 5z" />
    <glyph glyph-name="Dcroat" unicode="&#x110;" horiz-adv-x="769" 
d="M640.5 620q92.5 -95 92.5 -256q0 -108 -41 -190t-125.5 -128t-208.5 -46h-259v286h-43q-15 0 -20.5 5.5t-5.5 18.5v91q0 22 19 22h50v300h114q115 0 146 -1q189 -7 281.5 -102zM442 175q38 22 63 70t25 122q0 98 -45 150.5t-121 52.5h-70v-147h116q8 0 13 -5.5t5 -13.5
v-91q0 -15 -7.5 -21t-24.5 -6h-102v-133h70q40 0 78 22z" />
    <glyph glyph-name="dcroat" unicode="&#x111;" horiz-adv-x="620" 
d="M591 566h-28v-566h-138l-15 68q-21 -34 -63 -56t-101 -22q-106 0 -164 73t-58 199q0 123 53 194t148 71q44 0 82.5 -16t60.5 -53v108h-139v104h139v73h195v-73h28v-104zM368 284q0 106 -77 106q-35 0 -57 -27.5t-22 -98.5q0 -73 22 -105.5t59 -32.5q34 0 54.5 28.5
t20.5 84.5v45z" />
    <glyph glyph-name="Emacron" unicode="&#x112;" horiz-adv-x="650" 
d="M65 723h534l-1 -161h-337v-120h282v-157h-283v-123h340v-162h-535v723zM532 810h-400v119h400v-119z" />
    <glyph glyph-name="emacron" unicode="&#x113;" horiz-adv-x="566" 
d="M235 148q21 -22 55 -22q30 0 50 11t31 39h172q-8 -55 -44.5 -97.5t-91 -65.5t-112.5 -23q-80 0 -141.5 32.5t-95.5 92t-34 137.5q0 75 31.5 138t91.5 100t140 37q82 0 139 -34.5t86 -95t29 -138.5v-45h-326q-1 -44 20 -66zM362 323q0 31 -20 52t-55 21q-30 0 -51.5 -22
t-21.5 -51h148zM488 604h-400v119h400v-119z" />
    <glyph glyph-name="Ebreve" unicode="&#x114;" horiz-adv-x="650" 
d="M65 723h534l-1 -161h-337v-120h282v-157h-283v-123h340v-162h-535v723zM455 821q-53 -37 -122 -37t-123 36.5t-75 108.5h105q14 -26 40 -42t53 -16q25 0 51 16t39 42h106q-21 -71 -74 -108z" />
    <glyph glyph-name="ebreve" unicode="&#x115;" horiz-adv-x="566" 
d="M235 148q21 -22 55 -22q30 0 50 11t31 39h172q-8 -55 -44.5 -97.5t-91 -65.5t-112.5 -23q-80 0 -141.5 32.5t-95.5 92t-34 137.5q0 75 31.5 138t91.5 100t140 37q82 0 139 -34.5t86 -95t29 -138.5v-45h-326q-1 -44 20 -66zM362 323q0 31 -20 52t-55 21q-30 0 -51.5 -22
t-21.5 -51h148zM411 615q-53 -37 -122 -37t-123 36.5t-75 108.5h105q14 -26 40 -42t53 -16q25 0 51 16t39 42h106q-21 -71 -74 -108z" />
    <glyph glyph-name="Edotaccent" unicode="&#x116;" horiz-adv-x="650" 
d="M65 723h534l-1 -161h-337v-120h282v-157h-283v-123h340v-162h-535v723zM430 766h-195v163h195v-163z" />
    <glyph glyph-name="edotaccent" unicode="&#x117;" horiz-adv-x="566" 
d="M235 148q21 -22 55 -22q30 0 50 11t31 39h172q-8 -55 -44.5 -97.5t-91 -65.5t-112.5 -23q-80 0 -141.5 32.5t-95.5 92t-34 137.5q0 75 31.5 138t91.5 100t140 37q82 0 139 -34.5t86 -95t29 -138.5v-45h-326q-1 -44 20 -66zM362 323q0 31 -20 52t-55 21q-30 0 -51.5 -22
t-21.5 -51h148zM386 560h-195v163h195v-163z" />
    <glyph glyph-name="Eogonek" unicode="&#x118;" horiz-adv-x="650" 
d="M65 723h534l-1 -161h-337v-120h282v-157h-283v-123h340v-162h-535v723zM416 -35q19 22 72 41h133q-52 -17 -71 -31.5t-19 -32.5q0 -28 27 -28q15 0 26.5 4t28.5 12q6 3 10 3q8 0 8 -14v-51q0 -11 -10 -17q-15 -8 -44.5 -14.5t-61.5 -6.5q-55 0 -86.5 21.5t-31.5 63.5
q0 28 19 50z" />
    <glyph glyph-name="eogonek" unicode="&#x119;" horiz-adv-x="566" 
d="M235 148q21 -22 55 -22q30 0 50 11t31 39h172q-8 -55 -44.5 -97.5t-91 -65.5t-112.5 -23q-80 0 -141.5 32.5t-95.5 92t-34 137.5q0 75 31.5 138t91.5 100t140 37q82 0 139 -34.5t86 -95t29 -138.5v-45h-326q-1 -44 20 -66zM362 323q0 31 -20 52t-55 21q-30 0 -51.5 -22
t-21.5 -51h148zM233 -20q19 22 72 41h133q-52 -17 -71 -31.5t-19 -32.5q0 -28 27 -28q15 0 26.5 4t28.5 12q6 3 10 3q8 0 8 -14v-51q0 -11 -10 -17q-15 -8 -44.5 -14.5t-61.5 -6.5q-55 0 -86.5 21.5t-31.5 63.5q0 28 19 50z" />
    <glyph glyph-name="Ecaron" unicode="&#x11a;" horiz-adv-x="650" 
d="M65 723h534l-1 -161h-337v-120h282v-157h-283v-123h340v-162h-535v723zM532 930l-134 -154h-133l-137 154h132l71 -82l62 82h139z" />
    <glyph glyph-name="ecaron" unicode="&#x11b;" horiz-adv-x="566" 
d="M235 148q21 -22 55 -22q30 0 50 11t31 39h172q-8 -55 -44.5 -97.5t-91 -65.5t-112.5 -23q-80 0 -141.5 32.5t-95.5 92t-34 137.5q0 75 31.5 138t91.5 100t140 37q82 0 139 -34.5t86 -95t29 -138.5v-45h-326q-1 -44 20 -66zM362 323q0 31 -20 52t-55 21q-30 0 -51.5 -22
t-21.5 -51h148zM488 724l-134 -154h-133l-137 154h132l71 -82l62 82h139z" />
    <glyph glyph-name="Gcircumflex" unicode="&#x11c;" horiz-adv-x="772" 
d="M198.5 36.5q-77.5 46.5 -120 130.5t-42.5 192q0 111 45 196t125.5 131.5t183.5 46.5q93 0 165 -37.5t111 -98t40 -129.5h-203q-10 47 -39.5 75.5t-78.5 28.5q-60 0 -98.5 -49t-38.5 -158q0 -119 42.5 -162.5t102.5 -43.5q39 0 68 20.5t37 47.5l9 26h-126v131l331 -2v-382
h-128v80q-26 -27 -49.5 -45t-62.5 -31.5t-94 -13.5q-102 0 -179.5 46.5zM379 868l-71 -82h-132l138 153h132l134 -153h-139z" />
    <glyph glyph-name="gcircumflex" unicode="&#x11d;" horiz-adv-x="653" 
d="M153 -155.5q-68 15.5 -102 42.5t-34 61q0 30 21.5 48t37.5 23.5t44 12.5q-3 1 -22.5 10.5t-35 30t-15.5 46.5q0 33 30.5 58t88.5 33q-53 23 -82 66.5t-29 87.5q0 50 35.5 86.5t95.5 55.5t132 19q50 0 84 -9.5t68 -27.5q126 48 170 67l-1 -138l-88 -12q6 -22 6 -40
q0 -45 -29.5 -86t-86.5 -66.5t-135 -25.5q-44 0 -69 3q-14 -3 -14 -9q0 -8 14.5 -11t37.5 -4.5t31 -1.5l103 -6q103 -7 154.5 -49.5t51.5 -105.5q0 -51 -33.5 -90t-100 -61.5t-161.5 -22.5q-99 0 -167 15.5zM356.5 308q17.5 19 17.5 49t-17.5 51.5t-44.5 21.5t-44.5 -21.5
t-17.5 -51.5t17.5 -49t44.5 -19t44.5 19zM414 -61q17 8 17 24t-17 26.5t-47 12.5l-94 6q-36 2 -51.5 -9.5t-15.5 -27.5q0 -24 33 -32t111 -8q47 0 64 8zM318 662l-71 -82h-132l138 153h132l134 -153h-139z" />
    <glyph glyph-name="Gbreve" unicode="&#x11e;" horiz-adv-x="772" 
d="M198.5 36.5q-77.5 46.5 -120 130.5t-42.5 192q0 111 45 196t125.5 131.5t183.5 46.5q93 0 165 -37.5t111 -98t40 -129.5h-203q-10 47 -39.5 75.5t-78.5 28.5q-60 0 -98.5 -49t-38.5 -158q0 -119 42.5 -162.5t102.5 -43.5q39 0 68 20.5t37 47.5l9 26h-126v131l331 -2v-382
h-128v80q-26 -27 -49.5 -45t-62.5 -31.5t-94 -13.5q-102 0 -179.5 46.5zM503 821q-53 -37 -122 -37t-123 36.5t-75 108.5h105q14 -26 40 -42t53 -16q25 0 51 16t39 42h106q-21 -71 -74 -108z" />
    <glyph glyph-name="gbreve" unicode="&#x11f;" horiz-adv-x="653" 
d="M153 -155.5q-68 15.5 -102 42.5t-34 61q0 30 21.5 48t37.5 23.5t44 12.5q-3 1 -22.5 10.5t-35 30t-15.5 46.5q0 33 30.5 58t88.5 33q-53 23 -82 66.5t-29 87.5q0 50 35.5 86.5t95.5 55.5t132 19q50 0 84 -9.5t68 -27.5q126 48 170 67l-1 -138l-88 -12q6 -22 6 -40
q0 -45 -29.5 -86t-86.5 -66.5t-135 -25.5q-44 0 -69 3q-14 -3 -14 -9q0 -8 14.5 -11t37.5 -4.5t31 -1.5l103 -6q103 -7 154.5 -49.5t51.5 -105.5q0 -51 -33.5 -90t-100 -61.5t-161.5 -22.5q-99 0 -167 15.5zM356.5 308q17.5 19 17.5 49t-17.5 51.5t-44.5 21.5t-44.5 -21.5
t-17.5 -51.5t17.5 -49t44.5 -19t44.5 19zM414 -61q17 8 17 24t-17 26.5t-47 12.5l-94 6q-36 2 -51.5 -9.5t-15.5 -27.5q0 -24 33 -32t111 -8q47 0 64 8zM442 615q-53 -37 -122 -37t-123 36.5t-75 108.5h105q14 -26 40 -42t53 -16q25 0 51 16t39 42h106q-21 -71 -74 -108z
" />
    <glyph glyph-name="Gdotaccent" unicode="&#x120;" horiz-adv-x="772" 
d="M198.5 36.5q-77.5 46.5 -120 130.5t-42.5 192q0 111 45 196t125.5 131.5t183.5 46.5q93 0 165 -37.5t111 -98t40 -129.5h-203q-10 47 -39.5 75.5t-78.5 28.5q-60 0 -98.5 -49t-38.5 -158q0 -119 42.5 -162.5t102.5 -43.5q39 0 68 20.5t37 47.5l9 26h-126v131l331 -2v-382
h-128v80q-26 -27 -49.5 -45t-62.5 -31.5t-94 -13.5q-102 0 -179.5 46.5zM478 766h-195v163h195v-163z" />
    <glyph glyph-name="gdotaccent" unicode="&#x121;" horiz-adv-x="653" 
d="M153 -155.5q-68 15.5 -102 42.5t-34 61q0 30 21.5 48t37.5 23.5t44 12.5q-3 1 -22.5 10.5t-35 30t-15.5 46.5q0 33 30.5 58t88.5 33q-53 23 -82 66.5t-29 87.5q0 50 35.5 86.5t95.5 55.5t132 19q50 0 84 -9.5t68 -27.5q126 48 170 67l-1 -138l-88 -12q6 -22 6 -40
q0 -45 -29.5 -86t-86.5 -66.5t-135 -25.5q-44 0 -69 3q-14 -3 -14 -9q0 -8 14.5 -11t37.5 -4.5t31 -1.5l103 -6q103 -7 154.5 -49.5t51.5 -105.5q0 -51 -33.5 -90t-100 -61.5t-161.5 -22.5q-99 0 -167 15.5zM356.5 308q17.5 19 17.5 49t-17.5 51.5t-44.5 21.5t-44.5 -21.5
t-17.5 -51.5t17.5 -49t44.5 -19t44.5 19zM414 -61q17 8 17 24t-17 26.5t-47 12.5l-94 6q-36 2 -51.5 -9.5t-15.5 -27.5q0 -24 33 -32t111 -8q47 0 64 8zM417 560h-195v163h195v-163z" />
    <glyph glyph-name="Gcommaaccent" unicode="&#x122;" horiz-adv-x="772" 
d="M198.5 36.5q-77.5 46.5 -120 130.5t-42.5 192q0 111 45 196t125.5 131.5t183.5 46.5q93 0 165 -37.5t111 -98t40 -129.5h-203q-10 47 -39.5 75.5t-78.5 28.5q-60 0 -98.5 -49t-38.5 -158q0 -119 42.5 -162.5t102.5 -43.5q39 0 68 20.5t37 47.5l9 26h-126v131l331 -2v-382
h-128v80q-26 -27 -49.5 -45t-62.5 -31.5t-94 -13.5q-102 0 -179.5 46.5zM324 -233q-4 7 0 13l33 44q5 8 5 14t-4 10t-10 4h-9q-13 0 -17.5 4.5t-4.5 16.5v60q0 19 17 19h92q16 0 16 -15v-85q0 -4 -2 -8t-2 -5l-52 -65q-6 -8 -12.5 -11t-19.5 -3h-18q-8 0 -12 7z" />
    <glyph glyph-name="gcommaaccent" unicode="&#x123;" horiz-adv-x="653" 
d="M226 692l67 84h66l-68 -92h61v-100h-126v108zM153 -155.5q-68 15.5 -102 42.5t-34 61q0 30 21.5 48t37.5 23.5t44 12.5q-3 1 -22.5 10.5t-35 30t-15.5 46.5q0 33 30.5 58t88.5 33q-53 23 -82 66.5t-29 87.5q0 50 35.5 86.5t95.5 55.5t132 19q50 0 84 -9.5t68 -27.5
q126 48 170 67l-1 -138l-88 -12q6 -22 6 -40q0 -45 -29.5 -86t-86.5 -66.5t-135 -25.5q-44 0 -69 3q-14 -3 -14 -9q0 -8 14.5 -11t37.5 -4.5t31 -1.5l103 -6q103 -7 154.5 -49.5t51.5 -105.5q0 -51 -33.5 -90t-100 -61.5t-161.5 -22.5q-99 0 -167 15.5zM356.5 308
q17.5 19 17.5 49t-17.5 51.5t-44.5 21.5t-44.5 -21.5t-17.5 -51.5t17.5 -49t44.5 -19t44.5 19zM414 -61q17 8 17 24t-17 26.5t-47 12.5l-94 6q-36 2 -51.5 -9.5t-15.5 -27.5q0 -24 33 -32t111 -8q47 0 64 8z" />
    <glyph glyph-name="Hcircumflex" unicode="&#x124;" horiz-adv-x="739" 
d="M260 290v-290h-195v723h195v-274h219v274h195v-723h-195v290h-219zM366 868l-71 -82h-132l138 153h132l134 -153h-139z" />
    <glyph glyph-name="hcircumflex" unicode="&#x125;" horiz-adv-x="624" 
d="M56 743h192v-290q22 23 36.5 35t39.5 20.5t63 8.5q49 0 90.5 -21.5t66 -60.5t24.5 -89v-346h-195v323q0 21 -19 34t-42 13t-42 -14t-19 -35v-321h-195v743zM448 662l-71 -82h-132l138 153h132l134 -153h-139z" />
    <glyph glyph-name="Hbar" unicode="&#x126;" horiz-adv-x="802" 
d="M781.5 637q4.5 -5 4.5 -13v-59q0 -24 -28 -24h-45v-541h-195v290h-219v-290h-195v541h-76q-12 0 -16.5 5t-4.5 17v59q0 10 4 15t11 5h82v81h195v-81h219v81h195v-81h57q7 0 11.5 -5zM518 541h-219v-92h219v92z" />
    <glyph glyph-name="hbar" unicode="&#x127;" horiz-adv-x="641" 
d="M494.5 495.5q41.5 -21.5 66 -60.5t24.5 -89v-346h-195v323q0 21 -19 34t-42 13t-42 -14t-19 -35v-321h-195v566h-63v104h63v73h192v-73h106v-104h-106v-113q22 23 36.5 35t39.5 20.5t63 8.5q49 0 90.5 -21.5z" />
    <glyph glyph-name="Itilde" unicode="&#x128;" horiz-adv-x="325" 
d="M260 723v-723h-195v723h195zM299.5 808.5q-26.5 -8.5 -54.5 -8.5q-19 0 -40 4.5t-40 10.5q-47 15 -78 15q-20 0 -35 -5t-34 -19q-8 -5 -12 -5q-7 0 -11 12l-16 53q-1 2 -2 5t-1 7q0 7 11 18q20 19 41.5 29.5t53.5 10.5q19 0 37.5 -4t34.5 -8.5t21 -5.5q47 -15 69 -15
q37 0 75 27q5 4 12 4q9 0 12 -12l13 -64q1 -3 1 -7q0 -11 -14 -22q-17 -12 -43.5 -20.5z" />
    <glyph glyph-name="itilde" unicode="&#x129;" horiz-adv-x="307" 
d="M251 0h-195v517h195v-517zM293.5 602.5q-26.5 -8.5 -54.5 -8.5q-19 0 -40 4.5t-40 10.5q-47 15 -78 15q-20 0 -35 -5t-34 -19q-8 -5 -12 -5q-7 0 -11 12l-16 53q-1 2 -2 5t-1 7q0 7 11 18q20 19 41.5 29.5t53.5 10.5q19 0 37.5 -4t34.5 -8.5t21 -5.5q47 -15 69 -15
q37 0 75 27q5 4 12 4q9 0 12 -12l13 -64q1 -3 1 -7q0 -11 -14 -22q-17 -12 -43.5 -20.5z" />
    <glyph glyph-name="Imacron" unicode="&#x12a;" horiz-adv-x="325" 
d="M260 723v-723h-195v723h195zM363 810h-400v119h400v-119z" />
    <glyph glyph-name="imacron" unicode="&#x12b;" horiz-adv-x="307" 
d="M251 0h-195v517h195v-517zM357 604h-400v119h400v-119z" />
    <glyph glyph-name="Ibreve" unicode="&#x12c;" horiz-adv-x="325" 
d="M260 723v-723h-195v723h195zM286 821q-53 -37 -122 -37t-123 36.5t-75 108.5h105q14 -26 40 -42t53 -16q25 0 51 16t39 42h106q-21 -71 -74 -108z" />
    <glyph glyph-name="ibreve" unicode="&#x12d;" horiz-adv-x="307" 
d="M251 0h-195v517h195v-517zM280 615q-53 -37 -122 -37t-123 36.5t-75 108.5h105q14 -26 40 -42t53 -16q25 0 51 16t39 42h106q-21 -71 -74 -108z" />
    <glyph glyph-name="Iogonek" unicode="&#x12e;" horiz-adv-x="325" 
d="M260 723v-723h-195v723h195zM53 -42q19 22 72 41h133q-52 -17 -71 -31.5t-19 -32.5q0 -28 27 -28q15 0 26.5 4t28.5 12q6 3 10 3q8 0 8 -14v-51q0 -11 -10 -17q-15 -8 -44.5 -14.5t-61.5 -6.5q-55 0 -86.5 21.5t-31.5 63.5q0 28 19 50z" />
    <glyph glyph-name="iogonek" unicode="&#x12f;" horiz-adv-x="307" 
d="M251 0h-195v517h195v-517zM255 560h-195v163h195v-163zM40 -36q19 22 72 41h133q-52 -17 -71 -31.5t-19 -32.5q0 -28 27 -28q15 0 26.5 4t28.5 12q6 3 10 3q8 0 8 -14v-51q0 -11 -10 -17q-15 -8 -44.5 -14.5t-61.5 -6.5q-55 0 -86.5 21.5t-31.5 63.5q0 28 19 50z" />
    <glyph glyph-name="Idotaccent" unicode="&#x130;" horiz-adv-x="325" 
d="M260 723v-723h-195v723h195zM261 766h-195v163h195v-163z" />
    <glyph glyph-name="dotlessi" unicode="&#x131;" horiz-adv-x="307" 
d="M251 0h-195v517h195v-517z" />
    <glyph glyph-name="IJ" unicode="&#x132;" horiz-adv-x="756" 
d="M260 723v-723h-195v723h195zM673.5 93q-17.5 -51 -64 -77t-132.5 -26q-32 0 -70.5 3t-60.5 7v175q45 -5 64 -5q50 0 68 25t18 84v444h195v-494q0 -85 -17.5 -136z" />
    <glyph glyph-name="ij" unicode="&#x133;" horiz-adv-x="617" 
d="M251 579h-195v164h195v-164zM251 0h-195v517h195v-517zM561 579h-195v164h195v-164zM357 -166q-23 0 -38 4t-21.5 8t-7.5 5l-1 130l30 5q27 6 37 15.5t10 26.5v489h195v-489q0 -194 -204 -194z" />
    <glyph glyph-name="Jcircumflex" unicode="&#x134;" horiz-adv-x="431" 
d="M348.5 93q-17.5 -51 -64 -77t-132.5 -26q-32 0 -70.5 3t-60.5 7v175q45 -5 64 -5q50 0 68 25t18 84v444h195v-494q0 -85 -17.5 -136zM218 868l-71 -82h-132l138 153h132l134 -153h-139z" />
    <glyph glyph-name="jcircumflex" unicode="&#x135;" horiz-adv-x="299" 
d="M38 -166q-23 0 -37.5 4t-21 8t-7.5 5l-1 130l29 5q27 6 37.5 16t10.5 26v489h195v-489q0 -194 -205 -194zM144 662l-71 -82h-132l138 153h132l134 -153h-139z" />
    <glyph glyph-name="Kcommaaccent" unicode="&#x136;" horiz-adv-x="744" 
d="M518 0l-161 305l-90 -116v-189h-202v723h202v-292l209 292h219l-199 -276l231 -447h-209zM301 -233q-4 7 0 13l33 44q5 8 5 14t-4 10t-10 4h-9q-13 0 -17.5 4.5t-4.5 16.5v60q0 19 17 19h92q16 0 16 -15v-85q0 -4 -2 -8t-2 -5l-52 -65q-6 -8 -12.5 -11t-19.5 -3h-18
q-8 0 -12 7z" />
    <glyph glyph-name="kcommaaccent" unicode="&#x137;" horiz-adv-x="613" 
d="M408 0l-119 190l-38 -44v-146h-195v743h195v-411l153 185h192l-189 -214l190 -303h-189zM253 -233q-4 7 0 13l33 44q5 8 5 14t-4 10t-10 4h-9q-13 0 -17.5 4.5t-4.5 16.5v60q0 19 17 19h92q16 0 16 -15v-85q0 -4 -2 -8t-2 -5l-52 -65q-6 -8 -12.5 -11t-19.5 -3h-18
q-8 0 -12 7z" />
    <glyph glyph-name="kgreenlandic" unicode="&#x138;" horiz-adv-x="644" 
d="M408 0l-88 211l-69 -65v-146h-195v517h195v-195l172 195h191l-166 -167l180 -350h-220z" />
    <glyph glyph-name="Lacute" unicode="&#x139;" horiz-adv-x="570" 
d="M260 723v-563h289v-160h-484v723h195zM305 823l-277 -66l-26 77l262 107z" />
    <glyph glyph-name="lacute" unicode="&#x13a;" horiz-adv-x="347" 
d="M121 13q-43 24 -54 58.5t-11 84.5v587h191v-561q0 -23 11.5 -37.5t46.5 -19.5l21 -2v-118q-41 -16 -73 -16q-89 0 -132 24zM306 865l-277 -66l-26 77l262 107z" />
    <glyph glyph-name="Lcommaaccent" unicode="&#x13b;" horiz-adv-x="570" 
d="M260 723v-563h289v-160h-484v723h195zM248 -233q-4 7 0 13l33 44q5 8 5 14t-4 10t-10 4h-9q-13 0 -17.5 4.5t-4.5 16.5v60q0 19 17 19h92q16 0 16 -15v-85q0 -4 -2 -8t-2 -5l-52 -65q-6 -8 -12.5 -11t-19.5 -3h-18q-8 0 -12 7z" />
    <glyph glyph-name="lcommaaccent" unicode="&#x13c;" horiz-adv-x="347" 
d="M121 13q-43 24 -54 58.5t-11 84.5v587h191v-561q0 -23 11.5 -37.5t46.5 -19.5l21 -2v-118q-41 -16 -73 -16q-89 0 -132 24zM83 -233q-4 7 0 13l33 44q5 8 5 14t-4 10t-10 4h-9q-13 0 -17.5 4.5t-4.5 16.5v60q0 19 17 19h92q16 0 16 -15v-85q0 -4 -2 -8t-2 -5l-52 -65
q-6 -8 -12.5 -11t-19.5 -3h-18q-8 0 -12 7z" />
    <glyph glyph-name="Lcaron" unicode="&#x13d;" horiz-adv-x="570" 
d="M260 723v-563h289v-160h-484v723h195zM384.5 488q-2.5 5 -0.5 10l30 75q3 8 3 12q0 8 -10 9l-12 2q-9 1 -13 4.5t-4 11.5v96q0 15 13 15h95q13 0 13 -12v-115q0 -4 -3 -10l-37 -88q-3 -8 -9.5 -11.5t-20.5 -3.5h-36q-6 0 -8.5 5z" />
    <glyph glyph-name="lcaron" unicode="&#x13e;" horiz-adv-x="347" 
d="M121 13q-43 24 -54 58.5t-11 84.5v587h191v-561q0 -23 11.5 -37.5t46.5 -19.5l21 -2v-118q-41 -16 -73 -16q-89 0 -132 24zM294.5 530q-2.5 5 -0.5 10l30 75q3 8 3 12q0 8 -10 9l-12 2q-9 1 -13 4.5t-4 11.5v96q0 15 13 15h95q13 0 13 -12v-115q0 -4 -3 -10l-37 -88
q-3 -8 -9.5 -11.5t-20.5 -3.5h-36q-6 0 -8.5 5z" />
    <glyph glyph-name="Ldot" unicode="&#x13f;" horiz-adv-x="624" 
d="M260 723v-563h289v-160h-484v723h195zM586 320h-181v174h181v-174z" />
    <glyph glyph-name="ldot" unicode="&#x140;" horiz-adv-x="454" 
d="M121 13q-43 24 -54 58.5t-11 84.5v587h191v-561q0 -23 11.5 -37.5t46.5 -19.5l21 -2v-118q-41 -16 -73 -16q-89 0 -132 24zM468 191h-181v174h181v-174z" />
    <glyph glyph-name="Lslash" unicode="&#x141;" horiz-adv-x="584" 
d="M563 160v-160h-484v292l-56 -16q-10 -2 -12 -2q-13 0 -13 19v117q0 11 4.5 16t14.5 7l62 17v273h195v-222l137 37q8 2 10 2q14 0 14 -19v-111q0 -17 -20 -23l-141 -40v-187h289z" />
    <glyph glyph-name="lslash" unicode="&#x142;" horiz-adv-x="378" 
d="M380 123v-118q-41 -16 -73 -16q-89 0 -132 24t-54 58.5t-11 84.5v41l-84 -55v162l84 53v386h191v-267l41 26v-153l-41 -27v-140q0 -23 11.5 -37.5t46.5 -19.5z" />
    <glyph glyph-name="Nacute" unicode="&#x143;" horiz-adv-x="803" 
d="M738 723v-723h-176l-302 431v-431h-195v723h196l282 -403v403h195zM554 823l-277 -66l-26 77l262 107z" />
    <glyph glyph-name="nacute" unicode="&#x144;" 
d="M56 517h193v-62q23 24 37.5 35.5t39 20t62.5 8.5q45 0 87 -22.5t68 -61.5t26 -86v-349h-195v323q0 21 -18.5 34t-41.5 13q-24 0 -43.5 -13t-19.5 -34v-323h-195v517zM465 617l-277 -66l-26 77l262 107z" />
    <glyph glyph-name="Ncommaaccent" unicode="&#x145;" horiz-adv-x="803" 
d="M738 723v-723h-176l-302 431v-431h-195v723h196l282 -403v403h195zM345 -233q-4 7 0 13l33 44q5 8 5 14t-4 10t-10 4h-9q-13 0 -17.5 4.5t-4.5 16.5v60q0 19 17 19h92q16 0 16 -15v-85q0 -4 -2 -8t-2 -5l-52 -65q-6 -8 -12.5 -11t-19.5 -3h-18q-8 0 -12 7z" />
    <glyph glyph-name="ncommaaccent" unicode="&#x146;" 
d="M56 517h193v-62q23 24 37.5 35.5t39 20t62.5 8.5q45 0 87 -22.5t68 -61.5t26 -86v-349h-195v323q0 21 -18.5 34t-41.5 13q-24 0 -43.5 -13t-19.5 -34v-323h-195v517zM256 -233q-4 7 0 13l33 44q5 8 5 14t-4 10t-10 4h-9q-13 0 -17.5 4.5t-4.5 16.5v60q0 19 17 19h92
q16 0 16 -15v-85q0 -4 -2 -8t-2 -5l-52 -65q-6 -8 -12.5 -11t-19.5 -3h-18q-8 0 -12 7z" />
    <glyph glyph-name="Ncaron" unicode="&#x147;" horiz-adv-x="803" 
d="M738 723v-723h-176l-302 431v-431h-195v723h196l282 -403v403h195zM601 930l-134 -154h-133l-137 154h132l71 -82l62 82h139z" />
    <glyph glyph-name="ncaron" unicode="&#x148;" 
d="M56 517h193v-62q23 24 37.5 35.5t39 20t62.5 8.5q45 0 87 -22.5t68 -61.5t26 -86v-349h-195v323q0 21 -18.5 34t-41.5 13q-24 0 -43.5 -13t-19.5 -34v-323h-195v517zM512 724l-134 -154h-133l-137 154h132l71 -82l62 82h139z" />
    <glyph glyph-name="napostrophe" unicode="&#x149;" horiz-adv-x="766" 
d="M47 439q-3 5 -1 10l30 105q2 5 2 11q0 8 -9 9l-11 2q-10 1 -14 4.5t-4 12.5v115q0 15 14 15h96q13 0 13 -12v-135q0 -4 -3 -10l-37 -117q-3 -8 -9.5 -11.5t-19.5 -3.5h-38q-6 0 -9 5zM197 517h193v-62q23 24 37.5 35.5t39 20t62.5 8.5q45 0 87 -22.5t68 -61.5t26 -86
v-349h-195v323q0 21 -18.5 34t-41.5 13q-24 0 -43.5 -13t-19.5 -34v-323h-195v517z" />
    <glyph glyph-name="Eng" unicode="&#x14a;" horiz-adv-x="771" 
d="M706 707v-661q0 -115 -56.5 -166t-170.5 -51q-61 0 -127 12q-17 3 -24 12.5t-6 29.5l9 111q2 23 19 23q11 0 26 -3q24 -4 37 -4q73 0 76 76v9l-234 283q-4 5 -6.5 4t-2.5 -6v-355q1 -11 -4.5 -16t-19.5 -5h-132q-25 0 -25 20v681q0 12 5.5 17t16.5 5h159q12 0 18 -3
t15 -14l234 -287q6 -8 10 -8q5 0 5 12v280q0 20 22 20h141q15 0 15 -16z" />
    <glyph glyph-name="eng" unicode="&#x14b;" horiz-adv-x="626" 
d="M322 -161q-14 5 -14 8v135l24 3q23 4 33 13t10 27v317q0 22 -14 34.5t-37 12.5t-40 -12t-31 -37v-340h-197l3 517h191v-81q34 41 77 66t90 25q69 0 111 -43t42 -115v-341q0 -89 -55 -141.5t-144 -52.5q-35 0 -49 5z" />
    <glyph glyph-name="Omacron" unicode="&#x14c;" horiz-adv-x="772" 
d="M201.5 35.5q-79.5 45.5 -122.5 129t-43 195.5t43.5 196.5t123 130.5t184.5 46q104 0 183 -46t122.5 -130.5t43.5 -196.5q0 -111 -43 -195t-122 -129.5t-184 -45.5q-106 0 -185.5 45.5zM488 196q37 50 37 161q0 115 -37 167.5t-101 52.5t-101.5 -52.5t-37.5 -167.5
q0 -111 37 -161t102 -50q64 0 101 50zM586 810h-400v119h400v-119z" />
    <glyph glyph-name="omacron" unicode="&#x14d;" horiz-adv-x="573" 
d="M147.5 23.5q-59.5 33.5 -91.5 94t-32 137.5q0 80 33.5 142t93.5 96t136 34q79 0 138.5 -35t91.5 -97t32 -140q0 -77 -32.5 -137t-92 -94t-138.5 -34t-138.5 33.5zM344.5 170q15.5 39 15.5 92q0 126 -73 126q-74 0 -74 -126q0 -54 16 -92.5t58 -38.5t57.5 39zM487 604
h-400v119h400v-119z" />
    <glyph glyph-name="Obreve" unicode="&#x14e;" horiz-adv-x="772" 
d="M201.5 35.5q-79.5 45.5 -122.5 129t-43 195.5t43.5 196.5t123 130.5t184.5 46q104 0 183 -46t122.5 -130.5t43.5 -196.5q0 -111 -43 -195t-122 -129.5t-184 -45.5q-106 0 -185.5 45.5zM488 196q37 50 37 161q0 115 -37 167.5t-101 52.5t-101.5 -52.5t-37.5 -167.5
q0 -111 37 -161t102 -50q64 0 101 50zM509 821q-53 -37 -122 -37t-123 36.5t-75 108.5h105q14 -26 40 -42t53 -16q25 0 51 16t39 42h106q-21 -71 -74 -108z" />
    <glyph glyph-name="obreve" unicode="&#x14f;" horiz-adv-x="573" 
d="M147.5 23.5q-59.5 33.5 -91.5 94t-32 137.5q0 80 33.5 142t93.5 96t136 34q79 0 138.5 -35t91.5 -97t32 -140q0 -77 -32.5 -137t-92 -94t-138.5 -34t-138.5 33.5zM344.5 170q15.5 39 15.5 92q0 126 -73 126q-74 0 -74 -126q0 -54 16 -92.5t58 -38.5t57.5 39zM410 615
q-53 -37 -122 -37t-123 36.5t-75 108.5h105q14 -26 40 -42t53 -16q25 0 51 16t39 42h106q-21 -71 -74 -108z" />
    <glyph glyph-name="Ohungarumlaut" unicode="&#x150;" horiz-adv-x="772" 
d="M201.5 35.5q-79.5 45.5 -122.5 129t-43 195.5t43.5 196.5t123 130.5t184.5 46q104 0 183 -46t122.5 -130.5t43.5 -196.5q0 -111 -43 -195t-122 -129.5t-184 -45.5q-106 0 -185.5 45.5zM488 196q37 50 37 161q0 115 -37 167.5t-101 52.5t-101.5 -52.5t-37.5 -167.5
q0 -111 37 -161t102 -50q64 0 101 50zM381 872q9 -11 9 -19q0 -10 -13 -17l-139 -78q-13 -8 -19 -8t-12 8l-33 34q-7 7 -7 15q0 6 4 9l138 116q7 5 11 5q8 0 12 -7zM595 872q8 -10 8 -19q0 -10 -12 -17l-140 -78q-13 -8 -18 -8t-13 8l-32 34q-8 8 -8 15q0 6 5 9l137 116
q7 5 12 5q6 0 12 -7z" />
    <glyph glyph-name="ohungarumlaut" unicode="&#x151;" horiz-adv-x="573" 
d="M147.5 23.5q-59.5 33.5 -91.5 94t-32 137.5q0 80 33.5 142t93.5 96t136 34q79 0 138.5 -35t91.5 -97t32 -140q0 -77 -32.5 -137t-92 -94t-138.5 -34t-138.5 33.5zM344.5 170q15.5 39 15.5 92q0 126 -73 126q-74 0 -74 -126q0 -54 16 -92.5t58 -38.5t57.5 39zM282 666
q9 -11 9 -19q0 -10 -13 -17l-139 -78q-13 -8 -19 -8t-12 8l-33 34q-7 7 -7 15q0 6 4 9l138 116q7 5 11 5q8 0 12 -7zM496 666q8 -10 8 -19q0 -10 -12 -17l-140 -78q-13 -8 -18 -8t-13 8l-32 34q-8 8 -8 15q0 6 5 9l137 116q7 5 12 5q6 0 12 -7z" />
    <glyph glyph-name="OE" unicode="&#x152;" horiz-adv-x="1125" 
d="M1075 0h-539q-53 -10 -137 -10q-112 0 -194 45.5t-125.5 129t-43.5 195.5q0 113 45 197t129 130t200 46q77 0 126 -10h531l-1 -159h-341v-122h214v-157h-214v-125h350v-160zM455.5 163.5q25.5 21.5 37 68t11.5 125.5q0 121 -27.5 173.5t-89.5 52.5q-64 0 -91.5 -52.5
t-27.5 -173.5q0 -79 11.5 -125.5t37.5 -68t70 -21.5q43 0 68.5 21.5z" />
    <glyph glyph-name="oe" unicode="&#x153;" horiz-adv-x="925" 
d="M154.5 24q-61.5 34 -96 94t-34.5 137q0 80 35.5 142t97.5 96t139 34q93 0 163 -48q8 -5 13 -5q4 0 12 5q67 48 153 48q77 0 137 -36.5t94 -105t34 -162.5h-336q0 -51 28 -77.5t73 -26.5q27 0 53 13.5t60 47.5l118 -48q-53 -81 -110.5 -111.5t-146.5 -30.5q-94 0 -165 49
q-4 3 -7 3q-4 0 -10 -4q-72 -48 -164 -48q-79 0 -140.5 34zM590 389.5q-22 -22.5 -21 -64.5l144 -1q0 29 -17.5 58.5t-50.5 29.5t-55 -22.5zM353.5 149.5q17.5 34.5 17.5 109.5q0 77 -17.5 112t-57.5 35q-39 0 -57 -35t-18 -112q0 -75 18 -109.5t57 -34.5q40 0 57.5 34.5z
" />
    <glyph glyph-name="Racute" unicode="&#x154;" horiz-adv-x="709" 
d="M467 0l-105 249h-102v-249h-195v723h328q134 0 197.5 -64t63.5 -169q0 -78 -30 -127t-85 -83l127 -280h-199zM432.5 423q25.5 29 25.5 65q0 37 -26.5 64t-60.5 27h-111v-185h111q36 0 61.5 29zM500 823l-277 -66l-26 77l262 107z" />
    <glyph glyph-name="racute" unicode="&#x155;" horiz-adv-x="449" 
d="M56 517h188v-143q20 68 63 110.5t111 42.5l1 -183q-16 2 -44 2q-72 0 -98 -27t-26 -71v-248h-195v517zM395 617l-277 -66l-26 77l262 107z" />
    <glyph glyph-name="Rcommaaccent" unicode="&#x156;" horiz-adv-x="709" 
d="M467 0l-105 249h-102v-249h-195v723h328q134 0 197.5 -64t63.5 -169q0 -78 -30 -127t-85 -83l127 -280h-199zM432.5 423q25.5 29 25.5 65q0 37 -26.5 64t-60.5 27h-111v-185h111q36 0 61.5 29zM301 -233q-4 7 0 13l33 44q5 8 5 14t-4 10t-10 4h-9q-13 0 -17.5 4.5
t-4.5 16.5v60q0 19 17 19h92q16 0 16 -15v-85q0 -4 -2 -8t-2 -5l-52 -65q-6 -8 -12.5 -11t-19.5 -3h-18q-8 0 -12 7z" />
    <glyph glyph-name="rcommaaccent" unicode="&#x157;" horiz-adv-x="449" 
d="M56 517h188v-143q20 68 63 110.5t111 42.5l1 -183q-16 2 -44 2q-72 0 -98 -27t-26 -71v-248h-195v517zM109 -233q-4 7 0 13l33 44q5 8 5 14t-4 10t-10 4h-9q-13 0 -17.5 4.5t-4.5 16.5v60q0 19 17 19h92q16 0 16 -15v-85q0 -4 -2 -8t-2 -5l-52 -65q-6 -8 -12.5 -11
t-19.5 -3h-18q-8 0 -12 7z" />
    <glyph glyph-name="Rcaron" unicode="&#x158;" horiz-adv-x="709" 
d="M467 0l-105 249h-102v-249h-195v723h328q134 0 197.5 -64t63.5 -169q0 -78 -30 -127t-85 -83l127 -280h-199zM432.5 423q25.5 29 25.5 65q0 37 -26.5 64t-60.5 27h-111v-185h111q36 0 61.5 29zM547 930l-134 -154h-133l-137 154h132l71 -82l62 82h139z" />
    <glyph glyph-name="rcaron" unicode="&#x159;" horiz-adv-x="449" 
d="M56 517h188v-143q20 68 63 110.5t111 42.5l1 -183q-16 2 -44 2q-72 0 -98 -27t-26 -71v-248h-195v517zM442 724l-134 -154h-133l-137 154h132l71 -82l62 82h139z" />
    <glyph glyph-name="Sacute" unicode="&#x15a;" horiz-adv-x="716" 
d="M210.5 15q-72.5 25 -120.5 76.5t-54 128.5h202q8 -38 40.5 -59.5t83.5 -21.5q52 0 85.5 15.5t33.5 50.5q0 29 -30 41.5t-91 22.5l-113 19q-88 14 -139 69.5t-51 146.5q0 70 40.5 121.5t109.5 79t153 27.5q86 0 155.5 -31.5t111 -84t48.5 -112.5h-197q-4 41 -32.5 59.5
t-81.5 18.5q-52 0 -75.5 -17t-23.5 -40q0 -26 17 -40.5t62 -22.5l113 -19q138 -24 180.5 -90.5t42.5 -147.5q0 -61 -41.5 -110t-114 -77t-161.5 -28q-80 0 -152.5 25zM513 823l-277 -66l-26 77l262 107z" />
    <glyph glyph-name="sacute" unicode="&#x15b;" horiz-adv-x="527" 
d="M107 31.5q-70 41.5 -85 132.5h160q10 -28 33 -36.5t58 -8.5q34 0 51.5 8.5t17.5 21.5q0 15 -15 22.5t-47 13.5l-77 12q-166 30 -166 160q0 48 28 86.5t81 61t126 22.5q70 0 123 -21t81 -59.5t26 -90.5h-158q-6 25 -26.5 36.5t-50.5 11.5q-62 0 -62 -33q0 -13 18 -21.5
t60 -15.5l66 -12q88 -21 122 -68.5t34 -93.5q0 -81 -66 -125.5t-169 -44.5q-93 0 -163 41.5zM425 617l-277 -66l-26 77l262 107z" />
    <glyph glyph-name="Scircumflex" unicode="&#x15c;" horiz-adv-x="716" 
d="M210.5 15q-72.5 25 -120.5 76.5t-54 128.5h202q8 -38 40.5 -59.5t83.5 -21.5q52 0 85.5 15.5t33.5 50.5q0 29 -30 41.5t-91 22.5l-113 19q-88 14 -139 69.5t-51 146.5q0 70 40.5 121.5t109.5 79t153 27.5q86 0 155.5 -31.5t111 -84t48.5 -112.5h-197q-4 41 -32.5 59.5
t-81.5 18.5q-52 0 -75.5 -17t-23.5 -40q0 -26 17 -40.5t62 -22.5l113 -19q138 -24 180.5 -90.5t42.5 -147.5q0 -61 -41.5 -110t-114 -77t-161.5 -28q-80 0 -152.5 25zM359 868l-71 -82h-132l138 153h132l134 -153h-139z" />
    <glyph glyph-name="scircumflex" unicode="&#x15d;" horiz-adv-x="527" 
d="M107 31.5q-70 41.5 -85 132.5h160q10 -28 33 -36.5t58 -8.5q34 0 51.5 8.5t17.5 21.5q0 15 -15 22.5t-47 13.5l-77 12q-166 30 -166 160q0 48 28 86.5t81 61t126 22.5q70 0 123 -21t81 -59.5t26 -90.5h-158q-6 25 -26.5 36.5t-50.5 11.5q-62 0 -62 -33q0 -13 18 -21.5
t60 -15.5l66 -12q88 -21 122 -68.5t34 -93.5q0 -81 -66 -125.5t-169 -44.5q-93 0 -163 41.5zM271 662l-71 -82h-132l138 153h132l134 -153h-139z" />
    <glyph glyph-name="Scedilla" unicode="&#x15e;" horiz-adv-x="716" 
d="M210.5 15q-72.5 25 -120.5 76.5t-54 128.5h202q8 -38 40.5 -59.5t83.5 -21.5q52 0 85.5 15.5t33.5 50.5q0 29 -30 41.5t-91 22.5l-113 19q-88 14 -139 69.5t-51 146.5q0 70 40.5 121.5t109.5 79t153 27.5q86 0 155.5 -31.5t111 -84t48.5 -112.5h-197q-4 41 -32.5 59.5
t-81.5 18.5q-52 0 -75.5 -17t-23.5 -40q0 -26 17 -40.5t62 -22.5l113 -19q138 -24 180.5 -90.5t42.5 -147.5q0 -61 -41.5 -110t-114 -77t-161.5 -28q-80 0 -152.5 25zM457 -195.5q-38 -23.5 -92 -23.5q-84 0 -133 29l24 59q48 -26 85 -26q20 0 33 7t13 19q0 19 -20.5 28.5
t-68.5 9.5q-8 0 -10.5 2t0.5 10l37 86h79l-21 -57q56 0 84 -25t28 -57q0 -38 -38 -61.5z" />
    <glyph glyph-name="scedilla" unicode="&#x15f;" horiz-adv-x="527" 
d="M107 31.5q-70 41.5 -85 132.5h160q10 -28 33 -36.5t58 -8.5q34 0 51.5 8.5t17.5 21.5q0 15 -15 22.5t-47 13.5l-77 12q-166 30 -166 160q0 48 28 86.5t81 61t126 22.5q70 0 123 -21t81 -59.5t26 -90.5h-158q-6 25 -26.5 36.5t-50.5 11.5q-62 0 -62 -33q0 -13 18 -21.5
t60 -15.5l66 -12q88 -21 122 -68.5t34 -93.5q0 -81 -66 -125.5t-169 -44.5q-93 0 -163 41.5zM368 -195.5q-38 -23.5 -92 -23.5q-84 0 -133 29l24 59q48 -26 85 -26q20 0 33 7t13 19q0 19 -20.5 28.5t-68.5 9.5q-8 0 -10.5 2t0.5 10l37 86h79l-21 -57q56 0 84 -25t28 -57
q0 -38 -38 -61.5z" />
    <glyph glyph-name="Scaron" unicode="&#x160;" horiz-adv-x="716" 
d="M210.5 15q-72.5 25 -120.5 76.5t-54 128.5h202q8 -38 40.5 -59.5t83.5 -21.5q52 0 85.5 15.5t33.5 50.5q0 29 -30 41.5t-91 22.5l-113 19q-88 14 -139 69.5t-51 146.5q0 70 40.5 121.5t109.5 79t153 27.5q86 0 155.5 -31.5t111 -84t48.5 -112.5h-197q-4 41 -32.5 59.5
t-81.5 18.5q-52 0 -75.5 -17t-23.5 -40q0 -26 17 -40.5t62 -22.5l113 -19q138 -24 180.5 -90.5t42.5 -147.5q0 -61 -41.5 -110t-114 -77t-161.5 -28q-80 0 -152.5 25zM560 930l-134 -154h-133l-137 154h132l71 -82l62 82h139z" />
    <glyph glyph-name="scaron" unicode="&#x161;" horiz-adv-x="527" 
d="M107 31.5q-70 41.5 -85 132.5h160q10 -28 33 -36.5t58 -8.5q34 0 51.5 8.5t17.5 21.5q0 15 -15 22.5t-47 13.5l-77 12q-166 30 -166 160q0 48 28 86.5t81 61t126 22.5q70 0 123 -21t81 -59.5t26 -90.5h-158q-6 25 -26.5 36.5t-50.5 11.5q-62 0 -62 -33q0 -13 18 -21.5
t60 -15.5l66 -12q88 -21 122 -68.5t34 -93.5q0 -81 -66 -125.5t-169 -44.5q-93 0 -163 41.5zM472 724l-134 -154h-133l-137 154h132l71 -82l62 82h139z" />
    <glyph glyph-name="uni0162" unicode="&#x162;" horiz-adv-x="631" 
d="M12 723h607v-171h-207v-552h-195v552h-205v171zM421 -195.5q-38 -23.5 -92 -23.5q-84 0 -133 29l24 59q48 -26 85 -26q20 0 33 7t13 19q0 19 -20.5 28.5t-68.5 9.5q-8 0 -10.5 2t0.5 10l37 86h79l-21 -57q56 0 84 -25t28 -57q0 -38 -38 -61.5z" />
    <glyph glyph-name="uni0163" unicode="&#x163;" horiz-adv-x="451" 
d="M298 385l1 -234q0 -16 8 -22t23 -6h81v-115q-32 -16 -103 -16q-114 0 -159 40t-45 110v243h-84v132h91l29 161h158v-160h113v-133h-113zM363 -195.5q-38 -23.5 -92 -23.5q-84 0 -133 29l24 59q48 -26 85 -26q20 0 33 7t13 19q0 19 -20.5 28.5t-68.5 9.5q-8 0 -10.5 2
t0.5 10l37 86h79l-21 -57q56 0 84 -25t28 -57q0 -38 -38 -61.5z" />
    <glyph glyph-name="Tcaron" unicode="&#x164;" horiz-adv-x="631" 
d="M12 723h607v-171h-207v-552h-195v552h-205v171zM524 930l-134 -154h-133l-137 154h132l71 -82l62 82h139z" />
    <glyph glyph-name="tcaron" unicode="&#x165;" horiz-adv-x="451" 
d="M298 385l1 -234q0 -16 8 -22t23 -6h81v-115q-32 -16 -103 -16q-114 0 -159 40t-45 110v243h-84v132h91l29 161h158v-160h113v-133h-113zM330.5 560q-2.5 5 -0.5 10l30 75q3 8 3 12q0 8 -10 9l-12 2q-9 1 -13 4.5t-4 11.5v96q0 15 13 15h95q13 0 13 -12v-115q0 -4 -3 -10
l-37 -88q-3 -8 -9.5 -11.5t-20.5 -3.5h-36q-6 0 -8.5 5z" />
    <glyph glyph-name="Tbar" unicode="&#x166;" horiz-adv-x="631" 
d="M412 552v-141h121v-137h-121v-274h-195v274h-111v137h111v141h-205v171h607v-171h-207z" />
    <glyph glyph-name="tbar" unicode="&#x167;" horiz-adv-x="474" 
d="M312 385v-55h86v-105h-85v-74q0 -16 8 -22t23 -6h81v-115q-32 -16 -103 -16q-114 0 -159 40t-45 110v83h-82v105h82v55h-84v132h91l29 161h158v-160h113v-133h-113z" />
    <glyph glyph-name="Utilde" unicode="&#x168;" horiz-adv-x="754" 
d="M616 71q-73 -81 -239 -81t-239 81t-73 228v424h197v-432q0 -70 32.5 -104t82.5 -34t82.5 34t32.5 104v432h197v-424q0 -147 -73 -228zM495.5 808.5q-26.5 -8.5 -54.5 -8.5q-19 0 -40 4.5t-40 10.5q-47 15 -78 15q-20 0 -35 -5t-34 -19q-8 -5 -12 -5q-7 0 -11 12l-16 53
q-1 2 -2 5t-1 7q0 7 11 18q20 19 41.5 29.5t53.5 10.5q19 0 37.5 -4t34.5 -8.5t21 -5.5q47 -15 69 -15q37 0 75 27q5 4 12 4q9 0 12 -12l13 -64q1 -3 1 -7q0 -11 -14 -22q-17 -12 -43.5 -20.5z" />
    <glyph glyph-name="utilde" unicode="&#x169;" 
d="M158.5 10q-44.5 20 -73.5 57t-29 86v364h195v-337q0 -23 16 -38t44 -15t44.5 15t16.5 38v337h197l-4 -517h-144l-14 68q-24 -39 -70 -58.5t-90 -19.5t-88.5 20zM448.5 602.5q-26.5 -8.5 -54.5 -8.5q-19 0 -40 4.5t-40 10.5q-47 15 -78 15q-20 0 -35 -5t-34 -19
q-8 -5 -12 -5q-7 0 -11 12l-16 53q-1 2 -2 5t-1 7q0 7 11 18q20 19 41.5 29.5t53.5 10.5q19 0 37.5 -4t34.5 -8.5t21 -5.5q47 -15 69 -15q37 0 75 27q5 4 12 4q9 0 12 -12l13 -64q1 -3 1 -7q0 -11 -14 -22q-17 -12 -43.5 -20.5z" />
    <glyph glyph-name="Umacron" unicode="&#x16a;" horiz-adv-x="754" 
d="M616 71q-73 -81 -239 -81t-239 81t-73 228v424h197v-432q0 -70 32.5 -104t82.5 -34t82.5 34t32.5 104v432h197v-424q0 -147 -73 -228zM559 810h-400v119h400v-119z" />
    <glyph glyph-name="umacron" unicode="&#x16b;" 
d="M158.5 10q-44.5 20 -73.5 57t-29 86v364h195v-337q0 -23 16 -38t44 -15t44.5 15t16.5 38v337h197l-4 -517h-144l-14 68q-24 -39 -70 -58.5t-90 -19.5t-88.5 20zM512 604h-400v119h400v-119z" />
    <glyph glyph-name="Ubreve" unicode="&#x16c;" horiz-adv-x="754" 
d="M616 71q-73 -81 -239 -81t-239 81t-73 228v424h197v-432q0 -70 32.5 -104t82.5 -34t82.5 34t32.5 104v432h197v-424q0 -147 -73 -228zM482 821q-53 -37 -122 -37t-123 36.5t-75 108.5h105q14 -26 40 -42t53 -16q25 0 51 16t39 42h106q-21 -71 -74 -108z" />
    <glyph glyph-name="ubreve" unicode="&#x16d;" 
d="M158.5 10q-44.5 20 -73.5 57t-29 86v364h195v-337q0 -23 16 -38t44 -15t44.5 15t16.5 38v337h197l-4 -517h-144l-14 68q-24 -39 -70 -58.5t-90 -19.5t-88.5 20zM435 615q-53 -37 -122 -37t-123 36.5t-75 108.5h105q14 -26 40 -42t53 -16q25 0 51 16t39 42h106
q-21 -71 -74 -108z" />
    <glyph glyph-name="Uring" unicode="&#x16e;" horiz-adv-x="754" 
d="M616 71q-73 -81 -239 -81t-239 81t-73 228v424h197v-432q0 -70 32.5 -104t82.5 -34t82.5 34t32.5 104v432h197v-424q0 -147 -73 -228zM439.5 798q-33.5 -33 -80.5 -33q-48 0 -81 33.5t-33 82.5q0 46 33.5 78t80.5 32t80.5 -33t33.5 -79q0 -48 -33.5 -81zM390.5 911
q-13.5 13 -32.5 13q-20 0 -34 -13.5t-14 -32.5t14.5 -33.5t33.5 -14.5t32.5 14.5t13.5 33.5q0 20 -13.5 33z" />
    <glyph glyph-name="uring" unicode="&#x16f;" 
d="M158.5 10q-44.5 20 -73.5 57t-29 86v364h195v-337q0 -23 16 -38t44 -15t44.5 15t16.5 38v337h197l-4 -517h-144l-14 68q-24 -39 -70 -58.5t-90 -19.5t-88.5 20zM392.5 592q-33.5 -33 -80.5 -33q-48 0 -81 33.5t-33 82.5q0 46 33.5 78t80.5 32t80.5 -33t33.5 -79
q0 -48 -33.5 -81zM343.5 705q-13.5 13 -32.5 13q-20 0 -34 -13.5t-14 -32.5t14.5 -33.5t33.5 -14.5t32.5 14.5t13.5 33.5q0 20 -13.5 33z" />
    <glyph glyph-name="Uhungarumlaut" unicode="&#x170;" horiz-adv-x="754" 
d="M616 71q-73 -81 -239 -81t-239 81t-73 228v424h197v-432q0 -70 32.5 -104t82.5 -34t82.5 34t32.5 104v432h197v-424q0 -147 -73 -228zM354 872q9 -11 9 -19q0 -10 -13 -17l-139 -78q-13 -8 -19 -8t-12 8l-33 34q-7 7 -7 15q0 6 4 9l138 116q7 5 11 5q8 0 12 -7zM568 872
q8 -10 8 -19q0 -10 -12 -17l-140 -78q-13 -8 -18 -8t-13 8l-32 34q-8 8 -8 15q0 6 5 9l137 116q7 5 12 5q6 0 12 -7z" />
    <glyph glyph-name="uhungarumlaut" unicode="&#x171;" 
d="M158.5 10q-44.5 20 -73.5 57t-29 86v364h195v-337q0 -23 16 -38t44 -15t44.5 15t16.5 38v337h197l-4 -517h-144l-14 68q-24 -39 -70 -58.5t-90 -19.5t-88.5 20zM307 666q9 -11 9 -19q0 -10 -13 -17l-139 -78q-13 -8 -19 -8t-12 8l-33 34q-7 7 -7 15q0 6 4 9l138 116
q7 5 11 5q8 0 12 -7zM521 666q8 -10 8 -19q0 -10 -12 -17l-140 -78q-13 -8 -18 -8t-13 8l-32 34q-8 8 -8 15q0 6 5 9l137 116q7 5 12 5q6 0 12 -7z" />
    <glyph glyph-name="Uogonek" unicode="&#x172;" horiz-adv-x="754" 
d="M616 71q-73 -81 -239 -81t-239 81t-73 228v424h197v-432q0 -70 32.5 -104t82.5 -34t82.5 34t32.5 104v432h197v-424q0 -147 -73 -228zM273 -33q19 22 72 41h133q-52 -17 -71 -31.5t-19 -32.5q0 -28 27 -28q15 0 26.5 4t28.5 12q6 3 10 3q8 0 8 -14v-51q0 -11 -10 -17
q-15 -8 -44.5 -14.5t-61.5 -6.5q-55 0 -86.5 21.5t-31.5 63.5q0 28 19 50z" />
    <glyph glyph-name="uogonek" unicode="&#x173;" 
d="M158.5 10q-44.5 20 -73.5 57t-29 86v364h195v-337q0 -23 16 -38t44 -15t44.5 15t16.5 38v337h197l-4 -517h-144l-14 68q-24 -39 -70 -58.5t-90 -19.5t-88.5 20zM355 -35q19 22 72 41h133q-52 -17 -71 -31.5t-19 -32.5q0 -28 27 -28q15 0 26.5 4t28.5 12q6 3 10 3
q8 0 8 -14v-51q0 -11 -10 -17q-15 -8 -44.5 -14.5t-61.5 -6.5q-55 0 -86.5 21.5t-31.5 63.5q0 28 19 50z" />
    <glyph glyph-name="Wcircumflex" unicode="&#x174;" horiz-adv-x="976" 
d="M748 0h-145l-115 393l-115 -393h-143l-218 723h188l112 -388l108 388h136l112 -388l108 388h188zM487 868l-71 -82h-132l138 153h132l134 -153h-139z" />
    <glyph glyph-name="wcircumflex" unicode="&#x175;" horiz-adv-x="811" 
d="M618 0h-139l-77 251l-82 -251h-133l-175 517h169l81 -251l76 251h135l74 -252l80 252h173zM409 662l-71 -82h-132l138 153h132l134 -153h-139z" />
    <glyph glyph-name="Ycircumflex" unicode="&#x176;" horiz-adv-x="710" 
d="M451 301v-301h-195v301l-255 422h210l143 -257l142 257h212zM378 868l-71 -82h-132l138 153h132l134 -153h-139z" />
    <glyph glyph-name="ycircumflex" unicode="&#x177;" horiz-adv-x="603" 
d="M105 -160q-25 5 -37 10t-15 7v123l50 -3q8 -1 23 -1q35 0 53.5 8.5t23 16.5t8.5 19l2 10l-201 487h191l98 -281l102 281h190l-202 -487q-32 -79 -66.5 -121.5t-72 -58t-86.5 -15.5q-36 0 -61 5zM325 662l-71 -82h-132l138 153h132l134 -153h-139z" />
    <glyph glyph-name="Ydieresis" unicode="&#x178;" horiz-adv-x="710" 
d="M451 301v-301h-195v301l-255 422h210l143 -257l142 257h212zM345 790h-166v139h166v-139zM579 790h-166v139h166v-139z" />
    <glyph glyph-name="Zacute" unicode="&#x179;" horiz-adv-x="698" 
d="M41 89l341 474h-309v160h589v-85l-348 -476h342v-162h-615v89zM530 823l-277 -66l-26 77l262 107z" />
    <glyph glyph-name="zacute" unicode="&#x17a;" horiz-adv-x="531" 
d="M21 92l241 306h-219v119h466v-89l-244 -307h245v-121h-489v92zM427 617l-277 -66l-26 77l262 107z" />
    <glyph glyph-name="Zdotaccent" unicode="&#x17b;" horiz-adv-x="698" 
d="M41 89l341 474h-309v160h589v-85l-348 -476h342v-162h-615v89zM475 766h-195v163h195v-163z" />
    <glyph glyph-name="zdotaccent" unicode="&#x17c;" horiz-adv-x="531" 
d="M21 92l241 306h-219v119h466v-89l-244 -307h245v-121h-489v92zM372 560h-195v163h195v-163z" />
    <glyph glyph-name="Zcaron" unicode="&#x17d;" horiz-adv-x="698" 
d="M41 89l341 474h-309v160h589v-85l-348 -476h342v-162h-615v89zM577 930l-134 -154h-133l-137 154h132l71 -82l62 82h139z" />
    <glyph glyph-name="zcaron" unicode="&#x17e;" horiz-adv-x="531" 
d="M21 92l241 306h-219v119h466v-89l-244 -307h245v-121h-489v92zM474 724l-134 -154h-133l-137 154h132l71 -82l62 82h139z" />
    <glyph glyph-name="uni018F" unicode="&#x18f;" horiz-adv-x="770" 
d="M475.5 527q-24.5 37 -89.5 37q-43 0 -75 -25t-67 -82q-3 -6 -10 -6t-17 5l-134 67q-10 4 -10 13q0 5 5 17q45 89 122 134.5t184 45.5t186 -46t121.5 -128t42.5 -188t-48.5 -193.5t-130 -137.5t-174.5 -50q-169 0 -257 102t-88 290q0 19 4 25.5t19 6.5h422q19 0 19 22
q0 54 -24.5 91zM294 278q-12 0 -16.5 -3.5t-4.5 -14.5q0 -50 29 -84t77 -34q57 0 83.5 32.5t35.5 102.5z" />
    <glyph glyph-name="florin" unicode="&#x192;" horiz-adv-x="567" 
d="M491 385h-93l-73 -415q-11 -64 -59.5 -101t-119.5 -37h-142l19 127h61q26 0 37 12t17 49l65 365h-84l23 132h84l12 69q12 64 59.5 100.5t118.5 36.5h139l-21 -126h-60q-17 0 -33 -15t-20 -35l-5 -30h99z" />
    <glyph glyph-name="uni01C4" unicode="&#x1c4;" horiz-adv-x="1433" 
d="M179 723q115 0 146 -1q189 -7 281.5 -102t92.5 -256q0 -108 -41 -190t-125.5 -128t-208.5 -46h-259v723h114zM260 153h70q40 0 78 22t63 70t25 122q0 98 -45 150.5t-121 52.5h-70v-417zM776 89l341 474h-309v160h589v-85l-348 -476h342v-162h-615v89zM1312 930l-134 -154
h-133l-137 154h132l71 -82l62 82h139z" />
    <glyph glyph-name="uni01C5" unicode="&#x1c5;" horiz-adv-x="1266" 
d="M179 723q115 0 146 -1q189 -7 281.5 -102t92.5 -256q0 -108 -41 -190t-125.5 -128t-208.5 -46h-259v723h114zM260 153h70q40 0 78 22t63 70t25 122q0 98 -45 150.5t-121 52.5h-70v-417zM756 92l241 306h-219v119h466v-89l-244 -307h245v-121h-489v92zM1209 724l-134 -154
h-133l-137 154h132l71 -82l62 82h139z" />
    <glyph glyph-name="uni01C6" unicode="&#x1c6;" horiz-adv-x="1150" 
d="M82 63q-58 73 -58 199q0 123 53 194t148 71q44 0 82.5 -16t60.5 -53v285h195v-743h-138l-15 68q-21 -34 -63 -56t-101 -22q-106 0 -164 73zM347.5 154.5q20.5 28.5 20.5 84.5v45q0 106 -77 106q-35 0 -57 -27.5t-22 -98.5q0 -73 22 -105.5t59 -32.5q34 0 54.5 28.5z
M640 92l241 306h-219v119h466v-89l-244 -307h245v-121h-489v92zM1093 724l-134 -154h-133l-137 154h132l71 -82l62 82h139z" />
    <glyph glyph-name="uni01C7" unicode="&#x1c7;" horiz-adv-x="1041" 
d="M260 723v-563h289v-160h-484v723h195zM958.5 93q-17.5 -51 -64 -77t-132.5 -26q-32 0 -70.5 3t-60.5 7v175q45 -5 64 -5q50 0 68 25t18 84v444h195v-494q0 -85 -17.5 -136z" />
    <glyph glyph-name="uni01C8" unicode="&#x1c8;" horiz-adv-x="880" 
d="M260 723v-563h289v-160h-484v723h195zM824 579h-195v164h195v-164zM620 -166q-23 0 -38 4t-21.5 8t-7.5 5l-1 130l30 5q27 6 37 15.5t10 26.5v489h195v-489q0 -194 -204 -194z" />
    <glyph glyph-name="uni01C9" unicode="&#x1c9;" horiz-adv-x="657" 
d="M121 13q-43 24 -54 58.5t-11 84.5v587h191v-561q0 -23 11.5 -37.5t46.5 -19.5l21 -2v-118q-41 -16 -73 -16q-89 0 -132 24zM601 579h-195v164h195v-164zM397 -166q-23 0 -38 4t-21.5 8t-7.5 5l-1 130l30 5q27 6 37 15.5t10 26.5v489h195v-489q0 -194 -204 -194z" />
    <glyph glyph-name="uni01CA" unicode="&#x1ca;" horiz-adv-x="1234" 
d="M738 723v-723h-176l-302 431v-431h-195v723h196l282 -403v403h195zM1151.5 93q-17.5 -51 -64 -77t-132.5 -26q-32 0 -70.5 3t-60.5 7v175q45 -5 64 -5q50 0 68 25t18 84v444h195v-494q0 -85 -17.5 -136z" />
    <glyph glyph-name="uni01CB" unicode="&#x1cb;" horiz-adv-x="1113" 
d="M738 723v-723h-176l-302 431v-431h-195v723h196l282 -403v403h195zM1057 579h-195v164h195v-164zM853 -166q-23 0 -38 4t-21.5 8t-7.5 5l-1 130l30 5q27 6 37 15.5t10 26.5v489h195v-489q0 -194 -204 -194z" />
    <glyph glyph-name="uni01CC" unicode="&#x1cc;" horiz-adv-x="935" 
d="M56 517h193v-62q23 24 37.5 35.5t39 20t62.5 8.5q45 0 87 -22.5t68 -61.5t26 -86v-349h-195v323q0 21 -18.5 34t-41.5 13q-24 0 -43.5 -13t-19.5 -34v-323h-195v517zM879 579h-195v164h195v-164zM675 -166q-23 0 -38 4t-21.5 8t-7.5 5l-1 130l30 5q27 6 37 15.5t10 26.5
v489h195v-489q0 -194 -204 -194z" />
    <glyph glyph-name="uni01EA" unicode="&#x1ea;" horiz-adv-x="772" 
d="M201.5 35.5q-79.5 45.5 -122.5 129t-43 195.5t43.5 196.5t123 130.5t184.5 46q104 0 183 -46t122.5 -130.5t43.5 -196.5q0 -111 -43 -195t-122 -129.5t-184 -45.5q-106 0 -185.5 45.5zM488 196q37 50 37 161q0 115 -37 167.5t-101 52.5t-101.5 -52.5t-37.5 -167.5
q0 -111 37 -161t102 -50q64 0 101 50zM294 -35q19 22 72 41h133q-52 -17 -71 -31.5t-19 -32.5q0 -28 27 -28q15 0 26.5 4t28.5 12q6 3 10 3q8 0 8 -14v-51q0 -11 -10 -17q-15 -8 -44.5 -14.5t-61.5 -6.5q-55 0 -86.5 21.5t-31.5 63.5q0 28 19 50z" />
    <glyph glyph-name="uni01EB" unicode="&#x1eb;" horiz-adv-x="573" 
d="M147.5 23.5q-59.5 33.5 -91.5 94t-32 137.5q0 80 33.5 142t93.5 96t136 34q79 0 138.5 -35t91.5 -97t32 -140q0 -77 -32.5 -137t-92 -94t-138.5 -34t-138.5 33.5zM344.5 170q15.5 39 15.5 92q0 126 -73 126q-74 0 -74 -126q0 -54 16 -92.5t58 -38.5t57.5 39zM180 -35
q19 22 72 41h133q-52 -17 -71 -31.5t-19 -32.5q0 -28 27 -28q15 0 26.5 4t28.5 12q6 3 10 3q8 0 8 -14v-51q0 -11 -10 -17q-15 -8 -44.5 -14.5t-61.5 -6.5q-55 0 -86.5 21.5t-31.5 63.5q0 28 19 50z" />
    <glyph glyph-name="uni01F1" unicode="&#x1f1;" horiz-adv-x="1433" 
d="M179 723q115 0 146 -1q189 -7 281.5 -102t92.5 -256q0 -108 -41 -190t-125.5 -128t-208.5 -46h-259v723h114zM260 153h70q40 0 78 22t63 70t25 122q0 98 -45 150.5t-121 52.5h-70v-417zM776 89l341 474h-309v160h589v-85l-348 -476h342v-162h-615v89z" />
    <glyph glyph-name="uni01F2" unicode="&#x1f2;" horiz-adv-x="1266" 
d="M179 723q115 0 146 -1q189 -7 281.5 -102t92.5 -256q0 -108 -41 -190t-125.5 -128t-208.5 -46h-259v723h114zM260 153h70q40 0 78 22t63 70t25 122q0 98 -45 150.5t-121 52.5h-70v-417zM756 92l241 306h-219v119h466v-89l-244 -307h245v-121h-489v92z" />
    <glyph glyph-name="uni01F3" unicode="&#x1f3;" horiz-adv-x="1150" 
d="M82 63q-58 73 -58 199q0 123 53 194t148 71q44 0 82.5 -16t60.5 -53v285h195v-743h-138l-15 68q-21 -34 -63 -56t-101 -22q-106 0 -164 73zM347.5 154.5q20.5 28.5 20.5 84.5v45q0 106 -77 106q-35 0 -57 -27.5t-22 -98.5q0 -73 22 -105.5t59 -32.5q34 0 54.5 28.5z
M640 92l241 306h-219v119h466v-89l-244 -307h245v-121h-489v92z" />
    <glyph glyph-name="uni01F4" unicode="&#x1f4;" horiz-adv-x="772" 
d="M198.5 36.5q-77.5 46.5 -120 130.5t-42.5 192q0 111 45 196t125.5 131.5t183.5 46.5q93 0 165 -37.5t111 -98t40 -129.5h-203q-10 47 -39.5 75.5t-78.5 28.5q-60 0 -98.5 -49t-38.5 -158q0 -119 42.5 -162.5t102.5 -43.5q39 0 68 20.5t37 47.5l9 26h-126v131l331 -2v-382
h-128v80q-26 -27 -49.5 -45t-62.5 -31.5t-94 -13.5q-102 0 -179.5 46.5zM533 823l-277 -66l-26 77l262 107z" />
    <glyph glyph-name="uni01F5" unicode="&#x1f5;" horiz-adv-x="653" 
d="M153 -155.5q-68 15.5 -102 42.5t-34 61q0 30 21.5 48t37.5 23.5t44 12.5q-3 1 -22.5 10.5t-35 30t-15.5 46.5q0 33 30.5 58t88.5 33q-53 23 -82 66.5t-29 87.5q0 50 35.5 86.5t95.5 55.5t132 19q50 0 84 -9.5t68 -27.5q126 48 170 67l-1 -138l-88 -12q6 -22 6 -40
q0 -45 -29.5 -86t-86.5 -66.5t-135 -25.5q-44 0 -69 3q-14 -3 -14 -9q0 -8 14.5 -11t37.5 -4.5t31 -1.5l103 -6q103 -7 154.5 -49.5t51.5 -105.5q0 -51 -33.5 -90t-100 -61.5t-161.5 -22.5q-99 0 -167 15.5zM356.5 308q17.5 19 17.5 49t-17.5 51.5t-44.5 21.5t-44.5 -21.5
t-17.5 -51.5t17.5 -49t44.5 -19t44.5 19zM414 -61q17 8 17 24t-17 26.5t-47 12.5l-94 6q-36 2 -51.5 -9.5t-15.5 -27.5q0 -24 33 -32t111 -8q47 0 64 8zM472 617l-277 -66l-26 77l262 107z" />
    <glyph glyph-name="Aringacute" unicode="&#x1fa;" horiz-adv-x="802" 
d="M772 3h-232l-48 140h-228l-49 -140h-194l257 723h25q-13 24 -13 52q0 33 19 58t50 35l16 69h100l-30 -73q27 -12 43 -36t16 -55q0 -27 -13 -50h26zM362.5 807.5q-14.5 -13.5 -14.5 -32.5t14.5 -33.5t33.5 -14.5t33 14.5t14 33.5t-13.5 32.5t-33.5 13.5q-19 0 -33.5 -13.5
zM449 309l-72 202l-72 -202h144z" />
    <glyph glyph-name="aringacute" unicode="&#x1fb;" horiz-adv-x="582" 
d="M76 34q-51 44 -51 121q0 86 68.5 131.5t206.5 45.5h40v22q0 47 -53 47q-26 0 -49.5 -10t-34.5 -35h-158q4 87 72 129t175 42q128 0 181 -42t53 -119v-366h-161l-15 60q-16 -31 -55.5 -50.5t-90.5 -19.5q-77 0 -128 44zM319.5 131.5q19.5 18.5 20.5 43.5v61h-31
q-35 0 -68 -14t-33 -47q0 -28 19 -45t45 -17q28 0 47.5 18.5zM445 617l-277 -66l-26 77l262 107zM372.5 592q-33.5 -33 -80.5 -33q-48 0 -81 33.5t-33 82.5q0 46 33.5 78t80.5 32t80.5 -33t33.5 -79q0 -48 -33.5 -81zM323.5 705q-13.5 13 -32.5 13q-20 0 -34 -13.5
t-14 -32.5t14.5 -33.5t33.5 -14.5t32.5 14.5t13.5 33.5q0 20 -13.5 33z" />
    <glyph glyph-name="AEacute" unicode="&#x1fc;" horiz-adv-x="1112" 
d="M1062 0h-572v140h-220l-69 -140h-194l375 723h671l-1 -159h-340v-122h213v-157h-213v-125h350v-160zM490 601l-149 -295h149v295zM851 823l-277 -66l-26 77l262 107z" />
    <glyph glyph-name="aeacute" unicode="&#x1fd;" horiz-adv-x="904" 
d="M574 145.5q28 -26.5 72 -26.5q28 0 54 13.5t60 47.5l118 -48q-54 -81 -111.5 -111.5t-146.5 -30.5q-61 0 -113.5 21t-89.5 58q-6 6 -10 0q-45 -42 -95 -60.5t-118 -18.5q-81 0 -125 40.5t-44 108.5q0 80 71.5 128.5t209.5 55.5l40 2v29q0 56 -57 56q-61 0 -83 -60
l-168 33q21 50 50.5 81t79 47t125.5 16q124 -1 182 -39q66 39 141 39q77 0 137 -36.5t94 -105t34 -162.5h-335q0 -51 28 -77.5zM570 389.5q-22 -22.5 -21 -64.5l143 -1q0 29 -17 58.5t-50 29.5t-55 -22.5zM315 227q-35 -3 -67.5 -23t-32.5 -52q0 -22 15 -34.5t43 -12.5
q29 0 51 14t22 37v73zM605 617l-277 -66l-26 77l262 107z" />
    <glyph glyph-name="Oslashacute" unicode="&#x1fe;" horiz-adv-x="790" 
d="M769 656q0 -7 -7 -13l-74 -73q52 -87 52 -210q0 -111 -43 -195t-122 -129.5t-184 -45.5q-132 0 -224 71l-56 -54q-10 -12 -21 -12q-9 0 -21 12l-38 39q-11 11 -11 20t7 16l66 64q-53 90 -53 214q0 112 43.5 196.5t123 130.5t184.5 46q136 0 226 -76l64 62q9 9 18 9
q7 0 12 -5l52 -54q6 -6 6 -13zM273 321l210 205q-14 30 -36.5 43.5t-55.5 13.5q-64 0 -91.5 -52.5t-27.5 -173.5q0 -24 1 -36zM507 394l-208 -204q28 -48 92 -48q43 0 68.5 21.5t37 68t11.5 125.5q0 24 -1 37zM543 823l-277 -66l-26 77l262 107z" />
    <glyph glyph-name="oslashacute" unicode="&#x1ff;" horiz-adv-x="612" 
d="M524 408q39 -67 39 -153q0 -77 -32.5 -137t-92 -94t-138.5 -34q-99 0 -168 53l-56 -52l-58 62l58 54q-38 62 -38 148q0 80 33.5 142t93.5 96t136 34q100 0 168 -55l57 53l57 -62zM227 247l124 116q-18 25 -50 25q-74 0 -74 -126v-15zM374 268l-122 -113q18 -24 49 -24
q42 0 57.5 39t15.5 92v6zM454 617l-277 -66l-26 77l262 107z" />
    <glyph glyph-name="uni0200" unicode="&#x200;" horiz-adv-x="724" 
d="M263 723h199l256 -723h-192l-48 140h-228l-49 -140h-194zM434 306l-71 231l-72 -231h143zM363 807l-57 -61l-183 103l80 94zM576 807l-56 -61l-184 103l80 94z" />
    <glyph glyph-name="uni0201" unicode="&#x201;" horiz-adv-x="582" 
d="M76 34q-51 44 -51 121q0 86 68.5 131.5t206.5 45.5h40v22q0 47 -53 47q-26 0 -49.5 -10t-34.5 -35h-158q4 87 72 129t175 42q128 0 181 -42t53 -119v-366h-161l-15 60q-16 -31 -55.5 -50.5t-90.5 -19.5q-77 0 -128 44zM319.5 131.5q19.5 18.5 20.5 43.5v61h-31
q-35 0 -68 -14t-33 -47q0 -28 19 -45t45 -17q28 0 47.5 18.5zM278 601l-57 -61l-183 103l80 94zM491 601l-56 -61l-184 103l80 94z" />
    <glyph glyph-name="uni0202" unicode="&#x202;" horiz-adv-x="724" 
d="M263 723h199l256 -723h-192l-48 140h-228l-49 -140h-194zM434 306l-71 231l-72 -231h143zM482 818q-13 26 -39 42t-51 16q-27 0 -53 -16t-40 -42h-105q21 72 75 108.5t123 36.5t122 -37t74 -108h-106z" />
    <glyph glyph-name="uni0203" unicode="&#x203;" horiz-adv-x="582" 
d="M76 34q-51 44 -51 121q0 86 68.5 131.5t206.5 45.5h40v22q0 47 -53 47q-26 0 -49.5 -10t-34.5 -35h-158q4 87 72 129t175 42q128 0 181 -42t53 -119v-366h-161l-15 60q-16 -31 -55.5 -50.5t-90.5 -19.5q-77 0 -128 44zM319.5 131.5q19.5 18.5 20.5 43.5v61h-31
q-35 0 -68 -14t-33 -47q0 -28 19 -45t45 -17q28 0 47.5 18.5zM397 612q-13 26 -39 42t-51 16q-27 0 -53 -16t-40 -42h-105q21 72 75 108.5t123 36.5t122 -37t74 -108h-106z" />
    <glyph glyph-name="uni0204" unicode="&#x204;" horiz-adv-x="650" 
d="M65 723h534l-1 -161h-337v-120h282v-157h-283v-123h340v-162h-535v723zM318 807l-57 -61l-183 103l80 94zM531 807l-56 -61l-184 103l80 94z" />
    <glyph glyph-name="uni0205" unicode="&#x205;" horiz-adv-x="566" 
d="M235 148q21 -22 55 -22q30 0 50 11t31 39h172q-8 -55 -44.5 -97.5t-91 -65.5t-112.5 -23q-80 0 -141.5 32.5t-95.5 92t-34 137.5q0 75 31.5 138t91.5 100t140 37q82 0 139 -34.5t86 -95t29 -138.5v-45h-326q-1 -44 20 -66zM362 323q0 31 -20 52t-55 21q-30 0 -51.5 -22
t-21.5 -51h148zM274 601l-57 -61l-183 103l80 94zM487 601l-56 -61l-184 103l80 94z" />
    <glyph glyph-name="uni0206" unicode="&#x206;" horiz-adv-x="650" 
d="M65 723h534l-1 -161h-337v-120h282v-157h-283v-123h340v-162h-535v723zM437 818q-13 26 -39 42t-51 16q-27 0 -53 -16t-40 -42h-105q21 72 75 108.5t123 36.5t122 -37t74 -108h-106z" />
    <glyph glyph-name="uni0207" unicode="&#x207;" horiz-adv-x="566" 
d="M235 148q21 -22 55 -22q30 0 50 11t31 39h172q-8 -55 -44.5 -97.5t-91 -65.5t-112.5 -23q-80 0 -141.5 32.5t-95.5 92t-34 137.5q0 75 31.5 138t91.5 100t140 37q82 0 139 -34.5t86 -95t29 -138.5v-45h-326q-1 -44 20 -66zM362 323q0 31 -20 52t-55 21q-30 0 -51.5 -22
t-21.5 -51h148zM393 612q-13 26 -39 42t-51 16q-27 0 -53 -16t-40 -42h-105q21 72 75 108.5t123 36.5t122 -37t74 -108h-106z" />
    <glyph glyph-name="uni0208" unicode="&#x208;" horiz-adv-x="325" 
d="M260 723v-723h-195v723h195zM149 807l-57 -61l-183 103l80 94zM362 807l-56 -61l-184 103l80 94z" />
    <glyph glyph-name="uni0209" unicode="&#x209;" horiz-adv-x="307" 
d="M251 0h-195v517h195v-517zM143 601l-57 -61l-183 103l80 94zM356 601l-56 -61l-184 103l80 94z" />
    <glyph glyph-name="uni020A" unicode="&#x20a;" horiz-adv-x="325" 
d="M260 723v-723h-195v723h195zM268 818q-13 26 -39 42t-51 16q-27 0 -53 -16t-40 -42h-105q21 72 75 108.5t123 36.5t122 -37t74 -108h-106z" />
    <glyph glyph-name="uni020B" unicode="&#x20b;" horiz-adv-x="307" 
d="M251 0h-195v517h195v-517zM262 612q-13 26 -39 42t-51 16q-27 0 -53 -16t-40 -42h-105q21 72 75 108.5t123 36.5t122 -37t74 -108h-106z" />
    <glyph glyph-name="uni020C" unicode="&#x20c;" horiz-adv-x="772" 
d="M201.5 35.5q-79.5 45.5 -122.5 129t-43 195.5t43.5 196.5t123 130.5t184.5 46q104 0 183 -46t122.5 -130.5t43.5 -196.5q0 -111 -43 -195t-122 -129.5t-184 -45.5q-106 0 -185.5 45.5zM488 196q37 50 37 161q0 115 -37 167.5t-101 52.5t-101.5 -52.5t-37.5 -167.5
q0 -111 37 -161t102 -50q64 0 101 50zM372 807l-57 -61l-183 103l80 94zM585 807l-56 -61l-184 103l80 94z" />
    <glyph glyph-name="uni020D" unicode="&#x20d;" horiz-adv-x="573" 
d="M147.5 23.5q-59.5 33.5 -91.5 94t-32 137.5q0 80 33.5 142t93.5 96t136 34q79 0 138.5 -35t91.5 -97t32 -140q0 -77 -32.5 -137t-92 -94t-138.5 -34t-138.5 33.5zM344.5 170q15.5 39 15.5 92q0 126 -73 126q-74 0 -74 -126q0 -54 16 -92.5t58 -38.5t57.5 39zM273 601
l-57 -61l-183 103l80 94zM486 601l-56 -61l-184 103l80 94z" />
    <glyph glyph-name="uni020E" unicode="&#x20e;" horiz-adv-x="772" 
d="M201.5 35.5q-79.5 45.5 -122.5 129t-43 195.5t43.5 196.5t123 130.5t184.5 46q104 0 183 -46t122.5 -130.5t43.5 -196.5q0 -111 -43 -195t-122 -129.5t-184 -45.5q-106 0 -185.5 45.5zM488 196q37 50 37 161q0 115 -37 167.5t-101 52.5t-101.5 -52.5t-37.5 -167.5
q0 -111 37 -161t102 -50q64 0 101 50zM491 818q-13 26 -39 42t-51 16q-27 0 -53 -16t-40 -42h-105q21 72 75 108.5t123 36.5t122 -37t74 -108h-106z" />
    <glyph glyph-name="uni020F" unicode="&#x20f;" horiz-adv-x="573" 
d="M147.5 23.5q-59.5 33.5 -91.5 94t-32 137.5q0 80 33.5 142t93.5 96t136 34q79 0 138.5 -35t91.5 -97t32 -140q0 -77 -32.5 -137t-92 -94t-138.5 -34t-138.5 33.5zM344.5 170q15.5 39 15.5 92q0 126 -73 126q-74 0 -74 -126q0 -54 16 -92.5t58 -38.5t57.5 39zM392 612
q-13 26 -39 42t-51 16q-27 0 -53 -16t-40 -42h-105q21 72 75 108.5t123 36.5t122 -37t74 -108h-106z" />
    <glyph glyph-name="uni0210" unicode="&#x210;" horiz-adv-x="709" 
d="M467 0l-105 249h-102v-249h-195v723h328q134 0 197.5 -64t63.5 -169q0 -78 -30 -127t-85 -83l127 -280h-199zM432.5 423q25.5 29 25.5 65q0 37 -26.5 64t-60.5 27h-111v-185h111q36 0 61.5 29zM333 807l-57 -61l-183 103l80 94zM546 807l-56 -61l-184 103l80 94z" />
    <glyph glyph-name="uni0211" unicode="&#x211;" horiz-adv-x="449" 
d="M56 517h188v-143q20 68 63 110.5t111 42.5l1 -183q-16 2 -44 2q-72 0 -98 -27t-26 -71v-248h-195v517zM228 601l-57 -61l-183 103l80 94zM441 601l-56 -61l-184 103l80 94z" />
    <glyph glyph-name="uni0212" unicode="&#x212;" horiz-adv-x="709" 
d="M467 0l-105 249h-102v-249h-195v723h328q134 0 197.5 -64t63.5 -169q0 -78 -30 -127t-85 -83l127 -280h-199zM432.5 423q25.5 29 25.5 65q0 37 -26.5 64t-60.5 27h-111v-185h111q36 0 61.5 29zM452 818q-13 26 -39 42t-51 16q-27 0 -53 -16t-40 -42h-105q21 72 75 108.5
t123 36.5t122 -37t74 -108h-106z" />
    <glyph glyph-name="uni0213" unicode="&#x213;" horiz-adv-x="449" 
d="M56 517h188v-143q20 68 63 110.5t111 42.5l1 -183q-16 2 -44 2q-72 0 -98 -27t-26 -71v-248h-195v517zM347 612q-13 26 -39 42t-51 16q-27 0 -53 -16t-40 -42h-105q21 72 75 108.5t123 36.5t122 -37t74 -108h-106z" />
    <glyph glyph-name="uni0214" unicode="&#x214;" horiz-adv-x="754" 
d="M616 71q-73 -81 -239 -81t-239 81t-73 228v424h197v-432q0 -70 32.5 -104t82.5 -34t82.5 34t32.5 104v432h197v-424q0 -147 -73 -228zM345 807l-57 -61l-183 103l80 94zM558 807l-56 -61l-184 103l80 94z" />
    <glyph glyph-name="uni0215" unicode="&#x215;" 
d="M158.5 10q-44.5 20 -73.5 57t-29 86v364h195v-337q0 -23 16 -38t44 -15t44.5 15t16.5 38v337h197l-4 -517h-144l-14 68q-24 -39 -70 -58.5t-90 -19.5t-88.5 20zM298 601l-57 -61l-183 103l80 94zM511 601l-56 -61l-184 103l80 94z" />
    <glyph glyph-name="uni0216" unicode="&#x216;" horiz-adv-x="754" 
d="M616 71q-73 -81 -239 -81t-239 81t-73 228v424h197v-432q0 -70 32.5 -104t82.5 -34t82.5 34t32.5 104v432h197v-424q0 -147 -73 -228zM464 818q-13 26 -39 42t-51 16q-27 0 -53 -16t-40 -42h-105q21 72 75 108.5t123 36.5t122 -37t74 -108h-106z" />
    <glyph glyph-name="uni0217" unicode="&#x217;" 
d="M158.5 10q-44.5 20 -73.5 57t-29 86v364h195v-337q0 -23 16 -38t44 -15t44.5 15t16.5 38v337h197l-4 -517h-144l-14 68q-24 -39 -70 -58.5t-90 -19.5t-88.5 20zM417 612q-13 26 -39 42t-51 16q-27 0 -53 -16t-40 -42h-105q21 72 75 108.5t123 36.5t122 -37t74 -108h-106z
" />
    <glyph glyph-name="Scommaaccent" unicode="&#x218;" horiz-adv-x="716" 
d="M210.5 15q-72.5 25 -120.5 76.5t-54 128.5h202q8 -38 40.5 -59.5t83.5 -21.5q52 0 85.5 15.5t33.5 50.5q0 29 -30 41.5t-91 22.5l-113 19q-88 14 -139 69.5t-51 146.5q0 70 40.5 121.5t109.5 79t153 27.5q86 0 155.5 -31.5t111 -84t48.5 -112.5h-197q-4 41 -32.5 59.5
t-81.5 18.5q-52 0 -75.5 -17t-23.5 -40q0 -26 17 -40.5t62 -22.5l113 -19q138 -24 180.5 -90.5t42.5 -147.5q0 -61 -41.5 -110t-114 -77t-161.5 -28q-80 0 -152.5 25zM304 -233q-4 7 0 13l33 44q5 8 5 14t-4 10t-10 4h-9q-13 0 -17.5 4.5t-4.5 16.5v60q0 19 17 19h92
q16 0 16 -15v-85q0 -4 -2 -8t-2 -5l-52 -65q-6 -8 -12.5 -11t-19.5 -3h-18q-8 0 -12 7z" />
    <glyph glyph-name="scommaaccent" unicode="&#x219;" horiz-adv-x="527" 
d="M107 31.5q-70 41.5 -85 132.5h160q10 -28 33 -36.5t58 -8.5q34 0 51.5 8.5t17.5 21.5q0 15 -15 22.5t-47 13.5l-77 12q-166 30 -166 160q0 48 28 86.5t81 61t126 22.5q70 0 123 -21t81 -59.5t26 -90.5h-158q-6 25 -26.5 36.5t-50.5 11.5q-62 0 -62 -33q0 -13 18 -21.5
t60 -15.5l66 -12q88 -21 122 -68.5t34 -93.5q0 -81 -66 -125.5t-169 -44.5q-93 0 -163 41.5zM215 -233q-4 7 0 13l33 44q5 8 5 14t-4 10t-10 4h-9q-13 0 -17.5 4.5t-4.5 16.5v60q0 19 17 19h92q16 0 16 -15v-85q0 -4 -2 -8t-2 -5l-52 -65q-6 -8 -12.5 -11t-19.5 -3h-18
q-8 0 -12 7z" />
    <glyph glyph-name="uni021A" unicode="&#x21a;" horiz-adv-x="631" 
d="M12 723h607v-171h-207v-552h-195v552h-205v171zM268 -233q-4 7 0 13l33 44q5 8 5 14t-4 10t-10 4h-9q-13 0 -17.5 4.5t-4.5 16.5v60q0 19 17 19h92q16 0 16 -15v-85q0 -4 -2 -8t-2 -5l-52 -65q-6 -8 -12.5 -11t-19.5 -3h-18q-8 0 -12 7z" />
    <glyph glyph-name="uni021B" unicode="&#x21b;" horiz-adv-x="451" 
d="M298 385l1 -234q0 -16 8 -22t23 -6h81v-115q-32 -16 -103 -16q-114 0 -159 40t-45 110v243h-84v132h91l29 161h158v-160h113v-133h-113zM210 -233q-4 7 0 13l33 44q5 8 5 14t-4 10t-10 4h-9q-13 0 -17.5 4.5t-4.5 16.5v60q0 19 17 19h92q16 0 16 -15v-85q0 -4 -2 -8
t-2 -5l-52 -65q-6 -8 -12.5 -11t-19.5 -3h-18q-8 0 -12 7z" />
    <glyph glyph-name="uni0237" unicode="&#x237;" horiz-adv-x="299" 
d="M38 -166q-23 0 -37.5 4t-21 8t-7.5 5l-1 130l29 5q27 6 37.5 16t10.5 26v489h195v-489q0 -194 -205 -194z" />
    <glyph glyph-name="uni0259" unicode="&#x259;" horiz-adv-x="566" 
d="M331 369q-21 22 -55 22q-30 0 -50 -11t-31 -39h-172q8 55 44.5 97.5t91 65.5t112.5 23q80 0 141.5 -32.5t95.5 -92t34 -137.5q0 -75 -31.5 -138t-91.5 -100t-140 -37q-82 0 -139 34.5t-86 95t-29 138.5v45h326q1 44 -20 66zM204 194q0 -31 20 -52t55 -21q30 0 51.5 22
t21.5 51h-148z" />
    <glyph glyph-name="uni02BC" unicode="&#x2bc;" horiz-adv-x="213" 
d="M47 439q-3 5 -1 10l30 105q2 5 2 11q0 8 -9 9l-11 2q-10 1 -14 4.5t-4 12.5v115q0 15 14 15h96q13 0 13 -12v-135q0 -4 -3 -10l-37 -117q-3 -8 -9.5 -11.5t-19.5 -3.5h-38q-6 0 -9 5z" />
    <glyph glyph-name="circumflex" unicode="&#x2c6;" horiz-adv-x="433" 
d="M211 662l-71 -82h-132l138 153h132l134 -153h-139z" />
    <glyph glyph-name="caron" unicode="&#x2c7;" horiz-adv-x="433" 
d="M412 724l-134 -154h-133l-137 154h132l71 -82l62 82h139z" />
    <glyph glyph-name="breve" unicode="&#x2d8;" horiz-adv-x="436" 
d="M336 615q-53 -37 -122 -37t-123 36.5t-75 108.5h105q14 -26 40 -42t53 -16q25 0 51 16t39 42h106q-21 -71 -74 -108z" />
    <glyph glyph-name="dotaccent" unicode="&#x2d9;" horiz-adv-x="238" 
d="M212 560h-195v163h195v-163z" />
    <glyph glyph-name="ring" unicode="&#x2da;" horiz-adv-x="271" 
d="M211.5 581q-33.5 -33 -80.5 -33q-48 0 -81 33.5t-33 82.5q0 46 33.5 78t80.5 32t80.5 -33t33.5 -79q0 -48 -33.5 -81zM162.5 694q-13.5 13 -32.5 13q-20 0 -34 -13.5t-14 -32.5t14.5 -33.5t33.5 -14.5t32.5 14.5t13.5 33.5q0 20 -13.5 33z" />
    <glyph glyph-name="ogonek" unicode="&#x2db;" horiz-adv-x="277" 
d="M36 -35q19 22 72 41h133q-52 -17 -71 -31.5t-19 -32.5q0 -28 27 -28q15 0 26.5 4t28.5 12q6 3 10 3q8 0 8 -14v-51q0 -11 -10 -17q-15 -8 -44.5 -14.5t-61.5 -6.5q-55 0 -86.5 21.5t-31.5 63.5q0 28 19 50z" />
    <glyph glyph-name="tilde" unicode="&#x2dc;" horiz-adv-x="472" 
d="M366.5 602.5q-26.5 -8.5 -54.5 -8.5q-19 0 -40 4.5t-40 10.5q-47 15 -78 15q-20 0 -35 -5t-34 -19q-8 -5 -12 -5q-7 0 -11 12l-16 53q-1 2 -2 5t-1 7q0 7 11 18q20 19 41.5 29.5t53.5 10.5q19 0 37.5 -4t34.5 -8.5t21 -5.5q47 -15 69 -15q37 0 75 27q5 4 12 4q9 0 12 -12
l13 -64q1 -3 1 -7q0 -11 -14 -22q-17 -12 -43.5 -20.5z" />
    <glyph glyph-name="hungarumlaut" unicode="&#x2dd;" horiz-adv-x="479" 
d="M230 666q9 -11 9 -19q0 -10 -13 -17l-139 -78q-13 -8 -19 -8t-12 8l-33 34q-7 7 -7 15q0 6 4 9l138 116q7 5 11 5q8 0 12 -7zM444 666q8 -10 8 -19q0 -10 -12 -17l-140 -78q-13 -8 -18 -8t-13 8l-32 34q-8 8 -8 15q0 6 5 9l137 116q7 5 12 5q6 0 12 -7z" />
    <glyph glyph-name="gravecomb" unicode="&#x300;" horiz-adv-x="0" 
d="M-22 628l-26 -77l-277 66l42 118z" />
    <glyph glyph-name="acutecomb" unicode="&#x301;" horiz-adv-x="0" 
d="M-19 617l-277 -66l-26 77l262 107z" />
    <glyph glyph-name="uni0302" unicode="&#x302;" horiz-adv-x="0" 
d="M-222 662l-71 -82h-132l138 153h132l134 -153h-139z" />
    <glyph glyph-name="tildecomb" unicode="&#x303;" horiz-adv-x="0" 
d="M-105.5 602.5q-26.5 -8.5 -54.5 -8.5q-19 0 -40 4.5t-40 10.5q-47 15 -78 15q-20 0 -35 -5t-34 -19q-8 -5 -12 -5q-7 0 -11 12l-16 53q-1 2 -2 5t-1 7q0 7 11 18q20 19 41.5 29.5t53.5 10.5q19 0 37.5 -4t34.5 -8.5t21 -5.5q47 -15 69 -15q37 0 75 27q5 4 12 4
q9 0 12 -12l13 -64q1 -3 1 -7q0 -11 -14 -22q-17 -12 -43.5 -20.5z" />
    <glyph glyph-name="uni0304" unicode="&#x304;" horiz-adv-x="0" 
d="M-27 604h-400v119h400v-119z" />
    <glyph glyph-name="uni0306" unicode="&#x306;" horiz-adv-x="0" 
d="M-100 615q-53 -37 -122 -37t-123 36.5t-75 108.5h105q14 -26 40 -42t53 -16q25 0 51 16t39 42h106q-21 -71 -74 -108z" />
    <glyph glyph-name="uni0307" unicode="&#x307;" horiz-adv-x="0" 
d="M-26 560h-195v163h195v-163z" />
    <glyph glyph-name="uni0308" unicode="&#x308;" horiz-adv-x="0" 
d="M-261 584h-166v139h166v-139zM-27 584h-166v139h166v-139z" />
    <glyph glyph-name="uni030A" unicode="&#x30a;" horiz-adv-x="0" 
d="M-59.5 581q-33.5 -33 -80.5 -33q-48 0 -81 33.5t-33 82.5q0 46 33.5 78t80.5 32t80.5 -33t33.5 -79q0 -48 -33.5 -81zM-108.5 694q-13.5 13 -32.5 13q-20 0 -34 -13.5t-14 -32.5t14.5 -33.5t33.5 -14.5t32.5 14.5t13.5 33.5q0 20 -13.5 33z" />
    <glyph glyph-name="uni030B" unicode="&#x30b;" horiz-adv-x="0" 
d="M-249 666q9 -11 9 -19q0 -10 -13 -17l-139 -78q-13 -8 -19 -8t-12 8l-33 34q-7 7 -7 15q0 6 4 9l138 116q7 5 11 5q8 0 12 -7zM-35 666q8 -10 8 -19q0 -10 -12 -17l-140 -78q-13 -8 -18 -8t-13 8l-32 34q-8 8 -8 15q0 6 5 9l137 116q7 5 12 5q6 0 12 -7z" />
    <glyph glyph-name="uni030C" unicode="&#x30c;" horiz-adv-x="0" 
d="M-21 724l-134 -154h-133l-137 154h132l71 -82l62 82h139z" />
    <glyph glyph-name="uni030F" unicode="&#x30f;" horiz-adv-x="0" 
d="M-234 601l-57 -61l-183 103l80 94zM-21 601l-56 -61l-184 103l80 94z" />
    <glyph glyph-name="uni0311" unicode="&#x311;" horiz-adv-x="0" 
d="M-114 612q-13 26 -39 42t-51 16q-27 0 -53 -16t-40 -42h-105q21 72 75 108.5t123 36.5t122 -37t74 -108h-106z" />
    <glyph glyph-name="dotbelowcomb" unicode="&#x323;" horiz-adv-x="0" 
d="M-26 -139q0 -22 -24 -22h-102q-11 0 -14.5 4.5t-3.5 14.5v86q0 18 12 18h119q13 0 13 -16v-85z" />
    <glyph glyph-name="uni0326" unicode="&#x326;" horiz-adv-x="0" 
d="M-145 -233q-4 7 0 13l33 44q5 8 5 14t-4 10t-10 4h-9q-13 0 -17.5 4.5t-4.5 16.5v60q0 19 17 19h92q16 0 16 -15v-85q0 -4 -2 -8t-2 -5l-52 -65q-6 -8 -12.5 -11t-19.5 -3h-18q-8 0 -12 7z" />
    <glyph glyph-name="uni0327" unicode="&#x327;" horiz-adv-x="0" 
d="M-64 -195.5q-38 -23.5 -92 -23.5q-84 0 -133 29l24 59q48 -26 85 -26q20 0 33 7t13 19q0 19 -20.5 28.5t-68.5 9.5q-8 0 -10.5 2t0.5 10l37 86h79l-21 -57q56 0 84 -25t28 -57q0 -38 -38 -61.5z" />
    <glyph glyph-name="uni0328" unicode="&#x328;" horiz-adv-x="0" 
d="M-241 -35q19 22 72 41h133q-52 -17 -71 -31.5t-19 -32.5q0 -28 27 -28q15 0 26.5 4t28.5 12q6 3 10 3q8 0 8 -14v-51q0 -11 -10 -17q-15 -8 -44.5 -14.5t-61.5 -6.5q-55 0 -86.5 21.5t-31.5 63.5q0 28 19 50z" />
    <glyph glyph-name="uni0394" unicode="&#x394;" horiz-adv-x="706" 
d="M21 115l218 608h219l217 -609v-114h-654v115zM457 155l-113 372l-114 -372h227z" />
    <glyph glyph-name="uni03A9" unicode="&#x3a9;" horiz-adv-x="771" 
d="M292 534.5q-38 -48.5 -38 -154.5q0 -80 22.5 -135.5t59.5 -88.5q12 -11 17.5 -20.5t5.5 -20.5v-115h-313v160h118q-54 44 -89 107t-35 141q0 82 41.5 156.5t120 121.5t182.5 47q107 0 183.5 -49t115.5 -124t39 -151q0 -70 -31.5 -131.5t-81.5 -104.5q-3 -4 -3 -7
q0 -6 6 -6h104v-160h-312v137q44 33 73.5 95t29.5 153q0 101 -34.5 149.5t-88.5 48.5t-92 -48.5z" />
    <glyph glyph-name="uni03BC" unicode="&#x3bc;" 
d="M339 138q19 11 33 29v350h197l-4 -517h-190v80q-47 -60 -107 -80q-10 -4 -13.5 -8t-3.5 -13v-140h-195v678h195v-342q0 -23 13 -35.5t35 -12.5q21 0 40 11z" />
    <glyph glyph-name="pi" unicode="&#x3c0;" horiz-adv-x="683" 
d="M578 385v-385h-186v385h-108q0 -77 -18 -196t-41 -189h-183q22 85 38.5 196t16.5 179q0 10 -9 10h-71v132h639v-132h-78z" />
    <glyph glyph-name="uni1E0C" unicode="&#x1e0c;" horiz-adv-x="775" 
d="M179 723q115 0 146 -1q189 -7 281.5 -102t92.5 -256q0 -108 -41 -190t-125.5 -128t-208.5 -46h-259v723h114zM260 153h70q40 0 78 22t63 70t25 122q0 98 -45 150.5t-121 52.5h-70v-417zM448 -139q0 -22 -24 -22h-102q-11 0 -14.5 4.5t-3.5 14.5v86q0 18 12 18h119
q13 0 13 -16v-85z" />
    <glyph glyph-name="uni1E0D" unicode="&#x1e0d;" horiz-adv-x="619" 
d="M82 63q-58 73 -58 199q0 123 53 194t148 71q44 0 82.5 -16t60.5 -53v285h195v-743h-138l-15 68q-21 -34 -63 -56t-101 -22q-106 0 -164 73zM347.5 154.5q20.5 28.5 20.5 84.5v45q0 106 -77 106q-35 0 -57 -27.5t-22 -98.5q0 -73 22 -105.5t59 -32.5q34 0 54.5 28.5z
M369 -139q0 -22 -24 -22h-102q-11 0 -14.5 4.5t-3.5 14.5v86q0 18 12 18h119q13 0 13 -16v-85z" />
    <glyph glyph-name="uni1E24" unicode="&#x1e24;" horiz-adv-x="739" 
d="M260 290v-290h-195v723h195v-274h219v274h195v-723h-195v290h-219zM437 -139q0 -22 -24 -22h-102q-11 0 -14.5 4.5t-3.5 14.5v86q0 18 12 18h119q13 0 13 -16v-85z" />
    <glyph glyph-name="uni1E25" unicode="&#x1e25;" horiz-adv-x="624" 
d="M56 743h192v-290q22 23 36.5 35t39.5 20.5t63 8.5q49 0 90.5 -21.5t66 -60.5t24.5 -89v-346h-195v323q0 21 -19 34t-42 13t-42 -14t-19 -35v-321h-195v743zM385 -139q0 -22 -24 -22h-102q-11 0 -14.5 4.5t-3.5 14.5v86q0 18 12 18h119q13 0 13 -16v-85z" />
    <glyph glyph-name="uni1E44" unicode="&#x1e44;" horiz-adv-x="803" 
d="M738 723v-723h-176l-302 431v-431h-195v723h196l282 -403v403h195zM499 766h-195v163h195v-163z" />
    <glyph glyph-name="uni1E45" unicode="&#x1e45;" 
d="M56 517h193v-62q23 24 37.5 35.5t39 20t62.5 8.5q45 0 87 -22.5t68 -61.5t26 -86v-349h-195v323q0 21 -18.5 34t-41.5 13q-24 0 -43.5 -13t-19.5 -34v-323h-195v517zM410 560h-195v163h195v-163z" />
    <glyph glyph-name="uni1E5A" unicode="&#x1e5a;" horiz-adv-x="709" 
d="M467 0l-105 249h-102v-249h-195v723h328q134 0 197.5 -64t63.5 -169q0 -78 -30 -127t-85 -83l127 -280h-199zM432.5 423q25.5 29 25.5 65q0 37 -26.5 64t-60.5 27h-111v-185h111q36 0 61.5 29zM429 -139q0 -22 -24 -22h-102q-11 0 -14.5 4.5t-3.5 14.5v86q0 18 12 18h119
q13 0 13 -16v-85z" />
    <glyph glyph-name="uni1E5B" unicode="&#x1e5b;" horiz-adv-x="449" 
d="M56 517h188v-143q20 68 63 110.5t111 42.5l1 -183q-16 2 -44 2q-72 0 -98 -27t-26 -71v-248h-195v517zM237 -139q0 -22 -24 -22h-102q-11 0 -14.5 4.5t-3.5 14.5v86q0 18 12 18h119q13 0 13 -16v-85z" />
    <glyph glyph-name="uni1E62" unicode="&#x1e62;" horiz-adv-x="716" 
d="M210.5 15q-72.5 25 -120.5 76.5t-54 128.5h202q8 -38 40.5 -59.5t83.5 -21.5q52 0 85.5 15.5t33.5 50.5q0 29 -30 41.5t-91 22.5l-113 19q-88 14 -139 69.5t-51 146.5q0 70 40.5 121.5t109.5 79t153 27.5q86 0 155.5 -31.5t111 -84t48.5 -112.5h-197q-4 41 -32.5 59.5
t-81.5 18.5q-52 0 -75.5 -17t-23.5 -40q0 -26 17 -40.5t62 -22.5l113 -19q138 -24 180.5 -90.5t42.5 -147.5q0 -61 -41.5 -110t-114 -77t-161.5 -28q-80 0 -152.5 25zM432 -139q0 -22 -24 -22h-102q-11 0 -14.5 4.5t-3.5 14.5v86q0 18 12 18h119q13 0 13 -16v-85z" />
    <glyph glyph-name="uni1E63" unicode="&#x1e63;" horiz-adv-x="527" 
d="M107 31.5q-70 41.5 -85 132.5h160q10 -28 33 -36.5t58 -8.5q34 0 51.5 8.5t17.5 21.5q0 15 -15 22.5t-47 13.5l-77 12q-166 30 -166 160q0 48 28 86.5t81 61t126 22.5q70 0 123 -21t81 -59.5t26 -90.5h-158q-6 25 -26.5 36.5t-50.5 11.5q-62 0 -62 -33q0 -13 18 -21.5
t60 -15.5l66 -12q88 -21 122 -68.5t34 -93.5q0 -81 -66 -125.5t-169 -44.5q-93 0 -163 41.5zM343 -139q0 -22 -24 -22h-102q-11 0 -14.5 4.5t-3.5 14.5v86q0 18 12 18h119q13 0 13 -16v-85z" />
    <glyph glyph-name="uni1E6C" unicode="&#x1e6c;" horiz-adv-x="631" 
d="M12 723h607v-171h-207v-552h-195v552h-205v171zM396 -139q0 -22 -24 -22h-102q-11 0 -14.5 4.5t-3.5 14.5v86q0 18 12 18h119q13 0 13 -16v-85z" />
    <glyph glyph-name="uni1E6D" unicode="&#x1e6d;" horiz-adv-x="451" 
d="M298 385l1 -234q0 -16 8 -22t23 -6h81v-115q-32 -16 -103 -16q-114 0 -159 40t-45 110v243h-84v132h91l29 161h158v-160h113v-133h-113zM338 -139q0 -22 -24 -22h-102q-11 0 -14.5 4.5t-3.5 14.5v86q0 18 12 18h119q13 0 13 -16v-85z" />
    <glyph glyph-name="Wgrave" unicode="&#x1e80;" horiz-adv-x="976" 
d="M748 0h-145l-115 393l-115 -393h-143l-218 723h188l112 -388l108 388h136l112 -388l108 388h188zM638 834l-26 -77l-277 66l42 118z" />
    <glyph glyph-name="wgrave" unicode="&#x1e81;" horiz-adv-x="811" 
d="M618 0h-139l-77 251l-82 -251h-133l-175 517h169l81 -251l76 251h135l74 -252l80 252h173zM560 628l-26 -77l-277 66l42 118z" />
    <glyph glyph-name="Wacute" unicode="&#x1e82;" horiz-adv-x="976" 
d="M748 0h-145l-115 393l-115 -393h-143l-218 723h188l112 -388l108 388h136l112 -388l108 388h188zM641 823l-277 -66l-26 77l262 107z" />
    <glyph glyph-name="wacute" unicode="&#x1e83;" horiz-adv-x="811" 
d="M618 0h-139l-77 251l-82 -251h-133l-175 517h169l81 -251l76 251h135l74 -252l80 252h173zM563 617l-277 -66l-26 77l262 107z" />
    <glyph glyph-name="Wdieresis" unicode="&#x1e84;" horiz-adv-x="976" 
d="M748 0h-145l-115 393l-115 -393h-143l-218 723h188l112 -388l108 388h136l112 -388l108 388h188zM454 790h-166v139h166v-139zM688 790h-166v139h166v-139z" />
    <glyph glyph-name="wdieresis" unicode="&#x1e85;" horiz-adv-x="811" 
d="M618 0h-139l-77 251l-82 -251h-133l-175 517h169l81 -251l76 251h135l74 -252l80 252h173zM376 584h-166v139h166v-139zM610 584h-166v139h166v-139z" />
    <glyph glyph-name="uni1E92" unicode="&#x1e92;" horiz-adv-x="698" 
d="M41 89l341 474h-309v160h589v-85l-348 -476h342v-162h-615v89zM426 -139q0 -22 -24 -22h-102q-11 0 -14.5 4.5t-3.5 14.5v86q0 18 12 18h119q13 0 13 -16v-85z" />
    <glyph glyph-name="uni1E93" unicode="&#x1e93;" horiz-adv-x="554" 
d="M21 92l241 306h-219v119h466v-89l-244 -307h245v-121h-489v92zM361 -139q0 -22 -24 -22h-102q-11 0 -14.5 4.5t-3.5 14.5v86q0 18 12 18h119q13 0 13 -16v-85z" />
    <glyph glyph-name="uni1EB8" unicode="&#x1eb8;" horiz-adv-x="650" 
d="M65 723h534l-1 -161h-337v-120h282v-157h-283v-123h340v-162h-535v723zM404 -139q0 -22 -24 -22h-102q-11 0 -14.5 4.5t-3.5 14.5v86q0 18 12 18h119q13 0 13 -16v-85z" />
    <glyph glyph-name="uni1EB9" unicode="&#x1eb9;" horiz-adv-x="566" 
d="M235 148q21 -22 55 -22q30 0 50 11t31 39h172q-8 -55 -44.5 -97.5t-91 -65.5t-112.5 -23q-80 0 -141.5 32.5t-95.5 92t-34 137.5q0 75 31.5 138t91.5 100t140 37q82 0 139 -34.5t86 -95t29 -138.5v-45h-326q-1 -44 20 -66zM362 323q0 31 -20 52t-55 21q-30 0 -51.5 -22
t-21.5 -51h148zM363 -139q0 -22 -24 -22h-102q-11 0 -14.5 4.5t-3.5 14.5v86q0 18 12 18h119q13 0 13 -16v-85z" />
    <glyph glyph-name="uni1EBC" unicode="&#x1ebc;" horiz-adv-x="650" 
d="M65 723h534l-1 -161h-337v-120h282v-157h-283v-123h340v-162h-535v723zM468.5 808.5q-26.5 -8.5 -54.5 -8.5q-19 0 -40 4.5t-40 10.5q-47 15 -78 15q-20 0 -35 -5t-34 -19q-8 -5 -12 -5q-7 0 -11 12l-16 53q-1 2 -2 5t-1 7q0 7 11 18q20 19 41.5 29.5t53.5 10.5
q19 0 37.5 -4t34.5 -8.5t21 -5.5q47 -15 69 -15q37 0 75 27q5 4 12 4q9 0 12 -12l13 -64q1 -3 1 -7q0 -11 -14 -22q-17 -12 -43.5 -20.5z" />
    <glyph glyph-name="uni1EBD" unicode="&#x1ebd;" horiz-adv-x="566" 
d="M235 148q21 -22 55 -22q30 0 50 11t31 39h172q-8 -55 -44.5 -97.5t-91 -65.5t-112.5 -23q-80 0 -141.5 32.5t-95.5 92t-34 137.5q0 75 31.5 138t91.5 100t140 37q82 0 139 -34.5t86 -95t29 -138.5v-45h-326q-1 -44 20 -66zM362 323q0 31 -20 52t-55 21q-30 0 -51.5 -22
t-21.5 -51h148zM424.5 602.5q-26.5 -8.5 -54.5 -8.5q-19 0 -40 4.5t-40 10.5q-47 15 -78 15q-20 0 -35 -5t-34 -19q-8 -5 -12 -5q-7 0 -11 12l-16 53q-1 2 -2 5t-1 7q0 7 11 18q20 19 41.5 29.5t53.5 10.5q19 0 37.5 -4t34.5 -8.5t21 -5.5q47 -15 69 -15q37 0 75 27
q5 4 12 4q9 0 12 -12l13 -64q1 -3 1 -7q0 -11 -14 -22q-17 -12 -43.5 -20.5z" />
    <glyph glyph-name="uni1ECA" unicode="&#x1eca;" horiz-adv-x="325" 
d="M260 723v-723h-195v723h195zM245 -139q0 -22 -24 -22h-102q-11 0 -14.5 4.5t-3.5 14.5v86q0 18 12 18h119q13 0 13 -16v-85z" />
    <glyph glyph-name="uni1ECB" unicode="&#x1ecb;" horiz-adv-x="307" 
d="M251 579h-195v164h195v-164zM251 0h-195v517h195v-517zM233 -139q0 -22 -24 -22h-102q-11 0 -14.5 4.5t-3.5 14.5v86q0 18 12 18h119q13 0 13 -16v-85z" />
    <glyph glyph-name="uni1ECC" unicode="&#x1ecc;" horiz-adv-x="772" 
d="M201.5 35.5q-79.5 45.5 -122.5 129t-43 195.5t43.5 196.5t123 130.5t184.5 46q104 0 183 -46t122.5 -130.5t43.5 -196.5q0 -111 -43 -195t-122 -129.5t-184 -45.5q-106 0 -185.5 45.5zM488 196q37 50 37 161q0 115 -37 167.5t-101 52.5t-101.5 -52.5t-37.5 -167.5
q0 -111 37 -161t102 -50q64 0 101 50zM460 -139q0 -22 -24 -22h-102q-11 0 -14.5 4.5t-3.5 14.5v86q0 18 12 18h119q13 0 13 -16v-85z" />
    <glyph glyph-name="uni1ECD" unicode="&#x1ecd;" horiz-adv-x="573" 
d="M147.5 23.5q-59.5 33.5 -91.5 94t-32 137.5q0 80 33.5 142t93.5 96t136 34q79 0 138.5 -35t91.5 -97t32 -140q0 -77 -32.5 -137t-92 -94t-138.5 -34t-138.5 33.5zM344.5 170q15.5 39 15.5 92q0 126 -73 126q-74 0 -74 -126q0 -54 16 -92.5t58 -38.5t57.5 39zM356 -139
q0 -22 -24 -22h-102q-11 0 -14.5 4.5t-3.5 14.5v86q0 18 12 18h119q13 0 13 -16v-85z" />
    <glyph glyph-name="uni1EE4" unicode="&#x1ee4;" horiz-adv-x="733" 
d="M616 71q-73 -81 -239 -81t-239 81t-73 228v424h197v-432q0 -70 32.5 -104t82.5 -34t82.5 34t32.5 104v432h197v-424q0 -147 -73 -228zM466 -139q0 -22 -24 -22h-102q-11 0 -14.5 4.5t-3.5 14.5v86q0 18 12 18h119q13 0 13 -16v-85z" />
    <glyph glyph-name="uni1EE5" unicode="&#x1ee5;" 
d="M158.5 10q-44.5 20 -73.5 57t-29 86v364h195v-337q0 -23 16 -38t44 -15t44.5 15t16.5 38v337h197l-4 -517h-144l-14 68q-24 -39 -70 -58.5t-90 -19.5t-88.5 20zM385 -139q0 -22 -24 -22h-102q-11 0 -14.5 4.5t-3.5 14.5v86q0 18 12 18h119q13 0 13 -16v-85z" />
    <glyph glyph-name="Ygrave" unicode="&#x1ef2;" horiz-adv-x="710" 
d="M451 301v-301h-195v301l-255 422h210l143 -257l142 257h212zM529 834l-26 -77l-277 66l42 118z" />
    <glyph glyph-name="ygrave" unicode="&#x1ef3;" horiz-adv-x="603" 
d="M105 -160q-25 5 -37 10t-15 7v123l50 -3q8 -1 23 -1q35 0 53.5 8.5t23 16.5t8.5 19l2 10l-201 487h191l98 -281l102 281h190l-202 -487q-32 -79 -66.5 -121.5t-72 -58t-86.5 -15.5q-36 0 -61 5zM476 628l-26 -77l-277 66l42 118z" />
    <glyph glyph-name="uni1EF8" unicode="&#x1ef8;" horiz-adv-x="710" 
d="M451 301v-301h-195v301l-255 422h210l143 -257l142 257h212zM515.5 808.5q-26.5 -8.5 -54.5 -8.5q-19 0 -40 4.5t-40 10.5q-47 15 -78 15q-20 0 -35 -5t-34 -19q-8 -5 -12 -5q-7 0 -11 12l-16 53q-1 2 -2 5t-1 7q0 7 11 18q20 19 41.5 29.5t53.5 10.5q19 0 37.5 -4
t34.5 -8.5t21 -5.5q47 -15 69 -15q37 0 75 27q5 4 12 4q9 0 12 -12l13 -64q1 -3 1 -7q0 -11 -14 -22q-17 -12 -43.5 -20.5z" />
    <glyph glyph-name="uni1EF9" unicode="&#x1ef9;" horiz-adv-x="603" 
d="M105 -160q-25 5 -37 10t-15 7v123l50 -3q8 -1 23 -1q35 0 53.5 8.5t23 16.5t8.5 19l2 10l-201 487h191l98 -281l102 281h190l-202 -487q-32 -79 -66.5 -121.5t-72 -58t-86.5 -15.5q-36 0 -61 5zM462.5 602.5q-26.5 -8.5 -54.5 -8.5q-19 0 -40 4.5t-40 10.5q-47 15 -78 15
q-20 0 -35 -5t-34 -19q-8 -5 -12 -5q-7 0 -11 12l-16 53q-1 2 -2 5t-1 7q0 7 11 18q20 19 41.5 29.5t53.5 10.5q19 0 37.5 -4t34.5 -8.5t21 -5.5q47 -15 69 -15q37 0 75 27q5 4 12 4q9 0 12 -12l13 -64q1 -3 1 -7q0 -11 -14 -22q-17 -12 -43.5 -20.5z" />
    <glyph glyph-name="endash" unicode="&#x2013;" horiz-adv-x="616" 
d="M558 178h-509v137h509v-137z" />
    <glyph glyph-name="emdash" unicode="&#x2014;" horiz-adv-x="934" 
d="M876 178h-827v137h827v-137z" />
    <glyph glyph-name="quoteleft" unicode="&#x2018;" horiz-adv-x="276" 
d="M147 605l58 -7v-168h-177v149l115 173h64z" />
    <glyph glyph-name="quoteright" unicode="&#x2019;" horiz-adv-x="276" 
d="M106 548l-58 7v168h177v-149l-115 -173h-64z" />
    <glyph glyph-name="quotesinglbase" unicode="&#x201a;" horiz-adv-x="276" 
d="M106 -4l-58 7v169h177v-150l-115 -173h-64z" />
    <glyph glyph-name="quotedblleft" unicode="&#x201c;" horiz-adv-x="526" 
d="M41 550l115 173h64l-60 -147l58 -7v-168h-177v149zM291 550l115 173h64l-60 -147l58 -7v-168h-177v149z" />
    <glyph glyph-name="quotedblright" unicode="&#x201d;" horiz-adv-x="551" 
d="M106 548l-58 7v168h177v-149l-115 -173h-64zM356 548l-59 7v168h178v-149l-115 -173h-65z" />
    <glyph glyph-name="quotedblbase" unicode="&#x201e;" horiz-adv-x="577" 
d="M382 -4l-58 7v169h177v-150l-115 -173h-64zM126 -4l-58 7v169h177v-150l-115 -173h-64z" />
    <glyph glyph-name="dagger" unicode="&#x2020;" horiz-adv-x="571" 
d="M520 347l-185 28l36 -536h-180l35 536l-184 -28v164l178 -25l-31 237h183l-31 -237l179 25v-164z" />
    <glyph glyph-name="daggerdbl" unicode="&#x2021;" horiz-adv-x="571" 
d="M337 168l183 27v-164l-180 26l32 -218h-183l32 218l-179 -26v164l182 -27v186l-182 -27v163l178 -25l-31 258h182l-30 -258l179 25v-163l-183 27v-186z" />
    <glyph glyph-name="bullet" unicode="&#x2022;" horiz-adv-x="377" 
d="M105.5 237.5q-34.5 20.5 -54.5 55t-20 75.5q0 40 20 74.5t54.5 55t75.5 20.5t75.5 -20.5t55 -55t20.5 -74.5q0 -41 -20.5 -75.5t-55 -55t-75.5 -20.5t-75.5 20.5z" />
    <glyph glyph-name="ellipsis" unicode="&#x2026;" horiz-adv-x="984" 
d="M966 0h-205v196h205v-196zM266 0h-205v196h205v-196zM616 0h-205v196h205v-196z" />
    <glyph glyph-name="perthousand" unicode="&#x2030;" horiz-adv-x="1387" 
d="M326 705q44 -29 70 -77t26 -101q0 -52 -25.5 -98.5t-69.5 -74.5t-97 -28q-54 0 -98.5 28t-70 74.5t-25.5 98.5q0 53 26 101t70.5 77t97.5 29q52 0 96 -29zM301 -4l-106 2l487 733h105zM270 446.5q11 25.5 11 80.5q0 58 -12 85.5t-40 27.5t-40 -28t-12 -85
q0 -55 11.5 -80.5t40.5 -25.5q30 0 41 25.5zM820.5 369.5q44.5 -29.5 70.5 -77t26 -100.5q0 -52 -25.5 -98.5t-70 -75t-97.5 -28.5t-98 28.5t-70.5 75t-25.5 98.5q0 53 26 100.5t71 77t97 29.5t96.5 -29.5zM1246 369.5q44 -29.5 70 -77t26 -100.5q0 -52 -25.5 -98.5
t-69.5 -75t-97 -28.5q-54 0 -98.5 28.5t-70 75t-25.5 98.5q0 53 26 100.5t70.5 77t97.5 29.5q52 0 96 -29.5zM763.5 111q11.5 25 11.5 80q0 58 -12 85.5t-40 27.5t-39.5 -28t-11.5 -85q0 -54 11 -79.5t40 -25.5t40.5 25zM1189 111q11 25 11 80q0 58 -11.5 85.5t-39.5 27.5
t-40 -28t-12 -85q0 -54 11.5 -79.5t40.5 -25.5t40 25z" />
    <glyph glyph-name="guilsinglleft" unicode="&#x2039;" horiz-adv-x="327" 
d="M261 59h-100l-107 192l106 200h101l-64 -200z" />
    <glyph glyph-name="guilsinglright" unicode="&#x203a;" horiz-adv-x="327" 
d="M56 451h101l106 -200l-107 -192h-100l64 192z" />
    <glyph glyph-name="fraction" unicode="&#x2044;" horiz-adv-x="256" 
d="M-70 -4l-106 2l487 733h105z" />
    <glyph glyph-name="uni2070" unicode="&#x2070;" horiz-adv-x="423" 
d="M341.5 782q53.5 -63 53.5 -173q0 -109 -53 -170t-143 -61t-143 61t-53 170q0 110 53.5 173t142.5 63t142.5 -63zM247 504q14 30 14 105q0 76 -14.5 108.5t-47.5 32.5t-47 -32.5t-14 -108.5q0 -74 13.5 -104.5t47.5 -30.5t48 30z" />
    <glyph glyph-name="uni2074" unicode="&#x2074;" horiz-adv-x="423" 
d="M324 835v-265h66v-103h-66v-87h-123l1 87h-199v99l200 269h121zM203 570v98l-73 -98h73z" />
    <glyph glyph-name="uni2075" unicode="&#x2075;" horiz-adv-x="409" 
d="M373 835l-5 -98h-212l-7 -76q32 9 50 12.5t39 3.5q75 0 120.5 -39.5t45.5 -109.5q0 -72 -50.5 -113t-137.5 -41q-69 0 -124.5 27t-81.5 70l92 62q25 -33 46 -48.5t54 -15.5t51.5 16t18.5 39t-17.5 39.5t-50.5 16.5q-15 0 -28 -3.5t-34 -12.5q-6 -3 -9 -3t-9 3l-83 45
l21 226h311z" />
    <glyph glyph-name="uni2076" unicode="&#x2076;" horiz-adv-x="411" 
d="M292 828.5q40 -17.5 64 -49.5t24 -76h-111q-14 49 -62 49q-33 0 -52.5 -24.5t-19.5 -59.5q0 -6 2 -20q35 21 92 21q71 0 114.5 -38t43.5 -98q0 -43 -24 -77.5t-66.5 -54.5t-95.5 -20q-93 0 -146.5 60.5t-53.5 160.5q0 114 54.5 179t148.5 65q48 0 88 -17.5zM156 569
q-20 -12 -20 -22q0 -38 16.5 -57.5t43.5 -19.5q25 0 44 16.5t19 41.5q0 27 -18.5 40t-43.5 13q-21 0 -41 -12z" />
    <glyph glyph-name="uni2077" unicode="&#x2077;" horiz-adv-x="373" 
d="M377 835v-125q-34 -38 -67.5 -95t-55.5 -119.5t-21 -115.5h-131q0 38 15.5 96.5t52 127.5t95.5 133h-246v98h358z" />
    <glyph glyph-name="uni2078" unicode="&#x2078;" horiz-adv-x="409" 
d="M284 828q40 -17 63 -46t23 -65q0 -34 -23 -55t-47 -28q27 -14 44.5 -25.5t31.5 -34t14 -55.5q0 -67 -54 -104t-146 -37q-85 0 -136 30.5t-51 86.5q0 42 23.5 64.5t58.5 35.5q-2 1 -36 22.5t-34 82.5q0 40 21.5 73t62 52.5t95.5 19.5q50 0 90 -17zM158.5 745.5
q-14.5 -10.5 -14.5 -28.5q0 -11 8 -20.5t22 -14.5l39 -14q16 -5 30.5 11t14.5 34t-16.5 30.5t-45.5 12.5q-23 0 -37.5 -10.5zM241 477.5q15 10.5 15 28.5q0 13 -8.5 23.5t-31.5 18.5l-43 15q-6 2 -10 2q-17 0 -30.5 -13.5t-13.5 -33.5q0 -51 80 -51q27 0 42 10.5z" />
    <glyph glyph-name="uni2079" unicode="&#x2079;" horiz-adv-x="411" 
d="M101.5 398q-40.5 18 -65 50.5t-24.5 74.5h115q4 -23 18.5 -36t38.5 -13q40 0 63.5 21t23.5 69q0 12 -1 19q-32 -32 -97 -32q-72 0 -119 39t-47 103q0 43 24 78t66.5 54.5t95.5 19.5q93 0 146.5 -60t53.5 -161q0 -125 -53.5 -184.5t-149.5 -59.5q-48 0 -88.5 18zM238 657
q20 12 20 22q0 38 -16.5 58t-43.5 20q-24 0 -41 -16.5t-17 -42.5q0 -25 17 -39t40 -14q21 0 41 12z" />
    <glyph glyph-name="colonmonetary" unicode="&#x20a1;" horiz-adv-x="608" 
d="M349 252q15 25 19 51h153q0 -65 -36.5 -118.5t-100.5 -77.5l-28 -106l-94 3l23 89q-35 1 -68 11l-27 -103l-93 3l36 143q-46 36 -71.5 90.5t-25.5 121.5q0 89 43.5 156t116.5 96l30 110l93 2l-23 -93h1q34 0 68 -8l27 99l93 2l-36 -145q35 -31 54 -75t21 -94h-158
q-4 30 -19.5 53.5t-48.5 23.5q-38 0 -60.5 -32t-22.5 -93q0 -62 24.5 -98t62.5 -36q32 0 47 25z" />
    <glyph glyph-name="franc" unicode="&#x20a3;" horiz-adv-x="636" 
d="M273 564v-130h215v-155h-215v-74h136v-99h-136v-106h-221v106h-84v99h84v518h555l-1 -159h-333z" />
    <glyph glyph-name="lira" unicode="&#x20a4;" horiz-adv-x="671" 
d="M552 53.5q-65 -53.5 -159 -53.5h-374v159h31q63 0 77 44q4 11 4 28q0 8 -9 8h-102v98h98l-6 48h-92v99h78l-3 48q-5 64 28 109.5t90.5 68.5t125.5 23q81 0 154 -41.5t107 -124.5l-169 -48q-11 30 -24.5 47t-36.5 17t-35.5 -16t-12.5 -44q0 -7 2 -27q2 -12 12 -12h114v-99
h-109l4 -48h105v-98h-111q-18 -49 -65 -79h103q41 0 63.5 18t35.5 60l163 -32q-22 -99 -87 -152.5z" />
    <glyph glyph-name="uni20A6" unicode="&#x20a6;" horiz-adv-x="813" 
d="M778 444v-146h19v-88h-19v-210h-176l-147 210h-155v-210h-195v210h-98v88h98v146h-98v88h98v191h196l134 -191h148v191h195v-191h19v-88h-19zM583 444h-87l87 -124v124zM393 298l-93 133v-133h93z" />
    <glyph glyph-name="uni20A9" unicode="&#x20a9;" horiz-adv-x="1193" 
d="M1008 561l-18 -58h187v-98h-216l-121 -405h-145l-115 393l-115 -393h-143l-122 405h-193v98h163l-17 58h-146v98h116l-19 64h188l18 -64h184l18 64h136l18 -64h184l18 64h188l-19 -64h140v-98h-169zM356 503h95l16 58h-128zM823 561h-128l17 -58h95zM404 335l19 70h-39z
M779 405h-39l20 -70z" />
    <glyph glyph-name="dong" unicode="&#x20ab;" horiz-adv-x="552" 
d="M535 596h-60v-463h-159v48q-28 -29 -56.5 -42.5t-68.5 -13.5q-74 0 -118 56.5t-44 162.5q0 66 23.5 116.5t62.5 78.5t84 28q29 0 52.5 -9t46.5 -32q8 -4 10 -4q6 0 6 10v64h-95v78h95v49h161v-49h60v-78zM313 437q-14 16 -26 23.5t-30 7.5q-31 0 -48 -28t-17 -95
t16 -95.5t49 -28.5q24 0 40 15t16 39v162zM60 87h415v-87h-415v87z" />
    <glyph glyph-name="Euro" unicode="&#x20ac;" horiz-adv-x="692" 
d="M495.5 173q35.5 23 54.5 53l103 -107q-43 -57 -110 -93t-144 -36q-104 0 -183.5 65t-113.5 174h-95v99h77q-2 28 -2 43q0 16 1 24h-76v98h90q31 112 112 176t192 64q80 0 147 -33t108 -90l-133 -94q-27 33 -49 50t-55 17q-73 0 -99 -90h137v-98h-151v-27q0 -27 1 -40h150
v-99h-130q16 -41 42 -60t56 -19q35 0 70.5 23z" />
    <glyph glyph-name="uni20B9" unicode="&#x20b9;" horiz-adv-x="690" 
d="M541 635q22 -27 31 -59h90v-88h-85q-8 -53 -41.5 -93.5t-83.5 -60.5q-5 -1 -5 -8q0 -4 2 -10l136 -316h-240l-104 299h-215v136h228q39 0 61.5 13t30.5 40h-320v88h317q-20 52 -94 52h-223v95h636v-88h-121z" />
    <glyph glyph-name="uni20BA" unicode="&#x20ba;" horiz-adv-x="732" 
d="M714 271q-46 -122 -140.5 -196.5t-267.5 -74.5h-158v214l-81 -30l-34 93l115 42v57l-101 -37l-34 93l135 49v242h222v-161l108 39l34 -92l-142 -52v-57l127 46l33 -93l-160 -58v-135h23q47 2 87 40.5t65 105.5z" />
    <glyph glyph-name="uni2113" unicode="&#x2113;" horiz-adv-x="620" 
d="M329 -10q-106 0 -157.5 39t-69.5 106q-2 6 -5 3l-43 -29l-40 102l84 64v195q0 129 65 196t177 67q99 0 143 -49t44 -129q0 -69 -30 -124t-74.5 -97t-125.5 -105v-34q0 -27 23 -45.5t57 -18.5q35 0 71 20t68 55q-1 0 9 9zM297 377q53 52 79.5 96.5t26.5 89.5q0 61 -46 61
q-28 0 -44 -30.5t-16 -106.5v-110z" />
    <glyph glyph-name="uni2116" unicode="&#x2116;" horiz-adv-x="1192" 
d="M738 723v-723h-176l-302 431v-431h-195v723h196l282 -403v403h195zM1086 711.5q39 -21.5 60.5 -60t21.5 -87.5q0 -48 -22 -86t-61 -59t-88 -21q-75 0 -122.5 46.5t-47.5 119.5q0 49 22.5 87.5t61 60t86.5 21.5q50 0 89 -21.5zM961.5 635.5q-11.5 -21.5 -11.5 -69.5
q0 -47 11.5 -68.5t35.5 -21.5q25 0 36.5 21.5t11.5 68.5q0 48 -11.5 69.5t-36.5 21.5q-24 0 -35.5 -21.5z" />
    <glyph glyph-name="uni2117" unicode="&#x2117;" horiz-adv-x="833" 
d="M225 40q-85 50 -135 135t-50 187q0 100 50 185.5t135 135.5t186 50t186.5 -50t135.5 -135.5t50 -185.5q0 -102 -50 -187t-135.5 -135t-186.5 -50t-186 50zM549.5 122.5q59.5 33.5 92 95t32.5 144.5q0 82 -32.5 144t-92 96t-138.5 34q-80 0 -139 -34t-91 -96t-32 -144
q0 -83 32 -144.5t91 -95t139 -33.5q79 0 138.5 33.5zM566 326.5q-39 -33.5 -104 -33.5h-83v-123h-118v384h188q68 0 112 -33.5t44 -99.5q0 -61 -39 -94.5zM473 458q-12 12 -31 12h-63v-95h66q19 0 29.5 13t10.5 35q0 23 -12 35z" />
    <glyph glyph-name="uni2120" unicode="&#x2120;" horiz-adv-x="1036" 
d="M131.5 9.5q-45.5 15.5 -75.5 47.5t-34 81h127q5 -24 25 -37.5t52 -13.5q33 0 54 9.5t21 31.5q0 18 -19 26t-57 14l-71 12q-55 9 -86.5 43.5t-31.5 91.5q0 44 25 76t68 49.5t96 17.5q54 0 97.5 -20t69 -52.5t30.5 -70.5h-123q-3 26 -20.5 37.5t-51.5 11.5
q-32 0 -46.5 -10.5t-14.5 -25.5q0 -16 10.5 -25t38.5 -14l71 -12q86 -15 112.5 -56.5t26.5 -92.5q0 -38 -26 -68.5t-71.5 -48t-100.5 -17.5q-50 0 -95.5 15.5zM489 452h180l73 -276l74 276h180v-452h-122v328l-88 -328h-87l-89 328v-328h-121v452z" />
    <glyph glyph-name="trademark" unicode="&#x2122;" horiz-adv-x="983" 
d="M8 452h379v-107h-129v-345h-122v345h-128v107zM435 452h180l73 -276l74 276h180v-452h-122v328l-88 -328h-87l-89 328v-328h-121v452z" />
    <glyph glyph-name="estimated" unicode="&#x212e;" horiz-adv-x="833" 
d="M581 33q-79 -43 -170 -43q-101 0 -186 50t-135 135t-50 187q0 100 50 185.5t135 135.5t186 50q99 0 185 -48.5t136.5 -131t50.5 -178.5q0 -7 -3 -10t-10 -3h-541v-272q79 -51 182 -51q78 0 142 28.5t107 80.5h57q-57 -72 -136 -115zM238 639q-9 -6 -9 -18v-211h355v230
q-78 44 -173 44q-97 0 -173 -45z" />
    <glyph glyph-name="uni2153" unicode="&#x2153;" horiz-adv-x="972" 
d="M65 597l-75 -17v82l138 69h60v-455h-123v321zM239 -4l-106 2l487 733h105zM636 422.5q59 35.5 150 35.5q52 0 94.5 -15t67.5 -42.5t25 -63.5q0 -68 -82 -96q38 -10 67 -37.5t29 -71.5q0 -45 -30.5 -77t-76.5 -48t-93 -16q-101 0 -155.5 34.5t-54.5 121.5h116
q5 -33 29.5 -47t53.5 -14q33 0 54 13.5t21 32.5q0 20 -17.5 34t-45.5 15l-62 1v94l54 3q29 1 45.5 14.5t16.5 32.5q0 17 -19 28.5t-41 11.5q-37 0 -61.5 -12t-28.5 -49h-115q0 82 59 117.5z" />
    <glyph glyph-name="uni2154" unicode="&#x2154;" horiz-adv-x="1055" 
d="M9 365l140 115q44 36 63.5 55t26 31.5t6.5 27.5q0 21 -14.5 34t-38.5 13q-27 0 -47.5 -16t-26.5 -52h-115q0 75 48.5 121t142.5 46q83 0 131.5 -39.5t48.5 -105.5q0 -34 -16 -59t-59 -65l-100 -91h179v-101h-369v86zM322 -4l-106 2l487 733h105zM719 422.5
q59 35.5 150 35.5q52 0 94.5 -15t67.5 -42.5t25 -63.5q0 -68 -82 -96q38 -10 67 -37.5t29 -71.5q0 -45 -30.5 -77t-76.5 -48t-93 -16q-101 0 -155.5 34.5t-54.5 121.5h116q5 -33 29.5 -47t53.5 -14q33 0 54 13.5t21 32.5q0 20 -17.5 34t-45.5 15l-62 1v94l54 3
q29 1 45.5 14.5t16.5 32.5q0 17 -19 28.5t-41 11.5q-37 0 -61.5 -12t-28.5 -49h-115q0 82 59 117.5z" />
    <glyph glyph-name="oneeighth" unicode="&#x215b;" horiz-adv-x="974" 
d="M65 597l-75 -17v82l138 69h60v-455h-123v321zM239 -4l-106 2l487 733h105zM849 440q40 -17 63 -46t23 -65q0 -34 -23 -55t-47 -28q27 -14 44.5 -25.5t31.5 -34t14 -55.5q0 -67 -54 -104t-146 -37q-85 0 -136 30.5t-51 86.5q0 42 23.5 64.5t58.5 35.5q-2 1 -36 22.5
t-34 82.5q0 40 21.5 73t62 52.5t95.5 19.5q50 0 90 -17zM723.5 357.5q-14.5 -10.5 -14.5 -28.5q0 -11 8 -20.5t22 -14.5l39 -14q16 -5 30.5 11t14.5 34t-16.5 30.5t-45.5 12.5q-23 0 -37.5 -10.5zM806 89.5q15 10.5 15 28.5q0 13 -8.5 23.5t-31.5 18.5l-43 15q-6 2 -10 2
q-17 0 -30.5 -13.5t-13.5 -33.5q0 -51 80 -51q27 0 42 10.5z" />
    <glyph glyph-name="threeeighths" unicode="&#x215c;" horiz-adv-x="1072" 
d="M71 704.5q59 35.5 150 35.5q52 0 94.5 -15t67.5 -42.5t25 -63.5q0 -68 -82 -96q38 -10 67 -37.5t29 -71.5q0 -45 -30.5 -77t-76.5 -48t-93 -16q-101 0 -155.5 34.5t-54.5 121.5h116q5 -33 29.5 -47t53.5 -14q33 0 54 13.5t21 32.5q0 20 -17.5 34t-45.5 15l-62 1v94l54 3
q29 1 45.5 14.5t16.5 32.5q0 17 -19 28.5t-41 11.5q-37 0 -61.5 -12t-28.5 -49h-115q0 82 59 117.5zM337 -4l-106 2l487 733h105zM947 440q40 -17 63 -46t23 -65q0 -34 -23 -55t-47 -28q27 -14 44.5 -25.5t31.5 -34t14 -55.5q0 -67 -54 -104t-146 -37q-85 0 -136 30.5
t-51 86.5q0 42 23.5 64.5t58.5 35.5q-2 1 -36 22.5t-34 82.5q0 40 21.5 73t62 52.5t95.5 19.5q50 0 90 -17zM821.5 357.5q-14.5 -10.5 -14.5 -28.5q0 -11 8 -20.5t22 -14.5l39 -14q16 -5 30.5 11t14.5 34t-16.5 30.5t-45.5 12.5q-23 0 -37.5 -10.5zM904 89.5
q15 10.5 15 28.5q0 13 -8.5 23.5t-31.5 18.5l-43 15q-6 2 -10 2q-17 0 -30.5 -13.5t-13.5 -33.5q0 -51 80 -51q27 0 42 10.5z" />
    <glyph glyph-name="fiveeighths" unicode="&#x215d;" horiz-adv-x="1074" 
d="M373 731l-5 -98h-212l-7 -76q32 9 50 12.5t39 3.5q75 0 120.5 -39.5t45.5 -109.5q0 -72 -50.5 -113t-137.5 -41q-69 0 -124.5 27t-81.5 70l92 62q25 -33 46 -48.5t54 -15.5t51.5 16t18.5 39t-17.5 39.5t-50.5 16.5q-15 0 -28 -3.5t-34 -12.5q-6 -3 -9 -3t-9 3l-83 45
l21 226h311zM339 -4l-106 2l487 733h105zM949 440q40 -17 63 -46t23 -65q0 -34 -23 -55t-47 -28q27 -14 44.5 -25.5t31.5 -34t14 -55.5q0 -67 -54 -104t-146 -37q-85 0 -136 30.5t-51 86.5q0 42 23.5 64.5t58.5 35.5q-2 1 -36 22.5t-34 82.5q0 40 21.5 73t62 52.5t95.5 19.5
q50 0 90 -17zM823.5 357.5q-14.5 -10.5 -14.5 -28.5q0 -11 8 -20.5t22 -14.5l39 -14q16 -5 30.5 11t14.5 34t-16.5 30.5t-45.5 12.5q-23 0 -37.5 -10.5zM906 89.5q15 10.5 15 28.5q0 13 -8.5 23.5t-31.5 18.5l-43 15q-6 2 -10 2q-17 0 -30.5 -13.5t-13.5 -33.5q0 -51 80 -51
q27 0 42 10.5z" />
    <glyph glyph-name="seveneighths" unicode="&#x215e;" horiz-adv-x="1038" 
d="M377 730v-125q-34 -38 -67.5 -95t-55.5 -119.5t-21 -115.5h-131q0 38 15.5 96.5t52 127.5t95.5 133h-246v98h358zM303 -4l-106 2l487 733h105zM913 440q40 -17 63 -46t23 -65q0 -34 -23 -55t-47 -28q27 -14 44.5 -25.5t31.5 -34t14 -55.5q0 -67 -54 -104t-146 -37
q-85 0 -136 30.5t-51 86.5q0 42 23.5 64.5t58.5 35.5q-2 1 -36 22.5t-34 82.5q0 40 21.5 73t62 52.5t95.5 19.5q50 0 90 -17zM787.5 357.5q-14.5 -10.5 -14.5 -28.5q0 -11 8 -20.5t22 -14.5l39 -14q16 -5 30.5 11t14.5 34t-16.5 30.5t-45.5 12.5q-23 0 -37.5 -10.5z
M870 89.5q15 10.5 15 28.5q0 13 -8.5 23.5t-31.5 18.5l-43 15q-6 2 -10 2q-17 0 -30.5 -13.5t-13.5 -33.5q0 -51 80 -51q27 0 42 10.5z" />
    <glyph glyph-name="partialdiff" unicode="&#x2202;" horiz-adv-x="608" 
d="M44 665q30 24 85.5 46t127.5 22q93 0 164 -41.5t111.5 -126.5t40.5 -211q0 -168 -72.5 -266t-215.5 -98q-80 0 -138 31.5t-88 86.5t-30 124q0 68 28 123.5t80.5 88t122.5 32.5q44 0 71 -11.5t53 -33.5q8 -6 12 -6q6 0 6 14q0 30 -18 66.5t-57.5 63t-100.5 26.5
q-42 0 -71.5 -11.5t-59.5 -30.5zM283 123q43 0 68.5 38t32.5 103q1 6 1 14q0 10 -7 21q-12 22 -33 37.5t-47 15.5q-39 0 -63.5 -36.5t-24.5 -91.5q0 -50 20 -75.5t52 -25.5h1z" />
    <glyph glyph-name="emptyset" unicode="&#x2205;" horiz-adv-x="605" 
d="M503 493q38 -59 38 -129q0 -65 -32.5 -120.5t-88 -88t-120.5 -32.5q-79 0 -143 48l-71 -66l-59 62l72 66q-39 59 -39 131q0 65 32.5 120t87.5 87.5t120 32.5q83 0 146 -49l63 58l57 -61zM160 290l224 208q-38 24 -84 24q-43 0 -79 -21.5t-57.5 -58t-21.5 -78.5
q0 -38 18 -74zM441 436l-223 -208q37 -23 82 -23q43 0 79.5 21.5t58 58t21.5 79.5q0 39 -18 72z" />
    <glyph glyph-name="product" unicode="&#x220f;" horiz-adv-x="729" 
d="M703 566h-82v-566h-199v566h-125v-566h-199v566h-81v157h686v-157z" />
    <glyph glyph-name="summation" unicode="&#x2211;" horiz-adv-x="608" 
d="M28 0v114l202 243l-192 238v128h514v-153h-250l169 -190l-190 -218h289v-162h-542z" />
    <glyph glyph-name="minus" unicode="&#x2212;" horiz-adv-x="608" 
d="M555 295h-509v138h509v-138z" />
    <glyph glyph-name="uni2219" unicode="&#x2219;" horiz-adv-x="377" 
d="M117 302q-27 27 -27 64q0 38 27 64.5t64 26.5q38 0 64.5 -26.5t26.5 -64.5q0 -37 -26.5 -64t-64.5 -27q-37 0 -64 27z" />
    <glyph glyph-name="radical" unicode="&#x221a;" horiz-adv-x="727" 
d="M465 -161h-194l-139 382l-82 -30l-38 104l223 79l130 -362l200 814h160z" />
    <glyph glyph-name="infinity" unicode="&#x221e;" horiz-adv-x="837" 
d="M787 273q0 -60 -25.5 -104.5t-68.5 -68t-94 -23.5q-39 0 -69 13.5t-52.5 34.5t-53.5 57q-6 8 -10 8t-10 -8q-5 -5 -29.5 -33t-65.5 -50t-88 -22q-49 0 -90.5 24t-66 67.5t-24.5 99.5q0 57 25 100.5t69 67.5t100 24q40 0 69 -12t51 -31t54 -54q7 -9 13 -9q4 0 13 9
q40 45 78 71t96 26q51 0 91.5 -23t64 -65t23.5 -97v-2zM235 190q26 0 51 18t42 42q7 10 7 15t-8 19q-22 33 -45 49.5t-50 16.5q-33 0 -53.5 -22t-20.5 -57q0 -36 21.5 -58.5t53.5 -22.5h2zM597 350q-26 0 -48 -17t-47 -46q-7 -8 -7 -16t7 -17q47 -64 99 -64q31 0 49.5 24.5
t18.5 55.5q0 33 -19.5 56.5t-51.5 23.5h-1z" />
    <glyph glyph-name="integral" unicode="&#x222b;" horiz-adv-x="489" 
d="M193.5 766q50.5 70 161.5 70q37 0 66.5 -7.5t45.5 -17.5l-36 -156q-17 8 -31.5 12.5t-33.5 4.5q-26 0 -37 -21.5t-11 -76.5q0 -75 9 -273q7 -124 7 -180q0 -149 -50.5 -221t-161.5 -72q-35 0 -63.5 7t-46.5 17l38 156q30 -16 62 -16q26 0 37 21.5t11 79.5q0 91 -10 271
q-7 130 -7 187q0 145 50.5 215z" />
    <glyph glyph-name="approxequal" unicode="&#x2248;" horiz-adv-x="644" 
d="M508.5 377.5q-44.5 -28.5 -89.5 -28.5q-29 0 -53 10t-54 28q-27 16 -45.5 24t-39.5 8q-34 0 -59 -20.5t-62 -63.5l-55 92q52 56 91.5 82.5t87.5 26.5q31 0 55 -10t54 -29q24 -15 40.5 -22.5t35.5 -7.5q33 0 62 23t50 61l56 -90q-30 -55 -74.5 -83.5zM508.5 156.5
q-44.5 -28.5 -89.5 -28.5q-29 0 -53 10t-54 28q-27 16 -45.5 24t-39.5 8q-34 0 -59.5 -21t-60.5 -63l-56 92q52 56 91.5 82.5t87.5 26.5q31 0 55 -10t54 -29q24 -15 40.5 -22.5t35.5 -7.5q33 0 62 23t50 61l56 -90q-30 -55 -74.5 -83.5z" />
    <glyph glyph-name="notequal" unicode="&#x2260;" horiz-adv-x="608" 
d="M368 389l-42 -97h243v-138h-302l-62 -143h-91l63 143h-117v138h177l43 97h-220v138h280l61 139h87l-60 -139h141v-138h-201z" />
    <glyph glyph-name="lessequal" unicode="&#x2264;" horiz-adv-x="610" 
d="M538 177l-496 192v155l496 191v-161l-290 -109l290 -106v-162zM550 8h-509v137h509v-137z" />
    <glyph glyph-name="greaterequal" unicode="&#x2265;" horiz-adv-x="610" 
d="M353 445l-291 109v161l497 -191v-155l-497 -192v162zM560 145v-137h-509v137h509z" />
    <glyph glyph-name="lozenge" unicode="&#x25ca;" horiz-adv-x="608" 
d="M254 0l-189 362l193 361h120l189 -359l-194 -364h-119zM207 364l110 -232l111 230l-111 225z" />
    <glyph glyph-name="i.loclTRK" horiz-adv-x="307" 
d="M251 0h-195v517h195v-517zM255 560h-195v163h195v-163z" />
    <glyph glyph-name="p.001" horiz-adv-x="630" 
d="M56 517h196v-60q33 35 68 52.5t83 17.5q85 0 138 -67.5t53 -199.5q0 -139 -54.5 -204.5t-143.5 -65.5q-38 0 -71.5 14t-73.5 54v-219h-195v678zM377 149.5q20 33.5 20 114.5q0 78 -19.5 107t-54.5 29t-53.5 -26.5t-18.5 -89.5v-45q0 -123 69 -123q37 0 57 33.5z" />
    <glyph glyph-name="q.001" horiz-adv-x="619" 
d="M368 -161v219q-41 -40 -74.5 -54t-71.5 -14q-89 0 -143.5 65.5t-54.5 204.5q0 132 53 199.5t138 67.5q48 0 83 -17.5t69 -52.5v60h196v-678h-195zM368 239v45q0 63 -19 89.5t-54 26.5t-54.5 -29t-19.5 -107q0 -81 20 -114.5t57 -33.5q70 0 70 123z" />
    <glyph glyph-name="l.ss01" horiz-adv-x="316" 
d="M60 743h195v-743h-195v743z" />
    <glyph glyph-name="zero.osf" horiz-adv-x="681" 
d="M504.5 689.5q70.5 -44.5 109 -129t38.5 -200.5q0 -115 -38 -198t-108 -126.5t-165 -43.5t-165.5 43.5t-109 126.5t-38.5 198q0 116 39 200.5t110 129t164 44.5t163.5 -44.5zM397.5 165q21.5 21 31 67.5t9.5 126.5q0 122 -22.5 173.5t-75.5 51.5q-52 0 -74.5 -51.5
t-22.5 -173.5q0 -79 9.5 -126t30.5 -68t57 -21t57.5 21z" />
    <glyph glyph-name="one.osf" horiz-adv-x="421" 
d="M139 511l-120 -27v129l220 110h95v-723h-195v511z" />
    <glyph glyph-name="two.osf" horiz-adv-x="645" 
d="M31 136l222 184q70 59 101 88t41.5 48.5t10.5 44.5q0 33 -23 54t-62 21q-44 0 -75.5 -26t-42.5 -82h-183q0 77 34 136.5t102.5 94t168.5 34.5q88 0 152 -29t98.5 -81t34.5 -120q0 -54 -25.5 -94.5t-93.5 -102.5l-159 -146h285v-160h-586v136z" />
    <glyph glyph-name="three.osf" horiz-adv-x="660" 
d="M113 677q94 56 239 56q81 0 149 -24t107.5 -68t39.5 -101q0 -107 -129 -152q60 -16 106 -60t46 -113q0 -71 -48.5 -122t-122 -77t-147.5 -26q-161 0 -247.5 54.5t-86.5 193.5h184q10 -52 48 -74t85 -22q52 0 85 21.5t33 51.5q0 31 -27.5 53.5t-72.5 23.5l-98 2v150l86 5
q45 2 71.5 23t26.5 51q0 28 -30 46t-65 18q-60 0 -98.5 -18.5t-44.5 -78.5h-183q0 131 94 187z" />
    <glyph glyph-name="four.osf" horiz-adv-x="638" 
d="M525 723v-421h104v-164h-104v-138h-196l1 138h-316v157l318 428h193zM332 302v156l-116 -156h116z" />
    <glyph glyph-name="five.osf" horiz-adv-x="678" 
d="M599 723l-8 -156h-337l-11 -120q51 14 79.5 19.5t62.5 5.5q79 0 138.5 -28t92.5 -81.5t33 -126.5q0 -116 -80 -181t-219 -65q-110 0 -198 43t-129 112l145 98q27 -35 47 -55t47.5 -33t64.5 -13q52 0 81.5 24.5t29.5 62.5q0 37 -27.5 63t-80.5 26q-23 0 -43.5 -5.5
t-54.5 -20.5q-9 -4 -14 -4q-6 0 -15 5l-132 71l34 359h494z" />
    <glyph glyph-name="six.osf" horiz-adv-x="670" 
d="M489 705.5q64 -27.5 102 -79t38 -120.5h-176q-12 40 -36 58.5t-63 18.5q-52 0 -82.5 -38.5t-30.5 -93.5q0 -16 3 -33q54 33 145 33q75 0 132 -27t88.5 -76t31.5 -112q0 -69 -38.5 -124t-106 -86.5t-151.5 -31.5q-98 0 -170 43.5t-110 123t-38 184.5q0 120 39.5 207.5
t112 134t170.5 46.5q76 0 140 -27.5zM294.5 302q-22.5 -9 -37.5 -22t-15 -22q0 -61 25.5 -92t69.5 -31q40 0 70 26.5t30 65.5q0 43 -29.5 63.5t-69.5 20.5q-21 0 -43.5 -9z" />
    <glyph glyph-name="seven.osf" horiz-adv-x="597" 
d="M588 723v-199q-54 -60 -107.5 -150.5t-88 -190t-32.5 -183.5h-209q0 61 25 153.5t83 202.5t151 211h-391v156h569z" />
    <glyph glyph-name="eight.osf" horiz-adv-x="652" 
d="M466 706q64 -27 100 -73.5t36 -102.5q0 -55 -36.5 -87.5t-73.5 -45.5q43 -22 70 -40.5t49.5 -54t22.5 -88.5q0 -106 -86 -165t-232 -59q-134 0 -215.5 49t-81.5 138q0 66 37 102t94 56q-3 2 -31 20t-54.5 57.5t-26.5 89.5q0 63 34 115.5t98 84t152 31.5q80 0 144 -27z
M267 575.5q-23 -16.5 -23 -45.5q0 -39 47 -56l62 -22q8 -2 12 -2q23 0 41.5 24t18.5 49q0 28 -26.5 48.5t-72.5 20.5q-36 0 -59 -16.5zM397.5 148.5q23.5 16.5 23.5 45.5q0 21 -13.5 37t-49.5 29l-69 25q-7 3 -16 3q-26 0 -47.5 -22t-21.5 -53q0 -39 29.5 -60t96.5 -21
q44 0 67.5 16.5z" />
    <glyph glyph-name="nine.osf" horiz-adv-x="670" 
d="M179 20.5q-65 28.5 -104 80.5t-39 118h183q6 -36 29.5 -56.5t61.5 -20.5q62 0 100 33t38 109q0 9 -2 31q-49 -51 -153 -51q-75 0 -135.5 28t-95 79t-34.5 118q0 69 38.5 124t106 86.5t151.5 31.5q99 0 170.5 -43.5t109.5 -123t38 -184.5q0 -198 -85 -293t-238 -95
q-75 0 -140 28.5zM374.5 423q22.5 9 37.5 22t15 22q0 62 -25.5 93t-69.5 31q-39 0 -65.5 -26t-26.5 -67q0 -40 27 -62t64 -22q21 0 43.5 9z" />
    <glyph glyph-name="zero.tf" horiz-adv-x="694" 
d="M511.5 689.5q70.5 -44.5 109 -129t38.5 -200.5q0 -115 -38 -198t-108 -126.5t-165 -43.5t-165.5 43.5t-109 126.5t-38.5 198q0 116 39 200.5t110 129t164 44.5t163.5 -44.5zM404.5 165q21.5 21 31 67.5t9.5 126.5q0 122 -22.5 173.5t-75.5 51.5q-52 0 -74.5 -51.5
t-22.5 -173.5q0 -79 9.5 -126t30.5 -68t57 -21t57.5 21z" />
    <glyph glyph-name="one.tf" horiz-adv-x="694" 
d="M612 180v-180h-530v180h177v336l-177 -39v164l296 82h88v-543h146z" />
    <glyph glyph-name="two.tf" horiz-adv-x="694" 
d="M60 136l222 184q70 59 101 88t41.5 48.5t10.5 44.5q0 33 -23 54t-62 21q-44 0 -75.5 -26t-42.5 -82h-183q0 77 34 136.5t102.5 94t168.5 34.5q88 0 152 -29t98.5 -81t34.5 -120q0 -54 -25.5 -94.5t-93.5 -102.5l-159 -146h285v-160h-586v136z" />
    <glyph glyph-name="three.tf" horiz-adv-x="694" 
d="M127 677q94 56 239 56q81 0 149 -24t107.5 -68t39.5 -101q0 -107 -129 -152q60 -16 106 -60t46 -113q0 -71 -48.5 -122t-122 -77t-147.5 -26q-161 0 -247.5 54.5t-86.5 193.5h184q10 -52 48 -74t85 -22q52 0 85 21.5t33 51.5q0 31 -27.5 53.5t-72.5 23.5l-98 2v150l86 5
q45 2 71.5 23t26.5 51q0 28 -30 46t-65 18q-60 0 -98.5 -18.5t-44.5 -78.5h-183q0 131 94 187z" />
    <glyph glyph-name="four.tf" horiz-adv-x="694" 
d="M557 723v-421h104v-164h-104v-138h-196l1 138h-316v157l318 428h193zM364 302v156l-116 -156h116z" />
    <glyph glyph-name="five.tf" horiz-adv-x="694" 
d="M613 723l-8 -156h-337l-11 -120q51 14 79.5 19.5t62.5 5.5q79 0 138.5 -28t92.5 -81.5t33 -126.5q0 -116 -80 -181t-219 -65q-110 0 -198 43t-129 112l145 98q27 -35 47 -55t47.5 -33t64.5 -13q52 0 81.5 24.5t29.5 62.5q0 37 -27.5 63t-80.5 26q-23 0 -43.5 -5.5
t-54.5 -20.5q-9 -4 -14 -4q-6 0 -15 5l-132 71l34 359h494z" />
    <glyph glyph-name="six.tf" horiz-adv-x="694" 
d="M507 705.5q64 -27.5 102 -79t38 -120.5h-176q-12 40 -36 58.5t-63 18.5q-52 0 -82.5 -38.5t-30.5 -93.5q0 -16 3 -33q54 33 145 33q75 0 132 -27t88.5 -76t31.5 -112q0 -69 -38.5 -124t-106 -86.5t-151.5 -31.5q-98 0 -170 43.5t-110 123t-38 184.5q0 120 39.5 207.5
t112 134t170.5 46.5q76 0 140 -27.5zM312.5 302q-22.5 -9 -37.5 -22t-15 -22q0 -61 25.5 -92t69.5 -31q40 0 70 26.5t30 65.5q0 43 -29.5 63.5t-69.5 20.5q-21 0 -43.5 -9z" />
    <glyph glyph-name="seven.tf" horiz-adv-x="694" 
d="M628 723v-199q-54 -60 -107.5 -150.5t-88 -190t-32.5 -183.5h-224q0 60 24.5 148t82.5 193t151 207h-385v175h579z" />
    <glyph glyph-name="eight.tf" horiz-adv-x="694" 
d="M492 706q64 -27 100 -73.5t36 -102.5q0 -55 -36.5 -87.5t-73.5 -45.5q43 -22 70 -40.5t49.5 -54t22.5 -88.5q0 -106 -86 -165t-232 -59q-134 0 -215.5 49t-81.5 138q0 66 37 102t94 56q-3 2 -31 20t-54.5 57.5t-26.5 89.5q0 63 34 115.5t98 84t152 31.5q80 0 144 -27z
M293 575.5q-23 -16.5 -23 -45.5q0 -39 47 -56l62 -22q8 -2 12 -2q23 0 41.5 24t18.5 49q0 28 -26.5 48.5t-72.5 20.5q-36 0 -59 -16.5zM423.5 148.5q23.5 16.5 23.5 45.5q0 21 -13.5 37t-49.5 29l-69 25q-7 3 -16 3q-26 0 -47.5 -22t-21.5 -53q0 -39 29.5 -60t96.5 -21
q44 0 67.5 16.5z" />
    <glyph glyph-name="nine.tf" horiz-adv-x="694" 
d="M191 20.5q-65 28.5 -104 80.5t-39 118h183q6 -36 29.5 -56.5t61.5 -20.5q62 0 100 33t38 109q0 9 -2 31q-49 -51 -153 -51q-75 0 -135.5 28t-95 79t-34.5 118q0 69 38.5 124t106 86.5t151.5 31.5q99 0 170.5 -43.5t109.5 -123t38 -184.5q0 -198 -85 -293t-238 -95
q-75 0 -140 28.5zM386.5 423q22.5 9 37.5 22t15 22q0 62 -25.5 93t-69.5 31q-39 0 -65.5 -26t-26.5 -67q0 -40 27 -62t64 -22q21 0 43.5 9z" />
    <glyph glyph-name="zero.subs" horiz-adv-x="423" 
d="M341.5 229q53.5 -63 53.5 -173q0 -109 -53 -170t-143 -61t-143 61t-53 170q0 110 53.5 173t142.5 63t142.5 -63zM247 -49q14 30 14 105q0 76 -14.5 108.5t-47.5 32.5t-47 -32.5t-14 -108.5q0 -74 13.5 -104.5t47.5 -30.5t48 30z" />
    <glyph glyph-name="one.subs" horiz-adv-x="309" 
d="M65 156l-75 -17v82l138 69h60v-455h-123v321z" />
    <glyph glyph-name="two.subs" horiz-adv-x="392" 
d="M9 -79l140 115q44 37 63.5 55.5t26 30.5t6.5 28q0 21 -14.5 34t-38.5 13q-28 0 -47.5 -16t-26.5 -52h-115q0 49 21 86.5t64.5 59t105.5 21.5q56 0 96 -18t62 -51t22 -76q0 -34 -16 -59.5t-59 -64.5l-100 -91h179v-101h-369v86z" />
    <glyph glyph-name="three.subs" horiz-adv-x="407" 
d="M71 257.5q59 35.5 150 35.5q52 0 94.5 -15t67.5 -42.5t25 -63.5q0 -68 -82 -96q38 -10 67 -37.5t29 -71.5q0 -45 -30.5 -77t-76.5 -48t-93 -16q-101 0 -155.5 34.5t-54.5 121.5h116q5 -33 29.5 -47t53.5 -14q33 0 54 13.5t21 32.5q0 20 -17.5 34t-45.5 15l-62 1v94l54 3
q29 1 45.5 14.5t16.5 32.5q0 17 -19 28.5t-41 11.5q-37 0 -61.5 -12t-28.5 -49h-115q0 82 59 117.5z" />
    <glyph glyph-name="four.subs" horiz-adv-x="423" 
d="M324 290v-265h66v-103h-66v-87h-123l1 87h-199v99l200 269h121zM203 25v98l-73 -98h73z" />
    <glyph glyph-name="five.subs" horiz-adv-x="409" 
d="M373 287l-5 -98h-212l-7 -76q32 9 50 12.5t39 3.5q75 0 120.5 -39.5t45.5 -109.5q0 -72 -50.5 -113t-137.5 -41q-69 0 -124.5 27t-81.5 70l92 62q25 -33 46 -48.5t54 -15.5t51.5 16t18.5 39t-17.5 39.5t-50.5 16.5q-15 0 -28 -3.5t-34 -12.5q-6 -3 -9 -3t-9 3l-83 45
l21 226h311z" />
    <glyph glyph-name="six.subs" horiz-adv-x="411" 
d="M292 273.5q40 -17.5 64 -49.5t24 -76h-111q-14 49 -62 49q-33 0 -52.5 -24.5t-19.5 -59.5q0 -6 2 -20q35 21 92 21q71 0 114.5 -38t43.5 -98q0 -43 -24 -77.5t-66.5 -54.5t-95.5 -20q-93 0 -146.5 60.5t-53.5 160.5q0 114 54.5 179t148.5 65q48 0 88 -17.5zM156 14
q-20 -12 -20 -22q0 -38 16.5 -57.5t43.5 -19.5q25 0 44 16.5t19 41.5q0 27 -18.5 40t-43.5 13q-21 0 -41 -12z" />
    <glyph glyph-name="seven.subs" horiz-adv-x="373" 
d="M377 290v-125q-34 -38 -67.5 -95t-55.5 -119.5t-21 -115.5h-131q0 38 15.5 96.5t52 127.5t95.5 133h-246v98h358z" />
    <glyph glyph-name="eight.subs" horiz-adv-x="409" 
d="M284 276q40 -17 63 -46t23 -65q0 -34 -23 -55t-47 -28q27 -14 44.5 -25.5t31.5 -34t14 -55.5q0 -67 -54 -104t-146 -37q-85 0 -136 30.5t-51 86.5q0 42 23.5 64.5t58.5 35.5q-2 1 -36 22.5t-34 82.5q0 40 21.5 73t62 52.5t95.5 19.5q50 0 90 -17zM158.5 193.5
q-14.5 -10.5 -14.5 -28.5q0 -11 8 -20.5t22 -14.5l39 -14q16 -5 30.5 11t14.5 34t-16.5 30.5t-45.5 12.5q-23 0 -37.5 -10.5zM241 -74.5q15 10.5 15 28.5q0 13 -8.5 23.5t-31.5 18.5l-43 15q-6 2 -10 2q-17 0 -30.5 -13.5t-13.5 -33.5q0 -51 80 -51q27 0 42 10.5z" />
    <glyph glyph-name="nine.subs" horiz-adv-x="411" 
d="M101.5 -157q-40.5 18 -65 50.5t-24.5 74.5h115q4 -23 18.5 -36t38.5 -13q40 0 63.5 21t23.5 69q0 12 -1 19q-32 -32 -97 -32q-72 0 -119 39t-47 103q0 43 24 78t66.5 54.5t95.5 19.5q93 0 146.5 -60t53.5 -161q0 -125 -53.5 -184.5t-149.5 -59.5q-48 0 -88.5 18zM238 102
q20 12 20 22q0 38 -16.5 58t-43.5 20q-24 0 -41 -16.5t-17 -42.5q0 -25 17 -39t40 -14q21 0 41 12z" />
    <glyph glyph-name="zero.dnom" horiz-adv-x="423" 
d="M341.5 394q53.5 -63 53.5 -173q0 -109 -53 -170t-143 -61t-143 61t-53 170q0 110 53.5 173t142.5 63t142.5 -63zM247 116q14 30 14 105q0 76 -14.5 108.5t-47.5 32.5t-47 -32.5t-14 -108.5q0 -74 13.5 -104.5t47.5 -30.5t48 30z" />
    <glyph glyph-name="one.dnom" horiz-adv-x="309" 
d="M65 321l-75 -17v82l138 69h60v-455h-123v321z" />
    <glyph glyph-name="two.dnom" horiz-adv-x="392" 
d="M9 86l140 115q44 37 63.5 55.5t26 30.5t6.5 28q0 21 -14.5 34t-38.5 13q-28 0 -47.5 -16t-26.5 -52h-115q0 49 21 86.5t64.5 59t105.5 21.5q56 0 96 -18t62 -51t22 -76q0 -34 -16 -59.5t-59 -64.5l-100 -91h179v-101h-369v86z" />
    <glyph glyph-name="three.dnom" horiz-adv-x="407" 
d="M71 422.5q59 35.5 150 35.5q52 0 94.5 -15t67.5 -42.5t25 -63.5q0 -68 -82 -96q38 -10 67 -37.5t29 -71.5q0 -45 -30.5 -77t-76.5 -48t-93 -16q-101 0 -155.5 34.5t-54.5 121.5h116q5 -33 29.5 -47t53.5 -14q33 0 54 13.5t21 32.5q0 20 -17.5 34t-45.5 15l-62 1v94l54 3
q29 1 45.5 14.5t16.5 32.5q0 17 -19 28.5t-41 11.5q-37 0 -61.5 -12t-28.5 -49h-115q0 82 59 117.5z" />
    <glyph glyph-name="four.dnom" horiz-adv-x="423" 
d="M324 455v-265h66v-103h-66v-87h-123l1 87h-199v99l200 269h121zM203 190v98l-73 -98h73z" />
    <glyph glyph-name="five.dnom" horiz-adv-x="409" 
d="M373 452l-5 -98h-212l-7 -76q32 9 50 12.5t39 3.5q75 0 120.5 -39.5t45.5 -109.5q0 -72 -50.5 -113t-137.5 -41q-69 0 -124.5 27t-81.5 70l92 62q25 -33 46 -48.5t54 -15.5t51.5 16t18.5 39t-17.5 39.5t-50.5 16.5q-15 0 -28 -3.5t-34 -12.5q-6 -3 -9 -3t-9 3l-83 45
l21 226h311z" />
    <glyph glyph-name="six.dnom" horiz-adv-x="411" 
d="M292 438.5q40 -17.5 64 -49.5t24 -76h-111q-14 49 -62 49q-33 0 -52.5 -24.5t-19.5 -59.5q0 -6 2 -20q35 21 92 21q71 0 114.5 -38t43.5 -98q0 -43 -24 -77.5t-66.5 -54.5t-95.5 -20q-93 0 -146.5 60.5t-53.5 160.5q0 114 54.5 179t148.5 65q48 0 88 -17.5zM156 179
q-20 -12 -20 -22q0 -38 16.5 -57.5t43.5 -19.5q25 0 44 16.5t19 41.5q0 27 -18.5 40t-43.5 13q-21 0 -41 -12z" />
    <glyph glyph-name="seven.dnom" horiz-adv-x="373" 
d="M377 455v-125q-34 -38 -67.5 -95t-55.5 -119.5t-21 -115.5h-131q0 38 15.5 96.5t52 127.5t95.5 133h-246v98h358z" />
    <glyph glyph-name="eight.dnom" horiz-adv-x="409" 
d="M284 440q40 -17 63 -46t23 -65q0 -34 -23 -55t-47 -28q27 -14 44.5 -25.5t31.5 -34t14 -55.5q0 -67 -54 -104t-146 -37q-85 0 -136 30.5t-51 86.5q0 42 23.5 64.5t58.5 35.5q-2 1 -36 22.5t-34 82.5q0 40 21.5 73t62 52.5t95.5 19.5q50 0 90 -17zM158.5 357.5
q-14.5 -10.5 -14.5 -28.5q0 -11 8 -20.5t22 -14.5l39 -14q16 -5 30.5 11t14.5 34t-16.5 30.5t-45.5 12.5q-23 0 -37.5 -10.5zM241 89.5q15 10.5 15 28.5q0 13 -8.5 23.5t-31.5 18.5l-43 15q-6 2 -10 2q-17 0 -30.5 -13.5t-13.5 -33.5q0 -51 80 -51q27 0 42 10.5z" />
    <glyph glyph-name="nine.dnom" horiz-adv-x="411" 
d="M101.5 8q-40.5 18 -65 50.5t-24.5 74.5h115q4 -23 18.5 -36t38.5 -13q40 0 63.5 21t23.5 69q0 12 -1 19q-32 -32 -97 -32q-72 0 -119 39t-47 103q0 43 24 78t66.5 54.5t95.5 19.5q93 0 146.5 -60t53.5 -161q0 -125 -53.5 -184.5t-149.5 -59.5q-48 0 -88.5 18zM238 267
q20 12 20 22q0 38 -16.5 58t-43.5 20q-24 0 -41 -16.5t-17 -42.5q0 -25 17 -39t40 -14q21 0 41 12z" />
    <glyph glyph-name="zero.numr" horiz-adv-x="423" 
d="M341.5 678q53.5 -63 53.5 -173q0 -109 -53 -170t-143 -61t-143 61t-53 170q0 110 53.5 173t142.5 63t142.5 -63zM247 400q14 30 14 105q0 76 -14.5 108.5t-47.5 32.5t-47 -32.5t-14 -108.5q0 -74 13.5 -104.5t47.5 -30.5t48 30z" />
    <glyph glyph-name="one.numr" horiz-adv-x="309" 
d="M65 597l-75 -17v82l138 69h60v-455h-123v321z" />
    <glyph glyph-name="two.numr" horiz-adv-x="392" 
d="M9 365l140 115q44 36 63.5 55t26 31.5t6.5 27.5q0 21 -14.5 34t-38.5 13q-27 0 -47.5 -16t-26.5 -52h-115q0 75 48.5 121t142.5 46q83 0 131.5 -39.5t48.5 -105.5q0 -34 -16 -59t-59 -65l-100 -91h179v-101h-369v86z" />
    <glyph glyph-name="three.numr" horiz-adv-x="407" 
d="M71 704.5q59 35.5 150 35.5q52 0 94.5 -15t67.5 -42.5t25 -63.5q0 -68 -82 -96q38 -10 67 -37.5t29 -71.5q0 -45 -30.5 -77t-76.5 -48t-93 -16q-101 0 -155.5 34.5t-54.5 121.5h116q5 -33 29.5 -47t53.5 -14q33 0 54 13.5t21 32.5q0 20 -17.5 34t-45.5 15l-62 1v94l54 3
q29 1 45.5 14.5t16.5 32.5q0 17 -19 28.5t-41 11.5q-37 0 -61.5 -12t-28.5 -49h-115q0 82 59 117.5z" />
    <glyph glyph-name="four.numr" horiz-adv-x="423" 
d="M324 731v-265h66v-103h-66v-87h-123l1 87h-199v99l200 269h121zM203 466v98l-73 -98h73z" />
    <glyph glyph-name="five.numr" horiz-adv-x="409" 
d="M373 731l-5 -98h-212l-7 -76q32 9 50 12.5t39 3.5q75 0 120.5 -39.5t45.5 -109.5q0 -72 -50.5 -113t-137.5 -41q-69 0 -124.5 27t-81.5 70l92 62q25 -33 46 -48.5t54 -15.5t51.5 16t18.5 39t-17.5 39.5t-50.5 16.5q-15 0 -28 -3.5t-34 -12.5q-6 -3 -9 -3t-9 3l-83 45
l21 226h311z" />
    <glyph glyph-name="six.numr" horiz-adv-x="411" 
d="M292 723.5q40 -17.5 64 -49.5t24 -76h-111q-14 49 -62 49q-33 0 -52.5 -24.5t-19.5 -59.5q0 -6 2 -20q35 21 92 21q71 0 114.5 -38t43.5 -98q0 -43 -24 -77.5t-66.5 -54.5t-95.5 -20q-93 0 -146.5 60.5t-53.5 160.5q0 114 54.5 179t148.5 65q48 0 88 -17.5zM156 464
q-20 -12 -20 -22q0 -38 16.5 -57.5t43.5 -19.5q25 0 44 16.5t19 41.5q0 27 -18.5 40t-43.5 13q-21 0 -41 -12z" />
    <glyph glyph-name="seven.numr" horiz-adv-x="373" 
d="M377 730v-125q-34 -38 -67.5 -95t-55.5 -119.5t-21 -115.5h-131q0 38 15.5 96.5t52 127.5t95.5 133h-246v98h358z" />
    <glyph glyph-name="eight.numr" horiz-adv-x="409" 
d="M284 723q40 -17 63 -46t23 -65q0 -34 -23 -55t-47 -28q27 -14 44.5 -25.5t31.5 -34t14 -55.5q0 -67 -54 -104t-146 -37q-85 0 -136 30.5t-51 86.5q0 42 23.5 64.5t58.5 35.5q-2 1 -36 22.5t-34 82.5q0 40 21.5 73t62 52.5t95.5 19.5q50 0 90 -17zM158.5 640.5
q-14.5 -10.5 -14.5 -28.5q0 -11 8 -20.5t22 -14.5l39 -14q16 -5 30.5 11t14.5 34t-16.5 30.5t-45.5 12.5q-23 0 -37.5 -10.5zM241 372.5q15 10.5 15 28.5q0 13 -8.5 23.5t-31.5 18.5l-43 15q-6 2 -10 2q-17 0 -30.5 -13.5t-13.5 -33.5q0 -51 80 -51q27 0 42 10.5z" />
    <glyph glyph-name="nine.numr" horiz-adv-x="411" 
d="M101.5 293q-40.5 18 -65 50.5t-24.5 74.5h115q4 -23 18.5 -36t38.5 -13q40 0 63.5 21t23.5 69q0 12 -1 19q-32 -32 -97 -32q-72 0 -119 39t-47 103q0 43 24 78t66.5 54.5t95.5 19.5q93 0 146.5 -60t53.5 -161q0 -125 -53.5 -184.5t-149.5 -59.5q-48 0 -88.5 18zM238 552
q20 12 20 22q0 38 -16.5 58t-43.5 20q-24 0 -41 -16.5t-17 -42.5q0 -25 17 -39t40 -14q21 0 41 12z" />
    <glyph glyph-name="comma.tf" horiz-adv-x="301" 
d="M126 -6l-58 7v169h177v-150l-115 -173h-64z" />
    <glyph glyph-name="period.tf" horiz-adv-x="301" 
d="M266 0h-205v196h205v-196z" />
    <glyph glyph-name="bullet.uc" horiz-adv-x="377" 
d="M105.5 237.5q-34.5 20.5 -54.5 55t-20 75.5q0 40 20 74.5t54.5 55t75.5 20.5t75.5 -20.5t55 -55t20.5 -74.5q0 -41 -20.5 -75.5t-55 -55t-75.5 -20.5t-75.5 20.5z" />
    <glyph glyph-name="caroncomb.alt" horiz-adv-x="0" 
d="M-164.5 488q-2.5 5 -0.5 10l30 75q3 8 3 12q0 8 -10 9l-12 2q-9 1 -13 4.5t-4 11.5v96q0 15 13 15h95q13 0 13 -12v-115q0 -4 -3 -10l-37 -88q-3 -8 -9.5 -11.5t-20.5 -3.5h-36q-6 0 -8.5 5z" />
    </font>
</defs>
</svg>
