<?xml version="1.0" standalone="no"?>
<!DOCTYPE svg PUBLIC "-//W3C//DTD SVG 1.1//EN" "http://www.w3.org/Graphics/SVG/1.1/DTD/svg11.dtd" >
<svg xmlns="http://www.w3.org/2000/svg" xmlns:xlink="http://www.w3.org/1999/xlink" version="1.1">
<metadata>
Created by FontForge 20170731 at Thu Oct  4 21:59:24 2018
 By Aleksey,,,
</metadata>
<defs>
<font id="CheyenneSans-Regular" horiz-adv-x="587" >
  <font-face 
    font-family="Cheyenne Sans"
    font-weight="400"
    font-stretch="normal"
    units-per-em="1000"
    panose-1="0 0 5 0 0 0 0 0 0 0"
    ascent="800"
    descent="-200"
    x-height="517"
    cap-height="723"
    bbox="-364 -233 1256 987"
    underline-thickness="50"
    underline-position="-200"
    unicode-range="U+000D-FB02"
  />
<missing-glyph horiz-adv-x="686" 
d="M590 805v-938q0 -15 -7.5 -21.5t-24.5 -6.5h-436q-15 0 -21 5.5t-6 18.5v940q0 11 5 17t14 6h459q17 0 17 -21zM536 772.5q-4 4.5 -11 4.5h-344l359 -834v817q0 8 -4 12.5zM151 -107q5 -5 17 -5h335l-357 828v-808q0 -10 5 -15z" />
    <glyph glyph-name="fi" unicode="fi" horiz-adv-x="640" 
d="M353 454h-128v-454h-85v454h-111v63h111v81q0 125 123 125h95v-62h-78q-31 0 -43.5 -16.5t-12.5 -52.5v-75h129v-63zM560 627h-92v116h92v-116zM557 0h-86v517h86v-517z" />
    <glyph glyph-name="fl" unicode="fl" horiz-adv-x="677" 
d="M353 454h-128v-454h-85v454h-111v63h111v81q0 125 123 125h95v-62h-78q-31 0 -43.5 -16.5t-12.5 -52.5v-75h129v-63zM494.5 34q-26.5 37 -26.5 101v608h84v-600q0 -40 15.5 -60t42.5 -22h29v-56q-24 -8 -45 -8q-73 0 -99.5 37z" />
    <glyph glyph-name="f_f.liga" unicode="ff" horiz-adv-x="793" 
d="M747 454h-128v-454h-86v454h-111v63h111v81q0 61 31 93t93 32h95v-62h-78q-32 0 -44.5 -16.5t-12.5 -52.5v-75h130v-63zM355 454h-128v-454h-86v454h-111v63h111v75q0 61 31 93t93 32h95v-62h-78q-32 0 -44 -16.5t-12 -52.5v-69h129v-63z" />
    <glyph glyph-name="colon_one_eight_F_colon.liga" unicode="&#x3a;&#x31;&#x38;F&#x3a;" horiz-adv-x="766" 
d="M752 761q11 0 11 -12v-736q0 -13 -11 -13h-737q-12 0 -12 13v736q0 12 12 12h737zM431 259.5q25 25.5 25 60.5q0 45 -37 70q27 26 27 58q0 31 -22.5 53t-52.5 22q-33 0 -55 -22t-22 -53t27 -58q-37 -25 -37 -70q0 -35 25.5 -60.5t61.5 -25.5q35 0 60 25.5zM242 515
q0 5 -4 5h-67q-4 0 -4 -5v-26q0 -4 4 -4h36v-242q0 -4 4 -4h27q4 0 4 4v272zM611 515q0 5 -4 5h-105q-4 0 -4 -5v-272q0 -4 4 -4h26q6 0 6 4v124h61q4 0 4 4v25q0 5 -4 5h-61v84h73q4 0 4 4v26zM341 419q-12 11 -12 29q0 17 12 29t30 12q17 0 28.5 -12t11.5 -29
q0 -18 -11.5 -29t-28.5 -11q-18 0 -30 11zM406.5 356.5q14.5 -14.5 14.5 -36.5q0 -21 -14.5 -36t-35.5 -15q-22 0 -37 15t-15 36q0 22 15 36.5t37 14.5q21 0 35.5 -14.5z" />
    <glyph glyph-name="colon_f_l_a_g_two_colon.liga" unicode="&#x3a;flag&#x32;&#x3a;" horiz-adv-x="1151" 
d="M1109 761v-760h-1067v760h1067zM1046 698h-535v-53h535v53zM199 585v59h-62v-59h62zM433 585v59h-61v-59h61zM316 527v58h-61v-58h61zM1046 528v55h-535v-55h535zM199 468v59h-61v-59h61zM372 527v-59h61v59h-61zM255 468v-58h61v58h-61zM1046 411v55h-535v-55h535z
M138 410v-59h61v59h-61zM372 410v-59h61v59h-61zM1046 294v55h-535v-55h535zM103 232v-55h943v55h-943zM1046 63v52h-942v-52h942z" />
    <glyph glyph-name="colon_f_l_a_g_colon.liga" unicode="&#x3a;flag&#x3a;" horiz-adv-x="1151" 
d="M1109 761v-760h-1067v760h1067zM100 702v-409h950v58h-540v59h540v58h-540v59h540v58h-540v59h540v58h-950zM217 585h-58v59h58v-59zM451 585h-58v59h58v-59zM334 527h-58v58h58v-58zM217 468h-58v59h58v-59zM451 468h-58v59h58v-59zM334 410h-58v58h58v-58zM217 351h-58
v59h58v-59zM451 351h-58v59h58v-59zM100 234v-58h950v58h-950zM1050 59v58h-950v-58h950z" />
    <glyph glyph-name=".notdef" horiz-adv-x="686" 
d="M590 805v-938q0 -15 -7.5 -21.5t-24.5 -6.5h-436q-15 0 -21 5.5t-6 18.5v940q0 11 5 17t14 6h459q17 0 17 -21zM536 772.5q-4 4.5 -11 4.5h-344l359 -834v817q0 8 -4 12.5zM151 -107q5 -5 17 -5h335l-357 828v-808q0 -10 5 -15z" />
    <glyph glyph-name="uni0000" horiz-adv-x="26" 
 />
    <glyph glyph-name="uni0000" horiz-adv-x="26" 
 />
    <glyph glyph-name="nonmarkingreturn" unicode="&#xd;" horiz-adv-x="232" 
 />
    <glyph glyph-name="space" unicode=" " horiz-adv-x="268" 
 />
    <glyph glyph-name="exclam" unicode="!" horiz-adv-x="248" 
d="M152 179h-59l-22 544h103zM174 0h-104v112h104v-112z" />
    <glyph glyph-name="quotedbl" unicode="&#x22;" horiz-adv-x="411" 
d="M325 496h-50l-28 227h107zM153 496h-50l-28 227h107z" />
    <glyph glyph-name="numbersign" unicode="#" horiz-adv-x="597" 
d="M443 441l-23 -151h107v-54h-115l-36 -238l-54 8l35 230h-149l-36 -238l-54 8l35 230h-118v54h126l23 151h-117v54h125l35 229l54 -6l-34 -223h149l35 229l54 -6l-34 -223h108v-54h-116zM388 441h-149l-23 -151h149z" />
    <glyph glyph-name="dollar" unicode="$" horiz-adv-x="600" 
d="M532.5 87q-25.5 -42 -72.5 -67t-108 -27q-7 -1 -9 -3t-2 -8v-67h-63v77q-85 2 -144 31.5t-105 89.5l56 50q40 -49 85 -73.5t109 -27.5v259q-82 28 -130 57.5t-69 66.5t-21 87q0 78 56.5 131t150.5 65q12 2 12 11v56h62v-65q60 -9 108.5 -33t90.5 -62l-53 -56
q-21 28 -57.5 49t-78.5 28h-3q-7 0 -7 -8v-253l49 -16q83 -33 126 -81t43 -117q0 -52 -25.5 -94zM281 659q-30 0 -63 -14t-55.5 -42t-22.5 -66q0 -36 21.5 -61t49.5 -39t67 -28zM439.5 95q37.5 32 37.5 79q0 46 -32 76.5t-105 56.5v-245q62 1 99.5 33z" />
    <glyph glyph-name="percent" unicode="%" horiz-adv-x="901" 
d="M311.5 708.5q38.5 -25.5 60 -72.5t21.5 -109t-21.5 -109t-59.5 -72t-87 -25t-87.5 25t-60.5 72t-22 109t22 109t61 72.5t87 25.5t86.5 -25.5zM252 -4l-60 1l488 734h58zM300 412.5q27 42.5 27 114.5t-27.5 115.5t-75.5 43.5t-75.5 -44t-27.5 -115t27.5 -114t75.5 -43
q49 0 76 42.5zM762.5 378.5q38.5 -25.5 60 -72.5t21.5 -109q0 -63 -21.5 -110t-60 -72t-87.5 -25t-87.5 25t-60.5 72t-22 110q0 62 22 109t61 72.5t87 25.5q49 0 87.5 -25.5zM749 83.5q28 43.5 28 112.5q0 70 -28 114t-75 44t-75 -44.5t-28 -113.5t28 -112.5t75 -43.5
t75 43.5z" />
    <glyph glyph-name="ampersand" unicode="&#x26;" horiz-adv-x="696" 
d="M401 715q45 -19 71.5 -54t26.5 -81q0 -44 -38 -94.5t-134 -101.5l164 -192q22 31 42 81t23 114h84q-9 -71 -35.5 -128t-70.5 -119l119 -140h-100l-71 82q-104 -87 -225 -87q-102 0 -159 51t-57 136q0 69 41 120.5t129 98.5q-46 49 -68 89.5t-22 85.5q0 44 23.5 80t65 57
t94.5 21q52 0 97 -19zM233.5 646.5q-26.5 -26.5 -26.5 -65.5q0 -34 20 -69t43 -60l18 -19q76 44 104 77t28 69q0 49 -33 72t-80 23q-47 -1 -73.5 -27.5zM168 277.5q-32 -39.5 -32 -86.5q0 -56 40.5 -91.5t98.5 -35.5q43 0 87 19t77 52l-184 213q-55 -31 -87 -70.5z" />
    <glyph glyph-name="quotesingle" unicode="'" horiz-adv-x="247" 
d="M148 496h-50l-28 227h107z" />
    <glyph glyph-name="parenleft" unicode="(" horiz-adv-x="298" 
d="M187 504.5q-32 -114.5 -32 -227.5q0 -110 27 -216.5t82 -221.5h-58q-67 115 -101 217t-34 222q0 119 38.5 233t104.5 212h59q-54 -104 -86 -218.5z" />
    <glyph glyph-name="parenright" unicode=")" horiz-adv-x="305" 
d="M104 504.5q32 -114.5 32 -227.5q0 -110 -27 -216.5t-82 -221.5h58q67 115 101 217t34 222q0 119 -38.5 233t-104.5 212h-59q54 -104 86 -218.5z" />
    <glyph glyph-name="asterisk" unicode="*" horiz-adv-x="384" 
d="M195 518l-80 -128l-52 35l94 117l-130 37l20 55l124 -50l-9 139h65l-9 -139l125 54l18 -55l-127 -41l91 -112l-52 -37z" />
    <glyph glyph-name="plus" unicode="+" horiz-adv-x="551" 
d="M488 330h-179v-179h-67v178h-181v68h180v180h67v-180h180v-67z" />
    <glyph glyph-name="comma" unicode="," horiz-adv-x="233" 
d="M97 -2l-43 2v107h112v-93l-83 -138h-42z" />
    <glyph glyph-name="hyphen" unicode="-" horiz-adv-x="380" 
d="M314 224h-251v68l251 1v-69z" />
    <glyph glyph-name="period" unicode="." horiz-adv-x="221" 
d="M161 0h-105v113h105v-113z" />
    <glyph glyph-name="slash" unicode="/" horiz-adv-x="344" 
d="M262 723h68l-250 -764h-68z" />
    <glyph glyph-name="zero" unicode="0" horiz-adv-x="636" 
d="M458 690.5q61 -42.5 95.5 -126.5t34.5 -204t-34.5 -203t-95.5 -124.5t-140 -41.5t-140 41.5t-95.5 124t-34.5 202.5t35 204.5t96 127t140 42.5q78 0 139 -42.5zM447.5 137q45.5 72 45.5 223q0 153 -46.5 226.5t-128.5 73.5t-128.5 -74t-46.5 -226q0 -150 47 -222.5
t129 -72.5q83 0 128.5 72z" />
    <glyph glyph-name="one" unicode="1" horiz-adv-x="382" 
d="M176 622l-141 -50v66l172 85h58v-723h-89v622z" />
    <glyph glyph-name="two" unicode="2" horiz-adv-x="576" 
d="M43 76l234 227q58 56 89.5 92t46 67.5t14.5 66.5q0 64 -43 96t-100 32q-53 0 -98 -25t-70 -78l-77 20q29 77 92.5 118t156.5 41q66 0 118 -24t81.5 -69.5t29.5 -108.5q0 -43 -15 -79.5t-47 -76.5t-91 -99l-201 -199h362v-77h-482v76z" />
    <glyph glyph-name="three" unicode="3" horiz-adv-x="632" 
d="M156 698q69 35 157 35q71 0 127.5 -24t88 -65.5t31.5 -93.5q0 -116 -140 -165q75 -20 118.5 -68t43.5 -117q0 -60 -35.5 -108t-99 -75t-143.5 -27q-98 0 -162.5 32.5t-99.5 110.5l78 20q60 -89 182 -89q85 0 134.5 37.5t49.5 96.5q0 44 -25 76t-66.5 49t-88.5 17l-98 1
v72l82 2q49 0 89.5 17.5t64 47t23.5 65.5q0 32 -20.5 59t-56 42t-78.5 15q-123 0 -172 -89l-76 20q23 71 92 106z" />
    <glyph glyph-name="four" unicode="4" horiz-adv-x="619" 
d="M468 723v-457h113v-78h-113v-188h-86l1 188h-339v81l336 454h88zM380 266v331l-246 -331h246z" />
    <glyph glyph-name="five" unicode="5" horiz-adv-x="645" 
d="M552 723l-6 -75h-354l-19 -241q50 26 87 38.5t87 12.5q67 0 122 -24t87.5 -74t32.5 -123q0 -76 -35.5 -132t-98 -85.5t-143.5 -29.5q-79 0 -148 29.5t-115 84.5l63 51q48 -48 88 -70t100 -22q91 0 143 47.5t52 123.5q0 73 -46.5 111.5t-118.5 38.5q-45 0 -82 -14.5
t-83 -41.5q-6 -3 -9 -3q-2 0 -4 1.5t-5 2.5l-59 34l30 360h434z" />
    <glyph glyph-name="six" unicode="6" horiz-adv-x="613" 
d="M479 699.5q58 -39.5 77 -102.5l-72 -22q-27 45 -59 68t-88 23q-92 0 -143 -79t-51 -227q0 -29 1 -44q19 56 72 89t119 33q72 0 124 -28.5t79 -78t27 -110.5q0 -67 -32 -118t-88.5 -78.5t-126.5 -27.5q-84 0 -145 42.5t-93.5 123.5t-32.5 194q0 118 34.5 204t99.5 132
t155 46q85 0 143 -39.5zM241 352q-38 -16 -61 -46t-23 -68q13 -85 54 -127.5t106 -42.5q67 0 111.5 42t44.5 107q0 42 -18.5 76.5t-52.5 54.5t-79 20q-44 0 -82 -16z" />
    <glyph glyph-name="seven" unicode="7" horiz-adv-x="573" 
d="M540 723v-88q-63 -87 -124.5 -208t-103.5 -237t-51 -190h-96q13 76 48.5 183.5t95.5 230.5t140 234h-414v75h505z" />
    <glyph glyph-name="eight" unicode="8" horiz-adv-x="621" 
d="M433 708q54 -25 84 -70.5t30 -103.5q0 -67 -37.5 -105.5t-74.5 -57.5q6 -2 45.5 -18.5t69 -58.5t29.5 -102q0 -61 -34 -107t-95.5 -70.5t-143.5 -24.5q-122 0 -193 50t-71 139q0 53 33 101t102 80q-39 17 -77.5 53t-38.5 110q0 59 31.5 107t88 75.5t128.5 27.5
q70 0 124 -25zM230.5 645q-35.5 -17 -56 -47t-20.5 -67q0 -86 99 -109l99 -24q19 -4 45.5 16t46 53.5t19.5 67.5q0 57 -41.5 92t-111.5 35q-44 0 -79.5 -17zM437.5 95.5q47.5 34.5 47.5 92.5q0 45 -24.5 72.5t-78.5 40.5l-124 31q-3 1 -9 1q-22 0 -51 -19.5t-49.5 -52
t-20.5 -70.5q0 -61 47 -95.5t135 -34.5q80 0 127.5 34.5z" />
    <glyph glyph-name="nine" unicode="9" horiz-adv-x="613" 
d="M130.5 30.5q-58.5 39.5 -77.5 102.5l74 21q26 -44 57.5 -67.5t86.5 -23.5q96 0 149.5 78.5t53.5 235.5q0 25 -1 39q-19 -59 -71.5 -93.5t-122.5 -34.5q-72 0 -125 29t-81 79t-28 113q0 67 32 117.5t88.5 78t127.5 27.5q84 0 145 -42.5t93.5 -123t32.5 -193.5
q0 -184 -76 -283t-214 -99q-85 0 -143.5 39.5zM369.5 379q38.5 17 61.5 47t23 66q-14 84 -55 127t-106 43q-67 0 -110.5 -42t-43.5 -107q0 -41 18 -75.5t51.5 -55t78.5 -20.5q44 0 82.5 17z" />
    <glyph glyph-name="colon" unicode=":" horiz-adv-x="221" 
d="M161 383h-105v112h105v-112zM161 3h-105v112h105v-112z" />
    <glyph glyph-name="semicolon" unicode=";" horiz-adv-x="243" 
d="M58 494h104v-113h-104v113zM102 0h-41v112h105v-99l-82 -154h-38z" />
    <glyph glyph-name="less" unicode="&#x3c;" horiz-adv-x="546" 
d="M473 143l-417 163v80l418 166v-83l-314 -123l313 -122v-81z" />
    <glyph glyph-name="equal" unicode="=" horiz-adv-x="551" 
d="M488 427l-427 -1v67l427 1v-67zM488 206l-427 -1v67l427 1v-67z" />
    <glyph glyph-name="greater" unicode="&#x3e;" horiz-adv-x="546" 
d="M383 346l-314 123v83l417 -166v-80l-416 -163v81z" />
    <glyph glyph-name="question" unicode="?" horiz-adv-x="518" 
d="M119.5 695.5q62.5 37.5 141.5 37.5q65 0 115 -22t77 -61.5t27 -90.5q0 -40 -13.5 -72.5t-33 -57t-53.5 -60.5q-33 -35 -53 -59.5t-33.5 -57t-13.5 -71.5h-74q0 48 14.5 86.5t35 67t54.5 66.5q42 47 62 80t20 75q0 51 -36 80.5t-96 29.5q-50 0 -96 -28.5t-62 -70.5l-77 24
q32 67 94.5 104.5zM295 0h-103v112h103v-112z" />
    <glyph glyph-name="at" unicode="@" horiz-adv-x="820" 
d="M551 -90q-59 -20 -126 -20q-115 0 -200.5 48.5t-131 131.5t-45.5 184q0 106 49.5 195t139 142t203.5 53q90 0 168.5 -34t127.5 -104.5t49 -174.5q0 -73 -24.5 -130.5t-67.5 -89.5t-97 -32q-73 0 -88 52q-3 6 -5 6q-1 0 -6 -5q-51 -67 -135 -67q-38 0 -69.5 21.5
t-50.5 60.5t-19 90q0 62 24 113.5t67.5 82t97.5 30.5q74 0 113 -61q2 -2 4 -1.5t3 4.5l8 33h60l-37 -223q-3 -18 -3 -31q0 -24 10.5 -34.5t30.5 -10.5q32 0 59 22.5t43 65t16 98.5q0 90 -40 148.5t-103.5 85.5t-135.5 27q-102 0 -175.5 -44.5t-112 -120.5t-38.5 -167
q0 -88 38 -157.5t111 -109.5t176 -40q42 0 73.5 8t53.5 20t56 35l34 -45q-46 -35 -105 -55zM317 159q21 -31 59 -31q35 0 65 23t47.5 60.5t17.5 79.5q0 52 -26 81t-63 29q-53 0 -87 -46t-34 -113q0 -52 21 -83z" />
    <glyph glyph-name="A" unicode="A" horiz-adv-x="696" 
d="M299 723h99l261 -723h-87l-73 202h-300l-74 -202h-88zM475 282l-126 356l-128 -356h254z" />
    <glyph glyph-name="B" unicode="B" horiz-adv-x="666" 
d="M95 723h229q130 0 198 -48.5t68 -139.5q0 -60 -31.5 -100.5t-103.5 -65.5q153 -32 153 -175q0 -194 -277 -194h-236v723zM341 403q69 0 117.5 28t48.5 93q0 63 -48.5 95t-131.5 32h-146v-248h160zM329 73q192 0 192 124q0 67 -50 99.5t-130 32.5h-160v-256h148z" />
    <glyph glyph-name="C" unicode="C" horiz-adv-x="681" 
d="M489 704q60 -29 96 -78.5t43 -109.5l-91 -5q-13 67 -59.5 107t-124.5 40q-101 0 -153 -74t-52 -222q0 -147 53 -221.5t158 -74.5q67 0 114.5 39t61.5 105l90 -8q-7 -59 -41 -107.5t-92 -76.5t-132 -28q-97 0 -166 45t-105 129t-36 199t35.5 198.5t103 127.5t162.5 44
q75 0 135 -29z" />
    <glyph glyph-name="D" unicode="D" horiz-adv-x="685" 
d="M257 722q196 -2 286 -91t90 -265q0 -183 -95 -274.5t-291 -91.5h-152v723q101 0 162 -1zM184 75h63q146 0 221 68t75 221q0 154 -73.5 219t-218.5 65h-67v-573z" />
    <glyph glyph-name="E" unicode="E" horiz-adv-x="621" 
d="M95 723h451v-76h-365v-244h330v-76h-330v-249l375 -1v-77h-461v723z" />
    <glyph glyph-name="F" unicode="F" horiz-adv-x="580" 
d="M540 723v-76h-356v-246h321v-75h-321v-326h-89v723h445z" />
    <glyph glyph-name="G" unicode="G" horiz-adv-x="725" 
d="M195.5 34.5q-68.5 44.5 -105.5 128t-37 196.5q0 116 38 200.5t107.5 129t162.5 44.5q69 0 129.5 -30t98 -79.5t41.5 -106.5l-93 -6q-12 63 -60.5 104t-116.5 41q-101 0 -158 -75.5t-57 -215.5q0 -148 58 -222.5t159 -74.5q59 0 101 27t64 67t24 80l2 67h-179v64l268 -1
v-372h-66v112q-32 -54 -86 -88t-133 -34q-93 0 -161.5 44.5z" />
    <glyph glyph-name="H" unicode="H" horiz-adv-x="707" 
d="M181 336v-336h-86v723h86v-310h345v310h86v-723h-86v336h-345z" />
    <glyph glyph-name="I" unicode="I" horiz-adv-x="276" 
d="M181 723v-723h-86v723h86z" />
    <glyph glyph-name="J" unicode="J" horiz-adv-x="384" 
d="M256.5 33.5q-32.5 -43.5 -117.5 -43.5q-34 0 -66.5 8t-49.5 15l7 83q6 -2 21 -8.5t31.5 -10.5t35.5 -4q48 0 66.5 26.5t18.5 92.5v531h86v-556q0 -90 -32.5 -133.5z" />
    <glyph glyph-name="K" unicode="K" horiz-adv-x="673" 
d="M542 0l-230 376l-128 -146v-230h-89v723h89v-379l332 379h103l-242 -282l264 -441h-99z" />
    <glyph glyph-name="L" unicode="L" horiz-adv-x="559" 
d="M184 723v-645h345v-78h-434v723h89z" />
    <glyph glyph-name="M" unicode="M" horiz-adv-x="877" 
d="M95 723h118l224 -608l228 608h117v-723h-89v588l-214 -588h-83l-212 583v-583h-89v723z" />
    <glyph glyph-name="N" unicode="N" horiz-adv-x="746" 
d="M651 723v-723h-76l-394 579v-579h-86v723h81l389 -572v572h86z" />
    <glyph glyph-name="O" unicode="O" horiz-adv-x="727" 
d="M198 33q-70 43 -107.5 126t-37.5 200q0 118 38 202t108 128t166 44q95 0 164.5 -44t107 -127.5t37.5 -201.5q0 -117 -37.5 -200t-107 -126.5t-165.5 -43.5t-166 43zM525 138q55 72 55 221q0 151 -55.5 225t-159.5 74q-105 0 -161.5 -74.5t-56.5 -224.5
q0 -148 56.5 -220.5t161.5 -72.5t160 72z" />
    <glyph glyph-name="P" unicode="P" horiz-adv-x="636" 
d="M95 723h242q122 0 194.5 -53t72.5 -160q0 -105 -68.5 -159t-186.5 -54h-165v-297h-89v723zM347 370q79 0 126 37t47 108q0 135 -178 135h-159v-280h164z" />
    <glyph glyph-name="Q" unicode="Q" horiz-adv-x="731" 
d="M86 562q38 84 108 127.5t166 43.5t165.5 -43.5t107 -127.5t37.5 -202q0 -116 -35 -196.5t-109 -126.5q18 -40 54.5 -61t82.5 -23v-74q-145 0 -218 120q-49 -9 -85 -9q-95 0 -165.5 43t-108.5 126t-38 201t38 202zM360 66q216 0 216 293q0 149 -55.5 224t-160.5 75
q-106 0 -161.5 -75t-55.5 -225q0 -292 217 -292z" />
    <glyph glyph-name="R" unicode="R" horiz-adv-x="675" 
d="M515 0l-133 316h-201v-316h-86v723h277q114 0 174 -51t60 -144q0 -81 -40.5 -128t-102.5 -69l144 -331h-92zM472.5 421.5q45.5 33.5 45.5 100.5q0 64 -40 97t-113 33h-184v-264h161q85 0 130.5 33.5z" />
    <glyph glyph-name="S" unicode="S" horiz-adv-x="667" 
d="M206.5 12.5q-61.5 22.5 -103 66t-50.5 104.5l90 6q14 -61 68 -94t128 -33q81 0 133 33.5t52 88.5q0 49 -32 79t-96 45l-147 34q-83 18 -128 63.5t-46 117.5q0 61 33.5 108.5t92.5 74t135 26.5q80 0 138.5 -28t90.5 -74t38 -101l-87 -5q-11 70 -60 102t-121 32
q-67 0 -117 -33.5t-50 -93.5q0 -43 29 -70t100 -44l142 -34q175 -38 175 -198q0 -55 -33 -99t-95 -70t-147 -26q-71 0 -132.5 22.5z" />
    <glyph glyph-name="T" unicode="T" horiz-adv-x="571" 
d="M14 723h543v-79h-222v-644h-86v644h-235v79z" />
    <glyph glyph-name="U" unicode="U" horiz-adv-x="713" 
d="M554.5 55q-63.5 -65 -198.5 -65q-136 0 -198.5 67t-62.5 200v466h89v-480q0 -88 44 -132.5t128 -44.5q85 0 130 44t45 133v480h87v-476q0 -127 -63.5 -192z" />
    <glyph glyph-name="V" unicode="V" horiz-adv-x="638" 
d="M370 0h-105l-252 723h85l219 -626l225 626h84z" />
    <glyph glyph-name="W" unicode="W" horiz-adv-x="952" 
d="M718 0h-82l-161 572l-164 -572h-80l-207 723h87l163 -588l167 588h68l166 -588l167 588h86z" />
    <glyph glyph-name="X" unicode="X" horiz-adv-x="648" 
d="M516 0l-198 301l-197 -301h-97l246 369l-237 354h109l182 -279l183 279h96l-231 -345l252 -378h-108z" />
    <glyph glyph-name="Y" unicode="Y" horiz-adv-x="590" 
d="M339 308v-308h-86v309l-246 414h94l196 -337l192 337h94z" />
    <glyph glyph-name="Z" unicode="Z" horiz-adv-x="621" 
d="M51 48l400 600h-384v75h504v-46l-403 -601h401v-76h-518v48z" />
    <glyph glyph-name="bracketleft" unicode="[" horiz-adv-x="296" 
d="M273 723v-56h-105l-1 -772h105v-56h-180l-1 884h182z" />
    <glyph glyph-name="backslash" unicode="\" horiz-adv-x="344" 
d="M10 723h68l250 -764h-68z" />
    <glyph glyph-name="bracketright" unicode="]" horiz-adv-x="309" 
d="M20 723v-56h105l1 -772h-105v-56h180l1 884h-182z" />
    <glyph glyph-name="asciicircum" unicode="^" horiz-adv-x="471" 
d="M233 426l-119 -296h-68l148 361q7 17 17.5 26t22.5 9q11 0 21.5 -9t16.5 -26l149 -362h-70z" />
    <glyph glyph-name="underscore" unicode="_" horiz-adv-x="515" 
d="M450 -115l-388 -1v68l388 1v-68z" />
    <glyph glyph-name="grave" unicode="`" horiz-adv-x="286" 
d="M274 636l-15 -45l-250 74l22 67z" />
    <glyph glyph-name="a" unicode="a" horiz-adv-x="559" 
d="M96.5 30q-46.5 40 -46.5 109q0 58 26 93.5t80.5 54t144.5 23.5l95 7v37q0 51 -31.5 80t-87.5 29q-90 -2 -142 -81l-70 14q23 62 80 96.5t137 34.5q96 0 146.5 -44.5t50.5 -122.5v-360h-73l-6 74q-72 -84 -181 -84q-76 0 -122.5 40zM314.5 70q35.5 17 58.5 44t23 55v94
l-79 -6q-98 -6 -141 -30t-43 -80q0 -44 30.5 -69t80.5 -25q35 0 70.5 17z" />
    <glyph glyph-name="b" unicode="b" horiz-adv-x="592" 
d="M214 18q-44 28 -60 58l-9 -76h-65v743h86v-297q18 28 62 54.5t106 26.5q103 0 156 -73.5t53 -192.5q0 -126 -58.5 -198.5t-164.5 -72.5q-62 0 -106 28zM412 108q42 51 42 153q0 96 -38 147t-108 51q-47 0 -84.5 -25.5t-57.5 -70.5v-163q0 -41 19 -73.5t50.5 -51
t66.5 -18.5q68 0 110 51z" />
    <glyph glyph-name="c" unicode="c" horiz-adv-x="537" 
d="M483 382l-71 -14q-34 49 -59 69t-65 20q-72 0 -114 -53.5t-42 -145.5q0 -93 42.5 -147.5t114.5 -54.5q44 0 73.5 24.5t55.5 71.5l69 -15q-26 -69 -77.5 -108t-125.5 -39q-70 0 -123.5 33.5t-82.5 94t-29 138.5q0 79 29 140.5t82.5 96t123.5 34.5q140 0 199 -145z" />
    <glyph glyph-name="d" unicode="d" horiz-adv-x="583" 
d="M106 58.5q-57 68.5 -57 194.5q0 125 57 199.5t159 74.5q44 0 81 -16t72 -49v281h86v-743h-68l-4 74q-67 -84 -169 -84q-100 0 -157 68.5zM349.5 76q31.5 19 50 49.5t18.5 62.5v188q-50 83 -133 83q-70 0 -110.5 -52t-40.5 -151q0 -100 40.5 -149.5t105.5 -49.5
q38 0 69.5 19z" />
    <glyph glyph-name="e" unicode="e" horiz-adv-x="556" 
d="M176.5 108.5q40.5 -50.5 114.5 -50.5q100 0 131 80l78 -11q-18 -64 -74.5 -100.5t-132.5 -36.5q-72 0 -127 31.5t-86 91t-31 140.5q0 125 62.5 199.5t172.5 74.5q106 0 164.5 -68t58.5 -187v-34h-371q0 -79 40.5 -129.5zM424 298q0 72 -36 117t-105 45q-48 0 -81 -23
t-49.5 -60.5t-16.5 -78.5h288z" />
    <glyph glyph-name="f" unicode="f" horiz-adv-x="388" 
d="M353 454h-128v-454h-85v454h-111v63h111v81q0 125 123 125h95v-62h-78q-31 0 -43.5 -16.5t-12.5 -52.5v-75h129v-63z" />
    <glyph glyph-name="g" unicode="g" horiz-adv-x="601" 
d="M102 -134q-66 37 -66 100q0 41 26 66t46.5 35t24.5 13q-4 2 -18.5 11t-24 22t-9.5 31q0 25 23.5 44.5t66.5 29.5q-50 26 -73 61t-23 82q0 77 61 120.5t162 43.5q48 0 82.5 -11t65.5 -34q10 3 53 22l77 31l-1 -82l-90 -17q7 -15 12 -36.5t5 -35.5q0 -45 -23.5 -82
t-71.5 -59t-118 -22q-20 0 -28 1q-52 -1 -75 -11.5t-23 -24.5q0 -15 21.5 -21t78.5 -10l112 -6q85 -6 126 -42t41 -97q0 -74 -65.5 -116.5t-185.5 -42.5q-123 0 -189 37zM387.5 282.5q32.5 27.5 32.5 78.5q0 52 -33 81t-95 29t-96.5 -29.5t-34.5 -80.5q0 -50 34.5 -78
t96.5 -28q63 0 95.5 27.5zM421 -92.5q37 22.5 37 68.5q0 34 -22.5 53t-73.5 23l-148 9q-19 1 -41 -10t-37 -31t-15 -44q0 -45 47.5 -68t137.5 -23q78 0 115 22.5z" />
    <glyph glyph-name="h" unicode="h" 
d="M80 743h83v-299q39 31 62.5 46t52 24.5t64.5 9.5q76 0 120.5 -42t44.5 -110v-372h-86v354q0 47 -26 73t-76 26q-41 0 -75 -18.5t-78 -58.5v-376h-86v743z" />
    <glyph glyph-name="i" unicode="i" horiz-adv-x="252" 
d="M172 627h-92v116h92v-116zM169 0h-86v517h86v-517z" />
    <glyph glyph-name="j" unicode="j" horiz-adv-x="272" 
d="M184 627h-93v116h93v-116zM149.5 -132.5q-31.5 -33.5 -107.5 -33.5q-35 0 -49.5 4.5t-14.5 6.5v58l52 2q36 2 50.5 18t14.5 54v540h86v-544q0 -72 -31.5 -105.5z" />
    <glyph glyph-name="k" unicode="k" horiz-adv-x="561" 
d="M437 0l-165 264l-106 -110v-154h-86v743h86v-494l253 268h96l-186 -196l199 -321h-91z" />
    <glyph glyph-name="l" unicode="l" horiz-adv-x="289" 
d="M106.5 34q-26.5 37 -26.5 101v608h84v-600q0 -40 15.5 -60t42.5 -22h29v-56q-24 -8 -45 -8q-73 0 -99.5 37z" />
    <glyph glyph-name="m" unicode="m" horiz-adv-x="901" 
d="M80 517h83v-72q24 34 64.5 58t95.5 24q56 0 98.5 -20.5t61.5 -61.5q25 39 67 60.5t95 21.5q73 0 124.5 -41.5t51.5 -141.5v-344h-85v337q0 122 -116 122q-55 0 -91 -27t-36 -87v-345h-86v366q0 45 -33 69t-83 24q-47 0 -86 -27t-39 -78v-354h-86v517z" />
    <glyph glyph-name="n" unicode="n" 
d="M80 517h83v-72q23 36 63.5 58t99.5 22q78 0 129.5 -49t51.5 -137v-339h-85v331q0 58 -32 90t-86 32q-58 0 -98 -27t-40 -77v-349h-86v517z" />
    <glyph glyph-name="o" unicode="o" horiz-adv-x="567" 
d="M158 23.5q-53 33.5 -81 93.5t-28 138q0 80 28.5 141.5t82 96t125.5 34.5t124.5 -34.5t80.5 -96t28 -140.5q0 -78 -28 -138.5t-80.5 -94t-125.5 -33.5t-126 33.5zM396 113.5q37 55.5 37 145.5t-37.5 145t-110.5 55q-74 0 -112 -55.5t-38 -144.5q0 -90 38 -145.5t113 -55.5
q73 0 110 55.5z" />
    <glyph glyph-name="p" unicode="p" horiz-adv-x="591" 
d="M80 517h85v-72q62 82 161 82q62 0 110.5 -29t77 -88t28.5 -144q0 -86 -29.5 -148.5t-81.5 -95t-119 -32.5q-88 0 -146 62v-213h-86v678zM381.5 81.5q36.5 24.5 57 71t20.5 110.5t-21 108t-56.5 66t-77.5 22q-38 0 -70 -18.5t-50 -47t-18 -55.5v-201q26 -37 60 -58.5
t73 -21.5q46 0 82.5 24.5z" />
    <glyph glyph-name="q" unicode="q" horiz-adv-x="592" 
d="M426 -161v210q-37 -32 -73.5 -45.5t-77.5 -13.5q-67 0 -118 32.5t-79.5 95t-28.5 148.5q0 85 28.5 144t77 88t110.5 29q41 0 73 -13t48 -26t41 -37v66h85v-678h-86zM426 150v178q0 34 -17.5 65t-48.5 50t-70 19q-66 0 -109.5 -50.5t-43.5 -147.5q0 -64 20.5 -111.5
t56.5 -73t82 -25.5q75 0 130 96z" />
    <glyph glyph-name="r" unicode="r" horiz-adv-x="385" 
d="M80 517h81v-108q27 51 80.5 84.5t110.5 33.5v-83q-50 2 -93 -16.5t-68 -50t-25 -63.5v-314h-86v517z" />
    <glyph glyph-name="s" unicode="s" horiz-adv-x="506" 
d="M113.5 28.5q-56.5 38.5 -69.5 106.5l74 11q27 -91 135 -91q56 0 93.5 22.5t37.5 61.5q0 60 -79 79l-107 23q-69 16 -102 49t-33 84q0 71 52 112t142 41q92 0 143.5 -42t53.5 -107l-74 -6q-18 91 -125 91q-48 0 -80.5 -19.5t-32.5 -64.5q0 -24 19.5 -41.5t68.5 -29.5
l106 -26q68 -17 97 -55t29 -85q0 -44 -26.5 -79t-74 -54t-108.5 -19q-83 0 -139.5 38.5z" />
    <glyph glyph-name="t" unicode="t" horiz-adv-x="388" 
d="M215 454v-324q0 -40 12.5 -54.5t38.5 -14.5h71v-55q-21 -8 -75 -8q-75 0 -104 30.5t-29 95.5v330h-84v63h86l9 171h75v-171h117v-63h-117z" />
    <glyph glyph-name="u" unicode="u" 
d="M184 9q-45 18 -74.5 58t-29.5 101v350h86v-342q0 -61 37.5 -89.5t87.5 -28.5q54 0 91.5 32.5t38.5 90.5v337h86l-1 -517h-68l-4 80q-17 -36 -62.5 -63t-95.5 -27q-47 0 -92 18z" />
    <glyph glyph-name="v" unicode="v" horiz-adv-x="530" 
d="M299 0h-68l-209 517h81l163 -408l162 408h80z" />
    <glyph glyph-name="w" unicode="w" horiz-adv-x="774" 
d="M590 0h-80l-124 390l-118 -390h-80l-163 517h80l125 -407l124 407h66l128 -406l120 406h81z" />
    <glyph glyph-name="x" unicode="x" horiz-adv-x="538" 
d="M422 0l-153 207l-154 -207h-94l200 269l-184 248h94l138 -186l138 186h94l-184 -248l200 -269h-95z" />
    <glyph glyph-name="y" unicode="y" horiz-adv-x="525" 
d="M79.5 -162.5q-17.5 2.5 -25 5.5t-9.5 4v56l54 -1q50 -1 72.5 15t33.5 43l19 51l-202 506h87l156 -407l155 407h83l-218 -561q-28 -67 -67 -94t-95 -27q-26 0 -43.5 2.5z" />
    <glyph glyph-name="z" unicode="z" horiz-adv-x="486" 
d="M41 54l300 403h-279v60h382v-55l-300 -402h305v-60h-408v54z" />
    <glyph glyph-name="braceleft" unicode="{" horiz-adv-x="317" 
d="M155 696q35 27 91 27h47v-56h-35q-36 0 -49 -12.5t-13 -39.5v-214q-1 -53 -29 -81.5t-69 -32.5q-6 -1 -6.5 -3.5t6.5 -3.5q42 -3 69.5 -30.5t28.5 -84.5v-216q0 -29 13.5 -41.5t49.5 -12.5h34v-56h-46q-58 0 -92.5 28t-34.5 75v218q0 39 -29.5 67.5t-83.5 28.5v54
q56 0 84.5 27.5t28.5 72.5v213q0 46 35 73z" />
    <glyph glyph-name="bar" unicode="|" horiz-adv-x="258" 
d="M96 -161l-1 987h68v-987h-67z" />
    <glyph glyph-name="braceright" unicode="}" horiz-adv-x="327" 
d="M159 696q-35 27 -91 27h-47v-56h35q36 0 49 -12.5t13 -39.5v-214q1 -53 29 -81.5t69 -32.5q6 -1 6.5 -3.5t-6.5 -3.5q-42 -3 -69.5 -30.5t-28.5 -84.5v-216q0 -29 -13.5 -41.5t-49.5 -12.5h-34v-56h46q58 0 92.5 28t34.5 75v218q0 39 29.5 67.5t83.5 28.5v54
q-56 0 -84.5 27.5t-28.5 72.5v213q0 46 -35 73z" />
    <glyph glyph-name="asciitilde" unicode="~" horiz-adv-x="563" 
d="M451.5 327.5q-32.5 -17.5 -75.5 -17.5q-27 0 -48.5 7t-50.5 20q-28 13 -45.5 18.5t-39.5 5.5q-35 0 -60 -15t-48 -41l-25 50q33 33 62 49.5t70 16.5q26 0 48.5 -7t49.5 -20q29 -13 47 -18.5t40 -5.5q60 0 99 53l26 -50q-17 -28 -49.5 -45.5z" />
    <glyph glyph-name="uni00A0" unicode="&#xa0;" horiz-adv-x="228" 
 />
    <glyph glyph-name="exclamdown" unicode="&#xa1;" horiz-adv-x="248" 
d="M71 406v111h104v-111h-104zM72 -161l22 499h58l23 -499h-103z" />
    <glyph glyph-name="cent" unicode="&#xa2;" horiz-adv-x="540" 
d="M424 148q-44 -38 -106 -45v-103h-65v103q-92 13 -146 84t-54 180q0 110 54 183t146 86v87h65v-87q116 -15 169 -143l-71 -14q-34 49 -59 69t-65 20q-72 0 -114 -53.5t-42 -145.5q0 -93 42.5 -147.5t114.5 -54.5q44 0 73.5 24.5t55.5 71.5l69 -15q-23 -62 -67 -100z" />
    <glyph glyph-name="sterling" unicode="&#xa3;" horiz-adv-x="609" 
d="M14 74h38q41 0 66 35.5t25 106.5q0 50 -12 129h-101v56h91l-15 81q-6 30 -6 56q0 59 28.5 103.5t76 68t103.5 23.5q69 0 124 -33t76 -83l-76 -27q-18 35 -44.5 52t-69.5 17q-53 0 -88 -31t-35 -84q0 -57 24 -143h163v-56h-155q8 -56 8 -88q0 -18 -1 -28q-3 -99 -58 -154
h179q52 0 82.5 18.5t47.5 63.5l74 -20q-47 -137 -200 -137h-345v74z" />
    <glyph glyph-name="currency" unicode="&#xa4;" horiz-adv-x="532" 
d="M161 207q-7 5 -13 -1l-53 -55l-43 45l59 58q-34 49 -34 110q0 55 30 101q5 8 -1 14l-53 53l43 44l59 -61q47 35 108 35q59 0 103 -31q8 -3 12 1l54 54l42 -44l-58 -58q34 -50 34 -108q0 -60 -30 -102q-5 -6 0 -11l55 -53l-42 -43l-59 58q-51 -37 -109 -37t-104 31z
M351 279q35 36 35 85q0 32 -16 60t-43.5 44.5t-61.5 16.5t-61.5 -16.5t-43.5 -44.5t-16 -60q0 -49 35 -85t86 -36t86 36z" />
    <glyph glyph-name="yen" unicode="&#xa5;" horiz-adv-x="603" 
d="M364 337h142v-55h-153v-90h153v-56h-153v-136h-98v136h-153v55h153v90h-153v56h132l-229 386h111l195 -336l195 336h92z" />
    <glyph glyph-name="brokenbar" unicode="&#xa6;" horiz-adv-x="258" 
d="M96 426l-1 400h68v-400h-67zM96 -161l-1 400h68v-400h-67z" />
    <glyph glyph-name="section" unicode="&#xa7;" horiz-adv-x="484" 
d="M120 -39q-58 32 -85 84l57 30q25 -38 65 -61.5t92 -23.5q51 0 82 19.5t31 54.5q0 27 -21.5 49.5t-77.5 44.5l-87 33q-67 26 -97.5 61t-30.5 84q0 45 27 78.5t72 51.5q-55 29 -75.5 59.5t-20.5 69.5t23 70.5t65 49.5t97 18q64 0 114.5 -29t77.5 -72l-58 -31
q-56 71 -129 71q-51 0 -80.5 -19t-29.5 -51q0 -24 18.5 -44t62.5 -37l83 -34q77 -31 111.5 -69.5t34.5 -90.5q0 -46 -24.5 -76.5t-66.5 -51.5q47 -26 70 -56.5t23 -70.5q0 -63 -53 -103t-141 -40q-71 0 -129 32zM336.5 255q27.5 24 27.5 58t-18.5 56.5t-68.5 42.5l-55 21
q-41 -3 -70 -28.5t-29 -57.5q0 -29 18 -47.5t71 -39.5l60 -26q37 -3 64.5 21z" />
    <glyph glyph-name="dieresis" unicode="&#xa8;" horiz-adv-x="256" 
d="M96 615h-84v108h84v-108zM242 615h-84v108h84v-108z" />
    <glyph glyph-name="copyright" unicode="&#xa9;" horiz-adv-x="816" 
d="M220.5 39.5q-85.5 49.5 -135.5 135t-50 187.5q0 100 50 185.5t135.5 135.5t186.5 50q100 0 185.5 -50t135.5 -135.5t50 -185.5q0 -102 -50 -187t-135 -135t-186 -50t-186.5 49.5zM561.5 89q70.5 39 112 110t41.5 163q0 91 -41.5 162.5t-112 111t-154.5 39.5
q-86 0 -156 -39.5t-111 -111t-41 -162.5q0 -93 40.5 -164t111 -109.5t156.5 -38.5q84 0 154.5 39zM507 542.5q41 -30.5 66 -78.5l-64 -16q-40 70 -97 70q-53 0 -85.5 -41.5t-32.5 -111.5q0 -72 33 -113.5t87 -41.5q37 0 65 20.5t47 56.5l49 -19q-25 -48 -66.5 -80t-99.5 -32
q-56 0 -99 26t-67 73t-24 108t24.5 109t67.5 74.5t98 26.5q57 0 98 -30.5z" />
    <glyph glyph-name="ordfeminine" unicode="&#xaa;" horiz-adv-x="417" 
d="M78.5 420q-28.5 24 -28.5 66q0 47 41.5 75.5t119.5 33.5l57 4v24q0 32 -19.5 47.5t-54.5 15.5q-28 0 -47.5 -10.5t-35.5 -37.5l-54 15q37 78 141 78q64 0 96.5 -28.5t32.5 -79.5v-117q0 -38 4 -67l6 -37h-62l-8 43q-27 -26 -52 -37.5t-57 -11.5q-51 0 -79.5 24zM244 465
q24 21 24 41v54l-47 -4q-54 -4 -81.5 -21t-27.5 -46q0 -23 18 -36.5t48 -13.5q38 0 66 26z" />
    <glyph glyph-name="guillemotleft" unicode="&#xab;" horiz-adv-x="446" 
d="M219 71h-49l-132 180l133 188h49l-103 -188zM394 71h-49l-132 180l133 188h49l-103 -188z" />
    <glyph glyph-name="logicalnot" unicode="&#xac;" horiz-adv-x="551" 
d="M488 397v-210h-72l-1 143l-354 -1v68h427z" />
    <glyph glyph-name="uni00AD" unicode="&#xad;" horiz-adv-x="369" 
d="M319 224h-251v68l251 1v-69z" />
    <glyph glyph-name="registered" unicode="&#xae;" horiz-adv-x="538" 
d="M150.5 299q-53.5 31 -84.5 84t-31 117t31 117t84.5 84.5t117.5 31.5q63 0 116.5 -31.5t84.5 -85t31 -116.5t-31 -116.5t-84.5 -84.5t-116.5 -31q-64 0 -117.5 31zM401.5 364q51.5 51 51.5 136q0 56 -23.5 99t-65.5 66.5t-96 23.5q-83 0 -134.5 -52t-51.5 -137t51 -136
t135 -51q82 0 133.5 51zM179 614h104q38 0 58.5 -15t20.5 -43q0 -25 -14 -40t-35 -22l45 -111h-45l-39 107h-53v-107h-42v231zM278 523q41 0 41 29t-44 29h-54v-58h57z" />
    <glyph glyph-name="macron" unicode="&#xaf;" horiz-adv-x="319" 
d="M304 648h-292v62h292v-62z" />
    <glyph glyph-name="degree" unicode="&#xb0;" horiz-adv-x="459" 
d="M363 600.5q-20 -35.5 -55.5 -55.5t-79.5 -20q-67 0 -111 44t-44 111q0 68 44 112.5t111 44.5q44 0 79.5 -20.5t55.5 -56t20 -80.5q0 -44 -20 -79.5zM295.5 751q-25.5 27 -69.5 27q-42 0 -68 -27t-26 -70q0 -45 25.5 -72.5t69.5 -27.5q43 0 68.5 27t25.5 71q0 45 -25.5 72
z" />
    <glyph glyph-name="plusminus" unicode="&#xb1;" horiz-adv-x="551" 
d="M488 473v-68h-180v-179h-66v179h-181v67h180v181h67v-180h180zM61 128l427 1v-67l-427 -1v67z" />
    <glyph glyph-name="uni00B2" unicode="&#xb2;" horiz-adv-x="377" 
d="M15 432l147 143q54 51 74.5 80.5t20.5 61.5q0 40 -27 60t-63 20q-34 0 -62 -15.5t-44 -49.5l-48 13q17 48 57 74t99 26q63 0 103.5 -33.5t40.5 -92.5q0 -40 -20.5 -73t-75.5 -88l-126 -126h227v-48h-303v48z" />
    <glyph glyph-name="uni00B3" unicode="&#xb3;" horiz-adv-x="392" 
d="M96 823q44 22 99 22q68 0 111.5 -32.5t43.5 -82.5q0 -73 -88 -104q47 -12 74.5 -42.5t27.5 -73.5q0 -58 -49 -95t-126 -37q-62 0 -102.5 20.5t-62.5 69.5l49 12q39 -56 115 -56q54 0 85 23.5t31 61.5q0 41 -34 65t-80 24h-61v46l51 1q48 1 80 24t32 58q0 31 -28.5 52
t-69.5 21q-76 0 -108 -56l-48 12q14 45 58 67z" />
    <glyph glyph-name="acute" unicode="&#xb4;" horiz-adv-x="286" 
d="M275 665l-251 -74l-14 45l243 96z" />
    <glyph glyph-name="paragraph" unicode="&#xb6;" horiz-adv-x="566" 
d="M426 670v-753h-58v753h-50v-753h-58v380q-63 2 -111 29.5t-74 74t-26 103.5q0 58 26.5 108t78 80.5t124.5 30.5h208v-53h-60z" />
    <glyph glyph-name="periodcentered" unicode="&#xb7;" horiz-adv-x="208" 
d="M157 311h-110v106h110v-106z" />
    <glyph glyph-name="cedilla" unicode="&#xb8;" horiz-adv-x="225" 
d="M179.5 -184.5q-30.5 -20.5 -76.5 -20.5q-56 0 -92 25l14 37q30 -23 68 -23q54 0 54 37q0 22 -18.5 32.5t-60.5 11.5q-9 0 -6 7l37 83h46l-23 -61q46 -2 67 -23t21 -49q0 -36 -30.5 -56.5z" />
    <glyph glyph-name="uni00B9" unicode="&#xb9;" horiz-adv-x="294" 
d="M87 771l-89 -31v41l108 54h37v-455h-56v391z" />
    <glyph glyph-name="ordmasculine" unicode="&#xba;" horiz-adv-x="410" 
d="M318 685.5q43 -46.5 43 -122.5q0 -74 -42.5 -120t-114.5 -46t-113.5 46t-41.5 120q0 76 42.5 122.5t112.5 46.5q71 0 114 -46.5zM137 654q-23 -32 -23 -88q0 -58 23 -90.5t67 -32.5q45 0 68.5 32t23.5 91q0 57 -23.5 88.5t-68.5 31.5q-44 0 -67 -32z" />
    <glyph glyph-name="guillemotright" unicode="&#xbb;" horiz-adv-x="445" 
d="M48 439h49l132 -188l-132 -180h-48l102 180zM222 439h50l132 -188l-132 -180h-48l102 180z" />
    <glyph glyph-name="onequarter" unicode="&#xbc;" horiz-adv-x="950" 
d="M87 667l-89 -31v41l108 54h37v-455h-56v391zM202 -4l-60 1l488 734h58zM828 455v-288h71v-49h-71v-118h-54l1 118h-213v51l211 286h55zM773 167v208l-155 -208h155z" />
    <glyph glyph-name="onehalf" unicode="&#xbd;" horiz-adv-x="919" 
d="M87 667l-89 -31v41l108 54h37v-455h-56v391zM202 -4l-60 1l488 734h58zM557 48l147 143q37 35 56.5 57.5t29 42.5t9.5 42q0 40 -27.5 60t-62.5 20q-34 0 -62 -15.5t-44 -49.5l-48 13q18 48 58 74t98 26q42 0 74.5 -15t51 -43.5t18.5 -68.5q0 -27 -9.5 -50t-29.5 -48
t-57 -62l-126 -126h227v-48h-303v48z" />
    <glyph glyph-name="threequarters" unicode="&#xbe;" horiz-adv-x="1048" 
d="M96 718q44 22 99 22q68 0 111.5 -32.5t43.5 -82.5q0 -73 -88 -104q47 -12 74.5 -42.5t27.5 -73.5q0 -58 -49 -95t-126 -37q-62 0 -102.5 20.5t-62.5 69.5l49 12q39 -56 115 -56q54 0 85 23.5t31 61.5q0 41 -34 65t-80 24h-61v46l51 1q48 1 80 24t32 58q0 31 -28.5 52
t-69.5 21q-76 0 -108 -56l-48 12q14 45 58 67zM300 -4l-60 1l488 734h58zM926 455v-288h71v-49h-71v-118h-54l1 118h-213v51l211 286h55zM871 167v208l-155 -208h155z" />
    <glyph glyph-name="questiondown" unicode="&#xbf;" horiz-adv-x="513" 
d="M215 517h104v-111h-104v111zM391 -133.5q-62 -37.5 -142 -37.5q-102 0 -160.5 48.5t-58.5 126.5q0 38 13.5 67.5t33.5 50t53 48.5q34 29 53.5 49.5t33 50.5t13.5 69h74q0 -48 -15 -84t-36 -60t-55 -56q-41 -37 -60.5 -64.5t-19.5 -67.5q0 -50 36 -80t96 -30q50 0 96 28.5
t62 70.5l77 -25q-32 -67 -94 -104.5z" />
    <glyph glyph-name="Agrave" unicode="&#xc0;" horiz-adv-x="696" 
d="M299 723h99l261 -723h-87l-73 202h-300l-74 -202h-88zM475 282l-126 356l-128 -356h254zM473 842l-15 -45l-250 74l22 67z" />
    <glyph glyph-name="Aacute" unicode="&#xc1;" horiz-adv-x="696" 
d="M299 723h99l261 -723h-87l-73 202h-300l-74 -202h-88zM475 282l-126 356l-128 -356h254zM486 871l-251 -74l-14 45l243 96z" />
    <glyph glyph-name="Acircumflex" unicode="&#xc2;" horiz-adv-x="696" 
d="M299 723h99l261 -723h-87l-73 202h-300l-74 -202h-88zM475 282l-126 356l-128 -356h254zM353 886l-76 -66h-79l125 112h62l122 -112h-84z" />
    <glyph glyph-name="Atilde" unicode="&#xc3;" horiz-adv-x="696" 
d="M299 723h99l261 -723h-87l-73 202h-300l-74 -202h-88zM475 282l-126 356l-128 -356h254zM417 843q-19 0 -33.5 3.5t-34.5 10.5q-13 5 -27.5 8.5t-29.5 3.5q-16 0 -27 -4t-20 -9.5t-12 -7.5q-4 -3 -7 -3q-4 0 -7 8l-9 27q-2 4 -2 6q0 4 5 8q20 15 36 22.5t39 7.5
q17 0 32 -3.5t37 -10.5q37 -13 61 -13q17 0 29.5 5t27.5 14q4 3 8 3t7 -7l10 -32l1 -4q0 -4 -4 -7t-5 -4q-31 -22 -75 -22z" />
    <glyph glyph-name="Adieresis" unicode="&#xc4;" horiz-adv-x="696" 
d="M299 723h99l261 -723h-87l-73 202h-300l-74 -202h-88zM475 282l-126 356l-128 -356h254zM322 821h-84v108h84v-108zM468 821h-84v108h84v-108z" />
    <glyph glyph-name="Aring" unicode="&#xc5;" horiz-adv-x="696" 
d="M299 723h99l261 -723h-87l-73 202h-300l-74 -202h-88zM475 282l-126 356l-128 -356h254zM426.5 813.5q-29.5 -29.5 -73.5 -29.5q-43 0 -72.5 30t-29.5 74q0 41 30 70t72 29q43 0 73 -29.5t30 -71.5q0 -43 -29.5 -72.5zM390.5 924q-15.5 15 -38.5 15q-22 0 -38 -15.5
t-16 -38.5q0 -22 16 -38.5t38 -16.5t38 16.5t16 38.5q0 24 -15.5 39z" />
    <glyph glyph-name="AE" unicode="&#xc6;" horiz-adv-x="1007" 
d="M942 0h-455v204h-248l-114 -204h-88l402 723h491v-75h-345v-246h258v-74h-258v-253h357v-75zM487 660l-214 -378h214v378z" />
    <glyph glyph-name="Ccedilla" unicode="&#xc7;" horiz-adv-x="681" 
d="M489 704q60 -29 96 -78.5t43 -109.5l-91 -5q-13 67 -59.5 107t-124.5 40q-101 0 -153 -74t-52 -222q0 -147 53 -221.5t158 -74.5q67 0 114.5 39t61.5 105l90 -8q-7 -59 -41 -107.5t-92 -76.5t-132 -28q-97 0 -166 45t-105 129t-36 199t35.5 198.5t103 127.5t162.5 44
q75 0 135 -29zM419.5 -184.5q-30.5 -20.5 -76.5 -20.5q-56 0 -92 25l14 37q30 -23 68 -23q54 0 54 37q0 22 -18.5 32.5t-60.5 11.5q-9 0 -6 7l37 83h46l-23 -61q46 -2 67 -23t21 -49q0 -36 -30.5 -56.5z" />
    <glyph glyph-name="Egrave" unicode="&#xc8;" horiz-adv-x="621" 
d="M95 723h451v-76h-365v-244h330v-76h-330v-249l375 -1v-77h-461v723zM451 842l-15 -45l-250 74l22 67z" />
    <glyph glyph-name="Eacute" unicode="&#xc9;" horiz-adv-x="621" 
d="M95 723h451v-76h-365v-244h330v-76h-330v-249l375 -1v-77h-461v723zM464 871l-251 -74l-14 45l243 96z" />
    <glyph glyph-name="Ecircumflex" unicode="&#xca;" horiz-adv-x="621" 
d="M95 723h451v-76h-365v-244h330v-76h-330v-249l375 -1v-77h-461v723zM331 886l-76 -66h-79l125 112h62l122 -112h-84z" />
    <glyph glyph-name="Edieresis" unicode="&#xcb;" horiz-adv-x="621" 
d="M95 723h451v-76h-365v-244h330v-76h-330v-249l375 -1v-77h-461v723zM300 821h-84v108h84v-108zM446 821h-84v108h84v-108z" />
    <glyph glyph-name="Igrave" unicode="&#xcc;" horiz-adv-x="276" 
d="M181 723v-723h-86v723h86zM261 842l-15 -45l-250 74l22 67z" />
    <glyph glyph-name="Iacute" unicode="&#xcd;" horiz-adv-x="276" 
d="M181 723v-723h-86v723h86zM274 871l-251 -74l-14 45l243 96z" />
    <glyph glyph-name="Icircumflex" unicode="&#xce;" horiz-adv-x="276" 
d="M181 723v-723h-86v723h86zM141 886l-76 -66h-79l125 112h62l122 -112h-84z" />
    <glyph glyph-name="Idieresis" unicode="&#xcf;" horiz-adv-x="276" 
d="M181 723v-723h-86v723h86zM110 821h-84v108h84v-108zM256 821h-84v108h84v-108z" />
    <glyph glyph-name="Eth" unicode="&#xd0;" horiz-adv-x="694" 
d="M552 631q90 -89 90 -265q0 -183 -95 -274.5t-291 -91.5h-152v327h-56q-9 0 -12 3t-3 11v43q0 12 10 12h61v327q101 0 162 -1q196 -2 286 -91zM477 143q75 68 75 221q0 154 -73.5 219t-218.5 65h-67v-252h159q10 0 10 -11v-43q0 -15 -18 -15h-151v-252h63q146 0 221 68z
" />
    <glyph glyph-name="Ntilde" unicode="&#xd1;" horiz-adv-x="746" 
d="M651 723v-723h-76l-394 579v-579h-86v723h81l389 -572v572h86zM447 843q-19 0 -33.5 3.5t-34.5 10.5q-13 5 -27.5 8.5t-29.5 3.5q-16 0 -27 -4t-20 -9.5t-12 -7.5q-4 -3 -7 -3q-4 0 -7 8l-9 27q-2 4 -2 6q0 4 5 8q20 15 36 22.5t39 7.5q17 0 32 -3.5t37 -10.5
q37 -13 61 -13q17 0 29.5 5t27.5 14q4 3 8 3t7 -7l10 -32l1 -4q0 -4 -4 -7t-5 -4q-31 -22 -75 -22z" />
    <glyph glyph-name="Ograve" unicode="&#xd2;" horiz-adv-x="727" 
d="M198 33q-70 43 -107.5 126t-37.5 200q0 118 38 202t108 128t166 44q95 0 164.5 -44t107 -127.5t37.5 -201.5q0 -117 -37.5 -200t-107 -126.5t-165.5 -43.5t-166 43zM525 138q55 72 55 221q0 151 -55.5 225t-159.5 74q-105 0 -161.5 -74.5t-56.5 -224.5
q0 -148 56.5 -220.5t161.5 -72.5t160 72zM485 842l-15 -45l-250 74l22 67z" />
    <glyph glyph-name="Oacute" unicode="&#xd3;" horiz-adv-x="727" 
d="M198 33q-70 43 -107.5 126t-37.5 200q0 118 38 202t108 128t166 44q95 0 164.5 -44t107 -127.5t37.5 -201.5q0 -117 -37.5 -200t-107 -126.5t-165.5 -43.5t-166 43zM525 138q55 72 55 221q0 151 -55.5 225t-159.5 74q-105 0 -161.5 -74.5t-56.5 -224.5
q0 -148 56.5 -220.5t161.5 -72.5t160 72zM498 871l-251 -74l-14 45l243 96z" />
    <glyph glyph-name="Ocircumflex" unicode="&#xd4;" horiz-adv-x="727" 
d="M198 33q-70 43 -107.5 126t-37.5 200q0 118 38 202t108 128t166 44q95 0 164.5 -44t107 -127.5t37.5 -201.5q0 -117 -37.5 -200t-107 -126.5t-165.5 -43.5t-166 43zM525 138q55 72 55 221q0 151 -55.5 225t-159.5 74q-105 0 -161.5 -74.5t-56.5 -224.5
q0 -148 56.5 -220.5t161.5 -72.5t160 72zM365 886l-76 -66h-79l125 112h62l122 -112h-84z" />
    <glyph glyph-name="Otilde" unicode="&#xd5;" horiz-adv-x="727" 
d="M198 33q-70 43 -107.5 126t-37.5 200q0 118 38 202t108 128t166 44q95 0 164.5 -44t107 -127.5t37.5 -201.5q0 -117 -37.5 -200t-107 -126.5t-165.5 -43.5t-166 43zM525 138q55 72 55 221q0 151 -55.5 225t-159.5 74q-105 0 -161.5 -74.5t-56.5 -224.5
q0 -148 56.5 -220.5t161.5 -72.5t160 72zM429 843q-19 0 -33.5 3.5t-34.5 10.5q-13 5 -27.5 8.5t-29.5 3.5q-16 0 -27 -4t-20 -9.5t-12 -7.5q-4 -3 -7 -3q-4 0 -7 8l-9 27q-2 4 -2 6q0 4 5 8q20 15 36 22.5t39 7.5q17 0 32 -3.5t37 -10.5q37 -13 61 -13q17 0 29.5 5t27.5 14
q4 3 8 3t7 -7l10 -32l1 -4q0 -4 -4 -7t-5 -4q-31 -22 -75 -22z" />
    <glyph glyph-name="Odieresis" unicode="&#xd6;" horiz-adv-x="727" 
d="M198 33q-70 43 -107.5 126t-37.5 200q0 118 38 202t108 128t166 44q95 0 164.5 -44t107 -127.5t37.5 -201.5q0 -117 -37.5 -200t-107 -126.5t-165.5 -43.5t-166 43zM525 138q55 72 55 221q0 151 -55.5 225t-159.5 74q-105 0 -161.5 -74.5t-56.5 -224.5
q0 -148 56.5 -220.5t161.5 -72.5t160 72zM334 821h-84v108h84v-108zM480 821h-84v108h84v-108z" />
    <glyph glyph-name="multiply" unicode="&#xd7;" horiz-adv-x="535" 
d="M314 364l157 -157l-48 -49l-157 157l-156 -157l-48 49l156 156l-157 157l48 48l157 -157l157 158l48 -47z" />
    <glyph glyph-name="Oslash" unicode="&#xd8;" horiz-adv-x="720" 
d="M699 689q0 -4 -3 -7l-80 -90q53 -89 53 -232q0 -117 -37.5 -200t-107 -126.5t-165.5 -43.5q-136 0 -215 84l-67 -74q-6 -8 -12 -8q-4 0 -13 7l-24 23q-8 8 -8 12q0 2 4 8l77 86q-53 92 -53 231q0 118 38 202t108 128t166 44q134 0 215 -86l70 78q11 11 18 3l33 -31
q3 -3 3 -8zM178 206l336 378q-51 75 -154 75q-105 0 -156.5 -74t-51.5 -226q0 -92 26 -153zM539 514l-335 -377q51 -72 156 -72q104 0 154.5 71.5t50.5 222.5q0 92 -26 155z" />
    <glyph glyph-name="Ugrave" unicode="&#xd9;" horiz-adv-x="713" 
d="M554.5 55q-63.5 -65 -198.5 -65q-136 0 -198.5 67t-62.5 200v466h89v-480q0 -88 44 -132.5t128 -44.5q85 0 130 44t45 133v480h87v-476q0 -127 -63.5 -192zM473 842l-15 -45l-250 74l22 67z" />
    <glyph glyph-name="Uacute" unicode="&#xda;" horiz-adv-x="713" 
d="M554.5 55q-63.5 -65 -198.5 -65q-136 0 -198.5 67t-62.5 200v466h89v-480q0 -88 44 -132.5t128 -44.5q85 0 130 44t45 133v480h87v-476q0 -127 -63.5 -192zM486 871l-251 -74l-14 45l243 96z" />
    <glyph glyph-name="Ucircumflex" unicode="&#xdb;" horiz-adv-x="713" 
d="M554.5 55q-63.5 -65 -198.5 -65q-136 0 -198.5 67t-62.5 200v466h89v-480q0 -88 44 -132.5t128 -44.5q85 0 130 44t45 133v480h87v-476q0 -127 -63.5 -192zM353 886l-76 -66h-79l125 112h62l122 -112h-84z" />
    <glyph glyph-name="Udieresis" unicode="&#xdc;" horiz-adv-x="713" 
d="M554.5 55q-63.5 -65 -198.5 -65q-136 0 -198.5 67t-62.5 200v466h89v-480q0 -88 44 -132.5t128 -44.5q85 0 130 44t45 133v480h87v-476q0 -127 -63.5 -192zM322 821h-84v108h84v-108zM468 821h-84v108h84v-108z" />
    <glyph glyph-name="Yacute" unicode="&#xdd;" horiz-adv-x="590" 
d="M339 308v-308h-86v309l-246 414h94l196 -337l192 337h94zM433 871l-251 -74l-14 45l243 96z" />
    <glyph glyph-name="Thorn" unicode="&#xde;" horiz-adv-x="661" 
d="M559 217.5q-70 -52.5 -188 -52.5h-178v-165h-98v723h98v-150h166q122 0 196 -50t74 -148q0 -105 -70 -157.5zM354 499h-161v-260h168q79 0 123 34t44 103q0 123 -174 123z" />
    <glyph glyph-name="germandbls" unicode="&#xdf;" horiz-adv-x="600" 
d="M444.5 684q42.5 -39 42.5 -98q0 -36 -14.5 -60t-38.5 -40.5t-65 -35.5q-35 -19 -46.5 -29t-11.5 -27t11 -25t45 -19q59 -22 94.5 -40t64 -55t28.5 -95q0 -81 -55 -125.5t-141 -44.5q-37 0 -74.5 9.5t-62.5 25.5l32 58q25 -15 47 -23t52 -8q56 0 88.5 26.5t32.5 73.5
q0 33 -16.5 54.5t-41.5 34t-67 27.5q-51 18 -79 41t-28 70q0 35 20.5 60t64.5 50q6 4 30.5 19t37 33.5t12.5 42.5q0 35 -26 56t-73 21q-59 0 -94 -36t-35 -103v-522h-85v444h-68v63h67q2 98 59.5 157t163.5 59q87 0 129.5 -39z" />
    <glyph glyph-name="agrave" unicode="&#xe0;" horiz-adv-x="559" 
d="M96.5 30q-46.5 40 -46.5 109q0 58 26 93.5t80.5 54t144.5 23.5l95 7v37q0 51 -31.5 80t-87.5 29q-90 -2 -142 -81l-70 14q23 62 80 96.5t137 34.5q96 0 146.5 -44.5t50.5 -122.5v-360h-73l-6 74q-72 -84 -181 -84q-76 0 -122.5 40zM314.5 70q35.5 17 58.5 44t23 55v94
l-79 -6q-98 -6 -141 -30t-43 -80q0 -44 30.5 -69t80.5 -25q35 0 70.5 17zM399 636l-15 -45l-250 74l22 67z" />
    <glyph glyph-name="aacute" unicode="&#xe1;" horiz-adv-x="559" 
d="M96.5 30q-46.5 40 -46.5 109q0 58 26 93.5t80.5 54t144.5 23.5l95 7v37q0 51 -31.5 80t-87.5 29q-90 -2 -142 -81l-70 14q23 62 80 96.5t137 34.5q96 0 146.5 -44.5t50.5 -122.5v-360h-73l-6 74q-72 -84 -181 -84q-76 0 -122.5 40zM314.5 70q35.5 17 58.5 44t23 55v94
l-79 -6q-98 -6 -141 -30t-43 -80q0 -44 30.5 -69t80.5 -25q35 0 70.5 17zM412 665l-251 -74l-14 45l243 96z" />
    <glyph glyph-name="acircumflex" unicode="&#xe2;" horiz-adv-x="559" 
d="M96.5 30q-46.5 40 -46.5 109q0 58 26 93.5t80.5 54t144.5 23.5l95 7v37q0 51 -31.5 80t-87.5 29q-90 -2 -142 -81l-70 14q23 62 80 96.5t137 34.5q96 0 146.5 -44.5t50.5 -122.5v-360h-73l-6 74q-72 -84 -181 -84q-76 0 -122.5 40zM314.5 70q35.5 17 58.5 44t23 55v94
l-79 -6q-98 -6 -141 -30t-43 -80q0 -44 30.5 -69t80.5 -25q35 0 70.5 17zM279 680l-76 -66h-79l125 112h62l122 -112h-84z" />
    <glyph glyph-name="atilde" unicode="&#xe3;" horiz-adv-x="559" 
d="M96.5 30q-46.5 40 -46.5 109q0 58 26 93.5t80.5 54t144.5 23.5l95 7v37q0 51 -31.5 80t-87.5 29q-90 -2 -142 -81l-70 14q23 62 80 96.5t137 34.5q96 0 146.5 -44.5t50.5 -122.5v-360h-73l-6 74q-72 -84 -181 -84q-76 0 -122.5 40zM314.5 70q35.5 17 58.5 44t23 55v94
l-79 -6q-98 -6 -141 -30t-43 -80q0 -44 30.5 -69t80.5 -25q35 0 70.5 17zM343 637q-19 0 -33.5 3.5t-34.5 10.5q-13 5 -27.5 8.5t-29.5 3.5q-16 0 -27 -4t-20 -9.5t-12 -7.5q-4 -3 -7 -3q-4 0 -7 8l-9 27q-2 4 -2 6q0 4 5 8q20 15 36 22.5t39 7.5q17 0 32 -3.5t37 -10.5
q37 -13 61 -13q17 0 29.5 5t27.5 14q4 3 8 3t7 -7l10 -32l1 -4q0 -4 -4 -7t-5 -4q-31 -22 -75 -22z" />
    <glyph glyph-name="adieresis" unicode="&#xe4;" horiz-adv-x="559" 
d="M96.5 30q-46.5 40 -46.5 109q0 58 26 93.5t80.5 54t144.5 23.5l95 7v37q0 51 -31.5 80t-87.5 29q-90 -2 -142 -81l-70 14q23 62 80 96.5t137 34.5q96 0 146.5 -44.5t50.5 -122.5v-360h-73l-6 74q-72 -84 -181 -84q-76 0 -122.5 40zM314.5 70q35.5 17 58.5 44t23 55v94
l-79 -6q-98 -6 -141 -30t-43 -80q0 -44 30.5 -69t80.5 -25q35 0 70.5 17zM248 615h-84v108h84v-108zM394 615h-84v108h84v-108z" />
    <glyph glyph-name="aring" unicode="&#xe5;" horiz-adv-x="559" 
d="M96.5 30q-46.5 40 -46.5 109q0 58 26 93.5t80.5 54t144.5 23.5l95 7v37q0 51 -31.5 80t-87.5 29q-90 -2 -142 -81l-70 14q23 62 80 96.5t137 34.5q96 0 146.5 -44.5t50.5 -122.5v-360h-73l-6 74q-72 -84 -181 -84q-76 0 -122.5 40zM314.5 70q35.5 17 58.5 44t23 55v94
l-79 -6q-98 -6 -141 -30t-43 -80q0 -44 30.5 -69t80.5 -25q35 0 70.5 17zM352.5 607.5q-29.5 -29.5 -73.5 -29.5q-43 0 -72.5 30t-29.5 74q0 41 30 70t72 29q43 0 73 -29.5t30 -71.5q0 -43 -29.5 -72.5zM316.5 718q-15.5 15 -38.5 15q-22 0 -38 -15.5t-16 -38.5
q0 -22 16 -38.5t38 -16.5t38 16.5t16 38.5q0 24 -15.5 39z" />
    <glyph glyph-name="ae" unicode="&#xe6;" horiz-adv-x="924" 
d="M503.5 150.5q22.5 -42.5 60.5 -69t83 -26.5q57 0 92 22.5t67 64.5l57 -30q-35 -60 -92 -91t-133 -31q-72 0 -119 30t-81 74q-2 3 -3 3t-3 -3q-42 -47 -91 -75.5t-127 -28.5q-77 0 -120.5 39t-43.5 106q0 75 62 119t185 53l101 8v39q0 52 -31.5 81.5t-90.5 29.5
q-86 0 -141 -86l-72 25q65 123 220 123q136 0 174 -94q60 94 182 94q70 0 123.5 -34t83 -98.5t29.5 -153.5l-394 -1q0 -47 22.5 -89.5zM560.5 445q-35.5 -21 -56.5 -59.5t-21 -89.5l306 -1q0 45 -18.5 84t-52.5 63t-78 24t-79.5 -21zM314 254q-87 -7 -132.5 -35.5
t-45.5 -78.5q0 -40 27 -64.5t74 -24.5q43 0 80 15.5t59 42.5t22 59v92z" />
    <glyph glyph-name="ccedilla" unicode="&#xe7;" horiz-adv-x="537" 
d="M483 382l-71 -14q-34 49 -59 69t-65 20q-72 0 -114 -53.5t-42 -145.5q0 -93 42.5 -147.5t114.5 -54.5q44 0 73.5 24.5t55.5 71.5l69 -15q-26 -69 -77.5 -108t-125.5 -39q-70 0 -123.5 33.5t-82.5 94t-29 138.5q0 79 29 140.5t82.5 96t123.5 34.5q140 0 199 -145z
M344.5 -184.5q-30.5 -20.5 -76.5 -20.5q-56 0 -92 25l14 37q30 -23 68 -23q54 0 54 37q0 22 -18.5 32.5t-60.5 11.5q-9 0 -6 7l37 83h46l-23 -61q46 -2 67 -23t21 -49q0 -36 -30.5 -56.5z" />
    <glyph glyph-name="egrave" unicode="&#xe8;" horiz-adv-x="556" 
d="M176.5 108.5q40.5 -50.5 114.5 -50.5q100 0 131 80l78 -11q-18 -64 -74.5 -100.5t-132.5 -36.5q-72 0 -127 31.5t-86 91t-31 140.5q0 125 62.5 199.5t172.5 74.5q106 0 164.5 -68t58.5 -187v-34h-371q0 -79 40.5 -129.5zM424 298q0 72 -36 117t-105 45q-48 0 -81 -23
t-49.5 -60.5t-16.5 -78.5h288zM404 636l-15 -45l-250 74l22 67z" />
    <glyph glyph-name="eacute" unicode="&#xe9;" horiz-adv-x="556" 
d="M176.5 108.5q40.5 -50.5 114.5 -50.5q100 0 131 80l78 -11q-18 -64 -74.5 -100.5t-132.5 -36.5q-72 0 -127 31.5t-86 91t-31 140.5q0 125 62.5 199.5t172.5 74.5q106 0 164.5 -68t58.5 -187v-34h-371q0 -79 40.5 -129.5zM424 298q0 72 -36 117t-105 45q-48 0 -81 -23
t-49.5 -60.5t-16.5 -78.5h288zM417 665l-251 -74l-14 45l243 96z" />
    <glyph glyph-name="ecircumflex" unicode="&#xea;" horiz-adv-x="556" 
d="M176.5 108.5q40.5 -50.5 114.5 -50.5q100 0 131 80l78 -11q-18 -64 -74.5 -100.5t-132.5 -36.5q-72 0 -127 31.5t-86 91t-31 140.5q0 125 62.5 199.5t172.5 74.5q106 0 164.5 -68t58.5 -187v-34h-371q0 -79 40.5 -129.5zM424 298q0 72 -36 117t-105 45q-48 0 -81 -23
t-49.5 -60.5t-16.5 -78.5h288zM284 680l-76 -66h-79l125 112h62l122 -112h-84z" />
    <glyph glyph-name="edieresis" unicode="&#xeb;" horiz-adv-x="556" 
d="M176.5 108.5q40.5 -50.5 114.5 -50.5q100 0 131 80l78 -11q-18 -64 -74.5 -100.5t-132.5 -36.5q-72 0 -127 31.5t-86 91t-31 140.5q0 125 62.5 199.5t172.5 74.5q106 0 164.5 -68t58.5 -187v-34h-371q0 -79 40.5 -129.5zM424 298q0 72 -36 117t-105 45q-48 0 -81 -23
t-49.5 -60.5t-16.5 -78.5h288zM253 615h-84v108h84v-108zM399 615h-84v108h84v-108z" />
    <glyph glyph-name="igrave" unicode="&#xec;" horiz-adv-x="245" 
d="M166 0h-86v517h86v-517zM243 636l-15 -45l-250 74l22 67z" />
    <glyph glyph-name="iacute" unicode="&#xed;" horiz-adv-x="245" 
d="M166 0h-86v517h86v-517zM256 665l-251 -74l-14 45l243 96z" />
    <glyph glyph-name="icircumflex" unicode="&#xee;" horiz-adv-x="245" 
d="M166 0h-86v517h86v-517zM123 680l-76 -66h-79l125 112h62l122 -112h-84z" />
    <glyph glyph-name="idieresis" unicode="&#xef;" horiz-adv-x="245" 
d="M166 0h-86v517h86v-517zM92 615h-84v108h84v-108zM238 615h-84v108h84v-108z" />
    <glyph glyph-name="eth" unicode="&#xf0;" horiz-adv-x="593" 
d="M514 117.5q-30 -60.5 -86.5 -94t-132.5 -33.5q-72 0 -128 33t-87 91t-31 132q0 75 31 134.5t86 93t124 33.5q74 0 119 -45q-43 90 -135 153l-152 -86l-23 38l134 74q-45 25 -113 51l55 42q66 -23 125 -55l101 57l21 -39l-80 -45q202 -138 202 -395q0 -79 -30 -139.5z
M380 78q36 25 56 69.5t20 101.5q0 56 -20 100.5t-56.5 70t-82.5 25.5t-82.5 -25.5t-57 -70t-20.5 -100.5t20.5 -101t57 -70t83.5 -25q46 0 82 25z" />
    <glyph glyph-name="ntilde" unicode="&#xf1;" 
d="M80 517h83v-72q23 36 63.5 58t99.5 22q78 0 129.5 -49t51.5 -137v-339h-85v331q0 58 -32 90t-86 32q-58 0 -98 -27t-40 -77v-349h-86v517zM365 637q-19 0 -33.5 3.5t-34.5 10.5q-13 5 -27.5 8.5t-29.5 3.5q-16 0 -27 -4t-20 -9.5t-12 -7.5q-4 -3 -7 -3q-4 0 -7 8l-9 27
q-2 4 -2 6q0 4 5 8q20 15 36 22.5t39 7.5q17 0 32 -3.5t37 -10.5q37 -13 61 -13q17 0 29.5 5t27.5 14q4 3 8 3t7 -7l10 -32l1 -4q0 -4 -4 -7t-5 -4q-31 -22 -75 -22z" />
    <glyph glyph-name="ograve" unicode="&#xf2;" horiz-adv-x="567" 
d="M158 23.5q-53 33.5 -81 93.5t-28 138q0 80 28.5 141.5t82 96t125.5 34.5t124.5 -34.5t80.5 -96t28 -140.5q0 -78 -28 -138.5t-80.5 -94t-125.5 -33.5t-126 33.5zM396 113.5q37 55.5 37 145.5t-37.5 145t-110.5 55q-74 0 -112 -55.5t-38 -144.5q0 -90 38 -145.5t113 -55.5
q73 0 110 55.5zM406 636l-15 -45l-250 74l22 67z" />
    <glyph glyph-name="oacute" unicode="&#xf3;" horiz-adv-x="567" 
d="M158 23.5q-53 33.5 -81 93.5t-28 138q0 80 28.5 141.5t82 96t125.5 34.5t124.5 -34.5t80.5 -96t28 -140.5q0 -78 -28 -138.5t-80.5 -94t-125.5 -33.5t-126 33.5zM396 113.5q37 55.5 37 145.5t-37.5 145t-110.5 55q-74 0 -112 -55.5t-38 -144.5q0 -90 38 -145.5t113 -55.5
q73 0 110 55.5zM419 665l-251 -74l-14 45l243 96z" />
    <glyph glyph-name="ocircumflex" unicode="&#xf4;" horiz-adv-x="567" 
d="M158 23.5q-53 33.5 -81 93.5t-28 138q0 80 28.5 141.5t82 96t125.5 34.5t124.5 -34.5t80.5 -96t28 -140.5q0 -78 -28 -138.5t-80.5 -94t-125.5 -33.5t-126 33.5zM396 113.5q37 55.5 37 145.5t-37.5 145t-110.5 55q-74 0 -112 -55.5t-38 -144.5q0 -90 38 -145.5t113 -55.5
q73 0 110 55.5zM286 680l-76 -66h-79l125 112h62l122 -112h-84z" />
    <glyph glyph-name="otilde" unicode="&#xf5;" horiz-adv-x="567" 
d="M158 23.5q-53 33.5 -81 93.5t-28 138q0 80 28.5 141.5t82 96t125.5 34.5t124.5 -34.5t80.5 -96t28 -140.5q0 -78 -28 -138.5t-80.5 -94t-125.5 -33.5t-126 33.5zM396 113.5q37 55.5 37 145.5t-37.5 145t-110.5 55q-74 0 -112 -55.5t-38 -144.5q0 -90 38 -145.5t113 -55.5
q73 0 110 55.5zM350 637q-19 0 -33.5 3.5t-34.5 10.5q-13 5 -27.5 8.5t-29.5 3.5q-16 0 -27 -4t-20 -9.5t-12 -7.5q-4 -3 -7 -3q-4 0 -7 8l-9 27q-2 4 -2 6q0 4 5 8q20 15 36 22.5t39 7.5q17 0 32 -3.5t37 -10.5q37 -13 61 -13q17 0 29.5 5t27.5 14q4 3 8 3t7 -7l10 -32
l1 -4q0 -4 -4 -7t-5 -4q-31 -22 -75 -22z" />
    <glyph glyph-name="odieresis" unicode="&#xf6;" horiz-adv-x="567" 
d="M158 23.5q-53 33.5 -81 93.5t-28 138q0 80 28.5 141.5t82 96t125.5 34.5t124.5 -34.5t80.5 -96t28 -140.5q0 -78 -28 -138.5t-80.5 -94t-125.5 -33.5t-126 33.5zM396 113.5q37 55.5 37 145.5t-37.5 145t-110.5 55q-74 0 -112 -55.5t-38 -144.5q0 -90 38 -145.5t113 -55.5
q73 0 110 55.5zM255 615h-84v108h84v-108zM401 615h-84v108h84v-108z" />
    <glyph glyph-name="divide" unicode="&#xf7;" horiz-adv-x="552" 
d="M331 483h-112v108h112v-108zM488 330l-427 -1v68h427v-67zM331 137h-112v107h112v-107z" />
    <glyph glyph-name="oslash" unicode="&#xf8;" horiz-adv-x="576" 
d="M483 412q36 -64 36 -156q0 -78 -28 -138.5t-80.5 -94t-125.5 -33.5q-104 0 -168 67l-65 -63l-36 39l70 68q-36 63 -36 154q0 80 28.5 141.5t82 96t125.5 34.5q104 0 167 -71l67 65l36 -38zM150 163l248 240q-40 56 -112 56q-74 0 -112 -55.5t-38 -144.5q0 -52 14 -96z
M421 352l-246 -239q18 -26 46.5 -40.5t65.5 -14.5q73 0 110 55.5t37 145.5q0 54 -13 93z" />
    <glyph glyph-name="ugrave" unicode="&#xf9;" 
d="M184 9q-45 18 -74.5 58t-29.5 101v350h86v-342q0 -61 37.5 -89.5t87.5 -28.5q54 0 91.5 32.5t38.5 90.5v337h86l-1 -517h-68l-4 80q-17 -36 -62.5 -63t-95.5 -27q-47 0 -92 18zM405 636l-15 -45l-250 74l22 67z" />
    <glyph glyph-name="uacute" unicode="&#xfa;" 
d="M184 9q-45 18 -74.5 58t-29.5 101v350h86v-342q0 -61 37.5 -89.5t87.5 -28.5q54 0 91.5 32.5t38.5 90.5v337h86l-1 -517h-68l-4 80q-17 -36 -62.5 -63t-95.5 -27q-47 0 -92 18zM418 665l-251 -74l-14 45l243 96z" />
    <glyph glyph-name="ucircumflex" unicode="&#xfb;" 
d="M184 9q-45 18 -74.5 58t-29.5 101v350h86v-342q0 -61 37.5 -89.5t87.5 -28.5q54 0 91.5 32.5t38.5 90.5v337h86l-1 -517h-68l-4 80q-17 -36 -62.5 -63t-95.5 -27q-47 0 -92 18zM285 680l-76 -66h-79l125 112h62l122 -112h-84z" />
    <glyph glyph-name="udieresis" unicode="&#xfc;" 
d="M184 9q-45 18 -74.5 58t-29.5 101v350h86v-342q0 -61 37.5 -89.5t87.5 -28.5q54 0 91.5 32.5t38.5 90.5v337h86l-1 -517h-68l-4 80q-17 -36 -62.5 -63t-95.5 -27q-47 0 -92 18zM254 615h-84v108h84v-108zM400 615h-84v108h84v-108z" />
    <glyph glyph-name="yacute" unicode="&#xfd;" horiz-adv-x="525" 
d="M79.5 -162.5q-17.5 2.5 -25 5.5t-9.5 4v56l54 -1q50 -1 72.5 15t33.5 43l19 51l-202 506h87l156 -407l155 407h83l-218 -561q-28 -67 -67 -94t-95 -27q-26 0 -43.5 2.5zM404 665l-251 -74l-14 45l243 96z" />
    <glyph glyph-name="thorn" unicode="&#xfe;" horiz-adv-x="591" 
d="M165 445q19 22 37 38.5t50.5 30t76.5 13.5q61 0 109.5 -29t76 -88t27.5 -144q0 -86 -28 -148.5t-78 -95t-117 -32.5q-80 0 -138 49q-7 7 -11 7t-4 -13v-194h-86v884h85v-278zM295 51q72 0 115.5 55t43.5 159q0 101 -43 150.5t-111 49.5q-38 0 -68.5 -16.5t-48 -42.5
t-17.5 -51v-240q61 -64 129 -64z" />
    <glyph glyph-name="ydieresis" unicode="&#xff;" horiz-adv-x="525" 
d="M79.5 -162.5q-17.5 2.5 -25 5.5t-9.5 4v56l54 -1q50 -1 72.5 15t33.5 43l19 51l-202 506h87l156 -407l155 407h83l-218 -561q-28 -67 -67 -94t-95 -27q-26 0 -43.5 2.5zM240 615h-84v108h84v-108zM386 615h-84v108h84v-108z" />
    <glyph glyph-name="Amacron" unicode="&#x100;" horiz-adv-x="696" 
d="M299 723h99l261 -723h-87l-73 202h-300l-74 -202h-88zM475 282l-126 356l-128 -356h254zM499 854h-292v62h292v-62z" />
    <glyph glyph-name="amacron" unicode="&#x101;" horiz-adv-x="559" 
d="M96.5 30q-46.5 40 -46.5 109q0 58 26 93.5t80.5 54t144.5 23.5l95 7v37q0 51 -31.5 80t-87.5 29q-90 -2 -142 -81l-70 14q23 62 80 96.5t137 34.5q96 0 146.5 -44.5t50.5 -122.5v-360h-73l-6 74q-72 -84 -181 -84q-76 0 -122.5 40zM314.5 70q35.5 17 58.5 44t23 55v94
l-79 -6q-98 -6 -141 -30t-43 -80q0 -44 30.5 -69t80.5 -25q35 0 70.5 17zM425 648h-292v62h292v-62z" />
    <glyph glyph-name="Abreve" unicode="&#x102;" horiz-adv-x="696" 
d="M299 723h99l261 -723h-87l-73 202h-300l-74 -202h-88zM475 282l-126 356l-128 -356h254zM450.5 854q-39.5 -31 -97.5 -31q-57 0 -96 30t-51 76h65q31 -52 82 -52q29 0 50 15.5t34 36.5h66q-13 -44 -52.5 -75z" />
    <glyph glyph-name="abreve" unicode="&#x103;" horiz-adv-x="559" 
d="M96.5 30q-46.5 40 -46.5 109q0 58 26 93.5t80.5 54t144.5 23.5l95 7v37q0 51 -31.5 80t-87.5 29q-90 -2 -142 -81l-70 14q23 62 80 96.5t137 34.5q96 0 146.5 -44.5t50.5 -122.5v-360h-73l-6 74q-72 -84 -181 -84q-76 0 -122.5 40zM314.5 70q35.5 17 58.5 44t23 55v94
l-79 -6q-98 -6 -141 -30t-43 -80q0 -44 30.5 -69t80.5 -25q35 0 70.5 17zM376.5 648q-39.5 -31 -97.5 -31q-57 0 -96 30t-51 76h65q31 -52 82 -52q29 0 50 15.5t34 36.5h66q-13 -44 -52.5 -75z" />
    <glyph glyph-name="Aogonek" unicode="&#x104;" horiz-adv-x="696" 
d="M299 723h99l261 -723h-87l-73 202h-300l-74 -202h-88zM475 282l-126 356l-128 -356h254zM520 -32.5q23 23.5 80 41.5l63 -7q-52 -22 -74 -40.5t-22 -42.5q0 -19 11.5 -28t36.5 -9q19 0 35.5 4t25.5 9l6 2q4 0 4 -8v-28q0 -4 -1 -6.5t-5 -4.5q-12 -7 -36 -12t-49 -5
q-48 0 -73 21t-25 58q0 32 23 55.5z" />
    <glyph glyph-name="aogonek" unicode="&#x105;" horiz-adv-x="559" 
d="M96.5 30q-46.5 40 -46.5 109q0 58 26 93.5t80.5 54t144.5 23.5l95 7v37q0 51 -31.5 80t-87.5 29q-90 -2 -142 -81l-70 14q23 62 80 96.5t137 34.5q96 0 146.5 -44.5t50.5 -122.5v-360h-73l-6 74q-72 -84 -181 -84q-76 0 -122.5 40zM314.5 70q35.5 17 58.5 44t23 55v94
l-79 -6q-98 -6 -141 -30t-43 -80q0 -44 30.5 -69t80.5 -25q35 0 70.5 17zM334 -29.5q23 23.5 80 41.5l63 -7q-52 -22 -74 -40.5t-22 -42.5q0 -19 11.5 -28t36.5 -9q19 0 35.5 4t25.5 9l6 2q4 0 4 -8v-28q0 -4 -1 -6.5t-5 -4.5q-12 -7 -36 -12t-49 -5q-48 0 -73 21t-25 58
q0 32 23 55.5z" />
    <glyph glyph-name="Cacute" unicode="&#x106;" horiz-adv-x="681" 
d="M489 704q60 -29 96 -78.5t43 -109.5l-91 -5q-13 67 -59.5 107t-124.5 40q-101 0 -153 -74t-52 -222q0 -147 53 -221.5t158 -74.5q67 0 114.5 39t61.5 105l90 -8q-7 -59 -41 -107.5t-92 -76.5t-132 -28q-97 0 -166 45t-105 129t-36 199t35.5 198.5t103 127.5t162.5 44
q75 0 135 -29zM493 871l-251 -74l-14 45l243 96z" />
    <glyph glyph-name="cacute" unicode="&#x107;" horiz-adv-x="537" 
d="M483 382l-71 -14q-34 49 -59 69t-65 20q-72 0 -114 -53.5t-42 -145.5q0 -93 42.5 -147.5t114.5 -54.5q44 0 73.5 24.5t55.5 71.5l69 -15q-26 -69 -77.5 -108t-125.5 -39q-70 0 -123.5 33.5t-82.5 94t-29 138.5q0 79 29 140.5t82.5 96t123.5 34.5q140 0 199 -145zM417 665
l-251 -74l-14 45l243 96z" />
    <glyph glyph-name="Ccircumflex" unicode="&#x108;" horiz-adv-x="681" 
d="M489 704q60 -29 96 -78.5t43 -109.5l-91 -5q-13 67 -59.5 107t-124.5 40q-101 0 -153 -74t-52 -222q0 -147 53 -221.5t158 -74.5q67 0 114.5 39t61.5 105l90 -8q-7 -59 -41 -107.5t-92 -76.5t-132 -28q-97 0 -166 45t-105 129t-36 199t35.5 198.5t103 127.5t162.5 44
q75 0 135 -29zM360 886l-76 -66h-79l125 112h62l122 -112h-84z" />
    <glyph glyph-name="ccircumflex" unicode="&#x109;" horiz-adv-x="537" 
d="M483 382l-71 -14q-34 49 -59 69t-65 20q-72 0 -114 -53.5t-42 -145.5q0 -93 42.5 -147.5t114.5 -54.5q44 0 73.5 24.5t55.5 71.5l69 -15q-26 -69 -77.5 -108t-125.5 -39q-70 0 -123.5 33.5t-82.5 94t-29 138.5q0 79 29 140.5t82.5 96t123.5 34.5q140 0 199 -145zM284 680
l-76 -66h-79l125 112h62l122 -112h-84z" />
    <glyph glyph-name="Cdotaccent" unicode="&#x10a;" horiz-adv-x="681" 
d="M489 704q60 -29 96 -78.5t43 -109.5l-91 -5q-13 67 -59.5 107t-124.5 40q-101 0 -153 -74t-52 -222q0 -147 53 -221.5t158 -74.5q67 0 114.5 39t61.5 105l90 -8q-7 -59 -41 -107.5t-92 -76.5t-132 -28q-97 0 -166 45t-105 129t-36 199t35.5 198.5t103 127.5t162.5 44
q75 0 135 -29zM406 814h-92v115h92v-115z" />
    <glyph glyph-name="cdotaccent" unicode="&#x10b;" horiz-adv-x="537" 
d="M483 382l-71 -14q-34 49 -59 69t-65 20q-72 0 -114 -53.5t-42 -145.5q0 -93 42.5 -147.5t114.5 -54.5q44 0 73.5 24.5t55.5 71.5l69 -15q-26 -69 -77.5 -108t-125.5 -39q-70 0 -123.5 33.5t-82.5 94t-29 138.5q0 79 29 140.5t82.5 96t123.5 34.5q140 0 199 -145zM330 608
h-92v115h92v-115z" />
    <glyph glyph-name="Ccaron" unicode="&#x10c;" horiz-adv-x="681" 
d="M489 704q60 -29 96 -78.5t43 -109.5l-91 -5q-13 67 -59.5 107t-124.5 40q-101 0 -153 -74t-52 -222q0 -147 53 -221.5t158 -74.5q67 0 114.5 39t61.5 105l90 -8q-7 -59 -41 -107.5t-92 -76.5t-132 -28q-97 0 -166 45t-105 129t-36 199t35.5 198.5t103 127.5t162.5 44
q75 0 135 -29zM514 929l-122 -112h-63l-125 112h80l76 -66l70 66h84z" />
    <glyph glyph-name="ccaron" unicode="&#x10d;" horiz-adv-x="537" 
d="M483 382l-71 -14q-34 49 -59 69t-65 20q-72 0 -114 -53.5t-42 -145.5q0 -93 42.5 -147.5t114.5 -54.5q44 0 73.5 24.5t55.5 71.5l69 -15q-26 -69 -77.5 -108t-125.5 -39q-70 0 -123.5 33.5t-82.5 94t-29 138.5q0 79 29 140.5t82.5 96t123.5 34.5q140 0 199 -145zM438 723
l-122 -112h-63l-125 112h80l76 -66l70 66h84z" />
    <glyph glyph-name="Dcaron" unicode="&#x10e;" horiz-adv-x="685" 
d="M257 722q196 -2 286 -91t90 -265q0 -183 -95 -274.5t-291 -91.5h-152v723q101 0 162 -1zM184 75h63q146 0 221 68t75 221q0 154 -73.5 219t-218.5 65h-67v-573zM491 929l-122 -112h-63l-125 112h80l76 -66l70 66h84z" />
    <glyph glyph-name="dcaron" unicode="&#x10f;" horiz-adv-x="583" 
d="M106 58.5q-57 68.5 -57 194.5q0 125 57 199.5t159 74.5q44 0 81 -16t72 -49v281h86v-743h-68l-4 74q-67 -84 -169 -84q-100 0 -157 68.5zM349.5 76q31.5 19 50 49.5t18.5 62.5v188q-50 83 -133 83q-70 0 -110.5 -52t-40.5 -151q0 -100 40.5 -149.5t105.5 -49.5
q38 0 69.5 19zM521 473q-2 3 0 6l29 71q2 6 1.5 8.5t-5.5 3.5l-7 1q-6 1 -8.5 3t-2.5 7v79q0 9 8 9h58q8 0 8 -7v-91q0 -2 -1 -3t-1 -2l-33 -79q-2 -5 -6 -7t-13 -2h-21q-4 0 -6 3z" />
    <glyph glyph-name="Dcroat" unicode="&#x110;" horiz-adv-x="694" 
d="M552 631q90 -89 90 -265q0 -183 -95 -274.5t-291 -91.5h-152v327h-56q-9 0 -12 3t-3 11v43q0 12 10 12h61v327q101 0 162 -1q196 -2 286 -91zM477 143q75 68 75 221q0 154 -73.5 219t-218.5 65h-67v-252h159q10 0 10 -11v-43q0 -15 -18 -15h-151v-252h63q146 0 221 68z
" />
    <glyph glyph-name="dcroat" unicode="&#x111;" horiz-adv-x="598" 
d="M572 598h-68v-598h-68l-4 74q-67 -84 -169 -84q-100 0 -157 68.5t-57 194.5q0 125 57 199.5t159 74.5q44 0 81 -16t72 -49v136h-151v55h151v90h86v-90h68v-55zM418 376q-50 83 -133 83q-70 0 -110.5 -52t-40.5 -151q0 -100 40.5 -149.5t105.5 -49.5q38 0 69.5 19t50 49.5
t18.5 62.5v188z" />
    <glyph glyph-name="Emacron" unicode="&#x112;" horiz-adv-x="621" 
d="M95 723h451v-76h-365v-244h330v-76h-330v-249l375 -1v-77h-461v723zM477 854h-292v62h292v-62z" />
    <glyph glyph-name="emacron" unicode="&#x113;" horiz-adv-x="556" 
d="M176.5 108.5q40.5 -50.5 114.5 -50.5q100 0 131 80l78 -11q-18 -64 -74.5 -100.5t-132.5 -36.5q-72 0 -127 31.5t-86 91t-31 140.5q0 125 62.5 199.5t172.5 74.5q106 0 164.5 -68t58.5 -187v-34h-371q0 -79 40.5 -129.5zM424 298q0 72 -36 117t-105 45q-48 0 -81 -23
t-49.5 -60.5t-16.5 -78.5h288zM430 648h-292v62h292v-62z" />
    <glyph glyph-name="Ebreve" unicode="&#x114;" horiz-adv-x="621" 
d="M95 723h451v-76h-365v-244h330v-76h-330v-249l375 -1v-77h-461v723zM428.5 854q-39.5 -31 -97.5 -31q-57 0 -96 30t-51 76h65q31 -52 82 -52q29 0 50 15.5t34 36.5h66q-13 -44 -52.5 -75z" />
    <glyph glyph-name="ebreve" unicode="&#x115;" horiz-adv-x="556" 
d="M176.5 108.5q40.5 -50.5 114.5 -50.5q100 0 131 80l78 -11q-18 -64 -74.5 -100.5t-132.5 -36.5q-72 0 -127 31.5t-86 91t-31 140.5q0 125 62.5 199.5t172.5 74.5q106 0 164.5 -68t58.5 -187v-34h-371q0 -79 40.5 -129.5zM424 298q0 72 -36 117t-105 45q-48 0 -81 -23
t-49.5 -60.5t-16.5 -78.5h288zM381.5 648q-39.5 -31 -97.5 -31q-57 0 -96 30t-51 76h65q31 -52 82 -52q29 0 50 15.5t34 36.5h66q-13 -44 -52.5 -75z" />
    <glyph glyph-name="Edotaccent" unicode="&#x116;" horiz-adv-x="621" 
d="M95 723h451v-76h-365v-244h330v-76h-330v-249l375 -1v-77h-461v723zM377 814h-92v115h92v-115z" />
    <glyph glyph-name="edotaccent" unicode="&#x117;" horiz-adv-x="556" 
d="M176.5 108.5q40.5 -50.5 114.5 -50.5q100 0 131 80l78 -11q-18 -64 -74.5 -100.5t-132.5 -36.5q-72 0 -127 31.5t-86 91t-31 140.5q0 125 62.5 199.5t172.5 74.5q106 0 164.5 -68t58.5 -187v-34h-371q0 -79 40.5 -129.5zM424 298q0 72 -36 117t-105 45q-48 0 -81 -23
t-49.5 -60.5t-16.5 -78.5h288zM330 608h-92v115h92v-115z" />
    <glyph glyph-name="Eogonek" unicode="&#x118;" horiz-adv-x="621" 
d="M95 723h451v-76h-365v-244h330v-76h-330v-249l375 -1v-77h-461v723zM416 -32.5q23 23.5 80 41.5l63 -7q-52 -22 -74 -40.5t-22 -42.5q0 -19 11.5 -28t36.5 -9q19 0 35.5 4t25.5 9l6 2q4 0 4 -8v-28q0 -4 -1 -6.5t-5 -4.5q-12 -7 -36 -12t-49 -5q-48 0 -73 21t-25 58
q0 32 23 55.5z" />
    <glyph glyph-name="eogonek" unicode="&#x119;" horiz-adv-x="556" 
d="M176.5 108.5q40.5 -50.5 114.5 -50.5q100 0 131 80l78 -11q-18 -64 -74.5 -100.5t-132.5 -36.5q-72 0 -127 31.5t-86 91t-31 140.5q0 125 62.5 199.5t172.5 74.5q106 0 164.5 -68t58.5 -187v-34h-371q0 -79 40.5 -129.5zM424 298q0 72 -36 117t-105 45q-48 0 -81 -23
t-49.5 -60.5t-16.5 -78.5h288zM254 -22.5q23 23.5 80 41.5l63 -7q-52 -22 -74 -40.5t-22 -42.5q0 -19 11.5 -28t36.5 -9q19 0 35.5 4t25.5 9l6 2q4 0 4 -8v-28q0 -4 -1 -6.5t-5 -4.5q-12 -7 -36 -12t-49 -5q-48 0 -73 21t-25 58q0 32 23 55.5z" />
    <glyph glyph-name="Ecaron" unicode="&#x11a;" horiz-adv-x="621" 
d="M95 723h451v-76h-365v-244h330v-76h-330v-249l375 -1v-77h-461v723zM485 929l-122 -112h-63l-125 112h80l76 -66l70 66h84z" />
    <glyph glyph-name="ecaron" unicode="&#x11b;" horiz-adv-x="556" 
d="M176.5 108.5q40.5 -50.5 114.5 -50.5q100 0 131 80l78 -11q-18 -64 -74.5 -100.5t-132.5 -36.5q-72 0 -127 31.5t-86 91t-31 140.5q0 125 62.5 199.5t172.5 74.5q106 0 164.5 -68t58.5 -187v-34h-371q0 -79 40.5 -129.5zM424 298q0 72 -36 117t-105 45q-48 0 -81 -23
t-49.5 -60.5t-16.5 -78.5h288zM438 723l-122 -112h-63l-125 112h80l76 -66l70 66h84z" />
    <glyph glyph-name="Gcircumflex" unicode="&#x11c;" horiz-adv-x="725" 
d="M195.5 34.5q-68.5 44.5 -105.5 128t-37 196.5q0 116 38 200.5t107.5 129t162.5 44.5q69 0 129.5 -30t98 -79.5t41.5 -106.5l-93 -6q-12 63 -60.5 104t-116.5 41q-101 0 -158 -75.5t-57 -215.5q0 -148 58 -222.5t159 -74.5q59 0 101 27t64 67t24 80l2 67h-179v64l268 -1
v-372h-66v112q-32 -54 -86 -88t-133 -34q-93 0 -161.5 44.5zM358 886l-76 -66h-79l125 112h62l122 -112h-84z" />
    <glyph glyph-name="gcircumflex" unicode="&#x11d;" horiz-adv-x="601" 
d="M102 -134q-66 37 -66 100q0 41 26 66t46.5 35t24.5 13q-4 2 -18.5 11t-24 22t-9.5 31q0 25 23.5 44.5t66.5 29.5q-50 26 -73 61t-23 82q0 77 61 120.5t162 43.5q48 0 82.5 -11t65.5 -34q10 3 53 22l77 31l-1 -82l-90 -17q7 -15 12 -36.5t5 -35.5q0 -45 -23.5 -82
t-71.5 -59t-118 -22q-20 0 -28 1q-52 -1 -75 -11.5t-23 -24.5q0 -15 21.5 -21t78.5 -10l112 -6q85 -6 126 -42t41 -97q0 -74 -65.5 -116.5t-185.5 -42.5q-123 0 -189 37zM387.5 282.5q32.5 27.5 32.5 78.5q0 52 -33 81t-95 29t-96.5 -29.5t-34.5 -80.5q0 -50 34.5 -78
t96.5 -28q63 0 95.5 27.5zM421 -92.5q37 22.5 37 68.5q0 34 -22.5 53t-73.5 23l-148 9q-19 1 -41 -10t-37 -31t-15 -44q0 -45 47.5 -68t137.5 -23q78 0 115 22.5zM296 680l-76 -66h-79l125 112h62l122 -112h-84z" />
    <glyph glyph-name="Gbreve" unicode="&#x11e;" horiz-adv-x="725" 
d="M195.5 34.5q-68.5 44.5 -105.5 128t-37 196.5q0 116 38 200.5t107.5 129t162.5 44.5q69 0 129.5 -30t98 -79.5t41.5 -106.5l-93 -6q-12 63 -60.5 104t-116.5 41q-101 0 -158 -75.5t-57 -215.5q0 -148 58 -222.5t159 -74.5q59 0 101 27t64 67t24 80l2 67h-179v64l268 -1
v-372h-66v112q-32 -54 -86 -88t-133 -34q-93 0 -161.5 44.5zM455.5 854q-39.5 -31 -97.5 -31q-57 0 -96 30t-51 76h65q31 -52 82 -52q29 0 50 15.5t34 36.5h66q-13 -44 -52.5 -75z" />
    <glyph glyph-name="gbreve" unicode="&#x11f;" horiz-adv-x="601" 
d="M102 -134q-66 37 -66 100q0 41 26 66t46.5 35t24.5 13q-4 2 -18.5 11t-24 22t-9.5 31q0 25 23.5 44.5t66.5 29.5q-50 26 -73 61t-23 82q0 77 61 120.5t162 43.5q48 0 82.5 -11t65.5 -34q10 3 53 22l77 31l-1 -82l-90 -17q7 -15 12 -36.5t5 -35.5q0 -45 -23.5 -82
t-71.5 -59t-118 -22q-20 0 -28 1q-52 -1 -75 -11.5t-23 -24.5q0 -15 21.5 -21t78.5 -10l112 -6q85 -6 126 -42t41 -97q0 -74 -65.5 -116.5t-185.5 -42.5q-123 0 -189 37zM387.5 282.5q32.5 27.5 32.5 78.5q0 52 -33 81t-95 29t-96.5 -29.5t-34.5 -80.5q0 -50 34.5 -78
t96.5 -28q63 0 95.5 27.5zM421 -92.5q37 22.5 37 68.5q0 34 -22.5 53t-73.5 23l-148 9q-19 1 -41 -10t-37 -31t-15 -44q0 -45 47.5 -68t137.5 -23q78 0 115 22.5zM393.5 648q-39.5 -31 -97.5 -31q-57 0 -96 30t-51 76h65q31 -52 82 -52q29 0 50 15.5t34 36.5h66
q-13 -44 -52.5 -75z" />
    <glyph glyph-name="Gdotaccent" unicode="&#x120;" horiz-adv-x="725" 
d="M195.5 34.5q-68.5 44.5 -105.5 128t-37 196.5q0 116 38 200.5t107.5 129t162.5 44.5q69 0 129.5 -30t98 -79.5t41.5 -106.5l-93 -6q-12 63 -60.5 104t-116.5 41q-101 0 -158 -75.5t-57 -215.5q0 -148 58 -222.5t159 -74.5q59 0 101 27t64 67t24 80l2 67h-179v64l268 -1
v-372h-66v112q-32 -54 -86 -88t-133 -34q-93 0 -161.5 44.5zM404 814h-92v115h92v-115z" />
    <glyph glyph-name="gdotaccent" unicode="&#x121;" horiz-adv-x="601" 
d="M102 -134q-66 37 -66 100q0 41 26 66t46.5 35t24.5 13q-4 2 -18.5 11t-24 22t-9.5 31q0 25 23.5 44.5t66.5 29.5q-50 26 -73 61t-23 82q0 77 61 120.5t162 43.5q48 0 82.5 -11t65.5 -34q10 3 53 22l77 31l-1 -82l-90 -17q7 -15 12 -36.5t5 -35.5q0 -45 -23.5 -82
t-71.5 -59t-118 -22q-20 0 -28 1q-52 -1 -75 -11.5t-23 -24.5q0 -15 21.5 -21t78.5 -10l112 -6q85 -6 126 -42t41 -97q0 -74 -65.5 -116.5t-185.5 -42.5q-123 0 -189 37zM387.5 282.5q32.5 27.5 32.5 78.5q0 52 -33 81t-95 29t-96.5 -29.5t-34.5 -80.5q0 -50 34.5 -78
t96.5 -28q63 0 95.5 27.5zM421 -92.5q37 22.5 37 68.5q0 34 -22.5 53t-73.5 23l-148 9q-19 1 -41 -10t-37 -31t-15 -44q0 -45 47.5 -68t137.5 -23q78 0 115 22.5zM342 608h-92v115h92v-115z" />
    <glyph glyph-name="Gcommaaccent" unicode="&#x122;" horiz-adv-x="725" 
d="M195.5 34.5q-68.5 44.5 -105.5 128t-37 196.5q0 116 38 200.5t107.5 129t162.5 44.5q69 0 129.5 -30t98 -79.5t41.5 -106.5l-93 -6q-12 63 -60.5 104t-116.5 41q-101 0 -158 -75.5t-57 -215.5q0 -148 58 -222.5t159 -74.5q59 0 101 27t64 67t24 80l2 67h-179v64l268 -1
v-372h-66v112q-32 -54 -86 -88t-133 -34q-93 0 -161.5 44.5zM323.5 -229.5q-1.5 3.5 0.5 8.5l27 49q2 3 2 7q0 8 -8 8h-8q-7 0 -9.5 2.5t-2.5 9.5v63q0 12 10 12h58q9 0 9 -10v-77q0 -3 -1 -5t-1 -3l-36 -60q-4 -5 -8 -6.5t-12 -1.5h-14q-5 0 -6.5 3.5z" />
    <glyph glyph-name="gcommaaccent" unicode="&#x123;" horiz-adv-x="601" 
d="M241 698l44 71h41l-43 -76h35v-87h-77v92zM102 -134q-66 37 -66 100q0 41 26 66t46.5 35t24.5 13q-4 2 -18.5 11t-24 22t-9.5 31q0 25 23.5 44.5t66.5 29.5q-50 26 -73 61t-23 82q0 77 61 120.5t162 43.5q48 0 82.5 -11t65.5 -34q10 3 53 22l77 31l-1 -82l-90 -17
q7 -15 12 -36.5t5 -35.5q0 -45 -23.5 -82t-71.5 -59t-118 -22q-20 0 -28 1q-52 -1 -75 -11.5t-23 -24.5q0 -15 21.5 -21t78.5 -10l112 -6q85 -6 126 -42t41 -97q0 -74 -65.5 -116.5t-185.5 -42.5q-123 0 -189 37zM387.5 282.5q32.5 27.5 32.5 78.5q0 52 -33 81t-95 29
t-96.5 -29.5t-34.5 -80.5q0 -50 34.5 -78t96.5 -28q63 0 95.5 27.5zM421 -92.5q37 22.5 37 68.5q0 34 -22.5 53t-73.5 23l-148 9q-19 1 -41 -10t-37 -31t-15 -44q0 -45 47.5 -68t137.5 -23q78 0 115 22.5z" />
    <glyph glyph-name="Hcircumflex" unicode="&#x124;" horiz-adv-x="707" 
d="M181 336v-336h-86v723h86v-310h345v310h86v-723h-86v336h-345zM353 886l-76 -66h-79l125 112h62l122 -112h-84z" />
    <glyph glyph-name="hcircumflex" unicode="&#x125;" 
d="M80 743h83v-299q39 31 62.5 46t52 24.5t64.5 9.5q76 0 120.5 -42t44.5 -110v-372h-86v354q0 47 -26 73t-76 26q-41 0 -75 -18.5t-78 -58.5v-376h-86v743zM357 680l-76 -66h-79l125 112h62l122 -112h-84z" />
    <glyph glyph-name="Hbar" unicode="&#x126;" horiz-adv-x="723" 
d="M712.5 612q2.5 -3 2.5 -8v-33q0 -14 -17 -14h-76v-557h-86v336h-345v-336h-86v557h-86q-7 0 -10 3t-3 10v32q0 13 9 13h90v108h86v-108h345v108h86v-108h84q4 0 6.5 -3zM536 557h-345v-144h345v144z" />
    <glyph glyph-name="hbar" unicode="&#x127;" horiz-adv-x="591" 
d="M466.5 482q44.5 -42 44.5 -110v-372h-86v354q0 47 -26 73t-76 26q-41 0 -75 -18.5t-78 -58.5v-376h-86v598h-68v55h68v90h83v-90h155v-55h-155v-154q39 31 62.5 46t52 24.5t64.5 9.5q76 0 120.5 -42z" />
    <glyph glyph-name="Itilde" unicode="&#x128;" horiz-adv-x="276" 
d="M181 723v-723h-86v723h86zM205 843q-19 0 -33.5 3.5t-34.5 10.5q-13 5 -27.5 8.5t-29.5 3.5q-16 0 -27 -4t-20 -9.5t-12 -7.5q-4 -3 -7 -3q-4 0 -7 8l-9 27q-2 4 -2 6q0 4 5 8q20 15 36 22.5t39 7.5q17 0 32 -3.5t37 -10.5q37 -13 61 -13q17 0 29.5 5t27.5 14q4 3 8 3
t7 -7l10 -32l1 -4q0 -4 -4 -7t-5 -4q-31 -22 -75 -22z" />
    <glyph glyph-name="itilde" unicode="&#x129;" horiz-adv-x="245" 
d="M166 0h-86v517h86v-517zM187 637q-19 0 -33.5 3.5t-34.5 10.5q-13 5 -27.5 8.5t-29.5 3.5q-16 0 -27 -4t-20 -9.5t-12 -7.5q-4 -3 -7 -3q-4 0 -7 8l-9 27q-2 4 -2 6q0 4 5 8q20 15 36 22.5t39 7.5q17 0 32 -3.5t37 -10.5q37 -13 61 -13q17 0 29.5 5t27.5 14q4 3 8 3t7 -7
l10 -32l1 -4q0 -4 -4 -7t-5 -4q-31 -22 -75 -22z" />
    <glyph glyph-name="Imacron" unicode="&#x12a;" horiz-adv-x="276" 
d="M181 723v-723h-86v723h86zM287 854h-292v62h292v-62z" />
    <glyph glyph-name="imacron" unicode="&#x12b;" horiz-adv-x="245" 
d="M166 0h-86v517h86v-517zM269 648h-292v62h292v-62z" />
    <glyph glyph-name="Ibreve" unicode="&#x12c;" horiz-adv-x="276" 
d="M181 723v-723h-86v723h86zM238.5 854q-39.5 -31 -97.5 -31q-57 0 -96 30t-51 76h65q31 -52 82 -52q29 0 50 15.5t34 36.5h66q-13 -44 -52.5 -75z" />
    <glyph glyph-name="ibreve" unicode="&#x12d;" horiz-adv-x="245" 
d="M166 0h-86v517h86v-517zM220.5 648q-39.5 -31 -97.5 -31q-57 0 -96 30t-51 76h65q31 -52 82 -52q29 0 50 15.5t34 36.5h66q-13 -44 -52.5 -75z" />
    <glyph glyph-name="Iogonek" unicode="&#x12e;" horiz-adv-x="276" 
d="M181 723v-723h-86v723h86zM36 -34.5q23 23.5 80 41.5l63 -7q-52 -22 -74 -40.5t-22 -42.5q0 -19 11.5 -28t36.5 -9q19 0 35.5 4t25.5 9l6 2q4 0 4 -8v-28q0 -4 -1 -6.5t-5 -4.5q-12 -7 -36 -12t-49 -5q-48 0 -73 21t-25 58q0 32 23 55.5z" />
    <glyph glyph-name="iogonek" unicode="&#x12f;" horiz-adv-x="245" 
d="M166 0h-86v517h86v-517zM169 608h-92v115h92v-115zM19 -30.5q23 23.5 80 41.5l63 -7q-52 -22 -74 -40.5t-22 -42.5q0 -19 11.5 -28t36.5 -9q19 0 35.5 4t25.5 9l6 2q4 0 4 -8v-28q0 -4 -1 -6.5t-5 -4.5q-12 -7 -36 -12t-49 -5q-48 0 -73 21t-25 58q0 32 23 55.5z" />
    <glyph glyph-name="Idotaccent" unicode="&#x130;" horiz-adv-x="276" 
d="M181 723v-723h-86v723h86zM187 814h-92v115h92v-115z" />
    <glyph glyph-name="dotlessi" unicode="&#x131;" horiz-adv-x="245" 
d="M166 0h-86v517h86v-517z" />
    <glyph glyph-name="IJ" unicode="&#x132;" horiz-adv-x="660" 
d="M181 723v-723h-86v723h86zM532.5 33.5q-32.5 -43.5 -117.5 -43.5q-34 0 -66.5 8t-49.5 15l7 83q6 -2 21 -8.5t31.5 -10.5t35.5 -4q48 0 66.5 26.5t18.5 92.5v531h86v-556q0 -90 -32.5 -133.5z" />
    <glyph glyph-name="ij" unicode="&#x133;" horiz-adv-x="524" 
d="M172 627h-92v116h92v-116zM169 0h-86v517h86v-517zM436 627h-93v116h93v-116zM401.5 -132.5q-31.5 -33.5 -107.5 -33.5q-35 0 -49.5 4.5t-14.5 6.5v58l52 2q36 2 50.5 18t14.5 54v540h86v-544q0 -72 -31.5 -105.5z" />
    <glyph glyph-name="Jcircumflex" unicode="&#x134;" horiz-adv-x="384" 
d="M256.5 33.5q-32.5 -43.5 -117.5 -43.5q-34 0 -66.5 8t-49.5 15l7 83q6 -2 21 -8.5t31.5 -10.5t35.5 -4q48 0 66.5 26.5t18.5 92.5v531h86v-556q0 -90 -32.5 -133.5zM233 886l-76 -66h-79l125 112h62l122 -112h-84z" />
    <glyph glyph-name="jcircumflex" unicode="&#x135;" horiz-adv-x="241" 
d="M131.5 -132.5q-31.5 -33.5 -107.5 -33.5q-65 0 -65 11v58l53 2q35 2 50 18.5t15 53.5v540h86v-544q0 -72 -31.5 -105.5zM119 680l-76 -66h-79l125 112h62l122 -112h-84z" />
    <glyph glyph-name="Kcommaaccent" unicode="&#x136;" horiz-adv-x="673" 
d="M542 0l-230 376l-128 -146v-230h-89v723h89v-379l332 379h103l-242 -282l264 -441h-99zM299.5 -229.5q-1.5 3.5 0.5 8.5l27 49q2 3 2 7q0 8 -8 8h-8q-7 0 -9.5 2.5t-2.5 9.5v63q0 12 10 12h58q9 0 9 -10v-77q0 -3 -1 -5t-1 -3l-36 -60q-4 -5 -8 -6.5t-12 -1.5h-14
q-5 0 -6.5 3.5z" />
    <glyph glyph-name="kcommaaccent" unicode="&#x137;" horiz-adv-x="561" 
d="M437 0l-165 264l-106 -110v-154h-86v743h86v-494l253 268h96l-186 -196l199 -321h-91zM241.5 -229.5q-1.5 3.5 0.5 8.5l27 49q2 3 2 7q0 8 -8 8h-8q-7 0 -9.5 2.5t-2.5 9.5v63q0 12 10 12h58q9 0 9 -10v-77q0 -3 -1 -5t-1 -3l-36 -60q-4 -5 -8 -6.5t-12 -1.5h-14
q-5 0 -6.5 3.5z" />
    <glyph glyph-name="kgreenlandic" unicode="&#x138;" horiz-adv-x="570" 
d="M437 0l-155 271l-116 -117v-154h-86v517h86v-271l258 271h96l-179 -182l197 -335h-101z" />
    <glyph glyph-name="Lacute" unicode="&#x139;" horiz-adv-x="559" 
d="M184 723v-645h345v-78h-434v723h89zM272 871l-251 -74l-14 45l243 96z" />
    <glyph glyph-name="lacute" unicode="&#x13a;" horiz-adv-x="289" 
d="M106.5 34q-26.5 37 -26.5 101v608h84v-600q0 -40 15.5 -60t42.5 -22h29v-56q-24 -8 -45 -8q-73 0 -99.5 37zM253 911l-251 -74l-14 45l243 96z" />
    <glyph glyph-name="Lcommaaccent" unicode="&#x13b;" horiz-adv-x="559" 
d="M184 723v-645h345v-78h-434v723h89zM268.5 -229.5q-1.5 3.5 0.5 8.5l27 49q2 3 2 7q0 8 -8 8h-8q-7 0 -9.5 2.5t-2.5 9.5v63q0 12 10 12h58q9 0 9 -10v-77q0 -3 -1 -5t-1 -3l-36 -60q-4 -5 -8 -6.5t-12 -1.5h-14q-5 0 -6.5 3.5z" />
    <glyph glyph-name="lcommaaccent" unicode="&#x13c;" horiz-adv-x="289" 
d="M106.5 34q-26.5 37 -26.5 101v608h84v-600q0 -40 15.5 -60t42.5 -22h29v-56q-24 -8 -45 -8q-73 0 -99.5 37zM77.5 -229.5q-1.5 3.5 0.5 8.5l27 49q2 3 2 7q0 8 -8 8h-8q-7 0 -9.5 2.5t-2.5 9.5v63q0 12 10 12h58q9 0 9 -10v-77q0 -3 -1 -5t-1 -3l-36 -60q-4 -5 -8 -6.5
t-12 -1.5h-14q-5 0 -6.5 3.5z" />
    <glyph glyph-name="Lcaron" unicode="&#x13d;" horiz-adv-x="559" 
d="M184 723v-645h345v-78h-434v723h89zM358 535q-2 3 0 6l29 71q2 6 1.5 8.5t-5.5 3.5l-7 1q-6 1 -8.5 3t-2.5 7v79q0 9 8 9h58q8 0 8 -7v-91q0 -2 -1 -3t-1 -2l-33 -79q-2 -5 -6 -7t-13 -2h-21q-4 0 -6 3z" />
    <glyph glyph-name="lcaron" unicode="&#x13e;" horiz-adv-x="289" 
d="M106.5 34q-26.5 37 -26.5 101v608h84v-600q0 -40 15.5 -60t42.5 -22h29v-56q-24 -8 -45 -8q-73 0 -99.5 37zM219 548q-2 3 0 6l29 71q2 6 1.5 8.5t-5.5 3.5l-7 1q-6 1 -8.5 3t-2.5 7v79q0 9 8 9h58q8 0 8 -7v-91q0 -2 -1 -3t-1 -2l-33 -79q-2 -5 -6 -7t-13 -2h-21
q-4 0 -6 3z" />
    <glyph glyph-name="Ldot" unicode="&#x13f;" horiz-adv-x="577" 
d="M184 723v-645h345v-78h-434v723h89zM523 340h-110v106h110v-106z" />
    <glyph glyph-name="ldot" unicode="&#x140;" horiz-adv-x="339" 
d="M106.5 34q-26.5 37 -26.5 101v608h84v-600q0 -40 15.5 -60t42.5 -22h29v-56q-24 -8 -45 -8q-73 0 -99.5 37zM351 233h-110v106h110v-106z" />
    <glyph glyph-name="Lslash" unicode="&#x141;" horiz-adv-x="562" 
d="M532 78v-78h-434v323l-64 -17l-5 -1q-7 0 -7 10v51q0 12 9 13l67 17v327h89v-303l155 40l4 1q8 0 8 -10v-49q0 -10 -10 -13l-157 -42v-269h345z" />
    <glyph glyph-name="lslash" unicode="&#x142;" horiz-adv-x="267" 
d="M273 61v-56q-24 -8 -45 -8q-73 0 -99.5 37t-26.5 101v104l-92 -77v80l92 75v426h84v-357l80 66v-76l-80 -67v-166q0 -40 15.5 -60t42.5 -22h29z" />
    <glyph glyph-name="Nacute" unicode="&#x143;" horiz-adv-x="746" 
d="M651 723v-723h-76l-394 579v-579h-86v723h81l389 -572v572h86zM516 871l-251 -74l-14 45l243 96z" />
    <glyph glyph-name="nacute" unicode="&#x144;" 
d="M80 517h83v-72q23 36 63.5 58t99.5 22q78 0 129.5 -49t51.5 -137v-339h-85v331q0 58 -32 90t-86 32q-58 0 -98 -27t-40 -77v-349h-86v517zM434 665l-251 -74l-14 45l243 96z" />
    <glyph glyph-name="Ncommaaccent" unicode="&#x145;" horiz-adv-x="746" 
d="M651 723v-723h-76l-394 579v-579h-86v723h81l389 -572v572h86zM317.5 -229.5q-1.5 3.5 0.5 8.5l27 49q2 3 2 7q0 8 -8 8h-8q-7 0 -9.5 2.5t-2.5 9.5v63q0 12 10 12h58q9 0 9 -10v-77q0 -3 -1 -5t-1 -3l-36 -60q-4 -5 -8 -6.5t-12 -1.5h-14q-5 0 -6.5 3.5z" />
    <glyph glyph-name="ncommaaccent" unicode="&#x146;" 
d="M80 517h83v-72q23 36 63.5 58t99.5 22q78 0 129.5 -49t51.5 -137v-339h-85v331q0 58 -32 90t-86 32q-58 0 -98 -27t-40 -77v-349h-86v517zM256.5 -229.5q-1.5 3.5 0.5 8.5l27 49q2 3 2 7q0 8 -8 8h-8q-7 0 -9.5 2.5t-2.5 9.5v63q0 12 10 12h58q9 0 9 -10v-77q0 -3 -1 -5
t-1 -3l-36 -60q-4 -5 -8 -6.5t-12 -1.5h-14q-5 0 -6.5 3.5z" />
    <glyph glyph-name="Ncaron" unicode="&#x147;" horiz-adv-x="746" 
d="M651 723v-723h-76l-394 579v-579h-86v723h81l389 -572v572h86zM537 929l-122 -112h-63l-125 112h80l76 -66l70 66h84z" />
    <glyph glyph-name="ncaron" unicode="&#x148;" 
d="M80 517h83v-72q23 36 63.5 58t99.5 22q78 0 129.5 -49t51.5 -137v-339h-85v331q0 58 -32 90t-86 32q-58 0 -98 -27t-40 -77v-349h-86v517zM455 723l-122 -112h-63l-125 112h80l76 -66l70 66h84z" />
    <glyph glyph-name="napostrophe" unicode="&#x149;" horiz-adv-x="641" 
d="M35 459q-2 3 -1 6l30 114q4 11 -3 13h-7q-11 0 -11 10v112q0 9 8 9h58q7 0 7 -7v-124l-1 -6l-35 -121q-1 -5 -5 -7t-12 -2h-22q-4 0 -6 3zM134 517h83v-72q23 36 63.5 58t99.5 22q78 0 129.5 -49t51.5 -137v-339h-85v331q0 58 -32 90t-86 32q-58 0 -98 -27t-40 -77v-349
h-86v517z" />
    <glyph glyph-name="Eng" unicode="&#x14a;" horiz-adv-x="742" 
d="M644.5 721q2.5 -2 2.5 -9v-730q0 -76 -37.5 -114.5t-117.5 -38.5q-51 0 -93 14q-7 2 -9.5 6.5t-2.5 12.5l5 50q2 13 12 10q35 -11 66 -11q39 0 59.5 20t21.5 67v39l-362 513q-9 12 -9 0v-537q0 -13 -15 -13h-56q-14 0 -14 13v697q0 8 3 10.5t10 2.5h62q7 0 11 -1.5
t8 -7.5l361 -518q4 -5 8 -5q6 0 6 9v511q0 12 13 12h59q6 0 8.5 -2z" />
    <glyph glyph-name="eng" unicode="&#x14b;" horiz-adv-x="596" 
d="M312 -156v57l46 2q34 2 49 18.5t15 54.5v380q0 104 -102 104q-73 0 -154 -79v-381h-86l1 517h82v-79q57 49 98.5 69t89.5 20q73 0 115 -40.5t42 -107.5v-399q0 -70 -35.5 -108t-102.5 -38q-58 0 -58 10z" />
    <glyph glyph-name="Omacron" unicode="&#x14c;" horiz-adv-x="727" 
d="M198 33q-70 43 -107.5 126t-37.5 200q0 118 38 202t108 128t166 44q95 0 164.5 -44t107 -127.5t37.5 -201.5q0 -117 -37.5 -200t-107 -126.5t-165.5 -43.5t-166 43zM525 138q55 72 55 221q0 151 -55.5 225t-159.5 74q-105 0 -161.5 -74.5t-56.5 -224.5
q0 -148 56.5 -220.5t161.5 -72.5t160 72zM511 854h-292v62h292v-62z" />
    <glyph glyph-name="omacron" unicode="&#x14d;" horiz-adv-x="567" 
d="M158 23.5q-53 33.5 -81 93.5t-28 138q0 80 28.5 141.5t82 96t125.5 34.5t124.5 -34.5t80.5 -96t28 -140.5q0 -78 -28 -138.5t-80.5 -94t-125.5 -33.5t-126 33.5zM396 113.5q37 55.5 37 145.5t-37.5 145t-110.5 55q-74 0 -112 -55.5t-38 -144.5q0 -90 38 -145.5t113 -55.5
q73 0 110 55.5zM432 648h-292v62h292v-62z" />
    <glyph glyph-name="Obreve" unicode="&#x14e;" horiz-adv-x="727" 
d="M198 33q-70 43 -107.5 126t-37.5 200q0 118 38 202t108 128t166 44q95 0 164.5 -44t107 -127.5t37.5 -201.5q0 -117 -37.5 -200t-107 -126.5t-165.5 -43.5t-166 43zM525 138q55 72 55 221q0 151 -55.5 225t-159.5 74q-105 0 -161.5 -74.5t-56.5 -224.5
q0 -148 56.5 -220.5t161.5 -72.5t160 72zM462.5 854q-39.5 -31 -97.5 -31q-57 0 -96 30t-51 76h65q31 -52 82 -52q29 0 50 15.5t34 36.5h66q-13 -44 -52.5 -75z" />
    <glyph glyph-name="obreve" unicode="&#x14f;" horiz-adv-x="567" 
d="M158 23.5q-53 33.5 -81 93.5t-28 138q0 80 28.5 141.5t82 96t125.5 34.5t124.5 -34.5t80.5 -96t28 -140.5q0 -78 -28 -138.5t-80.5 -94t-125.5 -33.5t-126 33.5zM396 113.5q37 55.5 37 145.5t-37.5 145t-110.5 55q-74 0 -112 -55.5t-38 -144.5q0 -90 38 -145.5t113 -55.5
q73 0 110 55.5zM383.5 648q-39.5 -31 -97.5 -31q-57 0 -96 30t-51 76h65q31 -52 82 -52q29 0 50 15.5t34 36.5h66q-13 -44 -52.5 -75z" />
    <glyph glyph-name="Ohungarumlaut" unicode="&#x150;" horiz-adv-x="727" 
d="M198 33q-70 43 -107.5 126t-37.5 200q0 118 38 202t108 128t166 44q95 0 164.5 -44t107 -127.5t37.5 -201.5q0 -117 -37.5 -200t-107 -126.5t-165.5 -43.5t-166 43zM525 138q55 72 55 221q0 151 -55.5 225t-159.5 74q-105 0 -161.5 -74.5t-56.5 -224.5
q0 -148 56.5 -220.5t161.5 -72.5t160 72zM399 897q5 -5 5 -9q0 -5 -8 -11l-126 -103q-10 -4 -11 -4q-4 0 -7 5l-16 19q-8 8 -1 14l121 125q3 4 7 3.5t6 -3.5zM559 897q5 -5 5 -9q0 -5 -8 -11l-127 -103q-8 -4 -10 -4q-4 0 -7 5l-16 19q-7 9 0 14l120 125q7 7 13 0z" />
    <glyph glyph-name="ohungarumlaut" unicode="&#x151;" horiz-adv-x="567" 
d="M158 23.5q-53 33.5 -81 93.5t-28 138q0 80 28.5 141.5t82 96t125.5 34.5t124.5 -34.5t80.5 -96t28 -140.5q0 -78 -28 -138.5t-80.5 -94t-125.5 -33.5t-126 33.5zM396 113.5q37 55.5 37 145.5t-37.5 145t-110.5 55q-74 0 -112 -55.5t-38 -144.5q0 -90 38 -145.5t113 -55.5
q73 0 110 55.5zM320 691q5 -5 5 -9q0 -5 -8 -11l-126 -103q-10 -4 -11 -4q-4 0 -7 5l-16 19q-8 8 -1 14l121 125q3 4 7 3.5t6 -3.5zM480 691q5 -5 5 -9q0 -5 -8 -11l-127 -103q-8 -4 -10 -4q-4 0 -7 5l-16 19q-7 9 0 14l120 125q7 7 13 0z" />
    <glyph glyph-name="OE" unicode="&#x152;" horiz-adv-x="1107" 
d="M1042 0h-445l-15 96q-33 -52 -87.5 -79t-126.5 -27q-149 0 -232 96.5t-83 272.5q0 118 38 202t110 128t171 44q71 0 124 -27t86 -80l19 97h428v-75h-359v-246h266v-74h-266v-253h372v-75zM520 136q50 72 50 223q0 153 -51 226.5t-154 73.5q-105 0 -157.5 -74t-52.5 -226
q0 -150 52.5 -222.5t157.5 -72.5t155 72z" />
    <glyph glyph-name="oe" unicode="&#x153;" horiz-adv-x="985" 
d="M167 23q-56 33 -87 93.5t-31 138.5q0 80 31.5 142t88 96t128.5 34q64 0 114.5 -28.5t80.5 -80.5q5 -6 8 -6q5 0 8 6q30 51 79.5 80t111.5 29q110 0 173.5 -76t63.5 -210h-393q0 -52 22.5 -94.5t60.5 -67t84 -24.5q98 0 156 87l59 -30q-40 -64 -94 -93t-129 -29
q-63 0 -113.5 27.5t-81.5 76.5q-3 7 -7 7q-5 0 -11 -10q-31 -48 -80.5 -74.5t-112.5 -26.5q-73 0 -129 33zM621 443.5q-36 -21.5 -56 -59.5t-20 -88l307 -1q0 45 -19 84t-53 62.5t-78 23.5q-45 0 -81 -21.5zM414 108.5q42 54.5 42 149.5t-43 150t-116 55t-116.5 -55
t-43.5 -150t43.5 -149.5t117.5 -54.5t116 54.5z" />
    <glyph glyph-name="Racute" unicode="&#x154;" horiz-adv-x="675" 
d="M515 0l-133 316h-201v-316h-86v723h277q114 0 174 -51t60 -144q0 -81 -40.5 -128t-102.5 -69l144 -331h-92zM472.5 421.5q45.5 33.5 45.5 100.5q0 64 -40 97t-113 33h-184v-264h161q85 0 130.5 33.5zM459 871l-251 -74l-14 45l243 96z" />
    <glyph glyph-name="racute" unicode="&#x155;" horiz-adv-x="385" 
d="M80 517h81v-108q27 51 80.5 84.5t110.5 33.5v-83q-50 2 -93 -16.5t-68 -50t-25 -63.5v-314h-86v517zM345 665l-251 -74l-14 45l243 96z" />
    <glyph glyph-name="Rcommaaccent" unicode="&#x156;" horiz-adv-x="675" 
d="M515 0l-133 316h-201v-316h-86v723h277q114 0 174 -51t60 -144q0 -81 -40.5 -128t-102.5 -69l144 -331h-92zM472.5 421.5q45.5 33.5 45.5 100.5q0 64 -40 97t-113 33h-184v-264h161q85 0 130.5 33.5zM295.5 -229.5q-1.5 3.5 0.5 8.5l27 49q2 3 2 7q0 8 -8 8h-8
q-7 0 -9.5 2.5t-2.5 9.5v63q0 12 10 12h58q9 0 9 -10v-77q0 -3 -1 -5t-1 -3l-36 -60q-4 -5 -8 -6.5t-12 -1.5h-14q-5 0 -6.5 3.5z" />
    <glyph glyph-name="rcommaaccent" unicode="&#x157;" horiz-adv-x="385" 
d="M80 517h81v-108q27 51 80.5 84.5t110.5 33.5v-83q-50 2 -93 -16.5t-68 -50t-25 -63.5v-314h-86v517zM87.5 -229.5q-1.5 3.5 0.5 8.5l27 49q2 3 2 7q0 8 -8 8h-8q-7 0 -9.5 2.5t-2.5 9.5v63q0 12 10 12h58q9 0 9 -10v-77q0 -3 -1 -5t-1 -3l-36 -60q-4 -5 -8 -6.5t-12 -1.5
h-14q-5 0 -6.5 3.5z" />
    <glyph glyph-name="Rcaron" unicode="&#x158;" horiz-adv-x="675" 
d="M515 0l-133 316h-201v-316h-86v723h277q114 0 174 -51t60 -144q0 -81 -40.5 -128t-102.5 -69l144 -331h-92zM472.5 421.5q45.5 33.5 45.5 100.5q0 64 -40 97t-113 33h-184v-264h161q85 0 130.5 33.5zM480 929l-122 -112h-63l-125 112h80l76 -66l70 66h84z" />
    <glyph glyph-name="rcaron" unicode="&#x159;" horiz-adv-x="385" 
d="M80 517h81v-108q27 51 80.5 84.5t110.5 33.5v-83q-50 2 -93 -16.5t-68 -50t-25 -63.5v-314h-86v517zM366 723l-122 -112h-63l-125 112h80l76 -66l70 66h84z" />
    <glyph glyph-name="Sacute" unicode="&#x15a;" horiz-adv-x="667" 
d="M206.5 12.5q-61.5 22.5 -103 66t-50.5 104.5l90 6q14 -61 68 -94t128 -33q81 0 133 33.5t52 88.5q0 49 -32 79t-96 45l-147 34q-83 18 -128 63.5t-46 117.5q0 61 33.5 108.5t92.5 74t135 26.5q80 0 138.5 -28t90.5 -74t38 -101l-87 -5q-11 70 -60 102t-121 32
q-67 0 -117 -33.5t-50 -93.5q0 -43 29 -70t100 -44l142 -34q175 -38 175 -198q0 -55 -33 -99t-95 -70t-147 -26q-71 0 -132.5 22.5zM467 871l-251 -74l-14 45l243 96z" />
    <glyph glyph-name="sacute" unicode="&#x15b;" horiz-adv-x="506" 
d="M113.5 28.5q-56.5 38.5 -69.5 106.5l74 11q27 -91 135 -91q56 0 93.5 22.5t37.5 61.5q0 60 -79 79l-107 23q-69 16 -102 49t-33 84q0 71 52 112t142 41q92 0 143.5 -42t53.5 -107l-74 -6q-18 91 -125 91q-48 0 -80.5 -19.5t-32.5 -64.5q0 -24 19.5 -41.5t68.5 -29.5
l106 -26q68 -17 97 -55t29 -85q0 -44 -26.5 -79t-74 -54t-108.5 -19q-83 0 -139.5 38.5zM380 665l-251 -74l-14 45l243 96z" />
    <glyph glyph-name="Scircumflex" unicode="&#x15c;" horiz-adv-x="667" 
d="M206.5 12.5q-61.5 22.5 -103 66t-50.5 104.5l90 6q14 -61 68 -94t128 -33q81 0 133 33.5t52 88.5q0 49 -32 79t-96 45l-147 34q-83 18 -128 63.5t-46 117.5q0 61 33.5 108.5t92.5 74t135 26.5q80 0 138.5 -28t90.5 -74t38 -101l-87 -5q-11 70 -60 102t-121 32
q-67 0 -117 -33.5t-50 -93.5q0 -43 29 -70t100 -44l142 -34q175 -38 175 -198q0 -55 -33 -99t-95 -70t-147 -26q-71 0 -132.5 22.5zM334 886l-76 -66h-79l125 112h62l122 -112h-84z" />
    <glyph glyph-name="scircumflex" unicode="&#x15d;" horiz-adv-x="506" 
d="M113.5 28.5q-56.5 38.5 -69.5 106.5l74 11q27 -91 135 -91q56 0 93.5 22.5t37.5 61.5q0 60 -79 79l-107 23q-69 16 -102 49t-33 84q0 71 52 112t142 41q92 0 143.5 -42t53.5 -107l-74 -6q-18 91 -125 91q-48 0 -80.5 -19.5t-32.5 -64.5q0 -24 19.5 -41.5t68.5 -29.5
l106 -26q68 -17 97 -55t29 -85q0 -44 -26.5 -79t-74 -54t-108.5 -19q-83 0 -139.5 38.5zM247 680l-76 -66h-79l125 112h62l122 -112h-84z" />
    <glyph glyph-name="Scedilla" unicode="&#x15e;" horiz-adv-x="667" 
d="M206.5 12.5q-61.5 22.5 -103 66t-50.5 104.5l90 6q14 -61 68 -94t128 -33q81 0 133 33.5t52 88.5q0 49 -32 79t-96 45l-147 34q-83 18 -128 63.5t-46 117.5q0 61 33.5 108.5t92.5 74t135 26.5q80 0 138.5 -28t90.5 -74t38 -101l-87 -5q-11 70 -60 102t-121 32
q-67 0 -117 -33.5t-50 -93.5q0 -43 29 -70t100 -44l142 -34q175 -38 175 -198q0 -55 -33 -99t-95 -70t-147 -26q-71 0 -132.5 22.5zM389.5 -184.5q-30.5 -20.5 -76.5 -20.5q-56 0 -92 25l14 37q30 -23 68 -23q54 0 54 37q0 22 -18.5 32.5t-60.5 11.5q-9 0 -6 7l37 83h46
l-23 -61q46 -2 67 -23t21 -49q0 -36 -30.5 -56.5z" />
    <glyph glyph-name="scedilla" unicode="&#x15f;" horiz-adv-x="506" 
d="M113.5 28.5q-56.5 38.5 -69.5 106.5l74 11q27 -91 135 -91q56 0 93.5 22.5t37.5 61.5q0 60 -79 79l-107 23q-69 16 -102 49t-33 84q0 71 52 112t142 41q92 0 143.5 -42t53.5 -107l-74 -6q-18 91 -125 91q-48 0 -80.5 -19.5t-32.5 -64.5q0 -24 19.5 -41.5t68.5 -29.5
l106 -26q68 -17 97 -55t29 -85q0 -44 -26.5 -79t-74 -54t-108.5 -19q-83 0 -139.5 38.5zM311.5 -184.5q-30.5 -20.5 -76.5 -20.5q-56 0 -92 25l14 37q30 -23 68 -23q54 0 54 37q0 22 -18.5 32.5t-60.5 11.5q-9 0 -6 7l37 83h46l-23 -61q46 -2 67 -23t21 -49
q0 -36 -30.5 -56.5z" />
    <glyph glyph-name="Scaron" unicode="&#x160;" horiz-adv-x="667" 
d="M206.5 12.5q-61.5 22.5 -103 66t-50.5 104.5l90 6q14 -61 68 -94t128 -33q81 0 133 33.5t52 88.5q0 49 -32 79t-96 45l-147 34q-83 18 -128 63.5t-46 117.5q0 61 33.5 108.5t92.5 74t135 26.5q80 0 138.5 -28t90.5 -74t38 -101l-87 -5q-11 70 -60 102t-121 32
q-67 0 -117 -33.5t-50 -93.5q0 -43 29 -70t100 -44l142 -34q175 -38 175 -198q0 -55 -33 -99t-95 -70t-147 -26q-71 0 -132.5 22.5zM488 929l-122 -112h-63l-125 112h80l76 -66l70 66h84z" />
    <glyph glyph-name="scaron" unicode="&#x161;" horiz-adv-x="506" 
d="M113.5 28.5q-56.5 38.5 -69.5 106.5l74 11q27 -91 135 -91q56 0 93.5 22.5t37.5 61.5q0 60 -79 79l-107 23q-69 16 -102 49t-33 84q0 71 52 112t142 41q92 0 143.5 -42t53.5 -107l-74 -6q-18 91 -125 91q-48 0 -80.5 -19.5t-32.5 -64.5q0 -24 19.5 -41.5t68.5 -29.5
l106 -26q68 -17 97 -55t29 -85q0 -44 -26.5 -79t-74 -54t-108.5 -19q-83 0 -139.5 38.5zM401 723l-122 -112h-63l-125 112h80l76 -66l70 66h84z" />
    <glyph glyph-name="uni0162" unicode="&#x162;" horiz-adv-x="571" 
d="M14 723h543v-79h-222v-644h-86v644h-235v79zM355.5 -184.5q-30.5 -20.5 -76.5 -20.5q-56 0 -92 25l14 37q30 -23 68 -23q54 0 54 37q0 22 -18.5 32.5t-60.5 11.5q-9 0 -6 7l37 83h46l-23 -61q46 -2 67 -23t21 -49q0 -36 -30.5 -56.5z" />
    <glyph glyph-name="uni0163" unicode="&#x163;" horiz-adv-x="388" 
d="M215 454v-324q0 -40 12.5 -54.5t38.5 -14.5h71v-55q-21 -8 -75 -8q-75 0 -104 30.5t-29 95.5v330h-84v63h86l9 171h75v-171h117v-63h-117zM318.5 -184.5q-30.5 -20.5 -76.5 -20.5q-56 0 -92 25l14 37q30 -23 68 -23q54 0 54 37q0 22 -18.5 32.5t-60.5 11.5q-9 0 -6 7
l37 83h46l-23 -61q46 -2 67 -23t21 -49q0 -36 -30.5 -56.5z" />
    <glyph glyph-name="Tcaron" unicode="&#x164;" horiz-adv-x="571" 
d="M14 723h543v-79h-222v-644h-86v644h-235v79zM450 929l-122 -112h-63l-125 112h80l76 -66l70 66h84z" />
    <glyph glyph-name="tcaron" unicode="&#x165;" horiz-adv-x="388" 
d="M215 454v-324q0 -40 12.5 -54.5t38.5 -14.5h71v-55q-21 -8 -75 -8q-75 0 -104 30.5t-29 95.5v330h-84v63h86l9 171h75v-171h117v-63h-117zM307 566q-2 3 0 6l29 71q2 6 1.5 8.5t-5.5 3.5l-7 1q-6 1 -8.5 3t-2.5 7v79q0 9 8 9h58q8 0 8 -7v-91q0 -2 -1 -3t-1 -2l-33 -79
q-2 -5 -6 -7t-13 -2h-21q-4 0 -6 3z" />
    <glyph glyph-name="Tbar" unicode="&#x166;" horiz-adv-x="571" 
d="M335 644v-246h170v-70h-170v-328h-86v328h-122v70h122v246h-235v79h543v-79h-222z" />
    <glyph glyph-name="tbar" unicode="&#x167;" horiz-adv-x="375" 
d="M340 61v-55q-21 -8 -75 -8q-75 0 -104 30.5t-29 95.5v135h-89v55h89v140h-84v63h86l9 171h75v-171h117v-63h-117v-140h90v-55h-90v-129q0 -40 12.5 -54.5t38.5 -14.5h71z" />
    <glyph glyph-name="Utilde" unicode="&#x168;" horiz-adv-x="713" 
d="M554.5 55q-63.5 -65 -198.5 -65q-136 0 -198.5 67t-62.5 200v466h89v-480q0 -88 44 -132.5t128 -44.5q85 0 130 44t45 133v480h87v-476q0 -127 -63.5 -192zM417 843q-19 0 -33.5 3.5t-34.5 10.5q-13 5 -27.5 8.5t-29.5 3.5q-16 0 -27 -4t-20 -9.5t-12 -7.5q-4 -3 -7 -3
q-4 0 -7 8l-9 27q-2 4 -2 6q0 4 5 8q20 15 36 22.5t39 7.5q17 0 32 -3.5t37 -10.5q37 -13 61 -13q17 0 29.5 5t27.5 14q4 3 8 3t7 -7l10 -32l1 -4q0 -4 -4 -7t-5 -4q-31 -22 -75 -22z" />
    <glyph glyph-name="utilde" unicode="&#x169;" 
d="M184 9q-45 18 -74.5 58t-29.5 101v350h86v-342q0 -61 37.5 -89.5t87.5 -28.5q54 0 91.5 32.5t38.5 90.5v337h86l-1 -517h-68l-4 80q-17 -36 -62.5 -63t-95.5 -27q-47 0 -92 18zM349 637q-19 0 -33.5 3.5t-34.5 10.5q-13 5 -27.5 8.5t-29.5 3.5q-16 0 -27 -4t-20 -9.5
t-12 -7.5q-4 -3 -7 -3q-4 0 -7 8l-9 27q-2 4 -2 6q0 4 5 8q20 15 36 22.5t39 7.5q17 0 32 -3.5t37 -10.5q37 -13 61 -13q17 0 29.5 5t27.5 14q4 3 8 3t7 -7l10 -32l1 -4q0 -4 -4 -7t-5 -4q-31 -22 -75 -22z" />
    <glyph glyph-name="Umacron" unicode="&#x16a;" horiz-adv-x="713" 
d="M554.5 55q-63.5 -65 -198.5 -65q-136 0 -198.5 67t-62.5 200v466h89v-480q0 -88 44 -132.5t128 -44.5q85 0 130 44t45 133v480h87v-476q0 -127 -63.5 -192zM499 854h-292v62h292v-62z" />
    <glyph glyph-name="umacron" unicode="&#x16b;" 
d="M184 9q-45 18 -74.5 58t-29.5 101v350h86v-342q0 -61 37.5 -89.5t87.5 -28.5q54 0 91.5 32.5t38.5 90.5v337h86l-1 -517h-68l-4 80q-17 -36 -62.5 -63t-95.5 -27q-47 0 -92 18zM431 648h-292v62h292v-62z" />
    <glyph glyph-name="Ubreve" unicode="&#x16c;" horiz-adv-x="713" 
d="M554.5 55q-63.5 -65 -198.5 -65q-136 0 -198.5 67t-62.5 200v466h89v-480q0 -88 44 -132.5t128 -44.5q85 0 130 44t45 133v480h87v-476q0 -127 -63.5 -192zM450.5 854q-39.5 -31 -97.5 -31q-57 0 -96 30t-51 76h65q31 -52 82 -52q29 0 50 15.5t34 36.5h66
q-13 -44 -52.5 -75z" />
    <glyph glyph-name="ubreve" unicode="&#x16d;" 
d="M184 9q-45 18 -74.5 58t-29.5 101v350h86v-342q0 -61 37.5 -89.5t87.5 -28.5q54 0 91.5 32.5t38.5 90.5v337h86l-1 -517h-68l-4 80q-17 -36 -62.5 -63t-95.5 -27q-47 0 -92 18zM382.5 648q-39.5 -31 -97.5 -31q-57 0 -96 30t-51 76h65q31 -52 82 -52q29 0 50 15.5
t34 36.5h66q-13 -44 -52.5 -75z" />
    <glyph glyph-name="Uring" unicode="&#x16e;" horiz-adv-x="713" 
d="M554.5 55q-63.5 -65 -198.5 -65q-136 0 -198.5 67t-62.5 200v466h89v-480q0 -88 44 -132.5t128 -44.5q85 0 130 44t45 133v480h87v-476q0 -127 -63.5 -192zM426.5 813.5q-29.5 -29.5 -73.5 -29.5q-43 0 -72.5 30t-29.5 74q0 41 30 70t72 29q43 0 73 -29.5t30 -71.5
q0 -43 -29.5 -72.5zM390.5 924q-15.5 15 -38.5 15q-22 0 -38 -15.5t-16 -38.5q0 -22 16 -38.5t38 -16.5t38 16.5t16 38.5q0 24 -15.5 39z" />
    <glyph glyph-name="uring" unicode="&#x16f;" 
d="M184 9q-45 18 -74.5 58t-29.5 101v350h86v-342q0 -61 37.5 -89.5t87.5 -28.5q54 0 91.5 32.5t38.5 90.5v337h86l-1 -517h-68l-4 80q-17 -36 -62.5 -63t-95.5 -27q-47 0 -92 18zM358.5 607.5q-29.5 -29.5 -73.5 -29.5q-43 0 -72.5 30t-29.5 74q0 41 30 70t72 29
q43 0 73 -29.5t30 -71.5q0 -43 -29.5 -72.5zM322.5 718q-15.5 15 -38.5 15q-22 0 -38 -15.5t-16 -38.5q0 -22 16 -38.5t38 -16.5t38 16.5t16 38.5q0 24 -15.5 39z" />
    <glyph glyph-name="Uhungarumlaut" unicode="&#x170;" horiz-adv-x="713" 
d="M554.5 55q-63.5 -65 -198.5 -65q-136 0 -198.5 67t-62.5 200v466h89v-480q0 -88 44 -132.5t128 -44.5q85 0 130 44t45 133v480h87v-476q0 -127 -63.5 -192zM387 897q5 -5 5 -9q0 -5 -8 -11l-126 -103q-10 -4 -11 -4q-4 0 -7 5l-16 19q-8 8 -1 14l121 125q3 4 7 3.5
t6 -3.5zM547 897q5 -5 5 -9q0 -5 -8 -11l-127 -103q-8 -4 -10 -4q-4 0 -7 5l-16 19q-7 9 0 14l120 125q7 7 13 0z" />
    <glyph glyph-name="uhungarumlaut" unicode="&#x171;" 
d="M184 9q-45 18 -74.5 58t-29.5 101v350h86v-342q0 -61 37.5 -89.5t87.5 -28.5q54 0 91.5 32.5t38.5 90.5v337h86l-1 -517h-68l-4 80q-17 -36 -62.5 -63t-95.5 -27q-47 0 -92 18zM319 691q5 -5 5 -9q0 -5 -8 -11l-126 -103q-10 -4 -11 -4q-4 0 -7 5l-16 19q-8 8 -1 14
l121 125q3 4 7 3.5t6 -3.5zM479 691q5 -5 5 -9q0 -5 -8 -11l-127 -103q-8 -4 -10 -4q-4 0 -7 5l-16 19q-7 9 0 14l120 125q7 7 13 0z" />
    <glyph glyph-name="Uogonek" unicode="&#x172;" horiz-adv-x="713" 
d="M554.5 55q-63.5 -65 -198.5 -65q-136 0 -198.5 67t-62.5 200v466h89v-480q0 -88 44 -132.5t128 -44.5q85 0 130 44t45 133v480h87v-476q0 -127 -63.5 -192zM296 -32.5q23 23.5 80 41.5l63 -7q-52 -22 -74 -40.5t-22 -42.5q0 -19 11.5 -28t36.5 -9q19 0 35.5 4t25.5 9l6 2
q4 0 4 -8v-28q0 -4 -1 -6.5t-5 -4.5q-12 -7 -36 -12t-49 -5q-48 0 -73 21t-25 58q0 32 23 55.5z" />
    <glyph glyph-name="uogonek" unicode="&#x173;" 
d="M184 9q-45 18 -74.5 58t-29.5 101v350h86v-342q0 -61 37.5 -89.5t87.5 -28.5q54 0 91.5 32.5t38.5 90.5v337h86l-1 -517h-68l-4 80q-17 -36 -62.5 -63t-95.5 -27q-47 0 -92 18zM359 -31.5q23 23.5 80 41.5l63 -7q-52 -22 -74 -40.5t-22 -42.5q0 -19 11.5 -28t36.5 -9
q19 0 35.5 4t25.5 9l6 2q4 0 4 -8v-28q0 -4 -1 -6.5t-5 -4.5q-12 -7 -36 -12t-49 -5q-48 0 -73 21t-25 58q0 32 23 55.5z" />
    <glyph glyph-name="Wcircumflex" unicode="&#x174;" horiz-adv-x="952" 
d="M718 0h-82l-161 572l-164 -572h-80l-207 723h87l163 -588l167 588h68l166 -588l167 588h86zM480 886l-76 -66h-79l125 112h62l122 -112h-84z" />
    <glyph glyph-name="wcircumflex" unicode="&#x175;" horiz-adv-x="774" 
d="M590 0h-80l-124 390l-118 -390h-80l-163 517h80l125 -407l124 407h66l128 -406l120 406h81zM391 680l-76 -66h-79l125 112h62l122 -112h-84z" />
    <glyph glyph-name="Ycircumflex" unicode="&#x176;" horiz-adv-x="590" 
d="M339 308v-308h-86v309l-246 414h94l196 -337l192 337h94zM300 886l-76 -66h-79l125 112h62l122 -112h-84z" />
    <glyph glyph-name="ycircumflex" unicode="&#x177;" horiz-adv-x="525" 
d="M79.5 -162.5q-17.5 2.5 -25 5.5t-9.5 4v56l54 -1q50 -1 72.5 15t33.5 43l19 51l-202 506h87l156 -407l155 407h83l-218 -561q-28 -67 -67 -94t-95 -27q-26 0 -43.5 2.5zM271 680l-76 -66h-79l125 112h62l122 -112h-84z" />
    <glyph glyph-name="Ydieresis" unicode="&#x178;" horiz-adv-x="590" 
d="M339 308v-308h-86v309l-246 414h94l196 -337l192 337h94zM269 821h-84v108h84v-108zM415 821h-84v108h84v-108z" />
    <glyph glyph-name="Zacute" unicode="&#x179;" horiz-adv-x="621" 
d="M51 48l400 600h-384v75h504v-46l-403 -601h401v-76h-518v48zM455 871l-251 -74l-14 45l243 96z" />
    <glyph glyph-name="zacute" unicode="&#x17a;" horiz-adv-x="486" 
d="M41 54l300 403h-279v60h382v-55l-300 -402h305v-60h-408v54zM392 665l-251 -74l-14 45l243 96z" />
    <glyph glyph-name="Zdotaccent" unicode="&#x17b;" horiz-adv-x="621" 
d="M51 48l400 600h-384v75h504v-46l-403 -601h401v-76h-518v48zM368 814h-92v115h92v-115z" />
    <glyph glyph-name="zdotaccent" unicode="&#x17c;" horiz-adv-x="486" 
d="M41 54l300 403h-279v60h382v-55l-300 -402h305v-60h-408v54zM305 608h-92v115h92v-115z" />
    <glyph glyph-name="Zcaron" unicode="&#x17d;" horiz-adv-x="621" 
d="M51 48l400 600h-384v75h504v-46l-403 -601h401v-76h-518v48zM477 929l-122 -112h-63l-125 112h80l76 -66l70 66h84z" />
    <glyph glyph-name="zcaron" unicode="&#x17e;" horiz-adv-x="486" 
d="M41 54l300 403h-279v60h382v-55l-300 -402h305v-60h-408v54zM413 723l-122 -112h-63l-125 112h80l76 -66l70 66h84z" />
    <glyph glyph-name="uni018F" unicode="&#x18f;" horiz-adv-x="725" 
d="M524 574.5q-43 78.5 -160 78.5q-62 0 -101.5 -23.5t-58 -53t-36.5 -71.5q-9 -22 -11 -26q-1 -3 -5 -3l-8 2l-67 29q-5 2 -5 6q0 3 3 9q26 56 53.5 97.5t86 77.5t148.5 36q111 0 180 -53.5t99 -137.5t30 -181q0 -100 -34 -184.5t-104 -135.5t-172 -51q-161 0 -235 103.5
t-74 273.5q0 9 2 13t10 4h492q5 0 7.5 2t2.5 8q0 102 -43 180.5zM172 314q-7 0 -9.5 -2t-2.5 -7q0 -100 47.5 -170t154.5 -70q108 0 154 68.5t51 180.5h-395z" />
    <glyph glyph-name="florin" unicode="&#x192;" horiz-adv-x="447" 
d="M365 454h-128l-86 -491q-11 -62 -48 -96t-98 -34h-81l9 62h57q35 1 52.5 18.5t24.5 61.5l84 479h-83l11 63h83l14 81q11 61 49 93t97 32h94l-9 -62h-74q-28 0 -48 -20t-26 -52l-12 -72h129z" />
    <glyph glyph-name="uni01C4" unicode="&#x1c4;" horiz-adv-x="1306" 
d="M257 722q196 -2 286 -91t90 -265q0 -183 -95 -274.5t-291 -91.5h-152v723q101 0 162 -1zM184 75h63q146 0 221 68t75 221q0 154 -73.5 219t-218.5 65h-67v-573zM736 48l400 600h-384v75h504v-46l-403 -601h401v-76h-518v48zM1162 929l-122 -112h-63l-125 112h80l76 -66
l70 66h84z" />
    <glyph glyph-name="uni01C5" unicode="&#x1c5;" horiz-adv-x="1171" 
d="M257 722q196 -2 286 -91t90 -265q0 -183 -95 -274.5t-291 -91.5h-152v723q101 0 162 -1zM184 75h63q146 0 221 68t75 221q0 154 -73.5 219t-218.5 65h-67v-573zM726 54l300 403h-279v60h382v-55l-300 -402h305v-60h-408v54zM1098 723l-122 -112h-63l-125 112h80l76 -66
l70 66h84z" />
    <glyph glyph-name="uni01C6" unicode="&#x1c6;" horiz-adv-x="1069" 
d="M106 58.5q-57 68.5 -57 194.5q0 125 57 199.5t159 74.5q44 0 81 -16t72 -49v281h86v-743h-68l-4 74q-67 -84 -169 -84q-100 0 -157 68.5zM349.5 76q31.5 19 50 49.5t18.5 62.5v188q-50 83 -133 83q-70 0 -110.5 -52t-40.5 -151q0 -100 40.5 -149.5t105.5 -49.5
q38 0 69.5 19zM624 54l300 403h-279v60h382v-55l-300 -402h305v-60h-408v54zM996 723l-122 -112h-63l-125 112h80l76 -66l70 66h84z" />
    <glyph glyph-name="uni01C7" unicode="&#x1c7;" horiz-adv-x="976" 
d="M184 723v-645h345v-78h-434v723h89zM848.5 33.5q-32.5 -43.5 -117.5 -43.5q-34 0 -66.5 8t-49.5 15l7 83q6 -2 21 -8.5t31.5 -10.5t35.5 -4q48 0 66.5 26.5t18.5 92.5v531h86v-556q0 -90 -32.5 -133.5z" />
    <glyph glyph-name="uni01C8" unicode="&#x1c8;" horiz-adv-x="831" 
d="M184 723v-645h345v-78h-434v723h89zM743 627h-93v116h93v-116zM708.5 -132.5q-31.5 -33.5 -107.5 -33.5q-35 0 -49.5 4.5t-14.5 6.5v58l52 2q36 2 50.5 18t14.5 54v540h86v-544q0 -72 -31.5 -105.5z" />
    <glyph glyph-name="uni01C9" unicode="&#x1c9;" horiz-adv-x="561" 
d="M106.5 34q-26.5 37 -26.5 101v608h84v-600q0 -40 15.5 -60t42.5 -22h29v-56q-24 -8 -45 -8q-73 0 -99.5 37zM473 627h-93v116h93v-116zM438.5 -132.5q-31.5 -33.5 -107.5 -33.5q-35 0 -49.5 4.5t-14.5 6.5v58l52 2q36 2 50.5 18t14.5 54v540h86v-544q0 -72 -31.5 -105.5z
" />
    <glyph glyph-name="uni01CA" unicode="&#x1ca;" horiz-adv-x="1130" 
d="M651 723v-723h-76l-394 579v-579h-86v723h81l389 -572v572h86zM1002.5 33.5q-32.5 -43.5 -117.5 -43.5q-34 0 -66.5 8t-49.5 15l7 83q6 -2 21 -8.5t31.5 -10.5t35.5 -4q48 0 66.5 26.5t18.5 92.5v531h86v-556q0 -90 -32.5 -133.5z" />
    <glyph glyph-name="uni01CB" unicode="&#x1cb;" horiz-adv-x="1018" 
d="M651 723v-723h-76l-394 579v-579h-86v723h81l389 -572v572h86zM930 627h-93v116h93v-116zM895.5 -132.5q-31.5 -33.5 -107.5 -33.5q-35 0 -49.5 4.5t-14.5 6.5v58l52 2q36 2 50.5 18t14.5 54v540h86v-544q0 -72 -31.5 -105.5z" />
    <glyph glyph-name="uni01CC" unicode="&#x1cc;" horiz-adv-x="859" 
d="M80 517h83v-72q23 36 63.5 58t99.5 22q78 0 129.5 -49t51.5 -137v-339h-85v331q0 58 -32 90t-86 32q-58 0 -98 -27t-40 -77v-349h-86v517zM771 627h-93v116h93v-116zM736.5 -132.5q-31.5 -33.5 -107.5 -33.5q-35 0 -49.5 4.5t-14.5 6.5v58l52 2q36 2 50.5 18t14.5 54v540
h86v-544q0 -72 -31.5 -105.5z" />
    <glyph glyph-name="uni01EA" unicode="&#x1ea;" horiz-adv-x="727" 
d="M198 33q-70 43 -107.5 126t-37.5 200q0 118 38 202t108 128t166 44q95 0 164.5 -44t107 -127.5t37.5 -201.5q0 -117 -37.5 -200t-107 -126.5t-165.5 -43.5t-166 43zM525 138q55 72 55 221q0 151 -55.5 225t-159.5 74q-105 0 -161.5 -74.5t-56.5 -224.5
q0 -148 56.5 -220.5t161.5 -72.5t160 72zM307 -33.5q23 23.5 80 41.5l63 -7q-52 -22 -74 -40.5t-22 -42.5q0 -19 11.5 -28t36.5 -9q19 0 35.5 4t25.5 9l6 2q4 0 4 -8v-28q0 -4 -1 -6.5t-5 -4.5q-12 -7 -36 -12t-49 -5q-48 0 -73 21t-25 58q0 32 23 55.5z" />
    <glyph glyph-name="uni01EB" unicode="&#x1eb;" horiz-adv-x="567" 
d="M158 23.5q-53 33.5 -81 93.5t-28 138q0 80 28.5 141.5t82 96t125.5 34.5t124.5 -34.5t80.5 -96t28 -140.5q0 -78 -28 -138.5t-80.5 -94t-125.5 -33.5t-126 33.5zM396 113.5q37 55.5 37 145.5t-37.5 145t-110.5 55q-74 0 -112 -55.5t-38 -144.5q0 -90 38 -145.5t113 -55.5
q73 0 110 55.5zM217 -32.5q23 23.5 80 41.5l63 -7q-52 -22 -74 -40.5t-22 -42.5q0 -19 11.5 -28t36.5 -9q19 0 35.5 4t25.5 9l6 2q4 0 4 -8v-28q0 -4 -1 -6.5t-5 -4.5q-12 -7 -36 -12t-49 -5q-48 0 -73 21t-25 58q0 32 23 55.5z" />
    <glyph glyph-name="uni01F1" unicode="&#x1f1;" horiz-adv-x="1306" 
d="M257 722q196 -2 286 -91t90 -265q0 -183 -95 -274.5t-291 -91.5h-152v723q101 0 162 -1zM184 75h63q146 0 221 68t75 221q0 154 -73.5 219t-218.5 65h-67v-573zM736 48l400 600h-384v75h504v-46l-403 -601h401v-76h-518v48z" />
    <glyph glyph-name="uni01F2" unicode="&#x1f2;" horiz-adv-x="1171" 
d="M257 722q196 -2 286 -91t90 -265q0 -183 -95 -274.5t-291 -91.5h-152v723q101 0 162 -1zM184 75h63q146 0 221 68t75 221q0 154 -73.5 219t-218.5 65h-67v-573zM726 54l300 403h-279v60h382v-55l-300 -402h305v-60h-408v54z" />
    <glyph glyph-name="uni01F3" unicode="&#x1f3;" horiz-adv-x="1069" 
d="M106 58.5q-57 68.5 -57 194.5q0 125 57 199.5t159 74.5q44 0 81 -16t72 -49v281h86v-743h-68l-4 74q-67 -84 -169 -84q-100 0 -157 68.5zM349.5 76q31.5 19 50 49.5t18.5 62.5v188q-50 83 -133 83q-70 0 -110.5 -52t-40.5 -151q0 -100 40.5 -149.5t105.5 -49.5
q38 0 69.5 19zM624 54l300 403h-279v60h382v-55l-300 -402h305v-60h-408v54z" />
    <glyph glyph-name="uni01F4" unicode="&#x1f4;" horiz-adv-x="725" 
d="M195.5 34.5q-68.5 44.5 -105.5 128t-37 196.5q0 116 38 200.5t107.5 129t162.5 44.5q69 0 129.5 -30t98 -79.5t41.5 -106.5l-93 -6q-12 63 -60.5 104t-116.5 41q-101 0 -158 -75.5t-57 -215.5q0 -148 58 -222.5t159 -74.5q59 0 101 27t64 67t24 80l2 67h-179v64l268 -1
v-372h-66v112q-32 -54 -86 -88t-133 -34q-93 0 -161.5 44.5zM491 871l-251 -74l-14 45l243 96z" />
    <glyph glyph-name="uni01F5" unicode="&#x1f5;" horiz-adv-x="601" 
d="M102 -134q-66 37 -66 100q0 41 26 66t46.5 35t24.5 13q-4 2 -18.5 11t-24 22t-9.5 31q0 25 23.5 44.5t66.5 29.5q-50 26 -73 61t-23 82q0 77 61 120.5t162 43.5q48 0 82.5 -11t65.5 -34q10 3 53 22l77 31l-1 -82l-90 -17q7 -15 12 -36.5t5 -35.5q0 -45 -23.5 -82
t-71.5 -59t-118 -22q-20 0 -28 1q-52 -1 -75 -11.5t-23 -24.5q0 -15 21.5 -21t78.5 -10l112 -6q85 -6 126 -42t41 -97q0 -74 -65.5 -116.5t-185.5 -42.5q-123 0 -189 37zM387.5 282.5q32.5 27.5 32.5 78.5q0 52 -33 81t-95 29t-96.5 -29.5t-34.5 -80.5q0 -50 34.5 -78
t96.5 -28q63 0 95.5 27.5zM421 -92.5q37 22.5 37 68.5q0 34 -22.5 53t-73.5 23l-148 9q-19 1 -41 -10t-37 -31t-15 -44q0 -45 47.5 -68t137.5 -23q78 0 115 22.5zM429 665l-251 -74l-14 45l243 96z" />
    <glyph glyph-name="Aringacute" unicode="&#x1fa;" horiz-adv-x="675" 
d="M640 1h-101l-70 204h-281l-70 -204h-86l242 701q-18 14 -28 34.5t-10 45.5q0 36 23.5 62.5t59.5 32.5l15 63h67l-29 -68q29 -11 47 -35.5t18 -56.5q0 -24 -9.5 -43.5t-26.5 -32.5zM297 818q-16 -16 -16 -39q0 -21 16.5 -38t37.5 -17q22 0 38 17t16 38q0 24 -15.5 39.5
t-38.5 15.5q-22 0 -38 -16zM448 282l-119 349l-120 -349h239z" />
    <glyph glyph-name="aringacute" unicode="&#x1fb;" horiz-adv-x="559" 
d="M96.5 30q-46.5 40 -46.5 109q0 58 26 93.5t80.5 54t144.5 23.5l95 7v37q0 51 -31.5 80t-87.5 29q-90 -2 -142 -81l-70 14q23 62 80 96.5t137 34.5q96 0 146.5 -44.5t50.5 -122.5v-360h-73l-6 74q-72 -84 -181 -84q-76 0 -122.5 40zM314.5 70q35.5 17 58.5 44t23 55v94
l-79 -6q-98 -6 -141 -30t-43 -80q0 -44 30.5 -69t80.5 -25q35 0 70.5 17zM412 665l-251 -74l-14 45l243 96zM352.5 607.5q-29.5 -29.5 -73.5 -29.5q-43 0 -72.5 30t-29.5 74q0 41 30 70t72 29q43 0 73 -29.5t30 -71.5q0 -43 -29.5 -72.5zM316.5 718q-15.5 15 -38.5 15
q-22 0 -38 -15.5t-16 -38.5q0 -22 16 -38.5t38 -16.5t38 16.5t16 38.5q0 24 -15.5 39z" />
    <glyph glyph-name="AEacute" unicode="&#x1fc;" horiz-adv-x="1007" 
d="M942 0h-455v204h-248l-114 -204h-88l402 723h491v-75h-345v-246h258v-74h-258v-253h357v-75zM487 660l-214 -378h214v378zM809 871l-251 -74l-14 45l243 96z" />
    <glyph glyph-name="aeacute" unicode="&#x1fd;" horiz-adv-x="924" 
d="M503.5 150.5q22.5 -42.5 60.5 -69t83 -26.5q57 0 92 22.5t67 64.5l57 -30q-35 -60 -92 -91t-133 -31q-72 0 -119 30t-81 74q-2 3 -3 3t-3 -3q-42 -47 -91 -75.5t-127 -28.5q-77 0 -120.5 39t-43.5 106q0 75 62 119t185 53l101 8v39q0 52 -31.5 81.5t-90.5 29.5
q-86 0 -141 -86l-72 25q65 123 220 123q136 0 174 -94q60 94 182 94q70 0 123.5 -34t83 -98.5t29.5 -153.5l-394 -1q0 -47 22.5 -89.5zM560.5 445q-35.5 -21 -56.5 -59.5t-21 -89.5l306 -1q0 45 -18.5 84t-52.5 63t-78 24t-79.5 -21zM314 254q-87 -7 -132.5 -35.5
t-45.5 -78.5q0 -40 27 -64.5t74 -24.5q43 0 80 15.5t59 42.5t22 59v92zM587 665l-251 -74l-14 45l243 96z" />
    <glyph glyph-name="Oslashacute" unicode="&#x1fe;" horiz-adv-x="720" 
d="M699 689q0 -4 -3 -7l-80 -90q53 -89 53 -232q0 -117 -37.5 -200t-107 -126.5t-165.5 -43.5q-136 0 -215 84l-67 -74q-6 -8 -12 -8q-4 0 -13 7l-24 23q-8 8 -8 12q0 2 4 8l77 86q-53 92 -53 231q0 118 38 202t108 128t166 44q134 0 215 -86l70 78q11 11 18 3l33 -31
q3 -3 3 -8zM178 206l336 378q-51 75 -154 75q-105 0 -156.5 -74t-51.5 -226q0 -92 26 -153zM539 514l-335 -377q51 -72 156 -72q104 0 154.5 71.5t50.5 222.5q0 92 -26 155zM492 871l-251 -74l-14 45l243 96z" />
    <glyph glyph-name="oslashacute" unicode="&#x1ff;" horiz-adv-x="576" 
d="M483 412q36 -64 36 -156q0 -78 -28 -138.5t-80.5 -94t-125.5 -33.5q-104 0 -168 67l-65 -63l-36 39l70 68q-36 63 -36 154q0 80 28.5 141.5t82 96t125.5 34.5q104 0 167 -71l67 65l36 -38zM150 163l248 240q-40 56 -112 56q-74 0 -112 -55.5t-38 -144.5q0 -52 14 -96z
M421 352l-246 -239q18 -26 46.5 -40.5t65.5 -14.5q73 0 110 55.5t37 145.5q0 54 -13 93zM420 665l-251 -74l-14 45l243 96z" />
    <glyph glyph-name="uni0200" unicode="&#x200;" horiz-adv-x="696" 
d="M299 723h99l261 -723h-87l-73 202h-300l-74 -202h-88zM475 282l-126 356l-128 -356h254zM322 803l-29 -37l-150 120l45 54zM482 803l-30 -37l-149 120l45 54z" />
    <glyph glyph-name="uni0201" unicode="&#x201;" horiz-adv-x="559" 
d="M96.5 30q-46.5 40 -46.5 109q0 58 26 93.5t80.5 54t144.5 23.5l95 7v37q0 51 -31.5 80t-87.5 29q-90 -2 -142 -81l-70 14q23 62 80 96.5t137 34.5q96 0 146.5 -44.5t50.5 -122.5v-360h-73l-6 74q-72 -84 -181 -84q-76 0 -122.5 40zM314.5 70q35.5 17 58.5 44t23 55v94
l-79 -6q-98 -6 -141 -30t-43 -80q0 -44 30.5 -69t80.5 -25q35 0 70.5 17zM248 597l-29 -37l-150 120l45 54zM408 597l-30 -37l-149 120l45 54z" />
    <glyph glyph-name="uni0202" unicode="&#x202;" horiz-adv-x="696" 
d="M299 723h99l261 -723h-87l-73 202h-300l-74 -202h-88zM475 282l-126 356l-128 -356h254zM439 864q-12 21 -33.5 36.5t-50.5 15.5q-51 0 -82 -52h-65q12 46 51 76t96 30q58 0 97.5 -31t52.5 -75h-66z" />
    <glyph glyph-name="uni0203" unicode="&#x203;" horiz-adv-x="559" 
d="M96.5 30q-46.5 40 -46.5 109q0 58 26 93.5t80.5 54t144.5 23.5l95 7v37q0 51 -31.5 80t-87.5 29q-90 -2 -142 -81l-70 14q23 62 80 96.5t137 34.5q96 0 146.5 -44.5t50.5 -122.5v-360h-73l-6 74q-72 -84 -181 -84q-76 0 -122.5 40zM314.5 70q35.5 17 58.5 44t23 55v94
l-79 -6q-98 -6 -141 -30t-43 -80q0 -44 30.5 -69t80.5 -25q35 0 70.5 17zM365 658q-12 21 -33.5 36.5t-50.5 15.5q-51 0 -82 -52h-65q12 46 51 76t96 30q58 0 97.5 -31t52.5 -75h-66z" />
    <glyph glyph-name="uni0204" unicode="&#x204;" horiz-adv-x="621" 
d="M95 723h451v-76h-365v-244h330v-76h-330v-249l375 -1v-77h-461v723zM300 803l-29 -37l-150 120l45 54zM460 803l-30 -37l-149 120l45 54z" />
    <glyph glyph-name="uni0205" unicode="&#x205;" horiz-adv-x="556" 
d="M176.5 108.5q40.5 -50.5 114.5 -50.5q100 0 131 80l78 -11q-18 -64 -74.5 -100.5t-132.5 -36.5q-72 0 -127 31.5t-86 91t-31 140.5q0 125 62.5 199.5t172.5 74.5q106 0 164.5 -68t58.5 -187v-34h-371q0 -79 40.5 -129.5zM424 298q0 72 -36 117t-105 45q-48 0 -81 -23
t-49.5 -60.5t-16.5 -78.5h288zM253 597l-29 -37l-150 120l45 54zM413 597l-30 -37l-149 120l45 54z" />
    <glyph glyph-name="uni0206" unicode="&#x206;" horiz-adv-x="621" 
d="M95 723h451v-76h-365v-244h330v-76h-330v-249l375 -1v-77h-461v723zM417 864q-12 21 -33.5 36.5t-50.5 15.5q-51 0 -82 -52h-65q12 46 51 76t96 30q58 0 97.5 -31t52.5 -75h-66z" />
    <glyph glyph-name="uni0207" unicode="&#x207;" horiz-adv-x="556" 
d="M176.5 108.5q40.5 -50.5 114.5 -50.5q100 0 131 80l78 -11q-18 -64 -74.5 -100.5t-132.5 -36.5q-72 0 -127 31.5t-86 91t-31 140.5q0 125 62.5 199.5t172.5 74.5q106 0 164.5 -68t58.5 -187v-34h-371q0 -79 40.5 -129.5zM424 298q0 72 -36 117t-105 45q-48 0 -81 -23
t-49.5 -60.5t-16.5 -78.5h288zM370 658q-12 21 -33.5 36.5t-50.5 15.5q-51 0 -82 -52h-65q12 46 51 76t96 30q58 0 97.5 -31t52.5 -75h-66z" />
    <glyph glyph-name="uni0208" unicode="&#x208;" horiz-adv-x="276" 
d="M181 723v-723h-86v723h86zM110 803l-29 -37l-150 120l45 54zM270 803l-30 -37l-149 120l45 54z" />
    <glyph glyph-name="uni0209" unicode="&#x209;" horiz-adv-x="245" 
d="M166 0h-86v517h86v-517zM92 597l-29 -37l-150 120l45 54zM252 597l-30 -37l-149 120l45 54z" />
    <glyph glyph-name="uni020A" unicode="&#x20a;" horiz-adv-x="276" 
d="M181 723v-723h-86v723h86zM227 864q-12 21 -33.5 36.5t-50.5 15.5q-51 0 -82 -52h-65q12 46 51 76t96 30q58 0 97.5 -31t52.5 -75h-66z" />
    <glyph glyph-name="uni020B" unicode="&#x20b;" horiz-adv-x="245" 
d="M166 0h-86v517h86v-517zM209 658q-12 21 -33.5 36.5t-50.5 15.5q-51 0 -82 -52h-65q12 46 51 76t96 30q58 0 97.5 -31t52.5 -75h-66z" />
    <glyph glyph-name="uni020C" unicode="&#x20c;" horiz-adv-x="727" 
d="M198 33q-70 43 -107.5 126t-37.5 200q0 118 38 202t108 128t166 44q95 0 164.5 -44t107 -127.5t37.5 -201.5q0 -117 -37.5 -200t-107 -126.5t-165.5 -43.5t-166 43zM525 138q55 72 55 221q0 151 -55.5 225t-159.5 74q-105 0 -161.5 -74.5t-56.5 -224.5
q0 -148 56.5 -220.5t161.5 -72.5t160 72zM334 803l-29 -37l-150 120l45 54zM494 803l-30 -37l-149 120l45 54z" />
    <glyph glyph-name="uni020D" unicode="&#x20d;" horiz-adv-x="567" 
d="M158 23.5q-53 33.5 -81 93.5t-28 138q0 80 28.5 141.5t82 96t125.5 34.5t124.5 -34.5t80.5 -96t28 -140.5q0 -78 -28 -138.5t-80.5 -94t-125.5 -33.5t-126 33.5zM396 113.5q37 55.5 37 145.5t-37.5 145t-110.5 55q-74 0 -112 -55.5t-38 -144.5q0 -90 38 -145.5t113 -55.5
q73 0 110 55.5zM255 597l-29 -37l-150 120l45 54zM415 597l-30 -37l-149 120l45 54z" />
    <glyph glyph-name="uni020E" unicode="&#x20e;" horiz-adv-x="727" 
d="M198 33q-70 43 -107.5 126t-37.5 200q0 118 38 202t108 128t166 44q95 0 164.5 -44t107 -127.5t37.5 -201.5q0 -117 -37.5 -200t-107 -126.5t-165.5 -43.5t-166 43zM525 138q55 72 55 221q0 151 -55.5 225t-159.5 74q-105 0 -161.5 -74.5t-56.5 -224.5
q0 -148 56.5 -220.5t161.5 -72.5t160 72zM451 864q-12 21 -33.5 36.5t-50.5 15.5q-51 0 -82 -52h-65q12 46 51 76t96 30q58 0 97.5 -31t52.5 -75h-66z" />
    <glyph glyph-name="uni020F" unicode="&#x20f;" horiz-adv-x="567" 
d="M158 23.5q-53 33.5 -81 93.5t-28 138q0 80 28.5 141.5t82 96t125.5 34.5t124.5 -34.5t80.5 -96t28 -140.5q0 -78 -28 -138.5t-80.5 -94t-125.5 -33.5t-126 33.5zM396 113.5q37 55.5 37 145.5t-37.5 145t-110.5 55q-74 0 -112 -55.5t-38 -144.5q0 -90 38 -145.5t113 -55.5
q73 0 110 55.5zM372 658q-12 21 -33.5 36.5t-50.5 15.5q-51 0 -82 -52h-65q12 46 51 76t96 30q58 0 97.5 -31t52.5 -75h-66z" />
    <glyph glyph-name="uni0210" unicode="&#x210;" horiz-adv-x="675" 
d="M515 0l-133 316h-201v-316h-86v723h277q114 0 174 -51t60 -144q0 -81 -40.5 -128t-102.5 -69l144 -331h-92zM472.5 421.5q45.5 33.5 45.5 100.5q0 64 -40 97t-113 33h-184v-264h161q85 0 130.5 33.5zM295 803l-29 -37l-150 120l45 54zM455 803l-30 -37l-149 120l45 54z
" />
    <glyph glyph-name="uni0211" unicode="&#x211;" horiz-adv-x="385" 
d="M80 517h81v-108q27 51 80.5 84.5t110.5 33.5v-83q-50 2 -93 -16.5t-68 -50t-25 -63.5v-314h-86v517zM181 597l-29 -37l-150 120l45 54zM341 597l-30 -37l-149 120l45 54z" />
    <glyph glyph-name="uni0212" unicode="&#x212;" horiz-adv-x="675" 
d="M515 0l-133 316h-201v-316h-86v723h277q114 0 174 -51t60 -144q0 -81 -40.5 -128t-102.5 -69l144 -331h-92zM472.5 421.5q45.5 33.5 45.5 100.5q0 64 -40 97t-113 33h-184v-264h161q85 0 130.5 33.5zM412 864q-12 21 -33.5 36.5t-50.5 15.5q-51 0 -82 -52h-65
q12 46 51 76t96 30q58 0 97.5 -31t52.5 -75h-66z" />
    <glyph glyph-name="uni0213" unicode="&#x213;" horiz-adv-x="385" 
d="M80 517h81v-108q27 51 80.5 84.5t110.5 33.5v-83q-50 2 -93 -16.5t-68 -50t-25 -63.5v-314h-86v517zM298 658q-12 21 -33.5 36.5t-50.5 15.5q-51 0 -82 -52h-65q12 46 51 76t96 30q58 0 97.5 -31t52.5 -75h-66z" />
    <glyph glyph-name="uni0214" unicode="&#x214;" horiz-adv-x="713" 
d="M554.5 55q-63.5 -65 -198.5 -65q-136 0 -198.5 67t-62.5 200v466h89v-480q0 -88 44 -132.5t128 -44.5q85 0 130 44t45 133v480h87v-476q0 -127 -63.5 -192zM322 803l-29 -37l-150 120l45 54zM482 803l-30 -37l-149 120l45 54z" />
    <glyph glyph-name="uni0215" unicode="&#x215;" 
d="M184 9q-45 18 -74.5 58t-29.5 101v350h86v-342q0 -61 37.5 -89.5t87.5 -28.5q54 0 91.5 32.5t38.5 90.5v337h86l-1 -517h-68l-4 80q-17 -36 -62.5 -63t-95.5 -27q-47 0 -92 18zM254 597l-29 -37l-150 120l45 54zM414 597l-30 -37l-149 120l45 54z" />
    <glyph glyph-name="uni0216" unicode="&#x216;" horiz-adv-x="713" 
d="M554.5 55q-63.5 -65 -198.5 -65q-136 0 -198.5 67t-62.5 200v466h89v-480q0 -88 44 -132.5t128 -44.5q85 0 130 44t45 133v480h87v-476q0 -127 -63.5 -192zM439 864q-12 21 -33.5 36.5t-50.5 15.5q-51 0 -82 -52h-65q12 46 51 76t96 30q58 0 97.5 -31t52.5 -75h-66z" />
    <glyph glyph-name="uni0217" unicode="&#x217;" 
d="M184 9q-45 18 -74.5 58t-29.5 101v350h86v-342q0 -61 37.5 -89.5t87.5 -28.5q54 0 91.5 32.5t38.5 90.5v337h86l-1 -517h-68l-4 80q-17 -36 -62.5 -63t-95.5 -27q-47 0 -92 18zM371 658q-12 21 -33.5 36.5t-50.5 15.5q-51 0 -82 -52h-65q12 46 51 76t96 30q58 0 97.5 -31
t52.5 -75h-66z" />
    <glyph glyph-name="Scommaaccent" unicode="&#x218;" horiz-adv-x="667" 
d="M206.5 12.5q-61.5 22.5 -103 66t-50.5 104.5l90 6q14 -61 68 -94t128 -33q81 0 133 33.5t52 88.5q0 49 -32 79t-96 45l-147 34q-83 18 -128 63.5t-46 117.5q0 61 33.5 108.5t92.5 74t135 26.5q80 0 138.5 -28t90.5 -74t38 -101l-87 -5q-11 70 -60 102t-121 32
q-67 0 -117 -33.5t-50 -93.5q0 -43 29 -70t100 -44l142 -34q175 -38 175 -198q0 -55 -33 -99t-95 -70t-147 -26q-71 0 -132.5 22.5zM291.5 -229.5q-1.5 3.5 0.5 8.5l27 49q2 3 2 7q0 8 -8 8h-8q-7 0 -9.5 2.5t-2.5 9.5v63q0 12 10 12h58q9 0 9 -10v-77q0 -3 -1 -5t-1 -3
l-36 -60q-4 -5 -8 -6.5t-12 -1.5h-14q-5 0 -6.5 3.5z" />
    <glyph glyph-name="scommaaccent" unicode="&#x219;" horiz-adv-x="506" 
d="M113.5 28.5q-56.5 38.5 -69.5 106.5l74 11q27 -91 135 -91q56 0 93.5 22.5t37.5 61.5q0 60 -79 79l-107 23q-69 16 -102 49t-33 84q0 71 52 112t142 41q92 0 143.5 -42t53.5 -107l-74 -6q-18 91 -125 91q-48 0 -80.5 -19.5t-32.5 -64.5q0 -24 19.5 -41.5t68.5 -29.5
l106 -26q68 -17 97 -55t29 -85q0 -44 -26.5 -79t-74 -54t-108.5 -19q-83 0 -139.5 38.5zM213.5 -229.5q-1.5 3.5 0.5 8.5l27 49q2 3 2 7q0 8 -8 8h-8q-7 0 -9.5 2.5t-2.5 9.5v63q0 12 10 12h58q9 0 9 -10v-77q0 -3 -1 -5t-1 -3l-36 -60q-4 -5 -8 -6.5t-12 -1.5h-14
q-5 0 -6.5 3.5z" />
    <glyph glyph-name="uni021A" unicode="&#x21a;" horiz-adv-x="571" 
d="M14 723h543v-79h-222v-644h-86v644h-235v79zM257.5 -229.5q-1.5 3.5 0.5 8.5l27 49q2 3 2 7q0 8 -8 8h-8q-7 0 -9.5 2.5t-2.5 9.5v63q0 12 10 12h58q9 0 9 -10v-77q0 -3 -1 -5t-1 -3l-36 -60q-4 -5 -8 -6.5t-12 -1.5h-14q-5 0 -6.5 3.5z" />
    <glyph glyph-name="uni021B" unicode="&#x21b;" horiz-adv-x="388" 
d="M215 454v-324q0 -40 12.5 -54.5t38.5 -14.5h71v-55q-21 -8 -75 -8q-75 0 -104 30.5t-29 95.5v330h-84v63h86l9 171h75v-171h117v-63h-117zM220.5 -229.5q-1.5 3.5 0.5 8.5l27 49q2 3 2 7q0 8 -8 8h-8q-7 0 -9.5 2.5t-2.5 9.5v63q0 12 10 12h58q9 0 9 -10v-77q0 -3 -1 -5
t-1 -3l-36 -60q-4 -5 -8 -6.5t-12 -1.5h-14q-5 0 -6.5 3.5z" />
    <glyph glyph-name="uni0237" unicode="&#x237;" horiz-adv-x="241" 
d="M131.5 -132.5q-31.5 -33.5 -107.5 -33.5q-65 0 -65 11v58l53 2q35 2 50 18.5t15 53.5v540h86v-544q0 -72 -31.5 -105.5z" />
    <glyph glyph-name="uni0259" unicode="&#x259;" horiz-adv-x="556" 
d="M379.5 408.5q-40.5 50.5 -114.5 50.5q-100 0 -131 -80l-78 11q18 64 74.5 100.5t132.5 36.5q72 0 127 -31.5t86 -91t31 -140.5q0 -125 -62.5 -199.5t-172.5 -74.5q-106 0 -164.5 68t-58.5 187v34h371q0 79 -40.5 129.5zM132 219q0 -72 36 -117t105 -45q48 0 81 23
t49.5 60.5t16.5 78.5h-288z" />
    <glyph glyph-name="uni02BC" unicode="&#x2bc;" horiz-adv-x="152" 
d="M35 459q-2 3 -1 6l30 114q4 11 -3 13h-7q-11 0 -11 10v112q0 9 8 9h58q7 0 7 -7v-124l-1 -6l-35 -121q-1 -5 -5 -7t-12 -2h-22q-4 0 -6 3z" />
    <glyph glyph-name="circumflex" unicode="&#x2c6;" horiz-adv-x="321" 
d="M159 680l-76 -66h-79l125 112h62l122 -112h-84z" />
    <glyph glyph-name="caron" unicode="&#x2c7;" horiz-adv-x="321" 
d="M313 723l-122 -112h-63l-125 112h80l76 -66l70 66h84z" />
    <glyph glyph-name="breve" unicode="&#x2d8;" horiz-adv-x="321" 
d="M255.5 648q-39.5 -31 -97.5 -31q-57 0 -96 30t-51 76h65q31 -52 82 -52q29 0 50 15.5t34 36.5h66q-13 -44 -52.5 -75z" />
    <glyph glyph-name="dotaccent" unicode="&#x2d9;" horiz-adv-x="119" 
d="M104 608h-92v115h92v-115z" />
    <glyph glyph-name="ring" unicode="&#x2da;" horiz-adv-x="231" 
d="M187.5 604.5q-29.5 -29.5 -73.5 -29.5q-43 0 -72.5 30t-29.5 74q0 41 30 70t72 29q43 0 73 -29.5t30 -71.5q0 -43 -29.5 -72.5zM151.5 715q-15.5 15 -38.5 15q-22 0 -38 -15.5t-16 -38.5q0 -22 16 -38.5t38 -16.5t38 16.5t16 38.5q0 24 -15.5 39z" />
    <glyph glyph-name="ogonek" unicode="&#x2db;" horiz-adv-x="216" 
d="M35 -31.5q23 23.5 80 41.5l63 -7q-52 -22 -74 -40.5t-22 -42.5q0 -19 11.5 -28t36.5 -9q19 0 35.5 4t25.5 9l6 2q4 0 4 -8v-28q0 -4 -1 -6.5t-5 -4.5q-12 -7 -36 -12t-49 -5q-48 0 -73 21t-25 58q0 32 23 55.5z" />
    <glyph glyph-name="tilde" unicode="&#x2dc;" horiz-adv-x="334" 
d="M229 637q-19 0 -33.5 3.5t-34.5 10.5q-13 5 -27.5 8.5t-29.5 3.5q-16 0 -27 -4t-20 -9.5t-12 -7.5q-4 -3 -7 -3q-4 0 -7 8l-9 27q-2 4 -2 6q0 4 5 8q20 15 36 22.5t39 7.5q17 0 32 -3.5t37 -10.5q37 -13 61 -13q17 0 29.5 5t27.5 14q4 3 8 3t7 -7l10 -32l1 -4q0 -4 -4 -7
t-5 -4q-31 -22 -75 -22z" />
    <glyph glyph-name="hungarumlaut" unicode="&#x2dd;" horiz-adv-x="385" 
d="M192 691q5 -5 5 -9q0 -5 -8 -11l-126 -103q-10 -4 -11 -4q-4 0 -7 5l-16 19q-8 8 -1 14l121 125q3 4 7 3.5t6 -3.5zM352 691q5 -5 5 -9q0 -5 -8 -11l-127 -103q-8 -4 -10 -4q-4 0 -7 5l-16 19q-7 9 0 14l120 125q7 7 13 0z" />
    <glyph glyph-name="gravecomb" unicode="&#x300;" horiz-adv-x="0" 
d="M-12 636l-15 -45l-250 74l22 67z" />
    <glyph glyph-name="acutecomb" unicode="&#x301;" horiz-adv-x="0" 
d="M-11 665l-251 -74l-14 45l243 96z" />
    <glyph glyph-name="uni0302" unicode="&#x302;" horiz-adv-x="0" 
d="M-162 680l-76 -66h-79l125 112h62l122 -112h-84z" />
    <glyph glyph-name="tildecomb" unicode="&#x303;" horiz-adv-x="0" 
d="M-105 637q-19 0 -33.5 3.5t-34.5 10.5q-13 5 -27.5 8.5t-29.5 3.5q-16 0 -27 -4t-20 -9.5t-12 -7.5q-4 -3 -7 -3q-4 0 -7 8l-9 27q-2 4 -2 6q0 4 5 8q20 15 36 22.5t39 7.5q17 0 32 -3.5t37 -10.5q37 -13 61 -13q17 0 29.5 5t27.5 14q4 3 8 3t7 -7l10 -32l1 -4
q0 -4 -4 -7t-5 -4q-31 -22 -75 -22z" />
    <glyph glyph-name="uni0304" unicode="&#x304;" horiz-adv-x="0" 
d="M-15 648h-292v62h292v-62z" />
    <glyph glyph-name="uni0306" unicode="&#x306;" horiz-adv-x="0" 
d="M-65.5 648q-39.5 -31 -97.5 -31q-57 0 -96 30t-51 76h65q31 -52 82 -52q29 0 50 15.5t34 36.5h66q-13 -44 -52.5 -75z" />
    <glyph glyph-name="uni0307" unicode="&#x307;" horiz-adv-x="0" 
d="M-15 608h-92v115h92v-115z" />
    <glyph glyph-name="uni0308" unicode="&#x308;" horiz-adv-x="0" 
d="M-160 615h-84v108h84v-108zM-14 615h-84v108h84v-108z" />
    <glyph glyph-name="uni030A" unicode="&#x30a;" horiz-adv-x="0" 
d="M-43.5 604.5q-29.5 -29.5 -73.5 -29.5q-43 0 -72.5 30t-29.5 74q0 41 30 70t72 29q43 0 73 -29.5t30 -71.5q0 -43 -29.5 -72.5zM-79.5 715q-15.5 15 -38.5 15q-22 0 -38 -15.5t-16 -38.5q0 -22 16 -38.5t38 -16.5t38 16.5t16 38.5q0 24 -15.5 39z" />
    <glyph glyph-name="uni030B" unicode="&#x30b;" horiz-adv-x="0" 
d="M-193 691q5 -5 5 -9q0 -5 -8 -11l-126 -103q-10 -4 -11 -4q-4 0 -7 5l-16 19q-8 8 -1 14l121 125q3 4 7 3.5t6 -3.5zM-33 691q5 -5 5 -9q0 -5 -8 -11l-127 -103q-8 -4 -10 -4q-4 0 -7 5l-16 19q-7 9 0 14l120 125q7 7 13 0z" />
    <glyph glyph-name="uni030C" unicode="&#x30c;" horiz-adv-x="0" 
d="M-8 723l-122 -112h-63l-125 112h80l76 -66l70 66h84z" />
    <glyph glyph-name="uni030F" unicode="&#x30f;" horiz-adv-x="0" 
d="M-185 597l-29 -37l-150 120l45 54zM-25 597l-30 -37l-149 120l45 54z" />
    <glyph glyph-name="uni0311" unicode="&#x311;" horiz-adv-x="0" 
d="M-64 658q-12 21 -33.5 36.5t-50.5 15.5q-51 0 -82 -52h-65q12 46 51 76t96 30q58 0 97.5 -31t52.5 -75h-66z" />
    <glyph glyph-name="dotbelowcomb" unicode="&#x323;" horiz-adv-x="0" 
d="M-15 -146q0 -9 -3 -12t-12 -3h-50q-8 0 -10.5 2.5t-2.5 10.5v82q0 13 9 13h60q9 0 9 -12v-81z" />
    <glyph glyph-name="uni0326" unicode="&#x326;" horiz-adv-x="0" 
d="M-93.5 -229.5q-1.5 3.5 0.5 8.5l27 49q2 3 2 7q0 8 -8 8h-8q-7 0 -9.5 2.5t-2.5 9.5v63q0 12 10 12h58q9 0 9 -10v-77q0 -3 -1 -5t-1 -3l-36 -60q-4 -5 -8 -6.5t-12 -1.5h-14q-5 0 -6.5 3.5z" />
    <glyph glyph-name="uni0327" unicode="&#x327;" horiz-adv-x="0" 
d="M-45.5 -184.5q-30.5 -20.5 -76.5 -20.5q-56 0 -92 25l14 37q30 -23 68 -23q54 0 54 37q0 22 -18.5 32.5t-60.5 11.5q-9 0 -6 7l37 83h46l-23 -61q46 -2 67 -23t21 -49q0 -36 -30.5 -56.5z" />
    <glyph glyph-name="uni0328" unicode="&#x328;" horiz-adv-x="0" 
d="M-181 -31.5q23 23.5 80 41.5l63 -7q-52 -22 -74 -40.5t-22 -42.5q0 -19 11.5 -28t36.5 -9q19 0 35.5 4t25.5 9l6 2q4 0 4 -8v-28q0 -4 -1 -6.5t-5 -4.5q-12 -7 -36 -12t-49 -5q-48 0 -73 21t-25 58q0 32 23 55.5z" />
    <glyph glyph-name="uni0394" unicode="&#x394;" horiz-adv-x="647" 
d="M34 68l239 656l99 -1l238 -653v-70h-576v68zM516 75l-195 554l-195 -554h390z" />
    <glyph glyph-name="uni03A9" unicode="&#x3a9;" horiz-adv-x="755" 
d="M258 623q-49 -36 -74.5 -97t-25.5 -137q0 -110 49.5 -181.5t119.5 -124.5q7 -6 10.5 -12t3.5 -16v-55h-254v77h155q-46 37 -79.5 69.5t-68 99.5t-34.5 155q0 87 37.5 163t109 122.5t169.5 46.5t169.5 -47t108.5 -123t37 -161q0 -84 -32.5 -148.5t-58.5 -91.5t-78 -74
q-4 -3 -4 -6q0 -5 7 -5h139v-77h-254v72q75 54 129 128.5t54 190.5q0 74 -25 135t-74 97t-118 36t-118 -36z" />
    <glyph glyph-name="uni03BC" unicode="&#x3bc;" horiz-adv-x="584" 
d="M418 141v376h87l-2 -517h-82v80q-54 -47 -93.5 -67t-82.5 -20q-50 0 -79 26v-180h-86v678h86v-371q0 -37 28.5 -63t70.5 -26q72 0 153 84z" />
    <glyph glyph-name="pi" unicode="&#x3c0;" horiz-adv-x="654" 
d="M510 454v-454h-83l-1 454h-219q0 -124 -17 -252.5t-42 -201.5h-78q24 91 40 210.5t16 233.5q0 10 -9 10h-92v63h600v-63h-115z" />
    <glyph glyph-name="uni1E0C" unicode="&#x1e0c;" horiz-adv-x="702" 
d="M257 722q196 -2 286 -91t90 -265q0 -183 -95 -274.5t-291 -91.5h-152v723q101 0 162 -1zM184 75h63q146 0 221 68t75 221q0 154 -73.5 219t-218.5 65h-67v-573zM384 -146q0 -9 -3 -12t-12 -3h-50q-8 0 -10.5 2.5t-2.5 10.5v82q0 13 9 13h60q9 0 9 -12v-81z" />
    <glyph glyph-name="uni1E0D" unicode="&#x1e0d;" horiz-adv-x="583" 
d="M106 58.5q-57 68.5 -57 194.5q0 125 57 199.5t159 74.5q44 0 81 -16t72 -49v281h86v-743h-68l-4 74q-67 -84 -169 -84q-100 0 -157 68.5zM349.5 76q31.5 19 50 49.5t18.5 62.5v188q-50 83 -133 83q-70 0 -110.5 -52t-40.5 -151q0 -100 40.5 -149.5t105.5 -49.5
q38 0 69.5 19zM327 -146q0 -9 -3 -12t-12 -3h-50q-8 0 -10.5 2.5t-2.5 10.5v82q0 13 9 13h60q9 0 9 -12v-81z" />
    <glyph glyph-name="uni1E24" unicode="&#x1e24;" horiz-adv-x="707" 
d="M181 336v-336h-86v723h86v-310h345v310h86v-723h-86v336h-345zM391 -146q0 -9 -3 -12t-12 -3h-50q-8 0 -10.5 2.5t-2.5 10.5v82q0 13 9 13h60q9 0 9 -12v-81z" />
    <glyph glyph-name="uni1E25" unicode="&#x1e25;" 
d="M80 743h83v-299q39 31 62.5 46t52 24.5t64.5 9.5q76 0 120.5 -42t44.5 -110v-372h-86v354q0 47 -26 73t-76 26q-41 0 -75 -18.5t-78 -58.5v-376h-86v743zM340 -146q0 -9 -3 -12t-12 -3h-50q-8 0 -10.5 2.5t-2.5 10.5v82q0 13 9 13h60q9 0 9 -12v-81z" />
    <glyph glyph-name="uni1E44" unicode="&#x1e44;" horiz-adv-x="746" 
d="M651 723v-723h-76l-394 579v-579h-86v723h81l389 -572v572h86zM429 814h-92v115h92v-115z" />
    <glyph glyph-name="uni1E45" unicode="&#x1e45;" 
d="M80 517h83v-72q23 36 63.5 58t99.5 22q78 0 129.5 -49t51.5 -137v-339h-85v331q0 58 -32 90t-86 32q-58 0 -98 -27t-40 -77v-349h-86v517zM347 608h-92v115h92v-115z" />
    <glyph glyph-name="uni1E5A" unicode="&#x1e5a;" horiz-adv-x="675" 
d="M515 0l-133 316h-201v-316h-86v723h277q114 0 174 -51t60 -144q0 -81 -40.5 -128t-102.5 -69l144 -331h-92zM472.5 421.5q45.5 33.5 45.5 100.5q0 64 -40 97t-113 33h-184v-264h161q85 0 130.5 33.5zM373 -146q0 -9 -3 -12t-12 -3h-50q-8 0 -10.5 2.5t-2.5 10.5v82
q0 13 9 13h60q9 0 9 -12v-81z" />
    <glyph glyph-name="uni1E5B" unicode="&#x1e5b;" horiz-adv-x="385" 
d="M80 517h81v-108q27 51 80.5 84.5t110.5 33.5v-83q-50 2 -93 -16.5t-68 -50t-25 -63.5v-314h-86v517zM165 -146q0 -9 -3 -12t-12 -3h-50q-8 0 -10.5 2.5t-2.5 10.5v82q0 13 9 13h60q9 0 9 -12v-81z" />
    <glyph glyph-name="uni1E62" unicode="&#x1e62;" horiz-adv-x="667" 
d="M206.5 12.5q-61.5 22.5 -103 66t-50.5 104.5l90 6q14 -61 68 -94t128 -33q81 0 133 33.5t52 88.5q0 49 -32 79t-96 45l-147 34q-83 18 -128 63.5t-46 117.5q0 61 33.5 108.5t92.5 74t135 26.5q80 0 138.5 -28t90.5 -74t38 -101l-87 -5q-11 70 -60 102t-121 32
q-67 0 -117 -33.5t-50 -93.5q0 -43 29 -70t100 -44l142 -34q175 -38 175 -198q0 -55 -33 -99t-95 -70t-147 -26q-71 0 -132.5 22.5zM369 -146q0 -9 -3 -12t-12 -3h-50q-8 0 -10.5 2.5t-2.5 10.5v82q0 13 9 13h60q9 0 9 -12v-81z" />
    <glyph glyph-name="uni1E63" unicode="&#x1e63;" horiz-adv-x="506" 
d="M113.5 28.5q-56.5 38.5 -69.5 106.5l74 11q27 -91 135 -91q56 0 93.5 22.5t37.5 61.5q0 60 -79 79l-107 23q-69 16 -102 49t-33 84q0 71 52 112t142 41q92 0 143.5 -42t53.5 -107l-74 -6q-18 91 -125 91q-48 0 -80.5 -19.5t-32.5 -64.5q0 -24 19.5 -41.5t68.5 -29.5
l106 -26q68 -17 97 -55t29 -85q0 -44 -26.5 -79t-74 -54t-108.5 -19q-83 0 -139.5 38.5zM291 -146q0 -9 -3 -12t-12 -3h-50q-8 0 -10.5 2.5t-2.5 10.5v82q0 13 9 13h60q9 0 9 -12v-81z" />
    <glyph glyph-name="uni1E6C" unicode="&#x1e6c;" horiz-adv-x="571" 
d="M14 723h543v-79h-222v-644h-86v644h-235v79zM335 -146q0 -9 -3 -12t-12 -3h-50q-8 0 -10.5 2.5t-2.5 10.5v82q0 13 9 13h60q9 0 9 -12v-81z" />
    <glyph glyph-name="uni1E6D" unicode="&#x1e6d;" horiz-adv-x="388" 
d="M215 454v-324q0 -40 12.5 -54.5t38.5 -14.5h71v-55q-21 -8 -75 -8q-75 0 -104 30.5t-29 95.5v330h-84v63h86l9 171h75v-171h117v-63h-117zM298 -146q0 -9 -3 -12t-12 -3h-50q-8 0 -10.5 2.5t-2.5 10.5v82q0 13 9 13h60q9 0 9 -12v-81z" />
    <glyph glyph-name="Wgrave" unicode="&#x1e80;" horiz-adv-x="952" 
d="M718 0h-82l-161 572l-164 -572h-80l-207 723h87l163 -588l167 588h68l166 -588l167 588h86zM600 842l-15 -45l-250 74l22 67z" />
    <glyph glyph-name="wgrave" unicode="&#x1e81;" horiz-adv-x="774" 
d="M590 0h-80l-124 390l-118 -390h-80l-163 517h80l125 -407l124 407h66l128 -406l120 406h81zM511 636l-15 -45l-250 74l22 67z" />
    <glyph glyph-name="Wacute" unicode="&#x1e82;" horiz-adv-x="952" 
d="M718 0h-82l-161 572l-164 -572h-80l-207 723h87l163 -588l167 588h68l166 -588l167 588h86zM613 871l-251 -74l-14 45l243 96z" />
    <glyph glyph-name="wacute" unicode="&#x1e83;" horiz-adv-x="774" 
d="M590 0h-80l-124 390l-118 -390h-80l-163 517h80l125 -407l124 407h66l128 -406l120 406h81zM524 665l-251 -74l-14 45l243 96z" />
    <glyph glyph-name="Wdieresis" unicode="&#x1e84;" horiz-adv-x="952" 
d="M718 0h-82l-161 572l-164 -572h-80l-207 723h87l163 -588l167 588h68l166 -588l167 588h86zM449 821h-84v108h84v-108zM595 821h-84v108h84v-108z" />
    <glyph glyph-name="wdieresis" unicode="&#x1e85;" horiz-adv-x="774" 
d="M590 0h-80l-124 390l-118 -390h-80l-163 517h80l125 -407l124 407h66l128 -406l120 406h81zM360 615h-84v108h84v-108zM506 615h-84v108h84v-108z" />
    <glyph glyph-name="uni1E92" unicode="&#x1e92;" horiz-adv-x="621" 
d="M51 48l400 600h-384v75h504v-46l-403 -601h401v-76h-518v48zM359 -146q0 -9 -3 -12t-12 -3h-50q-8 0 -10.5 2.5t-2.5 10.5v82q0 13 9 13h60q9 0 9 -12v-81z" />
    <glyph glyph-name="uni1E93" unicode="&#x1e93;" horiz-adv-x="468" 
d="M41 54l300 403h-279v60h382v-55l-300 -402h305v-60h-408v54zM283 -146q0 -9 -3 -12t-12 -3h-50q-8 0 -10.5 2.5t-2.5 10.5v82q0 13 9 13h60q9 0 9 -12v-81z" />
    <glyph glyph-name="uni1EB8" unicode="&#x1eb8;" horiz-adv-x="621" 
d="M95 723h451v-76h-365v-244h330v-76h-330v-249l375 -1v-77h-461v723zM382 -146q0 -9 -3 -12t-12 -3h-50q-8 0 -10.5 2.5t-2.5 10.5v82q0 13 9 13h60q9 0 9 -12v-81z" />
    <glyph glyph-name="uni1EB9" unicode="&#x1eb9;" horiz-adv-x="556" 
d="M176.5 108.5q40.5 -50.5 114.5 -50.5q100 0 131 80l78 -11q-18 -64 -74.5 -100.5t-132.5 -36.5q-72 0 -127 31.5t-86 91t-31 140.5q0 125 62.5 199.5t172.5 74.5q106 0 164.5 -68t58.5 -187v-34h-371q0 -79 40.5 -129.5zM424 298q0 72 -36 117t-105 45q-48 0 -81 -23
t-49.5 -60.5t-16.5 -78.5h288zM317 -146q0 -9 -3 -12t-12 -3h-50q-8 0 -10.5 2.5t-2.5 10.5v82q0 13 9 13h60q9 0 9 -12v-81z" />
    <glyph glyph-name="uni1EBC" unicode="&#x1ebc;" horiz-adv-x="621" 
d="M95 723h451v-76h-365v-244h330v-76h-330v-249l375 -1v-77h-461v723zM395 843q-19 0 -33.5 3.5t-34.5 10.5q-13 5 -27.5 8.5t-29.5 3.5q-16 0 -27 -4t-20 -9.5t-12 -7.5q-4 -3 -7 -3q-4 0 -7 8l-9 27q-2 4 -2 6q0 4 5 8q20 15 36 22.5t39 7.5q17 0 32 -3.5t37 -10.5
q37 -13 61 -13q17 0 29.5 5t27.5 14q4 3 8 3t7 -7l10 -32l1 -4q0 -4 -4 -7t-5 -4q-31 -22 -75 -22z" />
    <glyph glyph-name="uni1EBD" unicode="&#x1ebd;" horiz-adv-x="556" 
d="M176.5 108.5q40.5 -50.5 114.5 -50.5q100 0 131 80l78 -11q-18 -64 -74.5 -100.5t-132.5 -36.5q-72 0 -127 31.5t-86 91t-31 140.5q0 125 62.5 199.5t172.5 74.5q106 0 164.5 -68t58.5 -187v-34h-371q0 -79 40.5 -129.5zM424 298q0 72 -36 117t-105 45q-48 0 -81 -23
t-49.5 -60.5t-16.5 -78.5h288zM348 637q-19 0 -33.5 3.5t-34.5 10.5q-13 5 -27.5 8.5t-29.5 3.5q-16 0 -27 -4t-20 -9.5t-12 -7.5q-4 -3 -7 -3q-4 0 -7 8l-9 27q-2 4 -2 6q0 4 5 8q20 15 36 22.5t39 7.5q17 0 32 -3.5t37 -10.5q37 -13 61 -13q17 0 29.5 5t27.5 14q4 3 8 3
t7 -7l10 -32l1 -4q0 -4 -4 -7t-5 -4q-31 -22 -75 -22z" />
    <glyph glyph-name="uni1ECA" unicode="&#x1eca;" horiz-adv-x="276" 
d="M181 723v-723h-86v723h86zM181 -146q0 -9 -3 -12t-12 -3h-50q-8 0 -10.5 2.5t-2.5 10.5v82q0 13 9 13h60q9 0 9 -12v-81z" />
    <glyph glyph-name="uni1ECB" unicode="&#x1ecb;" horiz-adv-x="272" 
d="M172 627h-92v116h92v-116zM169 0h-86v517h86v-517zM186 -146q0 -9 -3 -12t-12 -3h-50q-8 0 -10.5 2.5t-2.5 10.5v82q0 13 9 13h60q9 0 9 -12v-81z" />
    <glyph glyph-name="uni1ECC" unicode="&#x1ecc;" horiz-adv-x="727" 
d="M198 33q-70 43 -107.5 126t-37.5 200q0 118 38 202t108 128t166 44q95 0 164.5 -44t107 -127.5t37.5 -201.5q0 -117 -37.5 -200t-107 -126.5t-165.5 -43.5t-166 43zM525 138q55 72 55 221q0 151 -55.5 225t-159.5 74q-105 0 -161.5 -74.5t-56.5 -224.5
q0 -148 56.5 -220.5t161.5 -72.5t160 72zM405 -146q0 -9 -3 -12t-12 -3h-50q-8 0 -10.5 2.5t-2.5 10.5v82q0 13 9 13h60q9 0 9 -12v-81z" />
    <glyph glyph-name="uni1ECD" unicode="&#x1ecd;" horiz-adv-x="567" 
d="M158 23.5q-53 33.5 -81 93.5t-28 138q0 80 28.5 141.5t82 96t125.5 34.5t124.5 -34.5t80.5 -96t28 -140.5q0 -78 -28 -138.5t-80.5 -94t-125.5 -33.5t-126 33.5zM396 113.5q37 55.5 37 145.5t-37.5 145t-110.5 55q-74 0 -112 -55.5t-38 -144.5q0 -90 38 -145.5t113 -55.5
q73 0 110 55.5zM322 -146q0 -9 -3 -12t-12 -3h-50q-8 0 -10.5 2.5t-2.5 10.5v82q0 13 9 13h60q9 0 9 -12v-81z" />
    <glyph glyph-name="uni1EE4" unicode="&#x1ee4;" horiz-adv-x="688" 
d="M554.5 55q-63.5 -65 -198.5 -65q-136 0 -198.5 67t-62.5 200v466h89v-480q0 -88 44 -132.5t128 -44.5q85 0 130 44t45 133v480h87v-476q0 -127 -63.5 -192zM388 -146q0 -9 -3 -12t-12 -3h-50q-8 0 -10.5 2.5t-2.5 10.5v82q0 13 9 13h60q9 0 9 -12v-81z" />
    <glyph glyph-name="uni1EE5" unicode="&#x1ee5;" 
d="M184 9q-45 18 -74.5 58t-29.5 101v350h86v-342q0 -61 37.5 -89.5t87.5 -28.5q54 0 91.5 32.5t38.5 90.5v337h86l-1 -517h-68l-4 80q-17 -36 -62.5 -63t-95.5 -27q-47 0 -92 18zM332 -146q0 -9 -3 -12t-12 -3h-50q-8 0 -10.5 2.5t-2.5 10.5v82q0 13 9 13h60q9 0 9 -12v-81
z" />
    <glyph glyph-name="Ygrave" unicode="&#x1ef2;" horiz-adv-x="590" 
d="M339 308v-308h-86v309l-246 414h94l196 -337l192 337h94zM420 842l-15 -45l-250 74l22 67z" />
    <glyph glyph-name="ygrave" unicode="&#x1ef3;" horiz-adv-x="525" 
d="M79.5 -162.5q-17.5 2.5 -25 5.5t-9.5 4v56l54 -1q50 -1 72.5 15t33.5 43l19 51l-202 506h87l156 -407l155 407h83l-218 -561q-28 -67 -67 -94t-95 -27q-26 0 -43.5 2.5zM391 636l-15 -45l-250 74l22 67z" />
    <glyph glyph-name="uni1EF8" unicode="&#x1ef8;" horiz-adv-x="590" 
d="M339 308v-308h-86v309l-246 414h94l196 -337l192 337h94zM364 843q-19 0 -33.5 3.5t-34.5 10.5q-13 5 -27.5 8.5t-29.5 3.5q-16 0 -27 -4t-20 -9.5t-12 -7.5q-4 -3 -7 -3q-4 0 -7 8l-9 27q-2 4 -2 6q0 4 5 8q20 15 36 22.5t39 7.5q17 0 32 -3.5t37 -10.5q37 -13 61 -13
q17 0 29.5 5t27.5 14q4 3 8 3t7 -7l10 -32l1 -4q0 -4 -4 -7t-5 -4q-31 -22 -75 -22z" />
    <glyph glyph-name="uni1EF9" unicode="&#x1ef9;" horiz-adv-x="525" 
d="M79.5 -162.5q-17.5 2.5 -25 5.5t-9.5 4v56l54 -1q50 -1 72.5 15t33.5 43l19 51l-202 506h87l156 -407l155 407h83l-218 -561q-28 -67 -67 -94t-95 -27q-26 0 -43.5 2.5zM335 637q-19 0 -33.5 3.5t-34.5 10.5q-13 5 -27.5 8.5t-29.5 3.5q-16 0 -27 -4t-20 -9.5t-12 -7.5
q-4 -3 -7 -3q-4 0 -7 8l-9 27q-2 4 -2 6q0 4 5 8q20 15 36 22.5t39 7.5q17 0 32 -3.5t37 -10.5q37 -13 61 -13q17 0 29.5 5t27.5 14q4 3 8 3t7 -7l10 -32l1 -4q0 -4 -4 -7t-5 -4q-31 -22 -75 -22z" />
    <glyph glyph-name="endash" unicode="&#x2013;" horiz-adv-x="554" 
d="M489 217h-427v68l427 1v-69z" />
    <glyph glyph-name="emdash" unicode="&#x2014;" horiz-adv-x="868" 
d="M803 217h-741v68l741 1v-69z" />
    <glyph glyph-name="quoteleft" unicode="&#x2018;" horiz-adv-x="235" 
d="M126 633l42 -2v-106h-112v92l83 138h42z" />
    <glyph glyph-name="quoteright" unicode="&#x2019;" horiz-adv-x="212" 
d="M103 615l-42 2v106h112v-92l-83 -138h-42z" />
    <glyph glyph-name="quotesinglbase" unicode="&#x201a;" horiz-adv-x="226" 
d="M100 -1l-42 2v107h112v-93l-83 -138h-42z" />
    <glyph glyph-name="quotedblleft" unicode="&#x201c;" horiz-adv-x="407" 
d="M56 586l84 137h42l-56 -122l42 -2v-106h-112v93zM232 586l82 137h42l-56 -122l43 -2v-106h-111v93z" />
    <glyph glyph-name="quotedblright" unicode="&#x201d;" horiz-adv-x="415" 
d="M103 615l-42 2v106h112v-92l-83 -138h-42zM278 615l-42 2v106h111v-92l-83 -138h-42z" />
    <glyph glyph-name="quotedblbase" unicode="&#x201e;" horiz-adv-x="421" 
d="M284 -1l-42 2v107h112v-93l-83 -138h-42zM105 -1l-42 2v107h112v-93l-83 -138h-42z" />
    <glyph glyph-name="dagger" unicode="&#x2020;" horiz-adv-x="447" 
d="M432 390l-182 12l18 -563h-90l17 563l-182 -12v81l178 -11l-14 263h91l-14 -263l178 11v-81z" />
    <glyph glyph-name="daggerdbl" unicode="&#x2021;" horiz-adv-x="447" 
d="M251 154l181 13v-82l-178 11l14 -257h-91l14 257l-178 -11v82l181 -13v242l-181 -12v81l178 -11l-14 269h91l-14 -269l178 11v-81l-181 12v-242z" />
    <glyph glyph-name="bullet" unicode="&#x2022;" horiz-adv-x="314" 
d="M87.5 301q-27.5 28 -27.5 67t27.5 66.5t66.5 27.5q40 0 67.5 -27.5t27.5 -66.5t-27.5 -67t-67.5 -28q-39 0 -66.5 28z" />
    <glyph glyph-name="ellipsis" unicode="&#x2026;" horiz-adv-x="747" 
d="M698 0h-105v113h105v-113zM166 0h-105v113h105v-113zM432 0h-105v113h105v-113z" />
    <glyph glyph-name="perthousand" unicode="&#x2030;" horiz-adv-x="1300" 
d="M311.5 708.5q38.5 -25.5 60 -72.5t21.5 -109t-21.5 -109t-59.5 -72t-87 -25t-87.5 25t-60.5 72t-22 109t22 109t61 72.5t87 25.5t86.5 -25.5zM252 -4l-60 1l488 734h58zM300 412.5q27 42.5 27 114.5t-27.5 115.5t-75.5 43.5t-75.5 -44t-27.5 -115t27.5 -114t75.5 -43
q49 0 76 42.5zM762.5 378.5q38.5 -25.5 60 -72.5t21.5 -109q0 -63 -21.5 -110t-60 -72t-87.5 -25t-87.5 25t-60.5 72t-22 110q0 62 22 109t61 72.5t87 25.5q49 0 87.5 -25.5zM1160.5 378.5q38.5 -25.5 60 -72.5t21.5 -109q0 -63 -21.5 -110t-59.5 -72t-87 -25t-88 25
t-60.5 72t-21.5 110q0 62 22 109t60.5 72.5t87.5 25.5q48 0 86.5 -25.5zM749 83.5q28 43.5 28 112.5q0 70 -28 114t-75 44t-75 -44.5t-28 -113.5t28 -112.5t75 -43.5t75 43.5zM1148 83.5q28 43.5 28 112.5q0 70 -28 114t-75 44t-75 -44.5t-28 -113.5t28 -112.5t75 -43.5
t75 43.5z" />
    <glyph glyph-name="guilsinglleft" unicode="&#x2039;" horiz-adv-x="271" 
d="M219 71h-49l-132 180l133 188h49l-103 -188z" />
    <glyph glyph-name="guilsinglright" unicode="&#x203a;" horiz-adv-x="272" 
d="M48 439h50l132 -188l-132 -180h-48l102 180z" />
    <glyph glyph-name="fraction" unicode="&#x2044;" horiz-adv-x="248" 
d="M-92 -4l-60 1l488 734h58z" />
    <glyph glyph-name="uni2070" unicode="&#x2070;" horiz-adv-x="408" 
d="M306.5 783q46.5 -61 46.5 -174q0 -112 -47 -172t-123 -60t-123 59.5t-47 172.5t47.5 174t123.5 61t122.5 -61zM264.5 469q28.5 45 28.5 140q0 97 -29 143t-81 46q-51 0 -80.5 -46.5t-29.5 -142.5q0 -94 29.5 -139.5t81.5 -45.5t80.5 45z" />
    <glyph glyph-name="uni2074" unicode="&#x2074;" horiz-adv-x="408" 
d="M286 835v-288h71v-49h-71v-118h-54l1 118h-213v51l211 286h55zM231 547v209l-155 -209h155z" />
    <glyph glyph-name="uni2075" unicode="&#x2075;" horiz-adv-x="394" 
d="M341 835l-4 -47h-222l-12 -152q32 17 55 24.5t54 7.5q65 0 108.5 -35.5t43.5 -103.5q0 -72 -48 -113.5t-126 -41.5q-50 0 -93 18.5t-72 52.5l39 32q30 -30 55.5 -43.5t63.5 -13.5q57 0 89.5 29.5t32.5 77.5q0 46 -29 70.5t-74 24.5q-29 0 -51.5 -9t-52.5 -27q-3 -2 -5 -2
t-4 1t-3 2l-37 21l19 227h273z" />
    <glyph glyph-name="uni2076" unicode="&#x2076;" horiz-adv-x="396" 
d="M283 825q37 -25 49 -64l-46 -14q-17 28 -37 42.5t-55 14.5q-58 0 -90 -49.5t-32 -142.5l1 -28q12 35 45 56t75 21q67 0 105.5 -39t38.5 -98q0 -64 -43.5 -102.5t-111.5 -38.5q-80 0 -125 60t-45 167q0 112 48 176t133 64q53 0 90 -25zM111.5 593.5
q-30.5 -22.5 -30.5 -58.5q16 -107 100 -107q42 0 70.5 26.5t28.5 66.5q0 41 -26 68t-69 27t-73.5 -22.5z" />
    <glyph glyph-name="uni2077" unicode="&#x2077;" horiz-adv-x="358" 
d="M345 835v-56q-61 -84 -114.5 -206t-61.5 -193h-60q13 77 59 191.5t119 216.5h-260v47h318z" />
    <glyph glyph-name="uni2078" unicode="&#x2078;" horiz-adv-x="394" 
d="M291.5 810.5q41.5 -34.5 41.5 -90.5q0 -42 -22 -65t-48 -38q4 -2 28.5 -12t43 -36.5t18.5 -63.5q0 -58 -47 -92.5t-125 -34.5q-76 0 -121 31.5t-45 87.5q0 33 21 63t64 50q-24 10 -48.5 33.5t-24.5 69.5q0 37 20 67t55.5 47.5t80.5 17.5q67 0 108.5 -34.5zM114 777
q-28 -23 -28 -59q0 -54 62 -69l62 -15q12 -3 29 10t29 34t12 43q0 36 -26 57.5t-70 21.5q-42 0 -70 -23zM264 444q30 22 30 58q0 28 -15.5 45.5t-49.5 25.5l-78 20q-12 3 -32 -8.5t-34.5 -33t-14.5 -47.5q0 -39 29.5 -60.5t84.5 -21.5q50 0 80 22z" />
    <glyph glyph-name="uni2079" unicode="&#x2079;" horiz-adv-x="396" 
d="M68 404q-37 25 -49 65l47 13q16 -28 36 -42.5t54 -14.5q64 0 98 55.5t30 166.5q-12 -37 -45.5 -59t-77.5 -22q-68 0 -107.5 39.5t-39.5 99.5q0 63 44 101.5t112 38.5q80 0 125.5 -59.5t45.5 -165.5q0 -116 -48 -178.5t-135 -62.5q-53 0 -90 25zM240.5 636.5
q31.5 23.5 31.5 57.5q-9 53 -35 80t-67 27q-42 0 -69.5 -26.5t-27.5 -66.5t26 -67.5t68 -27.5t73.5 23.5z" />
    <glyph glyph-name="colonmonetary" unicode="&#x20a1;" horiz-adv-x="581" 
d="M431 146q-39 -37 -94 -48l-26 -98l-57 1l24 92q-31 2 -56 9l-27 -102l-57 1l32 123q-55 32 -85.5 93.5t-30.5 141.5q0 103 48 174.5t130 90.5l27 98l57 1l-24 -93q26 0 56 -7l27 99l57 1l-32 -123q55 -36 88 -115l-71 -14q-34 49 -59 69t-65 20q-72 0 -114 -53.5
t-42 -145.5q0 -93 42.5 -147.5t114.5 -54.5q44 0 73.5 24.5t55.5 71.5l69 -15q-22 -57 -61 -94z" />
    <glyph glyph-name="franc" unicode="&#x20a3;" horiz-adv-x="605" 
d="M186 648v-257h313v-74h-313v-126h164v-56h-164v-135h-98v135h-93v55h93v533h467v-75h-369z" />
    <glyph glyph-name="lira" unicode="&#x20a4;" horiz-adv-x="609" 
d="M485.5 34.5q-51.5 -34.5 -126.5 -34.5h-345v74h38q38 0 63 33.5t27 99.5q1 10 0.5 20t-0.5 18q-1 4 -2.5 5t-6.5 1h-107v55h107l-15 92h-92v55h83l-3 29q-4 27 -4 56q0 100 57 147.5t149 47.5q65 0 122 -32.5t78 -83.5l-76 -27q-17 33 -44 51t-70 18q-53 0 -88 -31
t-35 -84q0 -16 11 -82q2 -9 10 -9l161 1v-56h-161l14 -92l147 1v-55h-144q1 -49 -13.5 -97.5t-44.5 -79.5h180q51 0 82.5 19t47.5 63l74 -20q-22 -68 -73.5 -102.5z" />
    <glyph glyph-name="uni20A6" unicode="&#x20a6;" horiz-adv-x="728" 
d="M664 437v-127h55v-52h-55v-258h-76l-175 258l-219 -1v-257h-86v257h-102v52h102v127h-102v53h102v234h81l159 -234h230v234h86v-234h55v-52h-55zM194 489h61l-61 90v-90zM578 437h-194l86 -127h108v127zM377 310l-86 126h-97v-127zM578 258h-73l73 -107v107z" />
    <glyph glyph-name="uni20A9" unicode="&#x20a9;" horiz-adv-x="1035" 
d="M883 472l-29 -101h169v-55h-185l-92 -316h-82l-89 316l-146 -1l-90 -315h-80l-90 315h-154v56h138l-29 100h-109v56h93l-56 196h87l54 -196h220l56 196h68l55 -196h222l56 196h86l-57 -196h124v-55h-140zM490 527h26l-13 45zM799 472h-191l28 -101h134zM560 371l-29 101
l-57 -1l-29 -100h115zM237 371h132l29 100h-189zM754 316h-102l51 -181zM353 315h-101l50 -180z" />
    <glyph glyph-name="dong" unicode="&#x20ab;" horiz-adv-x="502" 
d="M486 659v-47h-61v-480h-73v59q-25 -29 -54.5 -48t-80.5 -19q-78 0 -127.5 55t-49.5 158q0 67 24 118.5t66 80t96 28.5q38 0 63 -12t49 -34q5 -4 8 -4q4 0 4 10v88h-134v47h134v63h75v-63h61zM348 457q-46 49 -103 49q-56 0 -90.5 -43.5t-34.5 -123.5t34 -120t88 -40
q30 0 54 13.5t38 34.5t14 42v188zM62 50h366v-50h-366v50z" />
    <glyph glyph-name="Euro" unicode="&#x20ac;" horiz-adv-x="595" 
d="M556 60q-36 -32 -83 -51t-98 -19q-117 0 -194 70t-100 196h-91v55h84q-2 34 -2 52t2 52h-84v55h91q23 125 99 194t191 69q52 0 99 -18.5t84 -52.5l-60 -55q-57 52 -116 52q-79 0 -129 -47.5t-67 -141.5l201 1v-56h-208q-2 -34 -2 -53q0 -17 2 -51l208 1v-56h-201
q18 -94 69.5 -141.5t133.5 -47.5q34 0 66.5 13.5t57.5 35.5z" />
    <glyph glyph-name="uni20B9" unicode="&#x20b9;" horiz-adv-x="575" 
d="M556 671h-137q46 -38 55 -101h82v-52h-81q-7 -65 -46 -104.5t-95 -57.5q-7 -1 -4 -10l133 -346h-107l-123 339h-225v68h190q82 0 124 26.5t49 84.5l-362 -1v53h362q-15 97 -151 97h-212v56l548 1v-53z" />
    <glyph glyph-name="uni20BA" unicode="&#x20ba;" horiz-adv-x="556" 
d="M544 230q-36 -109 -112.5 -169.5t-192.5 -60.5h-122v222l-75 -27l-20 57l95 35v98l-81 -29l-20 57l101 37v273h98v-238l136 50l22 -57l-158 -57v-98l142 52l21 -58l-163 -59v-183h49q69 1 118.5 42.5t81.5 130.5z" />
    <glyph glyph-name="uni2113" unicode="&#x2113;" horiz-adv-x="495" 
d="M211 91.5q22 -31.5 69 -31.5q39 0 70 21l-83 -91q-61 0 -95 26.5t-46 59.5t-19 75l-4 20q-1 5 -6 2l-47 -33l-27 54l79 57v253q0 113 49 171t127 58q69 0 105 -43t36 -113q0 -68 -32.5 -129.5t-79 -111.5t-118.5 -115v-22q0 -76 22 -107.5zM189 301q166 149 166 286
q0 41 -18.5 63t-54.5 22q-46 0 -69.5 -42t-23.5 -143v-186zM412 148l-7 -7zM405 141v-1q-30 -43 -55 -59z" />
    <glyph glyph-name="uni2116" unicode="&#x2116;" horiz-adv-x="1156" 
d="M651 723v-723h-76l-394 579v-579h-86v723h81l389 -572v572h86zM1064 685.5q43 -46.5 43 -122.5q0 -74 -42.5 -120t-114.5 -46t-113.5 46t-41.5 120q0 76 42.5 122.5t112.5 46.5q71 0 114 -46.5zM883 654q-23 -32 -23 -88q0 -58 23 -90.5t67 -32.5q45 0 68.5 32t23.5 91
q0 57 -23.5 88.5t-68.5 31.5q-44 0 -67 -32z" />
    <glyph glyph-name="uni2117" unicode="&#x2117;" horiz-adv-x="816" 
d="M220.5 39.5q-85.5 49.5 -135.5 135t-50 187.5q0 100 50 185.5t135.5 135.5t186.5 50q100 0 185.5 -50t135.5 -135.5t50 -185.5q0 -102 -50 -187t-135 -135t-186 -50t-186.5 49.5zM561.5 89q70.5 39 112 110t41.5 163q0 91 -41.5 162.5t-112 111t-154.5 39.5
q-86 0 -156 -39.5t-111 -111t-41 -162.5q0 -93 40.5 -164t111 -109.5t156.5 -38.5q84 0 154.5 39zM534 352q-38 -32 -101 -32h-95v-154h-62v388h151q66 0 105.5 -27.5t39.5 -82.5q0 -60 -38 -92zM425 504h-87v-135h90q36 0 58 17.5t22 51.5q0 66 -83 66z" />
    <glyph glyph-name="uni2120" unicode="&#x2120;" horiz-adv-x="965" 
d="M129.5 8q-38.5 14 -64.5 41t-32 65l56 4q9 -38 43 -58.5t80 -20.5q51 0 83.5 21t32.5 55q0 31 -20 49.5t-60 27.5l-92 22q-52 11 -80 39.5t-29 73.5q0 38 21 67.5t58 46.5t84 17q50 0 86.5 -17.5t56.5 -46.5t24 -63l-54 -4q-7 44 -38 64t-76 20q-41 0 -72.5 -21
t-31.5 -58q0 -27 18 -44t63 -27l88 -22q110 -23 110 -123q0 -35 -21 -62.5t-59.5 -43.5t-91.5 -16q-44 0 -82.5 14zM476 452h74l140 -380l143 380h73v-452h-56v367l-134 -367h-51l-133 364v-364h-56v452z" />
    <glyph glyph-name="trademark" unicode="&#x2122;" horiz-adv-x="905" 
d="M9 452h339v-50h-139v-402h-53v402h-147v50zM416 452h74l140 -380l143 380h73v-452h-56v368l-134 -368h-52l-132 364v-364h-56v452z" />
    <glyph glyph-name="estimated" unicode="&#x212e;" horiz-adv-x="816" 
d="M576.5 33q-79.5 -43 -169.5 -43q-101 0 -186.5 49.5t-135.5 135t-50 187.5q0 100 50 185.5t135.5 135.5t186.5 50q99 0 184.5 -48.5t136 -131t50.5 -178.5q0 -7 -3 -10t-10 -3h-541v-282q77 -54 183 -54q75 0 143.5 34t114.5 88h47q-56 -72 -135.5 -115zM233 649
q-9 -6 -9 -17v-232h355v250q-77 45 -172 45q-99 0 -174 -46z" />
    <glyph glyph-name="uni2153" unicode="&#x2153;" horiz-adv-x="934" 
d="M87 667l-89 -31v41l108 54h37v-455h-56v391zM202 -4l-60 1l488 734h58zM638 436q44 22 99 22q68 0 111.5 -32.5t43.5 -82.5q0 -73 -88 -104q47 -12 74.5 -42.5t27.5 -73.5q0 -58 -49 -95t-126 -37q-62 0 -102.5 20.5t-62.5 69.5l49 12q39 -56 115 -56q54 0 85 23.5
t31 61.5q0 41 -34 65t-80 24h-61v46l51 1q48 1 80 24t32 58q0 31 -28.5 52t-69.5 21q-76 0 -108 -56l-48 12q14 45 58 67z" />
    <glyph glyph-name="uni2154" unicode="&#x2154;" horiz-adv-x="1017" 
d="M15 327l147 143q54 51 74.5 80.5t20.5 61.5q0 40 -27 60t-63 20q-34 0 -62 -15.5t-44 -49.5l-48 13q17 48 57 74t99 26q63 0 103.5 -33.5t40.5 -92.5q0 -40 -20.5 -73t-75.5 -88l-126 -126h227v-48h-303v48zM285 -4l-60 1l488 734h58zM721 436q44 22 99 22
q68 0 111.5 -32.5t43.5 -82.5q0 -73 -88 -104q47 -12 74.5 -42.5t27.5 -73.5q0 -58 -49 -95t-126 -37q-62 0 -102.5 20.5t-62.5 69.5l49 12q39 -56 115 -56q54 0 85 23.5t31 61.5q0 41 -34 65t-80 24h-61v46l51 1q48 1 80 24t32 58q0 31 -28.5 52t-69.5 21q-76 0 -108 -56
l-48 12q14 45 58 67z" />
    <glyph glyph-name="oneeighth" unicode="&#x215b;" horiz-adv-x="936" 
d="M87 667l-89 -31v41l108 54h37v-455h-56v391zM202 -4l-60 1l488 734h58zM833.5 422.5q41.5 -34.5 41.5 -90.5q0 -42 -22 -65t-48 -38q4 -2 28.5 -12t43 -36.5t18.5 -63.5q0 -58 -47 -92.5t-125 -34.5q-76 0 -121 31.5t-45 87.5q0 33 21 63t64 50q-24 10 -48.5 33.5
t-24.5 69.5q0 37 20 67t55.5 47.5t80.5 17.5q67 0 108.5 -34.5zM656 389q-28 -23 -28 -59q0 -54 62 -69l62 -15q12 -3 29 10t29 34t12 43q0 36 -26 57.5t-70 21.5q-42 0 -70 -23zM806 56q30 22 30 58q0 28 -15.5 45.5t-49.5 25.5l-78 20q-12 3 -32 -8.5t-34.5 -33
t-14.5 -47.5q0 -39 29.5 -60.5t84.5 -21.5q50 0 80 22z" />
    <glyph glyph-name="threeeighths" unicode="&#x215c;" horiz-adv-x="1034" 
d="M96 718q44 22 99 22q68 0 111.5 -32.5t43.5 -82.5q0 -73 -88 -104q47 -12 74.5 -42.5t27.5 -73.5q0 -58 -49 -95t-126 -37q-62 0 -102.5 20.5t-62.5 69.5l49 12q39 -56 115 -56q54 0 85 23.5t31 61.5q0 41 -34 65t-80 24h-61v46l51 1q48 1 80 24t32 58q0 31 -28.5 52
t-69.5 21q-76 0 -108 -56l-48 12q14 45 58 67zM300 -4l-60 1l488 734h58zM931.5 422.5q41.5 -34.5 41.5 -90.5q0 -42 -22 -65t-48 -38q4 -2 28.5 -12t43 -36.5t18.5 -63.5q0 -58 -47 -92.5t-125 -34.5q-76 0 -121 31.5t-45 87.5q0 33 21 63t64 50q-24 10 -48.5 33.5
t-24.5 69.5q0 37 20 67t55.5 47.5t80.5 17.5q67 0 108.5 -34.5zM754 389q-28 -23 -28 -59q0 -54 62 -69l62 -15q12 -3 29 10t29 34t12 43q0 36 -26 57.5t-70 21.5q-42 0 -70 -23zM904 56q30 22 30 58q0 28 -15.5 45.5t-49.5 25.5l-78 20q-12 3 -32 -8.5t-34.5 -33
t-14.5 -47.5q0 -39 29.5 -60.5t84.5 -21.5q50 0 80 22z" />
    <glyph glyph-name="fiveeighths" unicode="&#x215d;" horiz-adv-x="1036" 
d="M341 731l-4 -47h-222l-12 -152q32 17 55 24.5t54 7.5q65 0 108.5 -35.5t43.5 -103.5q0 -72 -48 -113.5t-126 -41.5q-50 0 -93 18.5t-72 52.5l39 32q30 -30 55.5 -43.5t63.5 -13.5q57 0 89.5 29.5t32.5 77.5q0 46 -29 70.5t-74 24.5q-29 0 -51.5 -9t-52.5 -27q-3 -2 -5 -2
t-4 1t-3 2l-37 21l19 227h273zM302 -4l-60 1l488 734h58zM933.5 422.5q41.5 -34.5 41.5 -90.5q0 -42 -22 -65t-48 -38q4 -2 28.5 -12t43 -36.5t18.5 -63.5q0 -58 -47 -92.5t-125 -34.5q-76 0 -121 31.5t-45 87.5q0 33 21 63t64 50q-24 10 -48.5 33.5t-24.5 69.5q0 37 20 67
t55.5 47.5t80.5 17.5q67 0 108.5 -34.5zM756 389q-28 -23 -28 -59q0 -54 62 -69l62 -15q12 -3 29 10t29 34t12 43q0 36 -26 57.5t-70 21.5q-42 0 -70 -23zM906 56q30 22 30 58q0 28 -15.5 45.5t-49.5 25.5l-78 20q-12 3 -32 -8.5t-34.5 -33t-14.5 -47.5q0 -39 29.5 -60.5
t84.5 -21.5q50 0 80 22z" />
    <glyph glyph-name="seveneighths" unicode="&#x215e;" horiz-adv-x="1000" 
d="M345 730v-56q-61 -84 -114.5 -206t-61.5 -193h-60q13 77 59 191.5t119 216.5h-260v47h318zM266 -4l-60 1l488 734h58zM897.5 422.5q41.5 -34.5 41.5 -90.5q0 -42 -22 -65t-48 -38q4 -2 28.5 -12t43 -36.5t18.5 -63.5q0 -58 -47 -92.5t-125 -34.5q-76 0 -121 31.5
t-45 87.5q0 33 21 63t64 50q-24 10 -48.5 33.5t-24.5 69.5q0 37 20 67t55.5 47.5t80.5 17.5q67 0 108.5 -34.5zM720 389q-28 -23 -28 -59q0 -54 62 -69l62 -15q12 -3 29 10t29 34t12 43q0 36 -26 57.5t-70 21.5q-42 0 -70 -23zM870 56q30 22 30 58q0 28 -15.5 45.5
t-49.5 25.5l-78 20q-12 3 -32 -8.5t-34.5 -33t-14.5 -47.5q0 -39 29.5 -60.5t84.5 -21.5q50 0 80 22z" />
    <glyph glyph-name="partialdiff" unicode="&#x2202;" horiz-adv-x="583" 
d="M78 667q26 27 79 46.5t111 19.5q125 0 196 -93.5t71 -276.5q0 -177 -66 -275t-190 -98q-69 0 -121.5 30t-81.5 83t-29 118t28.5 114.5t82.5 77t127 27.5q49 0 79.5 -11t70.5 -37q5 -4 10 -4q4 0 4 7q0 126 -52 196.5t-151 70.5q-44 0 -75.5 -12.5t-65.5 -36.5zM273 59
q44 0 81 27t60.5 75.5t29.5 112.5q1 6 1 15q0 12 -7 20q-22 27 -64.5 46t-86.5 19q-67 0 -110 -44.5t-43 -112.5q0 -44 18.5 -80t50 -57t69.5 -21h1z" />
    <glyph glyph-name="emptyset" unicode="&#x2205;" horiz-adv-x="575" 
d="M458 481q37 -53 37 -117q0 -56 -28 -104t-76 -76t-104 -28q-74 0 -131 46l-66 -61l-36 38l66 61q-40 56 -40 124q0 56 27.5 103.5t75 75.5t104.5 28q39 0 74 -13.5t63 -38.5l58 54l35 -37zM157 274l231 212q-46 36 -101 36q-43 0 -79.5 -21.5t-57.5 -58t-21 -78.5
q0 -51 28 -90zM422 448l-229 -212q42 -31 94 -31q43 0 79.5 21.5t58 58t21.5 79.5q0 44 -24 84z" />
    <glyph glyph-name="product" unicode="&#x220f;" horiz-adv-x="646" 
d="M630 648h-101v-648h-91v648h-232v-648h-91v648h-100v75h615v-75z" />
    <glyph glyph-name="summation" unicode="&#x2211;" horiz-adv-x="521" 
d="M25 0v57l216 304l-202 299v63h439v-73h-321l192 -282l-209 -292h356v-76h-471z" />
    <glyph glyph-name="minus" unicode="&#x2212;" horiz-adv-x="551" 
d="M488 330l-427 -1v68h427v-67z" />
    <glyph glyph-name="uni2219" unicode="&#x2219;" horiz-adv-x="314" 
d="M112 324.5q-17 17.5 -17 42.5t17 42.5t42 17.5q26 0 43 -17t17 -43q0 -25 -17.5 -42.5t-42.5 -17.5t-42 17.5z" />
    <glyph glyph-name="radical" unicode="&#x221a;" horiz-adv-x="628" 
d="M371 -161h-92l-167 453l-75 -30l-21 57l149 55l157 -444l231 895h76z" />
    <glyph glyph-name="infinity" unicode="&#x221e;" horiz-adv-x="721" 
d="M672 272q0 -50 -21.5 -87.5t-57.5 -57t-79 -19.5q-46 0 -76.5 21t-70.5 67q-5 7 -8 7q-4 0 -8 -7q-4 -4 -24.5 -27.5t-55 -42t-73.5 -18.5q-41 0 -76 20t-55.5 56.5t-20.5 83.5q0 72 45.5 116.5t117.5 44.5q33 0 57.5 -10t42.5 -26t44 -45q8 -8 12 -8q3 0 11 8
q35 38 66.5 59.5t80.5 21.5q65 0 107 -42.5t42 -112.5v-2zM205 173q31 0 61 22t50 50q9 14 9 19q0 6 -11 23q-26 39 -53 59.5t-60 20.5q-40 0 -65 -26.5t-25 -69.5t26.5 -70.5t64.5 -27.5h3zM519 367q-32 0 -57.5 -20t-56.5 -56q-8 -9 -8 -20q0 -12 8 -20q55 -78 118 -78
q38 0 60.5 29.5t22.5 67.5q0 40 -24 68.5t-62 28.5h-1z" />
    <glyph glyph-name="integral" unicode="&#x222b;" horiz-adv-x="437" 
d="M196.5 783.5q42.5 51.5 115.5 51.5q41 0 65 -6t49 -22l-22 -76q-24 13 -42 18.5t-41 5.5q-38 0 -61 -27t-23 -82q0 -117 21 -321q1 -16 7 -81t9 -118t3 -95q0 -98 -42 -150t-114 -52q-39 0 -62.5 6t-49.5 21l21 77q24 -13 42 -18.5t41 -5.5q36 0 59 27t23 83q0 68 -5 134
t-16 185q-10 105 -15 170t-5 127q0 97 42.5 148.5z" />
    <glyph glyph-name="approxequal" unicode="&#x2248;" horiz-adv-x="563" 
d="M450.5 407.5q-32.5 -17.5 -74.5 -17.5q-25 0 -46.5 6.5t-48.5 19.5q-27 12 -46.5 18.5t-42.5 6.5q-34 0 -59.5 -15t-48.5 -40l-25 50q33 33 62 49.5t70 16.5q26 0 47 -6.5t51 -20.5q27 -13 46 -19t41 -6q34 0 57.5 15t41.5 39l26 -51q-18 -28 -50.5 -45.5zM450.5 210.5
q-32.5 -17.5 -74.5 -17.5q-27 0 -48.5 7t-50.5 20q-28 13 -45.5 18.5t-39.5 5.5q-35 0 -60 -15t-48 -40l-25 51q33 32 62 48.5t70 16.5q26 0 47 -6.5t51 -20.5q27 -13 46 -19t41 -6q34 0 57.5 15t41.5 39l26 -51q-18 -28 -50.5 -45.5z" />
    <glyph glyph-name="notequal" unicode="&#x2260;" horiz-adv-x="581" 
d="M331 427l-68 -155l228 1v-67l-258 -1l-63 -143h-52l64 143h-118v67h148l68 155l-216 -1v67l246 1l60 134h50l-59 -134h130v-67h-160z" />
    <glyph glyph-name="lessequal" unicode="&#x2264;" horiz-adv-x="546" 
d="M475 231l-416 164v79l417 165v-81l-313 -123l312 -123v-81zM479 59l-426 1v67l426 -1v-67z" />
    <glyph glyph-name="greaterequal" unicode="&#x2265;" horiz-adv-x="546" 
d="M380 435l-314 123v81l417 -165v-79l-416 -164v81zM489 127v-67l-426 -1v67z" />
    <glyph glyph-name="lozenge" unicode="&#x25ca;" horiz-adv-x="481" 
d="M206 0l-160 361l166 362h69l161 -360l-166 -363h-70zM123 365l122 -297l121 293l-121 293z" />
    <glyph glyph-name="i.loclTRK" horiz-adv-x="245" 
d="M166 0h-86v517h86v-517zM169 608h-92v115h92v-115z" />
    <glyph glyph-name="p.001" horiz-adv-x="593" 
d="M85 517h85v-72q21 23 38.5 39t50 29.5t76.5 13.5q61 0 109.5 -29t76 -88t27.5 -144q0 -86 -28 -148.5t-78 -95t-117 -32.5q-42 0 -78 14t-76 48v-213h-86v678zM416.5 108.5q43.5 54.5 43.5 155.5q0 100 -43 149t-109 49q-39 0 -70.5 -18t-49 -47t-17.5 -63v-192
q52 -88 130 -88q72 0 115.5 54.5z" />
    <glyph glyph-name="q.001" horiz-adv-x="592" 
d="M426 -161v213q-40 -34 -76 -48t-78 -14q-67 0 -117 32.5t-78 95t-28 148.5q0 85 27.5 144t76 88t109.5 29q44 0 76.5 -13.5t50 -29.5t38.5 -39v72h85v-678h-86zM426 142v192q0 34 -17.5 63t-49 47t-70.5 18q-66 0 -109 -49t-43 -149q0 -101 44 -155.5t115 -54.5
q78 0 130 88z" />
    <glyph glyph-name="l.ss01" horiz-adv-x="272" 
d="M93 743h86v-743h-86v743z" />
    <glyph glyph-name="zero.osf" horiz-adv-x="636" 
d="M458 690.5q61 -42.5 95.5 -126.5t34.5 -204t-34.5 -203t-95.5 -124.5t-140 -41.5t-140 41.5t-95.5 124t-34.5 202.5t35 204.5t96 127t140 42.5q78 0 139 -42.5zM447.5 137q45.5 72 45.5 223q0 153 -46.5 226.5t-128.5 73.5t-128.5 -74t-46.5 -226q0 -150 47 -222.5
t129 -72.5q83 0 128.5 72z" />
    <glyph glyph-name="one.osf" horiz-adv-x="382" 
d="M176 622l-141 -50v66l172 85h58v-723h-89v622z" />
    <glyph glyph-name="two.osf" horiz-adv-x="576" 
d="M43 76l234 227q58 56 89.5 92t46 67.5t14.5 66.5q0 64 -43 96t-100 32q-53 0 -98 -25t-70 -78l-77 20q29 77 92.5 118t156.5 41q66 0 118 -24t81.5 -69.5t29.5 -108.5q0 -43 -15 -79.5t-47 -76.5t-91 -99l-201 -199h362v-77h-482v76z" />
    <glyph glyph-name="three.osf" horiz-adv-x="622" 
d="M156 702q69 35 157 35q71 0 127.5 -24t88 -65.5t31.5 -93.5q0 -116 -140 -165q75 -20 118.5 -68t43.5 -117q0 -60 -35.5 -108t-99 -75t-143.5 -27q-98 0 -162.5 32.5t-99.5 110.5l78 20q60 -89 182 -89q85 0 134.5 37.5t49.5 96.5q0 44 -25 76t-66.5 49t-88.5 17l-98 1
v72l82 2q49 0 89.5 17.5t64 47t23.5 65.5q0 32 -20.5 59t-56 42t-78.5 15q-123 0 -172 -89l-76 20q23 71 92 106z" />
    <glyph glyph-name="four.osf" horiz-adv-x="619" 
d="M468 723v-457h113v-78h-113v-188h-86l1 188h-339v81l336 454h88zM380 266v331l-246 -331h246z" />
    <glyph glyph-name="five.osf" horiz-adv-x="645" 
d="M552 723l-6 -75h-354l-19 -241q50 26 87 38.5t87 12.5q67 0 122 -24t87.5 -74t32.5 -123q0 -76 -35.5 -132t-98 -85.5t-143.5 -29.5q-79 0 -148 29.5t-115 84.5l63 51q48 -48 88 -70t100 -22q91 0 143 47.5t52 123.5q0 73 -46.5 111.5t-118.5 38.5q-45 0 -82 -14.5
t-83 -41.5q-6 -3 -9 -3q-2 0 -4 1.5t-5 2.5l-59 34l30 360h434z" />
    <glyph glyph-name="six.osf" horiz-adv-x="613" 
d="M479 699.5q58 -39.5 77 -102.5l-72 -22q-27 45 -59 68t-88 23q-92 0 -143 -79t-51 -227q0 -29 1 -44q19 56 72 89t119 33q72 0 124 -28.5t79 -78t27 -110.5q0 -67 -32 -118t-88.5 -78.5t-126.5 -27.5q-84 0 -145 42.5t-93.5 123.5t-32.5 194q0 118 34.5 204t99.5 132
t155 46q85 0 143 -39.5zM241 352q-38 -16 -61 -46t-23 -68q13 -85 54 -127.5t106 -42.5q67 0 111.5 42t44.5 107q0 42 -18.5 76.5t-52.5 54.5t-79 20q-44 0 -82 -16z" />
    <glyph glyph-name="seven.osf" horiz-adv-x="573" 
d="M540 723v-88q-63 -87 -124.5 -208t-103.5 -237t-51 -190h-96q13 76 48.5 183.5t95.5 230.5t140 234h-414v75h505z" />
    <glyph glyph-name="eight.osf" horiz-adv-x="621" 
d="M433 708q54 -25 84 -70.5t30 -103.5q0 -67 -37.5 -105.5t-74.5 -57.5q6 -2 45.5 -18.5t69 -58.5t29.5 -102q0 -61 -34 -107t-95.5 -70.5t-143.5 -24.5q-122 0 -193 50t-71 139q0 53 33 101t102 80q-39 17 -77.5 53t-38.5 110q0 59 31.5 107t88 75.5t128.5 27.5
q70 0 124 -25zM230.5 645q-35.5 -17 -56 -47t-20.5 -67q0 -86 99 -109l99 -24q19 -4 45.5 16t46 53.5t19.5 67.5q0 57 -41.5 92t-111.5 35q-44 0 -79.5 -17zM437.5 95.5q47.5 34.5 47.5 92.5q0 45 -24.5 72.5t-78.5 40.5l-124 31q-3 1 -9 1q-22 0 -51 -19.5t-49.5 -52
t-20.5 -70.5q0 -61 47 -95.5t135 -34.5q80 0 127.5 34.5z" />
    <glyph glyph-name="nine.osf" horiz-adv-x="613" 
d="M130.5 30.5q-58.5 39.5 -77.5 102.5l74 21q26 -44 57.5 -67.5t86.5 -23.5q96 0 149.5 78.5t53.5 235.5q0 25 -1 39q-19 -59 -71.5 -93.5t-122.5 -34.5q-72 0 -125 29t-81 79t-28 113q0 67 32 117.5t88.5 78t127.5 27.5q84 0 145 -42.5t93.5 -123t32.5 -193.5
q0 -184 -76 -283t-214 -99q-85 0 -143.5 39.5zM369.5 379q38.5 17 61.5 47t23 66q-14 84 -55 127t-106 43q-67 0 -110.5 -42t-43.5 -107q0 -41 18 -75.5t51.5 -55t78.5 -20.5q44 0 82.5 17z" />
    <glyph glyph-name="zero.tf" horiz-adv-x="693" 
d="M489 690.5q61 -42.5 95.5 -126.5t34.5 -204t-34.5 -203t-95.5 -124.5t-140 -41.5t-140 41.5t-95.5 124t-34.5 202.5t35 204.5t96 127t140 42.5q78 0 139 -42.5zM478.5 137q45.5 72 45.5 223q0 153 -46.5 226.5t-128.5 73.5t-128.5 -74t-46.5 -226q0 -150 47 -222.5
t129 -72.5q83 0 128.5 72z" />
    <glyph glyph-name="one.tf" horiz-adv-x="693" 
d="M621 83v-83h-522v83h218v546l-210 -80v82l247 93h55v-641h212z" />
    <glyph glyph-name="two.tf" horiz-adv-x="693" 
d="M116 76l234 227q58 56 89.5 92t46 67.5t14.5 66.5q0 64 -43 96t-100 32q-53 0 -98 -25t-70 -78l-77 20q29 77 92.5 118t156.5 41q66 0 118 -24t81.5 -69.5t29.5 -108.5q0 -43 -15 -79.5t-47 -76.5t-91 -99l-201 -199h362v-77h-482v76z" />
    <glyph glyph-name="three.tf" horiz-adv-x="693" 
d="M198 698q69 35 157 35q71 0 127.5 -24t88 -65.5t31.5 -93.5q0 -116 -140 -165q75 -20 118.5 -68t43.5 -117q0 -60 -35.5 -108t-99 -75t-143.5 -27q-98 0 -162.5 32.5t-99.5 110.5l78 20q60 -89 182 -89q85 0 134.5 37.5t49.5 96.5q0 44 -25 76t-66.5 49t-88.5 17l-98 1
v72l82 2q49 0 89.5 17.5t64 47t23.5 65.5q0 32 -20.5 59t-56 42t-78.5 15q-123 0 -172 -89l-76 20q23 71 92 106z" />
    <glyph glyph-name="four.tf" horiz-adv-x="693" 
d="M518 723v-457h113v-78h-113v-188h-86l1 188h-339v81l336 454h88zM430 266v331l-246 -331h246z" />
    <glyph glyph-name="five.tf" horiz-adv-x="693" 
d="M588 723l-6 -75h-354l-19 -241q50 26 87 38.5t87 12.5q67 0 122 -24t87.5 -74t32.5 -123q0 -76 -35.5 -132t-98 -85.5t-143.5 -29.5q-79 0 -148 29.5t-115 84.5l63 51q48 -48 88 -70t100 -22q91 0 143 47.5t52 123.5q0 73 -46.5 111.5t-118.5 38.5q-45 0 -82 -14.5
t-83 -41.5q-6 -3 -9 -3q-2 0 -4 1.5t-5 2.5l-59 34l30 360h434z" />
    <glyph glyph-name="six.tf" horiz-adv-x="693" 
d="M521 699.5q58 -39.5 77 -102.5l-72 -22q-27 45 -59 68t-88 23q-92 0 -143 -79t-51 -227q0 -29 1 -44q19 56 72 89t119 33q72 0 124 -28.5t79 -78t27 -110.5q0 -67 -32 -118t-88.5 -78.5t-126.5 -27.5q-84 0 -145 42.5t-93.5 123.5t-32.5 194q0 118 34.5 204t99.5 132
t155 46q85 0 143 -39.5zM283 352q-38 -16 -61 -46t-23 -68q13 -85 54 -127.5t106 -42.5q67 0 111.5 42t44.5 107q0 42 -18.5 76.5t-52.5 54.5t-79 20q-44 0 -82 -16z" />
    <glyph glyph-name="seven.tf" horiz-adv-x="693" 
d="M611 723v-88q-63 -87 -124.5 -208t-104 -237t-51.5 -190h-100q13 75 48.5 181.5t95.5 228t140 233.5h-453v80h549z" />
    <glyph glyph-name="eight.tf" horiz-adv-x="693" 
d="M476 708q54 -25 84 -70.5t30 -103.5q0 -67 -37.5 -105.5t-74.5 -57.5q6 -2 45.5 -18.5t69 -58.5t29.5 -102q0 -61 -34 -107t-95.5 -70.5t-143.5 -24.5q-122 0 -193 50t-71 139q0 53 33 101t102 80q-39 17 -77.5 53t-38.5 110q0 59 31.5 107t88 75.5t128.5 27.5
q70 0 124 -25zM273.5 645q-35.5 -17 -56 -47t-20.5 -67q0 -86 99 -109l99 -24q19 -4 45.5 16t46 53.5t19.5 67.5q0 57 -41.5 92t-111.5 35q-44 0 -79.5 -17zM480.5 95.5q47.5 34.5 47.5 92.5q0 45 -24.5 72.5t-78.5 40.5l-124 31q-3 1 -9 1q-22 0 -51 -19.5t-49.5 -52
t-20.5 -70.5q0 -61 47 -95.5t135 -34.5q80 0 127.5 34.5z" />
    <glyph glyph-name="nine.tf" horiz-adv-x="693" 
d="M177.5 30.5q-58.5 39.5 -77.5 102.5l74 21q26 -44 57.5 -67.5t86.5 -23.5q96 0 149.5 78.5t53.5 235.5q0 25 -1 39q-19 -59 -71.5 -93.5t-122.5 -34.5q-72 0 -125 29t-81 79t-28 113q0 67 32 117.5t88.5 78t127.5 27.5q84 0 145 -42.5t93.5 -123t32.5 -193.5
q0 -184 -76 -283t-214 -99q-85 0 -143.5 39.5zM416.5 379q38.5 17 61.5 47t23 66q-14 84 -55 127t-106 43q-67 0 -110.5 -42t-43.5 -107q0 -41 18 -75.5t51.5 -55t78.5 -20.5q44 0 82.5 17z" />
    <glyph glyph-name="zero.subs" horiz-adv-x="408" 
d="M306.5 230q46.5 -61 46.5 -174q0 -112 -47 -172t-123 -60t-123 59.5t-47 172.5t47.5 174t123.5 61t122.5 -61zM264.5 -84q28.5 45 28.5 140q0 97 -29 143t-81 46q-51 0 -80.5 -46.5t-29.5 -142.5q0 -94 29.5 -139.5t81.5 -45.5t80.5 45z" />
    <glyph glyph-name="one.subs" horiz-adv-x="294" 
d="M87 226l-89 -31v41l108 54h37v-455h-56v391z" />
    <glyph glyph-name="two.subs" horiz-adv-x="377" 
d="M15 -117l147 143q37 35 56.5 57.5t29 42.5t9.5 42q0 40 -27.5 60t-62.5 20q-34 0 -62 -15.5t-44 -49.5l-48 13q18 48 58 74t98 26q42 0 74.5 -15t51 -43.5t18.5 -68.5q0 -27 -9.5 -50t-29.5 -48t-57 -62l-126 -126h227v-48h-303v48z" />
    <glyph glyph-name="three.subs" horiz-adv-x="392" 
d="M96 271q44 22 99 22q68 0 111.5 -32.5t43.5 -82.5q0 -73 -88 -104q47 -12 74.5 -42.5t27.5 -73.5q0 -58 -49 -95t-126 -37q-62 0 -102.5 20.5t-62.5 69.5l49 12q39 -56 115 -56q54 0 85 23.5t31 61.5q0 41 -34 65t-80 24h-61v46l51 1q48 1 80 24t32 58q0 31 -28.5 52
t-69.5 21q-76 0 -108 -56l-48 12q14 45 58 67z" />
    <glyph glyph-name="four.subs" horiz-adv-x="408" 
d="M286 290v-288h71v-49h-71v-118h-54l1 118h-213v51l211 286h55zM231 2v208l-155 -208h155z" />
    <glyph glyph-name="five.subs" horiz-adv-x="394" 
d="M341 287l-4 -47h-222l-12 -152q32 17 55 24.5t54 7.5q65 0 108.5 -35.5t43.5 -103.5q0 -72 -48 -113.5t-126 -41.5q-50 0 -93 18.5t-72 52.5l39 32q30 -30 55.5 -43.5t63.5 -13.5q57 0 89.5 29.5t32.5 77.5q0 46 -29 70.5t-74 24.5q-29 0 -51.5 -9t-52.5 -27q-3 -2 -5 -2
t-4 1t-3 2l-37 21l19 227h273z" />
    <glyph glyph-name="six.subs" horiz-adv-x="396" 
d="M283 270q37 -25 49 -64l-46 -14q-17 28 -37 42.5t-55 14.5q-58 0 -90 -49.5t-32 -142.5l1 -28q12 35 45 56t75 21q67 0 105.5 -39t38.5 -98q0 -64 -43.5 -102.5t-111.5 -38.5q-80 0 -125 60t-45 167q0 112 48 176t133 64q53 0 90 -25zM111.5 38.5
q-30.5 -22.5 -30.5 -58.5q16 -107 100 -107q42 0 70.5 26.5t28.5 66.5q0 41 -26 68t-69 27t-73.5 -22.5z" />
    <glyph glyph-name="seven.subs" horiz-adv-x="358" 
d="M345 290v-56q-40 -54 -78.5 -130.5t-65 -149t-32.5 -119.5h-60q8 48 30.5 115.5t60 145t87.5 147.5h-260v47h318z" />
    <glyph glyph-name="eight.subs" horiz-adv-x="394" 
d="M291.5 258.5q41.5 -34.5 41.5 -90.5q0 -42 -22 -65t-48 -38q4 -2 28.5 -12t43 -36.5t18.5 -63.5q0 -58 -47 -92.5t-125 -34.5q-76 0 -121 31.5t-45 87.5q0 33 21 63t64 50q-24 10 -48.5 33.5t-24.5 69.5q0 37 20 67t55.5 47.5t80.5 17.5q67 0 108.5 -34.5zM114 225
q-28 -23 -28 -59q0 -54 62 -69l62 -15q12 -3 29 10t29 34t12 43q0 36 -26 57.5t-70 21.5q-42 0 -70 -23zM264 -108q30 22 30 58q0 28 -15.5 45.5t-49.5 25.5l-78 20q-12 3 -32 -8.5t-34.5 -33t-14.5 -47.5q0 -39 29.5 -60.5t84.5 -21.5q50 0 80 22z" />
    <glyph glyph-name="nine.subs" horiz-adv-x="396" 
d="M68 -151q-37 25 -49 65l47 13q16 -28 36 -42.5t54 -14.5q64 0 98 55.5t30 166.5q-12 -37 -45.5 -59t-77.5 -22q-68 0 -107.5 39.5t-39.5 99.5q0 63 44 101.5t112 38.5q80 0 125.5 -59.5t45.5 -165.5q0 -116 -48 -178.5t-135 -62.5q-53 0 -90 25zM240.5 81.5
q31.5 23.5 31.5 57.5q-9 53 -35 80t-67 27q-42 0 -69.5 -26.5t-27.5 -66.5t26 -67.5t68 -27.5t73.5 23.5z" />
    <glyph glyph-name="zero.dnom" horiz-adv-x="408" 
d="M306.5 395q46.5 -61 46.5 -174q0 -112 -47 -172t-123 -60t-123 59.5t-47 172.5t47.5 174t123.5 61t122.5 -61zM264.5 81q28.5 45 28.5 140q0 97 -29 143t-81 46q-51 0 -80.5 -46.5t-29.5 -142.5q0 -94 29.5 -139.5t81.5 -45.5t80.5 45z" />
    <glyph glyph-name="one.dnom" horiz-adv-x="294" 
d="M87 391l-89 -31v41l108 54h37v-455h-56v391z" />
    <glyph glyph-name="two.dnom" horiz-adv-x="377" 
d="M15 48l147 143q37 35 56.5 57.5t29 42.5t9.5 42q0 40 -27.5 60t-62.5 20q-34 0 -62 -15.5t-44 -49.5l-48 13q18 48 58 74t98 26q42 0 74.5 -15t51 -43.5t18.5 -68.5q0 -27 -9.5 -50t-29.5 -48t-57 -62l-126 -126h227v-48h-303v48z" />
    <glyph glyph-name="three.dnom" horiz-adv-x="392" 
d="M96 436q44 22 99 22q68 0 111.5 -32.5t43.5 -82.5q0 -73 -88 -104q47 -12 74.5 -42.5t27.5 -73.5q0 -58 -49 -95t-126 -37q-62 0 -102.5 20.5t-62.5 69.5l49 12q39 -56 115 -56q54 0 85 23.5t31 61.5q0 41 -34 65t-80 24h-61v46l51 1q48 1 80 24t32 58q0 31 -28.5 52
t-69.5 21q-76 0 -108 -56l-48 12q14 45 58 67z" />
    <glyph glyph-name="four.dnom" horiz-adv-x="408" 
d="M286 455v-288h71v-49h-71v-118h-54l1 118h-213v51l211 286h55zM231 167v208l-155 -208h155z" />
    <glyph glyph-name="five.dnom" horiz-adv-x="394" 
d="M341 452l-4 -47h-222l-12 -152q32 17 55 24.5t54 7.5q65 0 108.5 -35.5t43.5 -103.5q0 -72 -48 -113.5t-126 -41.5q-50 0 -93 18.5t-72 52.5l39 32q30 -30 55.5 -43.5t63.5 -13.5q57 0 89.5 29.5t32.5 77.5q0 46 -29 70.5t-74 24.5q-29 0 -51.5 -9t-52.5 -27q-3 -2 -5 -2
t-4 1t-3 2l-37 21l19 227h273z" />
    <glyph glyph-name="six.dnom" horiz-adv-x="396" 
d="M283 435q37 -25 49 -64l-46 -14q-17 28 -37 42.5t-55 14.5q-58 0 -90 -49.5t-32 -142.5l1 -28q12 35 45 56t75 21q67 0 105.5 -39t38.5 -98q0 -64 -43.5 -102.5t-111.5 -38.5q-80 0 -125 60t-45 167q0 112 48 176t133 64q53 0 90 -25zM111.5 203.5
q-30.5 -22.5 -30.5 -58.5q16 -107 100 -107q42 0 70.5 26.5t28.5 66.5q0 41 -26 68t-69 27t-73.5 -22.5z" />
    <glyph glyph-name="seven.dnom" horiz-adv-x="358" 
d="M345 455v-56q-40 -54 -78.5 -130.5t-65 -149t-32.5 -119.5h-60q8 48 30.5 115.5t60 145t87.5 147.5h-260v47h318z" />
    <glyph glyph-name="eight.dnom" horiz-adv-x="394" 
d="M291.5 422.5q41.5 -34.5 41.5 -90.5q0 -42 -22 -65t-48 -38q4 -2 28.5 -12t43 -36.5t18.5 -63.5q0 -58 -47 -92.5t-125 -34.5q-76 0 -121 31.5t-45 87.5q0 33 21 63t64 50q-24 10 -48.5 33.5t-24.5 69.5q0 37 20 67t55.5 47.5t80.5 17.5q67 0 108.5 -34.5zM114 389
q-28 -23 -28 -59q0 -54 62 -69l62 -15q12 -3 29 10t29 34t12 43q0 36 -26 57.5t-70 21.5q-42 0 -70 -23zM264 56q30 22 30 58q0 28 -15.5 45.5t-49.5 25.5l-78 20q-12 3 -32 -8.5t-34.5 -33t-14.5 -47.5q0 -39 29.5 -60.5t84.5 -21.5q50 0 80 22z" />
    <glyph glyph-name="nine.dnom" horiz-adv-x="396" 
d="M68 14q-37 25 -49 65l47 13q16 -28 36 -42.5t54 -14.5q64 0 98 55.5t30 166.5q-12 -37 -45.5 -59t-77.5 -22q-68 0 -107.5 39.5t-39.5 99.5q0 63 44 101.5t112 38.5q80 0 125.5 -59.5t45.5 -165.5q0 -116 -48 -178.5t-135 -62.5q-53 0 -90 25zM240.5 246.5
q31.5 23.5 31.5 57.5q-9 53 -35 80t-67 27q-42 0 -69.5 -26.5t-27.5 -66.5t26 -67.5t68 -27.5t73.5 23.5z" />
    <glyph glyph-name="zero.numr" horiz-adv-x="408" 
d="M306.5 679q46.5 -61 46.5 -174q0 -112 -47 -172t-123 -60t-123 59.5t-47 172.5t47.5 174t123.5 61t122.5 -61zM264.5 365q28.5 45 28.5 140q0 97 -29 143t-81 46q-51 0 -80.5 -46.5t-29.5 -142.5q0 -94 29.5 -139.5t81.5 -45.5t80.5 45z" />
    <glyph glyph-name="one.numr" horiz-adv-x="294" 
d="M87 667l-89 -31v41l108 54h37v-455h-56v391z" />
    <glyph glyph-name="two.numr" horiz-adv-x="377" 
d="M15 327l147 143q54 51 74.5 80.5t20.5 61.5q0 40 -27 60t-63 20q-34 0 -62 -15.5t-44 -49.5l-48 13q17 48 57 74t99 26q63 0 103.5 -33.5t40.5 -92.5q0 -40 -20.5 -73t-75.5 -88l-126 -126h227v-48h-303v48z" />
    <glyph glyph-name="three.numr" horiz-adv-x="392" 
d="M96 718q44 22 99 22q68 0 111.5 -32.5t43.5 -82.5q0 -73 -88 -104q47 -12 74.5 -42.5t27.5 -73.5q0 -58 -49 -95t-126 -37q-62 0 -102.5 20.5t-62.5 69.5l49 12q39 -56 115 -56q54 0 85 23.5t31 61.5q0 41 -34 65t-80 24h-61v46l51 1q48 1 80 24t32 58q0 31 -28.5 52
t-69.5 21q-76 0 -108 -56l-48 12q14 45 58 67z" />
    <glyph glyph-name="four.numr" horiz-adv-x="408" 
d="M286 731v-288h71v-49h-71v-118h-54l1 118h-213v51l211 286h55zM231 443v209l-155 -209h155z" />
    <glyph glyph-name="five.numr" horiz-adv-x="394" 
d="M341 731l-4 -47h-222l-12 -152q32 17 55 24.5t54 7.5q65 0 108.5 -35.5t43.5 -103.5q0 -72 -48 -113.5t-126 -41.5q-50 0 -93 18.5t-72 52.5l39 32q30 -30 55.5 -43.5t63.5 -13.5q57 0 89.5 29.5t32.5 77.5q0 46 -29 70.5t-74 24.5q-29 0 -51.5 -9t-52.5 -27q-3 -2 -5 -2
t-4 1t-3 2l-37 21l19 227h273z" />
    <glyph glyph-name="six.numr" horiz-adv-x="396" 
d="M283 720q37 -25 49 -64l-46 -14q-17 28 -37 42.5t-55 14.5q-58 0 -90 -49.5t-32 -142.5l1 -28q12 35 45 56t75 21q67 0 105.5 -39t38.5 -98q0 -64 -43.5 -102.5t-111.5 -38.5q-80 0 -125 60t-45 167q0 112 48 176t133 64q53 0 90 -25zM111.5 488.5
q-30.5 -22.5 -30.5 -58.5q16 -107 100 -107q42 0 70.5 26.5t28.5 66.5q0 41 -26 68t-69 27t-73.5 -22.5z" />
    <glyph glyph-name="seven.numr" horiz-adv-x="358" 
d="M345 730v-56q-61 -84 -114.5 -206t-61.5 -193h-60q13 77 59 191.5t119 216.5h-260v47h318z" />
    <glyph glyph-name="eight.numr" horiz-adv-x="394" 
d="M291.5 705.5q41.5 -34.5 41.5 -90.5q0 -42 -22 -65t-48 -38q4 -2 28.5 -12t43 -36.5t18.5 -63.5q0 -58 -47 -92.5t-125 -34.5q-76 0 -121 31.5t-45 87.5q0 33 21 63t64 50q-24 10 -48.5 33.5t-24.5 69.5q0 37 20 67t55.5 47.5t80.5 17.5q67 0 108.5 -34.5zM114 672
q-28 -23 -28 -59q0 -54 62 -69l62 -15q12 -3 29 10t29 34t12 43q0 36 -26 57.5t-70 21.5q-42 0 -70 -23zM264 339q30 22 30 58q0 28 -15.5 45.5t-49.5 25.5l-78 20q-12 3 -32 -8.5t-34.5 -33t-14.5 -47.5q0 -39 29.5 -60.5t84.5 -21.5q50 0 80 22z" />
    <glyph glyph-name="nine.numr" horiz-adv-x="396" 
d="M68 299q-37 25 -49 65l47 13q16 -28 36 -42.5t54 -14.5q64 0 98 55.5t30 166.5q-12 -37 -45.5 -59t-77.5 -22q-68 0 -107.5 39.5t-39.5 99.5q0 63 44 101.5t112 38.5q80 0 125.5 -59.5t45.5 -165.5q0 -116 -48 -178.5t-135 -62.5q-53 0 -90 25zM240.5 531.5
q31.5 23.5 31.5 57.5q-9 53 -35 80t-67 27q-42 0 -69.5 -26.5t-27.5 -66.5t26 -67.5t68 -27.5t73.5 23.5z" />
    <glyph glyph-name="comma.tf" horiz-adv-x="288" 
d="M146 -2l-43 2v107h112v-93l-83 -138h-42z" />
    <glyph glyph-name="period.tf" horiz-adv-x="288" 
d="M206 0h-105v113h105v-113z" />
    <glyph glyph-name="bullet.uc" horiz-adv-x="314" 
d="M87.5 301q-27.5 28 -27.5 67t27.5 66.5t66.5 27.5q40 0 67.5 -27.5t27.5 -66.5t-27.5 -67t-67.5 -28q-39 0 -66.5 28z" />
    <glyph glyph-name="caroncomb.alt" horiz-adv-x="0" 
d="M-103 535q-2 3 0 6l29 71q2 6 1.5 8.5t-5.5 3.5l-7 1q-6 1 -8.5 3t-2.5 7v79q0 9 8 9h58q8 0 8 -7v-91q0 -2 -1 -3t-1 -2l-33 -79q-2 -5 -6 -7t-13 -2h-21q-4 0 -6 3z" />
    </font>
</defs>
</svg>
