<?xml version="1.0" standalone="no"?>
<!DOCTYPE svg PUBLIC "-//W3C//DTD SVG 1.1//EN" "http://www.w3.org/Graphics/SVG/1.1/DTD/svg11.dtd" >
<svg xmlns="http://www.w3.org/2000/svg" xmlns:xlink="http://www.w3.org/1999/xlink" version="1.1">
<metadata>
Created by FontForge 20170731 at Thu Oct  4 21:14:14 2018
 By Aleksey,,,
</metadata>
<defs>
<font id="CheyenneSans-Bold" horiz-adv-x="610" >
  <font-face 
    font-family="Cheyenne Sans"
    font-weight="700"
    font-stretch="normal"
    units-per-em="1000"
    panose-1="0 0 8 0 0 0 0 0 0 0"
    ascent="800"
    descent="-200"
    x-height="517"
    cap-height="723"
    bbox="-430 -237 1340 989"
    underline-thickness="50"
    underline-position="-200"
    unicode-range="U+000D-FB02"
  />
<missing-glyph horiz-adv-x="650" 
d="M568 820.5q5 -5.5 5 -15.5v-938q0 -15 -8 -21.5t-25 -6.5h-436q-15 0 -21 5.5t-6 18.5v940q0 11 5 17t14 6h459q8 0 13 -5.5zM518 772.5q-4 4.5 -11 4.5h-343l358 -834v817q0 8 -4 12.5zM133 -107q5 -5 17 -5h336l-358 828v-808q0 -10 5 -15z" />
    <glyph glyph-name="fi" unicode="fi" horiz-adv-x="689" 
d="M374 413h-108v-413h-151v413h-94v104h94v74q0 62 37.5 97t105.5 35h120l1 -100h-67q-27 0 -37.5 -13t-10.5 -45v-48h110v-104zM623 598h-153v145h153v-145zM622 0h-151v517h151v-517z" />
    <glyph glyph-name="fl" unicode="fl" horiz-adv-x="728" 
d="M374 413h-108v-413h-151v413h-94v104h94v74q0 62 37.5 97t105.5 35h120l1 -100h-67q-27 0 -37.5 -13t-10.5 -45v-48h110v-104zM528 14q-37 22 -47.5 54.5t-10.5 79.5v595h148v-577q0 -30 13 -46.5t45 -20.5l24 -1v-93q-37 -13 -62 -13q-73 0 -110 22z" />
    <glyph glyph-name="f_f.liga" unicode="ff" horiz-adv-x="850" 
d="M795 413h-108v-413h-151v413h-95v104h95v74q0 62 37.5 97t104.5 35h121l1 -100h-67q-27 0 -38 -13.5t-11 -44.5v-48h111v-104zM380 413h-109v-413h-151v413h-95v104h95v59q0 62 37 97t104 35h122v-101h-67q-27 0 -38 -13t-11 -44v-33h113v-104z" />
    <glyph glyph-name="colon_one_eight_F_colon.liga" unicode="&#x3a;&#x31;&#x38;F&#x3a;" horiz-adv-x="774" 
d="M756 761q11 0 11 -12v-736q0 -6 -3 -9.5t-8 -3.5h-738q-11 0 -11 13v736q0 12 11 12h738zM434.5 259.5q25.5 25.5 25.5 60.5q0 21 -10 39.5t-27 30.5q26 25 26 58q0 31 -22 53t-53 22q-33 0 -54.5 -22t-21.5 -53t27 -58q-37 -25 -37 -70q0 -35 25 -60.5t61 -25.5
q35 0 60.5 25.5zM246 515q0 5 -4 5h-68q-3 0 -3 -5v-26q0 -4 3 -4h37v-242q0 -4 3 -4h28q4 0 4 4v272zM615 515q0 5 -4 5h-105q-4 0 -4 -5v-272q0 -4 4 -4h26q6 0 6 4v124h61q3 0 3 4v25q0 5 -3 5h-61v84h73q4 0 4 4v26zM344 419q-12 11 -12 29q0 17 12.5 29t29.5 12t29 -12
t12 -29q0 -18 -11.5 -29t-29.5 -11t-30 11zM410.5 356.5q14.5 -14.5 14.5 -36.5q0 -21 -14.5 -36t-36.5 -15q-21 0 -36 15t-15 36q0 22 15 36.5t36 14.5q22 0 36.5 -14.5z" />
    <glyph glyph-name="colon_f_l_a_g_two_colon.liga" unicode="&#x3a;flag&#x32;&#x3a;" horiz-adv-x="1159" 
d="M1112 761v-760h-1066v760h1066zM1050 698h-535v-53h535v53zM203 585v59h-63v-59h63zM437 585v59h-61v-59h61zM320 527v58h-61v-58h61zM1050 528v55h-535v-55h535zM203 468v59h-61v-59h61zM376 527v-59h61v59h-61zM259 468v-58h61v58h-61zM1050 411v55h-535v-55h535z
M142 410v-59h61v59h-61zM376 410v-59h61v59h-61zM1050 294v55h-535v-55h535zM107 232v-55h943v55h-943zM1050 63v52h-942v-52h942z" />
    <glyph glyph-name="colon_f_l_a_g_colon.liga" unicode="&#x3a;flag&#x3a;" horiz-adv-x="1159" 
d="M1112 761v-760h-1066v760h1066zM104 702v-409h950v58h-540v59h540v58h-540v59h540v58h-540v59h540v58h-950zM221 585h-58v59h58v-59zM455 585h-58v59h58v-59zM338 527h-58v58h58v-58zM221 468h-58v59h58v-59zM455 468h-58v59h58v-59zM338 410h-58v58h58v-58zM221 351h-58
v59h58v-59zM455 351h-58v59h58v-59zM104 234v-58h950v58h-950zM1054 59v58h-950v-58h950z" />
    <glyph glyph-name=".notdef" horiz-adv-x="650" 
d="M568 820.5q5 -5.5 5 -15.5v-938q0 -15 -8 -21.5t-25 -6.5h-436q-15 0 -21 5.5t-6 18.5v940q0 11 5 17t14 6h459q8 0 13 -5.5zM518 772.5q-4 4.5 -11 4.5h-343l358 -834v817q0 8 -4 12.5zM133 -107q5 -5 17 -5h336l-358 828v-808q0 -10 5 -15z" />
    <glyph glyph-name="uni0000" horiz-adv-x="21" 
 />
    <glyph glyph-name="uni0000" horiz-adv-x="21" 
 />
    <glyph glyph-name="nonmarkingreturn" unicode="&#xd;" horiz-adv-x="233" 
 />
    <glyph glyph-name="space" unicode=" " horiz-adv-x="257" 
 />
    <glyph glyph-name="exclam" unicode="!" horiz-adv-x="278" 
d="M183 227h-95l-42 496h176zM216 0h-164v160h164v-160z" />
    <glyph glyph-name="quotedbl" unicode="&#x22;" horiz-adv-x="480" 
d="M401 439h-75l-39 284h153zM179 439h-75l-39 284h153z" />
    <glyph glyph-name="numbersign" unicode="#" horiz-adv-x="609" 
d="M460 429l-19 -127h106v-78h-118l-33 -226l-79 10l32 216h-133l-33 -226l-78 10l32 216h-114v78h125l19 127h-112v78h124l32 218l78 -8l-31 -210h133l33 218l78 -8l-31 -210h108v-78h-119zM380 429h-133l-19 -127h133z" />
    <glyph glyph-name="dollar" unicode="$" horiz-adv-x="656" 
d="M551 64q-59 -58 -158 -68q-11 -1 -14 -4t-3 -12v-57h-98v72q-81 5 -142 31.5t-115 76.5l87 92q36 -38 77.5 -61.5t93.5 -30.5l1 194q-123 26 -176.5 81t-53.5 136q0 78 55.5 133t155.5 74q7 1 13 5t6 11v50h96v-62q118 -28 196 -87l-76 -95q-18 21 -47 38.5t-62 27.5
l-4 1q-4 0 -6 -2.5t-2 -5.5v-175l67 -17q77 -24 122.5 -76.5t45.5 -124.5q0 -87 -59 -145zM281 615q-21 0 -45.5 -10t-41.5 -29t-17 -45q0 -39 28.5 -59.5t74.5 -30.5zM453.5 131q28.5 23 28.5 56q0 34 -25.5 57t-81.5 37v-178q50 5 78.5 28z" />
    <glyph glyph-name="percent" unicode="%" horiz-adv-x="938" 
d="M320.5 706.5q41.5 -27.5 65.5 -75t24 -104.5q0 -56 -23.5 -102.5t-65 -73.5t-93.5 -27t-94 27t-66 73.5t-24 102.5q0 57 24.5 104.5t66.5 75t93 27.5t92.5 -27.5zM281 -4l-87 1l487 734h86zM300 527q0 63 -18.5 97t-54.5 34t-54 -34.5t-18 -96.5q0 -61 17.5 -94t54.5 -33
q73 0 73 127zM797 373q42 -28 66 -75.5t24 -103.5t-23.5 -103t-65.5 -74t-94 -27t-94 27t-66 74t-24 103t24.5 103.5t66.5 75.5t93 28t93 -28zM758 100q18 33 18 93q0 62 -18.5 96.5t-54.5 34.5q-35 0 -53 -34.5t-18 -96.5q0 -60 17.5 -93t53.5 -33q37 0 55 33z" />
    <glyph glyph-name="ampersand" unicode="&#x26;" horiz-adv-x="786" 
d="M470 714q51 -20 80.5 -55.5t29.5 -81.5q0 -49 -40 -98t-119 -95l109 -128q40 92 48 157h154q-13 -44 -36 -86.5t-61 -102.5l-34 -55l145 -169h-173l-61 70q-55 -39 -115 -57t-118 -18q-117 0 -176 50.5t-59 135.5q0 72 43.5 122.5t139.5 100.5q-47 53 -66.5 85t-19.5 75
q0 48 27.5 87t76.5 61t112 22q62 0 113 -20zM310.5 623.5q-20.5 -19.5 -20.5 -48.5q0 -42 48 -94l20 -22q50 32 70 57.5t20 53.5q0 36 -23 54.5t-58 18.5q-36 0 -56.5 -19.5zM236.5 267.5q-24.5 -29.5 -24.5 -64.5q0 -42 31.5 -67.5t72.5 -25.5q30 0 64.5 12.5t58.5 35.5
l-138 161q-40 -22 -64.5 -51.5z" />
    <glyph glyph-name="quotesingle" unicode="'" horiz-adv-x="255" 
d="M165 439h-75l-39 284h153z" />
    <glyph glyph-name="parenleft" unicode="(" horiz-adv-x="331" 
d="M219.5 507q-30.5 -115 -30.5 -230q0 -111 27.5 -216t84.5 -222h-106q-70 118 -105 218.5t-35 220.5t38 234t104 211h107q-54 -101 -84.5 -216z" />
    <glyph glyph-name="parenright" unicode=")" horiz-adv-x="334" 
d="M96.5 507q30.5 -115 30.5 -230q0 -111 -27.5 -216t-84.5 -222h106q70 118 105 218.5t35 220.5t-38 234t-104 211h-107q54 -101 84.5 -216z" />
    <glyph glyph-name="asterisk" unicode="*" horiz-adv-x="476" 
d="M236 459l-84 -140l-80 56l104 124l-148 42l32 87l140 -61l-12 156h98l-14 -157l143 63l28 -88l-144 -41l101 -122l-80 -56z" />
    <glyph glyph-name="plus" unicode="+" horiz-adv-x="585" 
d="M528 309h-182v-183h-110v183h-184v109h184v184h109v-183h183v-110z" />
    <glyph glyph-name="comma" unicode="," horiz-adv-x="274" 
d="M102 -4l-51 5v144h150v-127l-102 -159h-55z" />
    <glyph glyph-name="hyphen" unicode="-" horiz-adv-x="392" 
d="M330 203l-275 -1v110h275v-109z" />
    <glyph glyph-name="period" unicode="." horiz-adv-x="269" 
d="M212 0h-165v163h165v-163z" />
    <glyph glyph-name="slash" unicode="/" horiz-adv-x="378" 
d="M260 723h105l-253 -740h-105z" />
    <glyph glyph-name="zero" unicode="0" horiz-adv-x="663" 
d="M485.5 690q66.5 -44 103.5 -128t37 -202q0 -117 -36.5 -200t-102.5 -126t-155 -43t-156 42.5t-103.5 125.5t-36.5 200q0 118 37.5 202.5t104 128.5t154.5 44q87 0 153.5 -44zM428.5 170q31.5 58 31.5 189q0 134 -32 194.5t-97 60.5q-64 0 -96 -61t-32 -194
q0 -130 32 -188.5t97 -58.5t96.5 58z" />
    <glyph glyph-name="one" unicode="1" horiz-adv-x="405" 
d="M154 555l-129 -36v104l201 100h80v-723h-152v555z" />
    <glyph glyph-name="two" unicode="2" horiz-adv-x="617" 
d="M36 112l227 201q64 56 95.5 88.5t43.5 57t12 53.5q0 45 -31 70.5t-77 25.5q-47 0 -84 -25.5t-54 -79.5l-140 7q12 102 84 162.5t198 60.5q79 0 138.5 -27t92 -76.5t32.5 -116.5q-1 -57 -29 -102t-104 -117l-176 -167h316v-127h-544v112z" />
    <glyph glyph-name="three" unicode="3" horiz-adv-x="669" 
d="M130 685q84 48 206 48q77 0 140.5 -24t100 -67.5t36.5 -97.5q0 -110 -134 -157q66 -17 111 -63t45 -115q0 -67 -43 -116.5t-112.5 -76t-146.5 -26.5q-136 0 -213.5 45.5t-91.5 160.5l142 8q18 -50 60 -71.5t93 -21.5q65 0 104.5 28t39.5 69q0 45 -38 74t-94 29l-98 2v119
l84 3q57 1 93.5 29t36.5 68q0 36 -36 60.5t-83 24.5q-60 0 -100.5 -20t-54.5 -74l-140 8q9 106 93 154z" />
    <glyph glyph-name="four" unicode="4" horiz-adv-x="630" 
d="M502 723v-436h108v-129h-108v-158h-152l1 158h-325v127l325 438h151zM351 287v227l-168 -227h168z" />
    <glyph glyph-name="five" unicode="5" horiz-adv-x="665" 
d="M580 723l-7 -123h-344l-14 -169q54 19 84.5 27t70.5 8q74 0 131.5 -26.5t90.5 -78.5t33 -125q0 -76 -36 -131.5t-101.5 -85t-152.5 -29.5q-98 0 -178 38t-124 101l113 79q43 -50 78.5 -74t91.5 -24q68 0 106.5 34t38.5 87q0 51 -35.5 82.5t-95.5 31.5q-31 0 -57.5 -9
t-67.5 -29q-8 -4 -12 -4q-5 0 -12 5l-103 56l32 359h470z" />
    <glyph glyph-name="six" unicode="6" horiz-adv-x="647" 
d="M468.5 711.5q56.5 -23.5 91.5 -67t40 -101.5l-135 -9q-17 41 -44.5 61.5t-73.5 20.5q-68 0 -106.5 -53.5t-38.5 -143.5q0 -14 2 -42q25 33 68.5 51t94.5 18q74 0 129 -27.5t85 -77t30 -111.5q0 -68 -36 -121.5t-99 -83.5t-142 -30q-93 0 -160.5 43.5t-103 123.5
t-35.5 188q0 119 37.5 206t107 133t164.5 46q68 0 124.5 -23.5zM273 322q-29 -12 -47 -31.5t-18 -40.5q5 -70 37 -106t84 -36q50 0 86.5 33t36.5 82q0 51 -35 81t-85 30q-30 0 -59 -12z" />
    <glyph glyph-name="seven" unicode="7" horiz-adv-x="587" 
d="M569 723v-154q-58 -72 -115 -175t-94.5 -209t-39.5 -185h-163q5 67 34.5 166t88 214t146.5 220h-401v123h544z" />
    <glyph glyph-name="eight" unicode="8" horiz-adv-x="639" 
d="M453 707q60 -26 93.5 -72.5t33.5 -103.5q0 -59 -37 -94t-74 -50q5 -3 46.5 -22.5t69 -61.5t27.5 -98q0 -67 -37 -115.5t-105 -74t-158 -25.5q-129 0 -206.5 49.5t-77.5 138.5q0 60 36 101t97 66q-2 1 -31 16.5t-56 56.5t-27 92q0 61 33 112t94 81t143 30q76 0 136 -26z
M240 595q-32 -25 -32 -64q0 -58 68 -78l76 -23q3 -1 9 -1q18 0 36.5 15t30.5 38.5t12 45.5q0 40 -32.5 66t-87.5 26q-48 0 -80 -25zM413.5 127.5q33.5 23.5 33.5 64.5q0 30 -18 51t-61 34l-91 27q-8 2 -13 2q-19 0 -40.5 -14t-35.5 -37t-14 -51q0 -48 36.5 -74t111.5 -26
q58 0 91.5 23.5z" />
    <glyph glyph-name="nine" unicode="9" horiz-adv-x="647" 
d="M176 15.5q-57 24.5 -92.5 68.5t-40.5 100l139 9q28 -83 112 -83q76 0 120 51t44 158q0 24 -1 37q-22 -39 -66 -60.5t-104 -21.5q-74 0 -131 28.5t-89 79t-32 115.5q0 68 35.5 121.5t98.5 83.5t142 30q93 0 160.5 -43t103.5 -123t36 -189q0 -192 -82 -289t-228 -97
q-68 0 -125 24.5zM373 405.5q29 12.5 47 32t18 39.5q-6 70 -38 106t-84 36q-50 0 -83 -32t-33 -83q0 -49 32 -80t81 -31q31 0 60 12.5z" />
    <glyph glyph-name="colon" unicode=":" horiz-adv-x="269" 
d="M212 345h-165v160h165v-160zM212 3h-165v160h165v-160z" />
    <glyph glyph-name="semicolon" unicode=";" horiz-adv-x="278" 
d="M48 503h164v-163h-164v163zM107 0h-58v160h165v-142l-112 -173h-61z" />
    <glyph glyph-name="less" unicode="&#x3c;" horiz-adv-x="583" 
d="M511 101l-464 179v125l465 181v-129l-300 -115l299 -112v-129z" />
    <glyph glyph-name="equal" unicode="=" horiz-adv-x="585" 
d="M528 404h-476v110h476v-110zM528 175h-476v109h476v-109z" />
    <glyph glyph-name="greater" unicode="&#x3e;" horiz-adv-x="583" 
d="M364 342l-300 115v129l465 -181v-125l-465 -179v129z" />
    <glyph glyph-name="question" unicode="?" horiz-adv-x="531" 
d="M106 690q66 43 158 43q70 0 125 -22.5t85 -61.5t30 -86q0 -38 -13.5 -68.5t-33 -52.5t-52.5 -52q-47 -43 -70.5 -77t-23.5 -84h-121q0 49 14.5 88t34.5 66t51 60q33 36 48.5 59.5t15.5 52.5q0 34 -25.5 54.5t-65.5 20.5t-75.5 -25.5t-51.5 -67.5l-128 30q32 80 98 123z
M333 0h-165v160h165v-160z" />
    <glyph glyph-name="at" unicode="@" horiz-adv-x="830" 
d="M563.5 -88.5q-63.5 -21.5 -138.5 -21.5q-117 0 -203.5 48.5t-132.5 132t-46 184.5q0 106 49.5 195t141 141.5t210.5 52.5q93 0 173 -33.5t129.5 -104t49.5 -175.5q0 -74 -24.5 -131t-68.5 -89t-100 -32q-39 0 -61.5 13t-32.5 33q-3 6 -6 6t-7 -6q-23 -28 -56 -44t-73 -16
q-42 0 -76 21.5t-53.5 61t-19.5 90.5q0 60 25 111.5t70 82.5t103 31q37 0 61.5 -13t43.5 -36q2 -3 4.5 -2t3.5 6l5 20h86l-36 -215q-2 -9 -2 -23q0 -37 32 -37q23 0 44.5 18.5t34.5 55.5t13 88q0 124 -75 180.5t-188 56.5q-102 0 -171.5 -41t-103 -110t-33.5 -155
q0 -90 37 -155t105.5 -99.5t162.5 -34.5q62 0 98.5 14t82.5 45l46 -60q-40 -33 -103.5 -54.5zM342 181.5q18 -26.5 51 -26.5q29 0 53 18.5t37.5 48t13.5 61.5q0 40 -20.5 65t-52.5 25q-41 0 -70.5 -36.5t-29.5 -88.5q0 -40 18 -66.5z" />
    <glyph glyph-name="A" unicode="A" horiz-adv-x="713" 
d="M278 723h158l258 -723h-150l-58 165h-257l-59 -165h-151zM451 296l-94 282l-94 -282h188z" />
    <glyph glyph-name="B" unicode="B" horiz-adv-x="685" 
d="M77 723h265q280 0 280 -190q0 -55 -28 -94t-96 -68q82 -22 112 -68.5t30 -106.5q0 -100 -69 -148t-217 -48h-277v723zM365 426q48 0 80 22.5t32 65.5q0 44 -33.5 68.5t-87.5 24.5h-128v-181h137zM358 116q62 0 95 25.5t33 69.5q0 45 -33.5 70t-87.5 25h-137v-190h130z
" />
    <glyph glyph-name="C" unicode="C" horiz-adv-x="711" 
d="M517 701.5q65 -31.5 105 -87.5t47 -127l-158 -2q-11 58 -47.5 91t-97.5 33q-158 0 -158 -244q0 -127 42 -189t119 -62q55 0 92.5 36.5t48.5 95.5l158 -3q-15 -114 -85 -183.5t-210 -69.5q-100 0 -174.5 47.5t-115 133t-40.5 197.5q0 111 39.5 193.5t113.5 127t175 44.5
q81 0 146 -31.5z" />
    <glyph glyph-name="D" unicode="D" horiz-adv-x="715" 
d="M298 722q192 -5 283.5 -97.5t91.5 -259.5q0 -173 -95 -269t-285 -96h-216v723q159 0 221 -1zM229 122h68q97 0 157.5 59t60.5 185q0 121 -56.5 178.5t-160.5 57.5h-69v-480z" />
    <glyph glyph-name="E" unicode="E" horiz-adv-x="638" 
d="M77 723h501l-1 -127h-348v-170h301v-124h-302v-174h354v-128h-505v723z" />
    <glyph glyph-name="F" unicode="F" horiz-adv-x="605" 
d="M573 723l-1 -126h-343v-176h297v-123h-297v-298h-152v723h496z" />
    <glyph glyph-name="G" unicode="G" horiz-adv-x="753" 
d="M198 36q-74 46 -114.5 129.5t-40.5 193.5q0 113 42 197.5t118 130.5t175 46q84 0 151 -34t105.5 -90.5t40.5 -120.5l-158 -3q-11 53 -48.5 87t-93.5 34q-76 0 -122 -59.5t-46 -181.5q0 -130 48.5 -186.5t125.5 -56.5q39 0 69 17t47.5 42.5t21.5 51.5l7 43h-148v104
l306 -2v-378h-103v93q-35 -46 -83.5 -74.5t-127.5 -28.5q-98 0 -172 46z" />
    <glyph glyph-name="H" unicode="H" horiz-adv-x="726" 
d="M228 309v-309h-151v723h151v-289h270v289h151v-723h-151v309h-270z" />
    <glyph glyph-name="I" unicode="I" horiz-adv-x="305" 
d="M228 723v-723h-151v723h151z" />
    <glyph glyph-name="J" unicode="J" horiz-adv-x="412" 
d="M319 83q-16 -46 -57 -69.5t-115 -23.5q-32 0 -68.5 5t-56.5 10l3 138q7 -1 28.5 -6.5t44.5 -5.5q50 0 68 25.5t18 87.5v479h151v-519q0 -75 -16 -121z" />
    <glyph glyph-name="K" unicode="K" horiz-adv-x="716" 
d="M528 0l-189 334l-105 -128v-206h-157v723h157v-327l258 327h173l-217 -279l244 -444h-164z" />
    <glyph glyph-name="L" unicode="L" horiz-adv-x="566" 
d="M229 723v-596h312v-127h-464v723h152z" />
    <glyph glyph-name="M" unicode="M" horiz-adv-x="916" 
d="M77 723h220l161 -508l162 508h219v-723h-152v550l-171 -550h-117l-170 548v-548h-152v723z" />
    <glyph glyph-name="N" unicode="N" horiz-adv-x="780" 
d="M703 723v-723h-136l-339 491v-491h-151v723h150l325 -471v471h151z" />
    <glyph glyph-name="O" unicode="O" horiz-adv-x="754" 
d="M199.5 34.5q-75.5 44.5 -116 127.5t-40.5 197q0 115 41.5 199.5t117 129.5t176.5 45q100 0 175.5 -45t116.5 -129.5t41 -198.5q0 -113 -40.5 -196.5t-116 -128.5t-176.5 -45q-103 0 -178.5 44.5zM547 358q0 129 -44 190t-125 61t-125.5 -61t-44.5 -190q0 -126 44.5 -185
t125.5 -59q169 0 169 244z" />
    <glyph glyph-name="P" unicode="P" horiz-adv-x="651" 
d="M77 723h268q80 0 143 -26.5t99 -79t36 -126.5q0 -106 -69.5 -164.5t-188.5 -58.5h-136v-268h-152v723zM361 384q53 0 87 32t34 83q0 50 -35 79.5t-88 29.5h-131v-224h133z" />
    <glyph glyph-name="Q" unicode="Q" horiz-adv-x="759" 
d="M76.5 558.5q41.5 84.5 117 129.5t176.5 45t176.5 -45t116.5 -129.5t41 -198.5q0 -197 -119 -297q11 -29 43 -47t73 -19v-120q-55 0 -95.5 8.5t-79 34.5t-74.5 77q-48 -7 -82 -7q-102 0 -177.5 44.5t-116.5 128t-41 197.5t41.5 198.5zM243.5 172.5q43.5 -58.5 126.5 -58.5
t126 58.5t43 186.5q0 250 -169 250q-170 0 -170 -251q0 -127 43.5 -185.5z" />
    <glyph glyph-name="R" unicode="R" horiz-adv-x="695" 
d="M486 0l-116 276h-142v-276h-151v723h308q126 0 188 -58.5t62 -159.5q0 -79 -34 -127t-92 -77l133 -301h-156zM448.5 422q33.5 31 33.5 80q0 48 -32 77t-82 29h-140v-217h131q56 0 89.5 31z" />
    <glyph glyph-name="S" unicode="S" horiz-adv-x="696" 
d="M209 14q-68 24 -113.5 72.5t-52.5 118.5l157 3q10 -48 51.5 -74t101.5 -26q63 0 104 22.5t41 66.5q0 37 -32 56.5t-92 31.5l-126 25q-86 15 -135 66.5t-49 135.5q0 66 37.5 116t103 77t145.5 27q84 0 149 -30t103 -80t44 -108l-153 -2q-14 101 -141 101q-58 0 -92 -24
t-34 -62q0 -32 21.5 -51.5t77.5 -31.5l125 -25q122 -23 163 -84t41 -138q0 -58 -38 -105.5t-106.5 -74.5t-156.5 -27q-76 0 -144 24z" />
    <glyph glyph-name="T" unicode="T" horiz-adv-x="607" 
d="M13 723h581v-134h-213v-589h-151v589h-217v134z" />
    <glyph glyph-name="U" unicode="U" horiz-adv-x="737" 
d="M591 64.5q-69 -74.5 -222 -74.5q-154 0 -223 75t-69 217v441h154v-451q0 -78 37 -116t101 -38q63 0 101 38t38 116v451h152v-445q0 -139 -69 -213.5z" />
    <glyph glyph-name="V" unicode="V" horiz-adv-x="685" 
d="M427 0h-170l-248 723h144l189 -548l190 548h144z" />
    <glyph glyph-name="W" unicode="W" horiz-adv-x="966" 
d="M736 0h-120l-133 465l-135 -465h-117l-214 723h147l133 -468l131 468h109l134 -468l131 468h148z" />
    <glyph glyph-name="X" unicode="X" horiz-adv-x="701" 
d="M496 0l-159 257l-157 -257h-163l240 367l-233 356h188l140 -229l140 229h161l-222 -336l254 -387h-189z" />
    <glyph glyph-name="Y" unicode="Y" horiz-adv-x="662" 
d="M406 304v-304h-151v304l-251 419h163l164 -289l162 289h165z" />
    <glyph glyph-name="Z" unicode="Z" horiz-adv-x="667" 
d="M45 73l365 524h-339v126h554v-70l-370 -526h366v-127h-576v73z" />
    <glyph glyph-name="bracketleft" unicode="[" horiz-adv-x="333" 
d="M303 723v-85h-110v-714h109v-85h-232v884h233z" />
    <glyph glyph-name="backslash" unicode="\" horiz-adv-x="378" 
d="M5 723h104l253 -740h-105z" />
    <glyph glyph-name="bracketright" unicode="]" horiz-adv-x="338" 
d="M16 723v-85h110v-714h-109v-85h232v884h-233z" />
    <glyph glyph-name="asciicircum" unicode="^" horiz-adv-x="481" 
d="M235 374l-102 -252h-101l156 369q7 17 20 26t28 9t27.5 -8.5t19.5 -25.5l156 -370h-101z" />
    <glyph glyph-name="underscore" unicode="_" horiz-adv-x="552" 
d="M491 -140h-437v109h437v-109z" />
    <glyph glyph-name="grave" unicode="`" horiz-adv-x="315" 
d="M297 631l-21 -64l-267 69l35 98z" />
    <glyph glyph-name="a" unicode="a" horiz-adv-x="573" 
d="M84 32.5q-49 42.5 -49 116.5q0 85 64.5 128t200.5 46l63 3v28q0 35 -21 53.5t-61 18.5q-32 -1 -60 -15.5t-45 -44.5l-123 6q12 77 75.5 116t159.5 39q219 0 219 -163v-364h-126l-11 66q-24 -35 -65.5 -55.5t-94.5 -20.5q-77 0 -126 42.5zM330.5 114.5
q31.5 25.5 32.5 58.5v74l-51 -3q-61 -3 -97.5 -20.5t-36.5 -59.5q0 -34 23.5 -54.5t59.5 -20.5q38 0 69.5 25.5z" />
    <glyph glyph-name="b" unicode="b" horiz-adv-x="608" 
d="M252 14q-44 24 -63 60l-15 -74h-108v743h151v-301q22 37 62.5 61t89.5 24q98 0 151 -72t53 -194q0 -126 -58 -198.5t-164 -72.5q-55 0 -99 24zM391 138q29 40 29 125q0 155 -103 155q-40 0 -66 -28.5t-34 -85.5v-66q0 -66 27 -103t69 -37q49 0 78 40z" />
    <glyph glyph-name="c" unicode="c" horiz-adv-x="536" 
d="M432.5 473q55.5 -54 67.5 -136l-123 -6q-18 40 -36.5 61t-53.5 21q-52 0 -82.5 -41t-30.5 -114q0 -74 31.5 -117.5t83.5 -43.5q36 0 56.5 23.5t35.5 60.5l119 -6q-10 -80 -67.5 -132.5t-147.5 -52.5q-72 0 -129.5 33.5t-89.5 94t-32 138.5q0 79 32 140.5t89 96t130 34.5
q92 0 147.5 -54z" />
    <glyph glyph-name="d" unicode="d" horiz-adv-x="605" 
d="M92 61q-58 71 -58 197q0 124 55 196.5t152 72.5q44 0 82.5 -16.5t64.5 -51.5v284h151v-743h-109l-11 71q-21 -32 -63.5 -56.5t-102.5 -24.5q-103 0 -161 71zM359.5 131.5q28.5 33.5 28.5 86.5v103q-19 97 -99 97q-49 0 -78.5 -37.5t-29.5 -119.5q0 -84 29.5 -123.5
t77.5 -39.5q43 0 71.5 33.5z" />
    <glyph glyph-name="e" unicode="e" horiz-adv-x="562" 
d="M212 132.5q29 -33.5 79 -33.5q76 0 101 62l134 -5q-10 -50 -44 -87.5t-83.5 -58t-104.5 -20.5q-77 0 -136 32.5t-91.5 92t-32.5 138.5q0 78 30 140t87.5 98t134.5 36q116 0 178.5 -72t62.5 -191v-40h-344q0 -58 29 -91.5zM387 313q0 47 -26.5 78t-75.5 31
q-46 0 -74 -32.5t-28 -76.5h204z" />
    <glyph glyph-name="f" unicode="f" horiz-adv-x="404" 
d="M374 413h-108v-413h-151v413h-94v104h94v74q0 62 37.5 97t105.5 35h120l1 -100h-67q-27 0 -37.5 -13t-10.5 -45v-48h110v-104z" />
    <glyph glyph-name="g" unicode="g" horiz-adv-x="632" 
d="M98 -136.5q-73 34.5 -73 91.5q0 39 28.5 60t48.5 28t23 8q-4 2 -21.5 11.5t-30 26.5t-12.5 40q0 29 27.5 52t79.5 32q-52 25 -78.5 64.5t-26.5 85.5q0 76 70 119t177 43q49 0 83.5 -10t66.5 -30q59 22 154 61l-1 -115l-89 -14q4 -13 7.5 -29t3.5 -24q0 -45 -27 -84.5
t-80.5 -63.5t-128.5 -24l-52 2q-48 -3 -48 -20q0 -11 20 -15t70 -7q43 -3 60 -4l47 -3q95 -6 142.5 -46t47.5 -102q0 -76 -72.5 -122t-205.5 -46q-137 0 -210 34.5zM369.5 298q23.5 22 23.5 60q0 39 -24 63.5t-65 24.5t-65.5 -24.5t-24.5 -63.5q0 -38 24 -60t66 -22t65.5 22
zM417 -73.5q25 13.5 25 41.5q0 48 -77 54l-116 7q-34 2 -55.5 -15t-21.5 -41q0 -32 39 -46t121 -14q60 0 85 13.5z" />
    <glyph glyph-name="h" unicode="h" horiz-adv-x="609" 
d="M66 743h148v-294q28 26 46.5 40t45 22.5t63.5 8.5q49 0 89 -20.5t63 -58t23 -85.5v-356h-152v336q0 31 -21.5 49t-55.5 18q-31 0 -56 -15.5t-42 -44.5v-343h-151v743z" />
    <glyph glyph-name="i" unicode="i" horiz-adv-x="285" 
d="M219 598h-153v145h153v-145zM218 0h-151v517h151v-517z" />
    <glyph glyph-name="j" unicode="j" horiz-adv-x="295" 
d="M226 598h-154v145h154v-145zM181.5 -123.5q-42.5 -42.5 -134.5 -42.5q-24 0 -38.5 3.5t-20.5 7t-7 4.5l-1 100l39 4q31 4 42.5 16.5t11.5 37.5v510h151v-511q0 -87 -42.5 -129.5z" />
    <glyph glyph-name="k" unicode="k" horiz-adv-x="592" 
d="M420 0l-138 220l-65 -71v-149h-151v743h151v-444l193 218h153l-187 -207l193 -310h-149z" />
    <glyph glyph-name="l" unicode="l" horiz-adv-x="324" 
d="M124 14q-37 22 -47.5 54.5t-10.5 79.5v595h148v-577q0 -30 13 -46.5t45 -20.5l24 -1v-93q-37 -13 -62 -13q-73 0 -110 22z" />
    <glyph glyph-name="m" unicode="m" horiz-adv-x="925" 
d="M66 517h148v-66q76 76 165 76q47 0 87.5 -18.5t62.5 -57.5q26 35 69 55.5t90 20.5q43 0 82 -18.5t64 -57t25 -95.5v-356h-151v339q0 40 -23 59t-59 19q-45 0 -67 -23t-22 -70v-324h-150v351q0 31 -24.5 48.5t-58.5 17.5t-60.5 -18.5t-26.5 -52.5v-346h-151v517z" />
    <glyph glyph-name="n" unicode="n" 
d="M66 517h148v-66q28 34 60.5 52t88.5 18q48 0 89.5 -22t66.5 -62t25 -92v-345h-151v326q0 36 -23.5 56.5t-59.5 20.5q-38 0 -65.5 -18.5t-27.5 -51.5v-333h-151v517z" />
    <glyph glyph-name="o" unicode="o" horiz-adv-x="571" 
d="M152 23.5q-57 33.5 -87.5 93.5t-30.5 138q0 80 31.5 142t88.5 96t132 34q76 0 133 -34.5t87.5 -96t30.5 -140.5q0 -78 -30.5 -138.5t-87.5 -94t-134 -33.5q-76 0 -133 33.5zM365 147.5q24 45.5 24 113.5q0 67 -24.5 111t-78.5 44q-55 0 -79.5 -44t-24.5 -111t24.5 -113
t79.5 -46t79 45.5z" />
    <glyph glyph-name="p" unicode="p" horiz-adv-x="607" 
d="M66 517h151v-65q25 35 63.5 55t86.5 20q58 0 104.5 -29.5t74 -89t27.5 -146.5q0 -90 -30.5 -151.5t-81 -91t-112.5 -29.5q-89 0 -132 66v-217h-151v678zM400 140.5q32 42.5 32 120.5q0 74 -32.5 115.5t-78.5 41.5q-28 0 -52 -15.5t-38 -39.5t-14 -48v-128
q10 -39 38.5 -64t63.5 -25q49 0 81 42.5z" />
    <glyph glyph-name="q" unicode="q" horiz-adv-x="608" 
d="M391 -161v210q-35 -32 -70 -45.5t-73 -13.5q-95 0 -154.5 68.5t-59.5 203.5q0 87 27.5 146.5t74.5 89t105 29.5q82 0 150 -60v50h151v-678h-151zM357 124.5q24 33.5 34 93.5v72q0 62 -26 98.5t-70 36.5q-47 0 -77.5 -41t-30.5 -120t31 -126t79 -47q36 0 60 33.5z" />
    <glyph glyph-name="r" unicode="r" horiz-adv-x="423" 
d="M66 517h145v-129q22 61 69.5 100t110.5 39l1 -143q-10 1 -29 1q-74 0 -110 -32.5t-36 -78.5v-274h-151v517z" />
    <glyph glyph-name="s" unicode="s" horiz-adv-x="519" 
d="M110 30.5q-65 40.5 -79 121.5l125 5q12 -36 40 -50t69 -14q43 0 68.5 14t25.5 38q0 20 -17 32.5t-52 20.5l-89 17q-153 30 -154 148q0 48 26 85t75.5 58t117.5 21q100 0 159 -44.5t58 -117.5l-125 -3q-13 66 -96 66q-82 0 -82 -54q0 -17 18.5 -29t63.5 -21l82 -18
q80 -19 112 -63t32 -90q0 -76 -63 -119.5t-162 -43.5q-88 0 -153 40.5z" />
    <glyph glyph-name="t" unicode="t" horiz-adv-x="426" 
d="M265 413v-270q0 -26 10 -35.5t29 -9.5h77v-91q-30 -13 -92 -13q-98 0 -136.5 36.5t-38.5 104.5v278h-84v104h89l21 165h125v-164h114v-105h-114z" />
    <glyph glyph-name="u" unicode="u" 
d="M168.5 10q-44.5 19 -73.5 57t-29 92v359h151v-340q0 -38 24.5 -58.5t61.5 -20.5q38 0 63 22t26 60v337h152l-3 -518h-113l-10 73q-21 -38 -67.5 -60.5t-92.5 -22.5q-45 1 -89.5 20z" />
    <glyph glyph-name="v" unicode="v" horiz-adv-x="554" 
d="M328 0h-102l-210 517h136l126 -322l123 322h137z" />
    <glyph glyph-name="w" unicode="w" horiz-adv-x="796" 
d="M607 0h-115l-96 307l-97 -307h-111l-171 517h134l98 -314l95 314h108l96 -314l96 314h135z" />
    <glyph glyph-name="x" unicode="x" horiz-adv-x="589" 
d="M416 0l-121 165l-122 -165h-157l198 269l-181 248h157l105 -142l105 142h157l-183 -248l199 -269h-157z" />
    <glyph glyph-name="y" unicode="y" horiz-adv-x="572" 
d="M95 -161q-22 4 -32.5 8t-12.5 6v96l51 -2q59 -4 79.5 11.5t27.5 37.5l9 26l-201 495h149l121 -332l124 332h147l-209 -517q-39 -95 -86 -130t-113 -35q-32 0 -54 4z" />
    <glyph glyph-name="z" unicode="z" horiz-adv-x="513" 
d="M29 77l265 345h-243v95h432v-75l-267 -345h270v-97h-457v77z" />
    <glyph glyph-name="braceleft" unicode="{" horiz-adv-x="381" 
d="M168.5 691.5q46.5 31.5 108.5 31.5h75v-85h-45q-39 0 -50.5 -13t-11.5 -39v-196q-1 -48 -32 -72.5t-74 -28.5q-6 -1 -6.5 -3.5t6.5 -3.5q44 -4 74.5 -28t31.5 -79v-199q0 -28 13.5 -40t48.5 -12h45v-85h-73q-64 0 -110.5 32t-46.5 89v202q0 38 -28.5 62t-84.5 24v75
q59 0 86 22.5t27 67.5v191q0 56 46.5 87.5z" />
    <glyph glyph-name="bar" unicode="|" horiz-adv-x="264" 
d="M77 -161v987h110v-987h-110z" />
    <glyph glyph-name="braceright" unicode="}" horiz-adv-x="386" 
d="M200.5 691.5q-46.5 31.5 -108.5 31.5h-75v-85h45q39 0 50.5 -13t11.5 -39v-196q1 -48 32 -72.5t74 -28.5q6 -1 6.5 -3.5t-6.5 -3.5q-44 -4 -74.5 -28t-31.5 -79v-199q0 -28 -13.5 -40t-48.5 -12h-45v-85h73q64 0 110.5 32t46.5 89v202q0 38 28.5 62t84.5 24v75
q-59 0 -86 22.5t-27 67.5v191q0 56 -46.5 87.5z" />
    <glyph glyph-name="asciitilde" unicode="~" horiz-adv-x="611" 
d="M485.5 309q-39.5 -24 -83.5 -24q-28 0 -51.5 9t-52.5 25q-26 14 -45 21.5t-40 7.5q-34 0 -59 -18.5t-57 -54.5l-43 75q45 47 80 69.5t80 22.5q29 0 50.5 -8.5t54.5 -25.5q27 -14 44 -21t36 -7q63 0 107 72l44 -74q-25 -45 -64.5 -69z" />
    <glyph glyph-name="uni00A0" unicode="&#xa0;" horiz-adv-x="231" 
 />
    <glyph glyph-name="exclamdown" unicode="&#xa1;" horiz-adv-x="278" 
d="M54 357v160h164v-160h-164zM48 -161l43 450h93l41 -450h-177z" />
    <glyph glyph-name="cent" unicode="&#xa2;" horiz-adv-x="556" 
d="M353.5 231.5q20.5 23.5 35.5 60.5l119 -6q-9 -67 -51 -115.5t-110 -63.5v-107h-99v105q-61 9 -107.5 44.5t-72.5 92t-26 125.5q0 71 26 128t72.5 93t107.5 46v89h99v-91q68 -15 109.5 -65t51.5 -119l-123 -6q-18 40 -36.5 61t-53.5 21q-52 0 -82.5 -41t-30.5 -114
q0 -74 31.5 -117.5t83.5 -43.5q36 0 56.5 23.5z" />
    <glyph glyph-name="sterling" unicode="&#xa3;" horiz-adv-x="646" 
d="M17 125h34q39 0 62 24.5t23 75.5q0 36 -10 113h-102v83h84l-9 91q-2 20 -2 30q0 60 31.5 103t84 65.5t113.5 22.5q82 0 144.5 -38.5t91.5 -107.5l-131 -40q-16 36 -34 51t-48 15q-35 0 -56.5 -21.5t-21.5 -60.5q0 -34 16 -109h145v-83h-134q3 -30 3 -51q0 -27 -6 -54
q-5 -38 -18.5 -61.5t-39.5 -46.5h131q47 0 71.5 17.5t40.5 61.5l127 -27q-48 -178 -227 -178h-363v125z" />
    <glyph glyph-name="currency" unicode="&#xa4;" horiz-adv-x="578" 
d="M173 176q-2 2 -6 2q-5 0 -9 -4l-61 -60l-62 65l66 65q-18 30 -26.5 58t-8.5 61q0 62 30 111q3 5 3 8q0 4 -4 8l-60 59l63 65l67 -68q56 37 119 37q64 0 116 -33q7 -3 11 1l56 57l62 -65l-61 -60q36 -56 36 -119q0 -65 -33 -115q-3 -3 0 -7l58 -57l-62 -64l-61 61
q-57 -38 -119 -38t-114 32zM347.5 259.5q27.5 16.5 43 44.5t15.5 60q0 31 -15.5 59t-43 45t-61.5 17t-61.5 -17t-43.5 -45t-16 -59q0 -32 16 -60t43.5 -44.5t61.5 -16.5t61.5 16.5z" />
    <glyph glyph-name="yen" unicode="&#xa5;" horiz-adv-x="659" 
d="M436 349h131v-81h-149v-77h149v-81h-149v-110h-172v110h-149v81h149v76h-149v82h121l-227 374h195l162 -286l160 286h159z" />
    <glyph glyph-name="brokenbar" unicode="&#xa6;" horiz-adv-x="264" 
d="M77 418v408h110v-408h-110zM77 -161v408h110v-408h-110z" />
    <glyph glyph-name="section" unicode="&#xa7;" horiz-adv-x="510" 
d="M110.5 -45q-61.5 33 -86.5 83l93 46q52 -71 136 -71q40 0 64 14t24 39q0 20 -17 36t-60 33l-76 29q-82 30 -117.5 67t-35.5 94q0 45 23 78.5t64 52.5q-44 26 -62 55.5t-18 66.5q0 44 24.5 79t71 55.5t107.5 20.5q74 0 131 -32t81 -79l-93 -45q-27 30 -53.5 47.5
t-61.5 17.5q-34 0 -53.5 -13.5t-19.5 -36.5q0 -30 54 -53l78 -29q85 -33 122.5 -71t37.5 -96q0 -84 -81 -131q46 -26 66.5 -55.5t20.5 -70.5q0 -74 -57.5 -119t-160.5 -45q-84 0 -145.5 33zM327.5 273q17.5 17 17.5 43q0 24 -17 42t-59 34l-44 17q-32 -3 -50 -21t-18 -42
q0 -22 15 -36t61 -31l49 -20q28 -3 45.5 14z" />
    <glyph glyph-name="dieresis" unicode="&#xa8;" horiz-adv-x="369" 
d="M148 596h-133v127h133v-127zM347 596h-133v127h133v-127z" />
    <glyph glyph-name="copyright" unicode="&#xa9;" horiz-adv-x="826" 
d="M223 40q-85 50 -135 135t-50 187q0 100 50 185.5t135 135.5t186 50t186.5 -50t135.5 -135.5t50 -185.5q0 -102 -50 -187t-135.5 -135t-186.5 -50t-186 50zM554 108.5q64 35.5 100 101.5t36 152t-36 151.5t-100 101.5t-145 36q-82 0 -145.5 -36t-99 -101.5t-35.5 -151.5
q0 -87 35.5 -152.5t99 -101t145.5 -35.5q81 0 145 35.5zM525.5 532q45.5 -39 61.5 -92l-104 -11q-10 29 -25.5 46t-41.5 17q-39 0 -61 -32.5t-22 -94.5q0 -66 23.5 -98t65.5 -32q32 0 52.5 17.5t38.5 51.5l75 -19q-16 -48 -60 -88.5t-116 -40.5q-58 0 -103.5 26t-71 73
t-25.5 108t26 108.5t71.5 73.5t102.5 26q68 0 113.5 -39z" />
    <glyph glyph-name="ordfeminine" unicode="&#xaa;" horiz-adv-x="412" 
d="M63 422q-28 25 -28 67q0 49 45.5 79.5t125.5 32.5l37 2v21q0 46 -51 46q-22 0 -38 -9t-27 -32l-84 18q20 43 54.5 64t97.5 21q75 -1 107.5 -27t32.5 -76v-126q0 -47 4 -71l7 -29h-96l-7 34q-30 -22 -51.5 -31t-49.5 -9q-51 0 -79 25zM227 475q16 13 16 28v48l-31 -1
q-38 -1 -60 -16t-22 -39q0 -17 13.5 -27t35.5 -10q29 0 48 17z" />
    <glyph glyph-name="guillemotleft" unicode="&#xab;" horiz-adv-x="496" 
d="M244 64h-79l-117 187l116 195h81l-80 -195zM436 64h-80l-117 187l117 195h80l-79 -195z" />
    <glyph glyph-name="logicalnot" unicode="&#xac;" horiz-adv-x="585" 
d="M528 419v-262h-122l-1 152h-353v109z" />
    <glyph glyph-name="uni00AD" unicode="&#xad;" horiz-adv-x="388" 
d="M344 203l-275 -1v110h275v-109z" />
    <glyph glyph-name="registered" unicode="&#xae;" horiz-adv-x="548" 
d="M153.5 299q-53.5 31 -84.5 84t-31 117t31 117t84.5 84.5t117.5 31.5q63 0 116.5 -31.5t84.5 -85t31 -116.5t-31 -116.5t-84.5 -84.5t-116.5 -31q-64 0 -117.5 31zM393 374q46 47 46 126t-46 126.5t-122 47.5q-77 0 -122.5 -47.5t-45.5 -126.5t45.5 -126t122.5 -47
q76 0 122 47zM177 614h108q42 0 65.5 -16t23.5 -46q0 -23 -13 -38.5t-34 -23.5l46 -106h-64l-35 100h-39v-100h-58v230zM283 525q13 0 21.5 6t8.5 18q0 11 -8.5 17.5t-24.5 6.5h-45v-48h48z" />
    <glyph glyph-name="macron" unicode="&#xaf;" horiz-adv-x="394" 
d="M371 622h-356v96h356v-96z" />
    <glyph glyph-name="degree" unicode="&#xb0;" horiz-adv-x="469" 
d="M377 580q-22 -38 -60 -59.5t-86 -21.5t-86.5 21.5t-60 59.5t-21.5 87q0 48 21.5 86.5t60 60.5t86.5 22q47 0 85.5 -22t60.5 -60.5t22 -86.5q0 -49 -22 -87zM287.5 726q-21.5 23 -58.5 23q-35 0 -57 -23t-22 -58q0 -38 21.5 -61.5t58.5 -23.5q36 0 57.5 23t21.5 60
t-21.5 60z" />
    <glyph glyph-name="plusminus" unicode="&#xb1;" horiz-adv-x="585" 
d="M528 505v-110h-183v-183h-109v183h-184v109h184v184h109v-183h183zM52 142l476 1v-109h-476v108z" />
    <glyph glyph-name="uni00B2" unicode="&#xb2;" horiz-adv-x="386" 
d="M12 454l142 127q59 51 77 75t18 50q0 29 -19.5 44.5t-48.5 15.5q-30 0 -52.5 -15.5t-33.5 -50.5l-88 5q7 64 52.5 102t124.5 38q76 0 120.5 -37t44.5 -101q0 -36 -17.5 -64t-65.5 -74l-111 -105h199v-80h-342v70z" />
    <glyph glyph-name="uni00B3" unicode="&#xb3;" horiz-adv-x="401" 
d="M81 815q53 30 129 30q49 0 89 -15t63 -42.5t23 -61.5q0 -69 -85 -99q41 -11 69.5 -39.5t28.5 -72.5q0 -42 -27 -73t-70.5 -47.5t-92.5 -16.5q-86 0 -134.5 28.5t-56.5 100.5l89 5q11 -32 37 -45t59 -13q41 0 66 17.5t25 43.5q0 28 -24 46.5t-59 18.5l-62 1v75l53 2
q36 1 59 18t23 43q0 23 -22.5 38t-52.5 15q-38 0 -63.5 -12.5t-34.5 -46.5l-88 5q6 67 59 97z" />
    <glyph glyph-name="acute" unicode="&#xb4;" horiz-adv-x="315" 
d="M299 636l-266 -69l-21 64l254 103z" />
    <glyph glyph-name="paragraph" unicode="&#xb6;" 
d="M482 638v-721h-92v721h-59v-721h-92v382q-89 7 -147 62t-58 148q0 59 27.5 108t80 77.5t125.5 28.5h278v-85h-63z" />
    <glyph glyph-name="periodcentered" unicode="&#xb7;" horiz-adv-x="264" 
d="M203 291h-153v147h153v-147z" />
    <glyph glyph-name="cedilla" unicode="&#xb8;" horiz-adv-x="272" 
d="M215 -191q-35 -22 -86 -22q-72 0 -116 27l20 50q40 -25 78 -25q23 0 36 8.5t13 22.5q0 20 -19.5 30t-65.5 10q-13 0 -8 10l37 85h66l-22 -58q52 -1 77 -24.5t25 -54.5q0 -37 -35 -59z" />
    <glyph glyph-name="uni00B9" unicode="&#xb9;" horiz-adv-x="303" 
d="M74 729l-81 -23v66l126 63h50v-455h-95v349z" />
    <glyph glyph-name="ordmasculine" unicode="&#xba;" horiz-adv-x="397" 
d="M317.5 686q45.5 -47 45.5 -122q0 -73 -45.5 -119.5t-119.5 -46.5t-119 46.5t-45 119.5q0 75 46 122t118 47q74 0 119.5 -47zM134 566q0 -103 64 -103q66 0 66 103t-66 103q-64 0 -64 -103z" />
    <glyph glyph-name="guillemotright" unicode="&#xbb;" horiz-adv-x="495" 
d="M53 446h80l117 -195l-118 -187h-79l79 187zM244 446h81l116 -195l-117 -187h-80l80 187z" />
    <glyph glyph-name="onequarter" unicode="&#xbc;" horiz-adv-x="973" 
d="M74 625l-81 -23v66l126 63h50v-455h-95v349zM224 -4l-87 1l487 734h86zM865 455v-274h68v-82h-68v-99h-96l1 99h-205v80l205 276h95zM770 181v142l-106 -142h106z" />
    <glyph glyph-name="onehalf" unicode="&#xbd;" horiz-adv-x="942" 
d="M74 625l-81 -23v66l126 63h50v-455h-95v349zM224 -4l-87 1l487 734h86zM568 70l142 127q41 35 60.5 55.5t27 36t7.5 33.5q0 28 -19.5 44t-48.5 16t-52.5 -16t-33.5 -50l-88 5q7 64 52.5 102t124.5 38q50 0 87.5 -17t57.5 -48t20 -73q0 -36 -17.5 -64.5t-65.5 -73.5
l-111 -105h199v-80h-342v70z" />
    <glyph glyph-name="threequarters" unicode="&#xbe;" horiz-adv-x="1071" 
d="M81 710q53 30 129 30q49 0 89 -15t63 -42.5t23 -61.5q0 -69 -85 -99q41 -11 69.5 -39.5t28.5 -72.5q0 -42 -27 -73t-70.5 -47.5t-92.5 -16.5q-86 0 -134.5 28.5t-56.5 100.5l89 5q11 -32 37 -45t59 -13q41 0 66 17.5t25 43.5q0 28 -24 46.5t-59 18.5l-62 1v75l53 2
q36 1 59 18t23 43q0 23 -22.5 38t-52.5 15q-38 0 -63.5 -12.5t-34.5 -46.5l-88 5q6 67 59 97zM322 -4l-87 1l487 734h86zM963 455v-274h68v-82h-68v-99h-96l1 99h-205v80l205 276h95zM868 181v142l-106 -142h106z" />
    <glyph glyph-name="questiondown" unicode="&#xbf;" horiz-adv-x="541" 
d="M201 517h165v-160h-165v160zM428 -128q-66 -43 -158 -43q-77 0 -131 22.5t-81.5 61.5t-27.5 87q0 39 14.5 68.5t35 49.5t53.5 45q45 34 67 61.5t22 69.5h122q0 -43 -14 -76t-33.5 -56t-50.5 -50q-34 -31 -50 -53t-16 -51q0 -32 26 -52.5t65 -20.5q40 0 75.5 25.5
t51.5 65.5l128 -30q-32 -81 -98 -124z" />
    <glyph glyph-name="Agrave" unicode="&#xc0;" horiz-adv-x="713" 
d="M278 723h158l258 -723h-150l-58 165h-257l-59 -165h-151zM451 296l-94 282l-94 -282h188zM505 837l-21 -64l-267 69l35 98z" />
    <glyph glyph-name="Aacute" unicode="&#xc1;" horiz-adv-x="713" 
d="M278 723h158l258 -723h-150l-58 165h-257l-59 -165h-151zM451 296l-94 282l-94 -282h188zM511 842l-266 -69l-21 64l254 103z" />
    <glyph glyph-name="Acircumflex" unicode="&#xc2;" horiz-adv-x="713" 
d="M278 723h158l258 -723h-150l-58 165h-257l-59 -165h-151zM451 296l-94 282l-94 -282h188zM366 875l-73 -75h-111l133 136h104l129 -136h-117z" />
    <glyph glyph-name="Atilde" unicode="&#xc3;" horiz-adv-x="713" 
d="M278 723h158l258 -723h-150l-58 165h-257l-59 -165h-151zM451 296l-94 282l-94 -282h188zM491 825q-23 -8 -49 -8q-19 0 -33.5 3.5t-41.5 11.5q-17 5 -35 9.5t-35 4.5q-20 0 -33.5 -5t-31.5 -18q-7 -5 -10 -5q-6 0 -9 11l-14 43q-2 6 -2 9q0 6 8 14q19 17 39 26.5t48 9.5
q20 0 38.5 -4.5t44.5 -12.5q17 -5 34.5 -9.5t31.5 -4.5q19 0 35 6.5t33 17.5q5 4 11 4q7 0 10 -10l11 -51q1 -2 1 -7q0 -8 -11 -16q-17 -11 -40 -19z" />
    <glyph glyph-name="Adieresis" unicode="&#xc4;" horiz-adv-x="713" 
d="M278 723h158l258 -723h-150l-58 165h-257l-59 -165h-151zM451 296l-94 282l-94 -282h188zM334 802h-133v127h133v-127zM533 802h-133v127h133v-127z" />
    <glyph glyph-name="Aring" unicode="&#xc5;" horiz-adv-x="713" 
d="M278 723h158l258 -723h-150l-58 165h-257l-59 -165h-151zM451 296l-94 282l-94 -282h188zM445 804.5q-32 -31.5 -78 -31.5t-77.5 32t-31.5 79q0 43 32 74t77 31q46 0 78 -31t32 -76q0 -46 -32 -77.5zM401 916q-14 14 -35 14t-35.5 -14t-14.5 -35q0 -20 15 -35.5t35 -15.5
t34.5 15.5t14.5 35.5q0 21 -14 35z" />
    <glyph glyph-name="AE" unicode="&#xc6;" horiz-adv-x="1070" 
d="M1014 0h-525v166h-232l-87 -166h-151l386 723h599l-1 -125h-342v-172h231v-124h-231v-176h353v-126zM489 625l-175 -329h175v329z" />
    <glyph glyph-name="Ccedilla" unicode="&#xc7;" horiz-adv-x="711" 
d="M517 701.5q65 -31.5 105 -87.5t47 -127l-158 -2q-11 58 -47.5 91t-97.5 33q-158 0 -158 -244q0 -127 42 -189t119 -62q55 0 92.5 36.5t48.5 95.5l158 -3q-15 -114 -85 -183.5t-210 -69.5q-100 0 -174.5 47.5t-115 133t-40.5 197.5q0 111 39.5 193.5t113.5 127t175 44.5
q81 0 146 -31.5zM455 -191q-35 -22 -86 -22q-72 0 -116 27l20 50q40 -25 78 -25q23 0 36 8.5t13 22.5q0 20 -19.5 30t-65.5 10q-13 0 -8 10l37 85h66l-22 -58q52 -1 77 -24.5t25 -54.5q0 -37 -35 -59z" />
    <glyph glyph-name="Egrave" unicode="&#xc8;" horiz-adv-x="638" 
d="M77 723h501l-1 -127h-348v-170h301v-124h-302v-174h354v-128h-505v723zM469 837l-21 -64l-267 69l35 98z" />
    <glyph glyph-name="Eacute" unicode="&#xc9;" horiz-adv-x="638" 
d="M77 723h501l-1 -127h-348v-170h301v-124h-302v-174h354v-128h-505v723zM475 842l-266 -69l-21 64l254 103z" />
    <glyph glyph-name="Ecircumflex" unicode="&#xca;" horiz-adv-x="638" 
d="M77 723h501l-1 -127h-348v-170h301v-124h-302v-174h354v-128h-505v723zM330 875l-73 -75h-111l133 136h104l129 -136h-117z" />
    <glyph glyph-name="Edieresis" unicode="&#xcb;" horiz-adv-x="638" 
d="M77 723h501l-1 -127h-348v-170h301v-124h-302v-174h354v-128h-505v723zM298 802h-133v127h133v-127zM497 802h-133v127h133v-127z" />
    <glyph glyph-name="Igrave" unicode="&#xcc;" horiz-adv-x="305" 
d="M228 723v-723h-151v723h151zM292 837l-21 -64l-267 69l35 98z" />
    <glyph glyph-name="Iacute" unicode="&#xcd;" horiz-adv-x="305" 
d="M228 723v-723h-151v723h151zM298 842l-266 -69l-21 64l254 103z" />
    <glyph glyph-name="Icircumflex" unicode="&#xce;" horiz-adv-x="305" 
d="M228 723v-723h-151v723h151zM153 875l-73 -75h-111l133 136h104l129 -136h-117z" />
    <glyph glyph-name="Idieresis" unicode="&#xcf;" horiz-adv-x="305" 
d="M228 723v-723h-151v723h151zM121 802h-133v127h133v-127zM320 802h-133v127h133v-127z" />
    <glyph glyph-name="Eth" unicode="&#xd0;" horiz-adv-x="739" 
d="M605.5 624.5q91.5 -92.5 91.5 -259.5q0 -173 -95 -269t-285 -96h-216v302h-48q-12 0 -17 4.5t-5 15.5v72q0 18 16 18h54v311q159 0 221 -1q192 -5 283.5 -97.5zM478.5 181q60.5 59 60.5 185q0 121 -56.5 178.5t-160.5 57.5h-69v-190h134q14 0 14 -16v-71q0 -13 -6 -18
t-20 -5h-122v-180h68q97 0 157.5 59z" />
    <glyph glyph-name="Ntilde" unicode="&#xd1;" horiz-adv-x="780" 
d="M703 723v-723h-136l-339 491v-491h-151v723h150l325 -471v471h151zM518 825q-23 -8 -49 -8q-19 0 -33.5 3.5t-41.5 11.5q-17 5 -35 9.5t-35 4.5q-20 0 -33.5 -5t-31.5 -18q-7 -5 -10 -5q-6 0 -9 11l-14 43q-2 6 -2 9q0 6 8 14q19 17 39 26.5t48 9.5q20 0 38.5 -4.5
t44.5 -12.5q17 -5 34.5 -9.5t31.5 -4.5q19 0 35 6.5t33 17.5q5 4 11 4q7 0 10 -10l11 -51q1 -2 1 -7q0 -8 -11 -16q-17 -11 -40 -19z" />
    <glyph glyph-name="Ograve" unicode="&#xd2;" horiz-adv-x="754" 
d="M199.5 34.5q-75.5 44.5 -116 127.5t-40.5 197q0 115 41.5 199.5t117 129.5t176.5 45q100 0 175.5 -45t116.5 -129.5t41 -198.5q0 -113 -40.5 -196.5t-116 -128.5t-176.5 -45q-103 0 -178.5 44.5zM547 358q0 129 -44 190t-125 61t-125.5 -61t-44.5 -190q0 -126 44.5 -185
t125.5 -59q169 0 169 244zM516 837l-21 -64l-267 69l35 98z" />
    <glyph glyph-name="Oacute" unicode="&#xd3;" horiz-adv-x="754" 
d="M199.5 34.5q-75.5 44.5 -116 127.5t-40.5 197q0 115 41.5 199.5t117 129.5t176.5 45q100 0 175.5 -45t116.5 -129.5t41 -198.5q0 -113 -40.5 -196.5t-116 -128.5t-176.5 -45q-103 0 -178.5 44.5zM547 358q0 129 -44 190t-125 61t-125.5 -61t-44.5 -190q0 -126 44.5 -185
t125.5 -59q169 0 169 244zM522 842l-266 -69l-21 64l254 103z" />
    <glyph glyph-name="Ocircumflex" unicode="&#xd4;" horiz-adv-x="754" 
d="M199.5 34.5q-75.5 44.5 -116 127.5t-40.5 197q0 115 41.5 199.5t117 129.5t176.5 45q100 0 175.5 -45t116.5 -129.5t41 -198.5q0 -113 -40.5 -196.5t-116 -128.5t-176.5 -45q-103 0 -178.5 44.5zM547 358q0 129 -44 190t-125 61t-125.5 -61t-44.5 -190q0 -126 44.5 -185
t125.5 -59q169 0 169 244zM377 875l-73 -75h-111l133 136h104l129 -136h-117z" />
    <glyph glyph-name="Otilde" unicode="&#xd5;" horiz-adv-x="754" 
d="M199.5 34.5q-75.5 44.5 -116 127.5t-40.5 197q0 115 41.5 199.5t117 129.5t176.5 45q100 0 175.5 -45t116.5 -129.5t41 -198.5q0 -113 -40.5 -196.5t-116 -128.5t-176.5 -45q-103 0 -178.5 44.5zM547 358q0 129 -44 190t-125 61t-125.5 -61t-44.5 -190q0 -126 44.5 -185
t125.5 -59q169 0 169 244zM502 825q-23 -8 -49 -8q-19 0 -33.5 3.5t-41.5 11.5q-17 5 -35 9.5t-35 4.5q-20 0 -33.5 -5t-31.5 -18q-7 -5 -10 -5q-6 0 -9 11l-14 43q-2 6 -2 9q0 6 8 14q19 17 39 26.5t48 9.5q20 0 38.5 -4.5t44.5 -12.5q17 -5 34.5 -9.5t31.5 -4.5
q19 0 35 6.5t33 17.5q5 4 11 4q7 0 10 -10l11 -51q1 -2 1 -7q0 -8 -11 -16q-17 -11 -40 -19z" />
    <glyph glyph-name="Odieresis" unicode="&#xd6;" horiz-adv-x="754" 
d="M199.5 34.5q-75.5 44.5 -116 127.5t-40.5 197q0 115 41.5 199.5t117 129.5t176.5 45q100 0 175.5 -45t116.5 -129.5t41 -198.5q0 -113 -40.5 -196.5t-116 -128.5t-176.5 -45q-103 0 -178.5 44.5zM547 358q0 129 -44 190t-125 61t-125.5 -61t-44.5 -190q0 -126 44.5 -185
t125.5 -59q169 0 169 244zM345 802h-133v127h133v-127zM544 802h-133v127h133v-127z" />
    <glyph glyph-name="multiply" unicode="&#xd7;" horiz-adv-x="579" 
d="M364 363l154 -153l-78 -78l-153 154l-154 -154l-77 78l153 153l-154 155l77 77l154 -154l155 155l78 -78z" />
    <glyph glyph-name="Oslash" unicode="&#xd8;" horiz-adv-x="762" 
d="M742 669q0 -6 -6 -11l-77 -79q53 -90 53 -219q0 -113 -40.5 -196.5t-116 -128.5t-177.5 -45q-135 0 -220 76l-61 -62q-9 -10 -17 -10t-18 10l-32 32q-10 10 -10 17t6 13l70 73q-53 90 -53 220q0 115 41.5 199.5t117 129.5t176.5 45q136 0 222 -80l67 68q8 8 15 8
q6 0 10 -4l44 -45q6 -4 6 -11zM235 275l260 274q-18 33 -47 48.5t-70 15.5q-80 0 -117 -61t-37 -194q0 -51 11 -83zM520 442l-259 -273q36 -58 118 -58q80 0 116 58t36 189q0 46 -11 84z" />
    <glyph glyph-name="Ugrave" unicode="&#xd9;" horiz-adv-x="737" 
d="M591 64.5q-69 -74.5 -222 -74.5q-154 0 -223 75t-69 217v441h154v-451q0 -78 37 -116t101 -38q63 0 101 38t38 116v451h152v-445q0 -139 -69 -213.5zM494 837l-21 -64l-267 69l35 98z" />
    <glyph glyph-name="Uacute" unicode="&#xda;" horiz-adv-x="737" 
d="M591 64.5q-69 -74.5 -222 -74.5q-154 0 -223 75t-69 217v441h154v-451q0 -78 37 -116t101 -38q63 0 101 38t38 116v451h152v-445q0 -139 -69 -213.5zM500 842l-266 -69l-21 64l254 103z" />
    <glyph glyph-name="Ucircumflex" unicode="&#xdb;" horiz-adv-x="737" 
d="M591 64.5q-69 -74.5 -222 -74.5q-154 0 -223 75t-69 217v441h154v-451q0 -78 37 -116t101 -38q63 0 101 38t38 116v451h152v-445q0 -139 -69 -213.5zM355 875l-73 -75h-111l133 136h104l129 -136h-117z" />
    <glyph glyph-name="Udieresis" unicode="&#xdc;" horiz-adv-x="737" 
d="M591 64.5q-69 -74.5 -222 -74.5q-154 0 -223 75t-69 217v441h154v-451q0 -78 37 -116t101 -38q63 0 101 38t38 116v451h152v-445q0 -139 -69 -213.5zM323 802h-133v127h133v-127zM522 802h-133v127h133v-127z" />
    <glyph glyph-name="Yacute" unicode="&#xdd;" horiz-adv-x="662" 
d="M406 304v-304h-151v304l-251 419h163l164 -289l162 289h165zM491 842l-266 -69l-21 64l254 103z" />
    <glyph glyph-name="Thorn" unicode="&#xde;" horiz-adv-x="708" 
d="M607 206.5q-72 -57.5 -192 -57.5h-166v-149h-172v723h172v-138h146q125 0 204.5 -55.5t79.5 -161.5q0 -104 -72 -161.5zM471.5 438.5q-32.5 23.5 -86.5 23.5h-136v-190h142q52 0 82.5 26t30.5 72q0 45 -32.5 68.5z" />
    <glyph glyph-name="germandbls" unicode="&#xdf;" horiz-adv-x="643" 
d="M486 683q53 -40 53 -109q0 -51 -31 -83.5t-100 -62.5q-14 -7 -20 -12.5t-6 -13.5t5.5 -12t21.5 -10q68 -29 106.5 -51t66.5 -61t28 -99q0 -86 -57.5 -132.5t-155.5 -46.5q-79 0 -133 33l44 93q23 -14 40.5 -21.5t43.5 -7.5q37 0 60 17t23 49q0 31 -21.5 47t-73.5 36
q-50 21 -79 51.5t-29 79.5q0 35 16.5 61t47.5 50q7 6 27 22t30 32t10 34q0 26 -20.5 43t-56.5 17q-46 0 -72 -28t-26 -76v-522h-149v389h-59v104h58q3 100 65 165t190 65q100 0 153 -40z" />
    <glyph glyph-name="agrave" unicode="&#xe0;" horiz-adv-x="573" 
d="M84 32.5q-49 42.5 -49 116.5q0 85 64.5 128t200.5 46l63 3v28q0 35 -21 53.5t-61 18.5q-32 -1 -60 -15.5t-45 -44.5l-123 6q12 77 75.5 116t159.5 39q219 0 219 -163v-364h-126l-11 66q-24 -35 -65.5 -55.5t-94.5 -20.5q-77 0 -126 42.5zM330.5 114.5
q31.5 25.5 32.5 58.5v74l-51 -3q-61 -3 -97.5 -20.5t-36.5 -59.5q0 -34 23.5 -54.5t59.5 -20.5q38 0 69.5 25.5zM425 631l-21 -64l-267 69l35 98z" />
    <glyph glyph-name="aacute" unicode="&#xe1;" horiz-adv-x="573" 
d="M84 32.5q-49 42.5 -49 116.5q0 85 64.5 128t200.5 46l63 3v28q0 35 -21 53.5t-61 18.5q-32 -1 -60 -15.5t-45 -44.5l-123 6q12 77 75.5 116t159.5 39q219 0 219 -163v-364h-126l-11 66q-24 -35 -65.5 -55.5t-94.5 -20.5q-77 0 -126 42.5zM330.5 114.5
q31.5 25.5 32.5 58.5v74l-51 -3q-61 -3 -97.5 -20.5t-36.5 -59.5q0 -34 23.5 -54.5t59.5 -20.5q38 0 69.5 25.5zM431 636l-266 -69l-21 64l254 103z" />
    <glyph glyph-name="acircumflex" unicode="&#xe2;" horiz-adv-x="573" 
d="M84 32.5q-49 42.5 -49 116.5q0 85 64.5 128t200.5 46l63 3v28q0 35 -21 53.5t-61 18.5q-32 -1 -60 -15.5t-45 -44.5l-123 6q12 77 75.5 116t159.5 39q219 0 219 -163v-364h-126l-11 66q-24 -35 -65.5 -55.5t-94.5 -20.5q-77 0 -126 42.5zM330.5 114.5
q31.5 25.5 32.5 58.5v74l-51 -3q-61 -3 -97.5 -20.5t-36.5 -59.5q0 -34 23.5 -54.5t59.5 -20.5q38 0 69.5 25.5zM286 669l-73 -75h-111l133 136h104l129 -136h-117z" />
    <glyph glyph-name="atilde" unicode="&#xe3;" horiz-adv-x="573" 
d="M84 32.5q-49 42.5 -49 116.5q0 85 64.5 128t200.5 46l63 3v28q0 35 -21 53.5t-61 18.5q-32 -1 -60 -15.5t-45 -44.5l-123 6q12 77 75.5 116t159.5 39q219 0 219 -163v-364h-126l-11 66q-24 -35 -65.5 -55.5t-94.5 -20.5q-77 0 -126 42.5zM330.5 114.5
q31.5 25.5 32.5 58.5v74l-51 -3q-61 -3 -97.5 -20.5t-36.5 -59.5q0 -34 23.5 -54.5t59.5 -20.5q38 0 69.5 25.5zM411 619q-23 -8 -49 -8q-19 0 -33.5 3.5t-41.5 11.5q-17 5 -35 9.5t-35 4.5q-20 0 -33.5 -5t-31.5 -18q-7 -5 -10 -5q-6 0 -9 11l-14 43q-2 6 -2 9q0 6 8 14
q19 17 39 26.5t48 9.5q20 0 38.5 -4.5t44.5 -12.5q17 -5 34.5 -9.5t31.5 -4.5q19 0 35 6.5t33 17.5q5 4 11 4q7 0 10 -10l11 -51q1 -2 1 -7q0 -8 -11 -16q-17 -11 -40 -19z" />
    <glyph glyph-name="adieresis" unicode="&#xe4;" horiz-adv-x="573" 
d="M84 32.5q-49 42.5 -49 116.5q0 85 64.5 128t200.5 46l63 3v28q0 35 -21 53.5t-61 18.5q-32 -1 -60 -15.5t-45 -44.5l-123 6q12 77 75.5 116t159.5 39q219 0 219 -163v-364h-126l-11 66q-24 -35 -65.5 -55.5t-94.5 -20.5q-77 0 -126 42.5zM330.5 114.5
q31.5 25.5 32.5 58.5v74l-51 -3q-61 -3 -97.5 -20.5t-36.5 -59.5q0 -34 23.5 -54.5t59.5 -20.5q38 0 69.5 25.5zM254 596h-133v127h133v-127zM453 596h-133v127h133v-127z" />
    <glyph glyph-name="aring" unicode="&#xe5;" horiz-adv-x="573" 
d="M84 32.5q-49 42.5 -49 116.5q0 85 64.5 128t200.5 46l63 3v28q0 35 -21 53.5t-61 18.5q-32 -1 -60 -15.5t-45 -44.5l-123 6q12 77 75.5 116t159.5 39q219 0 219 -163v-364h-126l-11 66q-24 -35 -65.5 -55.5t-94.5 -20.5q-77 0 -126 42.5zM330.5 114.5
q31.5 25.5 32.5 58.5v74l-51 -3q-61 -3 -97.5 -20.5t-36.5 -59.5q0 -34 23.5 -54.5t59.5 -20.5q38 0 69.5 25.5zM365 598.5q-32 -31.5 -78 -31.5t-77.5 32t-31.5 79q0 43 32 74t77 31q46 0 78 -31t32 -76q0 -46 -32 -77.5zM321 710q-14 14 -35 14t-35.5 -14t-14.5 -35
q0 -20 15 -35.5t35 -15.5t34.5 15.5t14.5 35.5q0 21 -14 35z" />
    <glyph glyph-name="ae" unicode="&#xe6;" horiz-adv-x="912" 
d="M556.5 131.5q36.5 -38.5 90.5 -38.5q39 0 68 17.5t64 54.5l93 -41q-46 -73 -103.5 -103.5t-141.5 -30.5q-119 0 -202 89q-4 5 -8 0q-44 -44 -94 -66.5t-121 -22.5q-80 0 -123.5 40t-43.5 107q0 78 67.5 125t199.5 55l65 4v33q0 37 -21 57.5t-62 20.5q-33 0 -61 -16.5
t-46 -53.5l-129 29q31 69 87 102.5t154 33.5q129 -1 179 -61q31 30 71 45.5t86 15.5q74 0 131.5 -35.5t90 -102.5t32.5 -159h-359q0 -60 36.5 -98.5zM553.5 401.5q-31.5 -32.5 -30.5 -88.5l208 -1q0 28 -11.5 56.5t-34.5 47t-54 18.5q-46 0 -77.5 -32.5zM314 238
q-55 -5 -93 -28.5t-38 -62.5q0 -28 20 -46t55 -18q44 0 76.5 22t32.5 56v80z" />
    <glyph glyph-name="ccedilla" unicode="&#xe7;" horiz-adv-x="536" 
d="M432.5 473q55.5 -54 67.5 -136l-123 -6q-18 40 -36.5 61t-53.5 21q-52 0 -82.5 -41t-30.5 -114q0 -74 31.5 -117.5t83.5 -43.5q36 0 56.5 23.5t35.5 60.5l119 -6q-10 -80 -67.5 -132.5t-147.5 -52.5q-72 0 -129.5 33.5t-89.5 94t-32 138.5q0 79 32 140.5t89 96t130 34.5
q92 0 147.5 -54zM366 -191q-35 -22 -86 -22q-72 0 -116 27l20 50q40 -25 78 -25q23 0 36 8.5t13 22.5q0 20 -19.5 30t-65.5 10q-13 0 -8 10l37 85h66l-22 -58q52 -1 77 -24.5t25 -54.5q0 -37 -35 -59z" />
    <glyph glyph-name="egrave" unicode="&#xe8;" horiz-adv-x="562" 
d="M212 132.5q29 -33.5 79 -33.5q76 0 101 62l134 -5q-10 -50 -44 -87.5t-83.5 -58t-104.5 -20.5q-77 0 -136 32.5t-91.5 92t-32.5 138.5q0 78 30 140t87.5 98t134.5 36q116 0 178.5 -72t62.5 -191v-40h-344q0 -58 29 -91.5zM387 313q0 47 -26.5 78t-75.5 31
q-46 0 -74 -32.5t-28 -76.5h204zM424 631l-21 -64l-267 69l35 98z" />
    <glyph glyph-name="eacute" unicode="&#xe9;" horiz-adv-x="562" 
d="M212 132.5q29 -33.5 79 -33.5q76 0 101 62l134 -5q-10 -50 -44 -87.5t-83.5 -58t-104.5 -20.5q-77 0 -136 32.5t-91.5 92t-32.5 138.5q0 78 30 140t87.5 98t134.5 36q116 0 178.5 -72t62.5 -191v-40h-344q0 -58 29 -91.5zM387 313q0 47 -26.5 78t-75.5 31
q-46 0 -74 -32.5t-28 -76.5h204zM430 636l-266 -69l-21 64l254 103z" />
    <glyph glyph-name="ecircumflex" unicode="&#xea;" horiz-adv-x="562" 
d="M212 132.5q29 -33.5 79 -33.5q76 0 101 62l134 -5q-10 -50 -44 -87.5t-83.5 -58t-104.5 -20.5q-77 0 -136 32.5t-91.5 92t-32.5 138.5q0 78 30 140t87.5 98t134.5 36q116 0 178.5 -72t62.5 -191v-40h-344q0 -58 29 -91.5zM387 313q0 47 -26.5 78t-75.5 31
q-46 0 -74 -32.5t-28 -76.5h204zM285 669l-73 -75h-111l133 136h104l129 -136h-117z" />
    <glyph glyph-name="edieresis" unicode="&#xeb;" horiz-adv-x="562" 
d="M212 132.5q29 -33.5 79 -33.5q76 0 101 62l134 -5q-10 -50 -44 -87.5t-83.5 -58t-104.5 -20.5q-77 0 -136 32.5t-91.5 92t-32.5 138.5q0 78 30 140t87.5 98t134.5 36q116 0 178.5 -72t62.5 -191v-40h-344q0 -58 29 -91.5zM387 313q0 47 -26.5 78t-75.5 31
q-46 0 -74 -32.5t-28 -76.5h204zM253 596h-133v127h133v-127zM452 596h-133v127h133v-127z" />
    <glyph glyph-name="igrave" unicode="&#xec;" horiz-adv-x="282" 
d="M217 0h-151v517h151v-517zM282 631l-21 -64l-267 69l35 98z" />
    <glyph glyph-name="iacute" unicode="&#xed;" horiz-adv-x="282" 
d="M217 0h-151v517h151v-517zM288 636l-266 -69l-21 64l254 103z" />
    <glyph glyph-name="icircumflex" unicode="&#xee;" horiz-adv-x="282" 
d="M217 0h-151v517h151v-517zM143 669l-73 -75h-111l133 136h104l129 -136h-117z" />
    <glyph glyph-name="idieresis" unicode="&#xef;" horiz-adv-x="282" 
d="M217 0h-151v517h151v-517zM111 596h-133v127h133v-127zM310 596h-133v127h133v-127z" />
    <glyph glyph-name="eth" unicode="&#xf0;" horiz-adv-x="593" 
d="M525.5 121q-32.5 -63 -92 -97t-138.5 -34q-76 0 -135.5 33t-92.5 91.5t-33 131.5q0 75 34 134.5t93.5 93t132.5 33.5q31 0 48 -15q-33 58 -92 99l-126 -70l-29 46l103 57q-49 25 -101 44l82 66q72 -20 128 -49l92 51l26 -47l-64 -37q96 -67 146.5 -166.5t50.5 -217.5
q0 -84 -32.5 -147zM377 132q28 42 28 117q0 76 -28 118.5t-80 42.5t-81 -42.5t-29 -118.5q0 -75 29 -117t81 -42t80 42z" />
    <glyph glyph-name="ntilde" unicode="&#xf1;" 
d="M66 517h148v-66q28 34 60.5 52t88.5 18q48 0 89.5 -22t66.5 -62t25 -92v-345h-151v326q0 36 -23.5 56.5t-59.5 20.5q-38 0 -65.5 -18.5t-27.5 -51.5v-333h-151v517zM432 619q-23 -8 -49 -8q-19 0 -33.5 3.5t-41.5 11.5q-17 5 -35 9.5t-35 4.5q-20 0 -33.5 -5t-31.5 -18
q-7 -5 -10 -5q-6 0 -9 11l-14 43q-2 6 -2 9q0 6 8 14q19 17 39 26.5t48 9.5q20 0 38.5 -4.5t44.5 -12.5q17 -5 34.5 -9.5t31.5 -4.5q19 0 35 6.5t33 17.5q5 4 11 4q7 0 10 -10l11 -51q1 -2 1 -7q0 -8 -11 -16q-17 -11 -40 -19z" />
    <glyph glyph-name="ograve" unicode="&#xf2;" horiz-adv-x="571" 
d="M152 23.5q-57 33.5 -87.5 93.5t-30.5 138q0 80 31.5 142t88.5 96t132 34q76 0 133 -34.5t87.5 -96t30.5 -140.5q0 -78 -30.5 -138.5t-87.5 -94t-134 -33.5q-76 0 -133 33.5zM365 147.5q24 45.5 24 113.5q0 67 -24.5 111t-78.5 44q-55 0 -79.5 -44t-24.5 -111t24.5 -113
t79.5 -46t79 45.5zM424 631l-21 -64l-267 69l35 98z" />
    <glyph glyph-name="oacute" unicode="&#xf3;" horiz-adv-x="571" 
d="M152 23.5q-57 33.5 -87.5 93.5t-30.5 138q0 80 31.5 142t88.5 96t132 34q76 0 133 -34.5t87.5 -96t30.5 -140.5q0 -78 -30.5 -138.5t-87.5 -94t-134 -33.5q-76 0 -133 33.5zM365 147.5q24 45.5 24 113.5q0 67 -24.5 111t-78.5 44q-55 0 -79.5 -44t-24.5 -111t24.5 -113
t79.5 -46t79 45.5zM430 636l-266 -69l-21 64l254 103z" />
    <glyph glyph-name="ocircumflex" unicode="&#xf4;" horiz-adv-x="571" 
d="M152 23.5q-57 33.5 -87.5 93.5t-30.5 138q0 80 31.5 142t88.5 96t132 34q76 0 133 -34.5t87.5 -96t30.5 -140.5q0 -78 -30.5 -138.5t-87.5 -94t-134 -33.5q-76 0 -133 33.5zM365 147.5q24 45.5 24 113.5q0 67 -24.5 111t-78.5 44q-55 0 -79.5 -44t-24.5 -111t24.5 -113
t79.5 -46t79 45.5zM285 669l-73 -75h-111l133 136h104l129 -136h-117z" />
    <glyph glyph-name="otilde" unicode="&#xf5;" horiz-adv-x="571" 
d="M152 23.5q-57 33.5 -87.5 93.5t-30.5 138q0 80 31.5 142t88.5 96t132 34q76 0 133 -34.5t87.5 -96t30.5 -140.5q0 -78 -30.5 -138.5t-87.5 -94t-134 -33.5q-76 0 -133 33.5zM365 147.5q24 45.5 24 113.5q0 67 -24.5 111t-78.5 44q-55 0 -79.5 -44t-24.5 -111t24.5 -113
t79.5 -46t79 45.5zM410 619q-23 -8 -49 -8q-19 0 -33.5 3.5t-41.5 11.5q-17 5 -35 9.5t-35 4.5q-20 0 -33.5 -5t-31.5 -18q-7 -5 -10 -5q-6 0 -9 11l-14 43q-2 6 -2 9q0 6 8 14q19 17 39 26.5t48 9.5q20 0 38.5 -4.5t44.5 -12.5q17 -5 34.5 -9.5t31.5 -4.5q19 0 35 6.5
t33 17.5q5 4 11 4q7 0 10 -10l11 -51q1 -2 1 -7q0 -8 -11 -16q-17 -11 -40 -19z" />
    <glyph glyph-name="odieresis" unicode="&#xf6;" horiz-adv-x="571" 
d="M152 23.5q-57 33.5 -87.5 93.5t-30.5 138q0 80 31.5 142t88.5 96t132 34q76 0 133 -34.5t87.5 -96t30.5 -140.5q0 -78 -30.5 -138.5t-87.5 -94t-134 -33.5q-76 0 -133 33.5zM365 147.5q24 45.5 24 113.5q0 67 -24.5 111t-78.5 44q-55 0 -79.5 -44t-24.5 -111t24.5 -113
t79.5 -46t79 45.5zM253 596h-133v127h133v-127zM452 596h-133v127h133v-127z" />
    <glyph glyph-name="divide" unicode="&#xf7;" horiz-adv-x="587" 
d="M369 488h-156v150h156v-150zM528 309h-476v109l476 1v-110zM369 90h-156v150h156v-150z" />
    <glyph glyph-name="oslash" unicode="&#xf8;" horiz-adv-x="598" 
d="M508 410q38 -65 38 -154q0 -78 -30.5 -138.5t-87.5 -94t-134 -33.5q-103 0 -168 59l-60 -57l-49 53l63 60q-37 63 -37 150q0 80 31.5 142t88.5 96t132 34q102 0 169 -61l60 57l48 -52zM195 212l175 166q-26 38 -75 38q-55 0 -79.5 -44t-24.5 -111q0 -28 4 -49zM395 304
l-174 -165q29 -37 74 -37q55 0 79 45.5t24 113.5q0 22 -3 43z" />
    <glyph glyph-name="ugrave" unicode="&#xf9;" 
d="M168.5 10q-44.5 19 -73.5 57t-29 92v359h151v-340q0 -38 24.5 -58.5t61.5 -20.5q38 0 63 22t26 60v337h152l-3 -518h-113l-10 73q-21 -38 -67.5 -60.5t-92.5 -22.5q-45 1 -89.5 20zM439 631l-21 -64l-267 69l35 98z" />
    <glyph glyph-name="uacute" unicode="&#xfa;" 
d="M168.5 10q-44.5 19 -73.5 57t-29 92v359h151v-340q0 -38 24.5 -58.5t61.5 -20.5q38 0 63 22t26 60v337h152l-3 -518h-113l-10 73q-21 -38 -67.5 -60.5t-92.5 -22.5q-45 1 -89.5 20zM445 636l-266 -69l-21 64l254 103z" />
    <glyph glyph-name="ucircumflex" unicode="&#xfb;" 
d="M168.5 10q-44.5 19 -73.5 57t-29 92v359h151v-340q0 -38 24.5 -58.5t61.5 -20.5q38 0 63 22t26 60v337h152l-3 -518h-113l-10 73q-21 -38 -67.5 -60.5t-92.5 -22.5q-45 1 -89.5 20zM300 669l-73 -75h-111l133 136h104l129 -136h-117z" />
    <glyph glyph-name="udieresis" unicode="&#xfc;" 
d="M168.5 10q-44.5 19 -73.5 57t-29 92v359h151v-340q0 -38 24.5 -58.5t61.5 -20.5q38 0 63 22t26 60v337h152l-3 -518h-113l-10 73q-21 -38 -67.5 -60.5t-92.5 -22.5q-45 1 -89.5 20zM268 596h-133v127h133v-127zM467 596h-133v127h133v-127z" />
    <glyph glyph-name="yacute" unicode="&#xfd;" horiz-adv-x="572" 
d="M95 -161q-22 4 -32.5 8t-12.5 6v96l51 -2q59 -4 79.5 11.5t27.5 37.5l9 26l-201 495h149l121 -332l124 332h147l-209 -517q-39 -95 -86 -130t-113 -35q-32 0 -54 4zM448 636l-266 -69l-21 64l254 103z" />
    <glyph glyph-name="thorn" unicode="&#xfe;" horiz-adv-x="607" 
d="M217 452q32 35 67.5 55t88.5 20q89 0 144.5 -67.5t55.5 -197.5q0 -135 -57 -203.5t-151 -68.5q-77 0 -130 50q-11 8 -14 8q-4 0 -4 -14v-195h-151v884h151v-271zM309 85q111 0 111 180q0 89 -28.5 128t-80.5 39q-39 0 -66.5 -24t-27.5 -54v-220q41 -49 92 -49z" />
    <glyph glyph-name="ydieresis" unicode="&#xff;" horiz-adv-x="572" 
d="M95 -161q-22 4 -32.5 8t-12.5 6v96l51 -2q59 -4 79.5 11.5t27.5 37.5l9 26l-201 495h149l121 -332l124 332h147l-209 -517q-39 -95 -86 -130t-113 -35q-32 0 -54 4zM271 596h-133v127h133v-127zM470 596h-133v127h133v-127z" />
    <glyph glyph-name="Amacron" unicode="&#x100;" horiz-adv-x="713" 
d="M278 723h158l258 -723h-150l-58 165h-257l-59 -165h-151zM451 296l-94 282l-94 -282h188zM545 828h-356v96h356v-96z" />
    <glyph glyph-name="amacron" unicode="&#x101;" horiz-adv-x="573" 
d="M84 32.5q-49 42.5 -49 116.5q0 85 64.5 128t200.5 46l63 3v28q0 35 -21 53.5t-61 18.5q-32 -1 -60 -15.5t-45 -44.5l-123 6q12 77 75.5 116t159.5 39q219 0 219 -163v-364h-126l-11 66q-24 -35 -65.5 -55.5t-94.5 -20.5q-77 0 -126 42.5zM330.5 114.5
q31.5 25.5 32.5 58.5v74l-51 -3q-61 -3 -97.5 -20.5t-36.5 -59.5q0 -34 23.5 -54.5t59.5 -20.5q38 0 69.5 25.5zM465 622h-356v96h356v-96z" />
    <glyph glyph-name="Abreve" unicode="&#x102;" horiz-adv-x="713" 
d="M278 723h158l258 -723h-150l-58 165h-257l-59 -165h-151zM451 296l-94 282l-94 -282h188zM479.5 834.5q-47.5 -34.5 -111.5 -34.5q-65 0 -113 33.5t-65 95.5h89q13 -23 36.5 -39t52.5 -16q26 0 50.5 16t36.5 39h90q-18 -60 -65.5 -94.5z" />
    <glyph glyph-name="abreve" unicode="&#x103;" horiz-adv-x="573" 
d="M84 32.5q-49 42.5 -49 116.5q0 85 64.5 128t200.5 46l63 3v28q0 35 -21 53.5t-61 18.5q-32 -1 -60 -15.5t-45 -44.5l-123 6q12 77 75.5 116t159.5 39q219 0 219 -163v-364h-126l-11 66q-24 -35 -65.5 -55.5t-94.5 -20.5q-77 0 -126 42.5zM330.5 114.5
q31.5 25.5 32.5 58.5v74l-51 -3q-61 -3 -97.5 -20.5t-36.5 -59.5q0 -34 23.5 -54.5t59.5 -20.5q38 0 69.5 25.5zM399.5 628.5q-47.5 -34.5 -111.5 -34.5q-65 0 -113 33.5t-65 95.5h89q13 -23 36.5 -39t52.5 -16q26 0 50.5 16t36.5 39h90q-18 -60 -65.5 -94.5z" />
    <glyph glyph-name="Aogonek" unicode="&#x104;" horiz-adv-x="713" 
d="M278 723h158l258 -723h-150l-58 165h-257l-59 -165h-151zM451 296l-94 282l-94 -282h188zM530.5 -34.5q20.5 22.5 75.5 40.5l105 -2q-52 -19 -72.5 -35.5t-20.5 -36.5q0 -32 36 -32q25 0 57 15q6 3 9 3q6 0 6 -12v-42q0 -10 -9 -14q-13 -7 -40 -13t-57 -6q-52 0 -81 21
t-29 61q0 30 20.5 52.5z" />
    <glyph glyph-name="aogonek" unicode="&#x105;" horiz-adv-x="573" 
d="M84 32.5q-49 42.5 -49 116.5q0 85 64.5 128t200.5 46l63 3v28q0 35 -21 53.5t-61 18.5q-32 -1 -60 -15.5t-45 -44.5l-123 6q12 77 75.5 116t159.5 39q219 0 219 -163v-364h-126l-11 66q-24 -35 -65.5 -55.5t-94.5 -20.5q-77 0 -126 42.5zM330.5 114.5
q31.5 25.5 32.5 58.5v74l-51 -3q-61 -3 -97.5 -20.5t-36.5 -59.5q0 -34 23.5 -54.5t59.5 -20.5q38 0 69.5 25.5zM322.5 -33.5q20.5 22.5 75.5 40.5l105 -2q-52 -19 -72.5 -35.5t-20.5 -36.5q0 -32 36 -32q25 0 57 15q6 3 9 3q6 0 6 -12v-42q0 -10 -9 -14q-13 -7 -40 -13
t-57 -6q-52 0 -81 21t-29 61q0 30 20.5 52.5z" />
    <glyph glyph-name="Cacute" unicode="&#x106;" horiz-adv-x="711" 
d="M517 701.5q65 -31.5 105 -87.5t47 -127l-158 -2q-11 58 -47.5 91t-97.5 33q-158 0 -158 -244q0 -127 42 -189t119 -62q55 0 92.5 36.5t48.5 95.5l158 -3q-15 -114 -85 -183.5t-210 -69.5q-100 0 -174.5 47.5t-115 133t-40.5 197.5q0 111 39.5 193.5t113.5 127t175 44.5
q81 0 146 -31.5zM517 842l-266 -69l-21 64l254 103z" />
    <glyph glyph-name="cacute" unicode="&#x107;" horiz-adv-x="536" 
d="M432.5 473q55.5 -54 67.5 -136l-123 -6q-18 40 -36.5 61t-53.5 21q-52 0 -82.5 -41t-30.5 -114q0 -74 31.5 -117.5t83.5 -43.5q36 0 56.5 23.5t35.5 60.5l119 -6q-10 -80 -67.5 -132.5t-147.5 -52.5q-72 0 -129.5 33.5t-89.5 94t-32 138.5q0 79 32 140.5t89 96t130 34.5
q92 0 147.5 -54zM428 636l-266 -69l-21 64l254 103z" />
    <glyph glyph-name="Ccircumflex" unicode="&#x108;" horiz-adv-x="711" 
d="M517 701.5q65 -31.5 105 -87.5t47 -127l-158 -2q-11 58 -47.5 91t-97.5 33q-158 0 -158 -244q0 -127 42 -189t119 -62q55 0 92.5 36.5t48.5 95.5l158 -3q-15 -114 -85 -183.5t-210 -69.5q-100 0 -174.5 47.5t-115 133t-40.5 197.5q0 111 39.5 193.5t113.5 127t175 44.5
q81 0 146 -31.5zM372 875l-73 -75h-111l133 136h104l129 -136h-117z" />
    <glyph glyph-name="ccircumflex" unicode="&#x109;" horiz-adv-x="536" 
d="M432.5 473q55.5 -54 67.5 -136l-123 -6q-18 40 -36.5 61t-53.5 21q-52 0 -82.5 -41t-30.5 -114q0 -74 31.5 -117.5t83.5 -43.5q36 0 56.5 23.5t35.5 60.5l119 -6q-10 -80 -67.5 -132.5t-147.5 -52.5q-72 0 -129.5 33.5t-89.5 94t-32 138.5q0 79 32 140.5t89 96t130 34.5
q92 0 147.5 -54zM283 669l-73 -75h-111l133 136h104l129 -136h-117z" />
    <glyph glyph-name="Cdotaccent" unicode="&#x10a;" horiz-adv-x="711" 
d="M517 701.5q65 -31.5 105 -87.5t47 -127l-158 -2q-11 58 -47.5 91t-97.5 33q-158 0 -158 -244q0 -127 42 -189t119 -62q55 0 92.5 36.5t48.5 95.5l158 -3q-15 -114 -85 -183.5t-210 -69.5q-100 0 -174.5 47.5t-115 133t-40.5 197.5q0 111 39.5 193.5t113.5 127t175 44.5
q81 0 146 -31.5zM451 785h-154v144h154v-144z" />
    <glyph glyph-name="cdotaccent" unicode="&#x10b;" horiz-adv-x="536" 
d="M432.5 473q55.5 -54 67.5 -136l-123 -6q-18 40 -36.5 61t-53.5 21q-52 0 -82.5 -41t-30.5 -114q0 -74 31.5 -117.5t83.5 -43.5q36 0 56.5 23.5t35.5 60.5l119 -6q-10 -80 -67.5 -132.5t-147.5 -52.5q-72 0 -129.5 33.5t-89.5 94t-32 138.5q0 79 32 140.5t89 96t130 34.5
q92 0 147.5 -54zM362 579h-154v144h154v-144z" />
    <glyph glyph-name="Ccaron" unicode="&#x10c;" horiz-adv-x="711" 
d="M517 701.5q65 -31.5 105 -87.5t47 -127l-158 -2q-11 58 -47.5 91t-97.5 33q-158 0 -158 -244q0 -127 42 -189t119 -62q55 0 92.5 36.5t48.5 95.5l158 -3q-15 -114 -85 -183.5t-210 -69.5q-100 0 -174.5 47.5t-115 133t-40.5 197.5q0 111 39.5 193.5t113.5 127t175 44.5
q81 0 146 -31.5zM554 930l-129 -138h-105l-132 138h111l73 -76l65 76h117z" />
    <glyph glyph-name="ccaron" unicode="&#x10d;" horiz-adv-x="536" 
d="M432.5 473q55.5 -54 67.5 -136l-123 -6q-18 40 -36.5 61t-53.5 21q-52 0 -82.5 -41t-30.5 -114q0 -74 31.5 -117.5t83.5 -43.5q36 0 56.5 23.5t35.5 60.5l119 -6q-10 -80 -67.5 -132.5t-147.5 -52.5q-72 0 -129.5 33.5t-89.5 94t-32 138.5q0 79 32 140.5t89 96t130 34.5
q92 0 147.5 -54zM465 724l-129 -138h-105l-132 138h111l73 -76l65 76h117z" />
    <glyph glyph-name="Dcaron" unicode="&#x10e;" horiz-adv-x="715" 
d="M298 722q192 -5 283.5 -97.5t91.5 -259.5q0 -173 -95 -269t-285 -96h-216v723q159 0 221 -1zM229 122h68q97 0 157.5 59t60.5 185q0 121 -56.5 178.5t-160.5 57.5h-69v-480zM537 930l-129 -138h-105l-132 138h111l73 -76l65 76h117z" />
    <glyph glyph-name="dcaron" unicode="&#x10f;" horiz-adv-x="605" 
d="M92 61q-58 71 -58 197q0 124 55 196.5t152 72.5q44 0 82.5 -16.5t64.5 -51.5v284h151v-743h-109l-11 71q-21 -32 -63.5 -56.5t-102.5 -24.5q-103 0 -161 71zM359.5 131.5q28.5 33.5 28.5 86.5v103q-19 97 -99 97q-49 0 -78.5 -37.5t-29.5 -119.5q0 -84 29.5 -123.5
t77.5 -39.5q43 0 71.5 33.5zM493.5 359q-2.5 4 -0.5 8l30 73l2 10q0 7 -8 8l-10 2q-8 1 -11.5 3.5t-3.5 9.5v90q0 12 11 12h80q11 0 11 -10v-105q0 -3 -1 -5t-1 -3l-36 -85q-2 -7 -7.5 -9.5t-17.5 -2.5h-30q-5 0 -7.5 4z" />
    <glyph glyph-name="Dcroat" unicode="&#x110;" horiz-adv-x="739" 
d="M605.5 624.5q91.5 -92.5 91.5 -259.5q0 -173 -95 -269t-285 -96h-216v302h-48q-12 0 -17 4.5t-5 15.5v72q0 18 16 18h54v311q159 0 221 -1q192 -5 283.5 -97.5zM478.5 181q60.5 59 60.5 185q0 121 -56.5 178.5t-160.5 57.5h-69v-190h134q14 0 14 -16v-71q0 -13 -6 -18
t-20 -5h-122v-180h68q97 0 157.5 59z" />
    <glyph glyph-name="dcroat" unicode="&#x111;" horiz-adv-x="611" 
d="M583 579h-44v-579h-109l-11 71q-21 -32 -63.5 -56.5t-102.5 -24.5q-103 0 -161 71t-58 197q0 124 55 196.5t152 72.5q44 0 82.5 -16.5t64.5 -51.5v120h-144v84h144v80h151v-80h44v-84zM388 321q-19 97 -99 97q-49 0 -78.5 -37.5t-29.5 -119.5q0 -84 29.5 -123.5
t77.5 -39.5q43 0 71.5 33.5t28.5 86.5v103z" />
    <glyph glyph-name="Emacron" unicode="&#x112;" horiz-adv-x="638" 
d="M77 723h501l-1 -127h-348v-170h301v-124h-302v-174h354v-128h-505v723zM509 828h-356v96h356v-96z" />
    <glyph glyph-name="emacron" unicode="&#x113;" horiz-adv-x="562" 
d="M212 132.5q29 -33.5 79 -33.5q76 0 101 62l134 -5q-10 -50 -44 -87.5t-83.5 -58t-104.5 -20.5q-77 0 -136 32.5t-91.5 92t-32.5 138.5q0 78 30 140t87.5 98t134.5 36q116 0 178.5 -72t62.5 -191v-40h-344q0 -58 29 -91.5zM387 313q0 47 -26.5 78t-75.5 31
q-46 0 -74 -32.5t-28 -76.5h204zM464 622h-356v96h356v-96z" />
    <glyph glyph-name="Ebreve" unicode="&#x114;" horiz-adv-x="638" 
d="M77 723h501l-1 -127h-348v-170h301v-124h-302v-174h354v-128h-505v723zM443.5 834.5q-47.5 -34.5 -111.5 -34.5q-65 0 -113 33.5t-65 95.5h89q13 -23 36.5 -39t52.5 -16q26 0 50.5 16t36.5 39h90q-18 -60 -65.5 -94.5z" />
    <glyph glyph-name="ebreve" unicode="&#x115;" horiz-adv-x="562" 
d="M212 132.5q29 -33.5 79 -33.5q76 0 101 62l134 -5q-10 -50 -44 -87.5t-83.5 -58t-104.5 -20.5q-77 0 -136 32.5t-91.5 92t-32.5 138.5q0 78 30 140t87.5 98t134.5 36q116 0 178.5 -72t62.5 -191v-40h-344q0 -58 29 -91.5zM387 313q0 47 -26.5 78t-75.5 31
q-46 0 -74 -32.5t-28 -76.5h204zM398.5 628.5q-47.5 -34.5 -111.5 -34.5q-65 0 -113 33.5t-65 95.5h89q13 -23 36.5 -39t52.5 -16q26 0 50.5 16t36.5 39h90q-18 -60 -65.5 -94.5z" />
    <glyph glyph-name="Edotaccent" unicode="&#x116;" horiz-adv-x="638" 
d="M77 723h501l-1 -127h-348v-170h301v-124h-302v-174h354v-128h-505v723zM409 785h-154v144h154v-144z" />
    <glyph glyph-name="edotaccent" unicode="&#x117;" horiz-adv-x="562" 
d="M212 132.5q29 -33.5 79 -33.5q76 0 101 62l134 -5q-10 -50 -44 -87.5t-83.5 -58t-104.5 -20.5q-77 0 -136 32.5t-91.5 92t-32.5 138.5q0 78 30 140t87.5 98t134.5 36q116 0 178.5 -72t62.5 -191v-40h-344q0 -58 29 -91.5zM387 313q0 47 -26.5 78t-75.5 31
q-46 0 -74 -32.5t-28 -76.5h204zM364 579h-154v144h154v-144z" />
    <glyph glyph-name="Eogonek" unicode="&#x118;" horiz-adv-x="638" 
d="M77 723h501l-1 -127h-348v-170h301v-124h-302v-174h354v-128h-505v723zM416.5 -34.5q20.5 22.5 75.5 40.5l105 -2q-52 -19 -72.5 -35.5t-20.5 -36.5q0 -32 36 -32q25 0 57 15q6 3 9 3q6 0 6 -12v-42q0 -10 -9 -14q-13 -7 -40 -13t-57 -6q-52 0 -81 21t-29 61
q0 30 20.5 52.5z" />
    <glyph glyph-name="eogonek" unicode="&#x119;" horiz-adv-x="562" 
d="M212 132.5q29 -33.5 79 -33.5q76 0 101 62l134 -5q-10 -50 -44 -87.5t-83.5 -58t-104.5 -20.5q-77 0 -136 32.5t-91.5 92t-32.5 138.5q0 78 30 140t87.5 98t134.5 36q116 0 178.5 -72t62.5 -191v-40h-344q0 -58 29 -91.5zM387 313q0 47 -26.5 78t-75.5 31
q-46 0 -74 -32.5t-28 -76.5h204zM241.5 -21.5q20.5 22.5 75.5 40.5l105 -2q-52 -19 -72.5 -35.5t-20.5 -36.5q0 -32 36 -32q25 0 57 15q6 3 9 3q6 0 6 -12v-42q0 -10 -9 -14q-13 -7 -40 -13t-57 -6q-52 0 -81 21t-29 61q0 30 20.5 52.5z" />
    <glyph glyph-name="Ecaron" unicode="&#x11a;" horiz-adv-x="638" 
d="M77 723h501l-1 -127h-348v-170h301v-124h-302v-174h354v-128h-505v723zM512 930l-129 -138h-105l-132 138h111l73 -76l65 76h117z" />
    <glyph glyph-name="ecaron" unicode="&#x11b;" horiz-adv-x="562" 
d="M212 132.5q29 -33.5 79 -33.5q76 0 101 62l134 -5q-10 -50 -44 -87.5t-83.5 -58t-104.5 -20.5q-77 0 -136 32.5t-91.5 92t-32.5 138.5q0 78 30 140t87.5 98t134.5 36q116 0 178.5 -72t62.5 -191v-40h-344q0 -58 29 -91.5zM387 313q0 47 -26.5 78t-75.5 31
q-46 0 -74 -32.5t-28 -76.5h204zM467 724l-129 -138h-105l-132 138h111l73 -76l65 76h117z" />
    <glyph glyph-name="Gcircumflex" unicode="&#x11c;" horiz-adv-x="753" 
d="M198 36q-74 46 -114.5 129.5t-40.5 193.5q0 113 42 197.5t118 130.5t175 46q84 0 151 -34t105.5 -90.5t40.5 -120.5l-158 -3q-11 53 -48.5 87t-93.5 34q-76 0 -122 -59.5t-46 -181.5q0 -130 48.5 -186.5t125.5 -56.5q39 0 69 17t47.5 42.5t21.5 51.5l7 43h-148v104
l306 -2v-378h-103v93q-35 -46 -83.5 -74.5t-127.5 -28.5q-98 0 -172 46zM370 875l-73 -75h-111l133 136h104l129 -136h-117z" />
    <glyph glyph-name="gcircumflex" unicode="&#x11d;" horiz-adv-x="632" 
d="M98 -136.5q-73 34.5 -73 91.5q0 39 28.5 60t48.5 28t23 8q-4 2 -21.5 11.5t-30 26.5t-12.5 40q0 29 27.5 52t79.5 32q-52 25 -78.5 64.5t-26.5 85.5q0 76 70 119t177 43q49 0 83.5 -10t66.5 -30q59 22 154 61l-1 -115l-89 -14q4 -13 7.5 -29t3.5 -24q0 -45 -27 -84.5
t-80.5 -63.5t-128.5 -24l-52 2q-48 -3 -48 -20q0 -11 20 -15t70 -7q43 -3 60 -4l47 -3q95 -6 142.5 -46t47.5 -102q0 -76 -72.5 -122t-205.5 -46q-137 0 -210 34.5zM369.5 298q23.5 22 23.5 60q0 39 -24 63.5t-65 24.5t-65.5 -24.5t-24.5 -63.5q0 -38 24 -60t66 -22t65.5 22
zM417 -73.5q25 13.5 25 41.5q0 48 -77 54l-116 7q-34 2 -55.5 -15t-21.5 -41q0 -32 39 -46t121 -14q60 0 85 13.5zM309 669l-73 -75h-111l133 136h104l129 -136h-117z" />
    <glyph glyph-name="Gbreve" unicode="&#x11e;" horiz-adv-x="753" 
d="M198 36q-74 46 -114.5 129.5t-40.5 193.5q0 113 42 197.5t118 130.5t175 46q84 0 151 -34t105.5 -90.5t40.5 -120.5l-158 -3q-11 53 -48.5 87t-93.5 34q-76 0 -122 -59.5t-46 -181.5q0 -130 48.5 -186.5t125.5 -56.5q39 0 69 17t47.5 42.5t21.5 51.5l7 43h-148v104
l306 -2v-378h-103v93q-35 -46 -83.5 -74.5t-127.5 -28.5q-98 0 -172 46zM483.5 834.5q-47.5 -34.5 -111.5 -34.5q-65 0 -113 33.5t-65 95.5h89q13 -23 36.5 -39t52.5 -16q26 0 50.5 16t36.5 39h90q-18 -60 -65.5 -94.5z" />
    <glyph glyph-name="gbreve" unicode="&#x11f;" horiz-adv-x="632" 
d="M98 -136.5q-73 34.5 -73 91.5q0 39 28.5 60t48.5 28t23 8q-4 2 -21.5 11.5t-30 26.5t-12.5 40q0 29 27.5 52t79.5 32q-52 25 -78.5 64.5t-26.5 85.5q0 76 70 119t177 43q49 0 83.5 -10t66.5 -30q59 22 154 61l-1 -115l-89 -14q4 -13 7.5 -29t3.5 -24q0 -45 -27 -84.5
t-80.5 -63.5t-128.5 -24l-52 2q-48 -3 -48 -20q0 -11 20 -15t70 -7q43 -3 60 -4l47 -3q95 -6 142.5 -46t47.5 -102q0 -76 -72.5 -122t-205.5 -46q-137 0 -210 34.5zM369.5 298q23.5 22 23.5 60q0 39 -24 63.5t-65 24.5t-65.5 -24.5t-24.5 -63.5q0 -38 24 -60t66 -22t65.5 22
zM417 -73.5q25 13.5 25 41.5q0 48 -77 54l-116 7q-34 2 -55.5 -15t-21.5 -41q0 -32 39 -46t121 -14q60 0 85 13.5zM422.5 628.5q-47.5 -34.5 -111.5 -34.5q-65 0 -113 33.5t-65 95.5h89q13 -23 36.5 -39t52.5 -16q26 0 50.5 16t36.5 39h90q-18 -60 -65.5 -94.5z" />
    <glyph glyph-name="Gdotaccent" unicode="&#x120;" horiz-adv-x="753" 
d="M198 36q-74 46 -114.5 129.5t-40.5 193.5q0 113 42 197.5t118 130.5t175 46q84 0 151 -34t105.5 -90.5t40.5 -120.5l-158 -3q-11 53 -48.5 87t-93.5 34q-76 0 -122 -59.5t-46 -181.5q0 -130 48.5 -186.5t125.5 -56.5q39 0 69 17t47.5 42.5t21.5 51.5l7 43h-148v104
l306 -2v-378h-103v93q-35 -46 -83.5 -74.5t-127.5 -28.5q-98 0 -172 46zM449 785h-154v144h154v-144z" />
    <glyph glyph-name="gdotaccent" unicode="&#x121;" horiz-adv-x="632" 
d="M98 -136.5q-73 34.5 -73 91.5q0 39 28.5 60t48.5 28t23 8q-4 2 -21.5 11.5t-30 26.5t-12.5 40q0 29 27.5 52t79.5 32q-52 25 -78.5 64.5t-26.5 85.5q0 76 70 119t177 43q49 0 83.5 -10t66.5 -30q59 22 154 61l-1 -115l-89 -14q4 -13 7.5 -29t3.5 -24q0 -45 -27 -84.5
t-80.5 -63.5t-128.5 -24l-52 2q-48 -3 -48 -20q0 -11 20 -15t70 -7q43 -3 60 -4l47 -3q95 -6 142.5 -46t47.5 -102q0 -76 -72.5 -122t-205.5 -46q-137 0 -210 34.5zM369.5 298q23.5 22 23.5 60q0 39 -24 63.5t-65 24.5t-65.5 -24.5t-24.5 -63.5q0 -38 24 -60t66 -22t65.5 22
zM417 -73.5q25 13.5 25 41.5q0 48 -77 54l-116 7q-34 2 -55.5 -15t-21.5 -41q0 -32 39 -46t121 -14q60 0 85 13.5zM388 579h-154v144h154v-144z" />
    <glyph glyph-name="Gcommaaccent" unicode="&#x122;" horiz-adv-x="753" 
d="M198 36q-74 46 -114.5 129.5t-40.5 193.5q0 113 42 197.5t118 130.5t175 46q84 0 151 -34t105.5 -90.5t40.5 -120.5l-158 -3q-11 53 -48.5 87t-93.5 34q-76 0 -122 -59.5t-46 -181.5q0 -130 48.5 -186.5t125.5 -56.5q39 0 69 17t47.5 42.5t21.5 51.5l7 43h-148v104
l306 -2v-378h-103v93q-35 -46 -83.5 -74.5t-127.5 -28.5q-98 0 -172 46zM324 -231.5q-3 5.5 0 10.5l31 47q4 5 4 11q0 5 -3.5 8t-8.5 3h-8q-10 0 -14 4t-4 14v61q0 16 14 16h78q13 0 13 -13v-82q0 -2 -3 -11l-46 -62q-4 -7 -9.5 -9.5t-17.5 -2.5h-16q-7 0 -10 5.5z" />
    <glyph glyph-name="gcommaaccent" unicode="&#x123;" horiz-adv-x="632" 
d="M232 695l58 78h56l-58 -85h50v-95h-106v102zM98 -136.5q-73 34.5 -73 91.5q0 39 28.5 60t48.5 28t23 8q-4 2 -21.5 11.5t-30 26.5t-12.5 40q0 29 27.5 52t79.5 32q-52 25 -78.5 64.5t-26.5 85.5q0 76 70 119t177 43q49 0 83.5 -10t66.5 -30q59 22 154 61l-1 -115l-89 -14
q4 -13 7.5 -29t3.5 -24q0 -45 -27 -84.5t-80.5 -63.5t-128.5 -24l-52 2q-48 -3 -48 -20q0 -11 20 -15t70 -7q43 -3 60 -4l47 -3q95 -6 142.5 -46t47.5 -102q0 -76 -72.5 -122t-205.5 -46q-137 0 -210 34.5zM369.5 298q23.5 22 23.5 60q0 39 -24 63.5t-65 24.5t-65.5 -24.5
t-24.5 -63.5q0 -38 24 -60t66 -22t65.5 22zM417 -73.5q25 13.5 25 41.5q0 48 -77 54l-116 7q-34 2 -55.5 -15t-21.5 -41q0 -32 39 -46t121 -14q60 0 85 13.5z" />
    <glyph glyph-name="Hcircumflex" unicode="&#x124;" horiz-adv-x="726" 
d="M228 309v-309h-151v723h151v-289h270v289h151v-723h-151v309h-270zM360 875l-73 -75h-111l133 136h104l129 -136h-117z" />
    <glyph glyph-name="hcircumflex" unicode="&#x125;" horiz-adv-x="609" 
d="M66 743h148v-294q28 26 46.5 40t45 22.5t63.5 8.5q49 0 89 -20.5t63 -58t23 -85.5v-356h-152v336q0 31 -21.5 49t-55.5 18q-31 0 -56 -15.5t-42 -44.5v-343h-151v743zM411 669l-73 -75h-111l133 136h104l129 -136h-117z" />
    <glyph glyph-name="Hbar" unicode="&#x126;" horiz-adv-x="770" 
d="M753.5 627q3.5 -4 3.5 -11v-48q0 -11 -5.5 -16t-17.5 -5h-58v-547h-151v309h-270v-309h-151v547h-80q-18 0 -18 19v48q0 17 13 17h85v92h151v-92h270v92h151v-92h68q6 0 9.5 -4zM525 547h-270v-113h270v113z" />
    <glyph glyph-name="hbar" unicode="&#x127;" horiz-adv-x="621" 
d="M470 499.5q40 -20.5 63 -58t23 -85.5v-356h-152v336q0 31 -21.5 49t-55.5 18q-31 0 -56 -15.5t-42 -44.5v-343h-151v579h-65v84h65v80h148v-80h125v-84h-125v-130q28 26 46.5 40t45 22.5t63.5 8.5q49 0 89 -20.5z" />
    <glyph glyph-name="Itilde" unicode="&#x128;" horiz-adv-x="305" 
d="M228 723v-723h-151v723h151zM278 825q-23 -8 -49 -8q-19 0 -33.5 3.5t-41.5 11.5q-17 5 -35 9.5t-35 4.5q-20 0 -33.5 -5t-31.5 -18q-7 -5 -10 -5q-6 0 -9 11l-14 43q-2 6 -2 9q0 6 8 14q19 17 39 26.5t48 9.5q20 0 38.5 -4.5t44.5 -12.5q17 -5 34.5 -9.5t31.5 -4.5
q19 0 35 6.5t33 17.5q5 4 11 4q7 0 10 -10l11 -51q1 -2 1 -7q0 -8 -11 -16q-17 -11 -40 -19z" />
    <glyph glyph-name="itilde" unicode="&#x129;" horiz-adv-x="282" 
d="M217 0h-151v517h151v-517zM268 619q-23 -8 -49 -8q-19 0 -33.5 3.5t-41.5 11.5q-17 5 -35 9.5t-35 4.5q-20 0 -33.5 -5t-31.5 -18q-7 -5 -10 -5q-6 0 -9 11l-14 43q-2 6 -2 9q0 6 8 14q19 17 39 26.5t48 9.5q20 0 38.5 -4.5t44.5 -12.5q17 -5 34.5 -9.5t31.5 -4.5
q19 0 35 6.5t33 17.5q5 4 11 4q7 0 10 -10l11 -51q1 -2 1 -7q0 -8 -11 -16q-17 -11 -40 -19z" />
    <glyph glyph-name="Imacron" unicode="&#x12a;" horiz-adv-x="305" 
d="M228 723v-723h-151v723h151zM332 828h-356v96h356v-96z" />
    <glyph glyph-name="imacron" unicode="&#x12b;" horiz-adv-x="282" 
d="M217 0h-151v517h151v-517zM322 622h-356v96h356v-96z" />
    <glyph glyph-name="Ibreve" unicode="&#x12c;" horiz-adv-x="305" 
d="M228 723v-723h-151v723h151zM266.5 834.5q-47.5 -34.5 -111.5 -34.5q-65 0 -113 33.5t-65 95.5h89q13 -23 36.5 -39t52.5 -16q26 0 50.5 16t36.5 39h90q-18 -60 -65.5 -94.5z" />
    <glyph glyph-name="ibreve" unicode="&#x12d;" horiz-adv-x="282" 
d="M217 0h-151v517h151v-517zM256.5 628.5q-47.5 -34.5 -111.5 -34.5q-65 0 -113 33.5t-65 95.5h89q13 -23 36.5 -39t52.5 -16q26 0 50.5 16t36.5 39h90q-18 -60 -65.5 -94.5z" />
    <glyph glyph-name="Iogonek" unicode="&#x12e;" horiz-adv-x="305" 
d="M228 723v-723h-151v723h151zM46.5 -39.5q20.5 22.5 75.5 40.5l105 -2q-52 -19 -72.5 -35.5t-20.5 -36.5q0 -32 36 -32q25 0 57 15q6 3 9 3q6 0 6 -12v-42q0 -10 -9 -14q-13 -7 -40 -13t-57 -6q-52 0 -81 21t-29 61q0 30 20.5 52.5z" />
    <glyph glyph-name="iogonek" unicode="&#x12f;" horiz-adv-x="282" 
d="M217 0h-151v517h151v-517zM222 579h-154v144h154v-144zM31.5 -34.5q20.5 22.5 75.5 40.5l105 -2q-52 -19 -72.5 -35.5t-20.5 -36.5q0 -32 36 -32q25 0 57 15q6 3 9 3q6 0 6 -12v-42q0 -10 -9 -14q-13 -7 -40 -13t-57 -6q-52 0 -81 21t-29 61q0 30 20.5 52.5z" />
    <glyph glyph-name="Idotaccent" unicode="&#x130;" horiz-adv-x="305" 
d="M228 723v-723h-151v723h151zM232 785h-154v144h154v-144z" />
    <glyph glyph-name="dotlessi" unicode="&#x131;" horiz-adv-x="282" 
d="M217 0h-151v517h151v-517z" />
    <glyph glyph-name="IJ" unicode="&#x132;" horiz-adv-x="717" 
d="M228 723v-723h-151v723h151zM624 83q-16 -46 -57 -69.5t-115 -23.5q-32 0 -68.5 5t-56.5 10l3 138q7 -1 28.5 -6.5t44.5 -5.5q50 0 68 25.5t18 87.5v479h151v-519q0 -75 -16 -121z" />
    <glyph glyph-name="ij" unicode="&#x133;" horiz-adv-x="580" 
d="M219 598h-153v145h153v-145zM218 0h-151v517h151v-517zM511 598h-154v145h154v-145zM466.5 -123.5q-42.5 -42.5 -134.5 -42.5q-24 0 -38.5 3.5t-20.5 7t-7 4.5l-1 100l39 4q31 4 42.5 16.5t11.5 37.5v510h151v-511q0 -87 -42.5 -129.5z" />
    <glyph glyph-name="Jcircumflex" unicode="&#x134;" horiz-adv-x="412" 
d="M319 83q-16 -46 -57 -69.5t-115 -23.5q-32 0 -68.5 5t-56.5 10l3 138q7 -1 28.5 -6.5t44.5 -5.5q50 0 68 25.5t18 87.5v479h151v-519q0 -75 -16 -121zM224 875l-73 -75h-111l133 136h104l129 -136h-117z" />
    <glyph glyph-name="jcircumflex" unicode="&#x135;" horiz-adv-x="276" 
d="M167.5 -123q-43.5 -43 -135.5 -43q-34 0 -49.5 5.5t-15.5 9.5l-1 100l39 4q30 4 42.5 17t12.5 37v510h151v-511q0 -86 -43.5 -129zM134 669l-73 -75h-111l133 136h104l129 -136h-117z" />
    <glyph glyph-name="Kcommaaccent" unicode="&#x136;" horiz-adv-x="716" 
d="M528 0l-189 334l-105 -128v-206h-157v723h157v-327l258 327h173l-217 -279l244 -444h-164zM300 -231.5q-3 5.5 0 10.5l31 47q4 5 4 11q0 5 -3.5 8t-8.5 3h-8q-10 0 -14 4t-4 14v61q0 16 14 16h78q13 0 13 -13v-82q0 -2 -3 -11l-46 -62q-4 -7 -9.5 -9.5t-17.5 -2.5h-16
q-7 0 -10 5.5z" />
    <glyph glyph-name="kcommaaccent" unicode="&#x137;" horiz-adv-x="592" 
d="M420 0l-138 220l-65 -71v-149h-151v743h151v-444l193 218h153l-187 -207l193 -310h-149zM248 -231.5q-3 5.5 0 10.5l31 47q4 5 4 11q0 5 -3.5 8t-8.5 3h-8q-10 0 -14 4t-4 14v61q0 16 14 16h78q13 0 13 -13v-82q0 -2 -3 -11l-46 -62q-4 -7 -9.5 -9.5t-17.5 -2.5h-16
q-7 0 -10 5.5z" />
    <glyph glyph-name="kgreenlandic" unicode="&#x138;" horiz-adv-x="614" 
d="M420 0l-115 235l-88 -86v-149h-151v517h151v-225l207 225h152l-171 -173l187 -344h-172z" />
    <glyph glyph-name="Lacute" unicode="&#x139;" horiz-adv-x="566" 
d="M229 723v-596h312v-127h-464v723h152zM291 842l-266 -69l-21 64l254 103z" />
    <glyph glyph-name="lacute" unicode="&#x13a;" horiz-adv-x="324" 
d="M124 14q-37 22 -47.5 54.5t-10.5 79.5v595h148v-577q0 -30 13 -46.5t45 -20.5l24 -1v-93q-37 -13 -62 -13q-73 0 -110 22zM284 883l-266 -69l-21 64l254 103z" />
    <glyph glyph-name="Lcommaaccent" unicode="&#x13b;" horiz-adv-x="566" 
d="M229 723v-596h312v-127h-464v723h152zM256 -231.5q-3 5.5 0 10.5l31 47q4 5 4 11q0 5 -3.5 8t-8.5 3h-8q-10 0 -14 4t-4 14v61q0 16 14 16h78q13 0 13 -13v-82q0 -2 -3 -11l-46 -62q-4 -7 -9.5 -9.5t-17.5 -2.5h-16q-7 0 -10 5.5z" />
    <glyph glyph-name="lcommaaccent" unicode="&#x13c;" horiz-adv-x="324" 
d="M124 14q-37 22 -47.5 54.5t-10.5 79.5v595h148v-577q0 -30 13 -46.5t45 -20.5l24 -1v-93q-37 -13 -62 -13q-73 0 -110 22zM81 -231.5q-3 5.5 0 10.5l31 47q4 5 4 11q0 5 -3.5 8t-8.5 3h-8q-10 0 -14 4t-4 14v61q0 16 14 16h78q13 0 13 -13v-82q0 -2 -3 -11l-46 -62
q-4 -7 -9.5 -9.5t-17.5 -2.5h-16q-7 0 -10 5.5z" />
    <glyph glyph-name="Lcaron" unicode="&#x13d;" horiz-adv-x="566" 
d="M229 723v-596h312v-127h-464v723h152zM374.5 507q-2.5 4 -0.5 8l30 73l2 10q0 7 -8 8l-10 2q-8 1 -11.5 3.5t-3.5 9.5v90q0 12 11 12h80q11 0 11 -10v-105q0 -3 -1 -5t-1 -3l-36 -85q-2 -7 -7.5 -9.5t-17.5 -2.5h-30q-5 0 -7.5 4z" />
    <glyph glyph-name="lcaron" unicode="&#x13e;" horiz-adv-x="324" 
d="M124 14q-37 22 -47.5 54.5t-10.5 79.5v595h148v-577q0 -30 13 -46.5t45 -20.5l24 -1v-93q-37 -13 -62 -13q-73 0 -110 22zM264.5 537q-2.5 4 -0.5 8l30 73l2 10q0 7 -8 8l-10 2q-8 1 -11.5 3.5t-3.5 9.5v90q0 12 11 12h80q11 0 11 -10v-105q0 -3 -1 -5t-1 -3l-36 -85
q-2 -7 -7.5 -9.5t-17.5 -2.5h-30q-5 0 -7.5 4z" />
    <glyph glyph-name="Ldot" unicode="&#x13f;" horiz-adv-x="605" 
d="M229 723v-596h312v-127h-464v723h152zM561 328h-153v147h153v-147z" />
    <glyph glyph-name="ldot" unicode="&#x140;" horiz-adv-x="408" 
d="M124 14q-37 22 -47.5 54.5t-10.5 79.5v595h148v-577q0 -30 13 -46.5t45 -20.5l24 -1v-93q-37 -13 -62 -13q-73 0 -110 22zM421 208h-153v147h153v-147z" />
    <glyph glyph-name="Lslash" unicode="&#x141;" horiz-adv-x="575" 
d="M551 127v-127h-464v304l-59 -16q-4 -1 -9 -1q-6 0 -8.5 3.5t-2.5 11.5v90q0 16 15 19l64 17v295h152v-254l144 38q3 1 7 1q12 0 12 -15v-86q0 -15 -16 -19l-147 -41v-220h312z" />
    <glyph glyph-name="lslash" unicode="&#x142;" horiz-adv-x="334" 
d="M337 98v-93q-37 -13 -62 -13q-73 0 -110 22t-47.5 54.5t-10.5 79.5v65l-87 -63v129l87 60v404h148v-301l57 40v-122l-57 -41v-153q0 -30 13 -46.5t45 -20.5z" />
    <glyph glyph-name="Nacute" unicode="&#x143;" horiz-adv-x="780" 
d="M703 723v-723h-136l-339 491v-491h-151v723h150l325 -471v471h151zM538 842l-266 -69l-21 64l254 103z" />
    <glyph glyph-name="nacute" unicode="&#x144;" 
d="M66 517h148v-66q28 34 60.5 52t88.5 18q48 0 89.5 -22t66.5 -62t25 -92v-345h-151v326q0 36 -23.5 56.5t-59.5 20.5q-38 0 -65.5 -18.5t-27.5 -51.5v-333h-151v517zM452 636l-266 -69l-21 64l254 103z" />
    <glyph glyph-name="Ncommaaccent" unicode="&#x145;" horiz-adv-x="780" 
d="M703 723v-723h-136l-339 491v-491h-151v723h150l325 -471v471h151zM334 -231.5q-3 5.5 0 10.5l31 47q4 5 4 11q0 5 -3.5 8t-8.5 3h-8q-10 0 -14 4t-4 14v61q0 16 14 16h78q13 0 13 -13v-82q0 -2 -3 -11l-46 -62q-4 -7 -9.5 -9.5t-17.5 -2.5h-16q-7 0 -10 5.5z" />
    <glyph glyph-name="ncommaaccent" unicode="&#x146;" 
d="M66 517h148v-66q28 34 60.5 52t88.5 18q48 0 89.5 -22t66.5 -62t25 -92v-345h-151v326q0 36 -23.5 56.5t-59.5 20.5q-38 0 -65.5 -18.5t-27.5 -51.5v-333h-151v517zM256 -231.5q-3 5.5 0 10.5l31 47q4 5 4 11q0 5 -3.5 8t-8.5 3h-8q-10 0 -14 4t-4 14v61q0 16 14 16h78
q13 0 13 -13v-82q0 -2 -3 -11l-46 -62q-4 -7 -9.5 -9.5t-17.5 -2.5h-16q-7 0 -10 5.5z" />
    <glyph glyph-name="Ncaron" unicode="&#x147;" horiz-adv-x="780" 
d="M703 723v-723h-136l-339 491v-491h-151v723h150l325 -471v471h151zM575 930l-129 -138h-105l-132 138h111l73 -76l65 76h117z" />
    <glyph glyph-name="ncaron" unicode="&#x148;" 
d="M66 517h148v-66q28 34 60.5 52t88.5 18q48 0 89.5 -22t66.5 -62t25 -92v-345h-151v326q0 36 -23.5 56.5t-59.5 20.5q-38 0 -65.5 -18.5t-27.5 -51.5v-333h-151v517zM489 724l-129 -138h-105l-132 138h111l73 -76l65 76h117z" />
    <glyph glyph-name="napostrophe" unicode="&#x149;" horiz-adv-x="716" 
d="M42.5 447q-2.5 4 -1.5 8l30 109q2 8 2 10q0 6 -7 7l-10 1q-8 1 -11.5 4.5t-3.5 10.5v114q0 12 12 12h81q10 0 10 -10v-131q0 -4 -2 -8l-36 -119q-2 -7 -7.5 -9.5t-16.5 -2.5h-32q-5 0 -7.5 4zM172 517h148v-66q28 34 60.5 52t88.5 18q48 0 89.5 -22t66.5 -62t25 -92v-345
h-151v326q0 36 -23.5 56.5t-59.5 20.5q-38 0 -65.5 -18.5t-27.5 -51.5v-333h-151v517z" />
    <glyph glyph-name="Eng" unicode="&#x14a;" horiz-adv-x="759" 
d="M682 709v-689q0 -99 -48.5 -145t-149.5 -46q-52 0 -113 13q-13 2 -18.5 9.5t-4.5 23.5l7 86q2 21 19 18q5 -1 24.5 -5t37.5 -4q36 0 56.5 19t21.5 62v21l-286 375q-4 6 -6.5 5.5t-2.5 -6.5v-428v-3q0 -8 -4.5 -11.5t-15.5 -3.5h-101q-21 0 -21 17v688q0 18 18 18h120
q11 0 15.5 -2.5t12.5 -11.5l285 -379q6 -7 10 -7q5 0 5 10v373q0 17 18 17h108q13 0 13 -14z" />
    <glyph glyph-name="eng" unicode="&#x14b;" horiz-adv-x="614" 
d="M323 -162q-13 4 -13 8v104l32 2q28 3 40 15t12 38v343q0 32 -18.5 50.5t-53.5 18.5q-57 0 -104 -61v-356h-152l2 517h147v-80q44 45 86.5 67.5t89.5 22.5q70 0 112 -42t42 -112v-364q0 -81 -47 -128t-127 -47q-35 0 -48 4z" />
    <glyph glyph-name="Omacron" unicode="&#x14c;" horiz-adv-x="754" 
d="M199.5 34.5q-75.5 44.5 -116 127.5t-40.5 197q0 115 41.5 199.5t117 129.5t176.5 45q100 0 175.5 -45t116.5 -129.5t41 -198.5q0 -113 -40.5 -196.5t-116 -128.5t-176.5 -45q-103 0 -178.5 44.5zM547 358q0 129 -44 190t-125 61t-125.5 -61t-44.5 -190q0 -126 44.5 -185
t125.5 -59q169 0 169 244zM556 828h-356v96h356v-96z" />
    <glyph glyph-name="omacron" unicode="&#x14d;" horiz-adv-x="571" 
d="M152 23.5q-57 33.5 -87.5 93.5t-30.5 138q0 80 31.5 142t88.5 96t132 34q76 0 133 -34.5t87.5 -96t30.5 -140.5q0 -78 -30.5 -138.5t-87.5 -94t-134 -33.5q-76 0 -133 33.5zM365 147.5q24 45.5 24 113.5q0 67 -24.5 111t-78.5 44q-55 0 -79.5 -44t-24.5 -111t24.5 -113
t79.5 -46t79 45.5zM464 622h-356v96h356v-96z" />
    <glyph glyph-name="Obreve" unicode="&#x14e;" horiz-adv-x="754" 
d="M199.5 34.5q-75.5 44.5 -116 127.5t-40.5 197q0 115 41.5 199.5t117 129.5t176.5 45q100 0 175.5 -45t116.5 -129.5t41 -198.5q0 -113 -40.5 -196.5t-116 -128.5t-176.5 -45q-103 0 -178.5 44.5zM547 358q0 129 -44 190t-125 61t-125.5 -61t-44.5 -190q0 -126 44.5 -185
t125.5 -59q169 0 169 244zM490.5 834.5q-47.5 -34.5 -111.5 -34.5q-65 0 -113 33.5t-65 95.5h89q13 -23 36.5 -39t52.5 -16q26 0 50.5 16t36.5 39h90q-18 -60 -65.5 -94.5z" />
    <glyph glyph-name="obreve" unicode="&#x14f;" horiz-adv-x="571" 
d="M152 23.5q-57 33.5 -87.5 93.5t-30.5 138q0 80 31.5 142t88.5 96t132 34q76 0 133 -34.5t87.5 -96t30.5 -140.5q0 -78 -30.5 -138.5t-87.5 -94t-134 -33.5q-76 0 -133 33.5zM365 147.5q24 45.5 24 113.5q0 67 -24.5 111t-78.5 44q-55 0 -79.5 -44t-24.5 -111t24.5 -113
t79.5 -46t79 45.5zM398.5 628.5q-47.5 -34.5 -111.5 -34.5q-65 0 -113 33.5t-65 95.5h89q13 -23 36.5 -39t52.5 -16q26 0 50.5 16t36.5 39h90q-18 -60 -65.5 -94.5z" />
    <glyph glyph-name="Ohungarumlaut" unicode="&#x150;" horiz-adv-x="754" 
d="M199.5 34.5q-75.5 44.5 -116 127.5t-40.5 197q0 115 41.5 199.5t117 129.5t176.5 45q100 0 175.5 -45t116.5 -129.5t41 -198.5q0 -113 -40.5 -196.5t-116 -128.5t-176.5 -45q-103 0 -178.5 44.5zM547 358q0 129 -44 190t-125 61t-125.5 -61t-44.5 -190q0 -126 44.5 -185
t125.5 -59q169 0 169 244zM389 882q7 -9 7 -15q0 -8 -11 -14l-134 -89q-11 -6 -15 -6q-6 0 -10 7l-27 28q-6 6 -6 12q0 4 4 8l131 120q6 4 10 4q6 0 9 -6zM581 882q7 -9 7 -15q0 -8 -11 -14l-134 -89q-9 -6 -15 -6q-5 0 -11 7l-25 28q-6 6 -6 12q0 5 4 8l130 120q6 4 10 4
q5 0 10 -6z" />
    <glyph glyph-name="ohungarumlaut" unicode="&#x151;" horiz-adv-x="571" 
d="M152 23.5q-57 33.5 -87.5 93.5t-30.5 138q0 80 31.5 142t88.5 96t132 34q76 0 133 -34.5t87.5 -96t30.5 -140.5q0 -78 -30.5 -138.5t-87.5 -94t-134 -33.5q-76 0 -133 33.5zM365 147.5q24 45.5 24 113.5q0 67 -24.5 111t-78.5 44q-55 0 -79.5 -44t-24.5 -111t24.5 -113
t79.5 -46t79 45.5zM297 676q7 -9 7 -15q0 -8 -11 -14l-134 -89q-11 -6 -15 -6q-6 0 -10 7l-27 28q-6 6 -6 12q0 4 4 8l131 120q6 4 10 4q6 0 9 -6zM489 676q7 -9 7 -15q0 -8 -11 -14l-134 -89q-9 -6 -15 -6q-5 0 -11 7l-25 28q-6 6 -6 12q0 5 4 8l130 120q6 4 10 4
q5 0 10 -6z" />
    <glyph glyph-name="OE" unicode="&#x152;" horiz-adv-x="1118" 
d="M1062 0h-472l-35 39q-61 -49 -169 -49q-107 0 -184 44.5t-118 127.5t-41 197q0 115 42 199.5t121.5 129.5t188.5 45q104 0 160 -49l43 39h454l-1 -125h-348v-172h235v-124h-235v-176h359v-126zM494 169q36 58 36 189q0 133 -36.5 194.5t-115.5 61.5q-80 0 -117.5 -61.5
t-37.5 -194.5q0 -130 37 -188.5t118 -58.5q80 0 116 58z" />
    <glyph glyph-name="oe" unicode="&#x153;" horiz-adv-x="949" 
d="M159.5 23.5q-59.5 33.5 -92.5 94t-33 137.5q0 80 34 142t94 96t135 34q54 0 98.5 -19t76.5 -53q8 -6 11 -6q5 0 11 6q31 34 74.5 53t93.5 19q75 0 132.5 -35.5t89.5 -102.5t32 -159h-359q0 -62 36 -99.5t91 -37.5q36 0 67 17t64 55l94 -41q-48 -75 -104 -104.5
t-140 -29.5q-53 0 -98.5 18.5t-78.5 52.5q-3 4 -7 4t-10 -6q-33 -33 -77.5 -51t-97.5 -18q-77 0 -136.5 33.5zM589.5 401q-31.5 -32 -30.5 -88l210 -1q0 28 -12 56t-35 46.5t-54 18.5q-47 0 -78.5 -32zM377.5 133.5q27.5 42.5 27.5 124.5q0 84 -27.5 127.5t-80.5 43.5
t-81.5 -43.5t-28.5 -127.5q0 -82 28.5 -124.5t81.5 -42.5t80.5 42.5z" />
    <glyph glyph-name="Racute" unicode="&#x154;" horiz-adv-x="695" 
d="M486 0l-116 276h-142v-276h-151v723h308q126 0 188 -58.5t62 -159.5q0 -79 -34 -127t-92 -77l133 -301h-156zM448.5 422q33.5 31 33.5 80q0 48 -32 77t-82 29h-140v-217h131q56 0 89.5 31zM483 842l-266 -69l-21 64l254 103z" />
    <glyph glyph-name="racute" unicode="&#x155;" horiz-adv-x="423" 
d="M66 517h145v-129q22 61 69.5 100t110.5 39l1 -143q-10 1 -29 1q-74 0 -110 -32.5t-36 -78.5v-274h-151v517zM374 636l-266 -69l-21 64l254 103z" />
    <glyph glyph-name="Rcommaaccent" unicode="&#x156;" horiz-adv-x="695" 
d="M486 0l-116 276h-142v-276h-151v723h308q126 0 188 -58.5t62 -159.5q0 -79 -34 -127t-92 -77l133 -301h-156zM448.5 422q33.5 31 33.5 80q0 48 -32 77t-82 29h-140v-217h131q56 0 89.5 31zM299 -231.5q-3 5.5 0 10.5l31 47q4 5 4 11q0 5 -3.5 8t-8.5 3h-8q-10 0 -14 4
t-4 14v61q0 16 14 16h78q13 0 13 -13v-82q0 -2 -3 -11l-46 -62q-4 -7 -9.5 -9.5t-17.5 -2.5h-16q-7 0 -10 5.5z" />
    <glyph glyph-name="rcommaaccent" unicode="&#x157;" horiz-adv-x="423" 
d="M66 517h145v-129q22 61 69.5 100t110.5 39l1 -143q-10 1 -29 1q-74 0 -110 -32.5t-36 -78.5v-274h-151v517zM100 -231.5q-3 5.5 0 10.5l31 47q4 5 4 11q0 5 -3.5 8t-8.5 3h-8q-10 0 -14 4t-4 14v61q0 16 14 16h78q13 0 13 -13v-82q0 -2 -3 -11l-46 -62q-4 -7 -9.5 -9.5
t-17.5 -2.5h-16q-7 0 -10 5.5z" />
    <glyph glyph-name="Rcaron" unicode="&#x158;" horiz-adv-x="695" 
d="M486 0l-116 276h-142v-276h-151v723h308q126 0 188 -58.5t62 -159.5q0 -79 -34 -127t-92 -77l133 -301h-156zM448.5 422q33.5 31 33.5 80q0 48 -32 77t-82 29h-140v-217h131q56 0 89.5 31zM520 930l-129 -138h-105l-132 138h111l73 -76l65 76h117z" />
    <glyph glyph-name="rcaron" unicode="&#x159;" horiz-adv-x="423" 
d="M66 517h145v-129q22 61 69.5 100t110.5 39l1 -143q-10 1 -29 1q-74 0 -110 -32.5t-36 -78.5v-274h-151v517zM411 724l-129 -138h-105l-132 138h111l73 -76l65 76h117z" />
    <glyph glyph-name="Sacute" unicode="&#x15a;" horiz-adv-x="696" 
d="M209 14q-68 24 -113.5 72.5t-52.5 118.5l157 3q10 -48 51.5 -74t101.5 -26q63 0 104 22.5t41 66.5q0 37 -32 56.5t-92 31.5l-126 25q-86 15 -135 66.5t-49 135.5q0 66 37.5 116t103 77t145.5 27q84 0 149 -30t103 -80t44 -108l-153 -2q-14 101 -141 101q-58 0 -92 -24
t-34 -62q0 -32 21.5 -51.5t77.5 -31.5l125 -25q122 -23 163 -84t41 -138q0 -58 -38 -105.5t-106.5 -74.5t-156.5 -27q-76 0 -144 24zM494 842l-266 -69l-21 64l254 103z" />
    <glyph glyph-name="sacute" unicode="&#x15b;" horiz-adv-x="519" 
d="M110 30.5q-65 40.5 -79 121.5l125 5q12 -36 40 -50t69 -14q43 0 68.5 14t25.5 38q0 20 -17 32.5t-52 20.5l-89 17q-153 30 -154 148q0 48 26 85t75.5 58t117.5 21q100 0 159 -44.5t58 -117.5l-125 -3q-13 66 -96 66q-82 0 -82 -54q0 -17 18.5 -29t63.5 -21l82 -18
q80 -19 112 -63t32 -90q0 -76 -63 -119.5t-162 -43.5q-88 0 -153 40.5zM406 636l-266 -69l-21 64l254 103z" />
    <glyph glyph-name="Scircumflex" unicode="&#x15c;" horiz-adv-x="696" 
d="M209 14q-68 24 -113.5 72.5t-52.5 118.5l157 3q10 -48 51.5 -74t101.5 -26q63 0 104 22.5t41 66.5q0 37 -32 56.5t-92 31.5l-126 25q-86 15 -135 66.5t-49 135.5q0 66 37.5 116t103 77t145.5 27q84 0 149 -30t103 -80t44 -108l-153 -2q-14 101 -141 101q-58 0 -92 -24
t-34 -62q0 -32 21.5 -51.5t77.5 -31.5l125 -25q122 -23 163 -84t41 -138q0 -58 -38 -105.5t-106.5 -74.5t-156.5 -27q-76 0 -144 24zM349 875l-73 -75h-111l133 136h104l129 -136h-117z" />
    <glyph glyph-name="scircumflex" unicode="&#x15d;" horiz-adv-x="519" 
d="M110 30.5q-65 40.5 -79 121.5l125 5q12 -36 40 -50t69 -14q43 0 68.5 14t25.5 38q0 20 -17 32.5t-52 20.5l-89 17q-153 30 -154 148q0 48 26 85t75.5 58t117.5 21q100 0 159 -44.5t58 -117.5l-125 -3q-13 66 -96 66q-82 0 -82 -54q0 -17 18.5 -29t63.5 -21l82 -18
q80 -19 112 -63t32 -90q0 -76 -63 -119.5t-162 -43.5q-88 0 -153 40.5zM261 669l-73 -75h-111l133 136h104l129 -136h-117z" />
    <glyph glyph-name="Scedilla" unicode="&#x15e;" horiz-adv-x="696" 
d="M209 14q-68 24 -113.5 72.5t-52.5 118.5l157 3q10 -48 51.5 -74t101.5 -26q63 0 104 22.5t41 66.5q0 37 -32 56.5t-92 31.5l-126 25q-86 15 -135 66.5t-49 135.5q0 66 37.5 116t103 77t145.5 27q84 0 149 -30t103 -80t44 -108l-153 -2q-14 101 -141 101q-58 0 -92 -24
t-34 -62q0 -32 21.5 -51.5t77.5 -31.5l125 -25q122 -23 163 -84t41 -138q0 -58 -38 -105.5t-106.5 -74.5t-156.5 -27q-76 0 -144 24zM430 -191q-35 -22 -86 -22q-72 0 -116 27l20 50q40 -25 78 -25q23 0 36 8.5t13 22.5q0 20 -19.5 30t-65.5 10q-13 0 -8 10l37 85h66
l-22 -58q52 -1 77 -24.5t25 -54.5q0 -37 -35 -59z" />
    <glyph glyph-name="scedilla" unicode="&#x15f;" horiz-adv-x="519" 
d="M110 30.5q-65 40.5 -79 121.5l125 5q12 -36 40 -50t69 -14q43 0 68.5 14t25.5 38q0 20 -17 32.5t-52 20.5l-89 17q-153 30 -154 148q0 48 26 85t75.5 58t117.5 21q100 0 159 -44.5t58 -117.5l-125 -3q-13 66 -96 66q-82 0 -82 -54q0 -17 18.5 -29t63.5 -21l82 -18
q80 -19 112 -63t32 -90q0 -76 -63 -119.5t-162 -43.5q-88 0 -153 40.5zM345 -191q-35 -22 -86 -22q-72 0 -116 27l20 50q40 -25 78 -25q23 0 36 8.5t13 22.5q0 20 -19.5 30t-65.5 10q-13 0 -8 10l37 85h66l-22 -58q52 -1 77 -24.5t25 -54.5q0 -37 -35 -59z" />
    <glyph glyph-name="Scaron" unicode="&#x160;" horiz-adv-x="696" 
d="M209 14q-68 24 -113.5 72.5t-52.5 118.5l157 3q10 -48 51.5 -74t101.5 -26q63 0 104 22.5t41 66.5q0 37 -32 56.5t-92 31.5l-126 25q-86 15 -135 66.5t-49 135.5q0 66 37.5 116t103 77t145.5 27q84 0 149 -30t103 -80t44 -108l-153 -2q-14 101 -141 101q-58 0 -92 -24
t-34 -62q0 -32 21.5 -51.5t77.5 -31.5l125 -25q122 -23 163 -84t41 -138q0 -58 -38 -105.5t-106.5 -74.5t-156.5 -27q-76 0 -144 24zM531 930l-129 -138h-105l-132 138h111l73 -76l65 76h117z" />
    <glyph glyph-name="scaron" unicode="&#x161;" horiz-adv-x="519" 
d="M110 30.5q-65 40.5 -79 121.5l125 5q12 -36 40 -50t69 -14q43 0 68.5 14t25.5 38q0 20 -17 32.5t-52 20.5l-89 17q-153 30 -154 148q0 48 26 85t75.5 58t117.5 21q100 0 159 -44.5t58 -117.5l-125 -3q-13 66 -96 66q-82 0 -82 -54q0 -17 18.5 -29t63.5 -21l82 -18
q80 -19 112 -63t32 -90q0 -76 -63 -119.5t-162 -43.5q-88 0 -153 40.5zM443 724l-129 -138h-105l-132 138h111l73 -76l65 76h117z" />
    <glyph glyph-name="uni0162" unicode="&#x162;" horiz-adv-x="607" 
d="M13 723h581v-134h-213v-589h-151v589h-217v134zM395 -191q-35 -22 -86 -22q-72 0 -116 27l20 50q40 -25 78 -25q23 0 36 8.5t13 22.5q0 20 -19.5 30t-65.5 10q-13 0 -8 10l37 85h66l-22 -58q52 -1 77 -24.5t25 -54.5q0 -37 -35 -59z" />
    <glyph glyph-name="uni0163" unicode="&#x163;" horiz-adv-x="426" 
d="M265 413v-270q0 -26 10 -35.5t29 -9.5h77v-91q-30 -13 -92 -13q-98 0 -136.5 36.5t-38.5 104.5v278h-84v104h89l21 165h125v-164h114v-105h-114zM345 -191q-35 -22 -86 -22q-72 0 -116 27l20 50q40 -25 78 -25q23 0 36 8.5t13 22.5q0 20 -19.5 30t-65.5 10q-13 0 -8 10
l37 85h66l-22 -58q52 -1 77 -24.5t25 -54.5q0 -37 -35 -59z" />
    <glyph glyph-name="Tcaron" unicode="&#x164;" horiz-adv-x="607" 
d="M13 723h581v-134h-213v-589h-151v589h-217v134zM494 930l-129 -138h-105l-132 138h111l73 -76l65 76h117z" />
    <glyph glyph-name="tcaron" unicode="&#x165;" horiz-adv-x="426" 
d="M265 413v-270q0 -26 10 -35.5t29 -9.5h77v-91q-30 -13 -92 -13q-98 0 -136.5 36.5t-38.5 104.5v278h-84v104h89l21 165h125v-164h114v-105h-114zM321.5 562q-2.5 4 -0.5 8l30 73l2 10q0 7 -8 8l-10 2q-8 1 -11.5 3.5t-3.5 9.5v90q0 12 11 12h80q11 0 11 -10v-105
q0 -3 -1 -5t-1 -3l-36 -85q-2 -7 -7.5 -9.5t-17.5 -2.5h-30q-5 0 -7.5 4z" />
    <glyph glyph-name="Tbar" unicode="&#x166;" horiz-adv-x="607" 
d="M381 589v-183h141v-110h-141v-296h-151v296h-116v110h116v183h-217v134h581v-134h-213z" />
    <glyph glyph-name="tbar" unicode="&#x167;" horiz-adv-x="434" 
d="M391 98v-91q-30 -13 -92 -13q-98 0 -136.5 36.5t-38.5 104.5v104h-85v85h85v89h-84v104h89l21 165h125v-164h114v-105h-114v-89h87v-85h-87v-96q0 -26 10 -35.5t29 -9.5h77z" />
    <glyph glyph-name="Utilde" unicode="&#x168;" horiz-adv-x="737" 
d="M591 64.5q-69 -74.5 -222 -74.5q-154 0 -223 75t-69 217v441h154v-451q0 -78 37 -116t101 -38q63 0 101 38t38 116v451h152v-445q0 -139 -69 -213.5zM480 825q-23 -8 -49 -8q-19 0 -33.5 3.5t-41.5 11.5q-17 5 -35 9.5t-35 4.5q-20 0 -33.5 -5t-31.5 -18q-7 -5 -10 -5
q-6 0 -9 11l-14 43q-2 6 -2 9q0 6 8 14q19 17 39 26.5t48 9.5q20 0 38.5 -4.5t44.5 -12.5q17 -5 34.5 -9.5t31.5 -4.5q19 0 35 6.5t33 17.5q5 4 11 4q7 0 10 -10l11 -51q1 -2 1 -7q0 -8 -11 -16q-17 -11 -40 -19z" />
    <glyph glyph-name="utilde" unicode="&#x169;" 
d="M168.5 10q-44.5 19 -73.5 57t-29 92v359h151v-340q0 -38 24.5 -58.5t61.5 -20.5q38 0 63 22t26 60v337h152l-3 -518h-113l-10 73q-21 -38 -67.5 -60.5t-92.5 -22.5q-45 1 -89.5 20zM425 619q-23 -8 -49 -8q-19 0 -33.5 3.5t-41.5 11.5q-17 5 -35 9.5t-35 4.5
q-20 0 -33.5 -5t-31.5 -18q-7 -5 -10 -5q-6 0 -9 11l-14 43q-2 6 -2 9q0 6 8 14q19 17 39 26.5t48 9.5q20 0 38.5 -4.5t44.5 -12.5q17 -5 34.5 -9.5t31.5 -4.5q19 0 35 6.5t33 17.5q5 4 11 4q7 0 10 -10l11 -51q1 -2 1 -7q0 -8 -11 -16q-17 -11 -40 -19z" />
    <glyph glyph-name="Umacron" unicode="&#x16a;" horiz-adv-x="737" 
d="M591 64.5q-69 -74.5 -222 -74.5q-154 0 -223 75t-69 217v441h154v-451q0 -78 37 -116t101 -38q63 0 101 38t38 116v451h152v-445q0 -139 -69 -213.5zM534 828h-356v96h356v-96z" />
    <glyph glyph-name="umacron" unicode="&#x16b;" 
d="M168.5 10q-44.5 19 -73.5 57t-29 92v359h151v-340q0 -38 24.5 -58.5t61.5 -20.5q38 0 63 22t26 60v337h152l-3 -518h-113l-10 73q-21 -38 -67.5 -60.5t-92.5 -22.5q-45 1 -89.5 20zM479 622h-356v96h356v-96z" />
    <glyph glyph-name="Ubreve" unicode="&#x16c;" horiz-adv-x="737" 
d="M591 64.5q-69 -74.5 -222 -74.5q-154 0 -223 75t-69 217v441h154v-451q0 -78 37 -116t101 -38q63 0 101 38t38 116v451h152v-445q0 -139 -69 -213.5zM468.5 834.5q-47.5 -34.5 -111.5 -34.5q-65 0 -113 33.5t-65 95.5h89q13 -23 36.5 -39t52.5 -16q26 0 50.5 16t36.5 39
h90q-18 -60 -65.5 -94.5z" />
    <glyph glyph-name="ubreve" unicode="&#x16d;" 
d="M168.5 10q-44.5 19 -73.5 57t-29 92v359h151v-340q0 -38 24.5 -58.5t61.5 -20.5q38 0 63 22t26 60v337h152l-3 -518h-113l-10 73q-21 -38 -67.5 -60.5t-92.5 -22.5q-45 1 -89.5 20zM413.5 628.5q-47.5 -34.5 -111.5 -34.5q-65 0 -113 33.5t-65 95.5h89q13 -23 36.5 -39
t52.5 -16q26 0 50.5 16t36.5 39h90q-18 -60 -65.5 -94.5z" />
    <glyph glyph-name="Uring" unicode="&#x16e;" horiz-adv-x="737" 
d="M591 64.5q-69 -74.5 -222 -74.5q-154 0 -223 75t-69 217v441h154v-451q0 -78 37 -116t101 -38q63 0 101 38t38 116v451h152v-445q0 -139 -69 -213.5zM434 804.5q-32 -31.5 -78 -31.5t-77.5 32t-31.5 79q0 43 32 74t77 31q46 0 78 -31t32 -76q0 -46 -32 -77.5zM390 916
q-14 14 -35 14t-35.5 -14t-14.5 -35q0 -20 15 -35.5t35 -15.5t34.5 15.5t14.5 35.5q0 21 -14 35z" />
    <glyph glyph-name="uring" unicode="&#x16f;" 
d="M168.5 10q-44.5 19 -73.5 57t-29 92v359h151v-340q0 -38 24.5 -58.5t61.5 -20.5q38 0 63 22t26 60v337h152l-3 -518h-113l-10 73q-21 -38 -67.5 -60.5t-92.5 -22.5q-45 1 -89.5 20zM379 598.5q-32 -31.5 -78 -31.5t-77.5 32t-31.5 79q0 43 32 74t77 31q46 0 78 -31
t32 -76q0 -46 -32 -77.5zM335 710q-14 14 -35 14t-35.5 -14t-14.5 -35q0 -20 15 -35.5t35 -15.5t34.5 15.5t14.5 35.5q0 21 -14 35z" />
    <glyph glyph-name="Uhungarumlaut" unicode="&#x170;" horiz-adv-x="737" 
d="M591 64.5q-69 -74.5 -222 -74.5q-154 0 -223 75t-69 217v441h154v-451q0 -78 37 -116t101 -38q63 0 101 38t38 116v451h152v-445q0 -139 -69 -213.5zM367 882q7 -9 7 -15q0 -8 -11 -14l-134 -89q-11 -6 -15 -6q-6 0 -10 7l-27 28q-6 6 -6 12q0 4 4 8l131 120q6 4 10 4
q6 0 9 -6zM559 882q7 -9 7 -15q0 -8 -11 -14l-134 -89q-9 -6 -15 -6q-5 0 -11 7l-25 28q-6 6 -6 12q0 5 4 8l130 120q6 4 10 4q5 0 10 -6z" />
    <glyph glyph-name="uhungarumlaut" unicode="&#x171;" 
d="M168.5 10q-44.5 19 -73.5 57t-29 92v359h151v-340q0 -38 24.5 -58.5t61.5 -20.5q38 0 63 22t26 60v337h152l-3 -518h-113l-10 73q-21 -38 -67.5 -60.5t-92.5 -22.5q-45 1 -89.5 20zM312 676q7 -9 7 -15q0 -8 -11 -14l-134 -89q-11 -6 -15 -6q-6 0 -10 7l-27 28
q-6 6 -6 12q0 4 4 8l131 120q6 4 10 4q6 0 9 -6zM504 676q7 -9 7 -15q0 -8 -11 -14l-134 -89q-9 -6 -15 -6q-5 0 -11 7l-25 28q-6 6 -6 12q0 5 4 8l130 120q6 4 10 4q5 0 10 -6z" />
    <glyph glyph-name="Uogonek" unicode="&#x172;" horiz-adv-x="737" 
d="M591 64.5q-69 -74.5 -222 -74.5q-154 0 -223 75t-69 217v441h154v-451q0 -78 37 -116t101 -38q63 0 101 38t38 116v451h152v-445q0 -139 -69 -213.5zM282.5 -33.5q20.5 22.5 75.5 40.5l105 -2q-52 -19 -72.5 -35.5t-20.5 -36.5q0 -32 36 -32q25 0 57 15q6 3 9 3
q6 0 6 -12v-42q0 -10 -9 -14q-13 -7 -40 -13t-57 -6q-52 0 -81 21t-29 61q0 30 20.5 52.5z" />
    <glyph glyph-name="uogonek" unicode="&#x173;" 
d="M168.5 10q-44.5 19 -73.5 57t-29 92v359h151v-340q0 -38 24.5 -58.5t61.5 -20.5q38 0 63 22t26 60v337h152l-3 -518h-113l-10 73q-21 -38 -67.5 -60.5t-92.5 -22.5q-45 1 -89.5 20zM356.5 -34.5q20.5 22.5 75.5 40.5l105 -2q-52 -19 -72.5 -35.5t-20.5 -36.5
q0 -32 36 -32q25 0 57 15q6 3 9 3q6 0 6 -12v-42q0 -10 -9 -14q-13 -7 -40 -13t-57 -6q-52 0 -81 21t-29 61q0 30 20.5 52.5z" />
    <glyph glyph-name="Wcircumflex" unicode="&#x174;" horiz-adv-x="966" 
d="M736 0h-120l-133 465l-135 -465h-117l-214 723h147l133 -468l131 468h109l134 -468l131 468h148zM484 875l-73 -75h-111l133 136h104l129 -136h-117z" />
    <glyph glyph-name="wcircumflex" unicode="&#x175;" horiz-adv-x="796" 
d="M607 0h-115l-96 307l-97 -307h-111l-171 517h134l98 -314l95 314h108l96 -314l96 314h135zM401 669l-73 -75h-111l133 136h104l129 -136h-117z" />
    <glyph glyph-name="Ycircumflex" unicode="&#x176;" horiz-adv-x="662" 
d="M406 304v-304h-151v304l-251 419h163l164 -289l162 289h165zM346 875l-73 -75h-111l133 136h104l129 -136h-117z" />
    <glyph glyph-name="ycircumflex" unicode="&#x177;" horiz-adv-x="572" 
d="M95 -161q-22 4 -32.5 8t-12.5 6v96l51 -2q59 -4 79.5 11.5t27.5 37.5l9 26l-201 495h149l121 -332l124 332h147l-209 -517q-39 -95 -86 -130t-113 -35q-32 0 -54 4zM303 669l-73 -75h-111l133 136h104l129 -136h-117z" />
    <glyph glyph-name="Ydieresis" unicode="&#x178;" horiz-adv-x="662" 
d="M406 304v-304h-151v304l-251 419h163l164 -289l162 289h165zM314 802h-133v127h133v-127zM513 802h-133v127h133v-127z" />
    <glyph glyph-name="Zacute" unicode="&#x179;" horiz-adv-x="667" 
d="M45 73l365 524h-339v126h554v-70l-370 -526h366v-127h-576v73zM499 842l-266 -69l-21 64l254 103z" />
    <glyph glyph-name="zacute" unicode="&#x17a;" horiz-adv-x="513" 
d="M29 77l265 345h-243v95h432v-75l-267 -345h270v-97h-457v77zM412 636l-266 -69l-21 64l254 103z" />
    <glyph glyph-name="Zdotaccent" unicode="&#x17b;" horiz-adv-x="667" 
d="M45 73l365 524h-339v126h554v-70l-370 -526h366v-127h-576v73zM433 785h-154v144h154v-144z" />
    <glyph glyph-name="zdotaccent" unicode="&#x17c;" horiz-adv-x="513" 
d="M29 77l265 345h-243v95h432v-75l-267 -345h270v-97h-457v77zM346 579h-154v144h154v-144z" />
    <glyph glyph-name="Zcaron" unicode="&#x17d;" horiz-adv-x="667" 
d="M45 73l365 524h-339v126h554v-70l-370 -526h366v-127h-576v73zM536 930l-129 -138h-105l-132 138h111l73 -76l65 76h117z" />
    <glyph glyph-name="zcaron" unicode="&#x17e;" horiz-adv-x="513" 
d="M29 77l265 345h-243v95h432v-75l-267 -345h270v-97h-457v77zM449 724l-129 -138h-105l-132 138h111l73 -76l65 76h117z" />
    <glyph glyph-name="uni018F" unicode="&#x18f;" horiz-adv-x="752" 
d="M495 546q-32 54 -118 54q-46 0 -76.5 -19t-45 -40t-46.5 -75q-3 -5 -8 -5q-6 0 -14 4l-106 52q-8 3 -8 10q0 6 4 14q41 84 113.5 138t185.5 54q108 0 183 -49t112.5 -132t37.5 -185q0 -103 -43 -189.5t-119.5 -137t-173.5 -50.5q-165 0 -247.5 102.5t-82.5 283.5
q0 15 3 20.5t16 5.5h450q8 0 11.5 4t3.5 13q0 73 -32 127zM245 293q-10 0 -14 -3t-4 -12q0 -70 37 -118.5t108 -48.5q77 0 112 47t42 134z" />
    <glyph glyph-name="florin" unicode="&#x192;" horiz-adv-x="519" 
d="M440 413h-107l-78 -446q-11 -62 -55 -98t-111 -36h-117l15 100h59q30 1 43.5 15t20.5 54l72 411h-84l19 104h83l13 74q12 62 55.5 97t109.5 35h121l-16 -100h-66q-21 0 -39 -17t-22 -42l-8 -47h111z" />
    <glyph glyph-name="uni01C4" unicode="&#x1c4;" horiz-adv-x="1382" 
d="M298 722q192 -5 283.5 -97.5t91.5 -259.5q0 -173 -95 -269t-285 -96h-216v723q159 0 221 -1zM229 122h68q97 0 157.5 59t60.5 185q0 121 -56.5 178.5t-160.5 57.5h-69v-480zM760 73l365 524h-339v126h554v-70l-370 -526h366v-127h-576v73zM1251 930l-129 -138h-105
l-132 138h111l73 -76l65 76h117z" />
    <glyph glyph-name="uni01C5" unicode="&#x1c5;" horiz-adv-x="1228" 
d="M298 722q192 -5 283.5 -97.5t91.5 -259.5q0 -173 -95 -269t-285 -96h-216v723q159 0 221 -1zM229 122h68q97 0 157.5 59t60.5 185q0 121 -56.5 178.5t-160.5 57.5h-69v-480zM744 77l265 345h-243v95h432v-75l-267 -345h270v-97h-457v77zM1164 724l-129 -138h-105
l-132 138h111l73 -76l65 76h117z" />
    <glyph glyph-name="uni01C6" unicode="&#x1c6;" horiz-adv-x="1118" 
d="M92 61q-58 71 -58 197q0 124 55 196.5t152 72.5q44 0 82.5 -16.5t64.5 -51.5v284h151v-743h-109l-11 71q-21 -32 -63.5 -56.5t-102.5 -24.5q-103 0 -161 71zM359.5 131.5q28.5 33.5 28.5 86.5v103q-19 97 -99 97q-49 0 -78.5 -37.5t-29.5 -119.5q0 -84 29.5 -123.5
t77.5 -39.5q43 0 71.5 33.5zM634 77l265 345h-243v95h432v-75l-267 -345h270v-97h-457v77zM1054 724l-129 -138h-105l-132 138h111l73 -76l65 76h117z" />
    <glyph glyph-name="uni01C7" unicode="&#x1c7;" horiz-adv-x="1015" 
d="M229 723v-596h312v-127h-464v723h152zM922 83q-16 -46 -57 -69.5t-115 -23.5q-32 0 -68.5 5t-56.5 10l3 138q7 -1 28.5 -6.5t44.5 -5.5q50 0 68 25.5t18 87.5v479h151v-519q0 -75 -16 -121z" />
    <glyph glyph-name="uni01C8" unicode="&#x1c8;" horiz-adv-x="861" 
d="M229 723v-596h312v-127h-464v723h152zM792 598h-154v145h154v-145zM747.5 -123.5q-42.5 -42.5 -134.5 -42.5q-24 0 -38.5 3.5t-20.5 7t-7 4.5l-1 100l39 4q31 4 42.5 16.5t11.5 37.5v510h151v-511q0 -87 -42.5 -129.5z" />
    <glyph glyph-name="uni01C9" unicode="&#x1c9;" horiz-adv-x="619" 
d="M124 14q-37 22 -47.5 54.5t-10.5 79.5v595h148v-577q0 -30 13 -46.5t45 -20.5l24 -1v-93q-37 -13 -62 -13q-73 0 -110 22zM550 598h-154v145h154v-145zM505.5 -123.5q-42.5 -42.5 -134.5 -42.5q-24 0 -38.5 3.5t-20.5 7t-7 4.5l-1 100l39 4q31 4 42.5 16.5t11.5 37.5v510
h151v-511q0 -87 -42.5 -129.5z" />
    <glyph glyph-name="uni01CA" unicode="&#x1ca;" horiz-adv-x="1192" 
d="M703 723v-723h-136l-339 491v-491h-151v723h150l325 -471v471h151zM1099 83q-16 -46 -57 -69.5t-115 -23.5q-32 0 -68.5 5t-56.5 10l3 138q7 -1 28.5 -6.5t44.5 -5.5q50 0 68 25.5t18 87.5v479h151v-519q0 -75 -16 -121z" />
    <glyph glyph-name="uni01CB" unicode="&#x1cb;" horiz-adv-x="1075" 
d="M703 723v-723h-136l-339 491v-491h-151v723h150l325 -471v471h151zM1006 598h-154v145h154v-145zM961.5 -123.5q-42.5 -42.5 -134.5 -42.5q-24 0 -38.5 3.5t-20.5 7t-7 4.5l-1 100l39 4q31 4 42.5 16.5t11.5 37.5v510h151v-511q0 -87 -42.5 -129.5z" />
    <glyph glyph-name="uni01CC" unicode="&#x1cc;" horiz-adv-x="905" 
d="M66 517h148v-66q28 34 60.5 52t88.5 18q48 0 89.5 -22t66.5 -62t25 -92v-345h-151v326q0 36 -23.5 56.5t-59.5 20.5q-38 0 -65.5 -18.5t-27.5 -51.5v-333h-151v517zM836 598h-154v145h154v-145zM791.5 -123.5q-42.5 -42.5 -134.5 -42.5q-24 0 -38.5 3.5t-20.5 7t-7 4.5
l-1 100l39 4q31 4 42.5 16.5t11.5 37.5v510h151v-511q0 -87 -42.5 -129.5z" />
    <glyph glyph-name="uni01EA" unicode="&#x1ea;" horiz-adv-x="754" 
d="M199.5 34.5q-75.5 44.5 -116 127.5t-40.5 197q0 115 41.5 199.5t117 129.5t176.5 45q100 0 175.5 -45t116.5 -129.5t41 -198.5q0 -113 -40.5 -196.5t-116 -128.5t-176.5 -45q-103 0 -178.5 44.5zM547 358q0 129 -44 190t-125 61t-125.5 -61t-44.5 -190q0 -126 44.5 -185
t125.5 -59q169 0 169 244zM299.5 -34.5q20.5 22.5 75.5 40.5l105 -2q-52 -19 -72.5 -35.5t-20.5 -36.5q0 -32 36 -32q25 0 57 15q6 3 9 3q6 0 6 -12v-42q0 -10 -9 -14q-13 -7 -40 -13t-57 -6q-52 0 -81 21t-29 61q0 30 20.5 52.5z" />
    <glyph glyph-name="uni01EB" unicode="&#x1eb;" horiz-adv-x="571" 
d="M152 23.5q-57 33.5 -87.5 93.5t-30.5 138q0 80 31.5 142t88.5 96t132 34q76 0 133 -34.5t87.5 -96t30.5 -140.5q0 -78 -30.5 -138.5t-87.5 -94t-134 -33.5q-76 0 -133 33.5zM365 147.5q24 45.5 24 113.5q0 67 -24.5 111t-78.5 44q-55 0 -79.5 -44t-24.5 -111t24.5 -113
t79.5 -46t79 45.5zM195.5 -34.5q20.5 22.5 75.5 40.5l105 -2q-52 -19 -72.5 -35.5t-20.5 -36.5q0 -32 36 -32q25 0 57 15q6 3 9 3q6 0 6 -12v-42q0 -10 -9 -14q-13 -7 -40 -13t-57 -6q-52 0 -81 21t-29 61q0 30 20.5 52.5z" />
    <glyph glyph-name="uni01F1" unicode="&#x1f1;" horiz-adv-x="1382" 
d="M298 722q192 -5 283.5 -97.5t91.5 -259.5q0 -173 -95 -269t-285 -96h-216v723q159 0 221 -1zM229 122h68q97 0 157.5 59t60.5 185q0 121 -56.5 178.5t-160.5 57.5h-69v-480zM760 73l365 524h-339v126h554v-70l-370 -526h366v-127h-576v73z" />
    <glyph glyph-name="uni01F2" unicode="&#x1f2;" horiz-adv-x="1228" 
d="M298 722q192 -5 283.5 -97.5t91.5 -259.5q0 -173 -95 -269t-285 -96h-216v723q159 0 221 -1zM229 122h68q97 0 157.5 59t60.5 185q0 121 -56.5 178.5t-160.5 57.5h-69v-480zM744 77l265 345h-243v95h432v-75l-267 -345h270v-97h-457v77z" />
    <glyph glyph-name="uni01F3" unicode="&#x1f3;" horiz-adv-x="1118" 
d="M92 61q-58 71 -58 197q0 124 55 196.5t152 72.5q44 0 82.5 -16.5t64.5 -51.5v284h151v-743h-109l-11 71q-21 -32 -63.5 -56.5t-102.5 -24.5q-103 0 -161 71zM359.5 131.5q28.5 33.5 28.5 86.5v103q-19 97 -99 97q-49 0 -78.5 -37.5t-29.5 -119.5q0 -84 29.5 -123.5
t77.5 -39.5q43 0 71.5 33.5zM634 77l265 345h-243v95h432v-75l-267 -345h270v-97h-457v77z" />
    <glyph glyph-name="uni01F4" unicode="&#x1f4;" horiz-adv-x="753" 
d="M198 36q-74 46 -114.5 129.5t-40.5 193.5q0 113 42 197.5t118 130.5t175 46q84 0 151 -34t105.5 -90.5t40.5 -120.5l-158 -3q-11 53 -48.5 87t-93.5 34q-76 0 -122 -59.5t-46 -181.5q0 -130 48.5 -186.5t125.5 -56.5q39 0 69 17t47.5 42.5t21.5 51.5l7 43h-148v104
l306 -2v-378h-103v93q-35 -46 -83.5 -74.5t-127.5 -28.5q-98 0 -172 46zM515 842l-266 -69l-21 64l254 103z" />
    <glyph glyph-name="uni01F5" unicode="&#x1f5;" horiz-adv-x="632" 
d="M98 -136.5q-73 34.5 -73 91.5q0 39 28.5 60t48.5 28t23 8q-4 2 -21.5 11.5t-30 26.5t-12.5 40q0 29 27.5 52t79.5 32q-52 25 -78.5 64.5t-26.5 85.5q0 76 70 119t177 43q49 0 83.5 -10t66.5 -30q59 22 154 61l-1 -115l-89 -14q4 -13 7.5 -29t3.5 -24q0 -45 -27 -84.5
t-80.5 -63.5t-128.5 -24l-52 2q-48 -3 -48 -20q0 -11 20 -15t70 -7q43 -3 60 -4l47 -3q95 -6 142.5 -46t47.5 -102q0 -76 -72.5 -122t-205.5 -46q-137 0 -210 34.5zM369.5 298q23.5 22 23.5 60q0 39 -24 63.5t-65 24.5t-65.5 -24.5t-24.5 -63.5q0 -38 24 -60t66 -22t65.5 22
zM417 -73.5q25 13.5 25 41.5q0 48 -77 54l-116 7q-34 2 -55.5 -15t-21.5 -41q0 -32 39 -46t121 -14q60 0 85 13.5zM454 636l-266 -69l-21 64l254 103z" />
    <glyph glyph-name="Aringacute" unicode="&#x1fa;" horiz-adv-x="751" 
d="M719 2h-180l-56 166h-250l-57 -166h-151l255 723h3q-15 25 -15 55q0 34 21 59.5t54 33.5l15 67h87l-30 -71q28 -11 45 -35.5t17 -55.5q0 -30 -15 -53h6zM336 812q-15 -14 -15 -35q0 -20 15.5 -35.5t35.5 -15.5t34.5 15.5t14.5 35.5q0 21 -14.5 35t-34.5 14q-21 0 -36 -14
zM448 298l-90 261l-92 -261h182z" />
    <glyph glyph-name="aringacute" unicode="&#x1fb;" horiz-adv-x="573" 
d="M84 32.5q-49 42.5 -49 116.5q0 85 64.5 128t200.5 46l63 3v28q0 35 -21 53.5t-61 18.5q-32 -1 -60 -15.5t-45 -44.5l-123 6q12 77 75.5 116t159.5 39q219 0 219 -163v-364h-126l-11 66q-24 -35 -65.5 -55.5t-94.5 -20.5q-77 0 -126 42.5zM330.5 114.5
q31.5 25.5 32.5 58.5v74l-51 -3q-61 -3 -97.5 -20.5t-36.5 -59.5q0 -34 23.5 -54.5t59.5 -20.5q38 0 69.5 25.5zM431 636l-266 -69l-21 64l254 103zM365 598.5q-32 -31.5 -78 -31.5t-77.5 32t-31.5 79q0 43 32 74t77 31q46 0 78 -31t32 -76q0 -46 -32 -77.5zM321 710
q-14 14 -35 14t-35.5 -14t-14.5 -35q0 -20 15 -35.5t35 -15.5t34.5 15.5t14.5 35.5q0 21 -14 35z" />
    <glyph glyph-name="AEacute" unicode="&#x1fc;" horiz-adv-x="1070" 
d="M1014 0h-525v166h-232l-87 -166h-151l386 723h599l-1 -125h-342v-172h231v-124h-231v-176h353v-126zM489 625l-175 -329h175v329zM833 842l-266 -69l-21 64l254 103z" />
    <glyph glyph-name="aeacute" unicode="&#x1fd;" horiz-adv-x="912" 
d="M556.5 131.5q36.5 -38.5 90.5 -38.5q39 0 68 17.5t64 54.5l93 -41q-46 -73 -103.5 -103.5t-141.5 -30.5q-119 0 -202 89q-4 5 -8 0q-44 -44 -94 -66.5t-121 -22.5q-80 0 -123.5 40t-43.5 107q0 78 67.5 125t199.5 55l65 4v33q0 37 -21 57.5t-62 20.5q-33 0 -61 -16.5
t-46 -53.5l-129 29q31 69 87 102.5t154 33.5q129 -1 179 -61q31 30 71 45.5t86 15.5q74 0 131.5 -35.5t90 -102.5t32.5 -159h-359q0 -60 36.5 -98.5zM553.5 401.5q-31.5 -32.5 -30.5 -88.5l208 -1q0 28 -11.5 56.5t-34.5 47t-54 18.5q-46 0 -77.5 -32.5zM314 238
q-55 -5 -93 -28.5t-38 -62.5q0 -28 20 -46t55 -18q44 0 76.5 22t32.5 56v80zM597 636l-266 -69l-21 64l254 103z" />
    <glyph glyph-name="Oslashacute" unicode="&#x1fe;" horiz-adv-x="762" 
d="M742 669q0 -6 -6 -11l-77 -79q53 -90 53 -219q0 -113 -40.5 -196.5t-116 -128.5t-177.5 -45q-135 0 -220 76l-61 -62q-9 -10 -17 -10t-18 10l-32 32q-10 10 -10 17t6 13l70 73q-53 90 -53 220q0 115 41.5 199.5t117 129.5t176.5 45q136 0 222 -80l67 68q8 8 15 8
q6 0 10 -4l44 -45q6 -4 6 -11zM235 275l260 274q-18 33 -47 48.5t-70 15.5q-80 0 -117 -61t-37 -194q0 -51 11 -83zM520 442l-259 -273q36 -58 118 -58q80 0 116 58t36 189q0 46 -11 84zM522 842l-266 -69l-21 64l254 103z" />
    <glyph glyph-name="oslashacute" unicode="&#x1ff;" horiz-adv-x="598" 
d="M508 410q38 -65 38 -154q0 -78 -30.5 -138.5t-87.5 -94t-134 -33.5q-103 0 -168 59l-60 -57l-49 53l63 60q-37 63 -37 150q0 80 31.5 142t88.5 96t132 34q102 0 169 -61l60 57l48 -52zM195 212l175 166q-26 38 -75 38q-55 0 -79.5 -44t-24.5 -111q0 -28 4 -49zM395 304
l-174 -165q29 -37 74 -37q55 0 79 45.5t24 113.5q0 22 -3 43zM439 636l-266 -69l-21 64l254 103z" />
    <glyph glyph-name="uni0200" unicode="&#x200;" horiz-adv-x="713" 
d="M278 723h158l258 -723h-150l-58 165h-257l-59 -165h-151zM451 296l-94 282l-94 -282h188zM346 805l-45 -51l-170 110l66 78zM538 805l-45 -51l-170 110l65 78z" />
    <glyph glyph-name="uni0201" unicode="&#x201;" horiz-adv-x="573" 
d="M84 32.5q-49 42.5 -49 116.5q0 85 64.5 128t200.5 46l63 3v28q0 35 -21 53.5t-61 18.5q-32 -1 -60 -15.5t-45 -44.5l-123 6q12 77 75.5 116t159.5 39q219 0 219 -163v-364h-126l-11 66q-24 -35 -65.5 -55.5t-94.5 -20.5q-77 0 -126 42.5zM330.5 114.5
q31.5 25.5 32.5 58.5v74l-51 -3q-61 -3 -97.5 -20.5t-36.5 -59.5q0 -34 23.5 -54.5t59.5 -20.5q38 0 69.5 25.5zM266 599l-45 -51l-170 110l66 78zM458 599l-45 -51l-170 110l65 78z" />
    <glyph glyph-name="uni0202" unicode="&#x202;" horiz-adv-x="713" 
d="M278 723h158l258 -723h-150l-58 165h-257l-59 -165h-151zM451 296l-94 282l-94 -282h188zM464 836q-12 23 -36.5 39t-50.5 16q-29 0 -52.5 -16t-36.5 -39h-89q17 62 65 95.5t113 33.5q64 0 111.5 -34.5t65.5 -94.5h-90z" />
    <glyph glyph-name="uni0203" unicode="&#x203;" horiz-adv-x="573" 
d="M84 32.5q-49 42.5 -49 116.5q0 85 64.5 128t200.5 46l63 3v28q0 35 -21 53.5t-61 18.5q-32 -1 -60 -15.5t-45 -44.5l-123 6q12 77 75.5 116t159.5 39q219 0 219 -163v-364h-126l-11 66q-24 -35 -65.5 -55.5t-94.5 -20.5q-77 0 -126 42.5zM330.5 114.5
q31.5 25.5 32.5 58.5v74l-51 -3q-61 -3 -97.5 -20.5t-36.5 -59.5q0 -34 23.5 -54.5t59.5 -20.5q38 0 69.5 25.5zM384 630q-12 23 -36.5 39t-50.5 16q-29 0 -52.5 -16t-36.5 -39h-89q17 62 65 95.5t113 33.5q64 0 111.5 -34.5t65.5 -94.5h-90z" />
    <glyph glyph-name="uni0204" unicode="&#x204;" horiz-adv-x="638" 
d="M77 723h501l-1 -127h-348v-170h301v-124h-302v-174h354v-128h-505v723zM310 805l-45 -51l-170 110l66 78zM502 805l-45 -51l-170 110l65 78z" />
    <glyph glyph-name="uni0205" unicode="&#x205;" horiz-adv-x="562" 
d="M212 132.5q29 -33.5 79 -33.5q76 0 101 62l134 -5q-10 -50 -44 -87.5t-83.5 -58t-104.5 -20.5q-77 0 -136 32.5t-91.5 92t-32.5 138.5q0 78 30 140t87.5 98t134.5 36q116 0 178.5 -72t62.5 -191v-40h-344q0 -58 29 -91.5zM387 313q0 47 -26.5 78t-75.5 31
q-46 0 -74 -32.5t-28 -76.5h204zM265 599l-45 -51l-170 110l66 78zM457 599l-45 -51l-170 110l65 78z" />
    <glyph glyph-name="uni0206" unicode="&#x206;" horiz-adv-x="638" 
d="M77 723h501l-1 -127h-348v-170h301v-124h-302v-174h354v-128h-505v723zM428 836q-12 23 -36.5 39t-50.5 16q-29 0 -52.5 -16t-36.5 -39h-89q17 62 65 95.5t113 33.5q64 0 111.5 -34.5t65.5 -94.5h-90z" />
    <glyph glyph-name="uni0207" unicode="&#x207;" horiz-adv-x="562" 
d="M212 132.5q29 -33.5 79 -33.5q76 0 101 62l134 -5q-10 -50 -44 -87.5t-83.5 -58t-104.5 -20.5q-77 0 -136 32.5t-91.5 92t-32.5 138.5q0 78 30 140t87.5 98t134.5 36q116 0 178.5 -72t62.5 -191v-40h-344q0 -58 29 -91.5zM387 313q0 47 -26.5 78t-75.5 31
q-46 0 -74 -32.5t-28 -76.5h204zM383 630q-12 23 -36.5 39t-50.5 16q-29 0 -52.5 -16t-36.5 -39h-89q17 62 65 95.5t113 33.5q64 0 111.5 -34.5t65.5 -94.5h-90z" />
    <glyph glyph-name="uni0208" unicode="&#x208;" horiz-adv-x="305" 
d="M228 723v-723h-151v723h151zM133 805l-45 -51l-170 110l66 78zM325 805l-45 -51l-170 110l65 78z" />
    <glyph glyph-name="uni0209" unicode="&#x209;" horiz-adv-x="282" 
d="M217 0h-151v517h151v-517zM123 599l-45 -51l-170 110l66 78zM315 599l-45 -51l-170 110l65 78z" />
    <glyph glyph-name="uni020A" unicode="&#x20a;" horiz-adv-x="305" 
d="M228 723v-723h-151v723h151zM251 836q-12 23 -36.5 39t-50.5 16q-29 0 -52.5 -16t-36.5 -39h-89q17 62 65 95.5t113 33.5q64 0 111.5 -34.5t65.5 -94.5h-90z" />
    <glyph glyph-name="uni020B" unicode="&#x20b;" horiz-adv-x="282" 
d="M217 0h-151v517h151v-517zM241 630q-12 23 -36.5 39t-50.5 16q-29 0 -52.5 -16t-36.5 -39h-89q17 62 65 95.5t113 33.5q64 0 111.5 -34.5t65.5 -94.5h-90z" />
    <glyph glyph-name="uni020C" unicode="&#x20c;" horiz-adv-x="754" 
d="M199.5 34.5q-75.5 44.5 -116 127.5t-40.5 197q0 115 41.5 199.5t117 129.5t176.5 45q100 0 175.5 -45t116.5 -129.5t41 -198.5q0 -113 -40.5 -196.5t-116 -128.5t-176.5 -45q-103 0 -178.5 44.5zM547 358q0 129 -44 190t-125 61t-125.5 -61t-44.5 -190q0 -126 44.5 -185
t125.5 -59q169 0 169 244zM357 805l-45 -51l-170 110l66 78zM549 805l-45 -51l-170 110l65 78z" />
    <glyph glyph-name="uni020D" unicode="&#x20d;" horiz-adv-x="571" 
d="M152 23.5q-57 33.5 -87.5 93.5t-30.5 138q0 80 31.5 142t88.5 96t132 34q76 0 133 -34.5t87.5 -96t30.5 -140.5q0 -78 -30.5 -138.5t-87.5 -94t-134 -33.5q-76 0 -133 33.5zM365 147.5q24 45.5 24 113.5q0 67 -24.5 111t-78.5 44q-55 0 -79.5 -44t-24.5 -111t24.5 -113
t79.5 -46t79 45.5zM265 599l-45 -51l-170 110l66 78zM457 599l-45 -51l-170 110l65 78z" />
    <glyph glyph-name="uni020E" unicode="&#x20e;" horiz-adv-x="754" 
d="M199.5 34.5q-75.5 44.5 -116 127.5t-40.5 197q0 115 41.5 199.5t117 129.5t176.5 45q100 0 175.5 -45t116.5 -129.5t41 -198.5q0 -113 -40.5 -196.5t-116 -128.5t-176.5 -45q-103 0 -178.5 44.5zM547 358q0 129 -44 190t-125 61t-125.5 -61t-44.5 -190q0 -126 44.5 -185
t125.5 -59q169 0 169 244zM475 836q-12 23 -36.5 39t-50.5 16q-29 0 -52.5 -16t-36.5 -39h-89q17 62 65 95.5t113 33.5q64 0 111.5 -34.5t65.5 -94.5h-90z" />
    <glyph glyph-name="uni020F" unicode="&#x20f;" horiz-adv-x="571" 
d="M152 23.5q-57 33.5 -87.5 93.5t-30.5 138q0 80 31.5 142t88.5 96t132 34q76 0 133 -34.5t87.5 -96t30.5 -140.5q0 -78 -30.5 -138.5t-87.5 -94t-134 -33.5q-76 0 -133 33.5zM365 147.5q24 45.5 24 113.5q0 67 -24.5 111t-78.5 44q-55 0 -79.5 -44t-24.5 -111t24.5 -113
t79.5 -46t79 45.5zM383 630q-12 23 -36.5 39t-50.5 16q-29 0 -52.5 -16t-36.5 -39h-89q17 62 65 95.5t113 33.5q64 0 111.5 -34.5t65.5 -94.5h-90z" />
    <glyph glyph-name="uni0210" unicode="&#x210;" horiz-adv-x="695" 
d="M486 0l-116 276h-142v-276h-151v723h308q126 0 188 -58.5t62 -159.5q0 -79 -34 -127t-92 -77l133 -301h-156zM448.5 422q33.5 31 33.5 80q0 48 -32 77t-82 29h-140v-217h131q56 0 89.5 31zM318 805l-45 -51l-170 110l66 78zM510 805l-45 -51l-170 110l65 78z" />
    <glyph glyph-name="uni0211" unicode="&#x211;" horiz-adv-x="423" 
d="M66 517h145v-129q22 61 69.5 100t110.5 39l1 -143q-10 1 -29 1q-74 0 -110 -32.5t-36 -78.5v-274h-151v517zM209 599l-45 -51l-170 110l66 78zM401 599l-45 -51l-170 110l65 78z" />
    <glyph glyph-name="uni0212" unicode="&#x212;" horiz-adv-x="695" 
d="M486 0l-116 276h-142v-276h-151v723h308q126 0 188 -58.5t62 -159.5q0 -79 -34 -127t-92 -77l133 -301h-156zM448.5 422q33.5 31 33.5 80q0 48 -32 77t-82 29h-140v-217h131q56 0 89.5 31zM436 836q-12 23 -36.5 39t-50.5 16q-29 0 -52.5 -16t-36.5 -39h-89
q17 62 65 95.5t113 33.5q64 0 111.5 -34.5t65.5 -94.5h-90z" />
    <glyph glyph-name="uni0213" unicode="&#x213;" horiz-adv-x="423" 
d="M66 517h145v-129q22 61 69.5 100t110.5 39l1 -143q-10 1 -29 1q-74 0 -110 -32.5t-36 -78.5v-274h-151v517zM327 630q-12 23 -36.5 39t-50.5 16q-29 0 -52.5 -16t-36.5 -39h-89q17 62 65 95.5t113 33.5q64 0 111.5 -34.5t65.5 -94.5h-90z" />
    <glyph glyph-name="uni0214" unicode="&#x214;" horiz-adv-x="737" 
d="M591 64.5q-69 -74.5 -222 -74.5q-154 0 -223 75t-69 217v441h154v-451q0 -78 37 -116t101 -38q63 0 101 38t38 116v451h152v-445q0 -139 -69 -213.5zM335 805l-45 -51l-170 110l66 78zM527 805l-45 -51l-170 110l65 78z" />
    <glyph glyph-name="uni0215" unicode="&#x215;" 
d="M168.5 10q-44.5 19 -73.5 57t-29 92v359h151v-340q0 -38 24.5 -58.5t61.5 -20.5q38 0 63 22t26 60v337h152l-3 -518h-113l-10 73q-21 -38 -67.5 -60.5t-92.5 -22.5q-45 1 -89.5 20zM280 599l-45 -51l-170 110l66 78zM472 599l-45 -51l-170 110l65 78z" />
    <glyph glyph-name="uni0216" unicode="&#x216;" horiz-adv-x="737" 
d="M591 64.5q-69 -74.5 -222 -74.5q-154 0 -223 75t-69 217v441h154v-451q0 -78 37 -116t101 -38q63 0 101 38t38 116v451h152v-445q0 -139 -69 -213.5zM453 836q-12 23 -36.5 39t-50.5 16q-29 0 -52.5 -16t-36.5 -39h-89q17 62 65 95.5t113 33.5q64 0 111.5 -34.5
t65.5 -94.5h-90z" />
    <glyph glyph-name="uni0217" unicode="&#x217;" 
d="M168.5 10q-44.5 19 -73.5 57t-29 92v359h151v-340q0 -38 24.5 -58.5t61.5 -20.5q38 0 63 22t26 60v337h152l-3 -518h-113l-10 73q-21 -38 -67.5 -60.5t-92.5 -22.5q-45 1 -89.5 20zM398 630q-12 23 -36.5 39t-50.5 16q-29 0 -52.5 -16t-36.5 -39h-89q17 62 65 95.5
t113 33.5q64 0 111.5 -34.5t65.5 -94.5h-90z" />
    <glyph glyph-name="Scommaaccent" unicode="&#x218;" horiz-adv-x="696" 
d="M209 14q-68 24 -113.5 72.5t-52.5 118.5l157 3q10 -48 51.5 -74t101.5 -26q63 0 104 22.5t41 66.5q0 37 -32 56.5t-92 31.5l-126 25q-86 15 -135 66.5t-49 135.5q0 66 37.5 116t103 77t145.5 27q84 0 149 -30t103 -80t44 -108l-153 -2q-14 101 -141 101q-58 0 -92 -24
t-34 -62q0 -32 21.5 -51.5t77.5 -31.5l125 -25q122 -23 163 -84t41 -138q0 -58 -38 -105.5t-106.5 -74.5t-156.5 -27q-76 0 -144 24zM299 -231.5q-3 5.5 0 10.5l31 47q4 5 4 11q0 5 -3.5 8t-8.5 3h-8q-10 0 -14 4t-4 14v61q0 16 14 16h78q13 0 13 -13v-82q0 -2 -3 -11
l-46 -62q-4 -7 -9.5 -9.5t-17.5 -2.5h-16q-7 0 -10 5.5z" />
    <glyph glyph-name="scommaaccent" unicode="&#x219;" horiz-adv-x="519" 
d="M110 30.5q-65 40.5 -79 121.5l125 5q12 -36 40 -50t69 -14q43 0 68.5 14t25.5 38q0 20 -17 32.5t-52 20.5l-89 17q-153 30 -154 148q0 48 26 85t75.5 58t117.5 21q100 0 159 -44.5t58 -117.5l-125 -3q-13 66 -96 66q-82 0 -82 -54q0 -17 18.5 -29t63.5 -21l82 -18
q80 -19 112 -63t32 -90q0 -76 -63 -119.5t-162 -43.5q-88 0 -153 40.5zM214 -231.5q-3 5.5 0 10.5l31 47q4 5 4 11q0 5 -3.5 8t-8.5 3h-8q-10 0 -14 4t-4 14v61q0 16 14 16h78q13 0 13 -13v-82q0 -2 -3 -11l-46 -62q-4 -7 -9.5 -9.5t-17.5 -2.5h-16q-7 0 -10 5.5z" />
    <glyph glyph-name="uni021A" unicode="&#x21a;" horiz-adv-x="607" 
d="M13 723h581v-134h-213v-589h-151v589h-217v134zM264 -231.5q-3 5.5 0 10.5l31 47q4 5 4 11q0 5 -3.5 8t-8.5 3h-8q-10 0 -14 4t-4 14v61q0 16 14 16h78q13 0 13 -13v-82q0 -2 -3 -11l-46 -62q-4 -7 -9.5 -9.5t-17.5 -2.5h-16q-7 0 -10 5.5z" />
    <glyph glyph-name="uni021B" unicode="&#x21b;" horiz-adv-x="426" 
d="M265 413v-270q0 -26 10 -35.5t29 -9.5h77v-91q-30 -13 -92 -13q-98 0 -136.5 36.5t-38.5 104.5v278h-84v104h89l21 165h125v-164h114v-105h-114zM214 -231.5q-3 5.5 0 10.5l31 47q4 5 4 11q0 5 -3.5 8t-8.5 3h-8q-10 0 -14 4t-4 14v61q0 16 14 16h78q13 0 13 -13v-82
q0 -2 -3 -11l-46 -62q-4 -7 -9.5 -9.5t-17.5 -2.5h-16q-7 0 -10 5.5z" />
    <glyph glyph-name="uni0237" unicode="&#x237;" horiz-adv-x="276" 
d="M167.5 -123q-43.5 -43 -135.5 -43q-34 0 -49.5 5.5t-15.5 9.5l-1 100l39 4q30 4 42.5 17t12.5 37v510h151v-511q0 -86 -43.5 -129z" />
    <glyph glyph-name="uni0259" unicode="&#x259;" horiz-adv-x="562" 
d="M350 384.5q-29 33.5 -79 33.5q-76 0 -101 -62l-134 5q10 50 44 87.5t83.5 58t104.5 20.5q77 0 136 -32.5t91.5 -92t32.5 -138.5q0 -78 -30 -140t-87.5 -98t-134.5 -36q-116 0 -178.5 72t-62.5 191v40h344q0 58 -29 91.5zM175 204q0 -47 26.5 -78t75.5 -31q46 0 74 32.5
t28 76.5h-204z" />
    <glyph glyph-name="uni02BC" unicode="&#x2bc;" horiz-adv-x="189" 
d="M42.5 447q-2.5 4 -1.5 8l30 109q2 8 2 10q0 6 -7 7l-10 1q-8 1 -11.5 4.5t-3.5 10.5v114q0 12 12 12h81q10 0 10 -10v-131q0 -4 -2 -8l-36 -119q-2 -7 -7.5 -9.5t-16.5 -2.5h-32q-5 0 -7.5 4z" />
    <glyph glyph-name="circumflex" unicode="&#x2c6;" horiz-adv-x="388" 
d="M190 669l-73 -75h-111l133 136h104l129 -136h-117z" />
    <glyph glyph-name="caron" unicode="&#x2c7;" horiz-adv-x="388" 
d="M372 724l-129 -138h-105l-132 138h111l73 -76l65 76h117z" />
    <glyph glyph-name="breve" unicode="&#x2d8;" horiz-adv-x="390" 
d="M303.5 628.5q-47.5 -34.5 -111.5 -34.5q-65 0 -113 33.5t-65 95.5h89q13 -23 36.5 -39t52.5 -16q26 0 50.5 16t36.5 39h90q-18 -60 -65.5 -94.5z" />
    <glyph glyph-name="dotaccent" unicode="&#x2d9;" horiz-adv-x="190" 
d="M169 579h-154v144h154v-144z" />
    <glyph glyph-name="ring" unicode="&#x2da;" horiz-adv-x="255" 
d="M202 590.5q-32 -31.5 -78 -31.5t-77.5 32t-31.5 79q0 43 32 74t77 31q46 0 78 -31t32 -76q0 -46 -32 -77.5zM158 702q-14 14 -35 14t-35.5 -14t-14.5 -35q0 -20 15 -35.5t35 -15.5t34.5 15.5t14.5 35.5q0 21 -14 35z" />
    <glyph glyph-name="ogonek" unicode="&#x2db;" horiz-adv-x="253" 
d="M35.5 -33.5q20.5 22.5 75.5 40.5l105 -2q-52 -19 -72.5 -35.5t-20.5 -36.5q0 -32 36 -32q25 0 57 15q6 3 9 3q6 0 6 -12v-42q0 -10 -9 -14q-13 -7 -40 -13t-57 -6q-52 0 -81 21t-29 61q0 30 20.5 52.5z" />
    <glyph glyph-name="tilde" unicode="&#x2dc;" horiz-adv-x="417" 
d="M328 619q-23 -8 -49 -8q-19 0 -33.5 3.5t-41.5 11.5q-17 5 -35 9.5t-35 4.5q-20 0 -33.5 -5t-31.5 -18q-7 -5 -10 -5q-6 0 -9 11l-14 43q-2 6 -2 9q0 6 8 14q19 17 39 26.5t48 9.5q20 0 38.5 -4.5t44.5 -12.5q17 -5 34.5 -9.5t31.5 -4.5q19 0 35 6.5t33 17.5q5 4 11 4
q7 0 10 -10l11 -51q1 -2 1 -7q0 -8 -11 -16q-17 -11 -40 -19z" />
    <glyph glyph-name="hungarumlaut" unicode="&#x2dd;" horiz-adv-x="441" 
d="M215 676q7 -9 7 -15q0 -8 -11 -14l-134 -89q-11 -6 -15 -6q-6 0 -10 7l-27 28q-6 6 -6 12q0 4 4 8l131 120q6 4 10 4q6 0 9 -6zM407 676q7 -9 7 -15q0 -8 -11 -14l-134 -89q-9 -6 -15 -6q-5 0 -11 7l-25 28q-6 6 -6 12q0 5 4 8l130 120q6 4 10 4q5 0 10 -6z" />
    <glyph glyph-name="gravecomb" unicode="&#x300;" horiz-adv-x="0" 
d="M-18 631l-21 -64l-267 69l35 98z" />
    <glyph glyph-name="acutecomb" unicode="&#x301;" horiz-adv-x="0" 
d="M-16 636l-266 -69l-21 64l254 103z" />
    <glyph glyph-name="uni0302" unicode="&#x302;" horiz-adv-x="0" 
d="M-198 669l-73 -75h-111l133 136h104l129 -136h-117z" />
    <glyph glyph-name="tildecomb" unicode="&#x303;" horiz-adv-x="0" 
d="M-89 619q-23 -8 -49 -8q-19 0 -33.5 3.5t-41.5 11.5q-17 5 -35 9.5t-35 4.5q-20 0 -33.5 -5t-31.5 -18q-7 -5 -10 -5q-6 0 -9 11l-14 43q-2 6 -2 9q0 6 8 14q19 17 39 26.5t48 9.5q20 0 38.5 -4.5t44.5 -12.5q17 -5 34.5 -9.5t31.5 -4.5q19 0 35 6.5t33 17.5q5 4 11 4
q7 0 10 -10l11 -51q1 -2 1 -7q0 -8 -11 -16q-17 -11 -40 -19z" />
    <glyph glyph-name="uni0304" unicode="&#x304;" horiz-adv-x="0" 
d="M-23 622h-356v96h356v-96z" />
    <glyph glyph-name="uni0306" unicode="&#x306;" horiz-adv-x="0" 
d="M-86.5 628.5q-47.5 -34.5 -111.5 -34.5q-65 0 -113 33.5t-65 95.5h89q13 -23 36.5 -39t52.5 -16q26 0 50.5 16t36.5 39h90q-18 -60 -65.5 -94.5z" />
    <glyph glyph-name="uni0307" unicode="&#x307;" horiz-adv-x="0" 
d="M-21 579h-154v144h154v-144z" />
    <glyph glyph-name="uni0308" unicode="&#x308;" horiz-adv-x="0" 
d="M-221 596h-133v127h133v-127zM-22 596h-133v127h133v-127z" />
    <glyph glyph-name="uni030A" unicode="&#x30a;" horiz-adv-x="0" 
d="M-53 590.5q-32 -31.5 -78 -31.5t-77.5 32t-31.5 79q0 43 32 74t77 31q46 0 78 -31t32 -76q0 -46 -32 -77.5zM-97 702q-14 14 -35 14t-35.5 -14t-14.5 -35q0 -20 15 -35.5t35 -15.5t34.5 15.5t14.5 35.5q0 21 -14 35z" />
    <glyph glyph-name="uni030B" unicode="&#x30b;" horiz-adv-x="0" 
d="M-226 676q7 -9 7 -15q0 -8 -11 -14l-134 -89q-11 -6 -15 -6q-6 0 -10 7l-27 28q-6 6 -6 12q0 4 4 8l131 120q6 4 10 4q6 0 9 -6zM-34 676q7 -9 7 -15q0 -8 -11 -14l-134 -89q-9 -6 -15 -6q-5 0 -11 7l-25 28q-6 6 -6 12q0 5 4 8l130 120q6 4 10 4q5 0 10 -6z" />
    <glyph glyph-name="uni030C" unicode="&#x30c;" horiz-adv-x="0" 
d="M-16 724l-129 -138h-105l-132 138h111l73 -76l65 76h117z" />
    <glyph glyph-name="uni030F" unicode="&#x30f;" horiz-adv-x="0" 
d="M-215 599l-45 -51l-170 110l66 78zM-23 599l-45 -51l-170 110l65 78z" />
    <glyph glyph-name="uni0311" unicode="&#x311;" horiz-adv-x="0" 
d="M-94 630q-12 23 -36.5 39t-50.5 16q-29 0 -52.5 -16t-36.5 -39h-89q17 62 65 95.5t113 33.5q64 0 111.5 -34.5t65.5 -94.5h-90z" />
    <glyph glyph-name="dotbelowcomb" unicode="&#x323;" horiz-adv-x="0" 
d="M-21 -142q0 -19 -21 -19h-81q-9 0 -12.5 4t-3.5 12v85q0 16 11 16h95q12 0 12 -15v-83z" />
    <glyph glyph-name="uni0326" unicode="&#x326;" horiz-adv-x="0" 
d="M-125 -231.5q-3 5.5 0 10.5l31 47q4 5 4 11q0 5 -3.5 8t-8.5 3h-8q-10 0 -14 4t-4 14v61q0 16 14 16h78q13 0 13 -13v-82q0 -2 -3 -11l-46 -62q-4 -7 -9.5 -9.5t-17.5 -2.5h-16q-7 0 -10 5.5z" />
    <glyph glyph-name="uni0327" unicode="&#x327;" horiz-adv-x="0" 
d="M-57 -191q-35 -22 -86 -22q-72 0 -116 27l20 50q40 -25 78 -25q23 0 36 8.5t13 22.5q0 20 -19.5 30t-65.5 10q-13 0 -8 10l37 85h66l-22 -58q52 -1 77 -24.5t25 -54.5q0 -37 -35 -59z" />
    <glyph glyph-name="uni0328" unicode="&#x328;" horiz-adv-x="0" 
d="M-217.5 -33.5q20.5 22.5 75.5 40.5l105 -2q-52 -19 -72.5 -35.5t-20.5 -36.5q0 -32 36 -32q25 0 57 15q6 3 9 3q6 0 6 -12v-42q0 -10 -9 -14q-13 -7 -40 -13t-57 -6q-52 0 -81 21t-29 61q0 30 20.5 52.5z" />
    <glyph glyph-name="uni0394" unicode="&#x394;" horiz-adv-x="682" 
d="M26 96l227 627h170l226 -627v-96h-623v96zM481 123l-146 445l-147 -445h293z" />
    <glyph glyph-name="uni03A9" unicode="&#x3a9;" horiz-adv-x="765" 
d="M261 553.5q-46 -59.5 -46 -169.5q0 -91 34 -154t83 -103q20 -17 20 -36v-91h-289v127h133q-148 120 -148 278q0 84 40 159.5t115.5 122t177.5 46.5q103 0 178 -48.5t113 -123.5t38 -155q0 -148 -136 -267q-4 -4 -4 -7q0 -5 7 -5h118v-127h-288v111q55 41 95 108.5
t40 167.5q0 107 -43.5 166.5t-117.5 59.5t-120 -59.5z" />
    <glyph glyph-name="uni03BC" unicode="&#x3bc;" horiz-adv-x="609" 
d="M391 157v360h152l-3 -517h-146v80q-35 -36 -66.5 -56t-63.5 -27q-22 -3 -35 -3q-9 0 -12 1v-156h-151v678h151v-354q0 -28 19.5 -46t48.5 -18q55 0 106 58z" />
    <glyph glyph-name="pi" unicode="&#x3c0;" horiz-adv-x="671" 
d="M551 413v-413h-145v413h-153q0 -96 -17.5 -218.5t-41.5 -194.5h-141q23 88 39.5 202.5t16.5 200.5q0 10 -9 10h-80v104h624v-104h-93z" />
    <glyph glyph-name="uni1E0C" unicode="&#x1e0c;" horiz-adv-x="745" 
d="M298 722q192 -5 283.5 -97.5t91.5 -259.5q0 -173 -95 -269t-285 -96h-216v723q159 0 221 -1zM229 122h68q97 0 157.5 59t60.5 185q0 121 -56.5 178.5t-160.5 57.5h-69v-480zM423 -142q0 -19 -21 -19h-81q-9 0 -12.5 4t-3.5 12v85q0 16 11 16h95q12 0 12 -15v-83z" />
    <glyph glyph-name="uni1E0D" unicode="&#x1e0d;" horiz-adv-x="605" 
d="M92 61q-58 71 -58 197q0 124 55 196.5t152 72.5q44 0 82.5 -16.5t64.5 -51.5v284h151v-743h-109l-11 71q-21 -32 -63.5 -56.5t-102.5 -24.5q-103 0 -161 71zM359.5 131.5q28.5 33.5 28.5 86.5v103q-19 97 -99 97q-49 0 -78.5 -37.5t-29.5 -119.5q0 -84 29.5 -123.5
t77.5 -39.5q43 0 71.5 33.5zM352 -142q0 -19 -21 -19h-81q-9 0 -12.5 4t-3.5 12v85q0 16 11 16h95q12 0 12 -15v-83z" />
    <glyph glyph-name="uni1E24" unicode="&#x1e24;" horiz-adv-x="726" 
d="M228 309v-309h-151v723h151v-289h270v289h151v-723h-151v309h-270zM419 -142q0 -19 -21 -19h-81q-9 0 -12.5 4t-3.5 12v85q0 16 11 16h95q12 0 12 -15v-83z" />
    <glyph glyph-name="uni1E25" unicode="&#x1e25;" horiz-adv-x="609" 
d="M66 743h148v-294q28 26 46.5 40t45 22.5t63.5 8.5q49 0 89 -20.5t63 -58t23 -85.5v-356h-152v336q0 31 -21.5 49t-55.5 18q-31 0 -56 -15.5t-42 -44.5v-343h-151v743zM367 -142q0 -19 -21 -19h-81q-9 0 -12.5 4t-3.5 12v85q0 16 11 16h95q12 0 12 -15v-83z" />
    <glyph glyph-name="uni1E44" unicode="&#x1e44;" horiz-adv-x="780" 
d="M703 723v-723h-136l-339 491v-491h-151v723h150l325 -471v471h151zM472 785h-154v144h154v-144z" />
    <glyph glyph-name="uni1E45" unicode="&#x1e45;" 
d="M66 517h148v-66q28 34 60.5 52t88.5 18q48 0 89.5 -22t66.5 -62t25 -92v-345h-151v326q0 36 -23.5 56.5t-59.5 20.5q-38 0 -65.5 -18.5t-27.5 -51.5v-333h-151v517zM386 579h-154v144h154v-144z" />
    <glyph glyph-name="uni1E5A" unicode="&#x1e5a;" horiz-adv-x="695" 
d="M486 0l-116 276h-142v-276h-151v723h308q126 0 188 -58.5t62 -159.5q0 -79 -34 -127t-92 -77l133 -301h-156zM448.5 422q33.5 31 33.5 80q0 48 -32 77t-82 29h-140v-217h131q56 0 89.5 31zM407 -142q0 -19 -21 -19h-81q-9 0 -12.5 4t-3.5 12v85q0 16 11 16h95
q12 0 12 -15v-83z" />
    <glyph glyph-name="uni1E5B" unicode="&#x1e5b;" horiz-adv-x="423" 
d="M66 517h145v-129q22 61 69.5 100t110.5 39l1 -143q-10 1 -29 1q-74 0 -110 -32.5t-36 -78.5v-274h-151v517zM208 -142q0 -19 -21 -19h-81q-9 0 -12.5 4t-3.5 12v85q0 16 11 16h95q12 0 12 -15v-83z" />
    <glyph glyph-name="uni1E62" unicode="&#x1e62;" horiz-adv-x="696" 
d="M209 14q-68 24 -113.5 72.5t-52.5 118.5l157 3q10 -48 51.5 -74t101.5 -26q63 0 104 22.5t41 66.5q0 37 -32 56.5t-92 31.5l-126 25q-86 15 -135 66.5t-49 135.5q0 66 37.5 116t103 77t145.5 27q84 0 149 -30t103 -80t44 -108l-153 -2q-14 101 -141 101q-58 0 -92 -24
t-34 -62q0 -32 21.5 -51.5t77.5 -31.5l125 -25q122 -23 163 -84t41 -138q0 -58 -38 -105.5t-106.5 -74.5t-156.5 -27q-76 0 -144 24zM407 -142q0 -19 -21 -19h-81q-9 0 -12.5 4t-3.5 12v85q0 16 11 16h95q12 0 12 -15v-83z" />
    <glyph glyph-name="uni1E63" unicode="&#x1e63;" horiz-adv-x="519" 
d="M110 30.5q-65 40.5 -79 121.5l125 5q12 -36 40 -50t69 -14q43 0 68.5 14t25.5 38q0 20 -17 32.5t-52 20.5l-89 17q-153 30 -154 148q0 48 26 85t75.5 58t117.5 21q100 0 159 -44.5t58 -117.5l-125 -3q-13 66 -96 66q-82 0 -82 -54q0 -17 18.5 -29t63.5 -21l82 -18
q80 -19 112 -63t32 -90q0 -76 -63 -119.5t-162 -43.5q-88 0 -153 40.5zM322 -142q0 -19 -21 -19h-81q-9 0 -12.5 4t-3.5 12v85q0 16 11 16h95q12 0 12 -15v-83z" />
    <glyph glyph-name="uni1E6C" unicode="&#x1e6c;" horiz-adv-x="607" 
d="M13 723h581v-134h-213v-589h-151v589h-217v134zM372 -142q0 -19 -21 -19h-81q-9 0 -12.5 4t-3.5 12v85q0 16 11 16h95q12 0 12 -15v-83z" />
    <glyph glyph-name="uni1E6D" unicode="&#x1e6d;" horiz-adv-x="426" 
d="M265 413v-270q0 -26 10 -35.5t29 -9.5h77v-91q-30 -13 -92 -13q-98 0 -136.5 36.5t-38.5 104.5v278h-84v104h89l21 165h125v-164h114v-105h-114zM322 -142q0 -19 -21 -19h-81q-9 0 -12.5 4t-3.5 12v85q0 16 11 16h95q12 0 12 -15v-83z" />
    <glyph glyph-name="Wgrave" unicode="&#x1e80;" horiz-adv-x="966" 
d="M736 0h-120l-133 465l-135 -465h-117l-214 723h147l133 -468l131 468h109l134 -468l131 468h148zM623 837l-21 -64l-267 69l35 98z" />
    <glyph glyph-name="wgrave" unicode="&#x1e81;" horiz-adv-x="796" 
d="M607 0h-115l-96 307l-97 -307h-111l-171 517h134l98 -314l95 314h108l96 -314l96 314h135zM540 631l-21 -64l-267 69l35 98z" />
    <glyph glyph-name="Wacute" unicode="&#x1e82;" horiz-adv-x="966" 
d="M736 0h-120l-133 465l-135 -465h-117l-214 723h147l133 -468l131 468h109l134 -468l131 468h148zM629 842l-266 -69l-21 64l254 103z" />
    <glyph glyph-name="wacute" unicode="&#x1e83;" horiz-adv-x="796" 
d="M607 0h-115l-96 307l-97 -307h-111l-171 517h134l98 -314l95 314h108l96 -314l96 314h135zM546 636l-266 -69l-21 64l254 103z" />
    <glyph glyph-name="Wdieresis" unicode="&#x1e84;" horiz-adv-x="966" 
d="M736 0h-120l-133 465l-135 -465h-117l-214 723h147l133 -468l131 468h109l134 -468l131 468h148zM452 802h-133v127h133v-127zM651 802h-133v127h133v-127z" />
    <glyph glyph-name="wdieresis" unicode="&#x1e85;" horiz-adv-x="796" 
d="M607 0h-115l-96 307l-97 -307h-111l-171 517h134l98 -314l95 314h108l96 -314l96 314h135zM369 596h-133v127h133v-127zM568 596h-133v127h133v-127z" />
    <glyph glyph-name="uni1E92" unicode="&#x1e92;" horiz-adv-x="667" 
d="M45 73l365 524h-339v126h554v-70l-370 -526h366v-127h-576v73zM400 -142q0 -19 -21 -19h-81q-9 0 -12.5 4t-3.5 12v85q0 16 11 16h95q12 0 12 -15v-83z" />
    <glyph glyph-name="uni1E93" unicode="&#x1e93;" horiz-adv-x="519" 
d="M29 77l265 345h-243v95h432v-75l-267 -345h270v-97h-457v77zM330 -142q0 -19 -21 -19h-81q-9 0 -12.5 4t-3.5 12v85q0 16 11 16h95q12 0 12 -15v-83z" />
    <glyph glyph-name="uni1EB8" unicode="&#x1eb8;" horiz-adv-x="638" 
d="M77 723h501l-1 -127h-348v-170h301v-124h-302v-174h354v-128h-505v723zM396 -142q0 -19 -21 -19h-81q-9 0 -12.5 4t-3.5 12v85q0 16 11 16h95q12 0 12 -15v-83z" />
    <glyph glyph-name="uni1EB9" unicode="&#x1eb9;" horiz-adv-x="562" 
d="M212 132.5q29 -33.5 79 -33.5q76 0 101 62l134 -5q-10 -50 -44 -87.5t-83.5 -58t-104.5 -20.5q-77 0 -136 32.5t-91.5 92t-32.5 138.5q0 78 30 140t87.5 98t134.5 36q116 0 178.5 -72t62.5 -191v-40h-344q0 -58 29 -91.5zM387 313q0 47 -26.5 78t-75.5 31
q-46 0 -74 -32.5t-28 -76.5h204zM345 -142q0 -19 -21 -19h-81q-9 0 -12.5 4t-3.5 12v85q0 16 11 16h95q12 0 12 -15v-83z" />
    <glyph glyph-name="uni1EBC" unicode="&#x1ebc;" horiz-adv-x="638" 
d="M77 723h501l-1 -127h-348v-170h301v-124h-302v-174h354v-128h-505v723zM455 825q-23 -8 -49 -8q-19 0 -33.5 3.5t-41.5 11.5q-17 5 -35 9.5t-35 4.5q-20 0 -33.5 -5t-31.5 -18q-7 -5 -10 -5q-6 0 -9 11l-14 43q-2 6 -2 9q0 6 8 14q19 17 39 26.5t48 9.5q20 0 38.5 -4.5
t44.5 -12.5q17 -5 34.5 -9.5t31.5 -4.5q19 0 35 6.5t33 17.5q5 4 11 4q7 0 10 -10l11 -51q1 -2 1 -7q0 -8 -11 -16q-17 -11 -40 -19z" />
    <glyph glyph-name="uni1EBD" unicode="&#x1ebd;" horiz-adv-x="562" 
d="M212 132.5q29 -33.5 79 -33.5q76 0 101 62l134 -5q-10 -50 -44 -87.5t-83.5 -58t-104.5 -20.5q-77 0 -136 32.5t-91.5 92t-32.5 138.5q0 78 30 140t87.5 98t134.5 36q116 0 178.5 -72t62.5 -191v-40h-344q0 -58 29 -91.5zM387 313q0 47 -26.5 78t-75.5 31
q-46 0 -74 -32.5t-28 -76.5h204zM410 619q-23 -8 -49 -8q-19 0 -33.5 3.5t-41.5 11.5q-17 5 -35 9.5t-35 4.5q-20 0 -33.5 -5t-31.5 -18q-7 -5 -10 -5q-6 0 -9 11l-14 43q-2 6 -2 9q0 6 8 14q19 17 39 26.5t48 9.5q20 0 38.5 -4.5t44.5 -12.5q17 -5 34.5 -9.5t31.5 -4.5
q19 0 35 6.5t33 17.5q5 4 11 4q7 0 10 -10l11 -51q1 -2 1 -7q0 -8 -11 -16q-17 -11 -40 -19z" />
    <glyph glyph-name="uni1ECA" unicode="&#x1eca;" horiz-adv-x="305" 
d="M228 723v-723h-151v723h151zM220 -142q0 -19 -21 -19h-81q-9 0 -12.5 4t-3.5 12v85q0 16 11 16h95q12 0 12 -15v-83z" />
    <glyph glyph-name="uni1ECB" unicode="&#x1ecb;" horiz-adv-x="293" 
d="M219 598h-153v145h153v-145zM218 0h-151v517h151v-517zM215 -142q0 -19 -21 -19h-81q-9 0 -12.5 4t-3.5 12v85q0 16 11 16h95q12 0 12 -15v-83z" />
    <glyph glyph-name="uni1ECC" unicode="&#x1ecc;" horiz-adv-x="754" 
d="M199.5 34.5q-75.5 44.5 -116 127.5t-40.5 197q0 115 41.5 199.5t117 129.5t176.5 45q100 0 175.5 -45t116.5 -129.5t41 -198.5q0 -113 -40.5 -196.5t-116 -128.5t-176.5 -45q-103 0 -178.5 44.5zM547 358q0 129 -44 190t-125 61t-125.5 -61t-44.5 -190q0 -126 44.5 -185
t125.5 -59q169 0 169 244zM438 -142q0 -19 -21 -19h-81q-9 0 -12.5 4t-3.5 12v85q0 16 11 16h95q12 0 12 -15v-83z" />
    <glyph glyph-name="uni1ECD" unicode="&#x1ecd;" horiz-adv-x="571" 
d="M152 23.5q-57 33.5 -87.5 93.5t-30.5 138q0 80 31.5 142t88.5 96t132 34q76 0 133 -34.5t87.5 -96t30.5 -140.5q0 -78 -30.5 -138.5t-87.5 -94t-134 -33.5q-76 0 -133 33.5zM365 147.5q24 45.5 24 113.5q0 67 -24.5 111t-78.5 44q-55 0 -79.5 -44t-24.5 -111t24.5 -113
t79.5 -46t79 45.5zM342 -142q0 -19 -21 -19h-81q-9 0 -12.5 4t-3.5 12v85q0 16 11 16h95q12 0 12 -15v-83z" />
    <glyph glyph-name="uni1EE4" unicode="&#x1ee4;" horiz-adv-x="715" 
d="M591 64.5q-69 -74.5 -222 -74.5q-154 0 -223 75t-69 217v441h154v-451q0 -78 37 -116t101 -38q63 0 101 38t38 116v451h152v-445q0 -139 -69 -213.5zM435 -142q0 -19 -21 -19h-81q-9 0 -12.5 4t-3.5 12v85q0 16 11 16h95q12 0 12 -15v-83z" />
    <glyph glyph-name="uni1EE5" unicode="&#x1ee5;" 
d="M168.5 10q-44.5 19 -73.5 57t-29 92v359h151v-340q0 -38 24.5 -58.5t61.5 -20.5q38 0 63 22t26 60v337h152l-3 -518h-113l-10 73q-21 -38 -67.5 -60.5t-92.5 -22.5q-45 1 -89.5 20zM364 -142q0 -19 -21 -19h-81q-9 0 -12.5 4t-3.5 12v85q0 16 11 16h95q12 0 12 -15v-83z
" />
    <glyph glyph-name="Ygrave" unicode="&#x1ef2;" horiz-adv-x="662" 
d="M406 304v-304h-151v304l-251 419h163l164 -289l162 289h165zM485 837l-21 -64l-267 69l35 98z" />
    <glyph glyph-name="ygrave" unicode="&#x1ef3;" horiz-adv-x="572" 
d="M95 -161q-22 4 -32.5 8t-12.5 6v96l51 -2q59 -4 79.5 11.5t27.5 37.5l9 26l-201 495h149l121 -332l124 332h147l-209 -517q-39 -95 -86 -130t-113 -35q-32 0 -54 4zM442 631l-21 -64l-267 69l35 98z" />
    <glyph glyph-name="uni1EF8" unicode="&#x1ef8;" horiz-adv-x="662" 
d="M406 304v-304h-151v304l-251 419h163l164 -289l162 289h165zM471 825q-23 -8 -49 -8q-19 0 -33.5 3.5t-41.5 11.5q-17 5 -35 9.5t-35 4.5q-20 0 -33.5 -5t-31.5 -18q-7 -5 -10 -5q-6 0 -9 11l-14 43q-2 6 -2 9q0 6 8 14q19 17 39 26.5t48 9.5q20 0 38.5 -4.5t44.5 -12.5
q17 -5 34.5 -9.5t31.5 -4.5q19 0 35 6.5t33 17.5q5 4 11 4q7 0 10 -10l11 -51q1 -2 1 -7q0 -8 -11 -16q-17 -11 -40 -19z" />
    <glyph glyph-name="uni1EF9" unicode="&#x1ef9;" horiz-adv-x="572" 
d="M95 -161q-22 4 -32.5 8t-12.5 6v96l51 -2q59 -4 79.5 11.5t27.5 37.5l9 26l-201 495h149l121 -332l124 332h147l-209 -517q-39 -95 -86 -130t-113 -35q-32 0 -54 4zM428 619q-23 -8 -49 -8q-19 0 -33.5 3.5t-41.5 11.5q-17 5 -35 9.5t-35 4.5q-20 0 -33.5 -5t-31.5 -18
q-7 -5 -10 -5q-6 0 -9 11l-14 43q-2 6 -2 9q0 6 8 14q19 17 39 26.5t48 9.5q20 0 38.5 -4.5t44.5 -12.5q17 -5 34.5 -9.5t31.5 -4.5q19 0 35 6.5t33 17.5q5 4 11 4q7 0 10 -10l11 -51q1 -2 1 -7q0 -8 -11 -16q-17 -11 -40 -19z" />
    <glyph glyph-name="endash" unicode="&#x2013;" horiz-adv-x="591" 
d="M530 194l-476 -1v110h476v-109z" />
    <glyph glyph-name="emdash" unicode="&#x2014;" horiz-adv-x="908" 
d="M847 194l-793 -1v110h793v-109z" />
    <glyph glyph-name="quoteleft" unicode="&#x2018;" horiz-adv-x="260" 
d="M138 616l52 -5v-143h-151v126l102 159h55z" />
    <glyph glyph-name="quoteright" unicode="&#x2019;" horiz-adv-x="250" 
d="M105 575l-52 5v143h151v-126l-102 -159h-55z" />
    <glyph glyph-name="quotesinglbase" unicode="&#x201a;" horiz-adv-x="256" 
d="M104 -3l-52 5v144h151v-127l-102 -159h-55z" />
    <glyph glyph-name="quotedblleft" unicode="&#x201c;" horiz-adv-x="478" 
d="M47 564l103 159h55l-59 -137l52 -5v-143h-151v126zM267 564l102 159h55l-58 -137l52 -5v-143h-151v126z" />
    <glyph glyph-name="quotedblright" unicode="&#x201d;" horiz-adv-x="496" 
d="M105 575l-52 5v143h151v-126l-102 -159h-55zM325 575l-52 5v143h151v-126l-103 -159h-55z" />
    <glyph glyph-name="quotedblbase" unicode="&#x201e;" horiz-adv-x="514" 
d="M343 -3l-52 5v144h151v-127l-102 -159h-55zM118 -3l-52 5v144h151v-127l-102 -159h-55z" />
    <glyph glyph-name="dagger" unicode="&#x2020;" horiz-adv-x="521" 
d="M485 364l-184 22l29 -547h-144l27 547l-183 -22v131l178 -19l-24 247h146l-24 -247l179 19v-131z" />
    <glyph glyph-name="daggerdbl" unicode="&#x2021;" horiz-adv-x="521" 
d="M302 162l183 22v-131l-180 20l25 -234h-146l25 234l-179 -20v131l182 -22v209l-182 -21v130l178 -19l-24 262h146l-24 -262l179 19v-130l-183 21v-209z" />
    <glyph glyph-name="bullet" unicode="&#x2022;" horiz-adv-x="352" 
d="M106.5 257q-29.5 17 -46.5 46.5t-17 64.5q0 34 17 63.5t46.5 47t63.5 17.5q35 0 64.5 -17.5t47 -47t17.5 -63.5q0 -35 -17.5 -64.5t-47 -46.5t-64.5 -17q-34 0 -63.5 17z" />
    <glyph glyph-name="ellipsis" unicode="&#x2026;" horiz-adv-x="889" 
d="M858 0h-165v163h165v-163zM226 0h-165v163h165v-163zM542 0h-165v163h165v-163z" />
    <glyph glyph-name="perthousand" unicode="&#x2030;" horiz-adv-x="1352" 
d="M320.5 706.5q41.5 -27.5 65.5 -75t24 -104.5q0 -56 -23.5 -102.5t-65 -73.5t-93.5 -27t-94 27t-66 73.5t-24 102.5q0 57 24.5 104.5t66.5 75t93 27.5t92.5 -27.5zM281 -4l-87 1l487 734h86zM300 527q0 63 -18.5 97t-54.5 34t-54 -34.5t-18 -96.5q0 -61 17.5 -94t54.5 -33
q73 0 73 127zM797 373q42 -28 66 -75.5t24 -103.5t-23.5 -103t-65.5 -74t-94 -27t-94 27t-66 74t-24 103t24.5 103.5t66.5 75.5t93 28t93 -28zM1211.5 373q41.5 -28 66 -75.5t24.5 -103.5t-24 -103t-65.5 -74t-93.5 -27t-94 27t-66 74t-24 103t24.5 103.5t66.5 75.5t93 28
t92.5 -28zM758 100q18 33 18 93q0 62 -18.5 96.5t-54.5 34.5q-35 0 -53 -34.5t-18 -96.5q0 -60 17.5 -93t53.5 -33q37 0 55 33zM1172.5 100q17.5 33 17.5 93q0 62 -18 96.5t-54 34.5q-35 0 -53.5 -35t-18.5 -96q0 -60 18 -93t54 -33q37 0 54.5 33z" />
    <glyph glyph-name="guilsinglleft" unicode="&#x2039;" horiz-adv-x="305" 
d="M244 64h-79l-117 187l116 195h81l-80 -195z" />
    <glyph glyph-name="guilsinglright" unicode="&#x203a;" horiz-adv-x="305" 
d="M53 446h80l117 -195l-117 -187h-80l80 187z" />
    <glyph glyph-name="fraction" unicode="&#x2044;" horiz-adv-x="253" 
d="M-79 -4l-87 1l487 734h86z" />
    <glyph glyph-name="uni2070" unicode="&#x2070;" horiz-adv-x="417" 
d="M327 782.5q51 -62.5 51 -173.5t-50 -171.5t-135 -60.5q-86 0 -136 60.5t-50 171.5t51 173.5t135 62.5q83 0 134 -62.5zM253.5 490q19.5 37 19.5 119q0 84 -20 122t-61 38q-40 0 -60 -38t-20 -122q0 -82 20 -119t61 -37t60.5 37z" />
    <glyph glyph-name="uni2074" unicode="&#x2074;" horiz-adv-x="417" 
d="M309 835v-274h68v-82h-68v-99h-96l1 99h-205v80l205 276h95zM214 561v142l-106 -142h106z" />
    <glyph glyph-name="uni2075" unicode="&#x2075;" horiz-adv-x="403" 
d="M360 835l-5 -78h-216l-9 -106q32 12 52 17t46 5q71 0 115.5 -38t44.5 -107q0 -72 -49.5 -113t-132.5 -41q-62 0 -112 23.5t-78 63.5l71 50q26 -32 49 -47t58 -15q42 0 66.5 21.5t24.5 54.5t-22 52.5t-60 19.5q-20 0 -37 -6t-42 -18q-6 -3 -8 -3t-7 4l-65 35l20 226h296z
" />
    <glyph glyph-name="uni2076" unicode="&#x2076;" horiz-adv-x="405" 
d="M310.5 814q45.5 -33 49.5 -87l-85 -6q-10 26 -27.5 38.5t-46.5 12.5q-42 0 -66.5 -34t-24.5 -92q0 -16 1 -24q16 21 43.5 32.5t59.5 11.5q69 0 111 -38t42 -98q0 -43 -22.5 -76.5t-62 -52.5t-89.5 -19q-88 0 -138 60t-50 163q0 113 52 177.5t142 64.5q66 0 111.5 -33z
M138.5 578.5q-24.5 -16.5 -24.5 -36.5q3 -44 23 -66.5t53 -22.5q31 0 54 20.5t23 51.5q0 32 -21.5 51t-53.5 19q-29 0 -53.5 -16.5z" />
    <glyph glyph-name="uni2077" unicode="&#x2077;" horiz-adv-x="367" 
d="M364 835v-97q-57 -71 -106 -177.5t-51 -180.5h-102q3 42 21.5 104t55.5 134.5t92 138.5h-252v78h342z" />
    <glyph glyph-name="uni2078" unicode="&#x2078;" horiz-adv-x="403" 
d="M308.5 809q46.5 -36 46.5 -91q0 -37 -23 -58.5t-47 -32.5q3 -1 29 -13.5t43.5 -39t17.5 -61.5q0 -64 -51.5 -99.5t-137.5 -35.5q-81 0 -129.5 31t-48.5 87q0 37 22.5 63t60.5 42q-1 0 -19 9.5t-35 36t-17 58.5q0 39 20.5 71t59 50.5t89.5 18.5q73 0 119.5 -36zM141 758
q-20 -16 -20 -40q0 -37 43 -49l47 -15q12 -3 25 6t22 25t9 31q0 25 -20.5 41.5t-55.5 16.5q-30 0 -50 -16zM250 464q21 15 21 41q0 19 -11.5 32t-38.5 21l-57 17q-3 1 -8 1q-20 0 -38.5 -19t-18.5 -45q0 -30 23 -46.5t71 -16.5q36 0 57 15z" />
    <glyph glyph-name="uni2079" unicode="&#x2079;" horiz-adv-x="405" 
d="M65.5 413.5q-46.5 34.5 -50.5 87.5l87 5q19 -52 71 -52q47 0 75 32t28 99q0 16 -1 24q-14 -25 -41.5 -38.5t-64.5 -13.5q-70 0 -114.5 39.5t-44.5 101.5q0 42 22.5 75.5t62.5 52.5t89 19q88 0 138 -60t50 -163q0 -121 -51.5 -182t-143.5 -61q-65 0 -111.5 34.5z
M239.5 648.5q24.5 16.5 24.5 36.5q-4 44 -24 66.5t-53 22.5q-32 0 -52.5 -20t-20.5 -52q0 -30 20.5 -50t50.5 -20t54.5 16.5z" />
    <glyph glyph-name="colonmonetary" unicode="&#x20a1;" horiz-adv-x="597" 
d="M354.5 223.5q20.5 23.5 35.5 60.5l119 -6q-8 -62 -45.5 -109.5t-98.5 -65.5l-27 -102l-79 2l23 90q-28 1 -63 10l-27 -102l-79 2l35 135q-49 34 -77 91.5t-28 129.5q0 95 45.5 163.5t122.5 94.5l28 105l79 1l-24 -93q32 0 64 -8l27 100l79 1l-35 -136q33 -25 53 -63.5
t27 -83.5l-123 -6q-18 40 -36.5 61t-53.5 21q-52 0 -82.5 -41t-30.5 -114q0 -74 31.5 -117.5t83.5 -43.5q36 0 56.5 23.5z" />
    <glyph glyph-name="franc" unicode="&#x20a3;" horiz-adv-x="624" 
d="M238 598v-181h255v-123h-255v-95h147v-81h-147v-118h-172v118h-87v81h87v524h520l-1 -125h-347z" />
    <glyph glyph-name="lira" unicode="&#x20a4;" horiz-adv-x="646" 
d="M525.5 46q-59.5 -46 -145.5 -46h-363v125h34q33 0 55 20t27 60q3 15 2 32q0 7 -8 7h-104v81h101l-9 65h-92v82h80l-4 40q-2 20 -2 30q0 94 65.5 142.5t163.5 48.5q75 0 142 -38t95 -108l-132 -40q-13 31 -32 48.5t-50 17.5q-35 0 -56.5 -21.5t-21.5 -60.5q0 -10 3 -27
q0 -5 2 -21q1 -11 12 -11h132v-82h-129l8 -65h121v-81h-124q-5 -34 -20.5 -65t-41.5 -53h134q45 0 71.5 18.5t40.5 60.5l127 -27q-22 -86 -81.5 -132z" />
    <glyph glyph-name="uni20A6" unicode="&#x20a6;" horiz-adv-x="779" 
d="M732 441v-138h34v-74h-34v-229h-136l-158 229h-181v-229h-151v229h-99v74h99v138h-99v74h99v208h150l144 -208h181v208h151v-208h34v-74h-34zM387 303l-95 138h-35v-138h130zM581 441h-130l95 -138h35v138z" />
    <glyph glyph-name="uni20A9" unicode="&#x20a9;" horiz-adv-x="1129" 
d="M957 525l-22 -75h180v-81h-204l-109 -369h-120l-106 369h-55l-107 -369h-117l-109 369h-178v81h154l-22 75h-132v81h108l-35 117h147l33 -117h198l33 117h109l34 -117h198l33 117h148l-35 -117h134v-81h-158zM308 450h110l21 75h-153zM813 525h-153l21 -75h111zM553 450
l-4 15l-4 -15h8zM395 369h-64l32 -114zM769 369h-65l33 -114z" />
    <glyph glyph-name="dong" unicode="&#x20ab;" horiz-adv-x="532" 
d="M515 668v-66h-60v-470h-124v53q-27 -29 -56 -45t-74 -16q-75 0 -121.5 56.5t-46.5 160.5q0 66 23.5 117.5t64 79.5t89.5 28q32 0 56.5 -10.5t47.5 -32.5q5 -4 9 -4q6 0 6 10v73h-111v66h111v55h126v-55h60zM327 445q-17 20 -34.5 29t-40.5 9q-41 0 -65 -34t-24 -106
t23.5 -105.5t64.5 -33.5q32 0 54 20.5t22 47.5v173zM61 72h395v-72h-395v72z" />
    <glyph glyph-name="Euro" unicode="&#x20ac;" horiz-adv-x="653" 
d="M477.5 136.5q34.5 19.5 55.5 45.5l81 -87q-41 -47 -99.5 -76t-125.5 -29q-109 0 -188 67t-108 183h-93v81h80q-2 30 -2 47q0 24 1 35h-79v81h91q27 117 106 183t192 66q68 0 127 -27t99 -75l-104 -78q-27 29 -51.5 44.5t-57.5 15.5q-107 0 -137 -129h162v-81h-173
q-1 -12 -1 -38q0 -30 1 -43h173v-82h-159q18 -62 54.5 -92.5t86.5 -30.5q34 0 68.5 19.5z" />
    <glyph glyph-name="uni20B9" unicode="&#x20b9;" horiz-adv-x="644" 
d="M492 650q30 -30 41 -76h87v-74h-84q-8 -57 -44 -97.5t-88 -59.5q-7 -3 -3 -15l135 -328h-186l-112 315h-219v109h213q56 0 86.5 18.5t38.5 57.5h-338v73l336 1q-19 70 -118 70h-218v79h601v-73h-128z" />
    <glyph glyph-name="uni20BA" unicode="&#x20ba;" horiz-adv-x="661" 
d="M646 254q-92 -254 -367 -254h-144v217l-78 -28l-28 78l106 39v74l-92 -34l-29 78l121 44v255h173v-192l119 44l29 -78l-148 -54v-74l133 48l28 -78l-161 -59v-154h33q56 2 99.5 41.5t71.5 115.5z" />
    <glyph glyph-name="uni2113" unicode="&#x2113;" horiz-adv-x="570" 
d="M275.5 126q22.5 -24 62.5 -24q57 0 111 52l-145 -164q-71 0 -112.5 25t-59.5 58t-30 76q-1 7 -5 3l-45 -31l-34 83l81 61v219q0 122 59 185.5t157 63.5q88 0 128 -46.5t40 -122.5q0 -69 -31 -126.5t-77 -103.5t-122 -108v-29q0 -47 22.5 -71zM253 347q60 56 95.5 111.5
t35.5 114.5q0 33 -14 51.5t-43 18.5q-36 0 -55 -35t-19 -121v-140zM474 182l5 6zM474 182q-3 -3 -2 -3q-7 -9 -23 -25z" />
    <glyph glyph-name="uni2116" unicode="&#x2116;" horiz-adv-x="1177" 
d="M703 723v-723h-136l-339 491v-491h-151v723h150l325 -471v471h151zM1097.5 686q45.5 -47 45.5 -122q0 -73 -45.5 -119.5t-119.5 -46.5t-119 46.5t-45 119.5q0 75 46 122t118 47q74 0 119.5 -47zM914 566q0 -103 64 -103q66 0 66 103t-66 103q-64 0 -64 -103z" />
    <glyph glyph-name="uni2117" unicode="&#x2117;" horiz-adv-x="826" 
d="M223 40q-85 50 -135 135t-50 187q0 100 50 185.5t135 135.5t186 50t186.5 -50t135.5 -135.5t50 -185.5q0 -102 -50 -187t-135.5 -135t-186.5 -50t-186 50zM554 108.5q64 35.5 100 101.5t36 152t-36 151.5t-100 101.5t-145 36q-82 0 -145.5 -36t-99 -101.5t-35.5 -151.5
q0 -87 35.5 -152.5t99 -101t145.5 -35.5q81 0 145 35.5zM553.5 336.5q-38.5 -32.5 -103.5 -32.5h-87v-136h-96v386h173q67 0 109.5 -31.5t42.5 -92.5t-38.5 -93.5zM478 470.5q-16 13.5 -43 13.5h-72v-112h75q25 0 40.5 15t15.5 42q0 28 -16 41.5z" />
    <glyph glyph-name="uni2120" unicode="&#x2120;" horiz-adv-x="1008" 
d="M130.5 9q-42.5 15 -71 45t-32.5 74l98 2q6 -30 32 -46t64 -16q39 0 64.5 14t25.5 41q0 23 -20 35.5t-57 19.5l-79 16q-54 9 -84.5 41.5t-30.5 84.5q0 41 23.5 72.5t64.5 48.5t91 17q52 0 93 -19t64.5 -50t27.5 -68l-96 -1q-9 63 -88 63q-36 0 -57.5 -15t-21.5 -39
q0 -20 13.5 -32t48.5 -19l78 -16q77 -14 102.5 -52.5t25.5 -86.5q0 -36 -24 -66t-66.5 -46.5t-97.5 -16.5q-48 0 -90.5 15zM483 452h138l100 -318l102 318h136v-452h-95v344l-106 -344h-74l-106 343v-343h-95v452z" />
    <glyph glyph-name="trademark" unicode="&#x2122;" horiz-adv-x="952" 
d="M8 452h363v-84h-133v-368h-94v368h-136v84zM427 452h138l100 -318l101 318h137v-452h-95v344l-106 -344h-74l-106 342v-342h-95v452z" />
    <glyph glyph-name="estimated" unicode="&#x212e;" horiz-adv-x="826" 
d="M579 33q-79 -43 -170 -43q-101 0 -186 50t-135 135t-50 187q0 100 50 185.5t135 135.5t186 50q99 0 185 -48.5t136.5 -131t50.5 -178.5q0 -7 -3 -10t-10 -3h-541v-276q78 -52 182 -52q77 0 143 30.5t110 83.5h53q-57 -72 -136 -115zM236 643q-9 -6 -9 -18v-219h355v238
q-78 44 -173 44q-97 0 -173 -45z" />
    <glyph glyph-name="uni2153" unicode="&#x2153;" horiz-adv-x="957" 
d="M74 625l-81 -23v66l126 63h50v-455h-95v349zM224 -4l-87 1l487 734h86zM637 428q53 30 129 30q49 0 89 -15t63 -42.5t23 -61.5q0 -69 -85 -99q41 -11 69.5 -39.5t28.5 -72.5q0 -42 -27 -73t-70.5 -47.5t-92.5 -16.5q-86 0 -134.5 28.5t-56.5 100.5l89 5q11 -32 37 -45
t59 -13q41 0 66 17.5t25 43.5q0 28 -24 46.5t-59 18.5l-62 1v75l53 2q36 1 59 18t23 43q0 23 -22.5 38t-52.5 15q-38 0 -63.5 -12.5t-34.5 -46.5l-88 5q6 67 59 97z" />
    <glyph glyph-name="uni2154" unicode="&#x2154;" horiz-adv-x="1040" 
d="M12 349l142 127q59 51 77 75t18 50q0 29 -19.5 44.5t-48.5 15.5q-30 0 -52.5 -15.5t-33.5 -50.5l-88 5q7 64 52.5 102t124.5 38q76 0 120.5 -37t44.5 -101q0 -36 -17.5 -64t-65.5 -74l-111 -105h199v-80h-342v70zM307 -4l-87 1l487 734h86zM720 428q53 30 129 30
q49 0 89 -15t63 -42.5t23 -61.5q0 -69 -85 -99q41 -11 69.5 -39.5t28.5 -72.5q0 -42 -27 -73t-70.5 -47.5t-92.5 -16.5q-86 0 -134.5 28.5t-56.5 100.5l89 5q11 -32 37 -45t59 -13q41 0 66 17.5t25 43.5q0 28 -24 46.5t-59 18.5l-62 1v75l53 2q36 1 59 18t23 43
q0 23 -22.5 38t-52.5 15q-38 0 -63.5 -12.5t-34.5 -46.5l-88 5q6 67 59 97z" />
    <glyph glyph-name="oneeighth" unicode="&#x215b;" horiz-adv-x="959" 
d="M74 625l-81 -23v66l126 63h50v-455h-95v349zM224 -4l-87 1l487 734h86zM864.5 421q46.5 -36 46.5 -91q0 -37 -23 -58.5t-47 -32.5q3 -1 29 -13.5t43.5 -39t17.5 -61.5q0 -64 -51.5 -99.5t-137.5 -35.5q-81 0 -129.5 31t-48.5 87q0 37 22.5 63t60.5 42q-1 0 -19 9.5
t-35 36t-17 58.5q0 39 20.5 71t59 50.5t89.5 18.5q73 0 119.5 -36zM697 370q-20 -16 -20 -40q0 -37 43 -49l47 -15q12 -3 25 6t22 25t9 31q0 25 -20.5 41.5t-55.5 16.5q-30 0 -50 -16zM806 76q21 15 21 41q0 19 -11.5 32t-38.5 21l-57 17q-3 1 -8 1q-20 0 -38.5 -19
t-18.5 -45q0 -30 23 -46.5t71 -16.5q36 0 57 15z" />
    <glyph glyph-name="threeeighths" unicode="&#x215c;" horiz-adv-x="1057" 
d="M81 710q53 30 129 30q49 0 89 -15t63 -42.5t23 -61.5q0 -69 -85 -99q41 -11 69.5 -39.5t28.5 -72.5q0 -42 -27 -73t-70.5 -47.5t-92.5 -16.5q-86 0 -134.5 28.5t-56.5 100.5l89 5q11 -32 37 -45t59 -13q41 0 66 17.5t25 43.5q0 28 -24 46.5t-59 18.5l-62 1v75l53 2
q36 1 59 18t23 43q0 23 -22.5 38t-52.5 15q-38 0 -63.5 -12.5t-34.5 -46.5l-88 5q6 67 59 97zM322 -4l-87 1l487 734h86zM962.5 421q46.5 -36 46.5 -91q0 -37 -23 -58.5t-47 -32.5q3 -1 29 -13.5t43.5 -39t17.5 -61.5q0 -64 -51.5 -99.5t-137.5 -35.5q-81 0 -129.5 31
t-48.5 87q0 37 22.5 63t60.5 42q-1 0 -19 9.5t-35 36t-17 58.5q0 39 20.5 71t59 50.5t89.5 18.5q73 0 119.5 -36zM795 370q-20 -16 -20 -40q0 -37 43 -49l47 -15q12 -3 25 6t22 25t9 31q0 25 -20.5 41.5t-55.5 16.5q-30 0 -50 -16zM904 76q21 15 21 41q0 19 -11.5 32
t-38.5 21l-57 17q-3 1 -8 1q-20 0 -38.5 -19t-18.5 -45q0 -30 23 -46.5t71 -16.5q36 0 57 15z" />
    <glyph glyph-name="fiveeighths" unicode="&#x215d;" horiz-adv-x="1059" 
d="M360 731l-5 -78h-216l-9 -106q32 12 52 17t46 5q71 0 115.5 -38t44.5 -107q0 -72 -49.5 -113t-132.5 -41q-62 0 -112 23.5t-78 63.5l71 50q26 -32 49 -47t58 -15q42 0 66.5 21.5t24.5 54.5t-22 52.5t-60 19.5q-20 0 -37 -6t-42 -18q-6 -3 -8 -3t-7 4l-65 35l20 226h296z
M324 -4l-87 1l487 734h86zM964.5 421q46.5 -36 46.5 -91q0 -37 -23 -58.5t-47 -32.5q3 -1 29 -13.5t43.5 -39t17.5 -61.5q0 -64 -51.5 -99.5t-137.5 -35.5q-81 0 -129.5 31t-48.5 87q0 37 22.5 63t60.5 42q-1 0 -19 9.5t-35 36t-17 58.5q0 39 20.5 71t59 50.5t89.5 18.5
q73 0 119.5 -36zM797 370q-20 -16 -20 -40q0 -37 43 -49l47 -15q12 -3 25 6t22 25t9 31q0 25 -20.5 41.5t-55.5 16.5q-30 0 -50 -16zM906 76q21 15 21 41q0 19 -11.5 32t-38.5 21l-57 17q-3 1 -8 1q-20 0 -38.5 -19t-18.5 -45q0 -30 23 -46.5t71 -16.5q36 0 57 15z" />
    <glyph glyph-name="seveneighths" unicode="&#x215e;" horiz-adv-x="1023" 
d="M364 730v-97q-57 -71 -106 -177.5t-51 -180.5h-102q3 42 21.5 104t55.5 134.5t92 138.5h-252v78h342zM288 -4l-87 1l487 734h86zM928.5 421q46.5 -36 46.5 -91q0 -37 -23 -58.5t-47 -32.5q3 -1 29 -13.5t43.5 -39t17.5 -61.5q0 -64 -51.5 -99.5t-137.5 -35.5
q-81 0 -129.5 31t-48.5 87q0 37 22.5 63t60.5 42q-1 0 -19 9.5t-35 36t-17 58.5q0 39 20.5 71t59 50.5t89.5 18.5q73 0 119.5 -36zM761 370q-20 -16 -20 -40q0 -37 43 -49l47 -15q12 -3 25 6t22 25t9 31q0 25 -20.5 41.5t-55.5 16.5q-30 0 -50 -16zM870 76q21 15 21 41
q0 19 -11.5 32t-38.5 21l-57 17q-3 1 -8 1q-20 0 -38.5 -19t-18.5 -45q0 -30 23 -46.5t71 -16.5q36 0 57 15z" />
    <glyph glyph-name="partialdiff" unicode="&#x2202;" horiz-adv-x="598" 
d="M58 666q27 25 82 46t121 21q89 0 156 -41.5t104 -125.5t37 -208q0 -172 -70.5 -270t-204.5 -98q-76 0 -132 31t-85.5 85t-29.5 122q0 67 28.5 120t81.5 83.5t124 30.5q46 0 73.5 -11.5t61.5 -35.5q8 -5 11 -5q5 0 5 11q0 52 -20 97.5t-62 74.5t-105 29q-43 0 -73.5 -12
t-61.5 -33zM279 97q52 0 86.5 47t42.5 124q1 6 1 14q0 11 -7 21q-15 24 -45 41t-63 17q-51 0 -83 -40t-32 -100q0 -56 28.5 -90t70.5 -34h1z" />
    <glyph glyph-name="emptyset" unicode="&#x2205;" horiz-adv-x="593" 
d="M484 489q38 -57 38 -125q0 -62 -30.5 -114.5t-82.5 -83t-114 -30.5q-77 0 -139 48l-68 -64l-50 52l69 64q-39 56 -39 128q0 61 30.5 113.5t83 83t113.5 30.5q79 0 142 -50l61 56l48 -51zM159 283l227 210q-42 29 -91 29q-43 0 -79.5 -21.5t-57.5 -58t-21 -78.5
q0 -43 22 -81zM433 441l-225 -210q41 -26 87 -26q43 0 79.5 21.5t58 58t21.5 79.5q0 42 -21 77z" />
    <glyph glyph-name="product" unicode="&#x220f;" horiz-adv-x="696" 
d="M673 599h-89v-599h-156v599h-168v-599h-155v599h-89v124h657v-124z" />
    <glyph glyph-name="summation" unicode="&#x2211;" horiz-adv-x="573" 
d="M27 0v91l207 267l-196 263v102h484v-121h-278l178 -227l-198 -248h316v-127h-513z" />
    <glyph glyph-name="minus" unicode="&#x2212;" horiz-adv-x="585" 
d="M528 309h-476v109l476 1v-110z" />
    <glyph glyph-name="uni2219" unicode="&#x2219;" horiz-adv-x="352" 
d="M115 311q-23 23 -23 56q0 32 23 55t55 23q33 0 56 -23t23 -55q0 -33 -23 -56t-56 -23q-32 0 -55 23z" />
    <glyph glyph-name="radical" unicode="&#x221a;" horiz-adv-x="687" 
d="M427 -161h-153l-150 410l-79 -29l-31 85l193 69l141 -395l212 847h126z" />
    <glyph glyph-name="infinity" unicode="&#x221e;" horiz-adv-x="790" 
d="M741 273q0 -56 -24 -98t-64 -64t-88 -22q-37 0 -65 12.5t-49 32.5t-50 54l-4 4q-3 3 -5 3q-3 0 -9 -7q-4 -5 -27 -31.5t-61.5 -47t-82.5 -20.5q-46 0 -84.5 22.5t-61.5 63.5t-23 93q0 53 23 93.5t64.5 63t93.5 22.5q37 0 64 -11.5t47 -28.5t51 -50q8 -9 13 -9t12 9
q36 42 72.5 66t90.5 24q47 0 85.5 -21.5t60 -60.5t21.5 -91v-1zM223 183q28 0 55 20t45 45q8 11 8 17q0 7 -9 20q-24 36 -48.5 54t-53.5 18q-36 0 -58.5 -24t-22.5 -62q0 -39 23.5 -63.5t58.5 -24.5h2zM566 357q-29 0 -52.5 -18.5t-50.5 -50.5q-8 -10 -8 -18q0 -7 8 -17
q50 -70 107 -70q34 0 54 26.5t20 60.5q0 36 -21.5 61.5t-55.5 25.5h-1z" />
    <glyph glyph-name="integral" unicode="&#x222b;" horiz-adv-x="468" 
d="M194.5 773.5q47.5 62.5 143.5 62.5q70 0 112 -26l-30 -125q-19 10 -35 15t-37 5q-31 0 -47 -23.5t-16 -78.5q0 -99 14 -291q12 -168 12 -227q0 -257 -189 -257q-69 0 -111 26l31 124q35 -19 71 -19q30 0 45.5 24t15.5 80q0 59 -4.5 137.5t-10.5 152.5q-12 172 -12 232
q0 126 47.5 188.5z" />
    <glyph glyph-name="approxequal" unicode="&#x2248;" horiz-adv-x="611" 
d="M485.5 390q-39.5 -24 -83.5 -24q-28 0 -50.5 8.5t-51.5 24.5q-28 15 -46.5 22t-40.5 7q-34 0 -59 -18.5t-57 -53.5l-43 75q45 46 80 68.5t80 22.5q29 0 50.5 -8.5t54.5 -25.5q27 -14 44 -21t36 -7q63 0 107 72l44 -74q-25 -44 -64.5 -68zM485.5 178q-39.5 -24 -83.5 -24
q-28 0 -51.5 9t-52.5 25q-26 14 -45 21.5t-40 7.5q-34 0 -60 -19t-55 -54l-44 76q45 46 80 68.5t80 22.5q29 0 50.5 -8.5t54.5 -25.5q27 -14 44 -21t36 -7q63 0 107 72l44 -75q-25 -44 -64.5 -68z" />
    <glyph glyph-name="notequal" unicode="&#x2260;" horiz-adv-x="597" 
d="M353 404l-52 -120h237v-109h-285l-62 -143h-76l63 143h-116v109h165l53 120h-218v110h266l61 137h72l-60 -137h137v-110h-185z" />
    <glyph glyph-name="lessequal" unicode="&#x2264;" horiz-adv-x="584" 
d="M513 199l-464 180v125l464 181v-130l-299 -114l299 -113v-129zM522 29h-476v109l476 -1v-108z" />
    <glyph glyph-name="greaterequal" unicode="&#x2265;" horiz-adv-x="584" 
d="M364 441l-300 114v130l465 -181v-125l-465 -180v129zM532 138v-109h-476v108z" />
    <glyph glyph-name="lozenge" unicode="&#x25ca;" horiz-adv-x="557" 
d="M235 0l-178 362l182 361h100l178 -359l-183 -364h-99zM173 365l115 -259l115 256l-115 252z" />
    <glyph glyph-name="i.loclTRK" horiz-adv-x="282" 
d="M217 0h-151v517h151v-517zM222 579h-154v144h154v-144z" />
    <glyph glyph-name="p.001" horiz-adv-x="615" 
d="M68 517h151v-65q32 35 67.5 55t89.5 20q89 0 144 -67.5t55 -197.5q0 -135 -57 -203.5t-151 -68.5q-40 0 -74.5 14t-73.5 52v-217h-151v678zM392.5 133q29.5 42 29.5 131q0 87 -29 124t-76 37q-45 0 -71.5 -31t-26.5 -90v-104q19 -109 93 -109q51 0 80.5 42z" />
    <glyph glyph-name="q.001" horiz-adv-x="608" 
d="M391 -161v217q-40 -38 -74.5 -52t-74.5 -14q-94 0 -151 68.5t-57 203.5q0 130 55.5 197.5t144.5 67.5q53 0 88.5 -20t68.5 -55v65h151v-678h-151zM391 200v104q0 59 -26.5 90t-71.5 31q-106 0 -106 -161q0 -89 29.5 -131t80.5 -42q75 0 94 109z" />
    <glyph glyph-name="l.ss01" horiz-adv-x="298" 
d="M73 743h151v-743h-151v743z" />
    <glyph glyph-name="zero.osf" horiz-adv-x="663" 
d="M485.5 690q66.5 -44 103.5 -128t37 -202q0 -117 -36.5 -200t-102.5 -126t-155 -43t-156 42.5t-103.5 125.5t-36.5 200q0 118 37.5 202.5t104 128.5t154.5 44q87 0 153.5 -44zM428.5 170q31.5 58 31.5 189q0 134 -32 194.5t-97 60.5q-64 0 -96 -61t-32 -194
q0 -130 32 -188.5t97 -58.5t96.5 58z" />
    <glyph glyph-name="one.osf" horiz-adv-x="405" 
d="M154 555l-129 -36v104l201 100h80v-723h-152v555z" />
    <glyph glyph-name="two.osf" horiz-adv-x="617" 
d="M36 112l227 201q64 56 95.5 88.5t43.5 57t12 53.5q0 45 -31 70.5t-77 25.5q-47 0 -84 -25.5t-54 -79.5l-140 7q12 102 84 162.5t198 60.5q79 0 138.5 -27t92 -76.5t32.5 -116.5q-1 -57 -29 -102t-104 -117l-176 -167h316v-127h-544v112z" />
    <glyph glyph-name="three.osf" horiz-adv-x="645" 
d="M130 686q84 48 206 48q77 0 140.5 -24t100 -67.5t36.5 -97.5q0 -110 -134 -157q66 -17 111 -63t45 -115q0 -67 -43 -116.5t-112.5 -76t-146.5 -26.5q-136 0 -213.5 45.5t-91.5 160.5l142 8q18 -50 60 -71.5t93 -21.5q65 0 104.5 28t39.5 69q0 45 -38 74t-94 29l-98 2v119
l84 3q57 1 93.5 29t36.5 68q0 36 -36 60.5t-83 24.5q-60 0 -100.5 -20t-54.5 -74l-140 8q9 106 93 154z" />
    <glyph glyph-name="four.osf" horiz-adv-x="630" 
d="M502 723v-436h108v-129h-108v-158h-152l1 158h-325v127l325 438h151zM351 287v227l-168 -227h168z" />
    <glyph glyph-name="five.osf" horiz-adv-x="665" 
d="M580 723l-7 -123h-344l-14 -169q54 19 84.5 27t70.5 8q74 0 131.5 -26.5t90.5 -78.5t33 -125q0 -76 -36 -131.5t-101.5 -85t-152.5 -29.5q-98 0 -178 38t-124 101l113 79q43 -50 78.5 -74t91.5 -24q68 0 106.5 34t38.5 87q0 51 -35.5 82.5t-95.5 31.5q-31 0 -57.5 -9
t-67.5 -29q-8 -4 -12 -4q-5 0 -12 5l-103 56l32 359h470z" />
    <glyph glyph-name="six.osf" horiz-adv-x="647" 
d="M468.5 711.5q56.5 -23.5 91.5 -67t40 -101.5l-135 -9q-17 41 -44.5 61.5t-73.5 20.5q-68 0 -106.5 -53.5t-38.5 -143.5q0 -14 2 -42q25 33 68.5 51t94.5 18q74 0 129 -27.5t85 -77t30 -111.5q0 -68 -36 -121.5t-99 -83.5t-142 -30q-93 0 -160.5 43.5t-103 123.5
t-35.5 188q0 119 37.5 206t107 133t164.5 46q68 0 124.5 -23.5zM273 322q-29 -12 -47 -31.5t-18 -40.5q5 -70 37 -106t84 -36q50 0 86.5 33t36.5 82q0 51 -35 81t-85 30q-30 0 -59 -12z" />
    <glyph glyph-name="seven.osf" horiz-adv-x="587" 
d="M569 723v-154q-58 -72 -115 -175t-94.5 -209t-39.5 -185h-163q5 67 34.5 166t88 214t146.5 220h-401v123h544z" />
    <glyph glyph-name="eight.osf" horiz-adv-x="639" 
d="M453 707q60 -26 93.5 -72.5t33.5 -103.5q0 -59 -37 -94t-74 -50q5 -3 46.5 -22.5t69 -61.5t27.5 -98q0 -67 -37 -115.5t-105 -74t-158 -25.5q-129 0 -206.5 49.5t-77.5 138.5q0 60 36 101t97 66q-2 1 -31 16.5t-56 56.5t-27 92q0 61 33 112t94 81t143 30q76 0 136 -26z
M240 595q-32 -25 -32 -64q0 -58 68 -78l76 -23q3 -1 9 -1q18 0 36.5 15t30.5 38.5t12 45.5q0 40 -32.5 66t-87.5 26q-48 0 -80 -25zM413.5 127.5q33.5 23.5 33.5 64.5q0 30 -18 51t-61 34l-91 27q-8 2 -13 2q-19 0 -40.5 -14t-35.5 -37t-14 -51q0 -48 36.5 -74t111.5 -26
q58 0 91.5 23.5z" />
    <glyph glyph-name="nine.osf" horiz-adv-x="647" 
d="M176 15.5q-57 24.5 -92.5 68.5t-40.5 100l139 9q28 -83 112 -83q76 0 120 51t44 158q0 24 -1 37q-22 -39 -66 -60.5t-104 -21.5q-74 0 -131 28.5t-89 79t-32 115.5q0 68 35.5 121.5t98.5 83.5t142 30q93 0 160.5 -43t103.5 -123t36 -189q0 -192 -82 -289t-228 -97
q-68 0 -125 24.5zM373 405.5q29 12.5 47 32t18 39.5q-6 70 -38 106t-84 36q-50 0 -83 -32t-33 -83q0 -49 32 -80t81 -31q31 0 60 12.5z" />
    <glyph glyph-name="zero.tf" horiz-adv-x="693" 
d="M502.5 690q66.5 -44 103.5 -128t37 -202q0 -117 -36.5 -200t-102.5 -126t-155 -43t-156 42.5t-103.5 125.5t-36.5 200q0 118 37.5 202.5t104 128.5t154.5 44q87 0 153.5 -44zM445.5 170q31.5 58 31.5 189q0 134 -32 194.5t-97 60.5q-64 0 -96 -61t-32 -194
q0 -130 32 -188.5t97 -58.5t96.5 58z" />
    <glyph glyph-name="one.tf" horiz-adv-x="693" 
d="M616 141v-141h-527v141h193v421l-190 -56v131l276 86h75v-582h173z" />
    <glyph glyph-name="two.tf" horiz-adv-x="693" 
d="M83 112l227 201q64 56 95.5 88.5t43.5 57t12 53.5q0 45 -31 70.5t-77 25.5q-47 0 -84 -25.5t-54 -79.5l-140 7q12 102 84 162.5t198 60.5q79 0 138.5 -27t92 -76.5t32.5 -116.5q-1 -57 -29 -102t-104 -117l-176 -167h316v-127h-544v112z" />
    <glyph glyph-name="three.tf" horiz-adv-x="693" 
d="M155 685q84 48 206 48q77 0 140.5 -24t100 -67.5t36.5 -97.5q0 -110 -134 -157q66 -17 111 -63t45 -115q0 -67 -43 -116.5t-112.5 -76t-146.5 -26.5q-136 0 -213.5 45.5t-91.5 160.5l142 8q18 -50 60 -71.5t93 -21.5q65 0 104.5 28t39.5 69q0 45 -38 74t-94 29l-98 2v119
l84 3q57 1 93.5 29t36.5 68q0 36 -36 60.5t-83 24.5q-60 0 -100.5 -20t-54.5 -74l-140 8q9 106 93 154z" />
    <glyph glyph-name="four.tf" horiz-adv-x="693" 
d="M541 723v-436h108v-129h-108v-158h-152l1 158h-325v127l325 438h151zM390 287v227l-168 -227h168z" />
    <glyph glyph-name="five.tf" horiz-adv-x="693" 
d="M603 723l-7 -123h-344l-14 -169q54 19 84.5 27t70.5 8q74 0 131.5 -26.5t90.5 -78.5t33 -125q0 -76 -36 -131.5t-101.5 -85t-152.5 -29.5q-98 0 -178 38t-124 101l113 79q43 -50 78.5 -74t91.5 -24q68 0 106.5 34t38.5 87q0 51 -35.5 82.5t-95.5 31.5q-31 0 -57.5 -9
t-67.5 -29q-8 -4 -12 -4q-5 0 -12 5l-103 56l32 359h470z" />
    <glyph glyph-name="six.tf" horiz-adv-x="693" 
d="M496.5 711.5q56.5 -23.5 91.5 -67t40 -101.5l-135 -9q-17 41 -44.5 61.5t-73.5 20.5q-68 0 -106.5 -53.5t-38.5 -143.5q0 -14 2 -42q25 33 68.5 51t94.5 18q74 0 129 -27.5t85 -77t30 -111.5q0 -68 -36 -121.5t-99 -83.5t-142 -30q-93 0 -160.5 43.5t-103 123.5
t-35.5 188q0 119 37.5 206t107 133t164.5 46q68 0 124.5 -23.5zM301 322q-29 -12 -47 -31.5t-18 -40.5q5 -70 37 -106t84 -36q50 0 86.5 33t36.5 82q0 51 -35 81t-85 30q-30 0 -59 -12z" />
    <glyph glyph-name="seven.tf" horiz-adv-x="693" 
d="M621 723v-154q-58 -72 -115 -175t-94.5 -209t-39.5 -185h-174q6 67 35 162t87.5 207t146.5 217h-413v137h567z" />
    <glyph glyph-name="eight.tf" horiz-adv-x="693" 
d="M486 707q60 -26 93.5 -72.5t33.5 -103.5q0 -59 -37 -94t-74 -50q5 -3 46.5 -22.5t69 -61.5t27.5 -98q0 -67 -37 -115.5t-105 -74t-158 -25.5q-129 0 -206.5 49.5t-77.5 138.5q0 60 36 101t97 66q-2 1 -31 16.5t-56 56.5t-27 92q0 61 33 112t94 81t143 30q76 0 136 -26z
M273 595q-32 -25 -32 -64q0 -58 68 -78l76 -23q3 -1 9 -1q18 0 36.5 15t30.5 38.5t12 45.5q0 40 -32.5 66t-87.5 26q-48 0 -80 -25zM446.5 127.5q33.5 23.5 33.5 64.5q0 30 -18 51t-61 34l-91 27q-8 2 -13 2q-19 0 -40.5 -14t-35.5 -37t-14 -51q0 -48 36.5 -74t111.5 -26
q58 0 91.5 23.5z" />
    <glyph glyph-name="nine.tf" horiz-adv-x="693" 
d="M202 15.5q-57 24.5 -92.5 68.5t-40.5 100l139 9q28 -83 112 -83q76 0 120 51t44 158q0 24 -1 37q-22 -39 -66 -60.5t-104 -21.5q-74 0 -131 28.5t-89 79t-32 115.5q0 68 35.5 121.5t98.5 83.5t142 30q93 0 160.5 -43t103.5 -123t36 -189q0 -192 -82 -289t-228 -97
q-68 0 -125 24.5zM399 405.5q29 12.5 47 32t18 39.5q-6 70 -38 106t-84 36q-50 0 -83 -32t-33 -83q0 -49 32 -80t81 -31q31 0 60 12.5z" />
    <glyph glyph-name="zero.subs" horiz-adv-x="417" 
d="M327 229.5q51 -62.5 51 -173.5t-50 -171.5t-135 -60.5q-86 0 -136 60.5t-50 171.5t51 173.5t135 62.5q83 0 134 -62.5zM253.5 -63q19.5 37 19.5 119q0 84 -20 122t-61 38q-40 0 -60 -38t-20 -122q0 -83 20 -119.5t61 -36.5t60.5 37z" />
    <glyph glyph-name="one.subs" horiz-adv-x="303" 
d="M74 184l-81 -23v66l126 63h50v-455h-95v349z" />
    <glyph glyph-name="two.subs" horiz-adv-x="386" 
d="M12 -95l142 127q41 35 60.5 55.5t27 36t7.5 33.5q0 28 -19.5 44t-48.5 16t-52.5 -16t-33.5 -50l-88 5q7 64 52.5 102t124.5 38q50 0 87.5 -17t57.5 -48t20 -73q0 -36 -17.5 -64.5t-65.5 -73.5l-111 -105h199v-80h-342v70z" />
    <glyph glyph-name="three.subs" horiz-adv-x="401" 
d="M81 263q53 30 129 30q49 0 89 -15t63 -42.5t23 -61.5q0 -69 -85 -99q41 -11 69.5 -39.5t28.5 -72.5q0 -42 -27 -73t-70.5 -47.5t-92.5 -16.5q-86 0 -134.5 28.5t-56.5 100.5l89 5q11 -32 37 -45t59 -13q41 0 66 17.5t25 43.5q0 28 -24 46.5t-59 18.5l-62 1v75l53 2
q36 1 59 18t23 43q0 23 -22.5 38t-52.5 15q-38 0 -63.5 -12.5t-34.5 -46.5l-88 5q6 67 59 97z" />
    <glyph glyph-name="four.subs" horiz-adv-x="417" 
d="M309 290v-274h68v-82h-68v-99h-96l1 99h-205v80l205 276h95zM214 16v142l-106 -142h106z" />
    <glyph glyph-name="five.subs" horiz-adv-x="403" 
d="M360 287l-5 -78h-216l-9 -106q32 12 52 17t46 5q71 0 115.5 -38t44.5 -107q0 -72 -49.5 -113t-132.5 -41q-62 0 -112 23.5t-78 63.5l71 50q26 -32 49 -47t58 -15q42 0 66.5 21.5t24.5 54.5t-22 52.5t-60 19.5q-20 0 -37 -6t-42 -18q-6 -3 -8 -3t-7 4l-65 35l20 226h296z
" />
    <glyph glyph-name="six.subs" horiz-adv-x="405" 
d="M310.5 259q45.5 -33 49.5 -87l-85 -6q-10 26 -27.5 38.5t-46.5 12.5q-42 0 -66.5 -34t-24.5 -92q0 -16 1 -24q16 21 43.5 32.5t59.5 11.5q69 0 111 -38t42 -98q0 -43 -22.5 -76.5t-62 -52.5t-89.5 -19q-88 0 -138 60t-50 163q0 113 52 177.5t142 64.5q66 0 111.5 -33z
M138.5 23.5q-24.5 -16.5 -24.5 -36.5q3 -44 23 -66.5t53 -22.5q31 0 54 20.5t23 51.5q0 32 -21.5 51t-53.5 19q-29 0 -53.5 -16.5z" />
    <glyph glyph-name="seven.subs" horiz-adv-x="367" 
d="M364 290v-97q-37 -45 -72.5 -110t-59 -131.5t-25.5 -116.5h-102q3 42 21.5 104.5t55.5 134.5t92 138h-252v78h342z" />
    <glyph glyph-name="eight.subs" horiz-adv-x="403" 
d="M308.5 257q46.5 -36 46.5 -91q0 -37 -23 -58.5t-47 -32.5q3 -1 29 -13.5t43.5 -39t17.5 -61.5q0 -64 -51.5 -99.5t-137.5 -35.5q-81 0 -129.5 31t-48.5 87q0 37 22.5 63t60.5 42q-1 0 -19 9.5t-35 36t-17 58.5q0 39 20.5 71t59 50.5t89.5 18.5q73 0 119.5 -36zM141 206
q-20 -16 -20 -40q0 -37 43 -49l47 -15q12 -3 25 6t22 25t9 31q0 25 -20.5 41.5t-55.5 16.5q-30 0 -50 -16zM250 -88q21 15 21 41q0 19 -11.5 32t-38.5 21l-57 17q-3 1 -8 1q-20 0 -38.5 -19t-18.5 -45q0 -30 23 -46.5t71 -16.5q36 0 57 15z" />
    <glyph glyph-name="nine.subs" horiz-adv-x="405" 
d="M65.5 -141.5q-46.5 34.5 -50.5 87.5l87 5q19 -52 71 -52q47 0 75 32t28 99q0 16 -1 24q-14 -25 -41.5 -38.5t-64.5 -13.5q-70 0 -114.5 39.5t-44.5 101.5q0 42 22.5 75.5t62.5 52.5t89 19q88 0 138 -60t50 -163q0 -121 -51.5 -182t-143.5 -61q-65 0 -111.5 34.5z
M239.5 93.5q24.5 16.5 24.5 36.5q-4 44 -24 66.5t-53 22.5q-32 0 -52.5 -20t-20.5 -52q0 -30 20.5 -50t50.5 -20t54.5 16.5z" />
    <glyph glyph-name="zero.dnom" horiz-adv-x="417" 
d="M327 394.5q51 -62.5 51 -173.5t-50 -171.5t-135 -60.5q-86 0 -136 60.5t-50 171.5t51 173.5t135 62.5q83 0 134 -62.5zM253.5 102q19.5 37 19.5 119q0 84 -20 122t-61 38q-40 0 -60 -38t-20 -122q0 -83 20 -119.5t61 -36.5t60.5 37z" />
    <glyph glyph-name="one.dnom" horiz-adv-x="303" 
d="M74 349l-81 -23v66l126 63h50v-455h-95v349z" />
    <glyph glyph-name="two.dnom" horiz-adv-x="386" 
d="M12 70l142 127q41 35 60.5 55.5t27 36t7.5 33.5q0 28 -19.5 44t-48.5 16t-52.5 -16t-33.5 -50l-88 5q7 64 52.5 102t124.5 38q50 0 87.5 -17t57.5 -48t20 -73q0 -36 -17.5 -64.5t-65.5 -73.5l-111 -105h199v-80h-342v70z" />
    <glyph glyph-name="three.dnom" horiz-adv-x="401" 
d="M81 428q53 30 129 30q49 0 89 -15t63 -42.5t23 -61.5q0 -69 -85 -99q41 -11 69.5 -39.5t28.5 -72.5q0 -42 -27 -73t-70.5 -47.5t-92.5 -16.5q-86 0 -134.5 28.5t-56.5 100.5l89 5q11 -32 37 -45t59 -13q41 0 66 17.5t25 43.5q0 28 -24 46.5t-59 18.5l-62 1v75l53 2
q36 1 59 18t23 43q0 23 -22.5 38t-52.5 15q-38 0 -63.5 -12.5t-34.5 -46.5l-88 5q6 67 59 97z" />
    <glyph glyph-name="four.dnom" horiz-adv-x="417" 
d="M309 455v-274h68v-82h-68v-99h-96l1 99h-205v80l205 276h95zM214 181v142l-106 -142h106z" />
    <glyph glyph-name="five.dnom" horiz-adv-x="403" 
d="M360 452l-5 -78h-216l-9 -106q32 12 52 17t46 5q71 0 115.5 -38t44.5 -107q0 -72 -49.5 -113t-132.5 -41q-62 0 -112 23.5t-78 63.5l71 50q26 -32 49 -47t58 -15q42 0 66.5 21.5t24.5 54.5t-22 52.5t-60 19.5q-20 0 -37 -6t-42 -18q-6 -3 -8 -3t-7 4l-65 35l20 226h296z
" />
    <glyph glyph-name="six.dnom" horiz-adv-x="405" 
d="M310.5 424q45.5 -33 49.5 -87l-85 -6q-10 26 -27.5 38.5t-46.5 12.5q-42 0 -66.5 -34t-24.5 -92q0 -16 1 -24q16 21 43.5 32.5t59.5 11.5q69 0 111 -38t42 -98q0 -43 -22.5 -76.5t-62 -52.5t-89.5 -19q-88 0 -138 60t-50 163q0 113 52 177.5t142 64.5q66 0 111.5 -33z
M138.5 188.5q-24.5 -16.5 -24.5 -36.5q3 -44 23 -66.5t53 -22.5q31 0 54 20.5t23 51.5q0 32 -21.5 51t-53.5 19q-29 0 -53.5 -16.5z" />
    <glyph glyph-name="seven.dnom" horiz-adv-x="367" 
d="M364 455v-97q-37 -45 -72.5 -110t-59 -131.5t-25.5 -116.5h-102q3 42 21.5 104.5t55.5 134.5t92 138h-252v78h342z" />
    <glyph glyph-name="eight.dnom" horiz-adv-x="403" 
d="M308.5 421q46.5 -36 46.5 -91q0 -37 -23 -58.5t-47 -32.5q3 -1 29 -13.5t43.5 -39t17.5 -61.5q0 -64 -51.5 -99.5t-137.5 -35.5q-81 0 -129.5 31t-48.5 87q0 37 22.5 63t60.5 42q-1 0 -19 9.5t-35 36t-17 58.5q0 39 20.5 71t59 50.5t89.5 18.5q73 0 119.5 -36zM141 370
q-20 -16 -20 -40q0 -37 43 -49l47 -15q12 -3 25 6t22 25t9 31q0 25 -20.5 41.5t-55.5 16.5q-30 0 -50 -16zM250 76q21 15 21 41q0 19 -11.5 32t-38.5 21l-57 17q-3 1 -8 1q-20 0 -38.5 -19t-18.5 -45q0 -30 23 -46.5t71 -16.5q36 0 57 15z" />
    <glyph glyph-name="nine.dnom" horiz-adv-x="405" 
d="M65.5 23.5q-46.5 34.5 -50.5 87.5l87 5q19 -52 71 -52q47 0 75 32t28 99q0 16 -1 24q-14 -25 -41.5 -38.5t-64.5 -13.5q-70 0 -114.5 39.5t-44.5 101.5q0 42 22.5 75.5t62.5 52.5t89 19q88 0 138 -60t50 -163q0 -121 -51.5 -182t-143.5 -61q-65 0 -111.5 34.5z
M239.5 258.5q24.5 16.5 24.5 36.5q-4 44 -24 66.5t-53 22.5q-32 0 -52.5 -20t-20.5 -52q0 -30 20.5 -50t50.5 -20t54.5 16.5z" />
    <glyph glyph-name="zero.numr" horiz-adv-x="417" 
d="M327 678.5q51 -62.5 51 -173.5t-50 -171.5t-135 -60.5q-86 0 -136 60.5t-50 171.5t51 173.5t135 62.5q83 0 134 -62.5zM253.5 386q19.5 37 19.5 119q0 84 -20 122t-61 38q-40 0 -60 -38t-20 -122q0 -82 20 -119t61 -37t60.5 37z" />
    <glyph glyph-name="one.numr" horiz-adv-x="303" 
d="M74 625l-81 -23v66l126 63h50v-455h-95v349z" />
    <glyph glyph-name="two.numr" horiz-adv-x="386" 
d="M12 349l142 127q59 51 77 75t18 50q0 29 -19.5 44.5t-48.5 15.5q-30 0 -52.5 -15.5t-33.5 -50.5l-88 5q7 64 52.5 102t124.5 38q76 0 120.5 -37t44.5 -101q0 -36 -17.5 -64t-65.5 -74l-111 -105h199v-80h-342v70z" />
    <glyph glyph-name="three.numr" horiz-adv-x="401" 
d="M81 710q53 30 129 30q49 0 89 -15t63 -42.5t23 -61.5q0 -69 -85 -99q41 -11 69.5 -39.5t28.5 -72.5q0 -42 -27 -73t-70.5 -47.5t-92.5 -16.5q-86 0 -134.5 28.5t-56.5 100.5l89 5q11 -32 37 -45t59 -13q41 0 66 17.5t25 43.5q0 28 -24 46.5t-59 18.5l-62 1v75l53 2
q36 1 59 18t23 43q0 23 -22.5 38t-52.5 15q-38 0 -63.5 -12.5t-34.5 -46.5l-88 5q6 67 59 97z" />
    <glyph glyph-name="four.numr" horiz-adv-x="417" 
d="M309 731v-274h68v-82h-68v-99h-96l1 99h-205v80l205 276h95zM214 457v142l-106 -142h106z" />
    <glyph glyph-name="five.numr" horiz-adv-x="403" 
d="M360 731l-5 -78h-216l-9 -106q32 12 52 17t46 5q71 0 115.5 -38t44.5 -107q0 -72 -49.5 -113t-132.5 -41q-62 0 -112 23.5t-78 63.5l71 50q26 -32 49 -47t58 -15q42 0 66.5 21.5t24.5 54.5t-22 52.5t-60 19.5q-20 0 -37 -6t-42 -18q-6 -3 -8 -3t-7 4l-65 35l20 226h296z
" />
    <glyph glyph-name="six.numr" horiz-adv-x="405" 
d="M310.5 709q45.5 -33 49.5 -87l-85 -6q-10 26 -27.5 38.5t-46.5 12.5q-42 0 -66.5 -34t-24.5 -92q0 -16 1 -24q16 21 43.5 32.5t59.5 11.5q69 0 111 -38t42 -98q0 -43 -22.5 -76.5t-62 -52.5t-89.5 -19q-88 0 -138 60t-50 163q0 113 52 177.5t142 64.5q66 0 111.5 -33z
M138.5 473.5q-24.5 -16.5 -24.5 -36.5q3 -44 23 -66.5t53 -22.5q31 0 54 20.5t23 51.5q0 32 -21.5 51t-53.5 19q-29 0 -53.5 -16.5z" />
    <glyph glyph-name="seven.numr" horiz-adv-x="367" 
d="M364 730v-97q-57 -71 -106 -177.5t-51 -180.5h-102q3 42 21.5 104t55.5 134.5t92 138.5h-252v78h342z" />
    <glyph glyph-name="eight.numr" horiz-adv-x="403" 
d="M308.5 704q46.5 -36 46.5 -91q0 -37 -23 -58.5t-47 -32.5q3 -1 29 -13.5t43.5 -39t17.5 -61.5q0 -64 -51.5 -99.5t-137.5 -35.5q-81 0 -129.5 31t-48.5 87q0 37 22.5 63t60.5 42q-1 0 -19 9.5t-35 36t-17 58.5q0 39 20.5 71t59 50.5t89.5 18.5q73 0 119.5 -36zM141 653
q-20 -16 -20 -40q0 -37 43 -49l47 -15q12 -3 25 6t22 25t9 31q0 25 -20.5 41.5t-55.5 16.5q-30 0 -50 -16zM250 359q21 15 21 41q0 19 -11.5 32t-38.5 21l-57 17q-3 1 -8 1q-20 0 -38.5 -19t-18.5 -45q0 -30 23 -46.5t71 -16.5q36 0 57 15z" />
    <glyph glyph-name="nine.numr" horiz-adv-x="405" 
d="M65.5 308.5q-46.5 34.5 -50.5 87.5l87 5q19 -52 71 -52q47 0 75 32t28 99q0 16 -1 24q-14 -25 -41.5 -38.5t-64.5 -13.5q-70 0 -114.5 39.5t-44.5 101.5q0 42 22.5 75.5t62.5 52.5t89 19q88 0 138 -60t50 -163q0 -121 -51.5 -182t-143.5 -61q-65 0 -111.5 34.5z
M239.5 543.5q24.5 16.5 24.5 36.5q-4 44 -24 66.5t-53 22.5q-32 0 -52.5 -20t-20.5 -52q0 -30 20.5 -50t50.5 -20t54.5 16.5z" />
    <glyph glyph-name="comma.tf" horiz-adv-x="296" 
d="M134 -4l-51 5v144h150v-127l-102 -159h-55z" />
    <glyph glyph-name="period.tf" horiz-adv-x="296" 
d="M242 0h-165v163h165v-163z" />
    <glyph glyph-name="bullet.uc" horiz-adv-x="352" 
d="M106.5 257q-29.5 17 -46.5 46.5t-17 64.5q0 34 17 63.5t46.5 47t63.5 17.5q35 0 64.5 -17.5t47 -47t17.5 -63.5q0 -35 -17.5 -64.5t-47 -46.5t-64.5 -17q-34 0 -63.5 17z" />
    <glyph glyph-name="caroncomb.alt" horiz-adv-x="0" 
d="M-139.5 507q-2.5 4 -0.5 8l30 73l2 10q0 7 -8 8l-10 2q-8 1 -11.5 3.5t-3.5 9.5v90q0 12 11 12h80q11 0 11 -10v-105q0 -3 -1 -5t-1 -3l-36 -85q-2 -7 -7.5 -9.5t-17.5 -2.5h-30q-5 0 -7.5 4z" />
    </font>
</defs>
</svg>
