<?xml version="1.0" standalone="no"?>
<!DOCTYPE svg PUBLIC "-//W3C//DTD SVG 1.1//EN" "http://www.w3.org/Graphics/SVG/1.1/DTD/svg11.dtd" >
<svg xmlns="http://www.w3.org/2000/svg" xmlns:xlink="http://www.w3.org/1999/xlink" version="1.1">
<metadata>
Created by FontForge 20170731 at Mon Dec 10 20:53:26 2018
 By Aleksey,,,
</metadata>
<defs>
<font id="CheyenneSans-MediumItalic" horiz-adv-x="593" >
  <font-face 
    font-family="Cheyenne Sans Medium"
    font-weight="500"
    font-style="italic"
    font-stretch="normal"
    units-per-em="1000"
    panose-1="0 0 6 0 0 0 0 0 0 0"
    ascent="800"
    descent="-200"
    x-height="517"
    cap-height="723"
    bbox="-337 -234 1334 987"
    underline-thickness="50"
    underline-position="-250"
    slope="-8"
    unicode-range="U+000D-FB02"
  />
<missing-glyph horiz-adv-x="677" 
d="M653 805l-132 -938q-2 -15 -10.5 -21.5t-25.5 -6.5h-436q-15 0 -20 5.5t-3 18.5l132 940q2 11 7.5 17t14.5 6h459q17 0 14 -21zM594.5 772.5q-3.5 4.5 -10.5 4.5h-344l242 -834l115 817q1 8 -2.5 12.5zM86 -107q4 -5 16 -5h335l-240 828l-114 -808q-1 -10 3 -15z" />
    <glyph glyph-name="fi" unicode="fi" horiz-adv-x="652" 
d="M374 443h-122l-85 -604h-103l85 604h-106l11 74h106l11 79q9 62 46.5 94.5t100.5 32.5h101l-10 -71h-75q-30 0 -44.5 -16t-19.5 -51l-9 -68h124zM617 619h-108l17 124h108zM528 0h-103l73 517h103z" />
    <glyph glyph-name="fl" unicode="fl" horiz-adv-x="690" 
d="M374 443h-122l-85 -604h-103l85 604h-106l11 74h106l11 79q9 62 46.5 94.5t100.5 32.5h101l-10 -71h-75q-30 0 -44.5 -16t-19.5 -51l-9 -68h124zM455 34q-23 38 -14 104l85 605h101l-83 -594q-10 -73 47 -78l27 -1l-9 -65q-30 -9 -51 -9q-80 0 -103 38z" />
    <glyph glyph-name=".notdef" horiz-adv-x="677" 
d="M653 805l-132 -938q-2 -15 -10.5 -21.5t-25.5 -6.5h-436q-15 0 -20 5.5t-3 18.5l132 940q2 11 7.5 17t14.5 6h459q17 0 14 -21zM594.5 772.5q-3.5 4.5 -10.5 4.5h-344l242 -834l115 817q1 8 -2.5 12.5zM86 -107q4 -5 16 -5h335l-240 828l-114 -808q-1 -10 3 -15z" />
    <glyph glyph-name="uni0000" horiz-adv-x="25" 
 />
    <glyph glyph-name="uni0000" horiz-adv-x="25" 
 />
    <glyph glyph-name="nonmarkingreturn" unicode="&#xd;" horiz-adv-x="236" 
 />
    <glyph glyph-name="space" unicode=" " horiz-adv-x="270" 
 />
    <glyph glyph-name="exclam" unicode="!" horiz-adv-x="257" 
d="M140 191h-67l47 532h122zM138 0h-118l17 124h118z" />
    <glyph glyph-name="quotedbl" unicode="&#x22;" horiz-adv-x="429" 
d="M366 481h-56l3 242h119zM181 481h-56l3 242h119z" />
    <glyph glyph-name="numbersign" unicode="#" horiz-adv-x="600" 
d="M463 438l-43 -145h107l-8 -60h-116l-68 -235l-59 9l66 226h-145l-68 -235l-60 9l66 226h-116l8 60h125l44 145h-116l8 60h125l66 226l59 -6l-64 -220h145l66 226l59 -6l-64 -220h108l-8 -60h-117zM402 438h-145l-43 -145h145z" />
    <glyph glyph-name="dollar" unicode="$" horiz-adv-x="614" 
d="M512 91.5q-32 -42.5 -83 -68.5t-114 -29q-7 -1 -10 -3.5t-4 -8.5l-9 -65h-72l11 76q-84 3 -139.5 31.5t-94.5 86.5l71 60q33 -46 74 -70.5t101 -28.5l34 243q-117 37 -160.5 86.5t-32.5 126.5q11 78 75 131t162 67q5 1 10 4t6 8l7 55h70l-9 -64q112 -21 185 -93l-67 -66
q-17 26 -49 46t-70 28l-3 1q-7 0 -8 -8l-33 -234l50 -17q160 -63 141 -198q-7 -54 -39 -96.5zM326 647q-28 0 -60.5 -13t-57.5 -38t-30 -60q-7 -49 26 -75t88 -44zM411.5 104.5q39.5 29.5 45.5 72.5t-20 72t-92 52l-32 -229q59 3 98.5 32.5z" />
    <glyph glyph-name="percent" unicode="%" horiz-adv-x="911" 
d="M368 708q36 -26 51.5 -73t6.5 -108t-37.5 -107.5t-71.5 -72t-92 -25.5q-50 0 -86 25.5t-52 72t-7 107.5t38 108t72.5 73t92.5 26t85 -26zM212 -4l-65 1l590 734h65zM308 418q30 40 40 109t-9.5 110.5t-64.5 41.5t-75.5 -41.5t-40.5 -110.5t9 -109t65 -40t76 40zM778 377
q35 -26 51 -73t8 -108q-9 -61 -38 -108t-71.5 -72.5t-92.5 -25.5q-49 0 -85 25.5t-52 72.5t-7 108q8 60 37 107.5t72.5 73.5t92.5 26q50 0 85 -26zM717.5 88q31.5 41 40.5 107q10 68 -10 110t-64 42t-75 -42t-41 -110q-9 -66 10.5 -107t63.5 -41t75.5 41z" />
    <glyph glyph-name="ampersand" unicode="&#x26;" horiz-adv-x="719" 
d="M473 714.5q44 -19.5 66 -54.5t15 -81q-6 -45 -51.5 -95t-144.5 -100l126 -176q24 31 49.5 79t37.5 106h101q-20 -67 -56 -123.5t-90 -122.5l105 -147h-119l-58 79q-114 -84 -238 -84q-106 0 -156 51t-38 136q10 69 58.5 120.5t144.5 99.5q-39 49 -55 87.5t-9 83.5
q6 45 35.5 82t76 58t101.5 21t99 -19.5zM298 641q-29 -25 -34 -61q-8 -54 42 -121l16 -19q75 40 105 71.5t35 64.5q6 45 -20.5 67.5t-69.5 22.5q-45 0 -74 -25zM178 274.5q-36 -37.5 -42 -81.5q-7 -53 27 -85t87 -32q40 0 83.5 17.5t79.5 47.5l-144 200q-55 -29 -91 -66.5z
" />
    <glyph glyph-name="quotesingle" unicode="'" horiz-adv-x="250" 
d="M174 481h-56l3 242h119z" />
    <glyph glyph-name="parenleft" unicode="(" horiz-adv-x="306" 
d="M220 505.5q-47 -114.5 -63 -228.5q-15 -110 -3 -216t50 -222h-70q-52 115 -71.5 217t-2.5 222q17 119 71.5 233t134.5 212h70q-69 -103 -116 -217.5z" />
    <glyph glyph-name="parenright" unicode=")" horiz-adv-x="306" 
d="M112 56.5q47 114.5 63 228.5q15 110 3 216t-50 222h70q52 -115 71.5 -217t2.5 -222q-17 -119 -71.5 -233t-134.5 -212h-70q69 103 116 217.5z" />
    <glyph glyph-name="asterisk" unicode="*" horiz-adv-x="408" 
d="M231 503l-100 -131l-53 41l113 118l-130 38l32 63l121 -52l11 143h73l-30 -143l136 55l12 -63l-136 -40l77 -115l-65 -42z" />
    <glyph glyph-name="plus" unicode="+" horiz-adv-x="561" 
d="M498 325h-180l-26 -181h-78l26 180h-181l10 78h181l26 181h78l-25 -180h180z" />
    <glyph glyph-name="comma" unicode="," horiz-adv-x="244" 
d="M52 -2l-45 2l16 117h122l-14 -102l-108 -143h-45z" />
    <glyph glyph-name="hyphen" unicode="-" horiz-adv-x="384" 
d="M303 219l-257 -1l11 79l257 1z" />
    <glyph glyph-name="period" unicode="." horiz-adv-x="234" 
d="M128 0h-120l18 125h120z" />
    <glyph glyph-name="slash" unicode="/" horiz-adv-x="353" 
d="M317 723h78l-358 -758h-77z" />
    <glyph glyph-name="zero" unicode="0" horiz-adv-x="643" 
d="M516 690q56 -43 79.5 -127t7.5 -203q-17 -119 -63.5 -202t-115 -125t-150.5 -42t-138.5 41.5t-79.5 124.5t-7 202q17 120 64.5 204t116 127t149.5 43t137 -43zM490 360q21 148 -12.5 218t-110.5 70t-130.5 -70.5t-73.5 -217.5q-21 -146 12.5 -214.5t111.5 -68.5
q163 0 203 283z" />
    <glyph glyph-name="one" unicode="1" horiz-adv-x="390" 
d="M209 605l-144 -47l11 76l192 89h63l-102 -723h-105z" />
    <glyph glyph-name="two" unicode="2" horiz-adv-x="586" 
d="M7 85l263 221q68 56 104.5 91t54.5 64.5t23 63.5q8 58 -28 88.5t-89 30.5q-52 0 -99 -25t-77 -78l-91 17q37 83 109 129t174 46q69 0 119.5 -24.5t74 -71t14.5 -110.5q-6 -42 -25.5 -77.5t-56 -74t-101.5 -95.5l-220 -191h350l-13 -89h-498z" />
    <glyph glyph-name="three" unicode="3" horiz-adv-x="641" 
d="M200.5 694.5q78.5 38.5 175.5 38.5q73 0 127.5 -24t81 -66t19.5 -95q-16 -114 -161 -162q70 -20 107.5 -67.5t28.5 -115.5q-9 -62 -53.5 -110.5t-113 -75.5t-148.5 -27q-107 0 -170 36t-80 123l95 17q40 -90 164 -90q79 0 131 35t59 90q6 40 -13 70t-55 46t-81 16l-97 1
l12 84l82 2q46 0 86.5 16.5t65.5 43.5t30 61q7 47 -31.5 77.5t-99.5 30.5q-60 0 -105.5 -21t-74.5 -69l-90 18q30 79 108.5 117.5z" />
    <glyph glyph-name="four" unicode="4" horiz-adv-x="622" 
d="M533 723l-64 -452h111l-13 -91h-111l-25 -180h-103l26 180h-335l13 93l397 450h104zM365 271l43 305l-269 -305h226z" />
    <glyph glyph-name="five" unicode="5" horiz-adv-x="651" 
d="M615 723l-19 -87h-351l-49 -223q56 25 92 36t83 11q69 0 121.5 -24.5t78 -75t14.5 -123.5q-11 -77 -54 -132.5t-110.5 -85t-150.5 -29.5t-150 32t-105 89l84 57q40 -48 75.5 -70.5t94.5 -22.5q85 0 139.5 44t64.5 114q10 68 -28.5 104.5t-107.5 36.5q-41 0 -76.5 -12.5
t-86.5 -38.5q-8 -4 -9 -4q-2 0 -9 5l-65 39l81 360h443z" />
    <glyph glyph-name="six" unicode="6" horiz-adv-x="621" 
d="M542 695.5q56 -42.5 61 -112.5l-91 -18q-18 44 -45.5 66.5t-80.5 22.5q-86 0 -144.5 -73.5t-77.5 -207.5q-4 -28 -4 -42q28 51 82.5 80t116.5 29q73 0 121.5 -28.5t69.5 -77.5t12 -110q-10 -68 -50 -119.5t-102 -80t-135 -28.5q-86 0 -142.5 43t-78.5 124t-6 192
q17 119 64 205t120 132t164 46q90 0 146 -42.5zM251 344q-38 -15 -63 -42t-30 -61q0 -81 32.5 -122t94.5 -41q63 0 111 39.5t57 101.5q9 61 -25.5 100.5t-97.5 39.5q-41 0 -79 -15z" />
    <glyph glyph-name="seven" unicode="7" horiz-adv-x="576" 
d="M604 723l-15 -105q-74 -84 -151 -200t-133.5 -229.5t-74.5 -188.5h-113q21 73 70 178.5t125.5 226.5t173.5 231h-410l13 87h515z" />
    <glyph glyph-name="eight" unicode="8" horiz-adv-x="625" 
d="M492 707.5q52 -25.5 76.5 -71t16.5 -103.5q-9 -65 -52.5 -103t-82.5 -55q5 -2 43 -19t61.5 -59.5t15.5 -100.5q-9 -63 -50.5 -109.5t-108.5 -71.5t-151 -25q-124 0 -189 50t-53 139q8 54 48.5 100.5t110.5 76.5q-107 54 -92 164q8 59 47 107.5t100.5 77t135.5 28.5
q72 0 124 -25.5zM250 617q-46 -34 -53 -86q-5 -39 14 -65t62 -36l90 -24q17 -4 45.5 14.5t51 50t26.5 62.5q7 53 -27.5 85.5t-101.5 32.5q-61 0 -107 -34zM400 104q48 32 56 85q6 41 -13 67t-69 39l-111 30q-3 1 -9 1q-21 0 -51 -18t-53.5 -48t-28.5 -66q-8 -58 32 -90
t124 -32q75 0 123 32z" />
    <glyph glyph-name="nine" unicode="9" horiz-adv-x="621" 
d="M87.5 34q-56.5 43 -62.5 112l93 18q15 -43 43 -66t81 -23q91 0 152 72t81 216q4 25 4 38q-28 -54 -82.5 -85.5t-121.5 -31.5q-72 0 -122.5 29t-72.5 79.5t-13 113.5q9 67 49.5 118.5t102.5 79.5t135 28q87 0 143.5 -42.5t78.5 -123t7 -192.5q-26 -186 -118 -284.5
t-232 -98.5q-89 0 -145.5 43zM378 385q38 16 64 43.5t31 59.5q-1 81 -34.5 122t-94.5 41q-63 0 -109 -39.5t-54 -101.5q-8 -59 24.5 -100t94.5 -41q40 0 78 16z" />
    <glyph glyph-name="colon" unicode=":" horiz-adv-x="234" 
d="M180 373h-120l18 125h120zM128 3h-120l18 124h120z" />
    <glyph glyph-name="semicolon" unicode=";" horiz-adv-x="253" 
d="M79 497h120l-18 -126h-120zM57 0h-45l17 124h120l-15 -110l-112 -159h-43z" />
    <glyph glyph-name="less" unicode="&#x3c;" horiz-adv-x="556" 
d="M456 133l-406 167l13 91l454 169l-14 -94l-328 -121l294 -120z" />
    <glyph glyph-name="equal" unicode="=" horiz-adv-x="561" 
d="M511 421l-439 -1l11 79h439zM480 198l-439 -1l11 78l439 1z" />
    <glyph glyph-name="greater" unicode="&#x3e;" horiz-adv-x="556" 
d="M380 345l-293 121l14 94l405 -169l-13 -91l-452 -167l13 92z" />
    <glyph glyph-name="question" unicode="?" horiz-adv-x="521" 
d="M168 694q69 39 151 39q67 0 114.5 -22t70 -61.5t15.5 -89.5q-8 -56 -38.5 -95.5t-87.5 -89.5q-38 -33 -60.5 -57t-40.5 -55.5t-23 -69.5h-86q7 48 27 87t44.5 66.5t62.5 65.5q46 45 69 75t28 69q6 46 -23.5 73.5t-83.5 27.5q-48 0 -95 -28t-68 -70l-87 26q42 70 111 109z
M259 0h-119l17 124h119z" />
    <glyph glyph-name="at" unicode="@" horiz-adv-x="823" 
d="M495.5 -90q-62.5 -20 -131.5 -20q-116 0 -195 48.5t-112.5 131.5t-19.5 184q15 106 77 195t159 142t213 53q90 0 164 -34t113.5 -104.5t25.5 -174.5q-10 -73 -43 -130.5t-81 -89.5t-102 -32q-72 0 -83 50q0 7 -3 7q-2 0 -8 -6q-60 -65 -143 -65q-39 0 -68 21.5
t-42.5 60.5t-6.5 90q9 61 40.5 113t79.5 82.5t103 30.5q72 0 103 -58q2 -2 4 -1.5t3 4.5l12 30h67l-69 -221q-5 -16 -6 -28q-6 -44 32 -44q30 0 58.5 21.5t49.5 62.5t29 96q13 89 -18.5 146t-89.5 83t-130 26q-102 0 -181 -43.5t-127 -118t-60 -164.5q-12 -88 15.5 -156.5
t94 -107t167.5 -38.5q61 0 99.5 14.5t92.5 47.5l30 -49q-50 -35 -112.5 -55zM300.5 164.5q16.5 -29.5 52.5 -29.5q34 0 65 22t52.5 57.5t27.5 74.5q7 49 -14 77t-56 28q-50 0 -89 -43.5t-48 -106.5q-7 -50 9.5 -79.5z" />
    <glyph glyph-name="A" unicode="A" horiz-adv-x="700" 
d="M350 723h113l159 -723h-103l-42 192h-289l-98 -192h-103zM463 285l-70 338l-167 -338h237z" />
    <glyph glyph-name="B" unicode="B" horiz-adv-x="672" 
d="M147 723h237q133 0 194.5 -48.5t48.5 -140.5q-8 -59 -44 -99t-111 -66q145 -34 125 -174q-14 -99 -89.5 -147t-216.5 -48h-246zM358 408q63 0 111.5 27t56.5 86t-31.5 89t-115.5 30h-142l-33 -232h154zM303 84q175 0 191 117q9 61 -32.5 91.5t-115.5 30.5h-154l-33 -239
h144z" />
    <glyph glyph-name="C" unicode="C" horiz-adv-x="690" 
d="M549.5 703.5q57.5 -29.5 86.5 -81t27 -114.5l-108 -4q-3 65 -41.5 103t-111.5 38q-95 0 -154.5 -70t-79.5 -212t20 -213.5t138 -71.5q64 0 114.5 38.5t73.5 102.5l106 -7q-17 -63 -57.5 -113t-103.5 -79.5t-143 -29.5q-97 0 -161.5 45.5t-90 130t-9.5 198.5t64.5 197
t124 127.5t171.5 44.5q77 0 134.5 -29.5z" />
    <glyph glyph-name="D" unicode="D" horiz-adv-x="694" 
d="M322 722q195 -3 273 -92.5t53 -263.5q-51 -366 -435 -366h-168l102 723q114 0 175 -1zM161 87h64q134 0 215 65.5t101 212.5q21 146 -39 209t-195 63h-68z" />
    <glyph glyph-name="E" unicode="E" horiz-adv-x="626" 
d="M147 723h463l-14 -89h-360l-32 -225h323l-12 -88h-323l-32 -230l370 -1l-13 -90h-472z" />
    <glyph glyph-name="F" unicode="F" horiz-adv-x="587" 
d="M605 723l-14 -88h-353l-32 -229h316l-12 -87h-316l-45 -319h-104l102 723h458z" />
    <glyph glyph-name="G" unicode="G" horiz-adv-x="733" 
d="M154 35q-64 45 -89.5 128t-10.5 196q16 115 67 199.5t129 129.5t173 45q73 0 130.5 -31t88 -82.5t25.5 -109.5l-110 -5q-4 60 -44 99t-105 39q-95 0 -159 -71t-83 -207q-20 -144 26 -213.5t141 -69.5q54 0 95.5 24t68 60.5t34.5 73.5l11 61h-171l11 74l278 -1l-53 -374
h-76l15 107q-88 -117 -233 -117q-95 0 -159 45z" />
    <glyph glyph-name="H" unicode="H" horiz-adv-x="713" 
d="M193 329l-46 -329h-102l102 723h102l-43 -305h326l43 305h102l-102 -723h-102l46 329h-326z" />
    <glyph glyph-name="I" unicode="I" horiz-adv-x="284" 
d="M249 723l-102 -723h-102l102 723h102z" />
    <glyph glyph-name="J" unicode="J" horiz-adv-x="392" 
d="M225.5 35.5q-40.5 -45.5 -131.5 -45.5q-33 0 -65.5 7t-49.5 14l19 97q6 -2 19.5 -8t28.5 -9.5t33 -3.5q48 0 70.5 26.5t31.5 91.5l73 518h103l-77 -547q-14 -95 -54.5 -140.5z" />
    <glyph glyph-name="K" unicode="K" horiz-adv-x="684" 
d="M492 0l-169 366l-141 -142l-31 -224h-106l102 723h106l-52 -366l365 366h121l-276 -281l197 -442h-116z" />
    <glyph glyph-name="L" unicode="L" horiz-adv-x="561" 
d="M251 723l-89 -632h337l-13 -91h-441l102 723h104z" />
    <glyph glyph-name="M" unicode="M" horiz-adv-x="888" 
d="M147 723h143l127 -582l293 582h142l-102 -723h-104l81 579l-285 -579h-91l-121 574l-81 -574h-104z" />
    <glyph glyph-name="N" unicode="N" horiz-adv-x="756" 
d="M720 723l-102 -723h-91l-302 557l-78 -557h-102l102 723h98l296 -547l77 547h102z" />
    <glyph glyph-name="O" unicode="O" horiz-adv-x="734" 
d="M157 33.5q-65 43.5 -92 126.5t-11 199q16 117 67.5 201.5t129 128.5t174.5 44q96 0 161 -44t91.5 -128t10.5 -201q-16 -116 -66 -199t-127 -127t-175 -44t-163 43.5zM575 359q20 145 -22 215.5t-140 70.5q-99 0 -162 -71t-84 -215q-20 -143 24 -212t143 -69
q202 0 241 281z" />
    <glyph glyph-name="P" unicode="P" horiz-adv-x="640" 
d="M147 723h248q122 0 188 -55t51 -163q-15 -105 -91.5 -160.5t-194.5 -55.5h-158l-41 -289h-104zM357 374q73 0 121 35t58 102q9 66 -30.5 97.5t-115.5 31.5h-152l-37 -266h156z" />
    <glyph glyph-name="Q" unicode="Q" horiz-adv-x="739" 
d="M116.5 561q50.5 84 128 128t174.5 44t162.5 -44t91.5 -128t10 -201q-16 -112 -60 -190.5t-122 -126.5q12 -38 44 -57.5t77 -21.5l-12 -85q-69 0 -122 25t-87 95q-50 -9 -86 -9q-97 0 -162.5 43t-92.5 126.5t-10 200.5q16 117 66.5 201zM327 78q205 0 244 281
q20 143 -22 214.5t-142 71.5t-162 -71.5t-83 -215.5q-39 -280 165 -280z" />
    <glyph glyph-name="R" unicode="R" horiz-adv-x="681" 
d="M462 0l-86 305h-186l-43 -305h-102l102 723h284q118 0 170.5 -53t38.5 -148q-20 -143 -166 -199l96 -323h-108zM479.5 421.5q46.5 32.5 55.5 95.5q9 61 -24.5 92.5t-100.5 31.5h-173l-35 -252h153q78 0 124.5 32.5z" />
    <glyph glyph-name="S" unicode="S" horiz-adv-x="675" 
d="M163.5 13q-60.5 23 -96.5 67.5t-36 108.5l107 5q5 -57 51.5 -88.5t116.5 -31.5q77 0 131 30.5t61 82.5q6 46 -22 74t-90 41l-136 32q-82 17 -121 64t-30 121q9 62 50 110.5t106 75.5t141 27q82 0 138 -28.5t83 -75.5t25 -103l-105 -4q-1 65 -42 95.5t-110 30.5
q-65 0 -116 -31.5t-59 -85.5q-5 -39 19 -65t88 -42l134 -31q177 -38 153 -204q-8 -55 -48 -100.5t-107.5 -71.5t-152.5 -26q-72 0 -132.5 23z" />
    <glyph glyph-name="T" unicode="T" horiz-adv-x="580" 
d="M70 723h552l-13 -93h-219l-89 -630h-103l89 630h-230z" />
    <glyph glyph-name="U" unicode="U" horiz-adv-x="720" 
d="M525.5 57.5q-74.5 -67.5 -213.5 -67.5q-140 0 -194.5 69t-35.5 204l65 460h105l-67 -473q-12 -85 24 -128t115 -43q80 0 129 42.5t61 128.5l67 473h103l-66 -469q-18 -129 -92.5 -196.5z" />
    <glyph glyph-name="V" unicode="V" horiz-adv-x="650" 
d="M338 0h-121l-149 723h100l126 -606l301 606h100z" />
    <glyph glyph-name="W" unicode="W" horiz-adv-x="956" 
d="M676 0h-91l-78 544l-233 -544h-89l-107 723h103l76 -558l237 558h78l79 -558l237 558h102z" />
    <glyph glyph-name="X" unicode="X" horiz-adv-x="662" 
d="M465 0l-147 289l-228 -289h-114l296 369l-185 354h129l133 -267l210 267h113l-278 -343l200 -380h-129z" />
    <glyph glyph-name="Y" unicode="Y" horiz-adv-x="608" 
d="M353 307l-43 -307h-102l43 308l-189 415h112l141 -325l231 325h112z" />
    <glyph glyph-name="Z" unicode="Z" horiz-adv-x="633" 
d="M12 55l472 580h-373l13 88h517l-8 -52l-476 -582h392l-13 -89h-532z" />
    <glyph glyph-name="bracketleft" unicode="[" horiz-adv-x="305" 
d="M336 723l-9 -64h-106l-107 -756h106l-9 -64h-194l125 884h194z" />
    <glyph glyph-name="backslash" unicode="\" horiz-adv-x="353" 
d="M65 723h77l144 -758h-78z" />
    <glyph glyph-name="bracketright" unicode="]" horiz-adv-x="305" 
d="M17 -161l9 64h106l107 756h-106l9 64h194l-125 -884h-194z" />
    <glyph glyph-name="asciicircum" unicode="^" horiz-adv-x="473" 
d="M245 413l-154 -285h-77l201 363q9 17 22 26t25 9q26 0 36 -35l99 -364h-78z" />
    <glyph glyph-name="underscore" unicode="_" horiz-adv-x="525" 
d="M397 -122h-400l11 78l400 1z" />
    <glyph glyph-name="grave" unicode="`" horiz-adv-x="293" 
d="M323 635l-24 -50l-244 73l36 75z" />
    <glyph glyph-name="a" unicode="a" horiz-adv-x="597" 
d="M370 0l8 49q-41 -31 -78.5 -45t-78.5 -14q-66 0 -111.5 32t-65.5 94t-8 149q12 86 49 144.5t89 88t113 29.5q55 0 88 -21t61 -51l9 62h102l-75 -517h-102zM394 167l22 151q8 56 -21.5 95.5t-85.5 39.5q-61 0 -108 -48t-60 -141t20.5 -147t97.5 -54q75 0 135 104z" />
    <glyph glyph-name="b" unicode="b" horiz-adv-x="596" 
d="M180.5 17.5q-40.5 27.5 -52.5 58.5l-21 -76h-77l104 743h103l-41 -298q23 30 70 56t105 26q101 0 144.5 -73t26.5 -193q-18 -126 -86.5 -198.5t-174.5 -72.5q-60 0 -100.5 27.5zM377 115q46 48 60 147q13 92 -16 139.5t-93 47.5q-45 0 -83.5 -26.5t-62.5 -74.5l-19 -138
q-6 -42 6.5 -74.5t39 -50.5t59.5 -18q63 0 109 48z" />
    <glyph glyph-name="c" unicode="c" horiz-adv-x="537" 
d="M435.5 484.5q44.5 -42.5 57.5 -113.5l-86 -13q-24 48 -44 68t-58 20q-67 0 -114 -50.5t-59 -137.5q-12 -88 20.5 -140t99.5 -52q42 0 73 24.5t60 69.5l81 -13q-33 -72 -92 -114.5t-137 -42.5q-71 0 -120.5 33.5t-71 94t-10.5 138.5q11 79 49.5 140.5t97.5 96t130 34.5
q79 0 123.5 -42.5z" />
    <glyph glyph-name="d" unicode="d" horiz-adv-x="590" 
d="M65 59q-48 69 -30 195q18 125 84.5 199t167.5 74q89 0 142 -66l39 282h103l-104 -743h-78l3 73q-26 -31 -71.5 -57t-107.5 -26q-100 0 -148 69zM313 85q32 18 53 48t26 63l23 166q-29 87 -112 87q-65 0 -109.5 -48.5t-57.5 -143.5q-13 -96 17.5 -143t91.5 -47q36 0 68 18
z" />
    <glyph glyph-name="e" unicode="e" horiz-adv-x="558" 
d="M156 114.5q31 -46.5 99 -46.5q95 0 133 76l91 -10q-25 -66 -90 -105t-143 -39q-73 0 -125 31.5t-75 91.5t-11 140q11 81 48 143t96 96.5t133 34.5q109 0 159 -69t33 -188l-5 -36h-364q-10 -73 21 -119.5zM411 302q9 66 -19 107.5t-92 41.5q-43 0 -76.5 -21.5t-53.5 -55.5
t-26 -72h267z" />
    <glyph glyph-name="f" unicode="f" horiz-adv-x="392" 
d="M374 443h-122l-85 -604h-103l85 604h-106l11 74h106l11 79q9 62 46.5 94.5t100.5 32.5h101l-10 -71h-75q-30 0 -44.5 -16t-19.5 -51l-9 -68h124z" />
    <glyph glyph-name="g" unicode="g" horiz-adv-x="609" 
d="M36 -134.5q-63 36.5 -54 97.5q6 40 34.5 63t51.5 33.5t27 13.5q-3 2 -17 10.5t-22.5 23t-5.5 33.5q4 26 31 46.5t73 30.5q-91 48 -77 145q11 76 80.5 119.5t171.5 43.5q49 0 82 -11t61 -33q23 10 64 25l78 31l-12 -91l-93 -17q4 -14 6.5 -34t0.5 -33q-6 -45 -36 -82.5
t-82.5 -60t-123.5 -22.5l-35 1q-45 -1 -66.5 -10t-23.5 -22q-2 -14 18 -19t75 -9l111 -7q86 -5 123.5 -42.5t29.5 -98.5q-11 -75 -84.5 -118t-196.5 -43q-126 0 -189 36.5zM377 286.5q34 25.5 41 73.5q7 49 -20.5 76.5t-83.5 27.5t-92 -28t-42 -76q-7 -47 21 -73t85 -26
t91 25.5zM361.5 -88q36.5 20 42.5 62q9 64 -81 70l-139 9q-20 1 -42 -9t-38 -28.5t-20 -40.5q-12 -83 168 -83q73 0 109.5 20z" />
    <glyph glyph-name="h" unicode="h" horiz-adv-x="594" 
d="M134 743h100l-41 -298q41 30 65 45t53 24t66 9q75 0 114.5 -43t30.5 -112l-52 -368h-102l49 350q6 43 -15.5 67t-67.5 24q-38 0 -72.5 -18t-76.5 -55l-52 -368h-103z" />
    <glyph glyph-name="i" unicode="i" horiz-adv-x="261" 
d="M225 619h-108l17 124h108zM136 0h-103l73 517h103z" />
    <glyph glyph-name="j" unicode="j" horiz-adv-x="279" 
d="M236 619h-109l17 124h109zM93.5 -130.5q-39.5 -35.5 -119.5 -35.5q-24 0 -38.5 2.5t-19 5.5t-5.5 4l9 68l49 3q34 3 50.5 18t21.5 50l75 532h103l-76 -535q-10 -77 -49.5 -112.5z" />
    <glyph glyph-name="k" unicode="k" horiz-adv-x="568" 
d="M386 0l-121 253l-110 -100l-22 -153h-103l104 743h103l-67 -481l273 255h111l-214 -199l153 -318h-107z" />
    <glyph glyph-name="l" unicode="l" horiz-adv-x="298" 
d="M63 34q-23 38 -14 104l85 605h101l-83 -594q-10 -73 47 -78l27 -1l-9 -65q-30 -9 -51 -9q-80 0 -103 38z" />
    <glyph glyph-name="m" unicode="m" horiz-adv-x="908" 
d="M103 517h100l-10 -71q29 33 73 57t99 24q53 0 92.5 -20t54.5 -60q30 37 75 58.5t97 21.5q71 0 117 -42t33 -138l-49 -347h-102l47 337q16 111 -92 111q-52 0 -88 -26t-44 -82l-48 -340h-102l51 362q6 41 -22 63.5t-74 22.5q-44 0 -83 -24.5t-46 -71.5l-49 -352h-103z" />
    <glyph glyph-name="n" unicode="n" horiz-adv-x="594" 
d="M103 517h100l-10 -71q64 78 171 78q50 0 88 -21.5t56.5 -63t10.5 -98.5l-48 -341h-103l46 330q7 52 -18 81.5t-74 29.5q-54 0 -94 -25t-47 -71l-48 -345h-103z" />
    <glyph glyph-name="o" unicode="o" horiz-adv-x="568" 
d="M113.5 23.5q-49.5 33.5 -69.5 93.5t-9 138q11 80 49 141.5t97.5 96t131.5 34.5q74 0 122.5 -34.5t68.5 -96t9 -140.5q-11 -78 -48 -138.5t-95.5 -94t-132.5 -33.5t-123.5 33.5zM359.5 122q41.5 53 52.5 137q12 84 -14.5 136.5t-95.5 52.5t-111 -52.5t-54 -136.5
t15.5 -137t97.5 -53q68 0 109.5 53z" />
    <glyph glyph-name="p" unicode="p" horiz-adv-x="595" 
d="M103 517h102l-10 -70q72 80 169 80q61 0 105.5 -29t64 -88t7.5 -145q-12 -87 -50 -149t-94.5 -94t-122.5 -32q-88 0 -134 63l-30 -214h-103zM381.5 119q49.5 52 62.5 143q9 61 -5.5 103t-44.5 63t-69 21q-35 0 -67.5 -18t-53.5 -45t-24 -54l-26 -182q16 -38 45 -60.5
t68 -22.5q65 0 114.5 52z" />
    <glyph glyph-name="q" unicode="q" horiz-adv-x="597" 
d="M348 -161l30 210q-41 -31 -78.5 -45t-78.5 -14q-66 0 -111.5 32t-65.5 94t-8 149q12 86 49 144.5t89 88t113 29.5q55 0 88 -21t61 -51l9 62h102l-96 -678h-103zM394 167l22 151q8 56 -21.5 95.5t-85.5 39.5q-61 0 -108 -48t-60 -141t20.5 -147t97.5 -54q75 0 135 104z
" />
    <glyph glyph-name="r" unicode="r" horiz-adv-x="394" 
d="M103 517h98l-16 -113q32 53 89 88t116 35l-14 -98q-53 3 -97 -14.5t-71.5 -48t-31.5 -62.5l-43 -304h-103z" />
    <glyph glyph-name="s" unicode="s" horiz-adv-x="509" 
d="M71 29q-53 39 -56 111l88 9q14 -85 116 -85q52 0 90 20.5t43 55.5q8 55 -67 73l-99 21q-69 16 -98.5 49.5t-22.5 87.5q10 72 70 114t153 42q94 0 140.5 -42.5t39.5 -109.5l-88 -5q-4 84 -105 84q-45 0 -77.5 -17.5t-38.5 -58.5q-3 -23 13.5 -39t63.5 -27l96 -24
q68 -17 92.5 -56.5t17.5 -86.5q-6 -46 -38 -81.5t-83 -54.5t-113 -19q-84 0 -137 39z" />
    <glyph glyph-name="t" unicode="t" horiz-adv-x="399" 
d="M243 443l-42 -310q-5 -37 4.5 -50t34.5 -13h72l-9 -64q-24 -9 -80 -9q-81 0 -108 32t-18 98l44 316h-84l11 74h87l35 169h87l-23 -169h117l-11 -74h-117z" />
    <glyph glyph-name="u" unicode="u" horiz-adv-x="594" 
d="M135.5 9.5q-42.5 18.5 -66.5 57.5t-16 98l50 353h103l-48 -342q-8 -54 23 -80.5t77 -26.5q50 0 88.5 29.5t46.5 82.5l48 337h103l-75 -517h-80l6 78q-23 -36 -72.5 -62t-97.5 -26q-47 0 -89.5 18.5z" />
    <glyph glyph-name="v" unicode="v" horiz-adv-x="536" 
d="M260 0h-76l-137 517h96l98 -386l207 386h95z" />
    <glyph glyph-name="w" unicode="w" horiz-adv-x="780" 
d="M548 0h-88l-66 369l-165 -369h-87l-92 517h94l64 -383l171 383h76l66 -383l168 383h95z" />
    <glyph glyph-name="x" unicode="x" horiz-adv-x="551" 
d="M375 0l-118 196l-173 -196h-110l237 269l-148 248h110l105 -175l154 175h110l-218 -248l161 -269h-110z" />
    <glyph glyph-name="y" unicode="y" horiz-adv-x="537" 
d="M14.5 -162q-17.5 3 -25.5 6.5t-10 4.5l9 66l53 -2q52 -2 76 14t39 42l22 45l-131 503h103l92 -388l202 388h100l-293 -549q-42 -75 -87 -104t-104 -29q-28 0 -45.5 3z" />
    <glyph glyph-name="z" unicode="z" horiz-adv-x="493" 
d="M0 60l346 388h-270l10 69h395l-9 -60l-346 -388h296l-10 -69h-420z" />
    <glyph glyph-name="braceleft" unicode="{" horiz-adv-x="333" 
d="M210 694.5q42 28.5 99 28.5h55l-9 -64h-37q-37 0 -51.5 -12.5t-18.5 -38.5l-29 -210q-8 -52 -41 -79.5t-75 -31.5q-6 -1 -7 -3.5t6 -3.5q42 -3 66.5 -29.5t18.5 -82.5l-30 -212q-4 -29 7.5 -41t46.5 -12h37l-9 -64h-53q-60 0 -93 29t-27 78l30 214q5 38 -20 66t-79 28
l8 59q57 1 88.5 26.5t38.5 71.5l29 207q7 48 49 76.5z" />
    <glyph glyph-name="bar" unicode="|" horiz-adv-x="261" 
d="M22 -161l139 987h78l-139 -987h-78z" />
    <glyph glyph-name="braceright" unicode="}" horiz-adv-x="333" 
d="M151 -132.5q-42 -28.5 -99 -28.5h-55l9 64h37q37 0 51.5 12.5t18.5 38.5l29 210q8 52 41 79.5t75 31.5q6 1 7 3.5t-6 3.5q-42 3 -66.5 29.5t-18.5 82.5l30 212q4 29 -7.5 41t-46.5 12h-37l9 64h53q60 0 93 -29t27 -78l-30 -214q-5 -38 20 -66t79 -28l-8 -59
q-57 -1 -88.5 -26.5t-38.5 -71.5l-29 -207q-7 -48 -49 -76.5z" />
    <glyph glyph-name="asciitilde" unicode="~" horiz-adv-x="576" 
d="M459.5 322q-36.5 -19 -79.5 -19q-28 0 -48.5 7t-48.5 22q-24 13 -42 19t-40 6q-34 0 -61 -15.5t-57 -43.5l-21 56q40 35 73.5 53.5t75.5 18.5q26 0 47.5 -7t47.5 -21q27 -14 44 -20t38 -6q61 0 110 59l23 -57q-25 -33 -61.5 -52z" />
    <glyph glyph-name="uni00A0" unicode="&#xa0;" horiz-adv-x="233" 
 />
    <glyph glyph-name="exclamdown" unicode="&#xa1;" horiz-adv-x="257" 
d="M76 393l18 124h119l-18 -124h-119zM-3 -161l96 486h67l-41 -486h-122z" />
    <glyph glyph-name="cent" unicode="&#xa2;" horiz-adv-x="544" 
d="M408 153.5q-49 -40.5 -114 -49.5l-15 -104h-73l15 104q-90 13 -135.5 84t-29.5 179q15 109 80 182t159 86l13 88h73l-13 -88q63 -9 98.5 -50t47.5 -103l-86 -13q-24 48 -44.5 68t-58.5 20q-67 0 -113.5 -50.5t-58.5 -137.5q-12 -88 20.5 -140t99.5 -52q42 0 73 24.5
t60 69.5l80 -13q-29 -64 -78 -104.5z" />
    <glyph glyph-name="sterling" unicode="&#xa3;" horiz-adv-x="618" 
d="M-19 87h37q40 0 69 32.5t39 98.5q7 47 6 125h-101l9 63h89l-2 84q-1 28 2 49q8 59 43 103t87.5 67.5t109.5 23.5q72 0 124 -34t69 -89l-95 -31q-13 35 -35 51.5t-61 16.5q-49 0 -84 -28t-42 -78q-8 -56 2 -134h159l-9 -63h-150q0 -45 -4 -77q-2 -11 -8 -37
q-18 -91 -78 -142h167q51 0 82.5 18t55.5 63l84 -22q-67 -147 -227 -147h-350z" />
    <glyph glyph-name="currency" unicode="&#xa4;" horiz-adv-x="545" 
d="M146 199q-7 5 -14 -1l-63 -56l-40 50l69 60q-28 52 -19 112q8 55 45 104q4 5 4 7q0 1 -3 7l-47 55l55 48l53 -62q26 17 56.5 26.5t59.5 9.5q59 0 101 -32q5 -5 12 1l62 55l40 -49l-67 -59q28 -52 19 -111q-9 -62 -46 -105q-5 -5 -1 -11l48 -53l-54 -49l-51 59
q-58 -37 -116 -37q-59 0 -103 31zM349.5 278.5q39.5 35.5 46.5 85.5q4 32 -7 60t-36.5 44.5t-59.5 16.5t-64 -16.5t-50 -44.5t-25 -60q-7 -50 23 -85.5t82 -35.5q51 0 90.5 35.5z" />
    <glyph glyph-name="yen" unicode="&#xa5;" horiz-adv-x="617" 
d="M385 340h139l-9 -62h-152l-12 -86h152l-9 -62h-152l-18 -130h-117l18 129h-152l9 62h152l12 87h-152l9 62h129l-175 383h133l140 -323l232 323h110z" />
    <glyph glyph-name="brokenbar" unicode="&#xa6;" horiz-adv-x="261" 
d="M105 424l56 402h78l-56 -402h-78zM22 -161l57 402h78l-57 -402h-78z" />
    <glyph glyph-name="section" unicode="&#xa7;" horiz-adv-x="490" 
d="M66 -40.5q-55 32.5 -74 83.5l72 35q18 -37 53 -59.5t86 -22.5q48 0 80 18t37 50q4 26 -14.5 46.5t-67.5 41.5l-79 32q-67 27 -94 62.5t-20 86.5q6 45 37.5 78.5t77.5 51.5q-48 28 -64 58.5t-11 68.5q6 40 34 73t74 51.5t103 18.5q65 0 113.5 -29.5t68.5 -73.5l-72 -35
q-46 69 -116 69q-47 0 -76.5 -17.5t-33.5 -47.5q-6 -43 64 -74l77 -32q75 -31 104.5 -69.5t22.5 -92.5q-12 -83 -105 -128q42 -26 60 -57t13 -71q-9 -66 -69 -107t-152 -41q-74 0 -129 32.5zM324 259q28 22 33 55q4 31 -10.5 52.5t-60.5 40.5l-49 20q-39 -3 -68.5 -26.5
t-33.5 -53.5q-4 -27 10.5 -44.5t62.5 -37.5l55 -25q33 -3 61 19z" />
    <glyph glyph-name="dieresis" unicode="&#xa8;" horiz-adv-x="285" 
d="M149 610h-96l16 113h96zM309 610h-97l16 113h97z" />
    <glyph glyph-name="copyright" unicode="&#xa9;" horiz-adv-x="819" 
d="M181 40q-78 50 -116 135t-24 187q14 100 76 185.5t154 135.5t193 50t179.5 -50t116.5 -135.5t24 -185.5q-14 -102 -76 -187t-154.5 -135t-193.5 -50t-179 50zM527 94q74 38 123.5 107.5t62.5 160.5q13 90 -17.5 160t-94 108.5t-146.5 38.5q-85 0 -159 -38.5t-123 -108.5
t-62 -160q-13 -91 17 -160.5t93 -107.5t148 -38q84 0 158 38zM541.5 540.5q36.5 -32.5 53.5 -82.5l-77 -15q-24 69 -79 69q-49 0 -84.5 -39t-45.5 -108q-10 -70 15 -109t76 -39q68 0 117 74l53 -18q-29 -49 -76 -83t-108 -34q-56 0 -96.5 26t-58.5 73t-9 108t40.5 109
t79.5 74.5t103 26.5q60 0 96.5 -32.5z" />
    <glyph glyph-name="ordfeminine" unicode="&#xaa;" horiz-adv-x="417" 
d="M88 420.5q-25 24.5 -20 66.5q7 47 53.5 76t126.5 33l52 4l4 23q4 31 -12.5 45t-47.5 14q-27 0 -47.5 -10.5t-38.5 -36.5l-59 16q24 40 61.5 60t93.5 20q132 0 117 -107l-17 -119q-6 -40 -6 -68l2 -35h-71l-2 41q-32 -25 -57 -36t-56 -11q-51 0 -76 24.5zM260 467
q12 10 19 19t8 19l7 52l-44 -2q-51 -4 -79 -20.5t-32 -43.5q-3 -22 12 -34.5t43 -12.5q37 0 66 23z" />
    <glyph glyph-name="guillemotleft" unicode="&#xab;" horiz-adv-x="459" 
d="M189 69h-56l-104 182l156 190h58l-125 -190zM369 69h-57l-104 182l156 190h58l-124 -190z" />
    <glyph glyph-name="logicalnot" unicode="&#xac;" horiz-adv-x="561" 
d="M509 403l-32 -223h-85l21 145l-354 -1l10 78z" />
    <glyph glyph-name="uni00AD" unicode="&#xad;" horiz-adv-x="374" 
d="M310 219l-257 -1l11 79l257 1z" />
    <glyph glyph-name="registered" unicode="&#xae;" horiz-adv-x="541" 
d="M147.5 299q-49.5 31 -73 84t-14.5 117t47.5 117t96.5 84.5t122 31.5q63 0 112 -31.5t72.5 -85t14.5 -116.5t-47.5 -116.5t-96 -84.5t-120.5 -31q-64 0 -113.5 31zM404.5 366q56.5 50 68.5 134q12 83 -31 134t-123 51q-82 0 -138.5 -51t-68.5 -134q-12 -84 30.5 -134
t124.5 -50q81 0 137.5 50zM219 614h104q39 0 58.5 -15.5t15.5 -43.5q-6 -44 -57 -62l30 -110h-50l-23 105h-50l-15 -105h-45zM307 524q38 0 41 27q4 28 -37 28h-52l-7 -55h55z" />
    <glyph glyph-name="macron" unicode="&#xaf;" horiz-adv-x="338" 
d="M365 641h-308l10 71h308z" />
    <glyph glyph-name="degree" unicode="&#xb0;" horiz-adv-x="463" 
d="M404.5 595q-25.5 -36 -64.5 -56.5t-84 -20.5q-69 0 -108 44.5t-29 114.5q6 46 32 82.5t65.5 57t84.5 20.5t78 -20.5t48.5 -57t8.5 -82.5q-6 -46 -31.5 -82zM352 745q-21 26 -63 26q-40 0 -69 -26t-35 -67q-6 -43 15.5 -70t63.5 -27q41 0 69 26t34 69t-15 69z" />
    <glyph glyph-name="plusminus" unicode="&#xb1;" horiz-adv-x="561" 
d="M520 481l-11 -78h-180l-26 -180h-78l25 179h-181l11 78h181l26 182h78l-25 -181h180zM32 132h439l-11 -77l-439 -1z" />
    <glyph glyph-name="uni00B2" unicode="&#xb2;" horiz-adv-x="379" 
d="M30 437l165 139q63 53 86.5 80.5t28.5 57.5q5 37 -18 56t-57 19q-32 0 -61 -16t-49 -49l-56 11q22 52 67 81t110 29q66 0 102.5 -34.5t28.5 -94.5q-5 -38 -30 -70.5t-85 -85.5l-139 -120h220l-8 -56h-313z" />
    <glyph glyph-name="uni00B3" unicode="&#xb3;" horiz-adv-x="394" 
d="M161 821q49 24 111 24q70 0 110 -33t33 -83q-10 -73 -101 -102q43 -13 67 -42.5t18 -72.5q-5 -39 -33 -69.5t-71.5 -47.5t-93.5 -17q-68 0 -107 22.5t-50 77.5l60 10q26 -56 103 -56q50 0 82.5 22t37.5 56q5 38 -22.5 60.5t-71.5 22.5l-61 1l7 53l51 1q45 1 77.5 22.5
t37.5 53.5q4 30 -19.5 49t-62.5 19q-78 0 -113 -56l-57 11q19 50 68 74z" />
    <glyph glyph-name="acute" unicode="&#xb4;" horiz-adv-x="293" 
d="M327 658l-264 -73l-10 50l260 98z" />
    <glyph glyph-name="paragraph" unicode="&#xb6;" horiz-adv-x="578" 
d="M487 662l-105 -745h-66l105 745h-52l-105 -745h-67l54 381q-62 2 -105.5 29.5t-63.5 73.5t-12 104q8 59 41.5 108.5t90 79.5t129.5 30h226l-9 -61h-61z" />
    <glyph glyph-name="periodcentered" unicode="&#xb7;" horiz-adv-x="223" 
d="M166 306h-121l16 117h121z" />
    <glyph glyph-name="cedilla" unicode="&#xb8;" horiz-adv-x="237" 
d="M116 -186q-35 -21 -81 -21q-60 0 -96 25l22 41q30 -24 67 -24q54 0 59 36q3 21 -15 31.5t-60 11.5q-10 0 -6 7l49 84h52l-33 -60q48 -2 67 -23.5t15 -50.5q-5 -36 -40 -57z" />
    <glyph glyph-name="uni00B9" unicode="&#xb9;" horiz-adv-x="297" 
d="M144 761l-90 -30l7 48l120 56h40l-64 -455h-66z" />
    <glyph glyph-name="ordmasculine" unicode="&#xba;" horiz-adv-x="407" 
d="M368.5 685.5q36.5 -46.5 25.5 -122.5q-10 -74 -59.5 -120t-121.5 -46t-108.5 46t-26.5 120q11 76 61 122.5t121 46.5q72 0 108.5 -46.5zM186 651q-26 -30 -33 -85q-8 -57 8.5 -87.5t58.5 -30.5t68 30.5t34 87.5q8 55 -10 85t-59 30t-67 -30z" />
    <glyph glyph-name="guillemotright" unicode="&#xbb;" horiz-adv-x="458" 
d="M65 441h57l102 -190l-154 -182h-56l121 182zM244 441h57l102 -190l-154 -182h-56l121 182z" />
    <glyph glyph-name="onequarter" unicode="&#xbc;" horiz-adv-x="957" 
d="M129 657l-90 -30l7 48l120 56h40l-64 -455h-66zM161 -4l-65 1l590 734h65zM856 455l-40 -285h70l-8 -57h-70l-16 -113h-65l17 113h-211l8 59l250 283h65zM751 170l27 192l-170 -192h143z" />
    <glyph glyph-name="onehalf" unicode="&#xbd;" horiz-adv-x="925" 
d="M129 657l-90 -30l7 48l120 56h40l-64 -455h-66zM161 -4l-65 1l590 734h65zM521 53l166 139q43 36 65.5 58t34 40.5t14.5 39.5q5 37 -17.5 56t-55.5 19t-62.5 -15.5t-48.5 -49.5l-57 11q23 52 68.5 81t109.5 29q43 0 75 -15.5t46.5 -44.5t9.5 -70q-4 -26 -16.5 -48.5
t-35.5 -46.5t-64 -60l-138 -120h220l-8 -56h-313z" />
    <glyph glyph-name="threequarters" unicode="&#xbe;" horiz-adv-x="1054" 
d="M146 716q49 24 111 24q70 0 110 -33t33 -83q-10 -73 -101 -102q43 -13 67 -42.5t18 -72.5q-5 -39 -33 -69.5t-71.5 -47.5t-93.5 -17q-68 0 -107 22.5t-50 77.5l60 10q26 -56 103 -56q50 0 82.5 22t37.5 56q5 38 -22.5 60.5t-71.5 22.5l-61 1l7 53l51 1q45 1 77.5 22.5
t37.5 53.5q4 30 -19.5 49t-62.5 19q-78 0 -113 -56l-57 11q19 50 68 74zM258 -4l-65 1l590 734h65zM953 455l-40 -285h70l-8 -57h-70l-16 -113h-65l17 113h-211l8 59l250 283h65zM848 170l27 192l-170 -192h143z" />
    <glyph glyph-name="questiondown" unicode="&#xbf;" horiz-adv-x="520" 
d="M239 517h119l-18 -124h-119zM335.5 -132q-68.5 -39 -150.5 -39q-71 0 -118.5 22.5t-68.5 62t-14 89.5q5 39 23 68t41 49.5t60 47.5q37 28 58.5 47.5t39 47.5t22.5 65h86q-7 -47 -26 -82.5t-43 -59t-62 -54.5q-44 -36 -66.5 -62t-27.5 -63q-6 -45 23.5 -72.5t83.5 -27.5
q48 0 95 27.5t68 68.5l87 -25q-42 -71 -110.5 -110z" />
    <glyph glyph-name="Agrave" unicode="&#xc0;" horiz-adv-x="700" 
d="M350 723h113l159 -723h-103l-42 192h-289l-98 -192h-103zM463 285l-70 338l-167 -338h237zM553 841l-24 -50l-244 73l36 75z" />
    <glyph glyph-name="Aacute" unicode="&#xc1;" horiz-adv-x="700" 
d="M350 723h113l159 -723h-103l-42 192h-289l-98 -192h-103zM463 285l-70 338l-167 -338h237zM567 864l-264 -73l-10 50l260 98z" />
    <glyph glyph-name="Acircumflex" unicode="&#xc2;" horiz-adv-x="700" 
d="M350 723h113l159 -723h-103l-42 192h-289l-98 -192h-103zM463 285l-70 338l-167 -338h237zM433 883l-84 -68h-87l143 118h73l108 -118h-92z" />
    <glyph glyph-name="Atilde" unicode="&#xc3;" horiz-adv-x="700" 
d="M350 723h113l159 -723h-103l-42 192h-289l-98 -192h-103zM463 285l-70 338l-167 -338h237zM495 837q-30 0 -68 14q-14 5 -29.5 8.5t-29.5 3.5q-19 0 -31.5 -5t-32.5 -16q-4 -3 -8 -3t-6 8l-7 31q-1 2 0 6q1 5 8 10q20 15 38.5 23.5t42.5 8.5q17 0 36 -4.5t35 -10.5
q37 -13 60 -13q29 0 63 20q4 3 8 3q6 0 8 -8l5 -37l1 -4q-1 -5 -12 -12q-34 -23 -81 -23z" />
    <glyph glyph-name="Adieresis" unicode="&#xc4;" horiz-adv-x="700" 
d="M350 723h113l159 -723h-103l-42 192h-289l-98 -192h-103zM463 285l-70 338l-167 -338h237zM393 816h-96l16 113h96zM553 816h-97l16 113h97z" />
    <glyph glyph-name="Aring" unicode="&#xc5;" horiz-adv-x="700" 
d="M350 723h113l159 -723h-103l-42 192h-289l-98 -192h-103zM463 285l-70 338l-167 -338h237zM498.5 811q-34.5 -30 -78.5 -30t-69.5 30.5t-19.5 74.5q6 42 40.5 71.5t77.5 29.5q44 0 70 -30t20 -73t-40.5 -73zM476 922q-13 15 -35 15t-40 -15t-21 -38q-3 -21 10.5 -37.5
t35.5 -16.5q21 0 39 16.5t21 37.5q3 23 -10 38z" />
    <glyph glyph-name="AE" unicode="&#xc6;" horiz-adv-x="1024" 
d="M914 0h-472l27 195h-245l-134 -195h-103l499 723h519l-14 -88h-344l-32 -227h252l-12 -87h-252l-33 -233h356zM533 651l-256 -366h205z" />
    <glyph glyph-name="Ccedilla" unicode="&#xc7;" horiz-adv-x="689" 
d="M549.5 703.5q57.5 -29.5 86.5 -81t27 -114.5l-108 -4q-3 65 -41.5 103t-111.5 38q-95 0 -154.5 -70t-79.5 -212t20 -213.5t138 -71.5q64 0 114.5 38.5t73.5 102.5l106 -7q-17 -63 -57.5 -113t-103.5 -79.5t-143 -29.5q-97 0 -161.5 45.5t-90 130t-9.5 198.5t64.5 197
t124 127.5t171.5 44.5q77 0 134.5 -29.5zM356 -186q-35 -21 -81 -21q-60 0 -96 25l22 41q30 -24 67 -24q54 0 59 36q3 21 -15 31.5t-60 11.5q-10 0 -6 7l49 84h52l-33 -60q48 -2 67 -23.5t15 -50.5q-5 -36 -40 -57z" />
    <glyph glyph-name="Egrave" unicode="&#xc8;" horiz-adv-x="625" 
d="M147 723h463l-14 -89h-360l-32 -225h323l-12 -88h-323l-32 -230l370 -1l-13 -90h-472zM528 841l-24 -50l-244 73l36 75z" />
    <glyph glyph-name="Eacute" unicode="&#xc9;" horiz-adv-x="625" 
d="M147 723h463l-14 -89h-360l-32 -225h323l-12 -88h-323l-32 -230l370 -1l-13 -90h-472zM542 864l-264 -73l-10 50l260 98z" />
    <glyph glyph-name="Ecircumflex" unicode="&#xca;" horiz-adv-x="625" 
d="M147 723h463l-14 -89h-360l-32 -225h323l-12 -88h-323l-32 -230l370 -1l-13 -90h-472zM408 883l-84 -68h-87l143 118h73l108 -118h-92z" />
    <glyph glyph-name="Edieresis" unicode="&#xcb;" horiz-adv-x="625" 
d="M147 723h463l-14 -89h-360l-32 -225h323l-12 -88h-323l-32 -230l370 -1l-13 -90h-472zM368 816h-96l16 113h96zM528 816h-97l16 113h97z" />
    <glyph glyph-name="Igrave" unicode="&#xcc;" horiz-adv-x="283" 
d="M249 723l-102 -723h-102l102 723h102zM342 841l-24 -50l-244 73l36 75z" />
    <glyph glyph-name="Iacute" unicode="&#xcd;" horiz-adv-x="283" 
d="M249 723l-102 -723h-102l102 723h102zM356 864l-264 -73l-10 50l260 98z" />
    <glyph glyph-name="Icircumflex" unicode="&#xce;" horiz-adv-x="283" 
d="M249 723l-102 -723h-102l102 723h102zM222 883l-84 -68h-87l143 118h73l108 -118h-92z" />
    <glyph glyph-name="Idieresis" unicode="&#xcf;" horiz-adv-x="283" 
d="M249 723l-102 -723h-102l102 723h102zM182 816h-96l16 113h96zM342 816h-97l16 113h97z" />
    <glyph glyph-name="Eth" unicode="&#xd0;" horiz-adv-x="705" 
d="M608 629.5q78 -89.5 53 -263.5q-51 -366 -435 -366h-168l45 320h-55q-9 0 -12.5 4t-2.5 12l7 50q2 14 14 14h60l46 323q115 0 175 -1q195 -3 273 -92.5zM453 152.5q81 65.5 101 212.5q21 146 -39 209t-195 63h-68l-34 -237h153q11 0 10 -12l-7 -50q-1 -10 -7 -14t-17 -4
h-143l-33 -233h64q134 0 215 65.5z" />
    <glyph glyph-name="Ntilde" unicode="&#xd1;" horiz-adv-x="755" 
d="M720 723l-102 -723h-91l-302 557l-78 -557h-102l102 723h98l296 -547l77 547h102zM525 837q-30 0 -68 14q-14 5 -29.5 8.5t-29.5 3.5q-19 0 -31.5 -5t-32.5 -16q-4 -3 -8 -3t-6 8l-7 31q-1 2 0 6q1 5 8 10q20 15 38.5 23.5t42.5 8.5q17 0 36 -4.5t35 -10.5q37 -13 60 -13
q29 0 63 20q4 3 8 3q6 0 8 -8l5 -37l1 -4q-1 -5 -12 -12q-34 -23 -81 -23z" />
    <glyph glyph-name="Ograve" unicode="&#xd2;" horiz-adv-x="733" 
d="M157 33.5q-65 43.5 -92 126.5t-11 199q16 117 67.5 201.5t129 128.5t174.5 44q96 0 161 -44t91.5 -128t10.5 -201q-16 -116 -66 -199t-127 -127t-175 -44t-163 43.5zM575 359q20 145 -22 215.5t-140 70.5q-99 0 -162 -71t-84 -215q-20 -143 24 -212t143 -69
q202 0 241 281zM565 841l-24 -50l-244 73l36 75z" />
    <glyph glyph-name="Oacute" unicode="&#xd3;" horiz-adv-x="733" 
d="M157 33.5q-65 43.5 -92 126.5t-11 199q16 117 67.5 201.5t129 128.5t174.5 44q96 0 161 -44t91.5 -128t10.5 -201q-16 -116 -66 -199t-127 -127t-175 -44t-163 43.5zM575 359q20 145 -22 215.5t-140 70.5q-99 0 -162 -71t-84 -215q-20 -143 24 -212t143 -69
q202 0 241 281zM579 864l-264 -73l-10 50l260 98z" />
    <glyph glyph-name="Ocircumflex" unicode="&#xd4;" horiz-adv-x="733" 
d="M157 33.5q-65 43.5 -92 126.5t-11 199q16 117 67.5 201.5t129 128.5t174.5 44q96 0 161 -44t91.5 -128t10.5 -201q-16 -116 -66 -199t-127 -127t-175 -44t-163 43.5zM575 359q20 145 -22 215.5t-140 70.5q-99 0 -162 -71t-84 -215q-20 -143 24 -212t143 -69
q202 0 241 281zM445 883l-84 -68h-87l143 118h73l108 -118h-92z" />
    <glyph glyph-name="Otilde" unicode="&#xd5;" horiz-adv-x="733" 
d="M157 33.5q-65 43.5 -92 126.5t-11 199q16 117 67.5 201.5t129 128.5t174.5 44q96 0 161 -44t91.5 -128t10.5 -201q-16 -116 -66 -199t-127 -127t-175 -44t-163 43.5zM575 359q20 145 -22 215.5t-140 70.5q-99 0 -162 -71t-84 -215q-20 -143 24 -212t143 -69
q202 0 241 281zM507 837q-30 0 -68 14q-14 5 -29.5 8.5t-29.5 3.5q-19 0 -31.5 -5t-32.5 -16q-4 -3 -8 -3t-6 8l-7 31q-1 2 0 6q1 5 8 10q20 15 38.5 23.5t42.5 8.5q17 0 36 -4.5t35 -10.5q37 -13 60 -13q29 0 63 20q4 3 8 3q6 0 8 -8l5 -37l1 -4q-1 -5 -12 -12
q-34 -23 -81 -23z" />
    <glyph glyph-name="Odieresis" unicode="&#xd6;" horiz-adv-x="733" 
d="M157 33.5q-65 43.5 -92 126.5t-11 199q16 117 67.5 201.5t129 128.5t174.5 44q96 0 161 -44t91.5 -128t10.5 -201q-16 -116 -66 -199t-127 -127t-175 -44t-163 43.5zM575 359q20 145 -22 215.5t-140 70.5q-99 0 -162 -71t-84 -215q-20 -143 24 -212t143 -69
q202 0 241 281zM405 816h-96l16 113h96zM565 816h-97l16 113h97z" />
    <glyph glyph-name="multiply" unicode="&#xd7;" horiz-adv-x="547" 
d="M331 364l135 -156l-64 -56l-134 156l-178 -156l-47 56l177 156l-134 156l63 55l135 -156l178 157l48 -55z" />
    <glyph glyph-name="Oslash" unicode="&#xd8;" horiz-adv-x="731" 
d="M757 693h-2q6 -3 5 -9q-1 -5 -5 -8l-91 -87q40 -92 21 -229q-16 -116 -66 -199t-127.5 -127t-174.5 -44q-137 0 -206 82l-75 -71q-8 -8 -15 -8t-13 7l-21 25q-8 9 -8 14q1 4 7 9l86 83q-40 90 -21 228q16 117 67 201.5t128.5 128.5t174.5 44q136 0 205 -84l81 75
q8 7 12 7t7 -4zM175 224l367 351q-37 72 -135 72t-156 -70.5t-79 -217.5q-11 -80 3 -135zM556 496l-366 -351q39 -68 138 -68q98 0 154 68t76 214q12 83 -2 137z" />
    <glyph glyph-name="Ugrave" unicode="&#xd9;" horiz-adv-x="719" 
d="M525.5 57.5q-74.5 -67.5 -213.5 -67.5q-140 0 -194.5 69t-35.5 204l65 460h105l-67 -473q-12 -85 24 -128t115 -43q80 0 129 42.5t61 128.5l67 473h103l-66 -469q-18 -129 -92.5 -196.5zM551 841l-24 -50l-244 73l36 75z" />
    <glyph glyph-name="Uacute" unicode="&#xda;" horiz-adv-x="719" 
d="M525.5 57.5q-74.5 -67.5 -213.5 -67.5q-140 0 -194.5 69t-35.5 204l65 460h105l-67 -473q-12 -85 24 -128t115 -43q80 0 129 42.5t61 128.5l67 473h103l-66 -469q-18 -129 -92.5 -196.5zM565 864l-264 -73l-10 50l260 98z" />
    <glyph glyph-name="Ucircumflex" unicode="&#xdb;" horiz-adv-x="719" 
d="M525.5 57.5q-74.5 -67.5 -213.5 -67.5q-140 0 -194.5 69t-35.5 204l65 460h105l-67 -473q-12 -85 24 -128t115 -43q80 0 129 42.5t61 128.5l67 473h103l-66 -469q-18 -129 -92.5 -196.5zM431 883l-84 -68h-87l143 118h73l108 -118h-92z" />
    <glyph glyph-name="Udieresis" unicode="&#xdc;" horiz-adv-x="719" 
d="M525.5 57.5q-74.5 -67.5 -213.5 -67.5q-140 0 -194.5 69t-35.5 204l65 460h105l-67 -473q-12 -85 24 -128t115 -43q80 0 129 42.5t61 128.5l67 473h103l-66 -469q-18 -129 -92.5 -196.5zM391 816h-96l16 113h96zM551 816h-97l16 113h97z" />
    <glyph glyph-name="Yacute" unicode="&#xdd;" horiz-adv-x="608" 
d="M353 307l-43 -307h-102l43 308l-189 415h112l141 -325l231 325h112zM523 864l-264 -73l-10 50l260 98z" />
    <glyph glyph-name="Thorn" unicode="&#xde;" horiz-adv-x="673" 
d="M556 215q-78 -54 -197 -54h-175l-23 -161h-116l102 723h116l-21 -147h161q123 0 191 -51.5t54 -151.5q-14 -104 -92 -158zM498.5 461.5q-38.5 28.5 -113.5 28.5h-155l-34 -242h161q73 0 118 31.5t54 94.5q8 59 -30.5 87.5z" />
    <glyph glyph-name="germandbls" unicode="&#xdf;" horiz-adv-x="611" 
d="M505.5 684q39.5 -39 30.5 -101q-7 -52 -40 -80.5t-101 -58.5q-32 -15 -43 -24t-13 -24t7 -22t36 -16q59 -25 92.5 -43.5t56 -55.5t14.5 -96q-12 -82 -73.5 -127.5t-150.5 -45.5q-38 0 -73.5 9t-58.5 25l45 67q22 -15 42 -22.5t49 -7.5q51 0 84.5 24t39.5 67q4 31 -8 50.5
t-34 31t-60 26.5q-47 18 -72.5 43.5t-18.5 72.5q5 35 28 60t67 50q8 5 32.5 20t39 33t18.5 41q5 33 -17 52.5t-66 19.5q-56 0 -94 -34t-47 -96l-73 -522h-100l60 430h-66l11 74h65q16 98 83 158.5t178 60.5q91 0 130.5 -39z" />
    <glyph glyph-name="agrave" unicode="&#xe0;" horiz-adv-x="562" 
d="M370 0l8 49q-41 -31 -78.5 -45t-78.5 -14q-66 0 -111.5 32t-65.5 94t-8 149q12 86 49 144.5t89 88t113 29.5q55 0 88 -21t61 -51l9 62h102l-75 -517h-102zM394 167l22 151q8 56 -21.5 95.5t-85.5 39.5q-61 0 -108 -48t-60 -141t20.5 -147t97.5 -54q75 0 135 104zM449 635
l-24 -50l-244 73l36 75z" />
    <glyph glyph-name="aacute" unicode="&#xe1;" horiz-adv-x="562" 
d="M370 0l8 49q-41 -31 -78.5 -45t-78.5 -14q-66 0 -111.5 32t-65.5 94t-8 149q12 86 49 144.5t89 88t113 29.5q55 0 88 -21t61 -51l9 62h102l-75 -517h-102zM394 167l22 151q8 56 -21.5 95.5t-85.5 39.5q-61 0 -108 -48t-60 -141t20.5 -147t97.5 -54q75 0 135 104zM463 658
l-264 -73l-10 50l260 98z" />
    <glyph glyph-name="acircumflex" unicode="&#xe2;" horiz-adv-x="562" 
d="M370 0l8 49q-41 -31 -78.5 -45t-78.5 -14q-66 0 -111.5 32t-65.5 94t-8 149q12 86 49 144.5t89 88t113 29.5q55 0 88 -21t61 -51l9 62h102l-75 -517h-102zM394 167l22 151q8 56 -21.5 95.5t-85.5 39.5q-61 0 -108 -48t-60 -141t20.5 -147t97.5 -54q75 0 135 104zM329 677
l-84 -68h-87l143 118h73l108 -118h-92z" />
    <glyph glyph-name="atilde" unicode="&#xe3;" horiz-adv-x="562" 
d="M370 0l8 49q-41 -31 -78.5 -45t-78.5 -14q-66 0 -111.5 32t-65.5 94t-8 149q12 86 49 144.5t89 88t113 29.5q55 0 88 -21t61 -51l9 62h102l-75 -517h-102zM394 167l22 151q8 56 -21.5 95.5t-85.5 39.5q-61 0 -108 -48t-60 -141t20.5 -147t97.5 -54q75 0 135 104zM391 631
q-30 0 -68 14q-14 5 -29.5 8.5t-29.5 3.5q-19 0 -31.5 -5t-32.5 -16q-4 -3 -8 -3t-6 8l-7 31q-1 2 0 6q1 5 8 10q20 15 38.5 23.5t42.5 8.5q17 0 36 -4.5t35 -10.5q37 -13 60 -13q29 0 63 20q4 3 8 3q6 0 8 -8l5 -37l1 -4q-1 -5 -12 -12q-34 -23 -81 -23z" />
    <glyph glyph-name="adieresis" unicode="&#xe4;" horiz-adv-x="562" 
d="M370 0l8 49q-41 -31 -78.5 -45t-78.5 -14q-66 0 -111.5 32t-65.5 94t-8 149q12 86 49 144.5t89 88t113 29.5q55 0 88 -21t61 -51l9 62h102l-75 -517h-102zM394 167l22 151q8 56 -21.5 95.5t-85.5 39.5q-61 0 -108 -48t-60 -141t20.5 -147t97.5 -54q75 0 135 104zM289 610
h-96l16 113h96zM449 610h-97l16 113h97z" />
    <glyph glyph-name="aring" unicode="&#xe5;" horiz-adv-x="562" 
d="M370 0l8 49q-41 -31 -78.5 -45t-78.5 -14q-66 0 -111.5 32t-65.5 94t-8 149q12 86 49 144.5t89 88t113 29.5q55 0 88 -21t61 -51l9 62h102l-75 -517h-102zM394 167l22 151q8 56 -21.5 95.5t-85.5 39.5q-61 0 -108 -48t-60 -141t20.5 -147t97.5 -54q75 0 135 104z
M394.5 605q-34.5 -30 -78.5 -30t-69.5 30.5t-19.5 74.5q6 42 40.5 71.5t77.5 29.5q44 0 70 -30t20 -73t-40.5 -73zM372 716q-13 15 -35 15t-40 -15t-21 -38q-3 -21 10.5 -37.5t35.5 -16.5q21 0 39 16.5t21 37.5q3 23 -10 38z" />
    <glyph glyph-name="ae" unicode="&#xe6;" horiz-adv-x="921" 
d="M487.5 152.5q15.5 -39.5 48 -64t74.5 -24.5q52 0 88.5 21.5t75.5 62.5l62 -33q-94 -125 -248 -125q-70 0 -113.5 28.5t-72.5 71.5q-3 6 -7 0q-48 -46 -101.5 -73t-129.5 -27q-78 0 -116 39t-29 106q11 76 80.5 121t195.5 53l93 7l6 38q7 49 -18 76t-80 27q-81 0 -144 -82
l-83 26q41 62 100.5 94t142.5 32q135 0 164 -85q36 42 84 63.5t104 21.5q71 0 120.5 -34t70.5 -99.5t8 -155.5l-385 -1q-6 -45 9.5 -84.5zM546.5 415q-47.5 -43 -57.5 -114l282 -1q6 41 -6 77t-40.5 58.5t-69.5 22.5q-61 0 -108.5 -43zM303 250q-79 -6 -126.5 -33.5
t-54.5 -74.5q-5 -38 17 -60.5t67 -22.5q38 0 74 14.5t59.5 39t27.5 53.5l13 89z" />
    <glyph glyph-name="ccedilla" unicode="&#xe7;" horiz-adv-x="537" 
d="M435.5 484.5q44.5 -42.5 57.5 -113.5l-86 -13q-24 48 -44 68t-58 20q-67 0 -114 -50.5t-59 -137.5q-12 -88 20.5 -140t99.5 -52q42 0 73 24.5t60 69.5l81 -13q-33 -72 -92 -114.5t-137 -42.5q-71 0 -120.5 33.5t-71 94t-10.5 138.5q11 79 49.5 140.5t97.5 96t130 34.5
q79 0 123.5 -42.5zM278 -186q-35 -21 -81 -21q-60 0 -96 25l22 41q30 -24 67 -24q54 0 59 36q3 21 -15 31.5t-60 11.5q-10 0 -6 7l49 84h52l-33 -60q48 -2 67 -23.5t15 -50.5q-5 -36 -40 -57z" />
    <glyph glyph-name="egrave" unicode="&#xe8;" horiz-adv-x="558" 
d="M156 114.5q31 -46.5 99 -46.5q95 0 133 76l91 -10q-25 -66 -90 -105t-143 -39q-73 0 -125 31.5t-75 91.5t-11 140q11 81 48 143t96 96.5t133 34.5q109 0 159 -69t33 -188l-5 -36h-364q-10 -73 21 -119.5zM411 302q9 66 -19 107.5t-92 41.5q-43 0 -76.5 -21.5t-53.5 -55.5
t-26 -72h267zM452 635l-24 -50l-244 73l36 75z" />
    <glyph glyph-name="eacute" unicode="&#xe9;" horiz-adv-x="558" 
d="M156 114.5q31 -46.5 99 -46.5q95 0 133 76l91 -10q-25 -66 -90 -105t-143 -39q-73 0 -125 31.5t-75 91.5t-11 140q11 81 48 143t96 96.5t133 34.5q109 0 159 -69t33 -188l-5 -36h-364q-10 -73 21 -119.5zM411 302q9 66 -19 107.5t-92 41.5q-43 0 -76.5 -21.5t-53.5 -55.5
t-26 -72h267zM466 658l-264 -73l-10 50l260 98z" />
    <glyph glyph-name="ecircumflex" unicode="&#xea;" horiz-adv-x="558" 
d="M156 114.5q31 -46.5 99 -46.5q95 0 133 76l91 -10q-25 -66 -90 -105t-143 -39q-73 0 -125 31.5t-75 91.5t-11 140q11 81 48 143t96 96.5t133 34.5q109 0 159 -69t33 -188l-5 -36h-364q-10 -73 21 -119.5zM411 302q9 66 -19 107.5t-92 41.5q-43 0 -76.5 -21.5t-53.5 -55.5
t-26 -72h267zM332 677l-84 -68h-87l143 118h73l108 -118h-92z" />
    <glyph glyph-name="edieresis" unicode="&#xeb;" horiz-adv-x="558" 
d="M156 114.5q31 -46.5 99 -46.5q95 0 133 76l91 -10q-25 -66 -90 -105t-143 -39q-73 0 -125 31.5t-75 91.5t-11 140q11 81 48 143t96 96.5t133 34.5q109 0 159 -69t33 -188l-5 -36h-364q-10 -73 21 -119.5zM411 302q9 66 -19 107.5t-92 41.5q-43 0 -76.5 -21.5t-53.5 -55.5
t-26 -72h267zM292 610h-96l16 113h96zM452 610h-97l16 113h97z" />
    <glyph glyph-name="igrave" unicode="&#xec;" horiz-adv-x="255" 
d="M133 0h-103l73 517h103zM297 635l-24 -50l-244 73l36 75z" />
    <glyph glyph-name="iacute" unicode="&#xed;" horiz-adv-x="255" 
d="M133 0h-103l73 517h103zM311 658l-264 -73l-10 50l260 98z" />
    <glyph glyph-name="icircumflex" unicode="&#xee;" horiz-adv-x="255" 
d="M133 0h-103l73 517h103zM177 677l-84 -68h-87l143 118h73l108 -118h-92z" />
    <glyph glyph-name="idieresis" unicode="&#xef;" horiz-adv-x="255" 
d="M133 0h-103l73 517h103zM137 610h-96l16 113h96zM297 610h-97l16 113h97z" />
    <glyph glyph-name="eth" unicode="&#xf0;" 
d="M487.5 118q-39.5 -61 -101 -94.5t-138.5 -33.5q-73 0 -125.5 33t-76 91.5t-12.5 131.5q11 75 51 134.5t100.5 93t130.5 33.5q63 0 96 -38q-27 82 -104 140l-158 -82l-18 40l135 69q-40 25 -103 50l69 48q61 -21 119 -53l106 55l17 -41l-82 -43q92 -70 127.5 -170
t18.5 -222q-12 -81 -51.5 -142zM373.5 114q46.5 51 58.5 135q12 83 -21 135t-99 52t-113.5 -52t-59.5 -135t21.5 -134.5t100.5 -51.5q66 0 112.5 51z" />
    <glyph glyph-name="ntilde" unicode="&#xf1;" 
d="M103 517h100l-10 -71q64 78 171 78q50 0 88 -21.5t56.5 -63t10.5 -98.5l-48 -341h-103l46 330q7 52 -18 81.5t-74 29.5q-54 0 -94 -25t-47 -71l-48 -345h-103zM413 631q-30 0 -68 14q-14 5 -29.5 8.5t-29.5 3.5q-19 0 -31.5 -5t-32.5 -16q-4 -3 -8 -3t-6 8l-7 31
q-1 2 0 6q1 5 8 10q20 15 38.5 23.5t42.5 8.5q17 0 36 -4.5t35 -10.5q37 -13 60 -13q29 0 63 20q4 3 8 3q6 0 8 -8l5 -37l1 -4q-1 -5 -12 -12q-34 -23 -81 -23z" />
    <glyph glyph-name="ograve" unicode="&#xf2;" horiz-adv-x="568" 
d="M113.5 23.5q-49.5 33.5 -69.5 93.5t-9 138q11 80 49 141.5t97.5 96t131.5 34.5q74 0 122.5 -34.5t68.5 -96t9 -140.5q-11 -78 -48 -138.5t-95.5 -94t-132.5 -33.5t-123.5 33.5zM359.5 122q41.5 53 52.5 137q12 84 -14.5 136.5t-95.5 52.5t-111 -52.5t-54 -136.5
t15.5 -137t97.5 -53q68 0 109.5 53zM454 635l-24 -50l-244 73l36 75z" />
    <glyph glyph-name="oacute" unicode="&#xf3;" horiz-adv-x="568" 
d="M113.5 23.5q-49.5 33.5 -69.5 93.5t-9 138q11 80 49 141.5t97.5 96t131.5 34.5q74 0 122.5 -34.5t68.5 -96t9 -140.5q-11 -78 -48 -138.5t-95.5 -94t-132.5 -33.5t-123.5 33.5zM359.5 122q41.5 53 52.5 137q12 84 -14.5 136.5t-95.5 52.5t-111 -52.5t-54 -136.5
t15.5 -137t97.5 -53q68 0 109.5 53zM468 658l-264 -73l-10 50l260 98z" />
    <glyph glyph-name="ocircumflex" unicode="&#xf4;" horiz-adv-x="568" 
d="M113.5 23.5q-49.5 33.5 -69.5 93.5t-9 138q11 80 49 141.5t97.5 96t131.5 34.5q74 0 122.5 -34.5t68.5 -96t9 -140.5q-11 -78 -48 -138.5t-95.5 -94t-132.5 -33.5t-123.5 33.5zM359.5 122q41.5 53 52.5 137q12 84 -14.5 136.5t-95.5 52.5t-111 -52.5t-54 -136.5
t15.5 -137t97.5 -53q68 0 109.5 53zM334 677l-84 -68h-87l143 118h73l108 -118h-92z" />
    <glyph glyph-name="otilde" unicode="&#xf5;" horiz-adv-x="568" 
d="M113.5 23.5q-49.5 33.5 -69.5 93.5t-9 138q11 80 49 141.5t97.5 96t131.5 34.5q74 0 122.5 -34.5t68.5 -96t9 -140.5q-11 -78 -48 -138.5t-95.5 -94t-132.5 -33.5t-123.5 33.5zM359.5 122q41.5 53 52.5 137q12 84 -14.5 136.5t-95.5 52.5t-111 -52.5t-54 -136.5
t15.5 -137t97.5 -53q68 0 109.5 53zM396 631q-30 0 -68 14q-14 5 -29.5 8.5t-29.5 3.5q-19 0 -31.5 -5t-32.5 -16q-4 -3 -8 -3t-6 8l-7 31q-1 2 0 6q1 5 8 10q20 15 38.5 23.5t42.5 8.5q17 0 36 -4.5t35 -10.5q37 -13 60 -13q29 0 63 20q4 3 8 3q6 0 8 -8l5 -37l1 -4
q-1 -5 -12 -12q-34 -23 -81 -23z" />
    <glyph glyph-name="odieresis" unicode="&#xf6;" horiz-adv-x="568" 
d="M113.5 23.5q-49.5 33.5 -69.5 93.5t-9 138q11 80 49 141.5t97.5 96t131.5 34.5q74 0 122.5 -34.5t68.5 -96t9 -140.5q-11 -78 -48 -138.5t-95.5 -94t-132.5 -33.5t-123.5 33.5zM359.5 122q41.5 53 52.5 137q12 84 -14.5 136.5t-95.5 52.5t-111 -52.5t-54 -136.5
t15.5 -137t97.5 -53q68 0 109.5 53zM294 610h-96l16 113h96zM454 610h-97l16 113h97z" />
    <glyph glyph-name="divide" unicode="&#xf7;" horiz-adv-x="562" 
d="M363 484h-123l17 119h123zM498 325l-439 -1l10 78l440 1zM313 125h-123l16 118h123z" />
    <glyph glyph-name="oslash" unicode="&#xf8;" horiz-adv-x="582" 
d="M502 412q27 -67 14 -156q-11 -78 -48 -138.5t-95.5 -94t-132.5 -33.5q-103 0 -159 65l-72 -61l-34 42l78 66q-28 65 -15 153q11 80 49 141.5t97.5 96t131.5 34.5q105 0 159 -68l73 62l33 -41zM140 175l261 221q-30 52 -96 52q-69 0 -111 -52.5t-54 -136.5q-6 -50 0 -84z
M417 340l-260 -220q30 -51 96 -51q68 0 109.5 53t52.5 137q7 47 2 81z" />
    <glyph glyph-name="ugrave" unicode="&#xf9;" 
d="M135.5 9.5q-42.5 18.5 -66.5 57.5t-16 98l50 353h103l-48 -342q-8 -54 23 -80.5t77 -26.5q50 0 88.5 29.5t46.5 82.5l48 337h103l-75 -517h-80l6 78q-23 -36 -72.5 -62t-97.5 -26q-47 0 -89.5 18.5zM457 635l-24 -50l-244 73l36 75z" />
    <glyph glyph-name="uacute" unicode="&#xfa;" 
d="M135.5 9.5q-42.5 18.5 -66.5 57.5t-16 98l50 353h103l-48 -342q-8 -54 23 -80.5t77 -26.5q50 0 88.5 29.5t46.5 82.5l48 337h103l-75 -517h-80l6 78q-23 -36 -72.5 -62t-97.5 -26q-47 0 -89.5 18.5zM471 658l-264 -73l-10 50l260 98z" />
    <glyph glyph-name="ucircumflex" unicode="&#xfb;" 
d="M135.5 9.5q-42.5 18.5 -66.5 57.5t-16 98l50 353h103l-48 -342q-8 -54 23 -80.5t77 -26.5q50 0 88.5 29.5t46.5 82.5l48 337h103l-75 -517h-80l6 78q-23 -36 -72.5 -62t-97.5 -26q-47 0 -89.5 18.5zM337 677l-84 -68h-87l143 118h73l108 -118h-92z" />
    <glyph glyph-name="udieresis" unicode="&#xfc;" 
d="M135.5 9.5q-42.5 18.5 -66.5 57.5t-16 98l50 353h103l-48 -342q-8 -54 23 -80.5t77 -26.5q50 0 88.5 29.5t46.5 82.5l48 337h103l-75 -517h-80l6 78q-23 -36 -72.5 -62t-97.5 -26q-47 0 -89.5 18.5zM297 610h-96l16 113h96zM457 610h-97l16 113h97z" />
    <glyph glyph-name="yacute" unicode="&#xfd;" horiz-adv-x="537" 
d="M14.5 -162q-17.5 3 -25.5 6.5t-10 4.5l9 66l53 -2q52 -2 76 14t39 42l22 45l-131 503h103l92 -388l202 388h100l-293 -549q-42 -75 -87 -104t-104 -29q-28 0 -45.5 3zM462 658l-264 -73l-10 50l260 98z" />
    <glyph glyph-name="thorn" unicode="&#xfe;" horiz-adv-x="595" 
d="M195 447q37 35 75 57.5t98 22.5t103.5 -29t62.5 -88t7 -145q-12 -88 -48 -149.5t-90 -93.5t-119 -32q-80 0 -131 49q-6 7 -10 7t-5 -13l-28 -194h-103l125 884h102zM261 60q67 0 114.5 52t61.5 153q14 98 -19 145t-97 47q-35 0 -65.5 -15.5t-50 -39t-22.5 -47.5l-33 -235
q48 -60 111 -60z" />
    <glyph glyph-name="ydieresis" unicode="&#xff;" horiz-adv-x="537" 
d="M14.5 -162q-17.5 3 -25.5 6.5t-10 4.5l9 66l53 -2q52 -2 76 14t39 42l22 45l-131 503h103l92 -388l202 388h100l-293 -549q-42 -75 -87 -104t-104 -29q-28 0 -45.5 3zM288 610h-96l16 113h96zM448 610h-97l16 113h97z" />
    <glyph glyph-name="Amacron" unicode="&#x100;" horiz-adv-x="700" 
d="M350 723h113l159 -723h-103l-42 192h-289l-98 -192h-103zM463 285l-70 338l-167 -338h237zM583 847h-308l10 71h308z" />
    <glyph glyph-name="amacron" unicode="&#x101;" horiz-adv-x="562" 
d="M370 0l8 49q-41 -31 -78.5 -45t-78.5 -14q-66 0 -111.5 32t-65.5 94t-8 149q12 86 49 144.5t89 88t113 29.5q55 0 88 -21t61 -51l9 62h102l-75 -517h-102zM394 167l22 151q8 56 -21.5 95.5t-85.5 39.5q-61 0 -108 -48t-60 -141t20.5 -147t97.5 -54q75 0 135 104zM479 641
h-308l10 71h308z" />
    <glyph glyph-name="Abreve" unicode="&#x102;" horiz-adv-x="700" 
d="M350 723h113l159 -723h-103l-42 192h-289l-98 -192h-103zM463 285l-70 338l-167 -338h237zM530.5 849q-46.5 -32 -105.5 -32q-60 0 -96.5 31t-42.5 81h70q24 -53 77 -53q28 0 52.5 15.5t39.5 37.5h72q-20 -48 -66.5 -80z" />
    <glyph glyph-name="abreve" unicode="&#x103;" horiz-adv-x="562" 
d="M370 0l8 49q-41 -31 -78.5 -45t-78.5 -14q-66 0 -111.5 32t-65.5 94t-8 149q12 86 49 144.5t89 88t113 29.5q55 0 88 -21t61 -51l9 62h102l-75 -517h-102zM394 167l22 151q8 56 -21.5 95.5t-85.5 39.5q-61 0 -108 -48t-60 -141t20.5 -147t97.5 -54q75 0 135 104z
M426.5 643q-46.5 -32 -105.5 -32q-60 0 -96.5 31t-42.5 81h70q24 -53 77 -53q28 0 52.5 15.5t39.5 37.5h72q-20 -48 -66.5 -80z" />
    <glyph glyph-name="Aogonek" unicode="&#x104;" horiz-adv-x="700" 
d="M350 723h113l159 -723h-103l-42 192h-289l-98 -192h-103zM463 285l-70 338l-167 -338h237zM471.5 -33q25.5 23 84.5 41l74 -5q-55 -21 -79.5 -39.5t-27.5 -41.5q-3 -18 6.5 -27t32.5 -9q32 0 62 14q3 2 7 2q5 0 4 -8l-4 -32q-1 -8 -9 -12q-14 -7 -39 -12t-51 -5
q-49 0 -72 21t-18 58q4 32 29.5 55z" />
    <glyph glyph-name="aogonek" unicode="&#x105;" horiz-adv-x="562" 
d="M370 0l8 49q-41 -31 -78.5 -45t-78.5 -14q-66 0 -111.5 32t-65.5 94t-8 149q12 86 49 144.5t89 88t113 29.5q55 0 88 -21t61 -51l9 62h102l-75 -517h-102zM394 167l22 151q8 56 -21.5 95.5t-85.5 39.5q-61 0 -108 -48t-60 -141t20.5 -147t97.5 -54q75 0 135 104z
M279.5 -31q25.5 23 84.5 41l74 -5q-55 -21 -79.5 -39.5t-27.5 -41.5q-3 -18 6.5 -27t32.5 -9q32 0 62 14q3 2 7 2q5 0 4 -8l-4 -32q-1 -8 -9 -12q-14 -7 -39 -12t-51 -5q-49 0 -72 21t-18 58q4 32 29.5 55z" />
    <glyph glyph-name="Cacute" unicode="&#x106;" horiz-adv-x="689" 
d="M549.5 703.5q57.5 -29.5 86.5 -81t27 -114.5l-108 -4q-3 65 -41.5 103t-111.5 38q-95 0 -154.5 -70t-79.5 -212t20 -213.5t138 -71.5q64 0 114.5 38.5t73.5 102.5l106 -7q-17 -63 -57.5 -113t-103.5 -79.5t-143 -29.5q-97 0 -161.5 45.5t-90 130t-9.5 198.5t64.5 197
t124 127.5t171.5 44.5q77 0 134.5 -29.5zM574 864l-264 -73l-10 50l260 98z" />
    <glyph glyph-name="cacute" unicode="&#x107;" horiz-adv-x="537" 
d="M435.5 484.5q44.5 -42.5 57.5 -113.5l-86 -13q-24 48 -44 68t-58 20q-67 0 -114 -50.5t-59 -137.5q-12 -88 20.5 -140t99.5 -52q42 0 73 24.5t60 69.5l81 -13q-33 -72 -92 -114.5t-137 -42.5q-71 0 -120.5 33.5t-71 94t-10.5 138.5q11 79 49.5 140.5t97.5 96t130 34.5
q79 0 123.5 -42.5zM466 658l-264 -73l-10 50l260 98z" />
    <glyph glyph-name="Ccircumflex" unicode="&#x108;" horiz-adv-x="689" 
d="M549.5 703.5q57.5 -29.5 86.5 -81t27 -114.5l-108 -4q-3 65 -41.5 103t-111.5 38q-95 0 -154.5 -70t-79.5 -212t20 -213.5t138 -71.5q64 0 114.5 38.5t73.5 102.5l106 -7q-17 -63 -57.5 -113t-103.5 -79.5t-143 -29.5q-97 0 -161.5 45.5t-90 130t-9.5 198.5t64.5 197
t124 127.5t171.5 44.5q77 0 134.5 -29.5zM440 883l-84 -68h-87l143 118h73l108 -118h-92z" />
    <glyph glyph-name="ccircumflex" unicode="&#x109;" horiz-adv-x="537" 
d="M435.5 484.5q44.5 -42.5 57.5 -113.5l-86 -13q-24 48 -44 68t-58 20q-67 0 -114 -50.5t-59 -137.5q-12 -88 20.5 -140t99.5 -52q42 0 73 24.5t60 69.5l81 -13q-33 -72 -92 -114.5t-137 -42.5q-71 0 -120.5 33.5t-71 94t-10.5 138.5q11 79 49.5 140.5t97.5 96t130 34.5
q79 0 123.5 -42.5zM332 677l-84 -68h-87l143 118h73l108 -118h-92z" />
    <glyph glyph-name="Cdotaccent" unicode="&#x10a;" horiz-adv-x="689" 
d="M549.5 703.5q57.5 -29.5 86.5 -81t27 -114.5l-108 -4q-3 65 -41.5 103t-111.5 38q-95 0 -154.5 -70t-79.5 -212t20 -213.5t138 -71.5q64 0 114.5 38.5t73.5 102.5l106 -7q-17 -63 -57.5 -113t-103.5 -79.5t-143 -29.5q-97 0 -161.5 45.5t-90 130t-9.5 198.5t64.5 197
t124 127.5t171.5 44.5q77 0 134.5 -29.5zM485 806h-108l18 123h108z" />
    <glyph glyph-name="cdotaccent" unicode="&#x10b;" horiz-adv-x="537" 
d="M435.5 484.5q44.5 -42.5 57.5 -113.5l-86 -13q-24 48 -44 68t-58 20q-67 0 -114 -50.5t-59 -137.5q-12 -88 20.5 -140t99.5 -52q42 0 73 24.5t60 69.5l81 -13q-33 -72 -92 -114.5t-137 -42.5q-71 0 -120.5 33.5t-71 94t-10.5 138.5q11 79 49.5 140.5t97.5 96t130 34.5
q79 0 123.5 -42.5zM377 600h-108l18 123h108z" />
    <glyph glyph-name="Ccaron" unicode="&#x10c;" horiz-adv-x="689" 
d="M549.5 703.5q57.5 -29.5 86.5 -81t27 -114.5l-108 -4q-3 65 -41.5 103t-111.5 38q-95 0 -154.5 -70t-79.5 -212t20 -213.5t138 -71.5q64 0 114.5 38.5t73.5 102.5l106 -7q-17 -63 -57.5 -113t-103.5 -79.5t-143 -29.5q-97 0 -161.5 45.5t-90 130t-9.5 198.5t64.5 197
t124 127.5t171.5 44.5q77 0 134.5 -29.5zM609 929l-141 -119h-73l-110 119h87l65 -69l80 69h92z" />
    <glyph glyph-name="ccaron" unicode="&#x10d;" horiz-adv-x="537" 
d="M435.5 484.5q44.5 -42.5 57.5 -113.5l-86 -13q-24 48 -44 68t-58 20q-67 0 -114 -50.5t-59 -137.5q-12 -88 20.5 -140t99.5 -52q42 0 73 24.5t60 69.5l81 -13q-33 -72 -92 -114.5t-137 -42.5q-71 0 -120.5 33.5t-71 94t-10.5 138.5q11 79 49.5 140.5t97.5 96t130 34.5
q79 0 123.5 -42.5zM501 723l-141 -119h-73l-110 119h87l65 -69l80 69h92z" />
    <glyph glyph-name="Dcaron" unicode="&#x10e;" horiz-adv-x="693" 
d="M322 722q195 -3 273 -92.5t53 -263.5q-51 -366 -435 -366h-168l102 723q114 0 175 -1zM161 87h64q134 0 215 65.5t101 212.5q21 146 -39 209t-195 63h-68zM588 929l-141 -119h-73l-110 119h87l65 -69l80 69h92z" />
    <glyph glyph-name="dcaron" unicode="&#x10f;" horiz-adv-x="589" 
d="M65 59q-48 69 -30 195q18 125 84.5 199t167.5 74q89 0 142 -66l39 282h103l-104 -743h-78l3 73q-26 -31 -71.5 -57t-107.5 -26q-100 0 -148 69zM313 85q32 18 53 48t26 63l23 166q-29 87 -112 87q-65 0 -109.5 -48.5t-57.5 -143.5q-13 -96 17.5 -143t91.5 -47q36 0 68 18
zM530.5 444q-1.5 3 -0.5 7l40 71l3 8q1 5 -6 6l-8 1q-6 1 -8 3t-1 8l11 81q1 10 11 10h63q8 0 6 -8l-13 -94l-2 -6l-45 -80q-3 -6 -7.5 -8t-13.5 -2h-24q-4 0 -5.5 3z" />
    <glyph glyph-name="Dcroat" unicode="&#x110;" horiz-adv-x="705" 
d="M608 629.5q78 -89.5 53 -263.5q-51 -366 -435 -366h-168l45 320h-55q-9 0 -12.5 4t-2.5 12l7 50q2 14 14 14h60l46 323q115 0 175 -1q195 -3 273 -92.5zM453 152.5q81 65.5 101 212.5q21 146 -39 209t-195 63h-68l-34 -237h153q11 0 10 -12l-7 -50q-1 -10 -7 -14t-17 -4
h-143l-33 -233h64q134 0 215 65.5z" />
    <glyph glyph-name="dcroat" unicode="&#x111;" horiz-adv-x="602" 
d="M612 593h-62l-83 -593h-78l3 73q-26 -31 -71.5 -57t-107.5 -26q-100 0 -148 69t-30 195q18 125 84.5 199t167.5 74q89 0 142 -66l18 132h-149l9 62h149l12 88h103l-12 -88h62zM415 362q-29 87 -112 87q-65 0 -109.5 -48.5t-57.5 -143.5q-13 -96 17.5 -143t91.5 -47
q36 0 68 18t53 48t26 63z" />
    <glyph glyph-name="Emacron" unicode="&#x112;" horiz-adv-x="625" 
d="M147 723h463l-14 -89h-360l-32 -225h323l-12 -88h-323l-32 -230l370 -1l-13 -90h-472zM558 847h-308l10 71h308z" />
    <glyph glyph-name="emacron" unicode="&#x113;" horiz-adv-x="558" 
d="M156 114.5q31 -46.5 99 -46.5q95 0 133 76l91 -10q-25 -66 -90 -105t-143 -39q-73 0 -125 31.5t-75 91.5t-11 140q11 81 48 143t96 96.5t133 34.5q109 0 159 -69t33 -188l-5 -36h-364q-10 -73 21 -119.5zM411 302q9 66 -19 107.5t-92 41.5q-43 0 -76.5 -21.5t-53.5 -55.5
t-26 -72h267zM482 641h-308l10 71h308z" />
    <glyph glyph-name="Ebreve" unicode="&#x114;" horiz-adv-x="625" 
d="M147 723h463l-14 -89h-360l-32 -225h323l-12 -88h-323l-32 -230l370 -1l-13 -90h-472zM505.5 849q-46.5 -32 -105.5 -32q-60 0 -96.5 31t-42.5 81h70q24 -53 77 -53q28 0 52.5 15.5t39.5 37.5h72q-20 -48 -66.5 -80z" />
    <glyph glyph-name="ebreve" unicode="&#x115;" horiz-adv-x="558" 
d="M156 114.5q31 -46.5 99 -46.5q95 0 133 76l91 -10q-25 -66 -90 -105t-143 -39q-73 0 -125 31.5t-75 91.5t-11 140q11 81 48 143t96 96.5t133 34.5q109 0 159 -69t33 -188l-5 -36h-364q-10 -73 21 -119.5zM411 302q9 66 -19 107.5t-92 41.5q-43 0 -76.5 -21.5t-53.5 -55.5
t-26 -72h267zM429.5 643q-46.5 -32 -105.5 -32q-60 0 -96.5 31t-42.5 81h70q24 -53 77 -53q28 0 52.5 15.5t39.5 37.5h72q-20 -48 -66.5 -80z" />
    <glyph glyph-name="Edotaccent" unicode="&#x116;" horiz-adv-x="625" 
d="M147 723h463l-14 -89h-360l-32 -225h323l-12 -88h-323l-32 -230l370 -1l-13 -90h-472zM453 806h-108l18 123h108z" />
    <glyph glyph-name="edotaccent" unicode="&#x117;" horiz-adv-x="558" 
d="M156 114.5q31 -46.5 99 -46.5q95 0 133 76l91 -10q-25 -66 -90 -105t-143 -39q-73 0 -125 31.5t-75 91.5t-11 140q11 81 48 143t96 96.5t133 34.5q109 0 159 -69t33 -188l-5 -36h-364q-10 -73 21 -119.5zM411 302q9 66 -19 107.5t-92 41.5q-43 0 -76.5 -21.5t-53.5 -55.5
t-26 -72h267zM377 600h-108l18 123h108z" />
    <glyph glyph-name="Eogonek" unicode="&#x118;" horiz-adv-x="625" 
d="M147 723h463l-14 -89h-360l-32 -225h323l-12 -88h-323l-32 -230l370 -1l-13 -90h-472zM365.5 -33q25.5 23 84.5 41l74 -5q-55 -21 -79.5 -39.5t-27.5 -41.5q-3 -18 6.5 -27t32.5 -9q32 0 62 14q3 2 7 2q5 0 4 -8l-4 -32q-1 -8 -9 -12q-14 -7 -39 -12t-51 -5q-49 0 -72 21
t-18 58q4 32 29.5 55z" />
    <glyph glyph-name="eogonek" unicode="&#x119;" horiz-adv-x="558" 
d="M156 114.5q31 -46.5 99 -46.5q95 0 133 76l91 -10q-25 -66 -90 -105t-143 -39q-73 0 -125 31.5t-75 91.5t-11 140q11 81 48 143t96 96.5t133 34.5q109 0 159 -69t33 -188l-5 -36h-364q-10 -73 21 -119.5zM411 302q9 66 -19 107.5t-92 41.5q-43 0 -76.5 -21.5t-53.5 -55.5
t-26 -72h267zM201.5 -22q25.5 23 84.5 41l74 -5q-55 -21 -79.5 -39.5t-27.5 -41.5q-3 -18 6.5 -27t32.5 -9q32 0 62 14q3 2 7 2q5 0 4 -8l-4 -32q-1 -8 -9 -12q-14 -7 -39 -12t-51 -5q-49 0 -72 21t-18 58q4 32 29.5 55z" />
    <glyph glyph-name="Ecaron" unicode="&#x11a;" horiz-adv-x="625" 
d="M147 723h463l-14 -89h-360l-32 -225h323l-12 -88h-323l-32 -230l370 -1l-13 -90h-472zM577 929l-141 -119h-73l-110 119h87l65 -69l80 69h92z" />
    <glyph glyph-name="ecaron" unicode="&#x11b;" horiz-adv-x="558" 
d="M156 114.5q31 -46.5 99 -46.5q95 0 133 76l91 -10q-25 -66 -90 -105t-143 -39q-73 0 -125 31.5t-75 91.5t-11 140q11 81 48 143t96 96.5t133 34.5q109 0 159 -69t33 -188l-5 -36h-364q-10 -73 21 -119.5zM411 302q9 66 -19 107.5t-92 41.5q-43 0 -76.5 -21.5t-53.5 -55.5
t-26 -72h267zM501 723l-141 -119h-73l-110 119h87l65 -69l80 69h92z" />
    <glyph glyph-name="Gcircumflex" unicode="&#x11c;" horiz-adv-x="732" 
d="M154 35q-64 45 -89.5 128t-10.5 196q16 115 67 199.5t129 129.5t173 45q73 0 130.5 -31t88 -82.5t25.5 -109.5l-110 -5q-4 60 -44 99t-105 39q-95 0 -159 -71t-83 -207q-20 -144 26 -213.5t141 -69.5q54 0 95.5 24t68 60.5t34.5 73.5l11 61h-171l11 74l278 -1l-53 -374
h-76l15 107q-88 -117 -233 -117q-95 0 -159 45zM439 883l-84 -68h-87l143 118h73l108 -118h-92z" />
    <glyph glyph-name="gcircumflex" unicode="&#x11d;" horiz-adv-x="609" 
d="M36 -134.5q-63 36.5 -54 97.5q6 40 34.5 63t51.5 33.5t27 13.5q-3 2 -17 10.5t-22.5 23t-5.5 33.5q4 26 31 46.5t73 30.5q-91 48 -77 145q11 76 80.5 119.5t171.5 43.5q49 0 82 -11t61 -33q23 10 64 25l78 31l-12 -91l-93 -17q4 -14 6.5 -34t0.5 -33q-6 -45 -36 -82.5
t-82.5 -60t-123.5 -22.5l-35 1q-45 -1 -66.5 -10t-23.5 -22q-2 -14 18 -19t75 -9l111 -7q86 -5 123.5 -42.5t29.5 -98.5q-11 -75 -84.5 -118t-196.5 -43q-126 0 -189 36.5zM377 286.5q34 25.5 41 73.5q7 49 -20.5 76.5t-83.5 27.5t-92 -28t-42 -76q-7 -47 21 -73t85 -26
t91 25.5zM361.5 -88q36.5 20 42.5 62q9 64 -81 70l-139 9q-20 1 -42 -9t-38 -28.5t-20 -40.5q-12 -83 168 -83q73 0 109.5 20zM347 677l-84 -68h-87l143 118h73l108 -118h-92z" />
    <glyph glyph-name="Gbreve" unicode="&#x11e;" horiz-adv-x="732" 
d="M154 35q-64 45 -89.5 128t-10.5 196q16 115 67 199.5t129 129.5t173 45q73 0 130.5 -31t88 -82.5t25.5 -109.5l-110 -5q-4 60 -44 99t-105 39q-95 0 -159 -71t-83 -207q-20 -144 26 -213.5t141 -69.5q54 0 95.5 24t68 60.5t34.5 73.5l11 61h-171l11 74l278 -1l-53 -374
h-76l15 107q-88 -117 -233 -117q-95 0 -159 45zM536.5 849q-46.5 -32 -105.5 -32q-60 0 -96.5 31t-42.5 81h70q24 -53 77 -53q28 0 52.5 15.5t39.5 37.5h72q-20 -48 -66.5 -80z" />
    <glyph glyph-name="gbreve" unicode="&#x11f;" horiz-adv-x="609" 
d="M36 -134.5q-63 36.5 -54 97.5q6 40 34.5 63t51.5 33.5t27 13.5q-3 2 -17 10.5t-22.5 23t-5.5 33.5q4 26 31 46.5t73 30.5q-91 48 -77 145q11 76 80.5 119.5t171.5 43.5q49 0 82 -11t61 -33q23 10 64 25l78 31l-12 -91l-93 -17q4 -14 6.5 -34t0.5 -33q-6 -45 -36 -82.5
t-82.5 -60t-123.5 -22.5l-35 1q-45 -1 -66.5 -10t-23.5 -22q-2 -14 18 -19t75 -9l111 -7q86 -5 123.5 -42.5t29.5 -98.5q-11 -75 -84.5 -118t-196.5 -43q-126 0 -189 36.5zM377 286.5q34 25.5 41 73.5q7 49 -20.5 76.5t-83.5 27.5t-92 -28t-42 -76q-7 -47 21 -73t85 -26
t91 25.5zM361.5 -88q36.5 20 42.5 62q9 64 -81 70l-139 9q-20 1 -42 -9t-38 -28.5t-20 -40.5q-12 -83 168 -83q73 0 109.5 20zM444.5 643q-46.5 -32 -105.5 -32q-60 0 -96.5 31t-42.5 81h70q24 -53 77 -53q28 0 52.5 15.5t39.5 37.5h72q-20 -48 -66.5 -80z" />
    <glyph glyph-name="Gdotaccent" unicode="&#x120;" horiz-adv-x="732" 
d="M154 35q-64 45 -89.5 128t-10.5 196q16 115 67 199.5t129 129.5t173 45q73 0 130.5 -31t88 -82.5t25.5 -109.5l-110 -5q-4 60 -44 99t-105 39q-95 0 -159 -71t-83 -207q-20 -144 26 -213.5t141 -69.5q54 0 95.5 24t68 60.5t34.5 73.5l11 61h-171l11 74l278 -1l-53 -374
h-76l15 107q-88 -117 -233 -117q-95 0 -159 45zM484 806h-108l18 123h108z" />
    <glyph glyph-name="gdotaccent" unicode="&#x121;" horiz-adv-x="609" 
d="M36 -134.5q-63 36.5 -54 97.5q6 40 34.5 63t51.5 33.5t27 13.5q-3 2 -17 10.5t-22.5 23t-5.5 33.5q4 26 31 46.5t73 30.5q-91 48 -77 145q11 76 80.5 119.5t171.5 43.5q49 0 82 -11t61 -33q23 10 64 25l78 31l-12 -91l-93 -17q4 -14 6.5 -34t0.5 -33q-6 -45 -36 -82.5
t-82.5 -60t-123.5 -22.5l-35 1q-45 -1 -66.5 -10t-23.5 -22q-2 -14 18 -19t75 -9l111 -7q86 -5 123.5 -42.5t29.5 -98.5q-11 -75 -84.5 -118t-196.5 -43q-126 0 -189 36.5zM377 286.5q34 25.5 41 73.5q7 49 -20.5 76.5t-83.5 27.5t-92 -28t-42 -76q-7 -47 21 -73t85 -26
t91 25.5zM361.5 -88q36.5 20 42.5 62q9 64 -81 70l-139 9q-20 1 -42 -9t-38 -28.5t-20 -40.5q-12 -83 168 -83q73 0 109.5 20zM392 600h-108l18 123h108z" />
    <glyph glyph-name="Gcommaaccent" unicode="&#x122;" horiz-adv-x="732" 
d="M154 35q-64 45 -89.5 128t-10.5 196q16 115 67 199.5t129 129.5t173 45q73 0 130.5 -31t88 -82.5t25.5 -109.5l-110 -5q-4 60 -44 99t-105 39q-95 0 -159 -71t-83 -207q-20 -144 26 -213.5t141 -69.5q54 0 95.5 24t68 60.5t34.5 73.5l11 61h-171l11 74l278 -1l-53 -374
h-76l15 107q-88 -117 -233 -117q-95 0 -159 45zM246 -230q-2 4 1 9l35 49q4 4 4 8q0 3 -2 5.5t-6 2.5h-8q-14 0 -12 14l9 63q2 12 13 12h63q10 0 8 -10l-11 -79q-1 -5 -3 -9l-48 -60q-5 -5 -9 -7t-13 -2h-14q-5 0 -7 4z" />
    <glyph glyph-name="gcommaaccent" unicode="&#x123;" horiz-adv-x="609" 
d="M290 697l58 73h45l-58 -78h39l-12 -89h-85zM36 -134.5q-63 36.5 -54 97.5q6 40 34.5 63t51.5 33.5t27 13.5q-3 2 -17 10.5t-22.5 23t-5.5 33.5q4 26 31 46.5t73 30.5q-91 48 -77 145q11 76 80.5 119.5t171.5 43.5q49 0 82 -11t61 -33q23 10 64 25l78 31l-12 -91l-93 -17
q4 -14 6.5 -34t0.5 -33q-6 -45 -36 -82.5t-82.5 -60t-123.5 -22.5l-35 1q-45 -1 -66.5 -10t-23.5 -22q-2 -14 18 -19t75 -9l111 -7q86 -5 123.5 -42.5t29.5 -98.5q-11 -75 -84.5 -118t-196.5 -43q-126 0 -189 36.5zM377 286.5q34 25.5 41 73.5q7 49 -20.5 76.5t-83.5 27.5
t-92 -28t-42 -76q-7 -47 21 -73t85 -26t91 25.5zM361.5 -88q36.5 20 42.5 62q9 64 -81 70l-139 9q-20 1 -42 -9t-38 -28.5t-20 -40.5q-12 -83 168 -83q73 0 109.5 20z" />
    <glyph glyph-name="Hcircumflex" unicode="&#x124;" horiz-adv-x="712" 
d="M193 329l-46 -329h-102l102 723h102l-43 -305h326l43 305h102l-102 -723h-102l46 329h-326zM432 883l-84 -68h-87l143 118h73l108 -118h-92z" />
    <glyph glyph-name="hcircumflex" unicode="&#x125;" 
d="M134 743h100l-41 -298q41 30 65 45t53 24t66 9q75 0 114.5 -43t30.5 -112l-52 -368h-102l49 350q6 43 -15.5 67t-67.5 24q-38 0 -72.5 -18t-76.5 -55l-52 -368h-103zM419 677l-84 -68h-87l143 118h73l108 -118h-92z" />
    <glyph glyph-name="Hbar" unicode="&#x126;" horiz-adv-x="735" 
d="M764 607l-5 -37q-1 -8 -5.5 -11.5t-14.5 -3.5h-72l-78 -555h-102l46 329h-326l-46 -329h-102l78 555h-85q-8 0 -10.5 3t-1.5 11l5 36q2 14 12 14h89l15 104h102l-15 -104h326l15 104h102l-15 -104h80q10 0 8 -12zM565 555h-326l-19 -137h326z" />
    <glyph glyph-name="hbar" unicode="&#x127;" horiz-adv-x="599" 
d="M497.5 480q39.5 -43 30.5 -112l-52 -368h-102l49 350q6 43 -15.5 67t-67.5 24q-38 0 -72.5 -18t-76.5 -55l-52 -368h-103l83 593h-67l9 62h67l12 88h100l-12 -88h147l-9 -62h-147l-20 -148q41 30 65 45t53 24t66 9q75 0 114.5 -43z" />
    <glyph glyph-name="Itilde" unicode="&#x128;" horiz-adv-x="283" 
d="M249 723l-102 -723h-102l102 723h102zM284 837q-30 0 -68 14q-14 5 -29.5 8.5t-29.5 3.5q-19 0 -31.5 -5t-32.5 -16q-4 -3 -8 -3t-6 8l-7 31q-1 2 0 6q1 5 8 10q20 15 38.5 23.5t42.5 8.5q17 0 36 -4.5t35 -10.5q37 -13 60 -13q29 0 63 20q4 3 8 3q6 0 8 -8l5 -37l1 -4
q-1 -5 -12 -12q-34 -23 -81 -23z" />
    <glyph glyph-name="itilde" unicode="&#x129;" horiz-adv-x="255" 
d="M133 0h-103l73 517h103zM239 631q-30 0 -68 14q-14 5 -29.5 8.5t-29.5 3.5q-19 0 -31.5 -5t-32.5 -16q-4 -3 -8 -3t-6 8l-7 31q-1 2 0 6q1 5 8 10q20 15 38.5 23.5t42.5 8.5q17 0 36 -4.5t35 -10.5q37 -13 60 -13q29 0 63 20q4 3 8 3q6 0 8 -8l5 -37l1 -4q-1 -5 -12 -12
q-34 -23 -81 -23z" />
    <glyph glyph-name="Imacron" unicode="&#x12a;" horiz-adv-x="283" 
d="M249 723l-102 -723h-102l102 723h102zM372 847h-308l10 71h308z" />
    <glyph glyph-name="imacron" unicode="&#x12b;" horiz-adv-x="255" 
d="M133 0h-103l73 517h103zM327 641h-308l10 71h308z" />
    <glyph glyph-name="Ibreve" unicode="&#x12c;" horiz-adv-x="283" 
d="M249 723l-102 -723h-102l102 723h102zM319.5 849q-46.5 -32 -105.5 -32q-60 0 -96.5 31t-42.5 81h70q24 -53 77 -53q28 0 52.5 15.5t39.5 37.5h72q-20 -48 -66.5 -80z" />
    <glyph glyph-name="ibreve" unicode="&#x12d;" horiz-adv-x="255" 
d="M133 0h-103l73 517h103zM274.5 643q-46.5 -32 -105.5 -32q-60 0 -96.5 31t-42.5 81h70q24 -53 77 -53q28 0 52.5 15.5t39.5 37.5h72q-20 -48 -66.5 -80z" />
    <glyph glyph-name="Iogonek" unicode="&#x12e;" horiz-adv-x="283" 
d="M249 723l-102 -723h-102l102 723h102zM-13.5 -36q25.5 23 84.5 41l74 -5q-55 -21 -79.5 -39.5t-27.5 -41.5q-3 -18 6.5 -27t32.5 -9q32 0 62 14q3 2 7 2q5 0 4 -8l-4 -32q-1 -8 -9 -12q-14 -7 -39 -12t-51 -5q-49 0 -72 21t-18 58q4 32 29.5 55z" />
    <glyph glyph-name="iogonek" unicode="&#x12f;" horiz-adv-x="255" 
d="M133 0h-103l73 517h103zM222 600h-108l18 123h108zM-29.5 -32q25.5 23 84.5 41l74 -5q-55 -21 -79.5 -39.5t-27.5 -41.5q-3 -18 6.5 -27t32.5 -9q32 0 62 14q3 2 7 2q5 0 4 -8l-4 -32q-1 -8 -9 -12q-14 -7 -39 -12t-51 -5q-49 0 -72 21t-18 58q4 32 29.5 55z" />
    <glyph glyph-name="Idotaccent" unicode="&#x130;" horiz-adv-x="283" 
d="M249 723l-102 -723h-102l102 723h102zM267 806h-108l18 123h108z" />
    <glyph glyph-name="dotlessi" unicode="&#x131;" horiz-adv-x="256" 
d="M133 0h-103l73 517h103z" />
    <glyph glyph-name="IJ" unicode="&#x132;" horiz-adv-x="674" 
d="M249 723l-102 -723h-102l102 723h102zM508.5 35.5q-40.5 -45.5 -131.5 -45.5q-33 0 -65.5 7t-49.5 14l19 97q6 -2 19.5 -8t28.5 -9.5t33 -3.5q48 0 70.5 26.5t31.5 91.5l73 518h103l-77 -547q-14 -95 -54.5 -140.5z" />
    <glyph glyph-name="ij" unicode="&#x133;" horiz-adv-x="538" 
d="M225 619h-108l17 124h108zM136 0h-103l73 517h103zM496 619h-109l17 124h109zM353.5 -130.5q-39.5 -35.5 -119.5 -35.5q-24 0 -38.5 2.5t-19 5.5t-5.5 4l9 68l49 3q34 3 50.5 18t21.5 50l75 532h103l-76 -535q-10 -77 -49.5 -112.5z" />
    <glyph glyph-name="Jcircumflex" unicode="&#x134;" horiz-adv-x="391" 
d="M225.5 35.5q-40.5 -45.5 -131.5 -45.5q-33 0 -65.5 7t-49.5 14l19 97q6 -2 19.5 -8t28.5 -9.5t33 -3.5q48 0 70.5 26.5t31.5 91.5l73 518h103l-77 -547q-14 -95 -54.5 -140.5zM308 883l-84 -68h-87l143 118h73l108 -118h-92z" />
    <glyph glyph-name="jcircumflex" unicode="&#x135;" horiz-adv-x="250" 
d="M76.5 -130q-39.5 -36 -119.5 -36q-65 0 -64 12l10 68l49 3q34 3 50.5 18.5t21.5 49.5l75 532h103l-76 -535q-10 -76 -49.5 -112zM171 677l-84 -68h-87l143 118h73l108 -118h-92z" />
    <glyph glyph-name="Kcommaaccent" unicode="&#x136;" horiz-adv-x="684" 
d="M492 0l-169 366l-141 -142l-31 -224h-106l102 723h106l-52 -366l365 366h121l-276 -281l197 -442h-116zM222 -230q-2 4 1 9l35 49q4 4 4 8q0 3 -2 5.5t-6 2.5h-8q-14 0 -12 14l9 63q2 12 13 12h63q10 0 8 -10l-11 -79q-1 -5 -3 -9l-48 -60q-5 -5 -9 -7t-13 -2h-14
q-5 0 -7 4z" />
    <glyph glyph-name="kcommaaccent" unicode="&#x137;" horiz-adv-x="568" 
d="M386 0l-121 253l-110 -100l-22 -153h-103l104 743h103l-67 -481l273 255h111l-214 -199l153 -318h-107zM165 -230q-2 4 1 9l35 49q4 4 4 8q0 3 -2 5.5t-6 2.5h-8q-14 0 -12 14l9 63q2 12 13 12h63q10 0 8 -10l-11 -79q-1 -5 -3 -9l-48 -60q-5 -5 -9 -7t-13 -2h-14
q-5 0 -7 4z" />
    <glyph glyph-name="kgreenlandic" unicode="&#x138;" horiz-adv-x="581" 
d="M386 0l-108 261l-123 -108l-22 -153h-103l73 517h103l-37 -259l282 259h110l-202 -179l146 -338h-119z" />
    <glyph glyph-name="Lacute" unicode="&#x139;" horiz-adv-x="561" 
d="M251 723l-89 -632h337l-13 -91h-441l102 723h104zM352 864l-264 -73l-10 50l260 98z" />
    <glyph glyph-name="lacute" unicode="&#x13a;" horiz-adv-x="298" 
d="M63 34q-23 38 -14 104l85 605h101l-83 -594q-10 -73 47 -78l27 -1l-9 -65q-30 -9 -51 -9q-80 0 -103 38zM342 904l-264 -73l-10 50l260 98z" />
    <glyph glyph-name="Lcommaaccent" unicode="&#x13b;" horiz-adv-x="561" 
d="M251 723l-89 -632h337l-13 -91h-441l102 723h104zM187 -230q-2 4 1 9l35 49q4 4 4 8q0 3 -2 5.5t-6 2.5h-8q-14 0 -12 14l9 63q2 12 13 12h63q10 0 8 -10l-11 -79q-1 -5 -3 -9l-48 -60q-5 -5 -9 -7t-13 -2h-14q-5 0 -7 4z" />
    <glyph glyph-name="lcommaaccent" unicode="&#x13c;" horiz-adv-x="298" 
d="M63 34q-23 38 -14 104l85 605h101l-83 -594q-10 -73 47 -78l27 -1l-9 -65q-30 -9 -51 -9q-80 0 -103 38zM0 -230q-2 4 1 9l35 49q4 4 4 8q0 3 -2 5.5t-6 2.5h-8q-14 0 -12 14l9 63q2 12 13 12h63q10 0 8 -10l-11 -79q-1 -5 -3 -9l-48 -60q-5 -5 -9 -7t-13 -2h-14
q-5 0 -7 4z" />
    <glyph glyph-name="Lcaron" unicode="&#x13d;" horiz-adv-x="561" 
d="M251 723l-89 -632h337l-13 -91h-441l102 723h104zM391.5 528q-1.5 3 -0.5 7l40 71l3 8q1 5 -6 6l-8 1q-6 1 -8 3t-1 8l11 81q1 10 11 10h63q8 0 6 -8l-13 -94l-2 -6l-45 -80q-3 -6 -7.5 -8t-13.5 -2h-24q-4 0 -5.5 3z" />
    <glyph glyph-name="lcaron" unicode="&#x13e;" horiz-adv-x="298" 
d="M63 34q-23 38 -14 104l85 605h101l-83 -594q-10 -73 47 -78l27 -1l-9 -65q-30 -9 -51 -9q-80 0 -103 38zM261.5 545q-1.5 3 -0.5 7l40 71l3 8q1 5 -6 6l-8 1q-6 1 -8 3t-1 8l11 81q1 10 11 10h63q8 0 6 -8l-13 -94l-2 -6l-45 -80q-3 -6 -7.5 -8t-13.5 -2h-24q-4 0 -5.5 3
z" />
    <glyph glyph-name="Ldot" unicode="&#x13f;" horiz-adv-x="584" 
d="M251 723l-89 -632h337l-13 -91h-441l102 723h104zM534 337h-121l16 117h121z" />
    <glyph glyph-name="ldot" unicode="&#x140;" horiz-adv-x="356" 
d="M63 34q-23 38 -14 104l85 605h101l-83 -594q-10 -73 47 -78l27 -1l-9 -65q-30 -9 -51 -9q-80 0 -103 38zM355 227h-121l16 117h121z" />
    <glyph glyph-name="Lslash" unicode="&#x141;" horiz-adv-x="565" 
d="M504 91l-13 -91h-441l45 319l-66 -17q-3 -1 -7 -1q-8 0 -6 10l8 62q2 11 13 14l70 18l45 318h104l-41 -291l157 40l5 1q9 0 8 -11l-8 -59q-2 -11 -14 -14l-160 -42l-36 -256h337z" />
    <glyph glyph-name="lslash" unicode="&#x142;" horiz-adv-x="283" 
d="M253 70l-9 -65q-30 -9 -51 -9q-80 0 -103 38t-14 104l14 94l-102 -73l13 92l101 72l59 420h101l-48 -341l83 58l-13 -88l-82 -59l-23 -164q-10 -73 47 -78z" />
    <glyph glyph-name="Nacute" unicode="&#x143;" horiz-adv-x="755" 
d="M720 723l-102 -723h-91l-302 557l-78 -557h-102l102 723h98l296 -547l77 547h102zM597 864l-264 -73l-10 50l260 98z" />
    <glyph glyph-name="nacute" unicode="&#x144;" 
d="M103 517h100l-10 -71q64 78 171 78q50 0 88 -21.5t56.5 -63t10.5 -98.5l-48 -341h-103l46 330q7 52 -18 81.5t-74 29.5q-54 0 -94 -25t-47 -71l-48 -345h-103zM485 658l-264 -73l-10 50l260 98z" />
    <glyph glyph-name="Ncommaaccent" unicode="&#x145;" horiz-adv-x="755" 
d="M720 723l-102 -723h-91l-302 557l-78 -557h-102l102 723h98l296 -547l77 547h102zM244 -230q-2 4 1 9l35 49q4 4 4 8q0 3 -2 5.5t-6 2.5h-8q-14 0 -12 14l9 63q2 12 13 12h63q10 0 8 -10l-11 -79q-1 -5 -3 -9l-48 -60q-5 -5 -9 -7t-13 -2h-14q-5 0 -7 4z" />
    <glyph glyph-name="ncommaaccent" unicode="&#x146;" 
d="M103 517h100l-10 -71q64 78 171 78q50 0 88 -21.5t56.5 -63t10.5 -98.5l-48 -341h-103l46 330q7 52 -18 81.5t-74 29.5q-54 0 -94 -25t-47 -71l-48 -345h-103zM178 -230q-2 4 1 9l35 49q4 4 4 8q0 3 -2 5.5t-6 2.5h-8q-14 0 -12 14l9 63q2 12 13 12h63q10 0 8 -10
l-11 -79q-1 -5 -3 -9l-48 -60q-5 -5 -9 -7t-13 -2h-14q-5 0 -7 4z" />
    <glyph glyph-name="Ncaron" unicode="&#x147;" horiz-adv-x="755" 
d="M720 723l-102 -723h-91l-302 557l-78 -557h-102l102 723h98l296 -547l77 547h102zM632 929l-141 -119h-73l-110 119h87l65 -69l80 69h92z" />
    <glyph glyph-name="ncaron" unicode="&#x148;" 
d="M103 517h100l-10 -71q64 78 171 78q50 0 88 -21.5t56.5 -63t10.5 -98.5l-48 -341h-103l46 330q7 52 -18 81.5t-74 29.5q-54 0 -94 -25t-47 -71l-48 -345h-103zM520 723l-141 -119h-73l-110 119h87l65 -69l80 69h92z" />
    <glyph glyph-name="napostrophe" unicode="&#x149;" horiz-adv-x="660" 
d="M55.5 455.5q-1.5 3.5 -0.5 7.5l46 112l3 8q1 5 -5 6l-8 1q-12 0 -11 11l16 112q1 10 12 10h64q7 0 5 -8l-17 -125l-2 -7l-52 -120q-5 -11 -20 -11h-25q-4 0 -5.5 3.5zM170 517h100l-10 -71q64 78 171 78q50 0 88 -21.5t56.5 -63t10.5 -98.5l-48 -341h-103l46 330
q7 52 -18 81.5t-74 29.5q-54 0 -94 -25t-47 -71l-48 -345h-103z" />
    <glyph glyph-name="Eng" unicode="&#x14a;" horiz-adv-x="748" 
d="M709 720.5q2 -2.5 1 -9.5l-101 -719q-12 -83 -57.5 -123t-131.5 -40q-47 0 -96 14q-15 4 -12 22l14 60q2 7 5.5 9.5t10.5 1.5q39 -10 63 -10q39 0 61.5 19.5t30.5 65.5l4 35l-274 478q-7 12 -9 -1l-72 -509q-2 -14 -18 -14h-68q-15 0 -13 14l98 695q1 8 4.5 11t11.5 3h76
q9 0 12.5 -2t7.5 -8l273 -483q4 -6 8 -6q6 0 8 10l67 476q2 13 16 13h72q6 0 8 -2.5z" />
    <glyph glyph-name="eng" unicode="&#x14b;" horiz-adv-x="601" 
d="M244 -155l10 69l42 2q33 2 49.5 17t21.5 50l52 371q6 45 -13.5 70t-68.5 25q-69 0 -151 -75l-53 -374h-103l74 517h99l-11 -79q61 48 105.5 68.5t91.5 20.5q72 0 108.5 -41t26.5 -109l-55 -389q-10 -73 -54 -113.5t-114 -40.5q-59 0 -57 11z" />
    <glyph glyph-name="Omacron" unicode="&#x14c;" horiz-adv-x="733" 
d="M157 33.5q-65 43.5 -92 126.5t-11 199q16 117 67.5 201.5t129 128.5t174.5 44q96 0 161 -44t91.5 -128t10.5 -201q-16 -116 -66 -199t-127 -127t-175 -44t-163 43.5zM575 359q20 145 -22 215.5t-140 70.5q-99 0 -162 -71t-84 -215q-20 -143 24 -212t143 -69
q202 0 241 281zM595 847h-308l10 71h308z" />
    <glyph glyph-name="omacron" unicode="&#x14d;" horiz-adv-x="568" 
d="M113.5 23.5q-49.5 33.5 -69.5 93.5t-9 138q11 80 49 141.5t97.5 96t131.5 34.5q74 0 122.5 -34.5t68.5 -96t9 -140.5q-11 -78 -48 -138.5t-95.5 -94t-132.5 -33.5t-123.5 33.5zM359.5 122q41.5 53 52.5 137q12 84 -14.5 136.5t-95.5 52.5t-111 -52.5t-54 -136.5
t15.5 -137t97.5 -53q68 0 109.5 53zM484 641h-308l10 71h308z" />
    <glyph glyph-name="Obreve" unicode="&#x14e;" horiz-adv-x="733" 
d="M157 33.5q-65 43.5 -92 126.5t-11 199q16 117 67.5 201.5t129 128.5t174.5 44q96 0 161 -44t91.5 -128t10.5 -201q-16 -116 -66 -199t-127 -127t-175 -44t-163 43.5zM575 359q20 145 -22 215.5t-140 70.5q-99 0 -162 -71t-84 -215q-20 -143 24 -212t143 -69
q202 0 241 281zM542.5 849q-46.5 -32 -105.5 -32q-60 0 -96.5 31t-42.5 81h70q24 -53 77 -53q28 0 52.5 15.5t39.5 37.5h72q-20 -48 -66.5 -80z" />
    <glyph glyph-name="obreve" unicode="&#x14f;" horiz-adv-x="568" 
d="M113.5 23.5q-49.5 33.5 -69.5 93.5t-9 138q11 80 49 141.5t97.5 96t131.5 34.5q74 0 122.5 -34.5t68.5 -96t9 -140.5q-11 -78 -48 -138.5t-95.5 -94t-132.5 -33.5t-123.5 33.5zM359.5 122q41.5 53 52.5 137q12 84 -14.5 136.5t-95.5 52.5t-111 -52.5t-54 -136.5
t15.5 -137t97.5 -53q68 0 109.5 53zM431.5 643q-46.5 -32 -105.5 -32q-60 0 -96.5 31t-42.5 81h70q24 -53 77 -53q28 0 52.5 15.5t39.5 37.5h72q-20 -48 -66.5 -80z" />
    <glyph glyph-name="Ohungarumlaut" unicode="&#x150;" horiz-adv-x="733" 
d="M157 33.5q-65 43.5 -92 126.5t-11 199q16 117 67.5 201.5t129 128.5t174.5 44q96 0 161 -44t91.5 -128t10.5 -201q-16 -116 -66 -199t-127 -127t-175 -44t-163 43.5zM575 359q20 145 -22 215.5t-140 70.5q-99 0 -162 -71t-84 -215q-20 -143 24 -212t143 -69
q202 0 241 281zM475 893q4 -7 3 -11q-1 -5 -9 -11l-142 -99q-9 -5 -12 -5q-5 0 -7 5l-16 22q-3 4 -3 8.5t4 6.5l140 124q3 3 8 3t7 -4zM644 893q4 -7 3 -10q-1 -7 -10 -12l-142 -99q-9 -5 -12 -5q-4 0 -8 5l-14 22q-3 4 -3.5 8.5t3.5 6.5l141 124q3 3 8 3q4 0 6 -4z" />
    <glyph glyph-name="ohungarumlaut" unicode="&#x151;" horiz-adv-x="568" 
d="M113.5 23.5q-49.5 33.5 -69.5 93.5t-9 138q11 80 49 141.5t97.5 96t131.5 34.5q74 0 122.5 -34.5t68.5 -96t9 -140.5q-11 -78 -48 -138.5t-95.5 -94t-132.5 -33.5t-123.5 33.5zM359.5 122q41.5 53 52.5 137q12 84 -14.5 136.5t-95.5 52.5t-111 -52.5t-54 -136.5
t15.5 -137t97.5 -53q68 0 109.5 53zM364 687q4 -7 3 -11q-1 -5 -9 -11l-142 -99q-9 -5 -12 -5q-5 0 -7 5l-16 22q-3 4 -3 8.5t4 6.5l140 124q3 3 8 3t7 -4zM533 687q4 -7 3 -10q-1 -7 -10 -12l-142 -99q-9 -5 -12 -5q-4 0 -8 5l-14 22q-3 4 -3.5 8.5t3.5 6.5l141 124
q3 3 8 3q4 0 6 -4z" />
    <glyph glyph-name="OE" unicode="&#x152;" horiz-adv-x="1111" 
d="M1001 0h-452l-9 81q-38 -45 -92.5 -68t-122.5 -23q-100 0 -166.5 43.5t-93.5 126.5t-11 199q16 117 68 201.5t131.5 128.5t180.5 44q135 0 185 -92l37 82h435l-13 -88h-356l-32 -227h257l-12 -87h-257l-33 -233h368zM488 144.5q56 68.5 76 214.5q21 148 -16.5 218.5
t-134.5 70.5q-98 0 -157 -71t-80 -218q-20 -145 19 -214t139 -69q98 0 154 68.5z" />
    <glyph glyph-name="oe" unicode="&#x153;" horiz-adv-x="976" 
d="M122.5 23.5q-52.5 33.5 -75.5 93.5t-12 138q11 80 52 142t103 96t135 34q61 0 107 -26.5t69 -73.5q5 -6 8 -6q4 0 10 6q37 47 88 73.5t110 26.5q73 0 123 -34.5t70.5 -100t7.5 -154.5h-385q-7 -49 8.5 -88.5t48.5 -62t76 -22.5q92 0 162 83l63 -33q-51 -67 -109.5 -96
t-135.5 -29q-61 0 -106.5 25t-71.5 70q-2 7 -6 7t-11 -9q-38 -44 -90 -68.5t-112 -24.5q-74 0 -126.5 33.5zM601.5 414q-47.5 -43 -56.5 -113l282 -1q6 41 -6 77t-40.5 58t-68.5 22q-63 0 -110.5 -43zM374.5 114.5q45.5 51.5 58.5 143.5q13 93 -18.5 145t-99.5 52
q-69 0 -115.5 -52t-59.5 -145q-13 -92 19.5 -143.5t101.5 -51.5q68 0 113.5 51.5z" />
    <glyph glyph-name="Racute" unicode="&#x154;" horiz-adv-x="680" 
d="M462 0l-86 305h-186l-43 -305h-102l102 723h284q118 0 170.5 -53t38.5 -148q-20 -143 -166 -199l96 -323h-108zM479.5 421.5q46.5 32.5 55.5 95.5q9 61 -24.5 92.5t-100.5 31.5h-173l-35 -252h153q78 0 124.5 32.5zM540 864l-264 -73l-10 50l260 98z" />
    <glyph glyph-name="racute" unicode="&#x155;" horiz-adv-x="394" 
d="M103 517h98l-16 -113q32 53 89 88t116 35l-14 -98q-53 3 -97 -14.5t-71.5 -48t-31.5 -62.5l-43 -304h-103zM398 658l-264 -73l-10 50l260 98z" />
    <glyph glyph-name="Rcommaaccent" unicode="&#x156;" horiz-adv-x="680" 
d="M462 0l-86 305h-186l-43 -305h-102l102 723h284q118 0 170.5 -53t38.5 -148q-20 -143 -166 -199l96 -323h-108zM479.5 421.5q46.5 32.5 55.5 95.5q9 61 -24.5 92.5t-100.5 31.5h-173l-35 -252h153q78 0 124.5 32.5zM218 -230q-2 4 1 9l35 49q4 4 4 8q0 3 -2 5.5t-6 2.5
h-8q-14 0 -12 14l9 63q2 12 13 12h63q10 0 8 -10l-11 -79q-1 -5 -3 -9l-48 -60q-5 -5 -9 -7t-13 -2h-14q-5 0 -7 4z" />
    <glyph glyph-name="rcommaaccent" unicode="&#x157;" horiz-adv-x="394" 
d="M103 517h98l-16 -113q32 53 89 88t116 35l-14 -98q-53 3 -97 -14.5t-71.5 -48t-31.5 -62.5l-43 -304h-103zM13 -230q-2 4 1 9l35 49q4 4 4 8q0 3 -2 5.5t-6 2.5h-8q-14 0 -12 14l9 63q2 12 13 12h63q10 0 8 -10l-11 -79q-1 -5 -3 -9l-48 -60q-5 -5 -9 -7t-13 -2h-14
q-5 0 -7 4z" />
    <glyph glyph-name="Rcaron" unicode="&#x158;" horiz-adv-x="680" 
d="M462 0l-86 305h-186l-43 -305h-102l102 723h284q118 0 170.5 -53t38.5 -148q-20 -143 -166 -199l96 -323h-108zM479.5 421.5q46.5 32.5 55.5 95.5q9 61 -24.5 92.5t-100.5 31.5h-173l-35 -252h153q78 0 124.5 32.5zM575 929l-141 -119h-73l-110 119h87l65 -69l80 69h92z
" />
    <glyph glyph-name="rcaron" unicode="&#x159;" horiz-adv-x="394" 
d="M103 517h98l-16 -113q32 53 89 88t116 35l-14 -98q-53 3 -97 -14.5t-71.5 -48t-31.5 -62.5l-43 -304h-103zM433 723l-141 -119h-73l-110 119h87l65 -69l80 69h92z" />
    <glyph glyph-name="Sacute" unicode="&#x15a;" horiz-adv-x="674" 
d="M163.5 13q-60.5 23 -96.5 67.5t-36 108.5l107 5q5 -57 51.5 -88.5t116.5 -31.5q77 0 131 30.5t61 82.5q6 46 -22 74t-90 41l-136 32q-82 17 -121 64t-30 121q9 62 50 110.5t106 75.5t141 27q82 0 138 -28.5t83 -75.5t25 -103l-105 -4q-1 65 -42 95.5t-110 30.5
q-65 0 -116 -31.5t-59 -85.5q-5 -39 19 -65t88 -42l134 -31q177 -38 153 -204q-8 -55 -48 -100.5t-107.5 -71.5t-152.5 -26q-72 0 -132.5 23zM549 864l-264 -73l-10 50l260 98z" />
    <glyph glyph-name="sacute" unicode="&#x15b;" horiz-adv-x="509" 
d="M71 29q-53 39 -56 111l88 9q14 -85 116 -85q52 0 90 20.5t43 55.5q8 55 -67 73l-99 21q-69 16 -98.5 49.5t-22.5 87.5q10 72 70 114t153 42q94 0 140.5 -42.5t39.5 -109.5l-88 -5q-4 84 -105 84q-45 0 -77.5 -17.5t-38.5 -58.5q-3 -23 13.5 -39t63.5 -27l96 -24
q68 -17 92.5 -56.5t17.5 -86.5q-6 -46 -38 -81.5t-83 -54.5t-113 -19q-84 0 -137 39zM433 658l-264 -73l-10 50l260 98z" />
    <glyph glyph-name="Scircumflex" unicode="&#x15c;" horiz-adv-x="674" 
d="M163.5 13q-60.5 23 -96.5 67.5t-36 108.5l107 5q5 -57 51.5 -88.5t116.5 -31.5q77 0 131 30.5t61 82.5q6 46 -22 74t-90 41l-136 32q-82 17 -121 64t-30 121q9 62 50 110.5t106 75.5t141 27q82 0 138 -28.5t83 -75.5t25 -103l-105 -4q-1 65 -42 95.5t-110 30.5
q-65 0 -116 -31.5t-59 -85.5q-5 -39 19 -65t88 -42l134 -31q177 -38 153 -204q-8 -55 -48 -100.5t-107.5 -71.5t-152.5 -26q-72 0 -132.5 23zM415 883l-84 -68h-87l143 118h73l108 -118h-92z" />
    <glyph glyph-name="scircumflex" unicode="&#x15d;" horiz-adv-x="509" 
d="M71 29q-53 39 -56 111l88 9q14 -85 116 -85q52 0 90 20.5t43 55.5q8 55 -67 73l-99 21q-69 16 -98.5 49.5t-22.5 87.5q10 72 70 114t153 42q94 0 140.5 -42.5t39.5 -109.5l-88 -5q-4 84 -105 84q-45 0 -77.5 -17.5t-38.5 -58.5q-3 -23 13.5 -39t63.5 -27l96 -24
q68 -17 92.5 -56.5t17.5 -86.5q-6 -46 -38 -81.5t-83 -54.5t-113 -19q-84 0 -137 39zM299 677l-84 -68h-87l143 118h73l108 -118h-92z" />
    <glyph glyph-name="Scedilla" unicode="&#x15e;" horiz-adv-x="674" 
d="M163.5 13q-60.5 23 -96.5 67.5t-36 108.5l107 5q5 -57 51.5 -88.5t116.5 -31.5q77 0 131 30.5t61 82.5q6 46 -22 74t-90 41l-136 32q-82 17 -121 64t-30 121q9 62 50 110.5t106 75.5t141 27q82 0 138 -28.5t83 -75.5t25 -103l-105 -4q-1 65 -42 95.5t-110 30.5
q-65 0 -116 -31.5t-59 -85.5q-5 -39 19 -65t88 -42l134 -31q177 -38 153 -204q-8 -55 -48 -100.5t-107.5 -71.5t-152.5 -26q-72 0 -132.5 23zM327 -186q-35 -21 -81 -21q-60 0 -96 25l22 41q30 -24 67 -24q54 0 59 36q3 21 -15 31.5t-60 11.5q-10 0 -6 7l49 84h52l-33 -60
q48 -2 67 -23.5t15 -50.5q-5 -36 -40 -57z" />
    <glyph glyph-name="scedilla" unicode="&#x15f;" horiz-adv-x="509" 
d="M71 29q-53 39 -56 111l88 9q14 -85 116 -85q52 0 90 20.5t43 55.5q8 55 -67 73l-99 21q-69 16 -98.5 49.5t-22.5 87.5q10 72 70 114t153 42q94 0 140.5 -42.5t39.5 -109.5l-88 -5q-4 84 -105 84q-45 0 -77.5 -17.5t-38.5 -58.5q-3 -23 13.5 -39t63.5 -27l96 -24
q68 -17 92.5 -56.5t17.5 -86.5q-6 -46 -38 -81.5t-83 -54.5t-113 -19q-84 0 -137 39zM248 -186q-35 -21 -81 -21q-60 0 -96 25l22 41q30 -24 67 -24q54 0 59 36q3 21 -15 31.5t-60 11.5q-10 0 -6 7l49 84h52l-33 -60q48 -2 67 -23.5t15 -50.5q-5 -36 -40 -57z" />
    <glyph glyph-name="Scaron" unicode="&#x160;" horiz-adv-x="674" 
d="M163.5 13q-60.5 23 -96.5 67.5t-36 108.5l107 5q5 -57 51.5 -88.5t116.5 -31.5q77 0 131 30.5t61 82.5q6 46 -22 74t-90 41l-136 32q-82 17 -121 64t-30 121q9 62 50 110.5t106 75.5t141 27q82 0 138 -28.5t83 -75.5t25 -103l-105 -4q-1 65 -42 95.5t-110 30.5
q-65 0 -116 -31.5t-59 -85.5q-5 -39 19 -65t88 -42l134 -31q177 -38 153 -204q-8 -55 -48 -100.5t-107.5 -71.5t-152.5 -26q-72 0 -132.5 23zM584 929l-141 -119h-73l-110 119h87l65 -69l80 69h92z" />
    <glyph glyph-name="scaron" unicode="&#x161;" horiz-adv-x="509" 
d="M71 29q-53 39 -56 111l88 9q14 -85 116 -85q52 0 90 20.5t43 55.5q8 55 -67 73l-99 21q-69 16 -98.5 49.5t-22.5 87.5q10 72 70 114t153 42q94 0 140.5 -42.5t39.5 -109.5l-88 -5q-4 84 -105 84q-45 0 -77.5 -17.5t-38.5 -58.5q-3 -23 13.5 -39t63.5 -27l96 -24
q68 -17 92.5 -56.5t17.5 -86.5q-6 -46 -38 -81.5t-83 -54.5t-113 -19q-84 0 -137 39zM468 723l-141 -119h-73l-110 119h87l65 -69l80 69h92z" />
    <glyph glyph-name="uni0162" unicode="&#x162;" horiz-adv-x="580" 
d="M70 723h552l-13 -93h-219l-89 -630h-103l89 630h-230zM293 -186q-35 -21 -81 -21q-60 0 -96 25l22 41q30 -24 67 -24q54 0 59 36q3 21 -15 31.5t-60 11.5q-10 0 -6 7l49 84h52l-33 -60q48 -2 67 -23.5t15 -50.5q-5 -36 -40 -57z" />
    <glyph glyph-name="uni0163" unicode="&#x163;" horiz-adv-x="398" 
d="M243 443l-42 -310q-5 -37 4.5 -50t34.5 -13h72l-9 -64q-24 -9 -80 -9q-81 0 -108 32t-18 98l44 316h-84l11 74h87l35 169h87l-23 -169h117l-11 -74h-117zM253 -186q-35 -21 -81 -21q-60 0 -96 25l22 41q30 -24 67 -24q54 0 59 36q3 21 -15 31.5t-60 11.5q-10 0 -6 7
l49 84h52l-33 -60q48 -2 67 -23.5t15 -50.5q-5 -36 -40 -57z" />
    <glyph glyph-name="Tcaron" unicode="&#x164;" horiz-adv-x="580" 
d="M70 723h552l-13 -93h-219l-89 -630h-103l89 630h-230zM546 929l-141 -119h-73l-110 119h87l65 -69l80 69h92z" />
    <glyph glyph-name="tcaron" unicode="&#x165;" horiz-adv-x="398" 
d="M243 443l-42 -310q-5 -37 4.5 -50t34.5 -13h72l-9 -64q-24 -9 -80 -9q-81 0 -108 32t-18 98l44 316h-84l11 74h87l35 169h87l-23 -169h117l-11 -74h-117zM344.5 565q-1.5 3 -0.5 7l40 71l3 8q1 5 -6 6l-8 1q-6 1 -8 3t-1 8l11 81q1 10 11 10h63q8 0 6 -8l-13 -94l-2 -6
l-45 -80q-3 -6 -7.5 -8t-13.5 -2h-24q-4 0 -5.5 3z" />
    <glyph glyph-name="Tbar" unicode="&#x166;" horiz-adv-x="580" 
d="M390 630l-33 -230h162l-11 -80h-162l-45 -320h-103l45 320h-120l11 80h120l33 230h-230l13 93h552l-13 -93h-219z" />
    <glyph glyph-name="tbar" unicode="&#x167;" horiz-adv-x="390" 
d="M317 70l-9 -64q-24 -9 -80 -9q-81 0 -108 32t-18 98l18 127h-88l8 62h88l18 127h-84l11 74h87l35 169h87l-23 -169h117l-11 -74h-117l-18 -127h89l-8 -62h-88l-17 -121q-5 -37 4.5 -50t34.5 -13h72z" />
    <glyph glyph-name="Utilde" unicode="&#x168;" horiz-adv-x="719" 
d="M525.5 57.5q-74.5 -67.5 -213.5 -67.5q-140 0 -194.5 69t-35.5 204l65 460h105l-67 -473q-12 -85 24 -128t115 -43q80 0 129 42.5t61 128.5l67 473h103l-66 -469q-18 -129 -92.5 -196.5zM493 837q-30 0 -68 14q-14 5 -29.5 8.5t-29.5 3.5q-19 0 -31.5 -5t-32.5 -16
q-4 -3 -8 -3t-6 8l-7 31q-1 2 0 6q1 5 8 10q20 15 38.5 23.5t42.5 8.5q17 0 36 -4.5t35 -10.5q37 -13 60 -13q29 0 63 20q4 3 8 3q6 0 8 -8l5 -37l1 -4q-1 -5 -12 -12q-34 -23 -81 -23z" />
    <glyph glyph-name="utilde" unicode="&#x169;" 
d="M135.5 9.5q-42.5 18.5 -66.5 57.5t-16 98l50 353h103l-48 -342q-8 -54 23 -80.5t77 -26.5q50 0 88.5 29.5t46.5 82.5l48 337h103l-75 -517h-80l6 78q-23 -36 -72.5 -62t-97.5 -26q-47 0 -89.5 18.5zM399 631q-30 0 -68 14q-14 5 -29.5 8.5t-29.5 3.5q-19 0 -31.5 -5
t-32.5 -16q-4 -3 -8 -3t-6 8l-7 31q-1 2 0 6q1 5 8 10q20 15 38.5 23.5t42.5 8.5q17 0 36 -4.5t35 -10.5q37 -13 60 -13q29 0 63 20q4 3 8 3q6 0 8 -8l5 -37l1 -4q-1 -5 -12 -12q-34 -23 -81 -23z" />
    <glyph glyph-name="Umacron" unicode="&#x16a;" horiz-adv-x="719" 
d="M525.5 57.5q-74.5 -67.5 -213.5 -67.5q-140 0 -194.5 69t-35.5 204l65 460h105l-67 -473q-12 -85 24 -128t115 -43q80 0 129 42.5t61 128.5l67 473h103l-66 -469q-18 -129 -92.5 -196.5zM581 847h-308l10 71h308z" />
    <glyph glyph-name="umacron" unicode="&#x16b;" 
d="M135.5 9.5q-42.5 18.5 -66.5 57.5t-16 98l50 353h103l-48 -342q-8 -54 23 -80.5t77 -26.5q50 0 88.5 29.5t46.5 82.5l48 337h103l-75 -517h-80l6 78q-23 -36 -72.5 -62t-97.5 -26q-47 0 -89.5 18.5zM487 641h-308l10 71h308z" />
    <glyph glyph-name="Ubreve" unicode="&#x16c;" horiz-adv-x="719" 
d="M525.5 57.5q-74.5 -67.5 -213.5 -67.5q-140 0 -194.5 69t-35.5 204l65 460h105l-67 -473q-12 -85 24 -128t115 -43q80 0 129 42.5t61 128.5l67 473h103l-66 -469q-18 -129 -92.5 -196.5zM528.5 849q-46.5 -32 -105.5 -32q-60 0 -96.5 31t-42.5 81h70q24 -53 77 -53
q28 0 52.5 15.5t39.5 37.5h72q-20 -48 -66.5 -80z" />
    <glyph glyph-name="ubreve" unicode="&#x16d;" 
d="M135.5 9.5q-42.5 18.5 -66.5 57.5t-16 98l50 353h103l-48 -342q-8 -54 23 -80.5t77 -26.5q50 0 88.5 29.5t46.5 82.5l48 337h103l-75 -517h-80l6 78q-23 -36 -72.5 -62t-97.5 -26q-47 0 -89.5 18.5zM434.5 643q-46.5 -32 -105.5 -32q-60 0 -96.5 31t-42.5 81h70
q24 -53 77 -53q28 0 52.5 15.5t39.5 37.5h72q-20 -48 -66.5 -80z" />
    <glyph glyph-name="Uring" unicode="&#x16e;" horiz-adv-x="719" 
d="M525.5 57.5q-74.5 -67.5 -213.5 -67.5q-140 0 -194.5 69t-35.5 204l65 460h105l-67 -473q-12 -85 24 -128t115 -43q80 0 129 42.5t61 128.5l67 473h103l-66 -469q-18 -129 -92.5 -196.5zM496.5 811q-34.5 -30 -78.5 -30t-69.5 30.5t-19.5 74.5q6 42 40.5 71.5t77.5 29.5
q44 0 70 -30t20 -73t-40.5 -73zM474 922q-13 15 -35 15t-40 -15t-21 -38q-3 -21 10.5 -37.5t35.5 -16.5q21 0 39 16.5t21 37.5q3 23 -10 38z" />
    <glyph glyph-name="uring" unicode="&#x16f;" 
d="M135.5 9.5q-42.5 18.5 -66.5 57.5t-16 98l50 353h103l-48 -342q-8 -54 23 -80.5t77 -26.5q50 0 88.5 29.5t46.5 82.5l48 337h103l-75 -517h-80l6 78q-23 -36 -72.5 -62t-97.5 -26q-47 0 -89.5 18.5zM402.5 605q-34.5 -30 -78.5 -30t-69.5 30.5t-19.5 74.5q6 42 40.5 71.5
t77.5 29.5q44 0 70 -30t20 -73t-40.5 -73zM380 716q-13 15 -35 15t-40 -15t-21 -38q-3 -21 10.5 -37.5t35.5 -16.5q21 0 39 16.5t21 37.5q3 23 -10 38z" />
    <glyph glyph-name="Uhungarumlaut" unicode="&#x170;" horiz-adv-x="719" 
d="M525.5 57.5q-74.5 -67.5 -213.5 -67.5q-140 0 -194.5 69t-35.5 204l65 460h105l-67 -473q-12 -85 24 -128t115 -43q80 0 129 42.5t61 128.5l67 473h103l-66 -469q-18 -129 -92.5 -196.5zM461 893q4 -7 3 -11q-1 -5 -9 -11l-142 -99q-9 -5 -12 -5q-5 0 -7 5l-16 22
q-3 4 -3 8.5t4 6.5l140 124q3 3 8 3t7 -4zM630 893q4 -7 3 -10q-1 -7 -10 -12l-142 -99q-9 -5 -12 -5q-4 0 -8 5l-14 22q-3 4 -3.5 8.5t3.5 6.5l141 124q3 3 8 3q4 0 6 -4z" />
    <glyph glyph-name="uhungarumlaut" unicode="&#x171;" 
d="M135.5 9.5q-42.5 18.5 -66.5 57.5t-16 98l50 353h103l-48 -342q-8 -54 23 -80.5t77 -26.5q50 0 88.5 29.5t46.5 82.5l48 337h103l-75 -517h-80l6 78q-23 -36 -72.5 -62t-97.5 -26q-47 0 -89.5 18.5zM367 687q4 -7 3 -11q-1 -5 -9 -11l-142 -99q-9 -5 -12 -5q-5 0 -7 5
l-16 22q-3 4 -3 8.5t4 6.5l140 124q3 3 8 3t7 -4zM536 687q4 -7 3 -10q-1 -7 -10 -12l-142 -99q-9 -5 -12 -5q-4 0 -8 5l-14 22q-3 4 -3.5 8.5t3.5 6.5l141 124q3 3 8 3q4 0 6 -4z" />
    <glyph glyph-name="Uogonek" unicode="&#x172;" horiz-adv-x="719" 
d="M525.5 57.5q-74.5 -67.5 -213.5 -67.5q-140 0 -194.5 69t-35.5 204l65 460h105l-67 -473q-12 -85 24 -128t115 -43q80 0 129 42.5t61 128.5l67 473h103l-66 -469q-18 -129 -92.5 -196.5zM241.5 -33q25.5 23 84.5 41l74 -5q-55 -21 -79.5 -39.5t-27.5 -41.5
q-3 -18 6.5 -27t32.5 -9q32 0 62 14q3 2 7 2q5 0 4 -8l-4 -32q-1 -8 -9 -12q-14 -7 -39 -12t-51 -5q-49 0 -72 21t-18 58q4 32 29.5 55z" />
    <glyph glyph-name="uogonek" unicode="&#x173;" 
d="M135.5 9.5q-42.5 18.5 -66.5 57.5t-16 98l50 353h103l-48 -342q-8 -54 23 -80.5t77 -26.5q50 0 88.5 29.5t46.5 82.5l48 337h103l-75 -517h-80l6 78q-23 -36 -72.5 -62t-97.5 -26q-47 0 -89.5 18.5zM307.5 -32q25.5 23 84.5 41l74 -5q-55 -21 -79.5 -39.5t-27.5 -41.5
q-3 -18 6.5 -27t32.5 -9q32 0 62 14q3 2 7 2q5 0 4 -8l-4 -32q-1 -8 -9 -12q-14 -7 -39 -12t-51 -5q-49 0 -72 21t-18 58q4 32 29.5 55z" />
    <glyph glyph-name="Wcircumflex" unicode="&#x174;" horiz-adv-x="956" 
d="M676 0h-91l-78 544l-233 -544h-89l-107 723h103l76 -558l237 558h78l79 -558l237 558h102zM558 883l-84 -68h-87l143 118h73l108 -118h-92z" />
    <glyph glyph-name="wcircumflex" unicode="&#x175;" horiz-adv-x="780" 
d="M548 0h-88l-66 369l-165 -369h-87l-92 517h94l64 -383l171 383h76l66 -383l168 383h95zM442 677l-84 -68h-87l143 118h73l108 -118h-92z" />
    <glyph glyph-name="Ycircumflex" unicode="&#x176;" horiz-adv-x="608" 
d="M353 307l-43 -307h-102l43 308l-189 415h112l141 -325l231 325h112zM389 883l-84 -68h-87l143 118h73l108 -118h-92z" />
    <glyph glyph-name="ycircumflex" unicode="&#x177;" horiz-adv-x="537" 
d="M14.5 -162q-17.5 3 -25.5 6.5t-10 4.5l9 66l53 -2q52 -2 76 14t39 42l22 45l-131 503h103l92 -388l202 388h100l-293 -549q-42 -75 -87 -104t-104 -29q-28 0 -45.5 3zM328 677l-84 -68h-87l143 118h73l108 -118h-92z" />
    <glyph glyph-name="Ydieresis" unicode="&#x178;" horiz-adv-x="608" 
d="M353 307l-43 -307h-102l43 308l-189 415h112l141 -325l231 325h112zM349 816h-96l16 113h96zM509 816h-97l16 113h97z" />
    <glyph glyph-name="Zacute" unicode="&#x179;" horiz-adv-x="633" 
d="M12 55l472 580h-373l13 88h517l-8 -52l-476 -582h392l-13 -89h-532zM542 864l-264 -73l-10 50l260 98z" />
    <glyph glyph-name="zacute" unicode="&#x17a;" horiz-adv-x="493" 
d="M0 60l346 388h-270l10 69h395l-9 -60l-346 -388h296l-10 -69h-420zM443 658l-264 -73l-10 50l260 98z" />
    <glyph glyph-name="Zdotaccent" unicode="&#x17b;" horiz-adv-x="633" 
d="M12 55l472 580h-373l13 88h517l-8 -52l-476 -582h392l-13 -89h-532zM453 806h-108l18 123h108z" />
    <glyph glyph-name="zdotaccent" unicode="&#x17c;" horiz-adv-x="493" 
d="M0 60l346 388h-270l10 69h395l-9 -60l-346 -388h296l-10 -69h-420zM354 600h-108l18 123h108z" />
    <glyph glyph-name="Zcaron" unicode="&#x17d;" horiz-adv-x="633" 
d="M12 55l472 580h-373l13 88h517l-8 -52l-476 -582h392l-13 -89h-532zM577 929l-141 -119h-73l-110 119h87l65 -69l80 69h92z" />
    <glyph glyph-name="zcaron" unicode="&#x17e;" horiz-adv-x="493" 
d="M0 60l346 388h-270l10 69h395l-9 -60l-346 -388h296l-10 -69h-420zM478 723l-141 -119h-73l-110 119h87l65 -69l80 69h92z" />
    <glyph glyph-name="uni018F" unicode="&#x18f;" horiz-adv-x="733" 
d="M551 567q-30 72 -140 72q-57 0 -96 -21.5t-61.5 -49t-47.5 -67.5q-9 -17 -15 -26q-1 -3 -6 -3q-2 0 -9 3l-72 34q-6 3 -5 7q0 1 5 11q32 52 69 95t100.5 77t149.5 34q110 0 173.5 -52.5t84 -136t6.5 -181.5q-14 -101 -62.5 -186t-127 -136t-179.5 -51q-162 0 -224 103.5
t-38 275.5q1 10 4.5 14.5t12.5 4.5h482q6 0 8.5 2.5t3.5 9.5q14 95 -16 167zM187 309q-7 0 -10 -2.5t-4 -8.5q-13 -92 23 -156.5t133 -64.5q101 0 153 63t71 168z" />
    <glyph glyph-name="florin" unicode="&#x192;" horiz-adv-x="465" 
d="M400 443h-123l-150 -479q-20 -62 -63.5 -96.5t-106.5 -34.5h-90l20 71l58 1q34 1 52.5 17.5t31.5 58.5l146 462h-83l24 74h83l25 79q20 61 63.5 94t104.5 33h101l-21 -71h-72q-25 0 -48 -19.5t-32 -49.5l-21 -66h125z" />
    <glyph glyph-name="uni01C4" unicode="&#x1c4;" horiz-adv-x="1326" 
d="M322 722q195 -3 273 -92.5t53 -263.5q-51 -366 -435 -366h-168l102 723q114 0 175 -1zM161 87h64q134 0 215 65.5t101 212.5q21 146 -39 209t-195 63h-68zM705 55l472 580h-373l13 88h517l-8 -52l-476 -582h392l-13 -89h-532zM1270 929l-141 -119h-73l-110 119h87l65 -69
l80 69h92z" />
    <glyph glyph-name="uni01C5" unicode="&#x1c5;" horiz-adv-x="1186" 
d="M322 722q195 -3 273 -92.5t53 -263.5q-51 -366 -435 -366h-168l102 723q114 0 175 -1zM161 87h64q134 0 215 65.5t101 212.5q21 146 -39 209t-195 63h-68zM693 60l346 388h-270l10 69h395l-9 -60l-346 -388h296l-10 -69h-420zM1171 723l-141 -119h-73l-110 119h87l65 -69
l80 69h92z" />
    <glyph glyph-name="uni01C6" unicode="&#x1c6;" horiz-adv-x="1082" 
d="M65 59q-48 69 -30 195q18 125 84.5 199t167.5 74q89 0 142 -66l39 282h103l-104 -743h-78l3 73q-26 -31 -71.5 -57t-107.5 -26q-100 0 -148 69zM313 85q32 18 53 48t26 63l23 166q-29 87 -112 87q-65 0 -109.5 -48.5t-57.5 -143.5q-13 -96 17.5 -143t91.5 -47q36 0 68 18
zM589 60l346 388h-270l10 69h395l-9 -60l-346 -388h296l-10 -69h-420zM1067 723l-141 -119h-73l-110 119h87l65 -69l80 69h92z" />
    <glyph glyph-name="uni01C7" unicode="&#x1c7;" horiz-adv-x="986" 
d="M251 723l-89 -632h337l-13 -91h-441l102 723h104zM820.5 35.5q-40.5 -45.5 -131.5 -45.5q-33 0 -65.5 7t-49.5 14l19 97q6 -2 19.5 -8t28.5 -9.5t33 -3.5q48 0 70.5 26.5t31.5 91.5l73 518h103l-77 -547q-14 -95 -54.5 -140.5z" />
    <glyph glyph-name="uni01C8" unicode="&#x1c8;" horiz-adv-x="839" 
d="M251 723l-89 -632h337l-13 -91h-441l102 723h104zM797 619h-109l17 124h109zM654.5 -130.5q-39.5 -35.5 -119.5 -35.5q-24 0 -38.5 2.5t-19 5.5t-5.5 4l9 68l49 3q34 3 50.5 18t21.5 50l75 532h103l-76 -535q-10 -77 -49.5 -112.5z" />
    <glyph glyph-name="uni01C9" unicode="&#x1c9;" horiz-adv-x="576" 
d="M63 34q-23 38 -14 104l85 605h101l-83 -594q-10 -73 47 -78l27 -1l-9 -65q-30 -9 -51 -9q-80 0 -103 38zM534 619h-109l17 124h109zM391.5 -130.5q-39.5 -35.5 -119.5 -35.5q-24 0 -38.5 2.5t-19 5.5t-5.5 4l9 68l49 3q34 3 50.5 18t21.5 50l75 532h103l-76 -535
q-10 -77 -49.5 -112.5z" />
    <glyph glyph-name="uni01CA" unicode="&#x1ca;" horiz-adv-x="1146" 
d="M720 723l-102 -723h-91l-302 557l-78 -557h-102l102 723h98l296 -547l77 547h102zM980.5 35.5q-40.5 -45.5 -131.5 -45.5q-33 0 -65.5 7t-49.5 14l19 97q6 -2 19.5 -8t28.5 -9.5t33 -3.5q48 0 70.5 26.5t31.5 91.5l73 518h103l-77 -547q-14 -95 -54.5 -140.5z" />
    <glyph glyph-name="uni01CB" unicode="&#x1cb;" horiz-adv-x="1033" 
d="M720 723l-102 -723h-91l-302 557l-78 -557h-102l102 723h98l296 -547l77 547h102zM991 619h-109l17 124h109zM848.5 -130.5q-39.5 -35.5 -119.5 -35.5q-24 0 -38.5 2.5t-19 5.5t-5.5 4l9 68l49 3q34 3 50.5 18t21.5 50l75 532h103l-76 -535q-10 -77 -49.5 -112.5z" />
    <glyph glyph-name="uni01CC" unicode="&#x1cc;" horiz-adv-x="871" 
d="M103 517h100l-10 -71q64 78 171 78q50 0 88 -21.5t56.5 -63t10.5 -98.5l-48 -341h-103l46 330q7 52 -18 81.5t-74 29.5q-54 0 -94 -25t-47 -71l-48 -345h-103zM829 619h-109l17 124h109zM686.5 -130.5q-39.5 -35.5 -119.5 -35.5q-24 0 -38.5 2.5t-19 5.5t-5.5 4l9 68
l49 3q34 3 50.5 18t21.5 50l75 532h103l-76 -535q-10 -77 -49.5 -112.5z" />
    <glyph glyph-name="uni01EA" unicode="&#x1ea;" horiz-adv-x="733" 
d="M157 33.5q-65 43.5 -92 126.5t-11 199q16 117 67.5 201.5t129 128.5t174.5 44q96 0 161 -44t91.5 -128t10.5 -201q-16 -116 -66 -199t-127 -127t-175 -44t-163 43.5zM575 359q20 145 -22 215.5t-140 70.5q-99 0 -162 -71t-84 -215q-20 -143 24 -212t143 -69
q202 0 241 281zM254.5 -34q25.5 23 84.5 41l74 -5q-55 -21 -79.5 -39.5t-27.5 -41.5q-3 -18 6.5 -27t32.5 -9q32 0 62 14q3 2 7 2q5 0 4 -8l-4 -32q-1 -8 -9 -12q-14 -7 -39 -12t-51 -5q-49 0 -72 21t-18 58q4 32 29.5 55z" />
    <glyph glyph-name="uni01EB" unicode="&#x1eb;" horiz-adv-x="568" 
d="M113.5 23.5q-49.5 33.5 -69.5 93.5t-9 138q11 80 49 141.5t97.5 96t131.5 34.5q74 0 122.5 -34.5t68.5 -96t9 -140.5q-11 -78 -48 -138.5t-95.5 -94t-132.5 -33.5t-123.5 33.5zM359.5 122q41.5 53 52.5 137q12 84 -14.5 136.5t-95.5 52.5t-111 -52.5t-54 -136.5
t15.5 -137t97.5 -53q68 0 109.5 53zM160.5 -33q25.5 23 84.5 41l74 -5q-55 -21 -79.5 -39.5t-27.5 -41.5q-3 -18 6.5 -27t32.5 -9q32 0 62 14q3 2 7 2q5 0 4 -8l-4 -32q-1 -8 -9 -12q-14 -7 -39 -12t-51 -5q-49 0 -72 21t-18 58q4 32 29.5 55z" />
    <glyph glyph-name="uni01F1" unicode="&#x1f1;" horiz-adv-x="1326" 
d="M322 722q195 -3 273 -92.5t53 -263.5q-51 -366 -435 -366h-168l102 723q114 0 175 -1zM161 87h64q134 0 215 65.5t101 212.5q21 146 -39 209t-195 63h-68zM705 55l472 580h-373l13 88h517l-8 -52l-476 -582h392l-13 -89h-532z" />
    <glyph glyph-name="uni01F2" unicode="&#x1f2;" horiz-adv-x="1186" 
d="M322 722q195 -3 273 -92.5t53 -263.5q-51 -366 -435 -366h-168l102 723q114 0 175 -1zM161 87h64q134 0 215 65.5t101 212.5q21 146 -39 209t-195 63h-68zM693 60l346 388h-270l10 69h395l-9 -60l-346 -388h296l-10 -69h-420z" />
    <glyph glyph-name="uni01F3" unicode="&#x1f3;" horiz-adv-x="1082" 
d="M65 59q-48 69 -30 195q18 125 84.5 199t167.5 74q89 0 142 -66l39 282h103l-104 -743h-78l3 73q-26 -31 -71.5 -57t-107.5 -26q-100 0 -148 69zM313 85q32 18 53 48t26 63l23 166q-29 87 -112 87q-65 0 -109.5 -48.5t-57.5 -143.5q-13 -96 17.5 -143t91.5 -47q36 0 68 18
zM589 60l346 388h-270l10 69h395l-9 -60l-346 -388h296l-10 -69h-420z" />
    <glyph glyph-name="uni01F4" unicode="&#x1f4;" horiz-adv-x="732" 
d="M154 35q-64 45 -89.5 128t-10.5 196q16 115 67 199.5t129 129.5t173 45q73 0 130.5 -31t88 -82.5t25.5 -109.5l-110 -5q-4 60 -44 99t-105 39q-95 0 -159 -71t-83 -207q-20 -144 26 -213.5t141 -69.5q54 0 95.5 24t68 60.5t34.5 73.5l11 61h-171l11 74l278 -1l-53 -374
h-76l15 107q-88 -117 -233 -117q-95 0 -159 45zM573 864l-264 -73l-10 50l260 98z" />
    <glyph glyph-name="uni01F5" unicode="&#x1f5;" horiz-adv-x="609" 
d="M36 -134.5q-63 36.5 -54 97.5q6 40 34.5 63t51.5 33.5t27 13.5q-3 2 -17 10.5t-22.5 23t-5.5 33.5q4 26 31 46.5t73 30.5q-91 48 -77 145q11 76 80.5 119.5t171.5 43.5q49 0 82 -11t61 -33q23 10 64 25l78 31l-12 -91l-93 -17q4 -14 6.5 -34t0.5 -33q-6 -45 -36 -82.5
t-82.5 -60t-123.5 -22.5l-35 1q-45 -1 -66.5 -10t-23.5 -22q-2 -14 18 -19t75 -9l111 -7q86 -5 123.5 -42.5t29.5 -98.5q-11 -75 -84.5 -118t-196.5 -43q-126 0 -189 36.5zM377 286.5q34 25.5 41 73.5q7 49 -20.5 76.5t-83.5 27.5t-92 -28t-42 -76q-7 -47 21 -73t85 -26
t91 25.5zM361.5 -88q36.5 20 42.5 62q9 64 -81 70l-139 9q-20 1 -42 -9t-38 -28.5t-20 -40.5q-12 -83 168 -83q73 0 109.5 20zM481 658l-264 -73l-10 50l260 98z" />
    <glyph glyph-name="Aringacute" unicode="&#x1fa;" horiz-adv-x="695" 
d="M614 1h-121l-39 195h-273l-95 -195h-102l345 706q-28 29 -21 75q5 35 31 61t63 33l24 64h72l-39 -69q27 -11 41.5 -35t10.5 -56q-6 -42 -39 -71zM376 816.5q-18 -15.5 -22 -37.5q-3 -21 11 -37.5t35 -16.5q22 0 40 16.5t20 37.5q3 23 -9.5 38t-35.5 15q-21 0 -39 -15.5z
M442 286l-66 327l-158 -327h224z" />
    <glyph glyph-name="aringacute" unicode="&#x1fb;" horiz-adv-x="562" 
d="M370 0l8 49q-41 -31 -78.5 -45t-78.5 -14q-66 0 -111.5 32t-65.5 94t-8 149q12 86 49 144.5t89 88t113 29.5q55 0 88 -21t61 -51l9 62h102l-75 -517h-102zM394 167l22 151q8 56 -21.5 95.5t-85.5 39.5q-61 0 -108 -48t-60 -141t20.5 -147t97.5 -54q75 0 135 104zM463 658
l-264 -73l-10 50l260 98zM394.5 605q-34.5 -30 -78.5 -30t-69.5 30.5t-19.5 74.5q6 42 40.5 71.5t77.5 29.5q44 0 70 -30t20 -73t-40.5 -73zM372 716q-13 15 -35 15t-40 -15t-21 -38q-3 -21 10.5 -37.5t35.5 -16.5q21 0 39 16.5t21 37.5q3 23 -10 38z" />
    <glyph glyph-name="AEacute" unicode="&#x1fc;" horiz-adv-x="1023" 
d="M914 0h-472l27 195h-245l-134 -195h-103l499 723h519l-14 -88h-344l-32 -227h252l-12 -87h-252l-33 -233h356zM533 651l-256 -366h205zM891 864l-264 -73l-10 50l260 98z" />
    <glyph glyph-name="aeacute" unicode="&#x1fd;" horiz-adv-x="921" 
d="M487.5 152.5q15.5 -39.5 48 -64t74.5 -24.5q52 0 88.5 21.5t75.5 62.5l62 -33q-94 -125 -248 -125q-70 0 -113.5 28.5t-72.5 71.5q-3 6 -7 0q-48 -46 -101.5 -73t-129.5 -27q-78 0 -116 39t-29 106q11 76 80.5 121t195.5 53l93 7l6 38q7 49 -18 76t-80 27q-81 0 -144 -82
l-83 26q41 62 100.5 94t142.5 32q135 0 164 -85q36 42 84 63.5t104 21.5q71 0 120.5 -34t70.5 -99.5t8 -155.5l-385 -1q-6 -45 9.5 -84.5zM546.5 415q-47.5 -43 -57.5 -114l282 -1q6 41 -6 77t-40.5 58.5t-69.5 22.5q-61 0 -108.5 -43zM303 250q-79 -6 -126.5 -33.5
t-54.5 -74.5q-5 -38 17 -60.5t67 -22.5q38 0 74 14.5t59.5 39t27.5 53.5l13 89zM636 658l-264 -73l-10 50l260 98z" />
    <glyph glyph-name="Oslashacute" unicode="&#x1fe;" horiz-adv-x="731" 
d="M757 693h-2q6 -3 5 -9q-1 -5 -5 -8l-91 -87q40 -92 21 -229q-16 -116 -66 -199t-127.5 -127t-174.5 -44q-137 0 -206 82l-75 -71q-8 -8 -15 -8t-13 7l-21 25q-8 9 -8 14q1 4 7 9l86 83q-40 90 -21 228q16 117 67 201.5t128.5 128.5t174.5 44q136 0 205 -84l81 75
q8 7 12 7t7 -4zM175 224l367 351q-37 72 -135 72t-156 -70.5t-79 -217.5q-11 -80 3 -135zM556 496l-366 -351q39 -68 138 -68q98 0 154 68t76 214q12 83 -2 137zM573 864l-264 -73l-10 50l260 98z" />
    <glyph glyph-name="oslashacute" unicode="&#x1ff;" horiz-adv-x="582" 
d="M502 412q27 -67 14 -156q-11 -78 -48 -138.5t-95.5 -94t-132.5 -33.5q-103 0 -159 65l-72 -61l-34 42l78 66q-28 65 -15 153q11 80 49 141.5t97.5 96t131.5 34.5q105 0 159 -68l73 62l33 -41zM140 175l261 221q-30 52 -96 52q-69 0 -111 -52.5t-54 -136.5q-6 -50 0 -84z
M417 340l-260 -220q30 -51 96 -51q68 0 109.5 53t52.5 137q7 47 2 81zM471 658l-264 -73l-10 50l260 98z" />
    <glyph glyph-name="uni0200" unicode="&#x200;" horiz-adv-x="700" 
d="M350 723h113l159 -723h-103l-42 192h-289l-98 -192h-103zM463 285l-70 338l-167 -338h237zM394 803l-39 -40l-139 117l59 61zM562 803l-40 -40l-138 117l59 61z" />
    <glyph glyph-name="uni0201" unicode="&#x201;" horiz-adv-x="562" 
d="M370 0l8 49q-41 -31 -78.5 -45t-78.5 -14q-66 0 -111.5 32t-65.5 94t-8 149q12 86 49 144.5t89 88t113 29.5q55 0 88 -21t61 -51l9 62h102l-75 -517h-102zM394 167l22 151q8 56 -21.5 95.5t-85.5 39.5q-61 0 -108 -48t-60 -141t20.5 -147t97.5 -54q75 0 135 104zM290 597
l-39 -40l-139 117l59 61zM458 597l-40 -40l-138 117l59 61z" />
    <glyph glyph-name="uni0202" unicode="&#x202;" horiz-adv-x="700" 
d="M350 723h113l159 -723h-103l-42 192h-289l-98 -192h-103zM463 285l-70 338l-167 -338h237zM518 857q-9 22 -28.5 37.5t-47.5 15.5q-54 0 -93 -53h-70q20 50 65.5 81t105.5 31q59 0 96.5 -32t43.5 -80h-72z" />
    <glyph glyph-name="uni0203" unicode="&#x203;" horiz-adv-x="562" 
d="M370 0l8 49q-41 -31 -78.5 -45t-78.5 -14q-66 0 -111.5 32t-65.5 94t-8 149q12 86 49 144.5t89 88t113 29.5q55 0 88 -21t61 -51l9 62h102l-75 -517h-102zM394 167l22 151q8 56 -21.5 95.5t-85.5 39.5q-61 0 -108 -48t-60 -141t20.5 -147t97.5 -54q75 0 135 104zM414 651
q-9 22 -28.5 37.5t-47.5 15.5q-54 0 -93 -53h-70q20 50 65.5 81t105.5 31q59 0 96.5 -32t43.5 -80h-72z" />
    <glyph glyph-name="uni0204" unicode="&#x204;" horiz-adv-x="625" 
d="M147 723h463l-14 -89h-360l-32 -225h323l-12 -88h-323l-32 -230l370 -1l-13 -90h-472zM369 803l-39 -40l-139 117l59 61zM537 803l-40 -40l-138 117l59 61z" />
    <glyph glyph-name="uni0205" unicode="&#x205;" horiz-adv-x="558" 
d="M156 114.5q31 -46.5 99 -46.5q95 0 133 76l91 -10q-25 -66 -90 -105t-143 -39q-73 0 -125 31.5t-75 91.5t-11 140q11 81 48 143t96 96.5t133 34.5q109 0 159 -69t33 -188l-5 -36h-364q-10 -73 21 -119.5zM411 302q9 66 -19 107.5t-92 41.5q-43 0 -76.5 -21.5t-53.5 -55.5
t-26 -72h267zM293 597l-39 -40l-139 117l59 61zM461 597l-40 -40l-138 117l59 61z" />
    <glyph glyph-name="uni0206" unicode="&#x206;" horiz-adv-x="625" 
d="M147 723h463l-14 -89h-360l-32 -225h323l-12 -88h-323l-32 -230l370 -1l-13 -90h-472zM493 857q-9 22 -28.5 37.5t-47.5 15.5q-54 0 -93 -53h-70q20 50 65.5 81t105.5 31q59 0 96.5 -32t43.5 -80h-72z" />
    <glyph glyph-name="uni0207" unicode="&#x207;" horiz-adv-x="558" 
d="M156 114.5q31 -46.5 99 -46.5q95 0 133 76l91 -10q-25 -66 -90 -105t-143 -39q-73 0 -125 31.5t-75 91.5t-11 140q11 81 48 143t96 96.5t133 34.5q109 0 159 -69t33 -188l-5 -36h-364q-10 -73 21 -119.5zM411 302q9 66 -19 107.5t-92 41.5q-43 0 -76.5 -21.5t-53.5 -55.5
t-26 -72h267zM417 651q-9 22 -28.5 37.5t-47.5 15.5q-54 0 -93 -53h-70q20 50 65.5 81t105.5 31q59 0 96.5 -32t43.5 -80h-72z" />
    <glyph glyph-name="uni0208" unicode="&#x208;" horiz-adv-x="283" 
d="M249 723l-102 -723h-102l102 723h102zM183 803l-39 -40l-139 117l59 61zM351 803l-40 -40l-138 117l59 61z" />
    <glyph glyph-name="uni0209" unicode="&#x209;" horiz-adv-x="255" 
d="M133 0h-103l73 517h103zM138 597l-39 -40l-139 117l59 61zM306 597l-40 -40l-138 117l59 61z" />
    <glyph glyph-name="uni020A" unicode="&#x20a;" horiz-adv-x="283" 
d="M249 723l-102 -723h-102l102 723h102zM307 857q-9 22 -28.5 37.5t-47.5 15.5q-54 0 -93 -53h-70q20 50 65.5 81t105.5 31q59 0 96.5 -32t43.5 -80h-72z" />
    <glyph glyph-name="uni020B" unicode="&#x20b;" horiz-adv-x="255" 
d="M133 0h-103l73 517h103zM262 651q-9 22 -28.5 37.5t-47.5 15.5q-54 0 -93 -53h-70q20 50 65.5 81t105.5 31q59 0 96.5 -32t43.5 -80h-72z" />
    <glyph glyph-name="uni020C" unicode="&#x20c;" horiz-adv-x="733" 
d="M157 33.5q-65 43.5 -92 126.5t-11 199q16 117 67.5 201.5t129 128.5t174.5 44q96 0 161 -44t91.5 -128t10.5 -201q-16 -116 -66 -199t-127 -127t-175 -44t-163 43.5zM575 359q20 145 -22 215.5t-140 70.5q-99 0 -162 -71t-84 -215q-20 -143 24 -212t143 -69
q202 0 241 281zM406 803l-39 -40l-139 117l59 61zM574 803l-40 -40l-138 117l59 61z" />
    <glyph glyph-name="uni020D" unicode="&#x20d;" horiz-adv-x="568" 
d="M113.5 23.5q-49.5 33.5 -69.5 93.5t-9 138q11 80 49 141.5t97.5 96t131.5 34.5q74 0 122.5 -34.5t68.5 -96t9 -140.5q-11 -78 -48 -138.5t-95.5 -94t-132.5 -33.5t-123.5 33.5zM359.5 122q41.5 53 52.5 137q12 84 -14.5 136.5t-95.5 52.5t-111 -52.5t-54 -136.5
t15.5 -137t97.5 -53q68 0 109.5 53zM295 597l-39 -40l-139 117l59 61zM463 597l-40 -40l-138 117l59 61z" />
    <glyph glyph-name="uni020E" unicode="&#x20e;" horiz-adv-x="733" 
d="M157 33.5q-65 43.5 -92 126.5t-11 199q16 117 67.5 201.5t129 128.5t174.5 44q96 0 161 -44t91.5 -128t10.5 -201q-16 -116 -66 -199t-127 -127t-175 -44t-163 43.5zM575 359q20 145 -22 215.5t-140 70.5q-99 0 -162 -71t-84 -215q-20 -143 24 -212t143 -69
q202 0 241 281zM530 857q-9 22 -28.5 37.5t-47.5 15.5q-54 0 -93 -53h-70q20 50 65.5 81t105.5 31q59 0 96.5 -32t43.5 -80h-72z" />
    <glyph glyph-name="uni020F" unicode="&#x20f;" horiz-adv-x="568" 
d="M113.5 23.5q-49.5 33.5 -69.5 93.5t-9 138q11 80 49 141.5t97.5 96t131.5 34.5q74 0 122.5 -34.5t68.5 -96t9 -140.5q-11 -78 -48 -138.5t-95.5 -94t-132.5 -33.5t-123.5 33.5zM359.5 122q41.5 53 52.5 137q12 84 -14.5 136.5t-95.5 52.5t-111 -52.5t-54 -136.5
t15.5 -137t97.5 -53q68 0 109.5 53zM419 651q-9 22 -28.5 37.5t-47.5 15.5q-54 0 -93 -53h-70q20 50 65.5 81t105.5 31q59 0 96.5 -32t43.5 -80h-72z" />
    <glyph glyph-name="uni0210" unicode="&#x210;" horiz-adv-x="680" 
d="M462 0l-86 305h-186l-43 -305h-102l102 723h284q118 0 170.5 -53t38.5 -148q-20 -143 -166 -199l96 -323h-108zM479.5 421.5q46.5 32.5 55.5 95.5q9 61 -24.5 92.5t-100.5 31.5h-173l-35 -252h153q78 0 124.5 32.5zM367 803l-39 -40l-139 117l59 61zM535 803l-40 -40
l-138 117l59 61z" />
    <glyph glyph-name="uni0211" unicode="&#x211;" horiz-adv-x="394" 
d="M103 517h98l-16 -113q32 53 89 88t116 35l-14 -98q-53 3 -97 -14.5t-71.5 -48t-31.5 -62.5l-43 -304h-103zM225 597l-39 -40l-139 117l59 61zM393 597l-40 -40l-138 117l59 61z" />
    <glyph glyph-name="uni0212" unicode="&#x212;" horiz-adv-x="680" 
d="M462 0l-86 305h-186l-43 -305h-102l102 723h284q118 0 170.5 -53t38.5 -148q-20 -143 -166 -199l96 -323h-108zM479.5 421.5q46.5 32.5 55.5 95.5q9 61 -24.5 92.5t-100.5 31.5h-173l-35 -252h153q78 0 124.5 32.5zM491 857q-9 22 -28.5 37.5t-47.5 15.5q-54 0 -93 -53
h-70q20 50 65.5 81t105.5 31q59 0 96.5 -32t43.5 -80h-72z" />
    <glyph glyph-name="uni0213" unicode="&#x213;" horiz-adv-x="394" 
d="M103 517h98l-16 -113q32 53 89 88t116 35l-14 -98q-53 3 -97 -14.5t-71.5 -48t-31.5 -62.5l-43 -304h-103zM349 651q-9 22 -28.5 37.5t-47.5 15.5q-54 0 -93 -53h-70q20 50 65.5 81t105.5 31q59 0 96.5 -32t43.5 -80h-72z" />
    <glyph glyph-name="uni0214" unicode="&#x214;" horiz-adv-x="719" 
d="M525.5 57.5q-74.5 -67.5 -213.5 -67.5q-140 0 -194.5 69t-35.5 204l65 460h105l-67 -473q-12 -85 24 -128t115 -43q80 0 129 42.5t61 128.5l67 473h103l-66 -469q-18 -129 -92.5 -196.5zM392 803l-39 -40l-139 117l59 61zM560 803l-40 -40l-138 117l59 61z" />
    <glyph glyph-name="uni0215" unicode="&#x215;" 
d="M135.5 9.5q-42.5 18.5 -66.5 57.5t-16 98l50 353h103l-48 -342q-8 -54 23 -80.5t77 -26.5q50 0 88.5 29.5t46.5 82.5l48 337h103l-75 -517h-80l6 78q-23 -36 -72.5 -62t-97.5 -26q-47 0 -89.5 18.5zM298 597l-39 -40l-139 117l59 61zM466 597l-40 -40l-138 117l59 61z
" />
    <glyph glyph-name="uni0216" unicode="&#x216;" horiz-adv-x="719" 
d="M525.5 57.5q-74.5 -67.5 -213.5 -67.5q-140 0 -194.5 69t-35.5 204l65 460h105l-67 -473q-12 -85 24 -128t115 -43q80 0 129 42.5t61 128.5l67 473h103l-66 -469q-18 -129 -92.5 -196.5zM516 857q-9 22 -28.5 37.5t-47.5 15.5q-54 0 -93 -53h-70q20 50 65.5 81t105.5 31
q59 0 96.5 -32t43.5 -80h-72z" />
    <glyph glyph-name="uni0217" unicode="&#x217;" 
d="M135.5 9.5q-42.5 18.5 -66.5 57.5t-16 98l50 353h103l-48 -342q-8 -54 23 -80.5t77 -26.5q50 0 88.5 29.5t46.5 82.5l48 337h103l-75 -517h-80l6 78q-23 -36 -72.5 -62t-97.5 -26q-47 0 -89.5 18.5zM422 651q-9 22 -28.5 37.5t-47.5 15.5q-54 0 -93 -53h-70
q20 50 65.5 81t105.5 31q59 0 96.5 -32t43.5 -80h-72z" />
    <glyph glyph-name="Scommaaccent" unicode="&#x218;" horiz-adv-x="674" 
d="M163.5 13q-60.5 23 -96.5 67.5t-36 108.5l107 5q5 -57 51.5 -88.5t116.5 -31.5q77 0 131 30.5t61 82.5q6 46 -22 74t-90 41l-136 32q-82 17 -121 64t-30 121q9 62 50 110.5t106 75.5t141 27q82 0 138 -28.5t83 -75.5t25 -103l-105 -4q-1 65 -42 95.5t-110 30.5
q-65 0 -116 -31.5t-59 -85.5q-5 -39 19 -65t88 -42l134 -31q177 -38 153 -204q-8 -55 -48 -100.5t-107.5 -71.5t-152.5 -26q-72 0 -132.5 23zM215 -230q-2 4 1 9l35 49q4 4 4 8q0 3 -2 5.5t-6 2.5h-8q-14 0 -12 14l9 63q2 12 13 12h63q10 0 8 -10l-11 -79q-1 -5 -3 -9
l-48 -60q-5 -5 -9 -7t-13 -2h-14q-5 0 -7 4z" />
    <glyph glyph-name="scommaaccent" unicode="&#x219;" horiz-adv-x="509" 
d="M71 29q-53 39 -56 111l88 9q14 -85 116 -85q52 0 90 20.5t43 55.5q8 55 -67 73l-99 21q-69 16 -98.5 49.5t-22.5 87.5q10 72 70 114t153 42q94 0 140.5 -42.5t39.5 -109.5l-88 -5q-4 84 -105 84q-45 0 -77.5 -17.5t-38.5 -58.5q-3 -23 13.5 -39t63.5 -27l96 -24
q68 -17 92.5 -56.5t17.5 -86.5q-6 -46 -38 -81.5t-83 -54.5t-113 -19q-84 0 -137 39zM136 -230q-2 4 1 9l35 49q4 4 4 8q0 3 -2 5.5t-6 2.5h-8q-14 0 -12 14l9 63q2 12 13 12h63q10 0 8 -10l-11 -79q-1 -5 -3 -9l-48 -60q-5 -5 -9 -7t-13 -2h-14q-5 0 -7 4z" />
    <glyph glyph-name="uni021A" unicode="&#x21a;" horiz-adv-x="580" 
d="M70 723h552l-13 -93h-219l-89 -630h-103l89 630h-230zM181 -230q-2 4 1 9l35 49q4 4 4 8q0 3 -2 5.5t-6 2.5h-8q-14 0 -12 14l9 63q2 12 13 12h63q10 0 8 -10l-11 -79q-1 -5 -3 -9l-48 -60q-5 -5 -9 -7t-13 -2h-14q-5 0 -7 4z" />
    <glyph glyph-name="uni021B" unicode="&#x21b;" horiz-adv-x="398" 
d="M243 443l-42 -310q-5 -37 4.5 -50t34.5 -13h72l-9 -64q-24 -9 -80 -9q-81 0 -108 32t-18 98l44 316h-84l11 74h87l35 169h87l-23 -169h117l-11 -74h-117zM141 -230q-2 4 1 9l35 49q4 4 4 8q0 3 -2 5.5t-6 2.5h-8q-14 0 -12 14l9 63q2 12 13 12h63q10 0 8 -10l-11 -79
q-1 -5 -3 -9l-48 -60q-5 -5 -9 -7t-13 -2h-14q-5 0 -7 4z" />
    <glyph glyph-name="uni0237" unicode="&#x237;" horiz-adv-x="251" 
d="M76.5 -130q-39.5 -36 -119.5 -36q-65 0 -64 12l10 68l49 3q34 3 50.5 18.5t21.5 49.5l75 532h103l-76 -535q-10 -76 -49.5 -112z" />
    <glyph glyph-name="uni0259" unicode="&#x259;" horiz-adv-x="558" 
d="M383 402.5q-31 46.5 -99 46.5q-95 0 -133 -76l-91 10q25 66 90 105t143 39q73 0 125 -31.5t75 -91.5t11 -140q-11 -81 -48 -143t-96 -96.5t-133 -34.5q-109 0 -159 69t-33 188l5 36h364q10 73 -21 119.5zM128 215q-9 -66 19 -107.5t92 -41.5q43 0 76.5 21.5t53.5 55.5
t26 72h-267z" />
    <glyph glyph-name="uni02BC" unicode="&#x2bc;" horiz-adv-x="161" 
d="M55.5 455.5q-1.5 3.5 -0.5 7.5l46 112l3 8q1 5 -5 6l-8 1q-12 0 -11 11l16 112q1 10 12 10h64q7 0 5 -8l-17 -125l-2 -7l-52 -120q-5 -11 -20 -11h-25q-4 0 -5.5 3.5z" />
    <glyph glyph-name="circumflex" unicode="&#x2c6;" horiz-adv-x="338" 
d="M215 677l-84 -68h-87l143 118h73l108 -118h-92z" />
    <glyph glyph-name="caron" unicode="&#x2c7;" horiz-adv-x="338" 
d="M384 723l-141 -119h-73l-110 119h87l65 -69l80 69h92z" />
    <glyph glyph-name="breve" unicode="&#x2d8;" horiz-adv-x="339" 
d="M312.5 643q-46.5 -32 -105.5 -32q-60 0 -96.5 31t-42.5 81h70q24 -53 77 -53q28 0 52.5 15.5t39.5 37.5h72q-20 -48 -66.5 -80z" />
    <glyph glyph-name="dotaccent" unicode="&#x2d9;" horiz-adv-x="137" 
d="M159 600h-108l18 123h108z" />
    <glyph glyph-name="ring" unicode="&#x2da;" horiz-adv-x="237" 
d="M229.5 601q-34.5 -30 -78.5 -30t-69.5 30.5t-19.5 74.5q6 42 40.5 71.5t77.5 29.5q44 0 70 -30t20 -73t-40.5 -73zM207 712q-13 15 -35 15t-40 -15t-21 -38q-3 -21 10.5 -37.5t35.5 -16.5q21 0 39 16.5t21 37.5q3 23 -10 38z" />
    <glyph glyph-name="ogonek" unicode="&#x2db;" horiz-adv-x="225" 
d="M-15.5 -32q25.5 23 84.5 41l74 -5q-55 -21 -79.5 -39.5t-27.5 -41.5q-3 -18 6.5 -27t32.5 -9q32 0 62 14q3 2 7 2q5 0 4 -8l-4 -32q-1 -8 -9 -12q-14 -7 -39 -12t-51 -5q-49 0 -72 21t-18 58q4 32 29.5 55z" />
    <glyph glyph-name="tilde" unicode="&#x2dc;" horiz-adv-x="355" 
d="M285 631q-30 0 -68 14q-14 5 -29.5 8.5t-29.5 3.5q-19 0 -31.5 -5t-32.5 -16q-4 -3 -8 -3t-6 8l-7 31q-1 2 0 6q1 5 8 10q20 15 38.5 23.5t42.5 8.5q17 0 36 -4.5t35 -10.5q37 -13 60 -13q29 0 63 20q4 3 8 3q6 0 8 -8l5 -37l1 -4q-1 -5 -12 -12q-34 -23 -81 -23z" />
    <glyph glyph-name="hungarumlaut" unicode="&#x2dd;" horiz-adv-x="399" 
d="M248 687q4 -7 3 -11q-1 -5 -9 -11l-142 -99q-9 -5 -12 -5q-5 0 -7 5l-16 22q-3 4 -3 8.5t4 6.5l140 124q3 3 8 3t7 -4zM417 687q4 -7 3 -10q-1 -7 -10 -12l-142 -99q-9 -5 -12 -5q-4 0 -8 5l-14 22q-3 4 -3.5 8.5t3.5 6.5l141 124q3 3 8 3q4 0 6 -4z" />
    <glyph glyph-name="gravecomb" unicode="&#x300;" horiz-adv-x="0" 
d="M30 635l-24 -50l-244 73l36 75z" />
    <glyph glyph-name="acutecomb" unicode="&#x301;" horiz-adv-x="0" 
d="M34 658l-264 -73l-10 50l260 98z" />
    <glyph glyph-name="uni0302" unicode="&#x302;" horiz-adv-x="0" 
d="M-123 677l-84 -68h-87l143 118h73l108 -118h-92z" />
    <glyph glyph-name="tildecomb" unicode="&#x303;" horiz-adv-x="0" 
d="M-70 631q-30 0 -68 14q-14 5 -29.5 8.5t-29.5 3.5q-19 0 -31.5 -5t-32.5 -16q-4 -3 -8 -3t-6 8l-7 31q-1 2 0 6q1 5 8 10q20 15 38.5 23.5t42.5 8.5q17 0 36 -4.5t35 -10.5q37 -13 60 -13q29 0 63 20q4 3 8 3q6 0 8 -8l5 -37l1 -4q-1 -5 -12 -12q-34 -23 -81 -23z" />
    <glyph glyph-name="uni0304" unicode="&#x304;" horiz-adv-x="0" 
d="M27 641h-308l10 71h308z" />
    <glyph glyph-name="uni0306" unicode="&#x306;" horiz-adv-x="0" 
d="M-26.5 643q-46.5 -32 -105.5 -32q-60 0 -96.5 31t-42.5 81h70q24 -53 77 -53q28 0 52.5 15.5t39.5 37.5h72q-20 -48 -66.5 -80z" />
    <glyph glyph-name="uni0307" unicode="&#x307;" horiz-adv-x="0" 
d="M22 600h-108l18 123h108z" />
    <glyph glyph-name="uni0308" unicode="&#x308;" horiz-adv-x="0" 
d="M-136 610h-96l16 113h96zM24 610h-97l16 113h97z" />
    <glyph glyph-name="uni030A" unicode="&#x30a;" horiz-adv-x="0" 
d="M-7.5 601q-34.5 -30 -78.5 -30t-69.5 30.5t-19.5 74.5q6 42 40.5 71.5t77.5 29.5q44 0 70 -30t20 -73t-40.5 -73zM-30 712q-13 15 -35 15t-40 -15t-21 -38q-3 -21 10.5 -37.5t35.5 -16.5q21 0 39 16.5t21 37.5q3 23 -10 38z" />
    <glyph glyph-name="uni030B" unicode="&#x30b;" horiz-adv-x="0" 
d="M-151 687q4 -7 3 -11q-1 -5 -9 -11l-142 -99q-9 -5 -12 -5q-5 0 -7 5l-16 22q-3 4 -3 8.5t4 6.5l140 124q3 3 8 3t7 -4zM18 687q4 -7 3 -10q-1 -7 -10 -12l-142 -99q-9 -5 -12 -5q-4 0 -8 5l-14 22q-3 4 -3.5 8.5t3.5 6.5l141 124q3 3 8 3q4 0 6 -4z" />
    <glyph glyph-name="uni030C" unicode="&#x30c;" horiz-adv-x="0" 
d="M46 723l-141 -119h-73l-110 119h87l65 -69l80 69h92z" />
    <glyph glyph-name="uni030F" unicode="&#x30f;" horiz-adv-x="0" 
d="M-154 597l-39 -40l-139 117l59 61zM14 597l-40 -40l-138 117l59 61z" />
    <glyph glyph-name="uni0311" unicode="&#x311;" horiz-adv-x="0" 
d="M-27 651q-9 22 -28.5 37.5t-47.5 15.5q-54 0 -93 -53h-70q20 50 65.5 81t105.5 31q59 0 96.5 -32t43.5 -80h-72z" />
    <glyph glyph-name="dotbelowcomb" unicode="&#x323;" horiz-adv-x="0" 
d="M-83 -145q-1 -9 -5.5 -12.5t-13.5 -3.5h-59q-8 0 -10 3t-1 11l12 83q2 13 11 13h69q10 0 8 -13z" />
    <glyph glyph-name="uni0326" unicode="&#x326;" horiz-adv-x="0" 
d="M-179 -230q-2 4 1 9l35 49q4 4 4 8q0 3 -2 5.5t-6 2.5h-8q-14 0 -12 14l9 63q2 12 13 12h63q10 0 8 -10l-11 -79q-1 -5 -3 -9l-48 -60q-5 -5 -9 -7t-13 -2h-14q-5 0 -7 4z" />
    <glyph glyph-name="uni0327" unicode="&#x327;" horiz-adv-x="0" 
d="M-121 -186q-35 -21 -81 -21q-60 0 -96 25l22 41q30 -24 67 -24q54 0 59 36q3 21 -15 31.5t-60 11.5q-10 0 -6 7l49 84h52l-33 -60q48 -2 67 -23.5t15 -50.5q-5 -36 -40 -57z" />
    <glyph glyph-name="uni0328" unicode="&#x328;" horiz-adv-x="0" 
d="M-240.5 -32q25.5 23 84.5 41l74 -5q-55 -21 -79.5 -39.5t-27.5 -41.5q-3 -18 6.5 -27t32.5 -9q32 0 62 14q3 2 7 2q5 0 4 -8l-4 -32q-1 -8 -9 -12q-14 -7 -39 -12t-51 -5q-49 0 -72 21t-18 58q4 32 29.5 55z" />
    <glyph glyph-name="uni0394" unicode="&#x394;" horiz-adv-x="656" 
d="M-3 75l327 649l117 -1l144 -646l-11 -77h-588zM473 87l-109 526l-256 -526h365z" />
    <glyph glyph-name="uni03A9" unicode="&#x3a9;" horiz-adv-x="758" 
d="M307.5 613.5q-50.5 -33.5 -83 -92t-42.5 -133.5q-15 -105 20.5 -174.5t92.5 -119.5q7 -7 10 -13.5t2 -16.5l-9 -64h-263l13 89h150q-37 34 -66.5 68.5t-52.5 98t-12 146.5q12 86 61 162t128.5 122.5t177.5 46.5q100 0 166 -47.5t92 -123.5t15 -159q-11 -78 -49.5 -139.5
t-73 -93.5t-81.5 -69q-4 -3 -5 -7q-1 -5 7 -5h134l-13 -89h-263l12 82q188 123 214 308q10 74 -5 132t-56.5 91.5t-105.5 33.5t-114.5 -33.5z" />
    <glyph glyph-name="uni03BC" unicode="&#x3bc;" horiz-adv-x="592" 
d="M385 145l53 372h103l-74 -517h-99l11 80q-52 -42 -90.5 -62t-76.5 -24q-53 -3 -77 19l-25 -174h-103l96 678h103l-52 -366q-5 -35 18 -59t62 -24q66 0 151 77z" />
    <glyph glyph-name="pi" unicode="&#x3c0;" horiz-adv-x="658" 
d="M536 443l-62 -443h-98l61 443h-202q-16 -116 -51.5 -243t-69.5 -200h-94q36 89 68.5 207.5t47.5 225.5q1 10 -7 10h-89l11 74h606l-11 -74h-110z" />
    <glyph glyph-name="uni1E0C" unicode="&#x1e0c;" horiz-adv-x="713" 
d="M322 722q195 -3 273 -92.5t53 -263.5q-51 -366 -435 -366h-168l102 723q114 0 175 -1zM161 87h64q134 0 215 65.5t101 212.5q21 146 -39 209t-195 63h-68zM328 -145q-1 -9 -5.5 -12.5t-13.5 -3.5h-59q-8 0 -10 3t-1 11l12 83q2 13 11 13h69q10 0 8 -13z" />
    <glyph glyph-name="uni1E0D" unicode="&#x1e0d;" horiz-adv-x="589" 
d="M65 59q-48 69 -30 195q18 125 84.5 199t167.5 74q89 0 142 -66l39 282h103l-104 -743h-78l3 73q-26 -31 -71.5 -57t-107.5 -26q-100 0 -148 69zM313 85q32 18 53 48t26 63l23 166q-29 87 -112 87q-65 0 -109.5 -48.5t-57.5 -143.5q-13 -96 17.5 -143t91.5 -47q36 0 68 18
zM267 -145q-1 -9 -5.5 -12.5t-13.5 -3.5h-59q-8 0 -10 3t-1 11l12 83q2 13 11 13h69q10 0 8 -13z" />
    <glyph glyph-name="uni1E24" unicode="&#x1e24;" horiz-adv-x="712" 
d="M193 329l-46 -329h-102l102 723h102l-43 -305h326l43 305h102l-102 -723h-102l46 329h-326zM332 -145q-1 -9 -5.5 -12.5t-13.5 -3.5h-59q-8 0 -10 3t-1 11l12 83q2 13 11 13h69q10 0 8 -13z" />
    <glyph glyph-name="uni1E25" unicode="&#x1e25;" 
d="M134 743h100l-41 -298q41 30 65 45t53 24t66 9q75 0 114.5 -43t30.5 -112l-52 -368h-102l49 350q6 43 -15.5 67t-67.5 24q-38 0 -72.5 -18t-76.5 -55l-52 -368h-103zM281 -145q-1 -9 -5.5 -12.5t-13.5 -3.5h-59q-8 0 -10 3t-1 11l12 83q2 13 11 13h69q10 0 8 -13z" />
    <glyph glyph-name="uni1E44" unicode="&#x1e44;" horiz-adv-x="755" 
d="M720 723l-102 -723h-91l-302 557l-78 -557h-102l102 723h98l296 -547l77 547h102zM508 806h-108l18 123h108z" />
    <glyph glyph-name="uni1E45" unicode="&#x1e45;" 
d="M103 517h100l-10 -71q64 78 171 78q50 0 88 -21.5t56.5 -63t10.5 -98.5l-48 -341h-103l46 330q7 52 -18 81.5t-74 29.5q-54 0 -94 -25t-47 -71l-48 -345h-103zM396 600h-108l18 123h108z" />
    <glyph glyph-name="uni1E5A" unicode="&#x1e5a;" horiz-adv-x="680" 
d="M462 0l-86 305h-186l-43 -305h-102l102 723h284q118 0 170.5 -53t38.5 -148q-20 -143 -166 -199l96 -323h-108zM479.5 421.5q46.5 32.5 55.5 95.5q9 61 -24.5 92.5t-100.5 31.5h-173l-35 -252h153q78 0 124.5 32.5zM315 -145q-1 -9 -5.5 -12.5t-13.5 -3.5h-59q-8 0 -10 3
t-1 11l12 83q2 13 11 13h69q10 0 8 -13z" />
    <glyph glyph-name="uni1E5B" unicode="&#x1e5b;" horiz-adv-x="394" 
d="M103 517h98l-16 -113q32 53 89 88t116 35l-14 -98q-53 3 -97 -14.5t-71.5 -48t-31.5 -62.5l-43 -304h-103zM110 -145q-1 -9 -5.5 -12.5t-13.5 -3.5h-59q-8 0 -10 3t-1 11l12 83q2 13 11 13h69q10 0 8 -13z" />
    <glyph glyph-name="uni1E62" unicode="&#x1e62;" horiz-adv-x="674" 
d="M163.5 13q-60.5 23 -96.5 67.5t-36 108.5l107 5q5 -57 51.5 -88.5t116.5 -31.5q77 0 131 30.5t61 82.5q6 46 -22 74t-90 41l-136 32q-82 17 -121 64t-30 121q9 62 50 110.5t106 75.5t141 27q82 0 138 -28.5t83 -75.5t25 -103l-105 -4q-1 65 -42 95.5t-110 30.5
q-65 0 -116 -31.5t-59 -85.5q-5 -39 19 -65t88 -42l134 -31q177 -38 153 -204q-8 -55 -48 -100.5t-107.5 -71.5t-152.5 -26q-72 0 -132.5 23zM312 -145q-1 -9 -5.5 -12.5t-13.5 -3.5h-59q-8 0 -10 3t-1 11l12 83q2 13 11 13h69q10 0 8 -13z" />
    <glyph glyph-name="uni1E63" unicode="&#x1e63;" horiz-adv-x="509" 
d="M71 29q-53 39 -56 111l88 9q14 -85 116 -85q52 0 90 20.5t43 55.5q8 55 -67 73l-99 21q-69 16 -98.5 49.5t-22.5 87.5q10 72 70 114t153 42q94 0 140.5 -42.5t39.5 -109.5l-88 -5q-4 84 -105 84q-45 0 -77.5 -17.5t-38.5 -58.5q-3 -23 13.5 -39t63.5 -27l96 -24
q68 -17 92.5 -56.5t17.5 -86.5q-6 -46 -38 -81.5t-83 -54.5t-113 -19q-84 0 -137 39zM233 -145q-1 -9 -5.5 -12.5t-13.5 -3.5h-59q-8 0 -10 3t-1 11l12 83q2 13 11 13h69q10 0 8 -13z" />
    <glyph glyph-name="uni1E6C" unicode="&#x1e6c;" horiz-adv-x="580" 
d="M70 723h552l-13 -93h-219l-89 -630h-103l89 630h-230zM278 -145q-1 -9 -5.5 -12.5t-13.5 -3.5h-59q-8 0 -10 3t-1 11l12 83q2 13 11 13h69q10 0 8 -13z" />
    <glyph glyph-name="uni1E6D" unicode="&#x1e6d;" horiz-adv-x="398" 
d="M243 443l-42 -310q-5 -37 4.5 -50t34.5 -13h72l-9 -64q-24 -9 -80 -9q-81 0 -108 32t-18 98l44 316h-84l11 74h87l35 169h87l-23 -169h117l-11 -74h-117zM238 -145q-1 -9 -5.5 -12.5t-13.5 -3.5h-59q-8 0 -10 3t-1 11l12 83q2 13 11 13h69q10 0 8 -13z" />
    <glyph glyph-name="Wgrave" unicode="&#x1e80;" horiz-adv-x="956" 
d="M676 0h-91l-78 544l-233 -544h-89l-107 723h103l76 -558l237 558h78l79 -558l237 558h102zM678 841l-24 -50l-244 73l36 75z" />
    <glyph glyph-name="wgrave" unicode="&#x1e81;" horiz-adv-x="780" 
d="M548 0h-88l-66 369l-165 -369h-87l-92 517h94l64 -383l171 383h76l66 -383l168 383h95zM562 635l-24 -50l-244 73l36 75z" />
    <glyph glyph-name="Wacute" unicode="&#x1e82;" horiz-adv-x="956" 
d="M676 0h-91l-78 544l-233 -544h-89l-107 723h103l76 -558l237 558h78l79 -558l237 558h102zM692 864l-264 -73l-10 50l260 98z" />
    <glyph glyph-name="wacute" unicode="&#x1e83;" horiz-adv-x="780" 
d="M548 0h-88l-66 369l-165 -369h-87l-92 517h94l64 -383l171 383h76l66 -383l168 383h95zM576 658l-264 -73l-10 50l260 98z" />
    <glyph glyph-name="Wdieresis" unicode="&#x1e84;" horiz-adv-x="956" 
d="M676 0h-91l-78 544l-233 -544h-89l-107 723h103l76 -558l237 558h78l79 -558l237 558h102zM518 816h-96l16 113h96zM678 816h-97l16 113h97z" />
    <glyph glyph-name="wdieresis" unicode="&#x1e85;" horiz-adv-x="780" 
d="M548 0h-88l-66 369l-165 -369h-87l-92 517h94l64 -383l171 383h76l66 -383l168 383h95zM402 610h-96l16 113h96zM562 610h-97l16 113h97z" />
    <glyph glyph-name="uni1E92" unicode="&#x1e92;" horiz-adv-x="633" 
d="M12 55l472 580h-373l13 88h517l-8 -52l-476 -582h392l-13 -89h-532zM304 -145q-1 -9 -5.5 -12.5t-13.5 -3.5h-59q-8 0 -10 3t-1 11l12 83q2 13 11 13h69q10 0 8 -13z" />
    <glyph glyph-name="uni1E93" unicode="&#x1e93;" horiz-adv-x="481" 
d="M0 60l346 388h-270l10 69h395l-9 -60l-346 -388h296l-10 -69h-420zM229 -145q-1 -9 -5.5 -12.5t-13.5 -3.5h-59q-8 0 -10 3t-1 11l12 83q2 13 11 13h69q10 0 8 -13z" />
    <glyph glyph-name="uni1EB8" unicode="&#x1eb8;" horiz-adv-x="625" 
d="M147 723h463l-14 -89h-360l-32 -225h323l-12 -88h-323l-32 -230l370 -1l-13 -90h-472zM320 -145q-1 -9 -5.5 -12.5t-13.5 -3.5h-59q-8 0 -10 3t-1 11l12 83q2 13 11 13h69q10 0 8 -13z" />
    <glyph glyph-name="uni1EB9" unicode="&#x1eb9;" horiz-adv-x="558" 
d="M156 114.5q31 -46.5 99 -46.5q95 0 133 76l91 -10q-25 -66 -90 -105t-143 -39q-73 0 -125 31.5t-75 91.5t-11 140q11 81 48 143t96 96.5t133 34.5q109 0 159 -69t33 -188l-5 -36h-364q-10 -73 21 -119.5zM411 302q9 66 -19 107.5t-92 41.5q-43 0 -76.5 -21.5t-53.5 -55.5
t-26 -72h267zM258 -145q-1 -9 -5.5 -12.5t-13.5 -3.5h-59q-8 0 -10 3t-1 11l12 83q2 13 11 13h69q10 0 8 -13z" />
    <glyph glyph-name="uni1EBC" unicode="&#x1ebc;" horiz-adv-x="625" 
d="M147 723h463l-14 -89h-360l-32 -225h323l-12 -88h-323l-32 -230l370 -1l-13 -90h-472zM470 837q-30 0 -68 14q-14 5 -29.5 8.5t-29.5 3.5q-19 0 -31.5 -5t-32.5 -16q-4 -3 -8 -3t-6 8l-7 31q-1 2 0 6q1 5 8 10q20 15 38.5 23.5t42.5 8.5q17 0 36 -4.5t35 -10.5
q37 -13 60 -13q29 0 63 20q4 3 8 3q6 0 8 -8l5 -37l1 -4q-1 -5 -12 -12q-34 -23 -81 -23z" />
    <glyph glyph-name="uni1EBD" unicode="&#x1ebd;" horiz-adv-x="558" 
d="M156 114.5q31 -46.5 99 -46.5q95 0 133 76l91 -10q-25 -66 -90 -105t-143 -39q-73 0 -125 31.5t-75 91.5t-11 140q11 81 48 143t96 96.5t133 34.5q109 0 159 -69t33 -188l-5 -36h-364q-10 -73 21 -119.5zM411 302q9 66 -19 107.5t-92 41.5q-43 0 -76.5 -21.5t-53.5 -55.5
t-26 -72h267zM394 631q-30 0 -68 14q-14 5 -29.5 8.5t-29.5 3.5q-19 0 -31.5 -5t-32.5 -16q-4 -3 -8 -3t-6 8l-7 31q-1 2 0 6q1 5 8 10q20 15 38.5 23.5t42.5 8.5q17 0 36 -4.5t35 -10.5q37 -13 60 -13q29 0 63 20q4 3 8 3q6 0 8 -8l5 -37l1 -4q-1 -5 -12 -12
q-34 -23 -81 -23z" />
    <glyph glyph-name="uni1ECA" unicode="&#x1eca;" horiz-adv-x="283" 
d="M249 723l-102 -723h-102l102 723h102zM125 -145q-1 -9 -5.5 -12.5t-13.5 -3.5h-59q-8 0 -10 3t-1 11l12 83q2 13 11 13h69q10 0 8 -13z" />
    <glyph glyph-name="uni1ECB" unicode="&#x1ecb;" horiz-adv-x="277" 
d="M225 619h-108l17 124h108zM136 0h-103l73 517h103zM128 -145q-1 -9 -5.5 -12.5t-13.5 -3.5h-59q-8 0 -10 3t-1 11l12 83q2 13 11 13h69q10 0 8 -13z" />
    <glyph glyph-name="uni1ECC" unicode="&#x1ecc;" horiz-adv-x="733" 
d="M157 33.5q-65 43.5 -92 126.5t-11 199q16 117 67.5 201.5t129 128.5t174.5 44q96 0 161 -44t91.5 -128t10.5 -201q-16 -116 -66 -199t-127 -127t-175 -44t-163 43.5zM575 359q20 145 -22 215.5t-140 70.5q-99 0 -162 -71t-84 -215q-20 -143 24 -212t143 -69
q202 0 241 281zM347 -145q-1 -9 -5.5 -12.5t-13.5 -3.5h-59q-8 0 -10 3t-1 11l12 83q2 13 11 13h69q10 0 8 -13z" />
    <glyph glyph-name="uni1ECD" unicode="&#x1ecd;" horiz-adv-x="568" 
d="M113.5 23.5q-49.5 33.5 -69.5 93.5t-9 138q11 80 49 141.5t97.5 96t131.5 34.5q74 0 122.5 -34.5t68.5 -96t9 -140.5q-11 -78 -48 -138.5t-95.5 -94t-132.5 -33.5t-123.5 33.5zM359.5 122q41.5 53 52.5 137q12 84 -14.5 136.5t-95.5 52.5t-111 -52.5t-54 -136.5
t15.5 -137t97.5 -53q68 0 109.5 53zM261 -145q-1 -9 -5.5 -12.5t-13.5 -3.5h-59q-8 0 -10 3t-1 11l12 83q2 13 11 13h69q10 0 8 -13z" />
    <glyph glyph-name="uni1EE4" unicode="&#x1ee4;" horiz-adv-x="695" 
d="M525.5 57.5q-74.5 -67.5 -213.5 -67.5q-140 0 -194.5 69t-35.5 204l65 460h105l-67 -473q-12 -85 24 -128t115 -43q80 0 129 42.5t61 128.5l67 473h103l-66 -469q-18 -129 -92.5 -196.5zM334 -145q-1 -9 -5.5 -12.5t-13.5 -3.5h-59q-8 0 -10 3t-1 11l12 83q2 13 11 13h69
q10 0 8 -13z" />
    <glyph glyph-name="uni1EE5" unicode="&#x1ee5;" 
d="M135.5 9.5q-42.5 18.5 -66.5 57.5t-16 98l50 353h103l-48 -342q-8 -54 23 -80.5t77 -26.5q50 0 88.5 29.5t46.5 82.5l48 337h103l-75 -517h-80l6 78q-23 -36 -72.5 -62t-97.5 -26q-47 0 -89.5 18.5zM274 -145q-1 -9 -5.5 -12.5t-13.5 -3.5h-59q-8 0 -10 3t-1 11l12 83
q2 13 11 13h69q10 0 8 -13z" />
    <glyph glyph-name="Ygrave" unicode="&#x1ef2;" horiz-adv-x="608" 
d="M353 307l-43 -307h-102l43 308l-189 415h112l141 -325l231 325h112zM509 841l-24 -50l-244 73l36 75z" />
    <glyph glyph-name="ygrave" unicode="&#x1ef3;" horiz-adv-x="537" 
d="M14.5 -162q-17.5 3 -25.5 6.5t-10 4.5l9 66l53 -2q52 -2 76 14t39 42l22 45l-131 503h103l92 -388l202 388h100l-293 -549q-42 -75 -87 -104t-104 -29q-28 0 -45.5 3zM448 635l-24 -50l-244 73l36 75z" />
    <glyph glyph-name="uni1EF8" unicode="&#x1ef8;" horiz-adv-x="608" 
d="M353 307l-43 -307h-102l43 308l-189 415h112l141 -325l231 325h112zM451 837q-30 0 -68 14q-14 5 -29.5 8.5t-29.5 3.5q-19 0 -31.5 -5t-32.5 -16q-4 -3 -8 -3t-6 8l-7 31q-1 2 0 6q1 5 8 10q20 15 38.5 23.5t42.5 8.5q17 0 36 -4.5t35 -10.5q37 -13 60 -13q29 0 63 20
q4 3 8 3q6 0 8 -8l5 -37l1 -4q-1 -5 -12 -12q-34 -23 -81 -23z" />
    <glyph glyph-name="uni1EF9" unicode="&#x1ef9;" horiz-adv-x="537" 
d="M14.5 -162q-17.5 3 -25.5 6.5t-10 4.5l9 66l53 -2q52 -2 76 14t39 42l22 45l-131 503h103l92 -388l202 388h100l-293 -549q-42 -75 -87 -104t-104 -29q-28 0 -45.5 3zM390 631q-30 0 -68 14q-14 5 -29.5 8.5t-29.5 3.5q-19 0 -31.5 -5t-32.5 -16q-4 -3 -8 -3t-6 8l-7 31
q-1 2 0 6q1 5 8 10q20 15 38.5 23.5t42.5 8.5q17 0 36 -4.5t35 -10.5q37 -13 60 -13q29 0 63 20q4 3 8 3q6 0 8 -8l5 -37l1 -4q-1 -5 -12 -12q-34 -23 -81 -23z" />
    <glyph glyph-name="endash" unicode="&#x2013;" horiz-adv-x="564" 
d="M483 211h-439l11 78l439 1z" />
    <glyph glyph-name="emdash" unicode="&#x2014;" horiz-adv-x="879" 
d="M798 211h-754l11 78l754 1z" />
    <glyph glyph-name="quoteleft" unicode="&#x2018;" horiz-adv-x="242" 
d="M170 628l45 -3l-17 -115h-121l15 101l107 143h45z" />
    <glyph glyph-name="quoteright" unicode="&#x2019;" horiz-adv-x="221" 
d="M143 605l-45 3l17 115h121l-15 -101l-107 -143h-45z" />
    <glyph glyph-name="quotesinglbase" unicode="&#x201a;" horiz-adv-x="235" 
d="M55 -2l-44 3l16 116h121l-14 -101l-108 -143h-45z" />
    <glyph glyph-name="quotedblleft" unicode="&#x201c;" horiz-adv-x="426" 
d="M90 580l108 143h45l-74 -126l44 -2l-17 -116h-121zM277 580l107 143h45l-74 -126l45 -2l-17 -116h-121z" />
    <glyph glyph-name="quotedblright" unicode="&#x201d;" horiz-adv-x="436" 
d="M143 605l-45 3l17 115h121l-15 -101l-107 -143h-45zM329 605l-45 3l17 115h121l-15 -101l-107 -143h-46z" />
    <glyph glyph-name="quotedblbase" unicode="&#x201e;" horiz-adv-x="445" 
d="M253 -2l-44 3l16 116h121l-14 -101l-108 -143h-45zM62 -2l-44 3l16 116h121l-14 -101l-108 -143h-45z" />
    <glyph glyph-name="dagger" unicode="&#x2020;" horiz-adv-x="466" 
d="M453 383l-180 15l-58 -559h-104l98 559l-184 -15l13 94l176 -13l21 259h105l-54 -259l180 13z" />
    <glyph glyph-name="daggerdbl" unicode="&#x2021;" horiz-adv-x="466" 
d="M240 156l183 15l-13 -94l-176 13l-19 -251h-105l52 251l-180 -13l13 94l179 -15l33 234l-183 -15l13 94l176 -13l22 267h105l-55 -267l180 13l-13 -94l-179 15z" />
    <glyph glyph-name="bullet" unicode="&#x2022;" horiz-adv-x="325" 
d="M81.5 295q-25.5 30 -19.5 73q6 42 40 72.5t76 30.5q43 0 69 -30.5t20 -72.5q-6 -43 -40.5 -73t-77.5 -30q-42 0 -67.5 30z" />
    <glyph glyph-name="ellipsis" unicode="&#x2026;" horiz-adv-x="783" 
d="M692 0h-120l18 125h120zM135 0h-120l18 125h120zM414 0h-120l18 125h120z" />
    <glyph glyph-name="perthousand" unicode="&#x2030;" horiz-adv-x="1314" 
d="M368 708q36 -26 51.5 -73t6.5 -108t-37.5 -107.5t-71.5 -72t-92 -25.5q-50 0 -86 25.5t-52 72t-7 107.5t38 108t72.5 73t92.5 26t85 -26zM212 -4l-65 1l590 734h65zM308 418q30 40 40 109t-9.5 110.5t-64.5 41.5t-75.5 -41.5t-40.5 -110.5t9 -109t65 -40t76 40zM778 377
q35 -26 51 -73t8 -108q-9 -61 -38 -108t-71.5 -72.5t-92.5 -25.5q-49 0 -85 25.5t-52 72.5t-7 108q8 60 37 107.5t72.5 73.5t92.5 26q50 0 85 -26zM1180.5 377q35.5 -26 51 -73.5t7.5 -107.5q-9 -61 -37.5 -108t-71 -72.5t-92.5 -25.5t-86 25.5t-52 72.5t-7 108
q8 60 37 107.5t73 73.5t93 26t84.5 -26zM717.5 88q31.5 41 40.5 107q10 68 -10 110t-64 42t-75 -42t-41 -110q-9 -66 10.5 -107t63.5 -41t75.5 41zM1120 88q31 41 40 107q10 68 -9.5 110t-63.5 42t-75.5 -42t-41.5 -110q-9 -66 11 -107t64 -41t75 41z" />
    <glyph glyph-name="guilsinglleft" unicode="&#x2039;" horiz-adv-x="281" 
d="M189 69h-56l-104 182l156 190h58l-125 -190z" />
    <glyph glyph-name="guilsinglright" unicode="&#x203a;" horiz-adv-x="280" 
d="M65 441h58l101 -190l-153 -182h-56l121 182z" />
    <glyph glyph-name="fraction" unicode="&#x2044;" horiz-adv-x="246" 
d="M-136 -4l-65 1l590 734h65z" />
    <glyph glyph-name="uni2070" unicode="&#x2070;" horiz-adv-x="411" 
d="M376 783q39 -61 23 -174q-16 -112 -72 -172t-135 -60q-78 0 -117.5 60t-23.5 172q16 113 73 174t135 61t117 -61zM328 609q13 93 -7.5 137.5t-68.5 44.5q-49 0 -83 -44.5t-47 -137.5q-13 -91 8.5 -134.5t70.5 -43.5q102 0 127 178z" />
    <glyph glyph-name="uni2074" unicode="&#x2074;" horiz-adv-x="411" 
d="M364 835l-40 -285h70l-8 -57h-70l-16 -113h-65l17 113h-211l8 59l250 283h65zM259 550l27 192l-170 -192h143z" />
    <glyph glyph-name="uni2075" unicode="&#x2075;" horiz-adv-x="396" 
d="M418 835l-12 -55h-221l-31 -140q33 15 56 22t53 7q68 0 106.5 -35.5t29.5 -104.5q-10 -72 -65 -113.5t-134 -41.5q-52 0 -94 20t-66 56l53 36q25 -31 47 -45t59 -14q54 0 88.5 27.5t40.5 72.5q6 42 -17.5 65t-67.5 23q-26 0 -49 -8t-54 -24q-3 -2 -5 -2t-3.5 1t-3.5 2
l-40 24l51 227h279z" />
    <glyph glyph-name="uni2076" unicode="&#x2076;" horiz-adv-x="399" 
d="M360 822.5q35 -26.5 39 -70.5l-58 -12q-10 28 -27.5 42t-51.5 14q-54 0 -91 -46t-49 -130l-2 -27q17 32 51.5 50.5t73.5 18.5q68 0 102 -38.5t26 -97.5q-9 -64 -60 -104t-120 -40q-82 0 -120 60t-23 166q16 113 74 177t145 64q56 0 91 -26.5zM155 590q-32 -21 -36 -53
q0 -51 20 -77t59 -26t69.5 25t36.5 64q5 38 -16.5 63t-60.5 25q-40 0 -72 -21z" />
    <glyph glyph-name="uni2077" unicode="&#x2077;" horiz-adv-x="361" 
d="M422 835l-10 -66q-71 -81 -139.5 -199t-85.5 -190h-71q20 74 81.5 186.5t150.5 213.5h-258l8 55h324z" />
    <glyph glyph-name="uni2078" unicode="&#x2078;" horiz-adv-x="396" 
d="M364 810q38 -35 30 -91q-6 -41 -33 -64.5t-52 -34.5q3 -2 27 -12.5t39 -37t9 -63.5q-8 -60 -61.5 -94.5t-133.5 -34.5q-77 0 -118 31.5t-33 87.5q5 34 30 63t70 48q-68 33 -59 103q5 37 29.5 67.5t63.5 48.5t86 18q68 0 106 -35zM183.5 772q-28.5 -21 -33.5 -54
q-7 -50 48 -64l56 -15q12 -2 29 9.5t31 31t17 39.5q5 33 -16.5 53.5t-63.5 20.5q-39 0 -67.5 -21zM278 449q30 20 35 54q4 26 -8.5 42t-43.5 25l-70 18q-11 4 -31.5 -6.5t-37 -31t-20.5 -44.5q-5 -37 20.5 -57t78.5 -20q47 0 77 20z" />
    <glyph glyph-name="uni2079" unicode="&#x2079;" horiz-adv-x="399" 
d="M80 406.5q-36 27.5 -41 70.5l60 11q9 -27 26.5 -41.5t50.5 -14.5q61 0 100 51t50 154q-17 -34 -51.5 -53.5t-76.5 -19.5q-68 0 -104 39.5t-28 99.5q9 64 60 103t121 39q82 0 120 -59.5t23 -165.5q-16 -117 -73.5 -179t-145.5 -62q-55 0 -91 27.5zM284.5 639
q32.5 22 36.5 53q0 51 -20.5 76.5t-59.5 25.5t-68.5 -24.5t-35.5 -63.5q-5 -38 15.5 -63.5t60.5 -25.5q39 0 71.5 22z" />
    <glyph glyph-name="colonmonetary" unicode="&#x20a1;" horiz-adv-x="586" 
d="M415.5 151.5q-44.5 -39.5 -103.5 -52.5l-41 -99l-62 2l37 91q-31 2 -57 9l-41 -102l-63 2l51 125q-49 33 -70.5 93.5t-10.5 138.5q14 100 71.5 171t141.5 92l41 100l64 1l-37 -93q29 0 56 -8l41 100l63 1l-51 -126q55 -42 69 -123l-86 -13q-24 48 -44.5 68t-58.5 20
q-67 0 -113.5 -50.5t-58.5 -137.5q-12 -88 20.5 -140t99.5 -52q42 0 73 24.5t60 69.5l80 -13q-26 -59 -70.5 -98.5z" />
    <glyph glyph-name="franc" unicode="&#x20a3;" horiz-adv-x="610" 
d="M242 635l-33 -238h299l-12 -86h-299l-17 -118h160l-9 -62h-160l-18 -131h-117l18 130h-91l9 63h91l75 530h481l-13 -88h-364z" />
    <glyph glyph-name="lira" unicode="&#x20a4;" horiz-adv-x="618" 
d="M455 37.5q-59 -37.5 -136 -37.5h-350l12 87h37q36 0 64.5 30t39.5 90q3 10 5 19l1 17q0 6 -7 6h-107l9 62h106l-2 85h-92l8 62h83l1 32q1 26 4 48q14 99 79.5 147t158.5 48q68 0 122.5 -34t70.5 -89l-95 -31q-11 33 -33.5 50.5t-62.5 17.5q-49 0 -84 -28t-42 -78
q-2 -17 -1 -73q0 -10 8 -10h154l-8 -62h-153l1 -85h140l-9 -61h-139q-7 -45 -28.5 -89.5t-53.5 -72.5h168q50 0 83.5 19t54.5 62l84 -22q-32 -72 -91 -109.5z" />
    <glyph glyph-name="uni20A6" unicode="&#x20a6;" horiz-adv-x="741" 
d="M697 438l-19 -130h50l-8 -58h-50l-35 -250h-91l-136 250h-209l-35 -250h-102l35 250h-102l8 58h102l18 129h-102l9 58h102l32 228h98l123 -228l218 1l32 227h102l-32 -227h50l-8 -58h-50zM234 495h42l-34 62zM595 438h-178l69 -130h90zM377 308l-70 129h-82l-18 -129h170
zM568 250h-50l40 -74z" />
    <glyph glyph-name="uni20A9" unicode="&#x20a9;" horiz-adv-x="1059" 
d="M924 486l-40 -95h171l-9 -61h-189l-143 -330h-91l-47 330l-123 -1l-141 -329h-89l-49 329h-160l9 62h142l-14 94h-115l9 62h97l-26 176h103l24 -176h214l75 176h78l25 -176h216l75 176h102l-77 -176h126l-9 -61h-144zM825 486h-182l14 -95h128zM567 391l-13 95l-34 -1
l-40 -94h87zM264 391h127l40 94h-180zM759 330h-94l24 -165zM365 329h-93l23 -164z" />
    <glyph glyph-name="dong" unicode="&#x20ab;" horiz-adv-x="509" 
d="M540 662l-7 -52h-61l-67 -478h-85l8 57q-31 -29 -62.5 -47t-81.5 -18q-77 0 -118 55.5t-26 158.5q9 67 40 118t77 79.5t98 28.5q36 0 59.5 -11.5t44.5 -33.5q4 -4 7 -4q5 0 7 10l12 85h-129l7 52h129l8 60h87l-8 -60h61zM361 454q-20 23 -41 34.5t-49 11.5q-53 0 -90 -41
t-48 -119t15 -116.5t77 -38.5q41 0 73 26.5t37 58.5zM24 56h373l-8 -56h-373z" />
    <glyph glyph-name="Euro" unicode="&#x20ac;" horiz-adv-x="609" 
d="M535 69q-42 -36 -95 -57.5t-109 -21.5q-115 0 -182.5 69.5t-74.5 192.5h-92l9 62h83q-14 23 -9 50q2 16 9 48h-83l8 61h91q41 123 127.5 191.5t200.5 68.5q56 0 104 -21t79 -58l-79 -61q-23 26 -48.5 40t-58.5 14q-72 0 -124.5 -43t-80.5 -130h191l-9 -62h-199
q10 -21 5 -49q-2 -17 -5 -49h199l-9 -62h-191q7 -86 48.5 -129t115.5 -43q34 0 68.5 15t63.5 38z" />
    <glyph glyph-name="uni20B9" unicode="&#x20b9;" horiz-adv-x="592" 
d="M620 666h-134q37 -37 38 -95h82l-8 -57h-81q-16 -63 -60 -102.5t-101 -58.5q-4 -1 -5.5 -4t-0.5 -7l85 -342h-126l-74 333h-223l11 78h196q75 0 118 24.5t57 78.5l-356 -1l8 58h355q-3 90 -129 90h-214l9 62l561 1z" />
    <glyph glyph-name="uni20BA" unicode="&#x20ba;" horiz-adv-x="582" 
d="M557 236q-54 -111 -142 -173.5t-212 -62.5h-128l31 221l-79 -27l-13 62l102 35l13 92l-87 -30l-15 63l112 38l38 269h117l-32 -226l140 48l14 -62l-164 -57l-13 -92l147 51l14 -62l-171 -59l-25 -176h46q131 2 216 169z" />
    <glyph glyph-name="uni2113" unicode="&#x2113;" horiz-adv-x="515" 
d="M195 100q18 -30 63 -30q46 0 85 29l-113 -109q-90 0 -117 46t-29.5 84t-3.5 45q0 6 -5 3l-52 -33l-19 61l87 58l34 245q16 115 76 174.5t143 59.5q74 0 105 -44t21 -116q-10 -68 -50.5 -128.5t-94.5 -109.5t-135 -113l-3 -23q-10 -69 8 -99zM203 313q177 141 195 270
q5 39 -9.5 60t-48.5 21q-43 0 -71 -40t-42 -137zM405 158l-8 -8q0 1 8 8zM397 150q-29 -34 -54 -51z" />
    <glyph glyph-name="uni2116" unicode="&#x2116;" horiz-adv-x="1162" 
d="M720 723l-102 -723h-91l-302 557l-78 -557h-102l102 723h98l296 -547l77 547h102zM1123.5 685.5q36.5 -46.5 25.5 -122.5q-10 -74 -59.5 -120t-121.5 -46t-108.5 46t-26.5 120q11 76 61 122.5t121 46.5q72 0 108.5 -46.5zM941 651q-26 -30 -33 -85q-8 -57 8.5 -87.5
t58.5 -30.5t68 30.5t34 87.5q8 55 -10 85t-59 30t-67 -30z" />
    <glyph glyph-name="uni2117" unicode="&#x2117;" horiz-adv-x="819" 
d="M181 40q-78 50 -116 135t-24 187q14 100 76 185.5t154 135.5t193 50t179.5 -50t116.5 -135.5t24 -185.5q-14 -102 -76 -187t-154.5 -135t-193.5 -50t-179 50zM527 94q74 38 123.5 107.5t62.5 160.5q13 90 -17.5 160t-94 108.5t-146.5 38.5q-85 0 -159 -38.5t-123 -108.5
t-62 -160q-13 -91 17 -160.5t93 -107.5t148 -38q84 0 158 38zM542 348.5q-43 -32.5 -106 -32.5h-93l-21 -150h-72l55 388h158q66 0 102 -28t28 -85q-8 -60 -51 -92.5zM451 499h-82l-18 -129h86q32 0 55.5 16.5t27.5 48.5q9 64 -69 64z" />
    <glyph glyph-name="uni2120" unicode="&#x2120;" horiz-adv-x="976" 
d="M85 8q-38 14 -60.5 42t-22.5 68l67 3q3 -35 32 -55t73 -20q48 0 82 19t38 52q4 29 -13.5 46.5t-56.5 25.5l-85 20q-51 10 -75.5 39.5t-18.5 75.5q5 39 31 69.5t66.5 47t87.5 16.5q52 0 86.5 -17.5t51.5 -47t16 -64.5l-66 -2q0 40 -25.5 59t-69.5 19q-40 0 -72 -19.5
t-37 -53.5q-3 -24 12 -40.5t55 -26.5l84 -19q110 -24 95 -128q-5 -34 -30 -62.5t-67 -44.5t-95 -16q-45 0 -83 14zM496 452h89l79 -364l184 364h88l-63 -452h-65l50 362l-178 -362h-57l-75 359l-51 -359h-65z" />
    <glyph glyph-name="trademark" unicode="&#x2122;" horiz-adv-x="917" 
d="M26 452h346l-9 -58h-137l-55 -394h-65l56 394h-144zM438 452h89l79 -364l184 364h88l-64 -452h-64l50 362l-178 -362h-57l-75 359l-51 -359h-65z" />
    <glyph glyph-name="estimated" unicode="&#x212e;" horiz-adv-x="819" 
d="M536 33q-85 -43 -176 -43q-101 0 -179 50t-116 135t-24 187q14 100 76 185.5t154 135.5t193 50q99 0 178 -48.5t118 -131t26 -178.5q-1 -7 -4.5 -10t-10.5 -3h-541l-39 -280q69 -54 174 -54q76 0 148.5 33.5t125.5 86.5h49q-67 -72 -152 -115zM279 647q-10 -6 -11 -17
l-33 -228h355l35 246q-71 45 -167 45q-98 0 -179 -46z" />
    <glyph glyph-name="uni2153" unicode="&#x2153;" horiz-adv-x="940" 
d="M129 657l-90 -30l7 48l120 56h40l-64 -455h-66zM161 -4l-65 1l590 734h65zM652.5 434q48.5 24 110.5 24q70 0 110 -33t33 -83q-10 -73 -100 -102q43 -13 67 -42.5t18 -72.5q-5 -39 -33 -69.5t-71.5 -47.5t-93.5 -17q-68 0 -107.5 22.5t-49.5 77.5l59 10q26 -56 103 -56
q50 0 83 22t37 56q5 38 -22.5 60.5t-71.5 22.5l-61 1l8 53l51 1q45 1 77.5 22.5t36.5 53.5q4 30 -19.5 49t-62.5 19q-78 0 -113 -56l-56 11q19 50 67.5 74z" />
    <glyph glyph-name="uni2154" unicode="&#x2154;" horiz-adv-x="1022" 
d="M15 332l165 139q63 53 86.5 80.5t28.5 57.5q5 37 -18 56t-57 19q-32 0 -61 -16t-49 -49l-56 11q22 52 67 81t110 29q66 0 102.5 -34.5t28.5 -94.5q-5 -38 -30 -70.5t-85 -85.5l-139 -120h220l-8 -56h-313zM243 -4l-65 1l590 734h65zM734.5 434q48.5 24 110.5 24
q70 0 110 -33t33 -83q-10 -73 -100 -102q43 -13 67 -42.5t18 -72.5q-5 -39 -33 -69.5t-71.5 -47.5t-93.5 -17q-68 0 -107.5 22.5t-49.5 77.5l59 10q26 -56 103 -56q50 0 83 22t37 56q5 38 -22.5 60.5t-71.5 22.5l-61 1l8 53l51 1q45 1 77.5 22.5t36.5 53.5q4 30 -19.5 49
t-62.5 19q-78 0 -113 -56l-56 11q19 50 67.5 74z" />
    <glyph glyph-name="oneeighth" unicode="&#x215b;" horiz-adv-x="942" 
d="M129 657l-90 -30l7 48l120 56h40l-64 -455h-66zM161 -4l-65 1l590 734h65zM855 422q38 -35 31 -91q-6 -41 -33.5 -64.5t-51.5 -34.5q3 -2 26.5 -12.5t38.5 -37t10 -63.5q-8 -60 -61.5 -94.5t-133.5 -34.5q-77 0 -118.5 31.5t-33.5 87.5q5 34 30 63t70 48q-68 33 -59 103
q5 37 29.5 67.5t63.5 48.5t86 18q68 0 106 -35zM674.5 384q-28.5 -21 -33.5 -54q-7 -50 48 -64l56 -15q12 -2 29 9.5t31.5 31t17.5 39.5q5 33 -17 53.5t-64 20.5q-39 0 -67.5 -21zM769 61q30 20 35 54q4 26 -8.5 42t-42.5 25l-71 18q-11 4 -31 -6.5t-37 -31t-20 -44.5
q-5 -37 20 -57t78 -20q47 0 77 20z" />
    <glyph glyph-name="threeeighths" unicode="&#x215c;" horiz-adv-x="1039" 
d="M146 716q49 24 111 24q70 0 110 -33t33 -83q-10 -73 -101 -102q43 -13 67 -42.5t18 -72.5q-5 -39 -33 -69.5t-71.5 -47.5t-93.5 -17q-68 0 -107 22.5t-50 77.5l60 10q26 -56 103 -56q50 0 82.5 22t37.5 56q5 38 -22.5 60.5t-71.5 22.5l-61 1l7 53l51 1q45 1 77.5 22.5
t37.5 53.5q4 30 -19.5 49t-62.5 19q-78 0 -113 -56l-57 11q19 50 68 74zM258 -4l-65 1l590 734h65zM952 422q38 -35 31 -91q-6 -41 -33.5 -64.5t-51.5 -34.5q3 -2 26.5 -12.5t38.5 -37t10 -63.5q-8 -60 -61.5 -94.5t-133.5 -34.5q-77 0 -118.5 31.5t-33.5 87.5q5 34 30 63
t70 48q-68 33 -59 103q5 37 29.5 67.5t63.5 48.5t86 18q68 0 106 -35zM771.5 384q-28.5 -21 -33.5 -54q-7 -50 48 -64l56 -15q12 -2 29 9.5t31.5 31t17.5 39.5q5 33 -17 53.5t-64 20.5q-39 0 -67.5 -21zM866 61q30 20 35 54q4 26 -8.5 42t-42.5 25l-71 18q-11 4 -31 -6.5
t-37 -31t-20 -44.5q-5 -37 20 -57t78 -20q47 0 77 20z" />
    <glyph glyph-name="fiveeighths" unicode="&#x215d;" horiz-adv-x="1041" 
d="M403 731l-12 -55h-221l-31 -140q33 15 56 22t53 7q68 0 106.5 -35.5t29.5 -104.5q-10 -72 -65 -113.5t-134 -41.5q-52 0 -94 20t-66 56l53 36q25 -31 47 -45t59 -14q54 0 88.5 27.5t40.5 72.5q6 42 -17.5 65t-67.5 23q-26 0 -49 -8t-54 -24q-3 -2 -5 -2t-3.5 1t-3.5 2
l-40 24l51 227h279zM260 -4l-65 1l590 734h65zM954 422q38 -35 31 -91q-6 -41 -33.5 -64.5t-51.5 -34.5q3 -2 26.5 -12.5t38.5 -37t10 -63.5q-8 -60 -61.5 -94.5t-133.5 -34.5q-77 0 -118.5 31.5t-33.5 87.5q5 34 30 63t70 48q-68 33 -59 103q5 37 29.5 67.5t63.5 48.5
t86 18q68 0 106 -35zM773.5 384q-28.5 -21 -33.5 -54q-7 -50 48 -64l56 -15q12 -2 29 9.5t31.5 31t17.5 39.5q5 33 -17 53.5t-64 20.5q-39 0 -67.5 -21zM868 61q30 20 35 54q4 26 -8.5 42t-42.5 25l-71 18q-11 4 -31 -6.5t-37 -31t-20 -44.5q-5 -37 20 -57t78 -20
q47 0 77 20z" />
    <glyph glyph-name="seveneighths" unicode="&#x215e;" horiz-adv-x="1006" 
d="M407 730l-10 -66q-71 -81 -139.5 -199t-85.5 -190h-71q20 74 81.5 186.5t150.5 213.5h-258l8 55h324zM225 -4l-65 1l590 734h65zM919 422q38 -35 31 -91q-6 -41 -33.5 -64.5t-51.5 -34.5q3 -2 26.5 -12.5t38.5 -37t10 -63.5q-8 -60 -61.5 -94.5t-133.5 -34.5
q-77 0 -118.5 31.5t-33.5 87.5q5 34 30 63t70 48q-68 33 -59 103q5 37 29.5 67.5t63.5 48.5t86 18q68 0 106 -35zM738.5 384q-28.5 -21 -33.5 -54q-7 -50 48 -64l56 -15q12 -2 29 9.5t31.5 31t17.5 39.5q5 33 -17 53.5t-64 20.5q-39 0 -67.5 -21zM833 61q30 20 35 54
q4 26 -8.5 42t-42.5 25l-71 18q-11 4 -31 -6.5t-37 -31t-20 -44.5q-5 -37 20 -57t78 -20q47 0 77 20z" />
    <glyph glyph-name="partialdiff" unicode="&#x2202;" horiz-adv-x="587" 
d="M121 667q30 27 86 46.5t116 19.5q128 0 188.5 -94t34.5 -277q-25 -176 -106 -274t-207 -98q-70 0 -120 30.5t-71.5 83.5t-12.5 119q9 65 45 116t93.5 79t130.5 28q48 0 76 -11.5t63 -36.5q6 -4 9 -4q5 0 6 8q16 115 -25 182t-139 67q-44 0 -76.5 -12t-69.5 -35zM239 69
q63 0 114.5 56t73.5 147q2 6 3 15q2 12 -4 20q-16 26 -53 44.5t-78 18.5q-63 0 -109.5 -43t-55.5 -109q-6 -43 6 -77t39 -53t63 -19h1z" />
    <glyph glyph-name="emptyset" unicode="&#x2205;" horiz-adv-x="580" 
d="M487 483q29 -55 20 -119q-8 -58 -44 -107t-88.5 -77.5t-110.5 -28.5q-76 0 -125 47l-76 -62l-34 41l76 62q-32 56 -23 125q8 58 43.5 106.5t88 77t110.5 28.5q79 0 131 -51l66 54l33 -41zM150 276l260 212q-39 34 -94 34q-43 0 -82.5 -21.5t-65.5 -58t-32 -78.5
q-6 -47 14 -88zM442 446l-258 -211q35 -30 88 -30q43 0 82.5 21.5t66 58t32.5 79.5q7 43 -11 82z" />
    <glyph glyph-name="product" unicode="&#x220f;" horiz-adv-x="659" 
d="M684 635h-98l-89 -635h-107l89 635h-216l-89 -635h-108l89 635h-97l13 88h626z" />
    <glyph glyph-name="summation" unicode="&#x2211;" horiz-adv-x="534" 
d="M-20 0l9 66l255 294l-160 290l11 73h450l-12 -85h-310l150 -268l-244 -281h345l-13 -89h-481z" />
    <glyph glyph-name="minus" unicode="&#x2212;" horiz-adv-x="561" 
d="M498 325l-439 -1l10 78l440 1z" />
    <glyph glyph-name="uni2219" unicode="&#x2219;" horiz-adv-x="326" 
d="M112 321q-16 19 -12 46t25.5 45.5t47.5 18.5q27 0 43 -18.5t13 -45.5q-4 -27 -26 -46t-49 -19q-26 0 -42 19z" />
    <glyph glyph-name="radical" unicode="&#x221a;" horiz-adv-x="642" 
d="M316 -161h-107l-101 442l-80 -29l-14 63l169 59l91 -431l351 882h89z" />
    <glyph glyph-name="infinity" unicode="&#x221e;" horiz-adv-x="738" 
d="M681 272q-7 -52 -34.5 -90t-67 -58.5t-84.5 -20.5q-48 0 -76 22t-62 69q-1 1 -3.5 4t-4.5 3t-9 -7q-4 -4 -28 -28.5t-63 -43.5t-80 -19q-42 0 -75 20.5t-48.5 58t-8.5 86.5q10 74 63.5 119.5t127.5 45.5q34 0 57.5 -10.5t40 -26.5t39.5 -46q7 -8 11 -8q3 0 12 8
q39 38 76 60.5t87 22.5q67 0 104 -43.5t27 -115.5zM188 175q31 0 62.5 21.5t56.5 49.5q10 11 10 18q1 6 -7 22q-20 39 -43.5 58.5t-55.5 19.5q-39 0 -67 -26t-34 -67q-6 -42 16.5 -69t59.5 -27h2zM536 364q-31 0 -58.5 -19t-63.5 -55q-10 -11 -11 -19q-1 -9 5 -19
q44 -77 106 -77q37 0 63 29t31 66q5 39 -14.5 66.5t-56.5 27.5h-1z" />
    <glyph glyph-name="integral" unicode="&#x222b;" horiz-adv-x="445" 
d="M259.5 781q51.5 54 130.5 54q39 0 63.5 -6t46.5 -21l-37 -89q-21 12 -38 17.5t-40 5.5q-35 0 -60 -26t-33 -81q-9 -67 -14 -132.5t-11 -180.5q-5 -101 -9 -161t-12 -116q-15 -106 -66.5 -161t-128.5 -55q-39 0 -62.5 6t-45.5 21l36 88q21 -12 38 -17t39 -5q35 0 59.5 26
t32.5 82q10 68 15 139t9 173q5 100 9 161.5t12 118.5q15 105 66.5 159z" />
    <glyph glyph-name="approxequal" unicode="&#x2248;" horiz-adv-x="576" 
d="M470.5 403q-36.5 -19 -79.5 -19q-26 0 -46 6.5t-48 20.5q-25 13 -43.5 19.5t-41.5 6.5q-35 0 -62 -15.5t-56 -43.5l-21 57q40 35 73.5 53.5t75.5 18.5q26 0 47.5 -7t47.5 -21q27 -14 44.5 -20t38.5 -6q60 0 109 58l23 -57q-25 -32 -61.5 -51zM442.5 202
q-36.5 -19 -79.5 -19q-28 0 -48.5 7t-48.5 22q-24 13 -42 19t-40 6q-34 0 -61 -15.5t-57 -43.5l-21 57q40 35 73.5 53t75.5 18q26 0 47.5 -7t47.5 -21q27 -14 44 -20t38 -6q59 0 110 58l23 -56q-25 -33 -61.5 -52z" />
    <glyph glyph-name="notequal" unicode="&#x2260;" horiz-adv-x="586" 
d="M349 421l-84 -146l231 1l-11 -78l-265 -1l-83 -143h-58l84 143h-117l11 78h151l85 145h-216l11 79h251l79 135h55l-78 -135h132l-11 -78h-167z" />
    <glyph glyph-name="lessequal" unicode="&#x2264;" horiz-adv-x="556" 
d="M470 223l-405 168l13 91l452 169l-13 -94l-326 -121l292 -120zM451 51l-439 1l11 78l439 -1z" />
    <glyph glyph-name="greaterequal" unicode="&#x2265;" horiz-adv-x="556" 
d="M391 436l-293 121l13 94l406 -169l-13 -91l-453 -168l13 93zM472 130l-11 -78l-439 -1l11 78z" />
    <glyph glyph-name="lozenge" unicode="&#x25ca;" horiz-adv-x="500" 
d="M168 0l-114 361l221 362h77l114 -360l-221 -363h-77zM141 365l80 -287l160 283l-80 283z" />
    <glyph glyph-name="i.loclTRK" horiz-adv-x="255" 
d="M133 0h-103l73 517h103zM222 600h-108l18 123h108z" />
    <glyph glyph-name="p.001" horiz-adv-x="599" 
d="M108 517h102l-10 -70q37 35 75 57.5t98 22.5q94 0 142.5 -67t30.5 -195q-12 -88 -48 -149.5t-90 -93.5t-120 -32q-41 0 -74.5 14t-69.5 49l-30 -214h-102zM380.5 114.5q46.5 51.5 60.5 149.5q14 97 -19 143t-94 46q-56 0 -97 -36.5t-48 -90.5l-24 -169q31 -94 108 -94
q67 0 113.5 51.5z" />
    <glyph glyph-name="q.001" horiz-adv-x="597" 
d="M348 -161l30 214q-45 -35 -82 -49t-78 -14q-66 0 -111 32t-64 93.5t-7 149.5q12 86 48 145t87.5 88t111.5 29q42 0 71.5 -13t45.5 -28.5t35 -38.5l10 70h102l-96 -678h-103zM393 157l24 169q8 54 -22.5 90.5t-86.5 36.5q-61 0 -107 -46t-60 -143q-14 -98 19 -149.5
t99 -51.5q79 0 134 94z" />
    <glyph glyph-name="l.ss01" horiz-adv-x="280" 
d="M146 743h102l-104 -743h-102z" />
    <glyph glyph-name="zero.osf" horiz-adv-x="643" 
d="M516 690q56 -43 79.5 -127t7.5 -203q-17 -119 -63.5 -202t-115 -125t-150.5 -42t-138.5 41.5t-79.5 124.5t-7 202q17 120 64.5 204t116 127t149.5 43t137 -43zM490 360q21 148 -12.5 218t-110.5 70t-130.5 -70.5t-73.5 -217.5q-21 -146 12.5 -214.5t111.5 -68.5
q163 0 203 283z" />
    <glyph glyph-name="one.osf" horiz-adv-x="388" 
d="M209 605l-144 -47l11 76l192 89h63l-102 -723h-105z" />
    <glyph glyph-name="two.osf" horiz-adv-x="586" 
d="M7 85l263 221q68 56 104.5 91t54.5 64.5t23 63.5q8 58 -28 88.5t-89 30.5q-52 0 -99 -25t-77 -78l-91 17q37 83 109 129t174 46q69 0 119.5 -24.5t74 -71t14.5 -110.5q-6 -42 -25.5 -77.5t-56 -74t-101.5 -95.5l-220 -191h350l-13 -89h-498z" />
    <glyph glyph-name="three.osf" horiz-adv-x="627" 
d="M200.5 697.5q78.5 38.5 175.5 38.5q73 0 127.5 -24t81 -66t19.5 -95q-16 -114 -161 -162q70 -20 107.5 -67.5t28.5 -115.5q-9 -62 -53.5 -110.5t-113 -75.5t-148.5 -27q-107 0 -170 36t-80 123l95 17q40 -90 164 -90q79 0 131 35t59 90q6 40 -13 70t-55 46t-81 16l-97 1
l12 84l82 2q46 0 86.5 16.5t65.5 43.5t30 61q7 47 -31.5 77.5t-99.5 30.5q-60 0 -105.5 -21t-74.5 -69l-90 18q30 79 108.5 117.5z" />
    <glyph glyph-name="four.osf" horiz-adv-x="622" 
d="M533 723l-64 -452h111l-13 -91h-111l-25 -180h-103l26 180h-335l13 93l397 450h104zM365 271l43 305l-269 -305h226z" />
    <glyph glyph-name="five.osf" horiz-adv-x="650" 
d="M615 723l-19 -87h-351l-49 -223q56 25 92 36t83 11q69 0 121.5 -24.5t78 -75t14.5 -123.5q-11 -77 -54 -132.5t-110.5 -85t-150.5 -29.5t-150 32t-105 89l84 57q40 -48 75.5 -70.5t94.5 -22.5q85 0 139.5 44t64.5 114q10 68 -28.5 104.5t-107.5 36.5q-41 0 -76.5 -12.5
t-86.5 -38.5q-8 -4 -9 -4q-2 0 -9 5l-65 39l81 360h443z" />
    <glyph glyph-name="six.osf" horiz-adv-x="621" 
d="M542 695.5q56 -42.5 61 -112.5l-91 -18q-18 44 -45.5 66.5t-80.5 22.5q-86 0 -144.5 -73.5t-77.5 -207.5q-4 -28 -4 -42q28 51 82.5 80t116.5 29q73 0 121.5 -28.5t69.5 -77.5t12 -110q-10 -68 -50 -119.5t-102 -80t-135 -28.5q-86 0 -142.5 43t-78.5 124t-6 192
q17 119 64 205t120 132t164 46q90 0 146 -42.5zM251 344q-38 -15 -63 -42t-30 -61q0 -81 32.5 -122t94.5 -41q63 0 111 39.5t57 101.5q9 61 -25.5 100.5t-97.5 39.5q-41 0 -79 -15z" />
    <glyph glyph-name="seven.osf" horiz-adv-x="576" 
d="M604 723l-15 -105q-74 -84 -151 -200t-133.5 -229.5t-74.5 -188.5h-113q21 73 70 178.5t125.5 226.5t173.5 231h-410l13 87h515z" />
    <glyph glyph-name="eight.osf" horiz-adv-x="625" 
d="M492 707.5q52 -25.5 76.5 -71t16.5 -103.5q-9 -65 -52.5 -103t-82.5 -55q5 -2 43 -19t61.5 -59.5t15.5 -100.5q-9 -63 -50.5 -109.5t-108.5 -71.5t-151 -25q-124 0 -189 50t-53 139q8 54 48.5 100.5t110.5 76.5q-107 54 -92 164q8 59 47 107.5t100.5 77t135.5 28.5
q72 0 124 -25.5zM250 617q-46 -34 -53 -86q-5 -39 14 -65t62 -36l90 -24q17 -4 45.5 14.5t51 50t26.5 62.5q7 53 -27.5 85.5t-101.5 32.5q-61 0 -107 -34zM400 104q48 32 56 85q6 41 -13 67t-69 39l-111 30q-3 1 -9 1q-21 0 -51 -18t-53.5 -48t-28.5 -66q-8 -58 32 -90
t124 -32q75 0 123 32z" />
    <glyph glyph-name="nine.osf" horiz-adv-x="621" 
d="M87.5 34q-56.5 43 -62.5 112l93 18q15 -43 43 -66t81 -23q91 0 152 72t81 216q4 25 4 38q-28 -54 -82.5 -85.5t-121.5 -31.5q-72 0 -122.5 29t-72.5 79.5t-13 113.5q9 67 49.5 118.5t102.5 79.5t135 28q87 0 143.5 -42.5t78.5 -123t7 -192.5q-26 -186 -118 -284.5
t-232 -98.5q-89 0 -145.5 43zM378 385q38 16 64 43.5t31 59.5q-1 81 -34.5 122t-94.5 41q-63 0 -109 -39.5t-54 -101.5q-8 -59 24.5 -100t94.5 -41q40 0 78 16z" />
    <glyph glyph-name="zero.tf" horiz-adv-x="693" 
d="M543 690q56 -43 79.5 -127t7.5 -203q-17 -119 -63.5 -202t-115 -125t-150.5 -42t-138.5 41.5t-79.5 124.5t-7 202q17 120 64.5 204t116 127t149.5 43t137 -43zM517 360q21 148 -12.5 218t-110.5 70t-130.5 -70.5t-73.5 -217.5q-21 -146 12.5 -214.5t111.5 -68.5
q163 0 203 283z" />
    <glyph glyph-name="one.tf" horiz-adv-x="694" 
d="M588 98l-14 -98h-524l14 98h212l72 514l-215 -74l13 94l267 92h61l-88 -626h202z" />
    <glyph glyph-name="two.tf" horiz-adv-x="693" 
d="M73 85l263 221q68 56 104.5 91t54.5 64.5t23 63.5q8 58 -28 88.5t-89 30.5q-52 0 -99 -25t-77 -78l-91 17q37 83 109 129t174 46q69 0 119.5 -24.5t74 -71t14.5 -110.5q-6 -42 -25.5 -77.5t-56 -74t-101.5 -95.5l-220 -191h350l-13 -89h-498z" />
    <glyph glyph-name="three.tf" horiz-adv-x="693" 
d="M238.5 694.5q78.5 38.5 175.5 38.5q73 0 127.5 -24t81 -66t19.5 -95q-16 -114 -161 -162q70 -20 107.5 -67.5t28.5 -115.5q-9 -62 -53.5 -110.5t-113 -75.5t-148.5 -27q-107 0 -170 36t-80 123l95 17q40 -90 164 -90q79 0 131 35t59 90q6 40 -13 70t-55 46t-81 16l-97 1
l12 84l82 2q46 0 86.5 16.5t65.5 43.5t30 61q7 47 -31.5 77.5t-99.5 30.5q-60 0 -105.5 -21t-74.5 -69l-90 18q30 79 108.5 117.5z" />
    <glyph glyph-name="four.tf" horiz-adv-x="693" 
d="M580 723l-64 -452h111l-13 -91h-111l-25 -180h-103l26 180h-335l13 93l397 450h104zM412 271l43 305l-269 -305h226z" />
    <glyph glyph-name="five.tf" horiz-adv-x="693" 
d="M647 723l-19 -87h-351l-49 -223q56 25 92 36t83 11q69 0 121.5 -24.5t78 -75t14.5 -123.5q-11 -77 -54 -132.5t-110.5 -85t-150.5 -29.5t-150 32t-105 89l84 57q40 -48 75.5 -70.5t94.5 -22.5q85 0 139.5 44t64.5 114q10 68 -28.5 104.5t-107.5 36.5q-41 0 -76.5 -12.5
t-86.5 -38.5q-8 -4 -9 -4q-2 0 -9 5l-65 39l81 360h443z" />
    <glyph glyph-name="six.tf" horiz-adv-x="693" 
d="M581 695.5q56 -42.5 61 -112.5l-91 -18q-18 44 -45.5 66.5t-80.5 22.5q-86 0 -144.5 -73.5t-77.5 -207.5q-4 -28 -4 -42q28 51 82.5 80t116.5 29q73 0 121.5 -28.5t69.5 -77.5t12 -110q-10 -68 -50 -119.5t-102 -80t-135 -28.5q-86 0 -142.5 43t-78.5 124t-6 192
q17 119 64 205t120 132t164 46q90 0 146 -42.5zM290 344q-38 -15 -63 -42t-30 -61q0 -81 32.5 -122t94.5 -41q63 0 111 39.5t57 101.5q9 61 -25.5 100.5t-97.5 39.5q-41 0 -79 -15z" />
    <glyph glyph-name="seven.tf" horiz-adv-x="694" 
d="M669 723l-15 -105q-74 -84 -150.5 -200t-133 -229.5t-74.5 -188.5h-120q22 74 70.5 177.5t125 222.5t173.5 228h-443l14 95h553z" />
    <glyph glyph-name="eight.tf" horiz-adv-x="693" 
d="M533 707.5q52 -25.5 76.5 -71t16.5 -103.5q-9 -65 -52.5 -103t-82.5 -55q5 -2 43 -19t61.5 -59.5t15.5 -100.5q-9 -63 -50.5 -109.5t-108.5 -71.5t-151 -25q-124 0 -189 50t-53 139q8 54 48.5 100.5t110.5 76.5q-107 54 -92 164q8 59 47 107.5t100.5 77t135.5 28.5
q72 0 124 -25.5zM291 617q-46 -34 -53 -86q-5 -39 14 -65t62 -36l90 -24q17 -4 45.5 14.5t51 50t26.5 62.5q7 53 -27.5 85.5t-101.5 32.5q-61 0 -107 -34zM441 104q48 32 56 85q6 41 -13 67t-69 39l-111 30q-3 1 -9 1q-21 0 -51 -18t-53.5 -48t-28.5 -66q-8 -58 32 -90
t124 -32q75 0 123 32z" />
    <glyph glyph-name="nine.tf" horiz-adv-x="693" 
d="M129.5 34q-56.5 43 -62.5 112l93 18q15 -43 43 -66t81 -23q91 0 152 72t81 216q4 25 4 38q-28 -54 -82.5 -85.5t-121.5 -31.5q-72 0 -122.5 29t-72.5 79.5t-13 113.5q9 67 49.5 118.5t102.5 79.5t135 28q87 0 143.5 -42.5t78.5 -123t7 -192.5q-26 -186 -118 -284.5
t-232 -98.5q-89 0 -145.5 43zM420 385q38 16 64 43.5t31 59.5q-1 81 -34.5 122t-94.5 41q-63 0 -109 -39.5t-54 -101.5q-8 -59 24.5 -100t94.5 -41q40 0 78 16z" />
    <glyph glyph-name="zero.subs" horiz-adv-x="411" 
d="M298 230q39 -61 23 -174q-16 -112 -72 -172t-135 -60q-78 0 -117.5 60t-23.5 172q16 113 73 174t135 61t117 -61zM250 56q13 93 -7.5 137.5t-68.5 44.5q-49 0 -83 -44.5t-47 -137.5q-13 -91 8.5 -134.5t70.5 -43.5q102 0 127 178z" />
    <glyph glyph-name="one.subs" horiz-adv-x="297" 
d="M67 216l-90 -30l7 48l120 56h40l-64 -455h-66z" />
    <glyph glyph-name="two.subs" horiz-adv-x="379" 
d="M-48 -112l166 139q43 36 65.5 58t34 40.5t14.5 39.5q5 37 -17.5 56t-55.5 19t-62.5 -15.5t-48.5 -49.5l-57 11q23 52 68.5 81t109.5 29q43 0 75 -15.5t46.5 -44.5t9.5 -70q-4 -26 -16.5 -48.5t-35.5 -46.5t-64 -60l-138 -120h220l-8 -56h-313z" />
    <glyph glyph-name="three.subs" horiz-adv-x="394" 
d="M83.5 269q48.5 24 110.5 24q70 0 110 -33t33 -83q-10 -73 -100 -102q43 -13 67 -42.5t18 -72.5q-5 -39 -33 -69.5t-71.5 -47.5t-93.5 -17q-68 0 -107.5 22.5t-49.5 77.5l59 10q26 -56 103 -56q50 0 83 22t37 56q5 38 -22.5 60.5t-71.5 22.5l-61 1l8 53l51 1
q45 1 77.5 22.5t36.5 53.5q4 30 -19.5 49t-62.5 19q-78 0 -113 -56l-56 11q19 50 67.5 74z" />
    <glyph glyph-name="four.subs" horiz-adv-x="411" 
d="M287 290l-40 -285h70l-8 -57h-70l-16 -113h-65l17 113h-211l8 59l250 283h65zM182 5l27 192l-170 -192h143z" />
    <glyph glyph-name="five.subs" horiz-adv-x="396" 
d="M341 287l-12 -55h-221l-31 -140q33 15 56 22t53 7q68 0 106.5 -35.5t29.5 -104.5q-10 -72 -65 -113.5t-134 -41.5q-52 0 -94.5 20t-66.5 56l53 36q25 -31 47.5 -45t59.5 -14q54 0 88.5 27.5t40.5 72.5q6 42 -17.5 65t-67.5 23q-26 0 -49.5 -8t-53.5 -24q-3 -2 -5 -2
t-3.5 1t-3.5 2l-40 24l51 227h279z" />
    <glyph glyph-name="six.subs" horiz-adv-x="399" 
d="M282 267.5q35 -26.5 39 -70.5l-58 -12q-10 28 -27.5 42t-51.5 14q-54 0 -91 -46t-49 -130l-2 -27q17 32 51.5 50.5t73.5 18.5q68 0 102 -38.5t26 -97.5q-9 -64 -60 -104t-120 -40q-82 0 -120 60t-23 166q16 113 74 177t145 64q56 0 91 -26.5zM77 35q-32 -21 -36 -53
q0 -51 20 -77t59 -26t69.5 25t36.5 64q5 38 -16.5 63t-60.5 25q-40 0 -72 -21z" />
    <glyph glyph-name="seven.subs" horiz-adv-x="361" 
d="M345 290l-10 -66q-46 -53 -94.5 -126t-84 -144.5t-46.5 -118.5h-71q13 46 43.5 112.5t79 142.5t109.5 145h-258l8 55h324z" />
    <glyph glyph-name="eight.subs" horiz-adv-x="396" 
d="M286 258q38 -35 31 -91q-6 -41 -33.5 -64.5t-51.5 -34.5q3 -2 26.5 -12.5t38.5 -37t10 -63.5q-8 -60 -61.5 -94.5t-133.5 -34.5q-77 0 -118.5 31.5t-33.5 87.5q5 34 30 63t70 48q-68 33 -59 103q5 37 29.5 67.5t63.5 48.5t86 18q68 0 106 -35zM105.5 220
q-28.5 -21 -33.5 -54q-7 -50 48 -64l56 -15q12 -2 29 9.5t31.5 31t17.5 39.5q5 33 -17 53.5t-64 20.5q-39 0 -67.5 -21zM200 -103q30 20 35 54q4 26 -8.5 42t-42.5 25l-71 18q-11 4 -31 -6.5t-37 -31t-20 -44.5q-5 -37 20 -57t78 -20q47 0 77 20z" />
    <glyph glyph-name="nine.subs" horiz-adv-x="399" 
d="M1.5 -148.5q-35.5 27.5 -40.5 70.5l60 11q9 -27 26.5 -41.5t50.5 -14.5q61 0 100 51t50 154q-17 -34 -52 -53.5t-77 -19.5q-68 0 -103.5 39.5t-27.5 99.5q9 64 60 103t121 39q82 0 120 -59.5t23 -165.5q-16 -117 -74 -179t-146 -62q-55 0 -90.5 27.5zM206.5 84
q32.5 22 36.5 53q0 51 -20.5 76.5t-59.5 25.5t-68.5 -24.5t-35.5 -63.5q-5 -38 15.5 -63.5t60.5 -25.5q39 0 71.5 22z" />
    <glyph glyph-name="zero.dnom" horiz-adv-x="412" 
d="M321 395q39 -61 23 -174q-16 -112 -72 -172t-135 -60q-78 0 -117.5 60t-23.5 172q16 113 73 174t135 61t117 -61zM273 221q13 93 -7.5 137.5t-68.5 44.5q-49 0 -83 -44.5t-47 -137.5q-13 -91 8.5 -134.5t70.5 -43.5q102 0 127 178z" />
    <glyph glyph-name="one.dnom" horiz-adv-x="297" 
d="M90 381l-90 -30l7 48l120 56h40l-64 -455h-66z" />
    <glyph glyph-name="two.dnom" horiz-adv-x="379" 
d="M-25 53l166 139q43 36 65.5 58t34 40.5t14.5 39.5q5 37 -17.5 56t-55.5 19t-62.5 -15.5t-48.5 -49.5l-57 11q23 52 68.5 81t109.5 29q43 0 75 -15.5t46.5 -44.5t9.5 -70q-4 -26 -16.5 -48.5t-35.5 -46.5t-64 -60l-138 -120h220l-8 -56h-313z" />
    <glyph glyph-name="three.dnom" horiz-adv-x="394" 
d="M106.5 434q48.5 24 110.5 24q70 0 110 -33t33 -83q-10 -73 -100 -102q43 -13 67 -42.5t18 -72.5q-5 -39 -33 -69.5t-71.5 -47.5t-93.5 -17q-68 0 -107.5 22.5t-49.5 77.5l59 10q26 -56 103 -56q50 0 83 22t37 56q5 38 -22.5 60.5t-71.5 22.5l-61 1l8 53l51 1
q45 1 77.5 22.5t36.5 53.5q4 30 -19.5 49t-62.5 19q-78 0 -113 -56l-56 11q19 50 67.5 74z" />
    <glyph glyph-name="four.dnom" horiz-adv-x="411" 
d="M310 455l-40 -285h70l-8 -57h-70l-16 -113h-65l17 113h-211l8 59l250 283h65zM205 170l27 192l-170 -192h143z" />
    <glyph glyph-name="five.dnom" horiz-adv-x="396" 
d="M364 452l-12 -55h-221l-31 -140q33 15 56 22t53 7q68 0 106.5 -35.5t29.5 -104.5q-10 -72 -65 -113.5t-134 -41.5q-52 0 -94.5 20t-66.5 56l53 36q25 -31 47.5 -45t59.5 -14q54 0 88.5 27.5t40.5 72.5q6 42 -17.5 65t-67.5 23q-26 0 -49.5 -8t-53.5 -24q-3 -2 -5 -2
t-3.5 1t-3.5 2l-40 24l51 227h279z" />
    <glyph glyph-name="six.dnom" horiz-adv-x="400" 
d="M305 432.5q35 -26.5 39 -70.5l-58 -12q-10 28 -27.5 42t-51.5 14q-54 0 -91 -46t-49 -130l-2 -27q17 32 51.5 50.5t73.5 18.5q68 0 102 -38.5t26 -97.5q-9 -64 -60 -104t-120 -40q-82 0 -120 60t-23 166q16 113 74 177t145 64q56 0 91 -26.5zM100 200q-32 -21 -36 -53
q0 -51 20 -77t59 -26t69.5 25t36.5 64q5 38 -16.5 63t-60.5 25q-40 0 -72 -21z" />
    <glyph glyph-name="seven.dnom" horiz-adv-x="361" 
d="M368 455l-10 -66q-46 -53 -94.5 -126t-84 -144.5t-46.5 -118.5h-71q13 46 43.5 112.5t79 142.5t109.5 145h-258l8 55h324z" />
    <glyph glyph-name="eight.dnom" horiz-adv-x="396" 
d="M309 422q38 -35 31 -91q-6 -41 -33.5 -64.5t-51.5 -34.5q3 -2 26.5 -12.5t38.5 -37t10 -63.5q-8 -60 -61.5 -94.5t-133.5 -34.5q-77 0 -118.5 31.5t-33.5 87.5q5 34 30 63t70 48q-68 33 -59 103q5 37 29.5 67.5t63.5 48.5t86 18q68 0 106 -35zM128.5 384
q-28.5 -21 -33.5 -54q-7 -50 48 -64l56 -15q12 -2 29 9.5t31.5 31t17.5 39.5q5 33 -17 53.5t-64 20.5q-39 0 -67.5 -21zM223 61q30 20 35 54q4 26 -8.5 42t-42.5 25l-71 18q-11 4 -31 -6.5t-37 -31t-20 -44.5q-5 -37 20 -57t78 -20q47 0 77 20z" />
    <glyph glyph-name="nine.dnom" horiz-adv-x="400" 
d="M24.5 16.5q-35.5 27.5 -40.5 70.5l60 11q9 -27 26.5 -41.5t50.5 -14.5q61 0 100 51t50 154q-17 -34 -52 -53.5t-77 -19.5q-68 0 -103.5 39.5t-27.5 99.5q9 64 60 103t121 39q82 0 120 -59.5t23 -165.5q-16 -117 -74 -179t-146 -62q-55 0 -90.5 27.5zM229.5 249
q32.5 22 36.5 53q0 51 -20.5 76.5t-59.5 25.5t-68.5 -24.5t-35.5 -63.5q-5 -38 15.5 -63.5t60.5 -25.5q39 0 71.5 22z" />
    <glyph glyph-name="zero.numr" horiz-adv-x="412" 
d="M361 679q39 -61 23 -174q-16 -112 -72 -172t-135 -60q-78 0 -117.5 60t-23.5 172q16 113 73 174t135 61t117 -61zM313 505q13 93 -7.5 137.5t-68.5 44.5q-49 0 -83 -44.5t-47 -137.5q-13 -91 8.5 -134.5t70.5 -43.5q102 0 127 178z" />
    <glyph glyph-name="one.numr" horiz-adv-x="299" 
d="M129 657l-90 -30l7 48l120 56h40l-64 -455h-66z" />
    <glyph glyph-name="two.numr" horiz-adv-x="380" 
d="M15 332l165 139q63 53 86.5 80.5t28.5 57.5q5 37 -18 56t-57 19q-32 0 -61 -16t-49 -49l-56 11q22 52 67 81t110 29q66 0 102.5 -34.5t28.5 -94.5q-5 -38 -30 -70.5t-85 -85.5l-139 -120h220l-8 -56h-313z" />
    <glyph glyph-name="three.numr" horiz-adv-x="394" 
d="M146 716q49 24 111 24q70 0 110 -33t33 -83q-10 -73 -101 -102q43 -13 67 -42.5t18 -72.5q-5 -39 -33 -69.5t-71.5 -47.5t-93.5 -17q-68 0 -107 22.5t-50 77.5l60 10q26 -56 103 -56q50 0 82.5 22t37.5 56q5 38 -22.5 60.5t-71.5 22.5l-61 1l7 53l51 1q45 1 77.5 22.5
t37.5 53.5q4 30 -19.5 49t-62.5 19q-78 0 -113 -56l-57 11q19 50 68 74z" />
    <glyph glyph-name="four.numr" horiz-adv-x="411" 
d="M349 731l-40 -285h70l-8 -57h-70l-16 -113h-65l17 113h-211l8 59l250 283h65zM244 446l27 192l-170 -192h143z" />
    <glyph glyph-name="five.numr" horiz-adv-x="396" 
d="M403 731l-12 -55h-221l-31 -140q33 15 56 22t53 7q68 0 106.5 -35.5t29.5 -104.5q-10 -72 -65 -113.5t-134 -41.5q-52 0 -94 20t-66 56l53 36q25 -31 47 -45t59 -14q54 0 88.5 27.5t40.5 72.5q6 42 -17.5 65t-67.5 23q-26 0 -49 -8t-54 -24q-3 -2 -5 -2t-3.5 1t-3.5 2
l-40 24l51 227h279z" />
    <glyph glyph-name="six.numr" horiz-adv-x="400" 
d="M345 717.5q35 -26.5 39 -70.5l-58 -12q-10 28 -27.5 42t-51.5 14q-54 0 -91 -46t-49 -130l-2 -27q17 32 51.5 50.5t73.5 18.5q68 0 102 -38.5t26 -97.5q-9 -64 -60 -104t-120 -40q-82 0 -120 60t-23 166q16 113 74 177t145 64q56 0 91 -26.5zM140 485q-32 -21 -36 -53
q0 -51 20 -77t59 -26t69.5 25t36.5 64q5 38 -16.5 63t-60.5 25q-40 0 -72 -21z" />
    <glyph glyph-name="seven.numr" horiz-adv-x="361" 
d="M407 730l-10 -66q-71 -81 -139.5 -199t-85.5 -190h-71q20 74 81.5 186.5t150.5 213.5h-258l8 55h324z" />
    <glyph glyph-name="eight.numr" horiz-adv-x="396" 
d="M349 705q38 -35 30 -91q-6 -41 -33 -64.5t-52 -34.5q3 -2 27 -12.5t39 -37t9 -63.5q-8 -60 -61.5 -94.5t-133.5 -34.5q-77 0 -118 31.5t-33 87.5q5 34 30 63t70 48q-68 33 -59 103q5 37 29.5 67.5t63.5 48.5t86 18q68 0 106 -35zM168.5 667q-28.5 -21 -33.5 -54
q-7 -50 48 -64l56 -15q12 -2 29 9.5t31 31t17 39.5q5 33 -16.5 53.5t-63.5 20.5q-39 0 -67.5 -21zM263 344q30 20 35 54q4 26 -8.5 42t-43.5 25l-70 18q-11 4 -31.5 -6.5t-37 -31t-20.5 -44.5q-5 -37 20.5 -57t78.5 -20q47 0 77 20z" />
    <glyph glyph-name="nine.numr" horiz-adv-x="400" 
d="M65 301.5q-36 27.5 -41 70.5l60 11q9 -27 26.5 -41.5t50.5 -14.5q61 0 100 51t50 154q-17 -34 -51.5 -53.5t-76.5 -19.5q-68 0 -104 39.5t-28 99.5q9 64 60 103t121 39q82 0 120 -59.5t23 -165.5q-16 -117 -73.5 -179t-145.5 -62q-55 0 -91 27.5zM269.5 534
q32.5 22 36.5 53q0 51 -20.5 76.5t-59.5 25.5t-68.5 -24.5t-35.5 -63.5q-5 -38 15.5 -63.5t60.5 -25.5q39 0 71.5 22z" />
    <glyph glyph-name="comma.tf" horiz-adv-x="290" 
d="M96 -2l-45 2l16 117h122l-14 -102l-108 -143h-45z" />
    <glyph glyph-name="period.tf" horiz-adv-x="290" 
d="M169 0h-120l18 125h120z" />
    <glyph glyph-name="bullet.uc" horiz-adv-x="325" 
d="M81.5 295q-25.5 30 -19.5 73q6 42 40 72.5t76 30.5q43 0 69 -30.5t20 -72.5q-6 -43 -40.5 -73t-77.5 -30q-42 0 -67.5 30z" />
    <glyph glyph-name="caroncomb.alt" horiz-adv-x="0" 
d="M-83.5 528q-1.5 3 -0.5 7l40 71l3 8q1 5 -6 6l-8 1q-6 1 -8 3t-1 8l11 81q1 10 11 10h63q8 0 6 -8l-13 -94l-2 -6l-45 -80q-3 -6 -7.5 -8t-13.5 -2h-24q-4 0 -5.5 3z" />
    </font>
</defs>
</svg>
