<?xml version="1.0" standalone="no"?>
<!DOCTYPE svg PUBLIC "-//W3C//DTD SVG 1.1//EN" "http://www.w3.org/Graphics/SVG/1.1/DTD/svg11.dtd" >
<svg xmlns="http://www.w3.org/2000/svg" xmlns:xlink="http://www.w3.org/1999/xlink" version="1.1">
<metadata>
Created by FontForge 20170731 at Mon Dec 10 20:51:37 2018
 By Aleksey,,,
</metadata>
<defs>
<font id="CheyenneSans-LightItalic" horiz-adv-x="583" >
  <font-face 
    font-family="Cheyenne Sans Light"
    font-weight="300"
    font-style="italic"
    font-stretch="normal"
    units-per-em="1000"
    panose-1="0 0 4 0 0 0 0 0 0 0"
    ascent="800"
    descent="-200"
    x-height="517"
    cap-height="723"
    bbox="-310.2 -232 1296 986"
    underline-thickness="50"
    underline-position="-250"
    slope="-8"
    unicode-range="U+000D-FB02"
  />
<missing-glyph horiz-adv-x="693" 
d="M661 805l-132 -938q-2 -15 -10.5 -21.5t-25.5 -6.5h-436q-15 0 -20 5.5t-3 18.5l132 940q2 11 7.5 17t14.5 6h459q17 0 14 -21zM602.5 772.5q-3.5 4.5 -10.5 4.5h-344l242 -834l115 817q1 8 -2.5 12.5zM94 -107q4 -5 16 -5h335l-240 828l-114 -808q-1 -10 3 -15z" />
    <glyph glyph-name="fi" unicode="fi" horiz-adv-x="630" 
d="M368 462h-132l-88 -623h-73l88 623h-114l8 55h114l11 82q17 124 138 124h90l-8 -54h-80q-32 0 -47 -17.5t-20 -54.5l-11 -80h132zM591 632h-80l15 111h80zM499 0h-74l73 517h74z" />
    <glyph glyph-name="fl" unicode="fl" horiz-adv-x="667" 
d="M368 462h-132l-88 -623h-73l88 623h-114l8 55h114l11 82q17 124 138 124h90l-8 -54h-80q-32 0 -47 -17.5t-20 -54.5l-11 -80h132zM453 34q-21 36 -12 99l85 610h72l-85 -605q-6 -42 7.5 -62.5t39.5 -21.5l28 -1l-6 -48q-25 -7 -42 -7q-66 0 -87 36z" />
    <glyph glyph-name="f_f.liga" unicode="ff" horiz-adv-x="782" 
d="M757 462h-132l-65 -462h-73l65 462h-115l8 55h115l11 82q17 124 138 124h90l-8 -54h-80q-33 0 -48 -17.5t-20 -54.5l-11 -80h133zM370 462h-132l-65 -462h-73l65 462h-115l8 55h115l11 78q17 123 136 123h90l-8 -54h-80q-32 0 -46.5 -17t-20.5 -55l-10 -75h133z" />
    <glyph glyph-name="colon_one_eight_F_colon.liga" unicode="&#x3a;&#x31;&#x38;F&#x3a;" horiz-adv-x="764" 
d="M812 761q11 0 9 -12l-103 -736q-2 -13 -13 -13h-737q-12 0 -10 13l103 736q2 12 14 12h737zM420.5 259.5q28.5 25.5 33.5 60.5q6 45 -27 70q31 26 35 58q4 31 -15 53t-49 22q-33 0 -58.5 -22t-29.5 -53t19 -58q-41 -25 -47 -70q-5 -35 17 -60.5t58 -25.5q35 0 63.5 25.5z
M267 515q1 5 -3 5h-67q-4 0 -5 -5l-3 -26q-1 -4 3 -4h36l-34 -242q-1 -4 4 -4h27q4 0 4 4zM636 515q1 5 -3 5h-105q-4 0 -5 -5l-38 -272q-1 -4 4 -4h26q6 0 6 4l18 124h61q4 0 4 4l4 25q1 5 -4 5h-61l12 84h73q4 0 5 4zM352.5 419q-10.5 11 -7.5 29q2 17 16 29t32 12
q17 0 26.5 -12t7.5 -29q-3 -18 -16 -29t-30 -11q-18 0 -28.5 11zM409.5 356.5q12.5 -14.5 9.5 -36.5q-3 -21 -19.5 -36t-37.5 -15q-22 0 -35 15t-10 36q3 22 20 36.5t39 14.5q21 0 33.5 -14.5z" />
    <glyph glyph-name="colon_f_l_a_g_two_colon.liga" unicode="&#x3a;flag&#x32;&#x3a;" horiz-adv-x="1149" 
d="M1169 761l-107 -760h-1067l107 760h1067zM1097 698h-535l-7 -53h535zM234 585l9 59h-62l-9 -59h62zM468 585l9 59h-61l-9 -59h61zM343 527l8 58h-61l-8 -58h61zM1073 528l8 55h-535l-8 -55h535zM218 468l8 59h-61l-8 -59h61zM399 527l-8 -59h61l8 59h-61zM274 468l-8 -58
h61l8 58h-61zM1057 411l7 55h-535l-7 -55h535zM149 410l-9 -59h61l9 59h-61zM383 410l-9 -59h61l9 59h-61zM1040 294l8 55h-535l-8 -55h535zM89 232l-8 -55h943l8 55h-943zM1008 63l7 52h-942l-7 -52h942z" />
    <glyph glyph-name="colon_f_l_a_g_colon.liga" unicode="&#x3a;flag&#x3a;" horiz-adv-x="1149" 
d="M1169 761l-107 -760h-1067l107 760h1067zM152 702l-58 -409h950l8 58h-540l9 59h540l8 58h-540l8 59h540l8 58h-540l9 59h540l8 58h-950zM252 585h-58l9 59h58zM486 585h-58l9 59h58zM361 527h-58l8 58h58zM236 468h-58l8 59h58zM470 468h-58l8 59h58zM345 410h-58l8 58
h58zM219 351h-58l9 59h58zM453 351h-58l9 59h58zM86 234l-8 -58h950l8 58h-950zM1011 59l8 58h-950l-8 -58h950z" />
    <glyph glyph-name=".notdef" horiz-adv-x="693" 
d="M661 805l-132 -938q-2 -15 -10.5 -21.5t-25.5 -6.5h-436q-15 0 -20 5.5t-3 18.5l132 940q2 11 7.5 17t14.5 6h459q17 0 14 -21zM602.5 772.5q-3.5 4.5 -10.5 4.5h-344l242 -834l115 817q1 8 -2.5 12.5zM94 -107q4 -5 16 -5h335l-240 828l-114 -808q-1 -10 3 -15z" />
    <glyph glyph-name="uni0000" horiz-adv-x="27" 
 />
    <glyph glyph-name="uni0000" horiz-adv-x="27" 
 />
    <glyph glyph-name="nonmarkingreturn" unicode="&#xd;" horiz-adv-x="236" 
 />
    <glyph glyph-name="space" unicode=" " horiz-adv-x="275" 
 />
    <glyph glyph-name="exclam" unicode="!" horiz-adv-x="243" 
d="M123 169h-51l59 554h89zM119 0h-91l14 102h91z" />
    <glyph glyph-name="quotedbl" unicode="&#x22;" horiz-adv-x="398" 
d="M335 506h-46l5 217h99zM173 506h-46l5 217h99z" />
    <glyph glyph-name="numbersign" unicode="#" horiz-adv-x="594" 
d="M456 443l-46 -156h107l-7 -49h-114l-70 -239l-48 7l67 232h-152l-69 -239l-49 7l68 232h-118l7 49h125l46 156h-117l7 49h124l69 232l48 -6l-66 -226h152l68 232l49 -6l-67 -226h108l-7 -49h-115zM405 443h-152l-45 -156h152z" />
    <glyph glyph-name="dollar" unicode="$" horiz-adv-x="589" 
d="M488 83q-31 -41 -81 -65t-110 -26q-10 0 -11 -9l-10 -70h-56l11 79q-86 1 -140.5 31t-89.5 92l55 42q34 -50 76 -75.5t108 -27.5l39 272q-79 29 -122 58.5t-59 65.5t-9 86q11 78 75 130t159 63q11 2 13 10l8 58h55l-9 -66q60 -9 105 -33t80 -64l-55 -48q-18 29 -53 50
t-78 29h-2q-7 0 -8 -7l-37 -269l43 -17q79 -35 115 -81.5t27 -114.5q-8 -52 -39 -93zM329 667q-32 0 -68.5 -14.5t-64.5 -43.5t-34 -70q-5 -38 14 -65t46 -41t67 -30zM403 88.5q44 33.5 51 83.5q7 48 -22 80t-101 60l-36 -258q64 1 108 34.5z" />
    <glyph glyph-name="percent" unicode="%" horiz-adv-x="895" 
d="M393.5 678.5q38.5 -55.5 24.5 -151.5q-13 -96 -67 -151t-127 -55q-74 0 -113 55t-26 151q9 64 37 110.5t69.5 71.5t90.5 25q73 0 111.5 -55.5zM199 -4h-54l592 735h52zM315 408.5q36 44.5 46 118.5q10 73 -13 118.5t-73 45.5t-86 -45.5t-46 -118.5t12.5 -118t73.5 -45
q50 0 86 44.5zM792 348q38 -56 25 -151q-13 -96 -67 -151.5t-128 -55.5q-48 0 -82.5 25t-49.5 71.5t-6 110.5q9 63 37 110t69.5 72t89.5 25q74 0 112 -56zM712.5 79.5q36.5 45.5 46.5 116.5q10 72 -13.5 118t-72.5 46q-48 0 -84.5 -46.5t-46.5 -117.5t13.5 -116.5
t71.5 -45.5q49 0 85.5 45.5z" />
    <glyph glyph-name="ampersand" unicode="&#x26;" horiz-adv-x="679" 
d="M442 715q41 -19 62 -53.5t15 -80.5q-6 -44 -51 -94.5t-152 -102.5l146 -205q27 28 56 81.5t42 121.5h70q-17 -74 -51 -131.5t-85 -116.5l95 -134h-86l-61 84q-115 -89 -236 -89q-100 0 -148.5 51t-36.5 136q10 69 57.5 120.5t139.5 97.5q-39 48 -55.5 90.5t-10.5 88.5
q6 43 33.5 78.5t71 56t94.5 20.5q50 0 91 -19zM264.5 651q-31.5 -28 -37.5 -68q-5 -37 10.5 -74t36.5 -63l14 -18q88 46 122.5 81t40.5 71q7 51 -24.5 75.5t-80.5 24.5q-50 -1 -81.5 -29zM147 279q-40 -43 -47 -93q-8 -58 29.5 -94t99.5 -36q45 0 93 20t88 54l-159 224
q-64 -32 -104 -75z" />
    <glyph glyph-name="quotesingle" unicode="'" horiz-adv-x="246" 
d="M170 506h-46l5 217h99z" />
    <glyph glyph-name="parenleft" unicode="(" horiz-adv-x="291" 
d="M205.5 505q-47.5 -115 -63.5 -228q-15 -110 -3.5 -217t49.5 -221h-49q-51 114 -70 216.5t-2 222.5q17 119 71.5 233.5t134.5 211.5h49q-69 -103 -116.5 -218z" />
    <glyph glyph-name="parenright" unicode=")" horiz-adv-x="291" 
d="M114.5 57q47.5 115 63.5 228q15 110 3.5 217t-49.5 221h49q51 -114 70 -216.5t2 -222.5q-17 -119 -71.5 -233.5t-134.5 -211.5h-49q69 103 116.5 218z" />
    <glyph glyph-name="asterisk" unicode="*" horiz-adv-x="367" 
d="M215 529l-96 -126l-42 32l107 115l-121 36l25 49l114 -47l11 135h58l-27 -135l129 51l9 -48l-129 -40l73 -110l-51 -34z" />
    <glyph glyph-name="plus" unicode="+" horiz-adv-x="546" 
d="M481 334h-178l-25 -179h-59l25 178h-180l8 59h179l25 180h59l-25 -179h179z" />
    <glyph glyph-name="comma" unicode="," horiz-adv-x="226" 
d="M50 -1l-41 1l14 100h104l-12 -86l-98 -134h-39z" />
    <glyph glyph-name="hyphen" unicode="-" horiz-adv-x="378" 
d="M297 229l-247 -1l8 60l248 1z" />
    <glyph glyph-name="period" unicode="." horiz-adv-x="213" 
d="M105 0h-93l14 103h93z" />
    <glyph glyph-name="slash" unicode="/" horiz-adv-x="338" 
d="M318 723h61l-357 -769h-61z" />
    <glyph glyph-name="zero" unicode="0" horiz-adv-x="632" 
d="M504 690.5q54 -42.5 76.5 -126t5.5 -204.5q-17 -120 -63 -203.5t-111.5 -125t-143.5 -41.5q-77 0 -131.5 41.5t-76.5 124t-5 202.5q17 121 63 205.5t112 127t143 42.5t131 -42.5zM424 130.5q59 74.5 81 229.5q22 156 -17 232t-124 76t-145.5 -76t-82.5 -232
q-22 -154 17 -229t126 -75q86 0 145 74.5z" />
    <glyph glyph-name="one" unicode="1" horiz-adv-x="379" 
d="M223 634l-150 -52l8 58l178 83h54l-102 -723h-77z" />
    <glyph glyph-name="two" unicode="2" horiz-adv-x="569" 
d="M8 69l268 232q95 81 134.5 130t47.5 101q9 67 -31 100.5t-99 33.5q-54 0 -104 -24.5t-86 -77.5l-61 22q42 72 109.5 109.5t154.5 37.5q64 0 110.5 -23.5t69.5 -68.5t14 -107q-6 -43 -26.5 -80.5t-59 -78.5t-108.5 -103l-234 -205h370l-9 -67h-470z" />
    <glyph glyph-name="three" unicode="3" horiz-adv-x="625" 
d="M213.5 700q70.5 33 151.5 33q71 0 122.5 -24t76.5 -65.5t17 -92.5q-16 -116 -164 -166q73 -21 110 -69.5t27 -116.5q-8 -59 -49 -107t-107 -75t-147 -27q-91 0 -148.5 30t-86.5 101l68 22q53 -88 177 -88q88 0 145 39.5t66 101.5q7 47 -15.5 81t-63.5 51.5t-90 17.5h-97
l9 64l81 1q51 0 96.5 17.5t74.5 49t34 69.5q5 35 -12 62.5t-52 43.5t-81 16q-60 0 -106.5 -21.5t-81.5 -66.5l-60 23q35 63 105.5 96z" />
    <glyph glyph-name="four" unicode="4" horiz-adv-x="617" 
d="M518 723l-65 -462h113l-10 -68h-113l-27 -193h-74l28 193h-341l10 73l403 457h76zM377 261l49 352l-310 -352h261z" />
    <glyph glyph-name="five" unicode="5" horiz-adv-x="642" 
d="M603 723l-16 -65h-356l-56 -256q55 28 94.5 41t90.5 13q66 0 117 -23.5t77 -73t15 -122.5q-11 -76 -53.5 -132t-109 -85.5t-146.5 -29.5q-75 0 -137.5 28.5t-102.5 81.5l60 45q41 -47 79.5 -69t99.5 -22q95 0 156.5 50t72.5 130q11 78 -31.5 118t-117.5 40
q-48 0 -88.5 -15.5t-92.5 -43.5q-6 -4 -9 -4q-2 0 -3 1.5t-4 3.5l-46 29l80 360h427z" />
    <glyph glyph-name="six" unicode="6" horiz-adv-x="606" 
d="M524.5 703q50.5 -36 62.5 -95l-64 -25q-22 46 -51.5 69.5t-87.5 23.5q-97 0 -162.5 -85t-88.5 -246q-4 -27 -4 -41q27 61 86 97t129 36q72 0 119.5 -28.5t67 -78t11.5 -110.5q-9 -67 -48 -117.5t-97.5 -78t-127.5 -27.5q-83 0 -136.5 42.5t-74.5 124t-5 194.5
q17 118 63 204t116.5 131.5t159.5 45.5q82 0 132.5 -36zM199.5 336q-56.5 -38 -65.5 -101q3 -86 39.5 -130.5t103.5 -44.5q46 0 86 20t66.5 55.5t32.5 80.5q6 43 -7.5 79t-46 57.5t-79.5 21.5q-73 0 -129.5 -38z" />
    <glyph glyph-name="seven" unicode="7" horiz-adv-x="570" 
d="M591 723l-11 -75q-77 -90 -157 -214.5t-139.5 -242.5t-80.5 -191h-82q25 77 77.5 186.5t130.5 234t171 237.5h-417l10 65h498z" />
    <glyph glyph-name="eight" unicode="8" horiz-adv-x="617" 
d="M483.5 708q49.5 -25 72 -70t14.5 -104q-10 -68 -52.5 -107t-83.5 -59q5 -2 42 -17.5t61.5 -58t16.5 -102.5t-48.5 -105.5t-104.5 -70t-144 -24.5q-121 0 -183 50t-50 139q7 52 46.5 101.5t114.5 82.5q-37 16 -70.5 52t-22.5 110q8 58 45.5 105.5t97 75t129.5 27.5
t119.5 -25zM270 652q-40 -18 -66 -49.5t-31 -70.5q-6 -46 16 -75.5t72 -40.5l99 -24q18 -4 49 17t56.5 56t30.5 71q8 60 -30 97t-110 37q-46 0 -86 -18zM408.5 89.5q55.5 36.5 63.5 98.5q7 47 -14.5 76t-75.5 42l-126 31q-3 1 -7 1q-23 0 -56 -20.5t-60 -54.5t-33 -75
q-9 -64 35 -99.5t134 -35.5q84 0 139.5 36.5z" />
    <glyph glyph-name="nine" unicode="9" horiz-adv-x="607" 
d="M90 27q-51 37 -64 96l66 23q21 -45 50 -68.5t86 -23.5q100 0 167 83.5t90 249.5q4 27 5 41q-27 -63 -86.5 -100t-131.5 -37q-71 0 -119.5 29t-68.5 79t-11 112q9 67 47.5 117t97.5 77.5t128 27.5q82 0 136 -42.5t74.5 -124t4.5 -194.5q-26 -182 -115 -282t-225 -100
q-80 0 -131 37zM375 373q43 18 71.5 50t33.5 71q-4 87 -40 131.5t-104 44.5q-70 0 -121 -44t-61 -112q-6 -43 7.5 -79t45.5 -58t79 -22q46 0 89 18z" />
    <glyph glyph-name="colon" unicode=":" horiz-adv-x="213" 
d="M160 390h-93l14 103h93zM105 3h-93l15 102h93z" />
    <glyph glyph-name="semicolon" unicode=";" horiz-adv-x="237" 
d="M83 493h92l-14 -104h-92zM55 0h-37l14 102h92l-12 -90l-97 -150h-33z" />
    <glyph glyph-name="less" unicode="&#x3c;" horiz-adv-x="540" 
d="M441 152l-385 159l10 71l432 163l-11 -73l-334 -125l298 -125z" />
    <glyph glyph-name="equal" unicode="=" horiz-adv-x="546" 
d="M495 431l-418 -1l9 60h417zM464 212l-417 -1l8 59l417 1z" />
    <glyph glyph-name="greater" unicode="&#x3e;" horiz-adv-x="540" 
d="M390 347l-300 125l11 73l385 -163l-10 -71l-430 -159l10 70z" />
    <glyph glyph-name="question" unicode="?" horiz-adv-x="515" 
d="M174 696.5q67 36.5 143 36.5q65 0 111 -22t67 -61.5t13 -91.5q-6 -40 -23.5 -73t-41.5 -58.5t-63 -61.5q-40 -37 -62.5 -62t-41 -58t-24.5 -74h-65q7 48 27 87t45 67.5t64 67.5q51 49 76.5 83.5t31.5 79.5q8 54 -25.5 85.5t-96.5 31.5q-52 0 -104.5 -29t-73.5 -71l-65 23
q41 64 108 100.5zM242 0h-92l14 102h92z" />
    <glyph glyph-name="at" unicode="@" horiz-adv-x="818" 
d="M490.5 -90.5q-60.5 -19.5 -125.5 -19.5q-115 0 -194 48.5t-112.5 131.5t-19.5 184q15 106 77 195t158.5 142t210.5 53q88 0 161.5 -34t112.5 -104t25 -174q-10 -74 -43 -131.5t-80.5 -89.5t-100.5 -32q-38 0 -57 12.5t-22 40.5q0 7 -3 7q-2 0 -8 -6q-61 -68 -146 -68
q-37 0 -65.5 21.5t-41.5 61t-6 89.5q9 62 40.5 114t78.5 82t101 30q39 0 65 -17t39 -47q2 -2 4 -1t4 5l14 35h55l-70 -225q-6 -18 -7 -31q-4 -25 5.5 -36.5t31.5 -11.5q33 0 64 23.5t54 67t31 101.5q13 90 -20 150t-93 87.5t-132 27.5q-101 0 -182 -45.5t-131 -122.5
t-63 -170q-12 -88 16 -158t96 -111t173 -41q60 0 99 15.5t93 48.5l26 -42q-52 -36 -112.5 -55.5zM288 154q17 -32 55 -32q36 0 70.5 24t58.5 63.5t30 83.5q8 54 -15 83.5t-60 29.5q-55 0 -96.5 -47.5t-51.5 -117.5q-8 -55 9 -87z" />
    <glyph glyph-name="A" unicode="A" horiz-adv-x="693" 
d="M360 723h86l160 -723h-75l-47 209h-308l-106 -209h-75zM473 279l-81 371l-186 -371h267z" />
    <glyph glyph-name="B" unicode="B" horiz-adv-x="664" 
d="M155 723h221q128 0 189 -48.5t48 -139.5q-9 -61 -46.5 -102t-113.5 -65q151 -31 130 -174q-14 -97 -90.5 -145.5t-212.5 -48.5h-227zM346 398q73 0 128.5 29.5t65.5 98.5q9 67 -37 100.5t-134 33.5h-150l-37 -262h164zM287 64q102 0 157.5 31.5t64.5 98.5
q10 72 -38 105.5t-134 33.5h-164l-38 -269h152z" />
    <glyph glyph-name="C" unicode="C" horiz-adv-x="676" 
d="M537 704.5q55 -28.5 83 -77t27 -106.5l-78 -5q-3 69 -46.5 110t-123.5 41q-106 0 -171.5 -77t-86.5 -229q-21 -150 23.5 -227.5t154.5 -77.5q69 0 124 39.5t80 107.5l75 -9q-15 -57 -56 -103.5t-101.5 -73.5t-130.5 -27q-144 0 -209.5 98.5t-40.5 273.5t116 273t232 98
q74 0 129 -28.5z" />
    <glyph glyph-name="D" unicode="D" horiz-adv-x="681" 
d="M304 722q197 -2 274.5 -90t52.5 -266q-26 -185 -134 -275.5t-305 -90.5h-139l102 723zM138 66h62q155 0 243 69.5t110 228.5q23 161 -44.5 227.5t-220.5 66.5h-67z" />
    <glyph glyph-name="E" unicode="E" horiz-adv-x="618" 
d="M155 723h441l-11 -66h-367l-36 -259h335l-9 -66h-335l-37 -264l378 -1l-9 -67h-452z" />
    <glyph glyph-name="F" unicode="F" horiz-adv-x="576" 
d="M590 723l-10 -66h-359l-36 -260h327l-9 -66h-327l-47 -331h-76l102 723h435z" />
    <glyph glyph-name="G" unicode="G" horiz-adv-x="721" 
d="M153.5 34.5q-61.5 44.5 -86 127.5t-8.5 197q16 117 65.5 201t124 128.5t166.5 44.5q67 0 121.5 -29t85 -77.5t27.5 -103.5l-81 -7q-2 64 -47 107t-116 43q-105 0 -175.5 -78.5t-91.5 -222.5q-21 -152 28 -230t155 -78q62 0 110.5 29t77 72t36.5 86l12 72h-186l8 56
l261 -1l-52 -371h-59l16 116q-40 -56 -99 -91t-138 -35q-93 0 -154.5 44.5z" />
    <glyph glyph-name="H" unicode="H" horiz-adv-x="704" 
d="M174 342l-48 -342h-73l102 723h73l-45 -315h359l45 315h73l-102 -723h-73l48 342h-359z" />
    <glyph glyph-name="I" unicode="I" horiz-adv-x="271" 
d="M228 723l-102 -723h-73l102 723h73z" />
    <glyph glyph-name="J" unicode="J" horiz-adv-x="380" 
d="M207.5 32q-36.5 -42 -116.5 -42q-35 0 -66.5 8.5t-45.5 16.5l18 72l20 -10q14 -7 31 -11.5t37 -4.5q48 0 70 27t31 93l77 542h73l-80 -564q-12 -85 -48.5 -127z" />
    <glyph glyph-name="K" unicode="K" horiz-adv-x="665" 
d="M499 0l-185 385l-152 -150l-33 -235h-76l102 723h76l-55 -390l401 390h90l-288 -283l206 -440h-86z" />
    <glyph glyph-name="L" unicode="L" horiz-adv-x="558" 
d="M231 723l-92 -654h351l-10 -69h-427l102 723h76z" />
    <glyph glyph-name="M" unicode="M" horiz-adv-x="870" 
d="M155 723h97l149 -627l329 627h97l-102 -723h-76l84 596l-308 -596h-75l-138 590l-83 -590h-76z" />
    <glyph glyph-name="N" unicode="N" horiz-adv-x="741" 
d="M697 723l-102 -723h-65l-320 597l-84 -597h-73l102 723h67l318 -592l84 592h73z" />
    <glyph glyph-name="O" unicode="O" horiz-adv-x="722" 
d="M102.5 86q-67.5 96 -43.5 272q17 119 66 203.5t124 128t170 43.5q94 0 156.5 -43.5t87 -127.5t8.5 -202q-25 -177 -119.5 -273.5t-237.5 -96.5q-144 0 -211.5 96zM501.5 131q67.5 75 88.5 228q22 155 -24.5 231.5t-155.5 76.5t-178.5 -77t-91.5 -231q-21 -152 27 -227.5
t158 -75.5q109 0 176.5 75z" />
    <glyph glyph-name="P" unicode="P" horiz-adv-x="633" 
d="M155 723h236q122 0 186.5 -52t49.5 -158q-15 -104 -91.5 -157.5t-193.5 -53.5h-171l-42 -302h-76zM350 367q85 0 139 38t65 113q20 141 -168 141h-165l-41 -292h170z" />
    <glyph glyph-name="Q" unicode="Q" horiz-adv-x="727" 
d="M121 563q49 84 123.5 127t169.5 43q144 0 211.5 -97t42.5 -276q-17 -119 -64 -200.5t-132 -127.5q27 -83 130 -88l-9 -64q-60 0 -113 26t-82 94q-48 -10 -88 -10q-94 0 -156.5 42.5t-88.5 125.5t-9 202q16 119 65 203zM162.5 131q47.5 -75 156.5 -75q110 0 178.5 75
t90.5 229q21 152 -26 229.5t-157 77.5t-178.5 -78t-90.5 -231q-21 -152 26.5 -227z" />
    <glyph glyph-name="R" unicode="R" horiz-adv-x="672" 
d="M475 0l-92 323h-212l-45 -323h-73l102 723h271q112 0 164 -49.5t39 -141.5q-11 -81 -59.5 -127.5t-113.5 -67.5l98 -337h-79zM552 526q19 134 -141 134h-192l-39 -273h166q186 0 206 139z" />
    <glyph glyph-name="S" unicode="S" horiz-adv-x="662" 
d="M162.5 12q-57.5 22 -92 65t-36.5 102l78 7q5 -64 57 -98.5t128 -34.5q85 0 144 35.5t68 93.5q7 51 -20.5 83.5t-90.5 47.5l-146 35q-79 18 -117.5 63t-29.5 114q8 60 47 107t101 73.5t137 26.5q80 0 133 -27.5t77.5 -73t23.5 -99.5l-76 -6q-2 73 -48 107t-120 34
q-44 0 -87 -15.5t-72.5 -46t-35.5 -74.5q-6 -43 20.5 -72.5t98.5 -47.5l140 -35q165 -39 143 -193q-8 -54 -46 -98t-103 -69.5t-149 -25.5q-69 0 -126.5 22z" />
    <glyph glyph-name="T" unicode="T" horiz-adv-x="564" 
d="M70 723h535l-10 -69h-223l-92 -654h-73l92 654h-239z" />
    <glyph glyph-name="U" unicode="U" horiz-adv-x="709" 
d="M307 -10q-133 0 -185 65t-34 197l67 471h76l-69 -486q-13 -90 26 -136t128 -46t142 45.5t65 136.5l69 486h73l-68 -483q-35 -250 -290 -250z" />
    <glyph glyph-name="V" unicode="V" horiz-adv-x="629" 
d="M313 0h-92l-152 723h74l136 -641l321 641h73z" />
    <glyph glyph-name="W" unicode="W" horiz-adv-x="949" 
d="M668 0h-74l-84 592l-253 -592h-71l-105 723h76l83 -611l259 611h61l86 -611l259 611h75z" />
    <glyph glyph-name="X" unicode="X" horiz-adv-x="638" 
d="M474 0l-162 309l-248 -309h-85l299 370l-187 353h94l149 -289l232 289h84l-282 -347l199 -376h-93z" />
    <glyph glyph-name="Y" unicode="Y" horiz-adv-x="576" 
d="M323 309l-43 -309h-73l44 310l-187 413h80l153 -347l247 347h80z" />
    <glyph glyph-name="Z" unicode="Z" horiz-adv-x="613" 
d="M13 44l492 614h-392l10 65h493l-6 -42l-496 -615h408l-9 -66h-506z" />
    <glyph glyph-name="bracketleft" unicode="[" horiz-adv-x="289" 
d="M323 723l-8 -51h-104l-110 -782h104l-8 -51h-170l125 884h171z" />
    <glyph glyph-name="backslash" unicode="\" horiz-adv-x="338" 
d="M67 723h61l142 -769h-62z" />
    <glyph glyph-name="bracketright" unicode="]" horiz-adv-x="289" 
d="M27 -161l8 51h104l110 782h-104l8 51h170l-125 -884h-171z" />
    <glyph glyph-name="asciicircum" unicode="^" horiz-adv-x="470" 
d="M247 436l-163 -304h-62l196 359q9 17 20.5 26t22.5 9q10 0 18.5 -9t13.5 -26l96 -361h-64z" />
    <glyph glyph-name="underscore" unicode="_" horiz-adv-x="508" 
d="M380 -111h-378l9 60l378 1z" />
    <glyph glyph-name="grave" unicode="`" horiz-adv-x="280" 
d="M313 637l-19 -41l-238 75l30 61z" />
    <glyph glyph-name="a" unicode="a" horiz-adv-x="590" 
d="M387 0l7 50q-42 -32 -80 -46t-81 -14q-68 0 -115 33t-67 95.5t-8 147.5t49 143.5t90.5 88t115.5 29.5q43 0 73.5 -13.5t44 -27t35.5 -38.5l10 69h72l-74 -517h-72zM406 137l28 198q5 33 -9 64.5t-44.5 51t-71.5 19.5q-69 0 -123 -52.5t-68 -153.5q-9 -67 6 -116t49 -75.5
t83 -26.5q75 0 150 91z" />
    <glyph glyph-name="b" unicode="b" horiz-adv-x="590" 
d="M163.5 18.5q-39.5 28.5 -51.5 58.5l-18 -77h-57l104 743h73l-41 -296q22 26 70.5 53t111.5 27q104 0 146.5 -74t26.5 -193q-18 -125 -87 -197.5t-174 -72.5q-64 0 -103.5 28.5zM384.5 102q52.5 53 67.5 159q14 98 -19 152t-106 54q-49 0 -92 -25t-72 -68l-26 -181
q-6 -40 10 -73t46.5 -52t67.5 -19q71 0 123.5 53z" />
    <glyph glyph-name="c" unicode="c" horiz-adv-x="538" 
d="M488 391l-62 -16q-30 51 -54 71t-65 20q-76 0 -128 -56.5t-66 -151.5q-13 -96 23.5 -153t112.5 -57q47 0 81.5 24.5t70.5 74.5l56 -17q-38 -67 -93.5 -103.5t-126.5 -36.5q-70 0 -118 33.5t-68 93.5t-9 139t48 140.5t94.5 96t127.5 34.5q133 0 176 -136z" />
    <glyph glyph-name="d" unicode="d" horiz-adv-x="580" 
d="M71.5 58q-47.5 68 -30.5 194q18 125 86 200t171 75q44 0 79 -16t65 -49l39 281h74l-104 -743h-59l7 75q-79 -85 -181 -85q-99 0 -146.5 68zM315.5 68.5q35.5 19.5 59 50.5t28.5 63l28 204q-43 81 -126 81q-75 0 -125.5 -54.5t-64.5 -157.5t21 -154.5t104 -51.5
q40 0 75.5 19.5z" />
    <glyph glyph-name="e" unicode="e" horiz-adv-x="556" 
d="M138 104q35 -54 115 -54q103 0 148 84l65 -13q-27 -61 -86.5 -96t-133.5 -35q-71 0 -121.5 31.5t-72.5 91t-10 141.5q18 126 89 199.5t180 73.5q104 0 152.5 -67.5t31.5 -186.5l-4 -32h-376q-12 -83 23 -137zM427 295q11 77 -20 125t-105 48q-51 0 -89.5 -25t-61 -64.5
t-29.5 -83.5h305z" />
    <glyph glyph-name="f" unicode="f" horiz-adv-x="385" 
d="M368 462h-132l-88 -623h-73l88 623h-114l8 55h114l11 82q17 124 138 124h90l-8 -54h-80q-32 0 -47 -17.5t-20 -54.5l-11 -80h132z" />
    <glyph glyph-name="g" unicode="g" horiz-adv-x="595" 
d="M37.5 -134q-59.5 37 -49.5 102q6 41 34 66t51 37t28 15q-3 2 -16 10t-20.5 21t-4.5 30q3 24 28 43t68 29q-45 26 -62.5 60t-10.5 82q11 77 76 120.5t164 43.5q48 0 81 -11.5t60 -34.5l133 52l-11 -76l-94 -18q5 -15 8 -37.5t1 -38.5q-10 -70 -70 -115.5t-162 -45.5l-23 1
q-58 -1 -84.5 -12.5t-28.5 -27.5q-2 -15 18.5 -21t78.5 -10l113 -7q81 -5 116 -41t27 -96q-10 -74 -80.5 -115.5t-188.5 -41.5q-120 0 -179.5 37zM384 280q39 28 47 81q8 54 -23.5 84t-97.5 30q-65 0 -106 -30.5t-48 -83.5q-7 -52 24.5 -80.5t97.5 -28.5q67 0 106 28z
M362 -96q43 24 50 73q5 37 -15.5 57t-72.5 23l-154 10q-18 2 -42.5 -10t-43.5 -34t-22 -47q-7 -47 38.5 -71.5t137.5 -24.5q81 0 124 24z" />
    <glyph glyph-name="h" unicode="h" horiz-adv-x="584" 
d="M141 743h70l-42 -300q46 32 73 47.5t57 25t66 9.5q76 0 113.5 -41t28.5 -109l-53 -375h-73l50 358q7 51 -15.5 78t-76.5 27q-43 0 -81 -18.5t-94 -61.5l-54 -383h-73z" />
    <glyph glyph-name="i" unicode="i" horiz-adv-x="246" 
d="M206 632h-80l15 111h80zM114 0h-74l73 517h74z" />
    <glyph glyph-name="j" unicode="j" horiz-adv-x="269" 
d="M219 632h-81l15 111h81zM78.5 -134.5q-33.5 -31.5 -106.5 -31.5q-35 0 -48.5 4.5t-13.5 6.5l6 48l55 2q37 2 54.5 19t23.5 57l77 546h73l-78 -550q-9 -70 -42.5 -101.5z" />
    <glyph glyph-name="k" unicode="k" horiz-adv-x="554" 
d="M394 0l-132 273l-130 -118l-22 -155h-73l104 743h73l-70 -503l303 277h85l-213 -194l155 -323h-80z" />
    <glyph glyph-name="l" unicode="l" horiz-adv-x="282" 
d="M68 34q-21 36 -12 99l85 610h72l-85 -605q-6 -42 7.5 -62.5t39.5 -21.5l28 -1l-6 -48q-25 -7 -42 -7q-66 0 -87 36z" />
    <glyph glyph-name="m" unicode="m" horiz-adv-x="897" 
d="M110 517h70l-11 -74q27 35 71.5 59.5t99.5 24.5q57 0 97.5 -21t53.5 -62q30 40 74.5 61.5t99.5 21.5q74 0 120 -41t31 -145l-48 -341h-73l47 336q10 73 -18.5 102t-85.5 29t-99.5 -28t-51.5 -90l-49 -349h-73l52 368q7 47 -24 73t-84 26q-51 0 -96 -28.5t-53 -82.5
l-50 -356h-73z" />
    <glyph glyph-name="n" unicode="n" horiz-adv-x="584" 
d="M110 517h70l-11 -74q27 37 73 59.5t105 22.5q79 0 123 -48.5t32 -138.5l-48 -338h-73l47 332q9 63 -20 97t-86 34q-63 0 -109 -28.5t-54 -82.5l-49 -352h-73z" />
    <glyph glyph-name="o" unicode="o" horiz-adv-x="568" 
d="M76.5 62.5q-51.5 72.5 -34.5 192.5q11 80 47.5 141.5t94 96t129.5 34.5q71 0 118 -34.5t66 -95.5t8 -140t-47 -139.5t-92.5 -94t-128.5 -33.5q-109 0 -160.5 72.5zM371 106.5q47 56.5 60 151.5t-18 152t-108 57q-78 0 -127 -57.5t-62 -151.5q-13 -93 19.5 -150.5
t110.5 -57.5t125 56.5z" />
    <glyph glyph-name="p" unicode="p" horiz-adv-x="589" 
d="M110 517h71l-11 -73q32 33 73 58t103 25t107.5 -29.5t65.5 -88t8 -143.5t-49.5 -147.5t-94.5 -95.5t-125 -33q-43 0 -77 14t-64 48l-30 -213h-73zM347 74.5q42 25.5 71 74t38 114.5q9 67 -7 113t-49.5 68.5t-78.5 22.5q-40 0 -76.5 -19t-59.5 -48t-27 -57l-30 -216
q49 -78 128 -78q49 0 91 25.5z" />
    <glyph glyph-name="q" unicode="q" horiz-adv-x="590" 
d="M364 -161l30 211q-42 -32 -80 -46t-81 -14q-68 0 -115 33t-67 95.5t-8 147.5t49 143.5t90.5 88t115.5 29.5q43 0 73.5 -13.5t44 -27t35.5 -38.5l10 69h72l-96 -678h-73zM406 137l28 198q5 33 -9 64.5t-44.5 51t-71.5 19.5q-69 0 -123 -52.5t-68 -153.5q-9 -67 6 -116
t49 -75.5t83 -26.5q75 0 150 91z" />
    <glyph glyph-name="r" unicode="r" horiz-adv-x="377" 
d="M110 517h69l-15 -104q34 49 93.5 81.5t114.5 32.5l-10 -71q-48 2 -94 -18t-77 -52t-36 -65l-45 -321h-73z" />
    <glyph glyph-name="s" unicode="s" horiz-adv-x="504" 
d="M72.5 28.5q-49.5 38.5 -52.5 103.5l65 12q14 -97 127 -97q57 0 100.5 24.5t49.5 65.5q9 65 -69 85l-106 24q-66 15 -93.5 47.5t-20.5 82.5q10 71 66.5 111t144.5 40q90 0 134 -41t38 -105l-65 -7q-6 96 -117 96q-50 0 -87.5 -20.5t-44.5 -69.5q-4 -26 13 -44t66 -31
l106 -28q63 -16 86.5 -53t17.5 -84q-6 -44 -37 -78t-80.5 -53t-110.5 -19q-81 0 -130.5 38.5z" />
    <glyph glyph-name="t" unicode="t" horiz-adv-x="382" 
d="M224 462l-47 -334q-6 -44 4.5 -59.5t38.5 -15.5h69l-6 -47q-22 -8 -73 -8q-70 0 -93 29.5t-14 94.5l48 340h-84l8 55h86l30 172h65l-24 -172h118l-8 -55h-118z" />
    <glyph glyph-name="u" unicode="u" horiz-adv-x="584" 
d="M142.5 9q-42.5 18 -66.5 58t-15 102l49 350h73l-48 -344q-9 -65 27 -95t87 -30q57 0 102.5 34.5t55.5 97.5l47 337h73l-74 -518h-59l9 81q-21 -36 -71 -63.5t-100 -27.5q-47 0 -89.5 18z" />
    <glyph glyph-name="v" unicode="v" horiz-adv-x="525" 
d="M247 0h-61l-136 517h71l109 -424l230 424h69z" />
    <glyph glyph-name="w" unicode="w" horiz-adv-x="770" 
d="M541 0h-73l-73 406l-180 -406h-72l-89 517h70l70 -425l189 425h58l75 -424l184 424h70z" />
    <glyph glyph-name="x" unicode="x" horiz-adv-x="528" 
d="M378 0l-130 215l-190 -215h-82l238 268l-149 249h82l116 -195l172 195h82l-219 -249l162 -268h-82z" />
    <glyph glyph-name="y" unicode="y" horiz-adv-x="516" 
d="M8 -162.5q-16 2.5 -23.5 5t-8.5 3.5l7 48l54 -1q49 -1 74 15.5t40 44.5l29 56l-130 508h75l102 -422l222 422h71l-301 -569q-34 -62 -75.5 -87.5t-94.5 -25.5q-25 0 -41 2.5z" />
    <glyph glyph-name="z" unicode="z" horiz-adv-x="481" 
d="M4 50l365 414h-286l8 53h372l-8 -51l-364 -413h312l-7 -53h-399z" />
    <glyph glyph-name="braceleft" unicode="{" horiz-adv-x="304" 
d="M203.5 696.5q36.5 26.5 91.5 26.5h43l-8 -51h-33q-35 0 -50 -12t-19 -39l-30 -218q-9 -54 -40.5 -83.5t-73.5 -33.5q-6 -1 -7 -3.5t6 -3.5q41 -3 64.5 -31.5t16.5 -84.5l-31 -220q-4 -29 8 -41t47 -12h33l-8 -51h-41q-58 0 -86 27t-22 72l31 221q5 39 -20.5 69t-78.5 30
l7 49q56 1 88.5 29t39.5 74l30 216q6 44 42.5 70.5z" />
    <glyph glyph-name="bar" unicode="|" horiz-adv-x="258" 
d="M30 -161l139 987h59l-139 -987h-59z" />
    <glyph glyph-name="braceright" unicode="}" horiz-adv-x="304" 
d="M130.5 -134.5q-36.5 -26.5 -91.5 -26.5h-43l8 51h33q35 0 50 12t19 39l30 218q9 54 40.5 83.5t73.5 33.5q6 1 7 3.5t-6 3.5q-41 3 -64.5 31.5t-16.5 84.5l31 220q4 29 -8 41t-47 12h-33l8 51h41q58 0 86 -27t22 -72l-31 -221q-5 -39 20.5 -69t78.5 -30l-7 -49
q-56 -1 -88.5 -29t-39.5 -74l-30 -216q-6 -44 -42.5 -70.5z" />
    <glyph glyph-name="asciitilde" unicode="~" horiz-adv-x="554" 
d="M444.5 330q-33.5 -16 -75.5 -16q-27 0 -47.5 6.5t-47.5 19.5q-23 11 -41 17t-40 6q-35 0 -62 -14t-52 -38l-15 45q34 30 65 45.5t70 15.5q25 0 46 -6.5t47 -19.5q27 -12 45 -18t40 -6q34 0 58.5 14t46.5 37l16 -46q-20 -26 -53.5 -42z" />
    <glyph glyph-name="uni00A0" unicode="&#xa0;" horiz-adv-x="231" 
 />
    <glyph glyph-name="exclamdown" unicode="&#xa1;" horiz-adv-x="243" 
d="M86 415l15 102h92l-15 -102h-92zM7 -161l91 508h51l-53 -508h-89z" />
    <glyph glyph-name="cent" unicode="&#xa2;" horiz-adv-x="537" 
d="M280 102l-14 -102h-58l14 103q-90 12 -133.5 83.5t-27.5 180.5q15 110 79 183.5t157 85.5l13 87h58l-12 -86q112 -12 151 -135l-63 -16q-30 51 -53.5 71t-64.5 20q-76 0 -128.5 -56.5t-65.5 -151.5q-13 -96 23 -153t112 -57q47 0 81.5 24.5t70.5 74.5l57 -17
q-74 -126 -196 -139z" />
    <glyph glyph-name="sterling" unicode="&#xa3;" horiz-adv-x="602" 
d="M-23 64h38q41 0 72 38t41 112q7 53 7 132h-100l7 51h91l-5 80q-3 29 1 60q8 60 42.5 104.5t84.5 68t105 23.5q66 0 115.5 -32t62.5 -78l-69 -25q-13 35 -38.5 52t-71.5 17q-57 0 -98.5 -32t-49.5 -89q-4 -31 -3 -71t7 -77h167l-7 -51h-160q2 -70 -8 -119
q-17 -104 -81 -163h188q54 0 88 18.5t58 63.5l61 -18q-64 -129 -212 -129h-342z" />
    <glyph glyph-name="currency" unicode="&#xa4;" horiz-adv-x="525" 
d="M143 213q-7 5 -13 -1l-60 -53l-32 41l65 56q-27 49 -19 108q8 54 44 100q6 7 1 13l-44 52l45 39l49 -59q53 35 111 35q57 0 96 -31q5 -5 12 1l61 54l33 -40l-67 -58q28 -49 20 -106q-8 -58 -44 -100q-6 -6 -2 -12l47 -51l-43 -40l-50 58q-55 -37 -112 -37t-98 31z
M340.5 278q39.5 36 46.5 86q4 32 -7 60t-36.5 45t-59.5 17t-64 -17t-50 -45t-25 -60q-4 -32 8 -60t37.5 -45t59.5 -17q51 0 90.5 36z" />
    <glyph glyph-name="yen" unicode="&#xa5;" horiz-adv-x="592" 
d="M351 335h145l-7 -50h-154l-13 -93h154l-7 -51h-154l-20 -141h-84l20 141h-154l7 50h154l13 93h-154l7 50h135l-175 389h95l151 -346l251 346h80z" />
    <glyph glyph-name="brokenbar" unicode="&#xa6;" horiz-adv-x="258" 
d="M113 428l56 398h59l-56 -398h-59zM30 -161l56 398h59l-56 -398h-59z" />
    <glyph glyph-name="section" unicode="&#xa7;" horiz-adv-x="479" 
d="M69.5 -38q-53.5 32 -72.5 84l55 28q18 -40 57 -64.5t92 -24.5q52 0 88 20.5t41 57.5q4 29 -15.5 52.5t-74.5 46.5l-84 35q-62 24 -86.5 59t-17.5 82q6 45 38.5 78.5t81.5 51.5q-53 29 -70 60.5t-12 69.5t32.5 69t71.5 48.5t98 17.5q61 0 106.5 -28.5t66.5 -70.5l-55 -28
q-48 72 -122 72q-54 0 -88 -20.5t-39 -53.5q-4 -25 12.5 -46.5t61.5 -40.5l80 -34q71 -31 99 -69.5t21 -89.5q-6 -46 -35.5 -76t-74.5 -51q43 -27 62 -57.5t14 -70.5q-6 -40 -34 -71.5t-73.5 -49.5t-101.5 -18q-69 0 -122.5 32zM327.5 251q32.5 25 37.5 61t-10 59.5
t-64 44.5l-54 22q-42 -3 -77.5 -30.5t-39.5 -60.5q-4 -30 11.5 -49.5t65.5 -41.5l59 -27q39 -3 71.5 22z" />
    <glyph glyph-name="dieresis" unicode="&#xa8;" horiz-adv-x="235" 
d="M126 618h-73l15 105h73zM263 618h-75l15 105h75z" />
    <glyph glyph-name="copyright" unicode="&#xa9;" horiz-adv-x="814" 
d="M180 40q-78 50 -116 135t-24 187q14 100 76 185.5t154 135.5t193 50t179.5 -50t116.5 -135.5t24 -185.5q-14 -102 -76 -187t-154.5 -135t-193.5 -50t-179 50zM528 84.5q77 39.5 130 111.5t66 166q13 92 -19.5 164.5t-98.5 112.5t-151 40q-86 0 -163.5 -40t-129 -112
t-64.5 -165q-13 -94 18 -166t97 -111.5t153 -39.5q85 0 162 39.5zM590 469l-59 -18q-32 72 -91 72q-56 0 -97.5 -43t-51.5 -114q-10 -73 19.5 -116.5t85.5 -43.5q38 0 70 21t56 57l42 -19q-34 -49 -79 -79.5t-100 -30.5t-94.5 26t-57 73.5t-8.5 109.5q9 61 39.5 109
t77.5 74.5t102 26.5q101 0 146 -105z" />
    <glyph glyph-name="ordfeminine" unicode="&#xaa;" horiz-adv-x="419" 
d="M93.5 420q-25.5 24 -19.5 66q6 46 51 73.5t124 33.5l62 6l4 24q9 66 -69 66q-29 0 -51 -11t-43 -39l-46 15q49 77 149 77q63 -1 91 -29.5t20 -80.5l-16 -115q-5 -35 -5 -66l1 -38h-56l-1 45q-32 -27 -59 -39t-59 -12q-52 0 -77.5 24zM266 462q15 12 23 22.5t9 21.5l8 55
l-52 -3q-58 -4 -88.5 -22t-34.5 -48q-3 -24 13.5 -38t48.5 -14q40 0 73 26z" />
    <glyph glyph-name="guillemotleft" unicode="&#xab;" horiz-adv-x="436" 
d="M178 72h-43l-110 179l163 187h44l-135 -187zM350 72h-43l-110 179l162 187h44l-134 -187z" />
    <glyph glyph-name="logicalnot" unicode="&#xac;" horiz-adv-x="546" 
d="M489 393l-28 -200h-62l19 141l-354 -1l8 59z" />
    <glyph glyph-name="uni00AD" unicode="&#xad;" horiz-adv-x="366" 
d="M300 229l-247 -1l8 60l248 1z" />
    <glyph glyph-name="registered" unicode="&#xae;" horiz-adv-x="536" 
d="M146.5 299q-49.5 31 -73 84t-14.5 117t47.5 117t96.5 84.5t122 31.5q63 0 112 -31.5t72.5 -85t14.5 -116.5t-47.5 -116.5t-96 -84.5t-120.5 -31q-64 0 -113.5 31zM366.5 333.5q45.5 23.5 75.5 66.5t38 100t-10 100t-57 67t-94 24q-85 0 -144.5 -52.5t-71.5 -138.5
q-12 -87 33 -138.5t130 -51.5q55 0 100.5 23.5zM220 614h102q37 0 55 -15t14 -43q-6 -44 -58 -62l30 -111h-41l-25 108h-56l-15 -108h-38zM305 523q43 0 47 29q4 31 -42 31h-56l-8 -60h59z" />
    <glyph glyph-name="macron" unicode="&#xaf;" horiz-adv-x="304" 
d="M336 653h-278l8 55h278z" />
    <glyph glyph-name="degree" unicode="&#xb0;" horiz-adv-x="458" 
d="M371.5 573.5q-49.5 -43.5 -115.5 -43.5q-67 0 -103.5 43t-27.5 110t58.5 110.5t116.5 43.5q66 0 102.5 -43.5t27.5 -110.5q-9 -66 -58.5 -109.5zM357.5 756q-22.5 28 -67.5 28q-44 0 -75 -28t-37 -72q-7 -47 16 -75.5t69 -28.5q44 0 74 28t37 74q6 46 -16.5 74z" />
    <glyph glyph-name="plusminus" unicode="&#xb1;" horiz-adv-x="546" 
d="M500 467l-9 -59h-179l-25 -179h-58l25 178h-180l8 59h179l26 180h59l-25 -179h179zM35 125l417 1l-9 -59h-417z" />
    <glyph glyph-name="uni00B2" unicode="&#xb2;" horiz-adv-x="375" 
d="M30 427l169 146q60 51 85 82t29 64q6 42 -19.5 63t-62.5 21q-34 0 -65 -15.5t-54 -48.5l-38 14q26 45 68.5 68.5t97.5 23.5q61 0 95.5 -33t26.5 -91q-6 -40 -32 -74.5t-90 -91.5l-147 -129h232l-6 -42h-295z" />
    <glyph glyph-name="uni00B3" unicode="&#xb3;" horiz-adv-x="390" 
d="M169 824.5q45 20.5 96 20.5q67 0 105 -32.5t31 -81.5q-10 -74 -104 -105q46 -13 69.5 -43.5t17.5 -73.5q-8 -57 -61 -94t-131 -37q-57 0 -93 18.5t-54 63.5l43 14q33 -55 111 -55q56 0 91.5 24.5t40.5 63.5q6 44 -25.5 69.5t-79.5 25.5h-61l5 40l52 1q49 0 86 24.5
t43 60.5q5 33 -21.5 55t-70.5 22q-75 0 -118 -56l-38 15q21 40 66 60.5z" />
    <glyph glyph-name="acute" unicode="&#xb4;" horiz-adv-x="280" 
d="M318 671l-257 -75l-8 41l254 95z" />
    <glyph glyph-name="paragraph" unicode="&#xb6;" horiz-adv-x="558" 
d="M464 676l-107 -759h-51l107 759h-48l-107 -759h-52l54 380q-64 1 -108 29.5t-63.5 75t-11.5 101.5q8 58 41 108t89 81t129 31h195l-7 -47h-60z" />
    <glyph glyph-name="periodcentered" unicode="&#xb7;" horiz-adv-x="197" 
d="M146 315h-102l14 99h102z" />
    <glyph glyph-name="cedilla" unicode="&#xb8;" horiz-adv-x="216" 
d="M100 -183q-33 -20 -77 -20q-53 0 -84 24l19 35q25 -23 62 -23q56 0 61 38q3 23 -14.5 33.5t-57.5 11.5q-8 0 -5 6l49 83h43l-33 -61q45 -3 62 -23.5t13 -48.5q-5 -35 -38 -55z" />
    <glyph glyph-name="uni00B9" unicode="&#xb9;" horiz-adv-x="293" 
d="M153 779l-95 -33l5 37l113 52h34l-64 -455h-49z" />
    <glyph glyph-name="ordmasculine" unicode="&#xba;" horiz-adv-x="413" 
d="M369 685.5q35 -46.5 24 -122.5q-10 -74 -57.5 -120t-119.5 -46t-106.5 46t-24.5 120q11 76 59.5 122.5t118.5 46.5q71 0 106 -46.5zM181 656.5q-29 -32.5 -37 -90.5q-8 -60 11.5 -93.5t66.5 -33.5t76 33.5t38 93.5q8 57 -12.5 90t-66.5 33q-47 0 -76 -32.5z" />
    <glyph glyph-name="guillemotright" unicode="&#xbb;" horiz-adv-x="435" 
d="M63 438h43l109 -187l-161 -179h-42l131 179zM234 438h44l108 -187l-160 -179h-42l131 179z" />
    <glyph glyph-name="onequarter" unicode="&#xbc;" horiz-adv-x="947" 
d="M138 675l-95 -33l5 37l113 52h34l-64 -455h-49zM151 -4h-54l592 735h52zM841 455l-41 -291h71l-6 -43h-71l-17 -121h-47l18 121h-215l6 46l254 288h48zM752 164l31 222l-195 -222h164z" />
    <glyph glyph-name="onehalf" unicode="&#xbd;" horiz-adv-x="915" 
d="M138 675l-95 -33l5 37l113 52h34l-64 -455h-49zM151 -4h-54l592 735h52zM516 43l169 146q59 51 84 82t30 64q6 42 -19.5 63t-62.5 21q-34 0 -65.5 -15.5t-53.5 -48.5l-39 14q27 45 69.5 68.5t96.5 23.5q41 0 70 -15t43.5 -43t8.5 -67q-3 -27 -16 -50.5t-37.5 -49.5
t-68.5 -65l-147 -129h233l-6 -42h-295z" />
    <glyph glyph-name="threequarters" unicode="&#xbe;" horiz-adv-x="1044" 
d="M154 719.5q45 20.5 96 20.5q67 0 105 -32.5t31 -81.5q-10 -74 -104 -105q46 -13 69.5 -43.5t17.5 -73.5q-8 -57 -61 -94t-131 -37q-57 0 -93 18.5t-54 63.5l43 14q33 -55 111 -55q56 0 91.5 24.5t40.5 63.5q6 44 -25.5 69.5t-79.5 25.5h-61l5 40l52 1q49 0 86 24.5
t43 60.5q5 33 -21.5 55t-70.5 22q-75 0 -118 -56l-38 15q21 40 66 60.5zM248 -4h-54l592 735h52zM938 455l-41 -291h71l-6 -43h-71l-17 -121h-47l18 121h-215l6 46l254 288h48zM849 164l31 222l-195 -222h164z" />
    <glyph glyph-name="questiondown" unicode="&#xbf;" horiz-adv-x="508" 
d="M245 517h92l-15 -102h-92zM318.5 -134.5q-66.5 -36.5 -142.5 -36.5q-101 0 -152 48.5t-40 127.5q8 54 37.5 89.5t84.5 76.5q38 29 61.5 51t42 53.5t24.5 72.5h66q-7 -49 -27 -86t-45 -61t-65 -57q-47 -38 -71.5 -67t-30.5 -70q-7 -53 27 -85t97 -32q52 0 104 29t74 71
l63 -23q-41 -65 -107.5 -101.5z" />
    <glyph glyph-name="Agrave" unicode="&#xc0;" horiz-adv-x="693" 
d="M360 723h86l160 -723h-75l-47 209h-308l-106 -209h-75zM473 279l-81 371l-186 -371h267zM539 843l-19 -41l-238 75l30 61z" />
    <glyph glyph-name="Aacute" unicode="&#xc1;" horiz-adv-x="693" 
d="M360 723h86l160 -723h-75l-47 209h-308l-106 -209h-75zM473 279l-81 371l-186 -371h267zM557 877l-257 -75l-8 41l254 95z" />
    <glyph glyph-name="Acircumflex" unicode="&#xc2;" horiz-adv-x="693" 
d="M360 723h86l160 -723h-75l-47 209h-308l-106 -209h-75zM473 279l-81 371l-186 -371h267zM428 888l-85 -64h-73l138 107h54l106 -107h-77z" />
    <glyph glyph-name="Atilde" unicode="&#xc3;" horiz-adv-x="693" 
d="M360 723h86l160 -723h-75l-47 209h-308l-106 -209h-75zM473 279l-81 371l-186 -371h267zM486 848q-19 0 -33 3.5t-32 10.5q-32 12 -52 12q-16 0 -27.5 -4t-21 -9.5t-13.5 -7.5q-4 -3 -7 -3t-4 8l-6 24q-1 4 -1 5q0 2 6 7q21 14 37.5 21.5t38.5 7.5q16 0 30 -3.5t34 -10.5
q35 -13 58 -13q16 0 28 4.5t30 13.5q5 3 8 3q4 0 6 -7l5 -28q1 -1 0 -4q-1 -4 -9 -8q-34 -22 -75 -22z" />
    <glyph glyph-name="Adieresis" unicode="&#xc4;" horiz-adv-x="693" 
d="M360 723h86l160 -723h-75l-47 209h-308l-106 -209h-75zM473 279l-81 371l-186 -371h267zM388 824h-73l15 105h73zM525 824h-75l15 105h75z" />
    <glyph glyph-name="Aring" unicode="&#xc5;" horiz-adv-x="693" 
d="M360 723h86l160 -723h-75l-47 209h-308l-106 -209h-75zM473 279l-81 371l-186 -371h267zM490.5 814.5q-33.5 -28.5 -76.5 -28.5q-42 0 -66.5 29.5t-18.5 72.5q6 40 39 69t74 29q43 0 68.5 -29t19.5 -71q-6 -43 -39.5 -71.5zM472 925.5q-14 15.5 -37 15.5q-22 0 -40.5 -16
t-22.5 -39q-3 -22 11 -39t36 -17q23 0 41.5 17t21.5 39q4 24 -10 39.5z" />
    <glyph glyph-name="AE" unicode="&#xc6;" horiz-adv-x="996" 
d="M882 0h-441l30 212h-252l-149 -212h-75l506 723h471l-11 -65h-345l-36 -261h264l-9 -64h-264l-38 -268h358zM535 667l-277 -388h222z" />
    <glyph glyph-name="Ccedilla" unicode="&#xc7;" horiz-adv-x="675" 
d="M537 704.5q55 -28.5 83 -77t27 -106.5l-78 -5q-3 69 -46.5 110t-123.5 41q-106 0 -171.5 -77t-86.5 -229q-21 -150 23.5 -227.5t154.5 -77.5q69 0 124 39.5t80 107.5l75 -9q-15 -57 -56 -103.5t-101.5 -73.5t-130.5 -27q-144 0 -209.5 98.5t-40.5 273.5t116 273t232 98
q74 0 129 -28.5zM340 -183q-33 -20 -77 -20q-53 0 -84 24l19 35q25 -23 62 -23q56 0 61 38q3 23 -14.5 33.5t-57.5 11.5q-8 0 -5 6l49 83h43l-33 -61q45 -3 62 -23.5t13 -48.5q-5 -35 -38 -55z" />
    <glyph glyph-name="Egrave" unicode="&#xc8;" horiz-adv-x="617" 
d="M155 723h441l-11 -66h-367l-36 -259h335l-9 -66h-335l-37 -264l378 -1l-9 -67h-452zM519 843l-19 -41l-238 75l30 61z" />
    <glyph glyph-name="Eacute" unicode="&#xc9;" horiz-adv-x="617" 
d="M155 723h441l-11 -66h-367l-36 -259h335l-9 -66h-335l-37 -264l378 -1l-9 -67h-452zM537 877l-257 -75l-8 41l254 95z" />
    <glyph glyph-name="Ecircumflex" unicode="&#xca;" horiz-adv-x="617" 
d="M155 723h441l-11 -66h-367l-36 -259h335l-9 -66h-335l-37 -264l378 -1l-9 -67h-452zM408 888l-85 -64h-73l138 107h54l106 -107h-77z" />
    <glyph glyph-name="Edieresis" unicode="&#xcb;" horiz-adv-x="617" 
d="M155 723h441l-11 -66h-367l-36 -259h335l-9 -66h-335l-37 -264l378 -1l-9 -67h-452zM368 824h-73l15 105h73zM505 824h-75l15 105h75z" />
    <glyph glyph-name="Igrave" unicode="&#xcc;" horiz-adv-x="270" 
d="M228 723l-102 -723h-73l102 723h73zM328 843l-19 -41l-238 75l30 61z" />
    <glyph glyph-name="Iacute" unicode="&#xcd;" horiz-adv-x="270" 
d="M228 723l-102 -723h-73l102 723h73zM346 877l-257 -75l-8 41l254 95z" />
    <glyph glyph-name="Icircumflex" unicode="&#xce;" horiz-adv-x="270" 
d="M228 723l-102 -723h-73l102 723h73zM217 888l-85 -64h-73l138 107h54l106 -107h-77z" />
    <glyph glyph-name="Idieresis" unicode="&#xcf;" horiz-adv-x="270" 
d="M228 723l-102 -723h-73l102 723h73zM177 824h-73l15 105h73zM314 824h-75l15 105h75z" />
    <glyph glyph-name="Eth" unicode="&#xd0;" horiz-adv-x="686" 
d="M584.5 632q77.5 -88 52.5 -266q-26 -185 -134 -275.5t-305 -90.5h-139l47 331h-58q-8 0 -11 3t-2 10l6 37q2 12 11 12h62l47 330l149 -1q197 -2 274.5 -90zM449 135.5q88 69.5 110 228.5q23 161 -44.5 227.5t-220.5 66.5h-67l-37 -265h164q9 0 8 -10l-5 -37
q-1 -8 -5.5 -11.5t-13.5 -3.5h-156l-38 -265h62q155 0 243 69.5z" />
    <glyph glyph-name="Ntilde" unicode="&#xd1;" horiz-adv-x="740" 
d="M697 723l-102 -723h-65l-320 597l-84 -597h-73l102 723h67l318 -592l84 592h73zM517 848q-19 0 -33 3.5t-32 10.5q-32 12 -52 12q-16 0 -27.5 -4t-21 -9.5t-13.5 -7.5q-4 -3 -7 -3t-4 8l-6 24q-1 4 -1 5q0 2 6 7q21 14 37.5 21.5t38.5 7.5q16 0 30 -3.5t34 -10.5
q35 -13 58 -13q16 0 28 4.5t30 13.5q5 3 8 3q4 0 6 -7l5 -28q1 -1 0 -4q-1 -4 -9 -8q-34 -22 -75 -22z" />
    <glyph glyph-name="Ograve" unicode="&#xd2;" horiz-adv-x="721" 
d="M102.5 86q-67.5 96 -43.5 272q17 119 66 203.5t124 128t170 43.5q94 0 156.5 -43.5t87 -127.5t8.5 -202q-25 -177 -119.5 -273.5t-237.5 -96.5q-144 0 -211.5 96zM501.5 131q67.5 75 88.5 228q22 155 -24.5 231.5t-155.5 76.5t-178.5 -77t-91.5 -231q-21 -152 27 -227.5
t158 -75.5q109 0 176.5 75zM552 843l-19 -41l-238 75l30 61z" />
    <glyph glyph-name="Oacute" unicode="&#xd3;" horiz-adv-x="721" 
d="M102.5 86q-67.5 96 -43.5 272q17 119 66 203.5t124 128t170 43.5q94 0 156.5 -43.5t87 -127.5t8.5 -202q-25 -177 -119.5 -273.5t-237.5 -96.5q-144 0 -211.5 96zM501.5 131q67.5 75 88.5 228q22 155 -24.5 231.5t-155.5 76.5t-178.5 -77t-91.5 -231q-21 -152 27 -227.5
t158 -75.5q109 0 176.5 75zM570 877l-257 -75l-8 41l254 95z" />
    <glyph glyph-name="Ocircumflex" unicode="&#xd4;" horiz-adv-x="721" 
d="M102.5 86q-67.5 96 -43.5 272q17 119 66 203.5t124 128t170 43.5q94 0 156.5 -43.5t87 -127.5t8.5 -202q-25 -177 -119.5 -273.5t-237.5 -96.5q-144 0 -211.5 96zM501.5 131q67.5 75 88.5 228q22 155 -24.5 231.5t-155.5 76.5t-178.5 -77t-91.5 -231q-21 -152 27 -227.5
t158 -75.5q109 0 176.5 75zM441 888l-85 -64h-73l138 107h54l106 -107h-77z" />
    <glyph glyph-name="Otilde" unicode="&#xd5;" horiz-adv-x="721" 
d="M102.5 86q-67.5 96 -43.5 272q17 119 66 203.5t124 128t170 43.5q94 0 156.5 -43.5t87 -127.5t8.5 -202q-25 -177 -119.5 -273.5t-237.5 -96.5q-144 0 -211.5 96zM501.5 131q67.5 75 88.5 228q22 155 -24.5 231.5t-155.5 76.5t-178.5 -77t-91.5 -231q-21 -152 27 -227.5
t158 -75.5q109 0 176.5 75zM499 848q-19 0 -33 3.5t-32 10.5q-32 12 -52 12q-16 0 -27.5 -4t-21 -9.5t-13.5 -7.5q-4 -3 -7 -3t-4 8l-6 24q-1 4 -1 5q0 2 6 7q21 14 37.5 21.5t38.5 7.5q16 0 30 -3.5t34 -10.5q35 -13 58 -13q16 0 28 4.5t30 13.5q5 3 8 3q4 0 6 -7l5 -28
q1 -1 0 -4q-1 -4 -9 -8q-34 -22 -75 -22z" />
    <glyph glyph-name="Odieresis" unicode="&#xd6;" horiz-adv-x="721" 
d="M102.5 86q-67.5 96 -43.5 272q17 119 66 203.5t124 128t170 43.5q94 0 156.5 -43.5t87 -127.5t8.5 -202q-25 -177 -119.5 -273.5t-237.5 -96.5q-144 0 -211.5 96zM501.5 131q67.5 75 88.5 228q22 155 -24.5 231.5t-155.5 76.5t-178.5 -77t-91.5 -231q-21 -152 27 -227.5
t158 -75.5q109 0 176.5 75zM401 824h-73l15 105h73zM538 824h-75l15 105h75z" />
    <glyph glyph-name="multiply" unicode="&#xd7;" horiz-adv-x="528" 
d="M309 363l136 -157l-48 -43l-136 158l-179 -158l-36 43l179 157l-136 158l48 41l135 -157l180 159l37 -42z" />
    <glyph glyph-name="Oslash" unicode="&#xd8;" horiz-adv-x="712" 
d="M739 686l-93 -91q40 -94 20 -235q-16 -117 -64.5 -200.5t-123.5 -126.5t-170 -43q-137 0 -202 85l-79 -76q-7 -7 -13 -7q-4 0 -11 6l-18 21q-6 6 -6 10t4 8l91 89q-40 90 -21 232q17 119 66 203.5t124 128t170 43.5q135 0 202 -87l82 79q10 10 16 3l27 -28q6 -7 -1 -14z
M148 193l406 398q-42 76 -150 76q-109 0 -174.5 -76t-87.5 -232q-14 -100 6 -166zM571 528l-406 -397q43 -75 154 -75q108 0 171.5 74t84.5 229q15 104 -4 169z" />
    <glyph glyph-name="Ugrave" unicode="&#xd9;" horiz-adv-x="708" 
d="M307 -10q-133 0 -185 65t-34 197l67 471h76l-69 -486q-13 -90 26 -136t128 -46t142 45.5t65 136.5l69 486h73l-68 -483q-35 -250 -290 -250zM541 843l-19 -41l-238 75l30 61z" />
    <glyph glyph-name="Uacute" unicode="&#xda;" horiz-adv-x="708" 
d="M307 -10q-133 0 -185 65t-34 197l67 471h76l-69 -486q-13 -90 26 -136t128 -46t142 45.5t65 136.5l69 486h73l-68 -483q-35 -250 -290 -250zM559 877l-257 -75l-8 41l254 95z" />
    <glyph glyph-name="Ucircumflex" unicode="&#xdb;" horiz-adv-x="708" 
d="M307 -10q-133 0 -185 65t-34 197l67 471h76l-69 -486q-13 -90 26 -136t128 -46t142 45.5t65 136.5l69 486h73l-68 -483q-35 -250 -290 -250zM430 888l-85 -64h-73l138 107h54l106 -107h-77z" />
    <glyph glyph-name="Udieresis" unicode="&#xdc;" horiz-adv-x="708" 
d="M307 -10q-133 0 -185 65t-34 197l67 471h76l-69 -486q-13 -90 26 -136t128 -46t142 45.5t65 136.5l69 486h73l-68 -483q-35 -250 -290 -250zM390 824h-73l15 105h73zM527 824h-75l15 105h75z" />
    <glyph glyph-name="Yacute" unicode="&#xdd;" horiz-adv-x="576" 
d="M323 309l-43 -309h-73l44 310l-187 413h80l153 -347l247 347h80zM498 877l-257 -75l-8 41l254 95z" />
    <glyph glyph-name="Thorn" unicode="&#xde;" horiz-adv-x="652" 
d="M534.5 219.5q-76.5 -51.5 -194.5 -51.5h-180l-24 -168h-83l102 723h83l-22 -152h170q121 0 187 -49t53 -146q-15 -105 -91.5 -156.5zM373 507h-166l-38 -274h173q85 0 136.5 35t61.5 109q18 130 -167 130z" />
    <glyph glyph-name="germandbls" unicode="&#xdf;" horiz-adv-x="592" 
d="M487 684.5q35 -38.5 27 -96.5q-5 -36 -23.5 -60t-43 -39t-68.5 -35q-42 -21 -56 -32t-17 -30t8.5 -27.5t46.5 -19.5q58 -23 89 -39.5t54 -52.5t15 -94q-11 -80 -71.5 -124.5t-144.5 -44.5q-36 0 -73 9.5t-59 25.5l36 51q24 -15 45 -23t52 -8q59 0 98 28.5t46 78.5
q5 36 -9 58.5t-38.5 35.5t-65.5 28q-32 11 -52.5 22t-32.5 31.5t-7 53.5q5 35 29 59.5t75 50.5q8 4 35 19t42.5 34t19.5 44q5 37 -19 58.5t-73 21.5q-62 0 -104.5 -37.5t-52.5 -108.5l-73 -522h-72l64 454h-70l8 56h69q14 96 79.5 154.5t166.5 58.5q85 0 120 -38.5z" />
    <glyph glyph-name="agrave" unicode="&#xe0;" horiz-adv-x="556" 
d="M387 0l7 50q-42 -32 -80 -46t-81 -14q-68 0 -115 33t-67 95.5t-8 147.5t49 143.5t90.5 88t115.5 29.5q43 0 73.5 -13.5t44 -27t35.5 -38.5l10 69h72l-74 -517h-72zM406 137l28 198q5 33 -9 64.5t-44.5 51t-71.5 19.5q-69 0 -123 -52.5t-68 -153.5q-9 -67 6 -116t49 -75.5
t83 -26.5q75 0 150 91zM437 637l-19 -41l-238 75l30 61z" />
    <glyph glyph-name="aacute" unicode="&#xe1;" horiz-adv-x="556" 
d="M387 0l7 50q-42 -32 -80 -46t-81 -14q-68 0 -115 33t-67 95.5t-8 147.5t49 143.5t90.5 88t115.5 29.5q43 0 73.5 -13.5t44 -27t35.5 -38.5l10 69h72l-74 -517h-72zM406 137l28 198q5 33 -9 64.5t-44.5 51t-71.5 19.5q-69 0 -123 -52.5t-68 -153.5q-9 -67 6 -116t49 -75.5
t83 -26.5q75 0 150 91zM455 671l-257 -75l-8 41l254 95z" />
    <glyph glyph-name="acircumflex" unicode="&#xe2;" horiz-adv-x="556" 
d="M387 0l7 50q-42 -32 -80 -46t-81 -14q-68 0 -115 33t-67 95.5t-8 147.5t49 143.5t90.5 88t115.5 29.5q43 0 73.5 -13.5t44 -27t35.5 -38.5l10 69h72l-74 -517h-72zM406 137l28 198q5 33 -9 64.5t-44.5 51t-71.5 19.5q-69 0 -123 -52.5t-68 -153.5q-9 -67 6 -116t49 -75.5
t83 -26.5q75 0 150 91zM326 682l-85 -64h-73l138 107h54l106 -107h-77z" />
    <glyph glyph-name="atilde" unicode="&#xe3;" horiz-adv-x="556" 
d="M387 0l7 50q-42 -32 -80 -46t-81 -14q-68 0 -115 33t-67 95.5t-8 147.5t49 143.5t90.5 88t115.5 29.5q43 0 73.5 -13.5t44 -27t35.5 -38.5l10 69h72l-74 -517h-72zM406 137l28 198q5 33 -9 64.5t-44.5 51t-71.5 19.5q-69 0 -123 -52.5t-68 -153.5q-9 -67 6 -116t49 -75.5
t83 -26.5q75 0 150 91zM384 642q-19 0 -33 3.5t-32 10.5q-32 12 -52 12q-16 0 -27.5 -4t-21 -9.5t-13.5 -7.5q-4 -3 -7 -3t-4 8l-6 24q-1 4 -1 5q0 2 6 7q21 14 37.5 21.5t38.5 7.5q16 0 30 -3.5t34 -10.5q35 -13 58 -13q16 0 28 4.5t30 13.5q5 3 8 3q4 0 6 -7l5 -28
q1 -1 0 -4q-1 -4 -9 -8q-34 -22 -75 -22z" />
    <glyph glyph-name="adieresis" unicode="&#xe4;" horiz-adv-x="556" 
d="M387 0l7 50q-42 -32 -80 -46t-81 -14q-68 0 -115 33t-67 95.5t-8 147.5t49 143.5t90.5 88t115.5 29.5q43 0 73.5 -13.5t44 -27t35.5 -38.5l10 69h72l-74 -517h-72zM406 137l28 198q5 33 -9 64.5t-44.5 51t-71.5 19.5q-69 0 -123 -52.5t-68 -153.5q-9 -67 6 -116t49 -75.5
t83 -26.5q75 0 150 91zM286 618h-73l15 105h73zM423 618h-75l15 105h75z" />
    <glyph glyph-name="aring" unicode="&#xe5;" horiz-adv-x="556" 
d="M387 0l7 50q-42 -32 -80 -46t-81 -14q-68 0 -115 33t-67 95.5t-8 147.5t49 143.5t90.5 88t115.5 29.5q43 0 73.5 -13.5t44 -27t35.5 -38.5l10 69h72l-74 -517h-72zM406 137l28 198q5 33 -9 64.5t-44.5 51t-71.5 19.5q-69 0 -123 -52.5t-68 -153.5q-9 -67 6 -116t49 -75.5
t83 -26.5q75 0 150 91zM388.5 608.5q-33.5 -28.5 -76.5 -28.5q-42 0 -66.5 29.5t-18.5 72.5q6 40 39 69t74 29q43 0 68.5 -29t19.5 -71q-6 -43 -39.5 -71.5zM370 719.5q-14 15.5 -37 15.5q-22 0 -40.5 -16t-22.5 -39q-3 -22 11 -39t36 -17q23 0 41.5 17t21.5 39
q4 24 -10 39.5z" />
    <glyph glyph-name="ae" unicode="&#xe6;" horiz-adv-x="928" 
d="M471 148.5q17 -45.5 54 -73.5t84 -28q60 0 99 24.5t77 66.5l46 -28q-41 -57 -102 -88.5t-136 -31.5q-73 0 -115 30.5t-70 76.5q-1 2 -2.5 2t-3.5 -2q-48 -48 -100.5 -77.5t-132.5 -29.5q-77 0 -115 39t-29 105q10 74 77.5 118t190.5 53l109 8l6 41q8 56 -21.5 87
t-92.5 31q-87 0 -160 -89l-57 23q40 59 99 90t133 31q138 0 160 -100q36 49 87.5 74.5t113.5 25.5q69 0 117.5 -33.5t68.5 -97.5t7 -153l-402 -1q-7 -48 10 -93.5zM574.5 450q-40.5 -22 -68 -62.5t-35.5 -94.5l325 -1q7 48 -7.5 89.5t-47.5 66t-80 24.5q-46 0 -86.5 -22z
M303 257q-188 -15 -202 -118q-6 -43 18 -68.5t74 -25.5q46 0 87.5 17t69 45.5t32.5 61.5l13 94z" />
    <glyph glyph-name="ccedilla" unicode="&#xe7;" horiz-adv-x="537" 
d="M488 391l-62 -16q-30 51 -54 71t-65 20q-76 0 -128 -56.5t-66 -151.5q-13 -96 23.5 -153t112.5 -57q47 0 81.5 24.5t70.5 74.5l56 -17q-38 -67 -93.5 -103.5t-126.5 -36.5q-70 0 -118 33.5t-68 93.5t-9 139t48 140.5t94.5 96t127.5 34.5q133 0 176 -136zM268 -183
q-33 -20 -77 -20q-53 0 -84 24l19 35q25 -23 62 -23q56 0 61 38q3 23 -14.5 33.5t-57.5 11.5q-8 0 -5 6l49 83h43l-33 -61q45 -3 62 -23.5t13 -48.5q-5 -35 -38 -55z" />
    <glyph glyph-name="egrave" unicode="&#xe8;" horiz-adv-x="555" 
d="M138 104q35 -54 115 -54q103 0 148 84l65 -13q-27 -61 -86.5 -96t-133.5 -35q-71 0 -121.5 31.5t-72.5 91t-10 141.5q18 126 89 199.5t180 73.5q104 0 152.5 -67.5t31.5 -186.5l-4 -32h-376q-12 -83 23 -137zM427 295q11 77 -20 125t-105 48q-51 0 -89.5 -25t-61 -64.5
t-29.5 -83.5h305zM443 637l-19 -41l-238 75l30 61z" />
    <glyph glyph-name="eacute" unicode="&#xe9;" horiz-adv-x="555" 
d="M138 104q35 -54 115 -54q103 0 148 84l65 -13q-27 -61 -86.5 -96t-133.5 -35q-71 0 -121.5 31.5t-72.5 91t-10 141.5q18 126 89 199.5t180 73.5q104 0 152.5 -67.5t31.5 -186.5l-4 -32h-376q-12 -83 23 -137zM427 295q11 77 -20 125t-105 48q-51 0 -89.5 -25t-61 -64.5
t-29.5 -83.5h305zM461 671l-257 -75l-8 41l254 95z" />
    <glyph glyph-name="ecircumflex" unicode="&#xea;" horiz-adv-x="555" 
d="M138 104q35 -54 115 -54q103 0 148 84l65 -13q-27 -61 -86.5 -96t-133.5 -35q-71 0 -121.5 31.5t-72.5 91t-10 141.5q18 126 89 199.5t180 73.5q104 0 152.5 -67.5t31.5 -186.5l-4 -32h-376q-12 -83 23 -137zM427 295q11 77 -20 125t-105 48q-51 0 -89.5 -25t-61 -64.5
t-29.5 -83.5h305zM332 682l-85 -64h-73l138 107h54l106 -107h-77z" />
    <glyph glyph-name="edieresis" unicode="&#xeb;" horiz-adv-x="555" 
d="M138 104q35 -54 115 -54q103 0 148 84l65 -13q-27 -61 -86.5 -96t-133.5 -35q-71 0 -121.5 31.5t-72.5 91t-10 141.5q18 126 89 199.5t180 73.5q104 0 152.5 -67.5t31.5 -186.5l-4 -32h-376q-12 -83 23 -137zM427 295q11 77 -20 125t-105 48q-51 0 -89.5 -25t-61 -64.5
t-29.5 -83.5h305zM292 618h-73l15 105h73zM429 618h-75l15 105h75z" />
    <glyph glyph-name="igrave" unicode="&#xec;" horiz-adv-x="238" 
d="M110 0h-73l73 517h73zM280 637l-19 -41l-238 75l30 61z" />
    <glyph glyph-name="iacute" unicode="&#xed;" horiz-adv-x="238" 
d="M110 0h-73l73 517h73zM298 671l-257 -75l-8 41l254 95z" />
    <glyph glyph-name="icircumflex" unicode="&#xee;" horiz-adv-x="238" 
d="M110 0h-73l73 517h73zM169 682l-85 -64h-73l138 107h54l106 -107h-77z" />
    <glyph glyph-name="idieresis" unicode="&#xef;" horiz-adv-x="238" 
d="M110 0h-73l73 517h73zM129 618h-73l15 105h73zM266 618h-75l15 105h75z" />
    <glyph glyph-name="eth" unicode="&#xf0;" horiz-adv-x="595" 
d="M482 117q-38 -60 -98.5 -93.5t-135.5 -33.5q-71 0 -122 33t-73.5 91t-11.5 132q11 75 49.5 134.5t97.5 93t127 33.5q82 0 124 -51q-30 96 -119 164l-170 -89l-17 35l152 78q-44 28 -108 53l55 37q58 -21 116 -56l111 57l14 -36l-89 -47q183 -139 147 -397
q-11 -78 -49 -138zM349 72q42 26 70 72.5t36 103.5q8 58 -7 104.5t-49.5 73t-82.5 26.5q-49 0 -92 -26.5t-71.5 -73t-36.5 -104.5q-8 -57 7.5 -103.5t50.5 -72.5t84 -26t91 26z" />
    <glyph glyph-name="ntilde" unicode="&#xf1;" 
d="M110 517h70l-11 -74q27 37 73 59.5t105 22.5q79 0 123 -48.5t32 -138.5l-48 -338h-73l47 332q9 63 -20 97t-86 34q-63 0 -109 -28.5t-54 -82.5l-49 -352h-73zM407 642q-19 0 -33 3.5t-32 10.5q-32 12 -52 12q-16 0 -27.5 -4t-21 -9.5t-13.5 -7.5q-4 -3 -7 -3t-4 8l-6 24
q-1 4 -1 5q0 2 6 7q21 14 37.5 21.5t38.5 7.5q16 0 30 -3.5t34 -10.5q35 -13 58 -13q16 0 28 4.5t30 13.5q5 3 8 3q4 0 6 -7l5 -28q1 -1 0 -4q-1 -4 -9 -8q-34 -22 -75 -22z" />
    <glyph glyph-name="ograve" unicode="&#xf2;" horiz-adv-x="567" 
d="M76.5 62.5q-51.5 72.5 -34.5 192.5q11 80 47.5 141.5t94 96t129.5 34.5q71 0 118 -34.5t66 -95.5t8 -140t-47 -139.5t-92.5 -94t-128.5 -33.5q-109 0 -160.5 72.5zM371 106.5q47 56.5 60 151.5t-18 152t-108 57q-78 0 -127 -57.5t-62 -151.5q-13 -93 19.5 -150.5
t110.5 -57.5t125 56.5zM445 637l-19 -41l-238 75l30 61z" />
    <glyph glyph-name="oacute" unicode="&#xf3;" horiz-adv-x="567" 
d="M76.5 62.5q-51.5 72.5 -34.5 192.5q11 80 47.5 141.5t94 96t129.5 34.5q71 0 118 -34.5t66 -95.5t8 -140t-47 -139.5t-92.5 -94t-128.5 -33.5q-109 0 -160.5 72.5zM371 106.5q47 56.5 60 151.5t-18 152t-108 57q-78 0 -127 -57.5t-62 -151.5q-13 -93 19.5 -150.5
t110.5 -57.5t125 56.5zM463 671l-257 -75l-8 41l254 95z" />
    <glyph glyph-name="ocircumflex" unicode="&#xf4;" horiz-adv-x="567" 
d="M76.5 62.5q-51.5 72.5 -34.5 192.5q11 80 47.5 141.5t94 96t129.5 34.5q71 0 118 -34.5t66 -95.5t8 -140t-47 -139.5t-92.5 -94t-128.5 -33.5q-109 0 -160.5 72.5zM371 106.5q47 56.5 60 151.5t-18 152t-108 57q-78 0 -127 -57.5t-62 -151.5q-13 -93 19.5 -150.5
t110.5 -57.5t125 56.5zM334 682l-85 -64h-73l138 107h54l106 -107h-77z" />
    <glyph glyph-name="otilde" unicode="&#xf5;" horiz-adv-x="567" 
d="M76.5 62.5q-51.5 72.5 -34.5 192.5q11 80 47.5 141.5t94 96t129.5 34.5q71 0 118 -34.5t66 -95.5t8 -140t-47 -139.5t-92.5 -94t-128.5 -33.5q-109 0 -160.5 72.5zM371 106.5q47 56.5 60 151.5t-18 152t-108 57q-78 0 -127 -57.5t-62 -151.5q-13 -93 19.5 -150.5
t110.5 -57.5t125 56.5zM392 642q-19 0 -33 3.5t-32 10.5q-32 12 -52 12q-16 0 -27.5 -4t-21 -9.5t-13.5 -7.5q-4 -3 -7 -3t-4 8l-6 24q-1 4 -1 5q0 2 6 7q21 14 37.5 21.5t38.5 7.5q16 0 30 -3.5t34 -10.5q35 -13 58 -13q16 0 28 4.5t30 13.5q5 3 8 3q4 0 6 -7l5 -28
q1 -1 0 -4q-1 -4 -9 -8q-34 -22 -75 -22z" />
    <glyph glyph-name="odieresis" unicode="&#xf6;" horiz-adv-x="567" 
d="M76.5 62.5q-51.5 72.5 -34.5 192.5q11 80 47.5 141.5t94 96t129.5 34.5q71 0 118 -34.5t66 -95.5t8 -140t-47 -139.5t-92.5 -94t-128.5 -33.5q-109 0 -160.5 72.5zM371 106.5q47 56.5 60 151.5t-18 152t-108 57q-78 0 -127 -57.5t-62 -151.5q-13 -93 19.5 -150.5
t110.5 -57.5t125 56.5zM294 618h-73l15 105h73zM431 618h-75l15 105h75z" />
    <glyph glyph-name="divide" unicode="&#xf7;" horiz-adv-x="546" 
d="M346 482h-103l14 100h103zM481 334l-417 -1l8 59l417 1zM299 146h-103l13 99h103z" />
    <glyph glyph-name="oslash" unicode="&#xf8;" horiz-adv-x="572" 
d="M491 413q27 -64 14 -156q-11 -79 -47 -139.5t-92.5 -94t-128.5 -33.5q-53 0 -93 18t-66 52l-76 -65l-28 35l82 70q-27 63 -14 155q11 80 47.5 141.5t94 96t129.5 34.5q52 0 92 -19t65 -54l77 66l28 -35zM119 153l296 254q-33 60 -110 60q-78 0 -127 -57.5t-62 -151.5
q-8 -62 3 -105zM431 361l-296 -253q34 -58 111 -58q78 0 125 56.5t60 151.5q9 58 0 103z" />
    <glyph glyph-name="ugrave" unicode="&#xf9;" 
d="M142.5 9q-42.5 18 -66.5 58t-15 102l49 350h73l-48 -344q-9 -65 27 -95t87 -30q57 0 102.5 34.5t55.5 97.5l47 337h73l-74 -518h-59l9 81q-21 -36 -71 -63.5t-100 -27.5q-47 0 -89.5 18zM442 637l-19 -41l-238 75l30 61z" />
    <glyph glyph-name="uacute" unicode="&#xfa;" 
d="M142.5 9q-42.5 18 -66.5 58t-15 102l49 350h73l-48 -344q-9 -65 27 -95t87 -30q57 0 102.5 34.5t55.5 97.5l47 337h73l-74 -518h-59l9 81q-21 -36 -71 -63.5t-100 -27.5q-47 0 -89.5 18zM460 671l-257 -75l-8 41l254 95z" />
    <glyph glyph-name="ucircumflex" unicode="&#xfb;" 
d="M142.5 9q-42.5 18 -66.5 58t-15 102l49 350h73l-48 -344q-9 -65 27 -95t87 -30q57 0 102.5 34.5t55.5 97.5l47 337h73l-74 -518h-59l9 81q-21 -36 -71 -63.5t-100 -27.5q-47 0 -89.5 18zM331 682l-85 -64h-73l138 107h54l106 -107h-77z" />
    <glyph glyph-name="udieresis" unicode="&#xfc;" 
d="M142.5 9q-42.5 18 -66.5 58t-15 102l49 350h73l-48 -344q-9 -65 27 -95t87 -30q57 0 102.5 34.5t55.5 97.5l47 337h73l-74 -518h-59l9 81q-21 -36 -71 -63.5t-100 -27.5q-47 0 -89.5 18zM291 618h-73l15 105h73zM428 618h-75l15 105h75z" />
    <glyph glyph-name="yacute" unicode="&#xfd;" horiz-adv-x="516" 
d="M8 -162.5q-16 2.5 -23.5 5t-8.5 3.5l7 48l54 -1q49 -1 74 15.5t40 44.5l29 56l-130 508h75l102 -422l222 422h71l-301 -569q-34 -62 -75.5 -87.5t-94.5 -25.5q-25 0 -41 2.5zM443 671l-257 -75l-8 41l254 95z" />
    <glyph glyph-name="thorn" unicode="&#xfe;" horiz-adv-x="589" 
d="M170 444q3 3 27 26.5t65 40t86 16.5q62 0 107 -29.5t64.5 -88t7.5 -143.5t-48.5 -147.5t-92 -95.5t-123.5 -33q-80 0 -134 49q-6 6 -9 6q-4 0 -5 -12l-28 -194h-73l125 884h71zM183.5 62q30.5 -17 68.5 -17q76 0 130.5 57t69.5 162q15 104 -24 156t-110 52q-40 0 -75 -18
t-57 -45t-26 -54l-34 -244q27 -32 57.5 -49z" />
    <glyph glyph-name="ydieresis" unicode="&#xff;" horiz-adv-x="516" 
d="M8 -162.5q-16 2.5 -23.5 5t-8.5 3.5l7 48l54 -1q49 -1 74 15.5t40 44.5l29 56l-130 508h75l102 -422l222 422h71l-301 -569q-34 -62 -75.5 -87.5t-94.5 -25.5q-25 0 -41 2.5zM274 618h-73l15 105h73zM411 618h-75l15 105h75z" />
    <glyph glyph-name="Amacron" unicode="&#x100;" horiz-adv-x="693" 
d="M360 723h86l160 -723h-75l-47 209h-308l-106 -209h-75zM473 279l-81 371l-186 -371h267zM564 859h-278l8 55h278z" />
    <glyph glyph-name="amacron" unicode="&#x101;" horiz-adv-x="556" 
d="M387 0l7 50q-42 -32 -80 -46t-81 -14q-68 0 -115 33t-67 95.5t-8 147.5t49 143.5t90.5 88t115.5 29.5q43 0 73.5 -13.5t44 -27t35.5 -38.5l10 69h72l-74 -517h-72zM406 137l28 198q5 33 -9 64.5t-44.5 51t-71.5 19.5q-69 0 -123 -52.5t-68 -153.5q-9 -67 6 -116t49 -75.5
t83 -26.5q75 0 150 91zM462 653h-278l8 55h278z" />
    <glyph glyph-name="Abreve" unicode="&#x102;" horiz-adv-x="693" 
d="M360 723h86l160 -723h-75l-47 209h-308l-106 -209h-75zM473 279l-81 371l-186 -371h267zM518.5 858.5q-42.5 -30.5 -98.5 -30.5q-57 0 -89 29t-37 72h59q10 -21 26 -36t48 -15q28 0 51.5 15t38.5 36h62q-18 -40 -60.5 -70.5z" />
    <glyph glyph-name="abreve" unicode="&#x103;" horiz-adv-x="556" 
d="M387 0l7 50q-42 -32 -80 -46t-81 -14q-68 0 -115 33t-67 95.5t-8 147.5t49 143.5t90.5 88t115.5 29.5q43 0 73.5 -13.5t44 -27t35.5 -38.5l10 69h72l-74 -517h-72zM406 137l28 198q5 33 -9 64.5t-44.5 51t-71.5 19.5q-69 0 -123 -52.5t-68 -153.5q-9 -67 6 -116t49 -75.5
t83 -26.5q75 0 150 91zM416.5 652.5q-42.5 -30.5 -98.5 -30.5q-57 0 -89 29t-37 72h59q10 -21 26 -36t48 -15q28 0 51.5 15t38.5 36h62q-18 -40 -60.5 -70.5z" />
    <glyph glyph-name="Aogonek" unicode="&#x104;" horiz-adv-x="693" 
d="M360 723h86l160 -723h-75l-47 209h-308l-106 -209h-75zM473 279l-81 371l-186 -371h267zM467.5 -32.5q26.5 23.5 86.5 41.5l54 -7q-55 -22 -80 -41.5t-29 -44.5q-5 -38 45 -38q19 0 36 4t28 9q4 2 6 2q4 0 3 -7l-4 -26q-1 -7 -8 -10q-12 -6 -35.5 -11t-48.5 -5
q-47 0 -68 21t-16 57q4 32 30.5 55.5z" />
    <glyph glyph-name="aogonek" unicode="&#x105;" horiz-adv-x="556" 
d="M387 0l7 50q-42 -32 -80 -46t-81 -14q-68 0 -115 33t-67 95.5t-8 147.5t49 143.5t90.5 88t115.5 29.5q43 0 73.5 -13.5t44 -27t35.5 -38.5l10 69h72l-74 -517h-72zM406 137l28 198q5 33 -9 64.5t-44.5 51t-71.5 19.5q-69 0 -123 -52.5t-68 -153.5q-9 -67 6 -116t49 -75.5
t83 -26.5q75 0 150 91zM285.5 -30.5q26.5 23.5 86.5 41.5l54 -7q-55 -22 -80 -41.5t-29 -44.5q-5 -38 45 -38q19 0 36 4t28 9q4 2 6 2q4 0 3 -7l-4 -26q-1 -7 -8 -10q-12 -6 -35.5 -11t-48.5 -5q-47 0 -68 21t-16 57q4 32 30.5 55.5z" />
    <glyph glyph-name="Cacute" unicode="&#x106;" horiz-adv-x="675" 
d="M537 704.5q55 -28.5 83 -77t27 -106.5l-78 -5q-3 69 -46.5 110t-123.5 41q-106 0 -171.5 -77t-86.5 -229q-21 -150 23.5 -227.5t154.5 -77.5q69 0 124 39.5t80 107.5l75 -9q-15 -57 -56 -103.5t-101.5 -73.5t-130.5 -27q-144 0 -209.5 98.5t-40.5 273.5t116 273t232 98
q74 0 129 -28.5zM564 877l-257 -75l-8 41l254 95z" />
    <glyph glyph-name="cacute" unicode="&#x107;" horiz-adv-x="537" 
d="M488 391l-62 -16q-30 51 -54 71t-65 20q-76 0 -128 -56.5t-66 -151.5q-13 -96 23.5 -153t112.5 -57q47 0 81.5 24.5t70.5 74.5l56 -17q-38 -67 -93.5 -103.5t-126.5 -36.5q-70 0 -118 33.5t-68 93.5t-9 139t48 140.5t94.5 96t127.5 34.5q133 0 176 -136zM461 671
l-257 -75l-8 41l254 95z" />
    <glyph glyph-name="Ccircumflex" unicode="&#x108;" horiz-adv-x="675" 
d="M537 704.5q55 -28.5 83 -77t27 -106.5l-78 -5q-3 69 -46.5 110t-123.5 41q-106 0 -171.5 -77t-86.5 -229q-21 -150 23.5 -227.5t154.5 -77.5q69 0 124 39.5t80 107.5l75 -9q-15 -57 -56 -103.5t-101.5 -73.5t-130.5 -27q-144 0 -209.5 98.5t-40.5 273.5t116 273t232 98
q74 0 129 -28.5zM435 888l-85 -64h-73l138 107h54l106 -107h-77z" />
    <glyph glyph-name="ccircumflex" unicode="&#x109;" horiz-adv-x="537" 
d="M488 391l-62 -16q-30 51 -54 71t-65 20q-76 0 -128 -56.5t-66 -151.5q-13 -96 23.5 -153t112.5 -57q47 0 81.5 24.5t70.5 74.5l56 -17q-38 -67 -93.5 -103.5t-126.5 -36.5q-70 0 -118 33.5t-68 93.5t-9 139t48 140.5t94.5 96t127.5 34.5q133 0 176 -136zM332 682l-85 -64
h-73l138 107h54l106 -107h-77z" />
    <glyph glyph-name="Cdotaccent" unicode="&#x10a;" horiz-adv-x="675" 
d="M537 704.5q55 -28.5 83 -77t27 -106.5l-78 -5q-3 69 -46.5 110t-123.5 41q-106 0 -171.5 -77t-86.5 -229q-21 -150 23.5 -227.5t154.5 -77.5q69 0 124 39.5t80 107.5l75 -9q-15 -57 -56 -103.5t-101.5 -73.5t-130.5 -27q-144 0 -209.5 98.5t-40.5 273.5t116 273t232 98
q74 0 129 -28.5zM467 819h-80l16 110h80z" />
    <glyph glyph-name="cdotaccent" unicode="&#x10b;" horiz-adv-x="537" 
d="M488 391l-62 -16q-30 51 -54 71t-65 20q-76 0 -128 -56.5t-66 -151.5q-13 -96 23.5 -153t112.5 -57q47 0 81.5 24.5t70.5 74.5l56 -17q-38 -67 -93.5 -103.5t-126.5 -36.5q-70 0 -118 33.5t-68 93.5t-9 139t48 140.5t94.5 96t127.5 34.5q133 0 176 -136zM364 613h-80
l16 110h80z" />
    <glyph glyph-name="Ccaron" unicode="&#x10c;" horiz-adv-x="675" 
d="M537 704.5q55 -28.5 83 -77t27 -106.5l-78 -5q-3 69 -46.5 110t-123.5 41q-106 0 -171.5 -77t-86.5 -229q-21 -150 23.5 -227.5t154.5 -77.5q69 0 124 39.5t80 107.5l75 -9q-15 -57 -56 -103.5t-101.5 -73.5t-130.5 -27q-144 0 -209.5 98.5t-40.5 273.5t116 273t232 98
q74 0 129 -28.5zM590 929l-137 -108h-54l-107 108h73l66 -65l82 65h77z" />
    <glyph glyph-name="ccaron" unicode="&#x10d;" horiz-adv-x="537" 
d="M488 391l-62 -16q-30 51 -54 71t-65 20q-76 0 -128 -56.5t-66 -151.5q-13 -96 23.5 -153t112.5 -57q47 0 81.5 24.5t70.5 74.5l56 -17q-38 -67 -93.5 -103.5t-126.5 -36.5q-70 0 -118 33.5t-68 93.5t-9 139t48 140.5t94.5 96t127.5 34.5q133 0 176 -136zM487 723
l-137 -108h-54l-107 108h73l66 -65l82 65h77z" />
    <glyph glyph-name="Dcaron" unicode="&#x10e;" horiz-adv-x="680" 
d="M304 722q197 -2 274.5 -90t52.5 -266q-26 -185 -134 -275.5t-305 -90.5h-139l102 723zM138 66h62q155 0 243 69.5t110 228.5q23 161 -44.5 227.5t-220.5 66.5h-67zM566 929l-137 -108h-54l-107 108h73l66 -65l82 65h77z" />
    <glyph glyph-name="dcaron" unicode="&#x10f;" horiz-adv-x="579" 
d="M71.5 58q-47.5 68 -30.5 194q18 125 86 200t171 75q44 0 79 -16t65 -49l39 281h74l-104 -743h-59l7 75q-79 -85 -181 -85q-99 0 -146.5 68zM315.5 68.5q35.5 19.5 59 50.5t28.5 63l28 204q-43 81 -126 81q-75 0 -125.5 -54.5t-64.5 -157.5t21 -154.5t104 -51.5
q40 0 75.5 19.5zM551 495.5q-2 2.5 0 5.5l40 70q3 6 2 8.5t-5 3.5l-7 1q-6 1 -7.5 2.5t-0.5 6.5l10 77q1 8 10 8h53q7 0 6 -7l-13 -87q0 -2 -0.5 -3t-0.5 -2l-44 -78q-3 -5 -7 -6.5t-11 -1.5h-20q-3 0 -5 2.5z" />
    <glyph glyph-name="Dcroat" unicode="&#x110;" horiz-adv-x="685" 
d="M584.5 632q77.5 -88 52.5 -266q-26 -185 -134 -275.5t-305 -90.5h-139l47 331h-58q-8 0 -11 3t-2 10l6 37q2 12 11 12h62l47 330l149 -1q197 -2 274.5 -90zM449 135.5q88 69.5 110 228.5q23 161 -44.5 227.5t-220.5 66.5h-67l-37 -265h164q9 0 8 -10l-5 -37
q-1 -8 -5.5 -11.5t-13.5 -3.5h-156l-38 -265h62q155 0 243 69.5z" />
    <glyph glyph-name="dcroat" unicode="&#x111;" horiz-adv-x="596" 
d="M608 601h-73l-84 -601h-59l7 75q-79 -85 -181 -85q-99 0 -146.5 68t-30.5 194q18 125 86 200t171 75q44 0 79 -16t65 -49l19 139h-152l7 49h152l13 93h74l-13 -93h73zM431 386q-43 81 -126 81q-75 0 -125.5 -54.5t-64.5 -157.5t21 -154.5t104 -51.5q40 0 75.5 19.5
t59 50.5t28.5 63z" />
    <glyph glyph-name="Emacron" unicode="&#x112;" horiz-adv-x="617" 
d="M155 723h441l-11 -66h-367l-36 -259h335l-9 -66h-335l-37 -264l378 -1l-9 -67h-452zM544 859h-278l8 55h278z" />
    <glyph glyph-name="emacron" unicode="&#x113;" horiz-adv-x="555" 
d="M138 104q35 -54 115 -54q103 0 148 84l65 -13q-27 -61 -86.5 -96t-133.5 -35q-71 0 -121.5 31.5t-72.5 91t-10 141.5q18 126 89 199.5t180 73.5q104 0 152.5 -67.5t31.5 -186.5l-4 -32h-376q-12 -83 23 -137zM427 295q11 77 -20 125t-105 48q-51 0 -89.5 -25t-61 -64.5
t-29.5 -83.5h305zM468 653h-278l8 55h278z" />
    <glyph glyph-name="Ebreve" unicode="&#x114;" horiz-adv-x="617" 
d="M155 723h441l-11 -66h-367l-36 -259h335l-9 -66h-335l-37 -264l378 -1l-9 -67h-452zM498.5 858.5q-42.5 -30.5 -98.5 -30.5q-57 0 -89 29t-37 72h59q10 -21 26 -36t48 -15q28 0 51.5 15t38.5 36h62q-18 -40 -60.5 -70.5z" />
    <glyph glyph-name="ebreve" unicode="&#x115;" horiz-adv-x="555" 
d="M138 104q35 -54 115 -54q103 0 148 84l65 -13q-27 -61 -86.5 -96t-133.5 -35q-71 0 -121.5 31.5t-72.5 91t-10 141.5q18 126 89 199.5t180 73.5q104 0 152.5 -67.5t31.5 -186.5l-4 -32h-376q-12 -83 23 -137zM427 295q11 77 -20 125t-105 48q-51 0 -89.5 -25t-61 -64.5
t-29.5 -83.5h305zM422.5 652.5q-42.5 -30.5 -98.5 -30.5q-57 0 -89 29t-37 72h59q10 -21 26 -36t48 -15q28 0 51.5 15t38.5 36h62q-18 -40 -60.5 -70.5z" />
    <glyph glyph-name="Edotaccent" unicode="&#x116;" horiz-adv-x="617" 
d="M155 723h441l-11 -66h-367l-36 -259h335l-9 -66h-335l-37 -264l378 -1l-9 -67h-452zM440 819h-80l16 110h80z" />
    <glyph glyph-name="edotaccent" unicode="&#x117;" horiz-adv-x="555" 
d="M138 104q35 -54 115 -54q103 0 148 84l65 -13q-27 -61 -86.5 -96t-133.5 -35q-71 0 -121.5 31.5t-72.5 91t-10 141.5q18 126 89 199.5t180 73.5q104 0 152.5 -67.5t31.5 -186.5l-4 -32h-376q-12 -83 23 -137zM427 295q11 77 -20 125t-105 48q-51 0 -89.5 -25t-61 -64.5
t-29.5 -83.5h305zM364 613h-80l16 110h80z" />
    <glyph glyph-name="Eogonek" unicode="&#x118;" horiz-adv-x="617" 
d="M155 723h441l-11 -66h-367l-36 -259h335l-9 -66h-335l-37 -264l378 -1l-9 -67h-452zM366.5 -33.5q26.5 23.5 86.5 41.5l54 -7q-55 -22 -80 -41.5t-29 -44.5q-5 -38 45 -38q19 0 36 4t28 9q4 2 6 2q4 0 3 -7l-4 -26q-1 -7 -8 -10q-12 -6 -35.5 -11t-48.5 -5q-47 0 -68 21
t-16 57q4 32 30.5 55.5z" />
    <glyph glyph-name="eogonek" unicode="&#x119;" horiz-adv-x="555" 
d="M138 104q35 -54 115 -54q103 0 148 84l65 -13q-27 -61 -86.5 -96t-133.5 -35q-71 0 -121.5 31.5t-72.5 91t-10 141.5q18 126 89 199.5t180 73.5q104 0 152.5 -67.5t31.5 -186.5l-4 -32h-376q-12 -83 23 -137zM427 295q11 77 -20 125t-105 48q-51 0 -89.5 -25t-61 -64.5
t-29.5 -83.5h305zM207.5 -23.5q26.5 23.5 86.5 41.5l54 -7q-55 -22 -80 -41.5t-29 -44.5q-5 -38 45 -38q19 0 36 4t28 9q4 2 6 2q4 0 3 -7l-4 -26q-1 -7 -8 -10q-12 -6 -35.5 -11t-48.5 -5q-47 0 -68 21t-16 57q4 32 30.5 55.5z" />
    <glyph glyph-name="Ecaron" unicode="&#x11a;" horiz-adv-x="617" 
d="M155 723h441l-11 -66h-367l-36 -259h335l-9 -66h-335l-37 -264l378 -1l-9 -67h-452zM563 929l-137 -108h-54l-107 108h73l66 -65l82 65h77z" />
    <glyph glyph-name="ecaron" unicode="&#x11b;" horiz-adv-x="555" 
d="M138 104q35 -54 115 -54q103 0 148 84l65 -13q-27 -61 -86.5 -96t-133.5 -35q-71 0 -121.5 31.5t-72.5 91t-10 141.5q18 126 89 199.5t180 73.5q104 0 152.5 -67.5t31.5 -186.5l-4 -32h-376q-12 -83 23 -137zM427 295q11 77 -20 125t-105 48q-51 0 -89.5 -25t-61 -64.5
t-29.5 -83.5h305zM487 723l-137 -108h-54l-107 108h73l66 -65l82 65h77z" />
    <glyph glyph-name="Gcircumflex" unicode="&#x11c;" horiz-adv-x="720" 
d="M153.5 34.5q-61.5 44.5 -86 127.5t-8.5 197q16 117 65.5 201t124 128.5t166.5 44.5q67 0 121.5 -29t85 -77.5t27.5 -103.5l-81 -7q-2 64 -47 107t-116 43q-105 0 -175.5 -78.5t-91.5 -222.5q-21 -152 28 -230t155 -78q62 0 110.5 29t77 72t36.5 86l12 72h-186l8 56
l261 -1l-52 -371h-59l16 116q-40 -56 -99 -91t-138 -35q-93 0 -154.5 44.5zM434 888l-85 -64h-73l138 107h54l106 -107h-77z" />
    <glyph glyph-name="gcircumflex" unicode="&#x11d;" horiz-adv-x="595" 
d="M37.5 -134q-59.5 37 -49.5 102q6 41 34 66t51 37t28 15q-3 2 -16 10t-20.5 21t-4.5 30q3 24 28 43t68 29q-45 26 -62.5 60t-10.5 82q11 77 76 120.5t164 43.5q48 0 81 -11.5t60 -34.5l133 52l-11 -76l-94 -18q5 -15 8 -37.5t1 -38.5q-10 -70 -70 -115.5t-162 -45.5l-23 1
q-58 -1 -84.5 -12.5t-28.5 -27.5q-2 -15 18.5 -21t78.5 -10l113 -7q81 -5 116 -41t27 -96q-10 -74 -80.5 -115.5t-188.5 -41.5q-120 0 -179.5 37zM384 280q39 28 47 81q8 54 -23.5 84t-97.5 30q-65 0 -106 -30.5t-48 -83.5q-7 -52 24.5 -80.5t97.5 -28.5q67 0 106 28z
M362 -96q43 24 50 73q5 37 -15.5 57t-72.5 23l-154 10q-18 2 -42.5 -10t-43.5 -34t-22 -47q-7 -47 38.5 -71.5t137.5 -24.5q81 0 124 24zM342 682l-85 -64h-73l138 107h54l106 -107h-77z" />
    <glyph glyph-name="Gbreve" unicode="&#x11e;" horiz-adv-x="720" 
d="M153.5 34.5q-61.5 44.5 -86 127.5t-8.5 197q16 117 65.5 201t124 128.5t166.5 44.5q67 0 121.5 -29t85 -77.5t27.5 -103.5l-81 -7q-2 64 -47 107t-116 43q-105 0 -175.5 -78.5t-91.5 -222.5q-21 -152 28 -230t155 -78q62 0 110.5 29t77 72t36.5 86l12 72h-186l8 56
l261 -1l-52 -371h-59l16 116q-40 -56 -99 -91t-138 -35q-93 0 -154.5 44.5zM524.5 858.5q-42.5 -30.5 -98.5 -30.5q-57 0 -89 29t-37 72h59q10 -21 26 -36t48 -15q28 0 51.5 15t38.5 36h62q-18 -40 -60.5 -70.5z" />
    <glyph glyph-name="gbreve" unicode="&#x11f;" horiz-adv-x="595" 
d="M37.5 -134q-59.5 37 -49.5 102q6 41 34 66t51 37t28 15q-3 2 -16 10t-20.5 21t-4.5 30q3 24 28 43t68 29q-45 26 -62.5 60t-10.5 82q11 77 76 120.5t164 43.5q48 0 81 -11.5t60 -34.5l133 52l-11 -76l-94 -18q5 -15 8 -37.5t1 -38.5q-10 -70 -70 -115.5t-162 -45.5l-23 1
q-58 -1 -84.5 -12.5t-28.5 -27.5q-2 -15 18.5 -21t78.5 -10l113 -7q81 -5 116 -41t27 -96q-10 -74 -80.5 -115.5t-188.5 -41.5q-120 0 -179.5 37zM384 280q39 28 47 81q8 54 -23.5 84t-97.5 30q-65 0 -106 -30.5t-48 -83.5q-7 -52 24.5 -80.5t97.5 -28.5q67 0 106 28z
M362 -96q43 24 50 73q5 37 -15.5 57t-72.5 23l-154 10q-18 2 -42.5 -10t-43.5 -34t-22 -47q-7 -47 38.5 -71.5t137.5 -24.5q81 0 124 24zM432.5 652.5q-42.5 -30.5 -98.5 -30.5q-57 0 -89 29t-37 72h59q10 -21 26 -36t48 -15q28 0 51.5 15t38.5 36h62q-18 -40 -60.5 -70.5z
" />
    <glyph glyph-name="Gdotaccent" unicode="&#x120;" horiz-adv-x="720" 
d="M153.5 34.5q-61.5 44.5 -86 127.5t-8.5 197q16 117 65.5 201t124 128.5t166.5 44.5q67 0 121.5 -29t85 -77.5t27.5 -103.5l-81 -7q-2 64 -47 107t-116 43q-105 0 -175.5 -78.5t-91.5 -222.5q-21 -152 28 -230t155 -78q62 0 110.5 29t77 72t36.5 86l12 72h-186l8 56
l261 -1l-52 -371h-59l16 116q-40 -56 -99 -91t-138 -35q-93 0 -154.5 44.5zM466 819h-80l16 110h80z" />
    <glyph glyph-name="gdotaccent" unicode="&#x121;" horiz-adv-x="595" 
d="M37.5 -134q-59.5 37 -49.5 102q6 41 34 66t51 37t28 15q-3 2 -16 10t-20.5 21t-4.5 30q3 24 28 43t68 29q-45 26 -62.5 60t-10.5 82q11 77 76 120.5t164 43.5q48 0 81 -11.5t60 -34.5l133 52l-11 -76l-94 -18q5 -15 8 -37.5t1 -38.5q-10 -70 -70 -115.5t-162 -45.5l-23 1
q-58 -1 -84.5 -12.5t-28.5 -27.5q-2 -15 18.5 -21t78.5 -10l113 -7q81 -5 116 -41t27 -96q-10 -74 -80.5 -115.5t-188.5 -41.5q-120 0 -179.5 37zM384 280q39 28 47 81q8 54 -23.5 84t-97.5 30q-65 0 -106 -30.5t-48 -83.5q-7 -52 24.5 -80.5t97.5 -28.5q67 0 106 28z
M362 -96q43 24 50 73q5 37 -15.5 57t-72.5 23l-154 10q-18 2 -42.5 -10t-43.5 -34t-22 -47q-7 -47 38.5 -71.5t137.5 -24.5q81 0 124 24zM374 613h-80l16 110h80z" />
    <glyph glyph-name="Gcommaaccent" unicode="&#x122;" horiz-adv-x="720" 
d="M153.5 34.5q-61.5 44.5 -86 127.5t-8.5 197q16 117 65.5 201t124 128.5t166.5 44.5q67 0 121.5 -29t85 -77.5t27.5 -103.5l-81 -7q-2 64 -47 107t-116 43q-105 0 -175.5 -78.5t-91.5 -222.5q-21 -152 28 -230t155 -78q62 0 110.5 29t77 72t36.5 86l12 72h-186l8 56
l261 -1l-52 -371h-59l16 116q-40 -56 -99 -91t-138 -35q-93 0 -154.5 44.5zM245.5 -228.5q-1.5 3.5 1.5 6.5l33 51q3 4 3 6q1 7 -6 7h-8q-11 0 -10 11l9 64q1 10 11 10h54q8 0 6 -9l-10 -76l-2 -8l-43 -58q-4 -5 -8 -6.5t-12 -1.5h-13q-4 0 -5.5 3.5z" />
    <glyph glyph-name="gcommaaccent" unicode="&#x123;" horiz-adv-x="595" 
d="M294 699l52 69h38l-50 -74h32l-12 -85h-72zM37.5 -134q-59.5 37 -49.5 102q6 41 34 66t51 37t28 15q-3 2 -16 10t-20.5 21t-4.5 30q3 24 28 43t68 29q-45 26 -62.5 60t-10.5 82q11 77 76 120.5t164 43.5q48 0 81 -11.5t60 -34.5l133 52l-11 -76l-94 -18q5 -15 8 -37.5
t1 -38.5q-10 -70 -70 -115.5t-162 -45.5l-23 1q-58 -1 -84.5 -12.5t-28.5 -27.5q-2 -15 18.5 -21t78.5 -10l113 -7q81 -5 116 -41t27 -96q-10 -74 -80.5 -115.5t-188.5 -41.5q-120 0 -179.5 37zM384 280q39 28 47 81q8 54 -23.5 84t-97.5 30q-65 0 -106 -30.5t-48 -83.5
q-7 -52 24.5 -80.5t97.5 -28.5q67 0 106 28zM362 -96q43 24 50 73q5 37 -15.5 57t-72.5 23l-154 10q-18 2 -42.5 -10t-43.5 -34t-22 -47q-7 -47 38.5 -71.5t137.5 -24.5q81 0 124 24z" />
    <glyph glyph-name="Hcircumflex" unicode="&#x124;" horiz-adv-x="703" 
d="M174 342l-48 -342h-73l102 723h73l-45 -315h359l45 315h73l-102 -723h-73l48 342h-359zM429 888l-85 -64h-73l138 107h54l106 -107h-77z" />
    <glyph glyph-name="hcircumflex" unicode="&#x125;" 
d="M141 743h70l-42 -300q46 32 73 47.5t57 25t66 9.5q76 0 113.5 -41t28.5 -109l-53 -375h-73l50 358q7 51 -15.5 78t-76.5 27q-43 0 -81 -18.5t-94 -61.5l-54 -383h-73zM396 682l-85 -64h-73l138 107h54l106 -107h-77z" />
    <glyph glyph-name="Hbar" unicode="&#x126;" horiz-adv-x="714" 
d="M744 601l-4 -29q-1 -7 -4.5 -10t-11.5 -3h-81l-79 -559h-73l48 342h-359l-48 -342h-73l79 559h-87q-7 0 -10 2.5t-2 9.5l4 29q2 12 11 12h91l16 111h73l-16 -111h359l16 111h73l-16 -111h88q8 0 6 -11zM570 559h-359l-22 -151h359z" />
    <glyph glyph-name="hbar" unicode="&#x127;" horiz-adv-x="586" 
d="M480.5 484q37.5 -41 28.5 -109l-53 -375h-73l50 358q7 51 -15.5 78t-76.5 27q-43 0 -81 -18.5t-94 -61.5l-54 -383h-73l84 601h-68l7 49h68l13 93h70l-13 -93h161l-7 -49h-161l-22 -158q46 32 73 47.5t57 25t66 9.5q76 0 113.5 -41z" />
    <glyph glyph-name="Itilde" unicode="&#x128;" horiz-adv-x="270" 
d="M228 723l-102 -723h-73l102 723h73zM275 848q-19 0 -33 3.5t-32 10.5q-32 12 -52 12q-16 0 -27.5 -4t-21 -9.5t-13.5 -7.5q-4 -3 -7 -3t-4 8l-6 24q-1 4 -1 5q0 2 6 7q21 14 37.5 21.5t38.5 7.5q16 0 30 -3.5t34 -10.5q35 -13 58 -13q16 0 28 4.5t30 13.5q5 3 8 3
q4 0 6 -7l5 -28q1 -1 0 -4q-1 -4 -9 -8q-34 -22 -75 -22z" />
    <glyph glyph-name="itilde" unicode="&#x129;" horiz-adv-x="238" 
d="M110 0h-73l73 517h73zM227 642q-19 0 -33 3.5t-32 10.5q-32 12 -52 12q-16 0 -27.5 -4t-21 -9.5t-13.5 -7.5q-4 -3 -7 -3t-4 8l-6 24q-1 4 -1 5q0 2 6 7q21 14 37.5 21.5t38.5 7.5q16 0 30 -3.5t34 -10.5q35 -13 58 -13q16 0 28 4.5t30 13.5q5 3 8 3q4 0 6 -7l5 -28
q1 -1 0 -4q-1 -4 -9 -8q-34 -22 -75 -22z" />
    <glyph glyph-name="Imacron" unicode="&#x12a;" horiz-adv-x="270" 
d="M228 723l-102 -723h-73l102 723h73zM353 859h-278l8 55h278z" />
    <glyph glyph-name="imacron" unicode="&#x12b;" horiz-adv-x="238" 
d="M110 0h-73l73 517h73zM305 653h-278l8 55h278z" />
    <glyph glyph-name="Ibreve" unicode="&#x12c;" horiz-adv-x="270" 
d="M228 723l-102 -723h-73l102 723h73zM307.5 858.5q-42.5 -30.5 -98.5 -30.5q-57 0 -89 29t-37 72h59q10 -21 26 -36t48 -15q28 0 51.5 15t38.5 36h62q-18 -40 -60.5 -70.5z" />
    <glyph glyph-name="ibreve" unicode="&#x12d;" horiz-adv-x="238" 
d="M110 0h-73l73 517h73zM259.5 652.5q-42.5 -30.5 -98.5 -30.5q-57 0 -89 29t-37 72h59q10 -21 26 -36t48 -15q28 0 51.5 15t38.5 36h62q-18 -40 -60.5 -70.5z" />
    <glyph glyph-name="Iogonek" unicode="&#x12e;" horiz-adv-x="270" 
d="M228 723l-102 -723h-73l102 723h73zM-17.5 -35.5q26.5 23.5 86.5 41.5l54 -7q-55 -22 -80 -41.5t-29 -44.5q-5 -38 45 -38q19 0 36 4t28 9q4 2 6 2q4 0 3 -7l-4 -26q-1 -7 -8 -10q-12 -6 -35.5 -11t-48.5 -5q-47 0 -68 21t-16 57q4 32 30.5 55.5z" />
    <glyph glyph-name="iogonek" unicode="&#x12f;" horiz-adv-x="238" 
d="M110 0h-73l73 517h73zM201 613h-80l16 110h80zM-34.5 -31.5q26.5 23.5 86.5 41.5l54 -7q-55 -22 -80 -41.5t-29 -44.5q-5 -38 45 -38q19 0 36 4t28 9q4 2 6 2q4 0 3 -7l-4 -26q-1 -7 -8 -10q-12 -6 -35.5 -11t-48.5 -5q-47 0 -68 21t-16 57q4 32 30.5 55.5z" />
    <glyph glyph-name="Idotaccent" unicode="&#x130;" horiz-adv-x="270" 
d="M228 723l-102 -723h-73l102 723h73zM249 819h-80l16 110h80z" />
    <glyph glyph-name="dotlessi" unicode="&#x131;" horiz-adv-x="239" 
d="M110 0h-73l73 517h73z" />
    <glyph glyph-name="IJ" unicode="&#x132;" horiz-adv-x="649" 
d="M228 723l-102 -723h-73l102 723h73zM477.5 32q-36.5 -42 -116.5 -42q-35 0 -66.5 8.5t-45.5 16.5l18 72l20 -10q14 -7 31 -11.5t37 -4.5q48 0 70 27t31 93l77 542h73l-80 -564q-12 -85 -48.5 -127z" />
    <glyph glyph-name="ij" unicode="&#x133;" horiz-adv-x="513" 
d="M206 632h-80l15 111h80zM114 0h-74l73 517h74zM464 632h-81l15 111h81zM323.5 -134.5q-33.5 -31.5 -106.5 -31.5q-35 0 -48.5 4.5t-13.5 6.5l6 48l55 2q37 2 54.5 19t23.5 57l77 546h73l-78 -550q-9 -70 -42.5 -101.5z" />
    <glyph glyph-name="Jcircumflex" unicode="&#x134;" horiz-adv-x="379" 
d="M207.5 32q-36.5 -42 -116.5 -42q-35 0 -66.5 8.5t-45.5 16.5l18 72l20 -10q14 -7 31 -11.5t37 -4.5q48 0 70 27t31 93l77 542h73l-80 -564q-12 -85 -48.5 -127zM313 888l-85 -64h-73l138 107h54l106 -107h-77z" />
    <glyph glyph-name="jcircumflex" unicode="&#x135;" horiz-adv-x="234" 
d="M59 -134.5q-34 -31.5 -106 -31.5q-39 0 -51.5 2.5t-11.5 8.5l7 48l55 2q36 2 54 19.5t24 56.5l77 546h73l-78 -550q-9 -70 -43 -101.5zM165 682l-85 -64h-73l138 107h54l106 -107h-77z" />
    <glyph glyph-name="Kcommaaccent" unicode="&#x136;" horiz-adv-x="665" 
d="M499 0l-185 385l-152 -150l-33 -235h-76l102 723h76l-55 -390l401 390h90l-288 -283l206 -440h-86zM221.5 -228.5q-1.5 3.5 1.5 6.5l33 51q3 4 3 6q1 7 -6 7h-8q-11 0 -10 11l9 64q1 10 11 10h54q8 0 6 -9l-10 -76l-2 -8l-43 -58q-4 -5 -8 -6.5t-12 -1.5h-13
q-4 0 -5.5 3.5z" />
    <glyph glyph-name="kcommaaccent" unicode="&#x137;" horiz-adv-x="554" 
d="M394 0l-132 273l-130 -118l-22 -155h-73l104 743h73l-70 -503l303 277h85l-213 -194l155 -323h-80zM161.5 -228.5q-1.5 3.5 1.5 6.5l33 51q3 4 3 6q1 7 -6 7h-8q-11 0 -10 11l9 64q1 10 11 10h54q8 0 6 -9l-10 -76l-2 -8l-43 -58q-4 -5 -8 -6.5t-12 -1.5h-13
q-4 0 -5.5 3.5z" />
    <glyph glyph-name="kgreenlandic" unicode="&#x138;" horiz-adv-x="561" 
d="M394 0l-124 277l-138 -122l-22 -155h-73l73 517h73l-40 -279l309 279h84l-207 -183l152 -334h-87z" />
    <glyph glyph-name="Lacute" unicode="&#x139;" horiz-adv-x="558" 
d="M231 723l-92 -654h351l-10 -69h-427l102 723h76zM344 877l-257 -75l-8 41l254 95z" />
    <glyph glyph-name="lacute" unicode="&#x13a;" horiz-adv-x="282" 
d="M68 34q-21 36 -12 99l85 610h72l-85 -605q-6 -42 7.5 -62.5t39.5 -21.5l28 -1l-6 -48q-25 -7 -42 -7q-66 0 -87 36zM329 917l-257 -75l-8 41l254 95z" />
    <glyph glyph-name="Lcommaaccent" unicode="&#x13b;" horiz-adv-x="558" 
d="M231 723l-92 -654h351l-10 -69h-427l102 723h76zM192.5 -228.5q-1.5 3.5 1.5 6.5l33 51q3 4 3 6q1 7 -6 7h-8q-11 0 -10 11l9 64q1 10 11 10h54q8 0 6 -9l-10 -76l-2 -8l-43 -58q-4 -5 -8 -6.5t-12 -1.5h-13q-4 0 -5.5 3.5z" />
    <glyph glyph-name="lcommaaccent" unicode="&#x13c;" horiz-adv-x="282" 
d="M68 34q-21 36 -12 99l85 610h72l-85 -605q-6 -42 7.5 -62.5t39.5 -21.5l28 -1l-6 -48q-25 -7 -42 -7q-66 0 -87 36zM-1.5 -228.5q-1.5 3.5 1.5 6.5l33 51q3 4 3 6q1 7 -6 7h-8q-11 0 -10 11l9 64q1 10 11 10h54q8 0 6 -9l-10 -76l-2 -8l-43 -58q-4 -5 -8 -6.5t-12 -1.5
h-13q-4 0 -5.5 3.5z" />
    <glyph glyph-name="Lcaron" unicode="&#x13d;" horiz-adv-x="558" 
d="M231 723l-92 -654h351l-10 -69h-427l102 723h76zM386 540.5q-2 2.5 0 5.5l40 70q3 6 2 8.5t-5 3.5l-7 1q-6 1 -7.5 2.5t-0.5 6.5l10 77q1 8 10 8h53q7 0 6 -7l-13 -87q0 -2 -0.5 -3t-0.5 -2l-44 -78q-3 -5 -7 -6.5t-11 -1.5h-20q-3 0 -5 2.5z" />
    <glyph glyph-name="lcaron" unicode="&#x13e;" horiz-adv-x="282" 
d="M68 34q-21 36 -12 99l85 610h72l-85 -605q-6 -42 7.5 -62.5t39.5 -21.5l28 -1l-6 -48q-25 -7 -42 -7q-66 0 -87 36zM242 549.5q-2 2.5 0 5.5l40 70q3 6 2 8.5t-5 3.5l-7 1q-6 1 -7.5 2.5t-0.5 6.5l10 77q1 8 10 8h53q7 0 6 -7l-13 -87q0 -2 -0.5 -3t-0.5 -2l-44 -78
q-3 -5 -7 -6.5t-11 -1.5h-20q-3 0 -5 2.5z" />
    <glyph glyph-name="Ldot" unicode="&#x13f;" horiz-adv-x="572" 
d="M231 723l-92 -654h351l-10 -69h-427l102 723h76zM518 342h-102l14 99h102z" />
    <glyph glyph-name="ldot" unicode="&#x140;" horiz-adv-x="325" 
d="M68 34q-21 36 -12 99l85 610h72l-85 -605q-6 -42 7.5 -62.5t39.5 -21.5l28 -1l-6 -48q-25 -7 -42 -7q-66 0 -87 36zM324 238h-102l14 99h102z" />
    <glyph glyph-name="Lslash" unicode="&#x141;" horiz-adv-x="559" 
d="M492 69l-10 -69h-427l46 327l-67 -17l-6 -1q-6 0 -4 8l6 44q1 9 9 12l71 18l47 332h76l-44 -313l162 41h2q8 0 7 -8l-6 -42q-1 -9 -10 -12l-164 -42l-39 -278h351z" />
    <glyph glyph-name="lslash" unicode="&#x142;" horiz-adv-x="254" 
d="M221 53l-6 -48q-26 -7 -42 -7q-66 0 -87 36t-12 99l15 111l-104 -80l10 70l104 79l60 430h72l-51 -368l95 72l-10 -68l-95 -73l-24 -168q-6 -42 7.5 -62.5t39.5 -21.5z" />
    <glyph glyph-name="Nacute" unicode="&#x143;" horiz-adv-x="740" 
d="M697 723l-102 -723h-65l-320 597l-84 -597h-73l102 723h67l318 -592l84 592h73zM588 877l-257 -75l-8 41l254 95z" />
    <glyph glyph-name="nacute" unicode="&#x144;" 
d="M110 517h70l-11 -74q27 37 73 59.5t105 22.5q79 0 123 -48.5t32 -138.5l-48 -338h-73l47 332q9 63 -20 97t-86 34q-63 0 -109 -28.5t-54 -82.5l-49 -352h-73zM478 671l-257 -75l-8 41l254 95z" />
    <glyph glyph-name="Ncommaaccent" unicode="&#x145;" horiz-adv-x="740" 
d="M697 723l-102 -723h-65l-320 597l-84 -597h-73l102 723h67l318 -592l84 592h73zM236.5 -228.5q-1.5 3.5 1.5 6.5l33 51q3 4 3 6q1 7 -6 7h-8q-11 0 -10 11l9 64q1 10 11 10h54q8 0 6 -9l-10 -76l-2 -8l-43 -58q-4 -5 -8 -6.5t-12 -1.5h-13q-4 0 -5.5 3.5z" />
    <glyph glyph-name="ncommaaccent" unicode="&#x146;" 
d="M110 517h70l-11 -74q27 37 73 59.5t105 22.5q79 0 123 -48.5t32 -138.5l-48 -338h-73l47 332q9 63 -20 97t-86 34q-63 0 -109 -28.5t-54 -82.5l-49 -352h-73zM177.5 -228.5q-1.5 3.5 1.5 6.5l33 51q3 4 3 6q1 7 -6 7h-8q-11 0 -10 11l9 64q1 10 11 10h54q8 0 6 -9
l-10 -76l-2 -8l-43 -58q-4 -5 -8 -6.5t-12 -1.5h-13q-4 0 -5.5 3.5z" />
    <glyph glyph-name="Ncaron" unicode="&#x147;" horiz-adv-x="740" 
d="M697 723l-102 -723h-65l-320 597l-84 -597h-73l102 723h67l318 -592l84 592h73zM614 929l-137 -108h-54l-107 108h73l66 -65l82 65h77z" />
    <glyph glyph-name="ncaron" unicode="&#x148;" 
d="M110 517h70l-11 -74q27 37 73 59.5t105 22.5q79 0 123 -48.5t32 -138.5l-48 -338h-73l47 332q9 63 -20 97t-86 34q-63 0 -109 -28.5t-54 -82.5l-49 -352h-73zM504 723l-137 -108h-54l-107 108h73l66 -65l82 65h77z" />
    <glyph glyph-name="napostrophe" unicode="&#x149;" horiz-adv-x="627" 
d="M52 461q-1 3 1 6l46 114q5 12 -2 13h-7q-10 0 -8 9l15 112q1 8 10 8h54q6 0 5 -7l-18 -122l-1 -5l-52 -122q-2 -9 -17 -9h-21q-4 0 -5 3zM154 517h70l-11 -74q27 37 73 59.5t105 22.5q79 0 123 -48.5t32 -138.5l-48 -338h-73l47 332q9 63 -20 97t-86 34q-63 0 -109 -28.5
t-54 -82.5l-49 -352h-73z" />
    <glyph glyph-name="Eng" unicode="&#x14a;" horiz-adv-x="740" 
d="M693.5 721q1.5 -2 0.5 -9l-104 -737q-10 -72 -50 -109t-116 -37q-48 0 -88 14q-9 4 -7 17l10 43q4 11 12 8q36 -12 65 -12q40 0 63.5 20.5t30.5 68.5l6 42l-301 540q-7 13 -9 0l-78 -558q-2 -12 -15 -12h-48q-7 0 -9 2.5t-1 9.5l98 699q1 7 4 9.5t9 2.5h51q7 0 10 -1.5
t6 -6.5l299 -544q4 -6 8 -6q2 0 4.5 2.5t2.5 6.5l76 538q2 11 13 11h50q6 0 7.5 -2z" />
    <glyph glyph-name="eng" unicode="&#x14b;" horiz-adv-x="593" 
d="M255 -163.5q-11 2.5 -10 7.5l7 48l48 2q35 1 53 18.5t24 57.5l54 388q15 110 -92 110q-77 0 -175 -83l-54 -385h-73l73 517h70l-11 -79q66 50 110.5 69.5t92.5 19.5q72 0 108.5 -40.5t26.5 -106.5l-57 -405q-10 -68 -47.5 -104.5t-101.5 -36.5q-35 0 -46 2.5z" />
    <glyph glyph-name="Omacron" unicode="&#x14c;" horiz-adv-x="721" 
d="M102.5 86q-67.5 96 -43.5 272q17 119 66 203.5t124 128t170 43.5q94 0 156.5 -43.5t87 -127.5t8.5 -202q-25 -177 -119.5 -273.5t-237.5 -96.5q-144 0 -211.5 96zM501.5 131q67.5 75 88.5 228q22 155 -24.5 231.5t-155.5 76.5t-178.5 -77t-91.5 -231q-21 -152 27 -227.5
t158 -75.5q109 0 176.5 75zM577 859h-278l8 55h278z" />
    <glyph glyph-name="omacron" unicode="&#x14d;" horiz-adv-x="567" 
d="M76.5 62.5q-51.5 72.5 -34.5 192.5q11 80 47.5 141.5t94 96t129.5 34.5q71 0 118 -34.5t66 -95.5t8 -140t-47 -139.5t-92.5 -94t-128.5 -33.5q-109 0 -160.5 72.5zM371 106.5q47 56.5 60 151.5t-18 152t-108 57q-78 0 -127 -57.5t-62 -151.5q-13 -93 19.5 -150.5
t110.5 -57.5t125 56.5zM470 653h-278l8 55h278z" />
    <glyph glyph-name="Obreve" unicode="&#x14e;" horiz-adv-x="721" 
d="M102.5 86q-67.5 96 -43.5 272q17 119 66 203.5t124 128t170 43.5q94 0 156.5 -43.5t87 -127.5t8.5 -202q-25 -177 -119.5 -273.5t-237.5 -96.5q-144 0 -211.5 96zM501.5 131q67.5 75 88.5 228q22 155 -24.5 231.5t-155.5 76.5t-178.5 -77t-91.5 -231q-21 -152 27 -227.5
t158 -75.5q109 0 176.5 75zM531.5 858.5q-42.5 -30.5 -98.5 -30.5q-57 0 -89 29t-37 72h59q10 -21 26 -36t48 -15q28 0 51.5 15t38.5 36h62q-18 -40 -60.5 -70.5z" />
    <glyph glyph-name="obreve" unicode="&#x14f;" horiz-adv-x="567" 
d="M76.5 62.5q-51.5 72.5 -34.5 192.5q11 80 47.5 141.5t94 96t129.5 34.5q71 0 118 -34.5t66 -95.5t8 -140t-47 -139.5t-92.5 -94t-128.5 -33.5q-109 0 -160.5 72.5zM371 106.5q47 56.5 60 151.5t-18 152t-108 57q-78 0 -127 -57.5t-62 -151.5q-13 -93 19.5 -150.5
t110.5 -57.5t125 56.5zM424.5 652.5q-42.5 -30.5 -98.5 -30.5q-57 0 -89 29t-37 72h59q10 -21 26 -36t48 -15q28 0 51.5 15t38.5 36h62q-18 -40 -60.5 -70.5z" />
    <glyph glyph-name="Ohungarumlaut" unicode="&#x150;" horiz-adv-x="721" 
d="M102.5 86q-67.5 96 -43.5 272q17 119 66 203.5t124 128t170 43.5q94 0 156.5 -43.5t87 -127.5t8.5 -202q-25 -177 -119.5 -273.5t-237.5 -96.5q-144 0 -211.5 96zM501.5 131q67.5 75 88.5 228q22 155 -24.5 231.5t-155.5 76.5t-178.5 -77t-91.5 -231q-21 -152 27 -227.5
t158 -75.5q109 0 176.5 75zM482 900h1q3 -4 2 -8t-7 -10l-140 -106q-9 -4 -10 -4q-3 0 -6 5l-12 17q-4 3 -4 7q1 4 4 6l137 127q8 5 12 -1zM638 900q3 -6 2 -8q-1 -5 -9 -10l-140 -106q-2 -1 -4.5 -2.5t-4.5 -1.5q-4 0 -7 5l-10 17q-3 4 -3 7.5t3 5.5l137 127q8 5 12 -1z
" />
    <glyph glyph-name="ohungarumlaut" unicode="&#x151;" horiz-adv-x="567" 
d="M76.5 62.5q-51.5 72.5 -34.5 192.5q11 80 47.5 141.5t94 96t129.5 34.5q71 0 118 -34.5t66 -95.5t8 -140t-47 -139.5t-92.5 -94t-128.5 -33.5q-109 0 -160.5 72.5zM371 106.5q47 56.5 60 151.5t-18 152t-108 57q-78 0 -127 -57.5t-62 -151.5q-13 -93 19.5 -150.5
t110.5 -57.5t125 56.5zM375 694h1q3 -4 2 -8t-7 -10l-140 -106q-9 -4 -10 -4q-3 0 -6 5l-12 17q-4 3 -3 7q0 4 3 6l137 127q8 5 12 -1zM531 694q3 -6 2 -8q-1 -5 -9 -10l-140 -106q-2 -1 -4.5 -2.5t-4.5 -1.5q-4 0 -7 5l-10 17q-3 4 -3 7.5t3 5.5l137 127q8 5 12 -1z" />
    <glyph glyph-name="OE" unicode="&#x152;" horiz-adv-x="1106" 
d="M992 0h-440l5 107q-42 -58 -103 -87.5t-137 -29.5q-146 0 -214 96t-44 272q17 119 66.5 203.5t125.5 128t173 43.5q75 0 127 -30t77 -88l29 108h424l-10 -65h-361l-36 -261h271l-9 -64h-271l-38 -268h374zM496.5 129.5q63.5 74.5 84.5 229.5q22 157 -20.5 233t-150.5 76
q-220 0 -264 -309q-43 -304 179 -304q108 0 171.5 74.5z" />
    <glyph glyph-name="oe" unicode="&#x153;" horiz-adv-x="993" 
d="M126 23q-51 33 -73 93.5t-11 138.5q11 80 51 142t100.5 96t132.5 34q66 0 112.5 -30.5t69.5 -85.5q4 -7 7 -7q4 0 8 7q37 54 92 85t119 31q109 0 161 -75.5t33 -208.5h-400q-8 -54 9.5 -98.5t54.5 -70.5t84 -26q104 0 173 90l48 -28q-48 -62 -104.5 -91t-130.5 -29
q-65 0 -112.5 29t-71.5 81q-2 8 -6 8t-11 -11q-38 -51 -92.5 -79t-118.5 -28q-73 0 -124 33zM640 448.5q-41 -22.5 -68.5 -63t-34.5 -92.5l326 -1q7 48 -7.5 89t-47 65.5t-79.5 24.5q-48 0 -89 -22.5zM389.5 103.5q52.5 56.5 66.5 153.5q14 98 -23.5 155.5t-114.5 57.5
q-78 0 -132.5 -57.5t-68.5 -155.5q-14 -97 25 -153.5t117 -56.5t130.5 56.5z" />
    <glyph glyph-name="Racute" unicode="&#x154;" horiz-adv-x="671" 
d="M475 0l-92 323h-212l-45 -323h-73l102 723h271q112 0 164 -49.5t39 -141.5q-11 -81 -59.5 -127.5t-113.5 -67.5l98 -337h-79zM552 526q19 134 -141 134h-192l-39 -273h166q186 0 206 139zM531 877l-257 -75l-8 41l254 95z" />
    <glyph glyph-name="racute" unicode="&#x155;" horiz-adv-x="377" 
d="M110 517h69l-15 -104q34 49 93.5 81.5t114.5 32.5l-10 -71q-48 2 -94 -18t-77 -52t-36 -65l-45 -321h-73zM386 671l-257 -75l-8 41l254 95z" />
    <glyph glyph-name="Rcommaaccent" unicode="&#x156;" horiz-adv-x="671" 
d="M475 0l-92 323h-212l-45 -323h-73l102 723h271q112 0 164 -49.5t39 -141.5q-11 -81 -59.5 -127.5t-113.5 -67.5l98 -337h-79zM552 526q19 134 -141 134h-192l-39 -273h166q186 0 206 139zM216.5 -228.5q-1.5 3.5 1.5 6.5l33 51q3 4 3 6q1 7 -6 7h-8q-11 0 -10 11l9 64
q1 10 11 10h54q8 0 6 -9l-10 -76l-2 -8l-43 -58q-4 -5 -8 -6.5t-12 -1.5h-13q-4 0 -5.5 3.5z" />
    <glyph glyph-name="rcommaaccent" unicode="&#x157;" horiz-adv-x="377" 
d="M110 517h69l-15 -104q34 49 93.5 81.5t114.5 32.5l-10 -71q-48 2 -94 -18t-77 -52t-36 -65l-45 -321h-73zM6.5 -228.5q-1.5 3.5 1.5 6.5l33 51q3 4 3 6q1 7 -6 7h-8q-11 0 -10 11l9 64q1 10 11 10h54q8 0 6 -9l-10 -76l-2 -8l-43 -58q-4 -5 -8 -6.5t-12 -1.5h-13
q-4 0 -5.5 3.5z" />
    <glyph glyph-name="Rcaron" unicode="&#x158;" horiz-adv-x="671" 
d="M475 0l-92 323h-212l-45 -323h-73l102 723h271q112 0 164 -49.5t39 -141.5q-11 -81 -59.5 -127.5t-113.5 -67.5l98 -337h-79zM552 526q19 134 -141 134h-192l-39 -273h166q186 0 206 139zM557 929l-137 -108h-54l-107 108h73l66 -65l82 65h77z" />
    <glyph glyph-name="rcaron" unicode="&#x159;" horiz-adv-x="377" 
d="M110 517h69l-15 -104q34 49 93.5 81.5t114.5 32.5l-10 -71q-48 2 -94 -18t-77 -52t-36 -65l-45 -321h-73zM412 723l-137 -108h-54l-107 108h73l66 -65l82 65h77z" />
    <glyph glyph-name="Sacute" unicode="&#x15a;" horiz-adv-x="661" 
d="M162.5 12q-57.5 22 -92 65t-36.5 102l78 7q5 -64 57 -98.5t128 -34.5q85 0 144 35.5t68 93.5q7 51 -20.5 83.5t-90.5 47.5l-146 35q-79 18 -117.5 63t-29.5 114q8 60 47 107t101 73.5t137 26.5q80 0 133 -27.5t77.5 -73t23.5 -99.5l-76 -6q-2 73 -48 107t-120 34
q-44 0 -87 -15.5t-72.5 -46t-35.5 -74.5q-6 -43 20.5 -72.5t98.5 -47.5l140 -35q165 -39 143 -193q-8 -54 -46 -98t-103 -69.5t-149 -25.5q-69 0 -126.5 22zM538 877l-257 -75l-8 41l254 95z" />
    <glyph glyph-name="sacute" unicode="&#x15b;" horiz-adv-x="504" 
d="M72.5 28.5q-49.5 38.5 -52.5 103.5l65 12q14 -97 127 -97q57 0 100.5 24.5t49.5 65.5q9 65 -69 85l-106 24q-66 15 -93.5 47.5t-20.5 82.5q10 71 66.5 111t144.5 40q90 0 134 -41t38 -105l-65 -7q-6 96 -117 96q-50 0 -87.5 -20.5t-44.5 -69.5q-4 -26 13 -44t66 -31
l106 -28q63 -16 86.5 -53t17.5 -84q-6 -44 -37 -78t-80.5 -53t-110.5 -19q-81 0 -130.5 38.5zM422 671l-257 -75l-8 41l254 95z" />
    <glyph glyph-name="Scircumflex" unicode="&#x15c;" horiz-adv-x="661" 
d="M162.5 12q-57.5 22 -92 65t-36.5 102l78 7q5 -64 57 -98.5t128 -34.5q85 0 144 35.5t68 93.5q7 51 -20.5 83.5t-90.5 47.5l-146 35q-79 18 -117.5 63t-29.5 114q8 60 47 107t101 73.5t137 26.5q80 0 133 -27.5t77.5 -73t23.5 -99.5l-76 -6q-2 73 -48 107t-120 34
q-44 0 -87 -15.5t-72.5 -46t-35.5 -74.5q-6 -43 20.5 -72.5t98.5 -47.5l140 -35q165 -39 143 -193q-8 -54 -46 -98t-103 -69.5t-149 -25.5q-69 0 -126.5 22zM409 888l-85 -64h-73l138 107h54l106 -107h-77z" />
    <glyph glyph-name="scircumflex" unicode="&#x15d;" horiz-adv-x="504" 
d="M72.5 28.5q-49.5 38.5 -52.5 103.5l65 12q14 -97 127 -97q57 0 100.5 24.5t49.5 65.5q9 65 -69 85l-106 24q-66 15 -93.5 47.5t-20.5 82.5q10 71 66.5 111t144.5 40q90 0 134 -41t38 -105l-65 -7q-6 96 -117 96q-50 0 -87.5 -20.5t-44.5 -69.5q-4 -26 13 -44t66 -31
l106 -28q63 -16 86.5 -53t17.5 -84q-6 -44 -37 -78t-80.5 -53t-110.5 -19q-81 0 -130.5 38.5zM293 682l-85 -64h-73l138 107h54l106 -107h-77z" />
    <glyph glyph-name="Scedilla" unicode="&#x15e;" horiz-adv-x="661" 
d="M162.5 12q-57.5 22 -92 65t-36.5 102l78 7q5 -64 57 -98.5t128 -34.5q85 0 144 35.5t68 93.5q7 51 -20.5 83.5t-90.5 47.5l-146 35q-79 18 -117.5 63t-29.5 114q8 60 47 107t101 73.5t137 26.5q80 0 133 -27.5t77.5 -73t23.5 -99.5l-76 -6q-2 73 -48 107t-120 34
q-44 0 -87 -15.5t-72.5 -46t-35.5 -74.5q-6 -43 20.5 -72.5t98.5 -47.5l140 -35q165 -39 143 -193q-8 -54 -46 -98t-103 -69.5t-149 -25.5q-69 0 -126.5 22zM309 -183q-33 -20 -77 -20q-53 0 -84 24l19 35q25 -23 62 -23q56 0 61 38q3 23 -14.5 33.5t-57.5 11.5q-8 0 -5 6
l49 83h43l-33 -61q45 -3 62 -23.5t13 -48.5q-5 -35 -38 -55z" />
    <glyph glyph-name="scedilla" unicode="&#x15f;" horiz-adv-x="504" 
d="M72.5 28.5q-49.5 38.5 -52.5 103.5l65 12q14 -97 127 -97q57 0 100.5 24.5t49.5 65.5q9 65 -69 85l-106 24q-66 15 -93.5 47.5t-20.5 82.5q10 71 66.5 111t144.5 40q90 0 134 -41t38 -105l-65 -7q-6 96 -117 96q-50 0 -87.5 -20.5t-44.5 -69.5q-4 -26 13 -44t66 -31
l106 -28q63 -16 86.5 -53t17.5 -84q-6 -44 -37 -78t-80.5 -53t-110.5 -19q-81 0 -130.5 38.5zM233 -183q-33 -20 -77 -20q-53 0 -84 24l19 35q25 -23 62 -23q56 0 61 38q3 23 -14.5 33.5t-57.5 11.5q-8 0 -5 6l49 83h43l-33 -61q45 -3 62 -23.5t13 -48.5q-5 -35 -38 -55z
" />
    <glyph glyph-name="Scaron" unicode="&#x160;" horiz-adv-x="661" 
d="M162.5 12q-57.5 22 -92 65t-36.5 102l78 7q5 -64 57 -98.5t128 -34.5q85 0 144 35.5t68 93.5q7 51 -20.5 83.5t-90.5 47.5l-146 35q-79 18 -117.5 63t-29.5 114q8 60 47 107t101 73.5t137 26.5q80 0 133 -27.5t77.5 -73t23.5 -99.5l-76 -6q-2 73 -48 107t-120 34
q-44 0 -87 -15.5t-72.5 -46t-35.5 -74.5q-6 -43 20.5 -72.5t98.5 -47.5l140 -35q165 -39 143 -193q-8 -54 -46 -98t-103 -69.5t-149 -25.5q-69 0 -126.5 22zM564 929l-137 -108h-54l-107 108h73l66 -65l82 65h77z" />
    <glyph glyph-name="scaron" unicode="&#x161;" horiz-adv-x="504" 
d="M72.5 28.5q-49.5 38.5 -52.5 103.5l65 12q14 -97 127 -97q57 0 100.5 24.5t49.5 65.5q9 65 -69 85l-106 24q-66 15 -93.5 47.5t-20.5 82.5q10 71 66.5 111t144.5 40q90 0 134 -41t38 -105l-65 -7q-6 96 -117 96q-50 0 -87.5 -20.5t-44.5 -69.5q-4 -26 13 -44t66 -31
l106 -28q63 -16 86.5 -53t17.5 -84q-6 -44 -37 -78t-80.5 -53t-110.5 -19q-81 0 -130.5 38.5zM448 723l-137 -108h-54l-107 108h73l66 -65l82 65h77z" />
    <glyph glyph-name="uni0162" unicode="&#x162;" horiz-adv-x="564" 
d="M70 723h535l-10 -69h-223l-92 -654h-73l92 654h-239zM276 -183q-33 -20 -77 -20q-53 0 -84 24l19 35q25 -23 62 -23q56 0 61 38q3 23 -14.5 33.5t-57.5 11.5q-8 0 -5 6l49 83h43l-33 -61q45 -3 62 -23.5t13 -48.5q-5 -35 -38 -55z" />
    <glyph glyph-name="uni0163" unicode="&#x163;" horiz-adv-x="381" 
d="M224 462l-47 -334q-6 -44 4.5 -59.5t38.5 -15.5h69l-6 -47q-22 -8 -73 -8q-70 0 -93 29.5t-14 94.5l48 340h-84l8 55h86l30 172h65l-24 -172h118l-8 -55h-118zM241 -183q-33 -20 -77 -20q-53 0 -84 24l19 35q25 -23 62 -23q56 0 61 38q3 23 -14.5 33.5t-57.5 11.5
q-8 0 -5 6l49 83h43l-33 -61q45 -3 62 -23.5t13 -48.5q-5 -35 -38 -55z" />
    <glyph glyph-name="Tcaron" unicode="&#x164;" horiz-adv-x="564" 
d="M70 723h535l-10 -69h-223l-92 -654h-73l92 654h-239zM526 929l-137 -108h-54l-107 108h73l66 -65l82 65h77z" />
    <glyph glyph-name="tcaron" unicode="&#x165;" horiz-adv-x="381" 
d="M224 462l-47 -334q-6 -44 4.5 -59.5t38.5 -15.5h69l-6 -47q-22 -8 -73 -8q-70 0 -93 29.5t-14 94.5l48 340h-84l8 55h86l30 172h65l-24 -172h118l-8 -55h-118zM339 566.5q-2 2.5 0 5.5l40 70q3 6 2 8.5t-5 3.5l-7 1q-6 1 -7.5 2.5t-0.5 6.5l10 77q1 8 10 8h53q7 0 6 -7
l-13 -87q0 -2 -0.5 -3t-0.5 -2l-44 -78q-3 -5 -7 -6.5t-11 -1.5h-20q-3 0 -5 2.5z" />
    <glyph glyph-name="Tbar" unicode="&#x166;" horiz-adv-x="564" 
d="M372 654l-36 -258h176l-9 -62h-176l-47 -334h-73l47 334h-124l9 62h124l36 258h-239l10 69h535l-10 -69h-223z" />
    <glyph glyph-name="tbar" unicode="&#x167;" horiz-adv-x="364" 
d="M291 53l-6 -47q-22 -8 -73 -8q-70 0 -93 29.5t-14 94.5l20 141h-90l7 49h90l21 150h-84l8 55h86l30 172h65l-24 -172h118l-8 -55h-118l-21 -150h90l-7 -49h-90l-19 -135q-6 -44 4.5 -59.5t38.5 -15.5h69z" />
    <glyph glyph-name="Utilde" unicode="&#x168;" horiz-adv-x="708" 
d="M307 -10q-133 0 -185 65t-34 197l67 471h76l-69 -486q-13 -90 26 -136t128 -46t142 45.5t65 136.5l69 486h73l-68 -483q-35 -250 -290 -250zM488 848q-19 0 -33 3.5t-32 10.5q-32 12 -52 12q-16 0 -27.5 -4t-21 -9.5t-13.5 -7.5q-4 -3 -7 -3t-4 8l-6 24q-1 4 -1 5
q0 2 6 7q21 14 37.5 21.5t38.5 7.5q16 0 30 -3.5t34 -10.5q35 -13 58 -13q16 0 28 4.5t30 13.5q5 3 8 3q4 0 6 -7l5 -28q1 -1 0 -4q-1 -4 -9 -8q-34 -22 -75 -22z" />
    <glyph glyph-name="utilde" unicode="&#x169;" 
d="M142.5 9q-42.5 18 -66.5 58t-15 102l49 350h73l-48 -344q-9 -65 27 -95t87 -30q57 0 102.5 34.5t55.5 97.5l47 337h73l-74 -518h-59l9 81q-21 -36 -71 -63.5t-100 -27.5q-47 0 -89.5 18zM389 642q-19 0 -33 3.5t-32 10.5q-32 12 -52 12q-16 0 -27.5 -4t-21 -9.5
t-13.5 -7.5q-4 -3 -7 -3t-4 8l-6 24q-1 4 -1 5q0 2 6 7q21 14 37.5 21.5t38.5 7.5q16 0 30 -3.5t34 -10.5q35 -13 58 -13q16 0 28 4.5t30 13.5q5 3 8 3q4 0 6 -7l5 -28q1 -1 0 -4q-1 -4 -9 -8q-34 -22 -75 -22z" />
    <glyph glyph-name="Umacron" unicode="&#x16a;" horiz-adv-x="708" 
d="M307 -10q-133 0 -185 65t-34 197l67 471h76l-69 -486q-13 -90 26 -136t128 -46t142 45.5t65 136.5l69 486h73l-68 -483q-35 -250 -290 -250zM566 859h-278l8 55h278z" />
    <glyph glyph-name="umacron" unicode="&#x16b;" 
d="M142.5 9q-42.5 18 -66.5 58t-15 102l49 350h73l-48 -344q-9 -65 27 -95t87 -30q57 0 102.5 34.5t55.5 97.5l47 337h73l-74 -518h-59l9 81q-21 -36 -71 -63.5t-100 -27.5q-47 0 -89.5 18zM467 653h-278l8 55h278z" />
    <glyph glyph-name="Ubreve" unicode="&#x16c;" horiz-adv-x="708" 
d="M307 -10q-133 0 -185 65t-34 197l67 471h76l-69 -486q-13 -90 26 -136t128 -46t142 45.5t65 136.5l69 486h73l-68 -483q-35 -250 -290 -250zM520.5 858.5q-42.5 -30.5 -98.5 -30.5q-57 0 -89 29t-37 72h59q10 -21 26 -36t48 -15q28 0 51.5 15t38.5 36h62
q-18 -40 -60.5 -70.5z" />
    <glyph glyph-name="ubreve" unicode="&#x16d;" 
d="M142.5 9q-42.5 18 -66.5 58t-15 102l49 350h73l-48 -344q-9 -65 27 -95t87 -30q57 0 102.5 34.5t55.5 97.5l47 337h73l-74 -518h-59l9 81q-21 -36 -71 -63.5t-100 -27.5q-47 0 -89.5 18zM421.5 652.5q-42.5 -30.5 -98.5 -30.5q-57 0 -89 29t-37 72h59q10 -21 26 -36
t48 -15q28 0 51.5 15t38.5 36h62q-18 -40 -60.5 -70.5z" />
    <glyph glyph-name="Uring" unicode="&#x16e;" horiz-adv-x="708" 
d="M307 -10q-133 0 -185 65t-34 197l67 471h76l-69 -486q-13 -90 26 -136t128 -46t142 45.5t65 136.5l69 486h73l-68 -483q-35 -250 -290 -250zM492.5 814.5q-33.5 -28.5 -76.5 -28.5q-42 0 -66.5 29.5t-18.5 72.5q6 40 39 69t74 29q43 0 68.5 -29t19.5 -71
q-6 -43 -39.5 -71.5zM474 925.5q-14 15.5 -37 15.5q-22 0 -40.5 -16t-22.5 -39q-3 -22 11 -39t36 -17q23 0 41.5 17t21.5 39q4 24 -10 39.5z" />
    <glyph glyph-name="uring" unicode="&#x16f;" 
d="M142.5 9q-42.5 18 -66.5 58t-15 102l49 350h73l-48 -344q-9 -65 27 -95t87 -30q57 0 102.5 34.5t55.5 97.5l47 337h73l-74 -518h-59l9 81q-21 -36 -71 -63.5t-100 -27.5q-47 0 -89.5 18zM393.5 608.5q-33.5 -28.5 -76.5 -28.5q-42 0 -66.5 29.5t-18.5 72.5q6 40 39 69
t74 29q43 0 68.5 -29t19.5 -71q-6 -43 -39.5 -71.5zM375 719.5q-14 15.5 -37 15.5q-22 0 -40.5 -16t-22.5 -39q-3 -22 11 -39t36 -17q23 0 41.5 17t21.5 39q4 24 -10 39.5z" />
    <glyph glyph-name="Uhungarumlaut" unicode="&#x170;" horiz-adv-x="708" 
d="M307 -10q-133 0 -185 65t-34 197l67 471h76l-69 -486q-13 -90 26 -136t128 -46t142 45.5t65 136.5l69 486h73l-68 -483q-35 -250 -290 -250zM471 900h1q3 -4 2 -8t-7 -10l-140 -106q-9 -4 -10 -4q-3 0 -6 5l-12 17q-4 3 -3 7q0 4 3 6l137 127q8 5 12 -1zM627 900
q3 -6 2 -8q-1 -5 -9 -10l-140 -106q-2 -1 -4.5 -2.5t-4.5 -1.5q-4 0 -7 5l-10 17q-3 4 -3 7.5t3 5.5l137 127q8 5 12 -1z" />
    <glyph glyph-name="uhungarumlaut" unicode="&#x171;" 
d="M142.5 9q-42.5 18 -66.5 58t-15 102l49 350h73l-48 -344q-9 -65 27 -95t87 -30q57 0 102.5 34.5t55.5 97.5l47 337h73l-74 -518h-59l9 81q-21 -36 -71 -63.5t-100 -27.5q-47 0 -89.5 18zM372 694h1q3 -4 2 -8t-7 -10l-140 -106q-9 -4 -10 -4q-3 0 -6 5l-12 17q-4 3 -4 7
q1 4 4 6l137 127q8 5 12 -1zM528 694q3 -6 2 -8q-1 -5 -9 -10l-140 -106q-2 -1 -4.5 -2.5t-4.5 -1.5q-4 0 -7 5l-10 17q-3 4 -3 7.5t3 5.5l137 127q8 5 12 -1z" />
    <glyph glyph-name="Uogonek" unicode="&#x172;" horiz-adv-x="708" 
d="M307 -10q-133 0 -185 65t-34 197l67 471h76l-69 -486q-13 -90 26 -136t128 -46t142 45.5t65 136.5l69 486h73l-68 -483q-35 -250 -290 -250zM248.5 -33.5q26.5 23.5 86.5 41.5l54 -7q-55 -22 -80 -41.5t-29 -44.5q-5 -38 45 -38q19 0 36 4t28 9q4 2 6 2q4 0 3 -7l-4 -26
q-1 -7 -8 -10q-12 -6 -35.5 -11t-48.5 -5q-47 0 -68 21t-16 57q4 32 30.5 55.5z" />
    <glyph glyph-name="uogonek" unicode="&#x173;" 
d="M142.5 9q-42.5 18 -66.5 58t-15 102l49 350h73l-48 -344q-9 -65 27 -95t87 -30q57 0 102.5 34.5t55.5 97.5l47 337h73l-74 -518h-59l9 81q-21 -36 -71 -63.5t-100 -27.5q-47 0 -89.5 18zM308.5 -32.5q26.5 23.5 86.5 41.5l54 -7q-55 -22 -80 -41.5t-29 -44.5
q-5 -38 45 -38q19 0 36 4t28 9q4 2 6 2q4 0 3 -7l-4 -26q-1 -7 -8 -10q-12 -6 -35.5 -11t-48.5 -5q-47 0 -68 21t-16 57q4 32 30.5 55.5z" />
    <glyph glyph-name="Wcircumflex" unicode="&#x174;" horiz-adv-x="949" 
d="M668 0h-74l-84 592l-253 -592h-71l-105 723h76l83 -611l259 611h61l86 -611l259 611h75zM557 888l-85 -64h-73l138 107h54l106 -107h-77z" />
    <glyph glyph-name="wcircumflex" unicode="&#x175;" horiz-adv-x="770" 
d="M541 0h-73l-73 406l-180 -406h-72l-89 517h70l70 -425l189 425h58l75 -424l184 424h70zM438 682l-85 -64h-73l138 107h54l106 -107h-77z" />
    <glyph glyph-name="Ycircumflex" unicode="&#x176;" horiz-adv-x="576" 
d="M323 309l-43 -309h-73l44 310l-187 413h80l153 -347l247 347h80zM369 888l-85 -64h-73l138 107h54l106 -107h-77z" />
    <glyph glyph-name="ycircumflex" unicode="&#x177;" horiz-adv-x="516" 
d="M8 -162.5q-16 2.5 -23.5 5t-8.5 3.5l7 48l54 -1q49 -1 74 15.5t40 44.5l29 56l-130 508h75l102 -422l222 422h71l-301 -569q-34 -62 -75.5 -87.5t-94.5 -25.5q-25 0 -41 2.5zM314 682l-85 -64h-73l138 107h54l106 -107h-77z" />
    <glyph glyph-name="Ydieresis" unicode="&#x178;" horiz-adv-x="576" 
d="M323 309l-43 -309h-73l44 310l-187 413h80l153 -347l247 347h80zM329 824h-73l15 105h73zM466 824h-75l15 105h75z" />
    <glyph glyph-name="Zacute" unicode="&#x179;" horiz-adv-x="612" 
d="M13 44l492 614h-392l10 65h493l-6 -42l-496 -615h408l-9 -66h-506zM523 877l-257 -75l-8 41l254 95z" />
    <glyph glyph-name="zacute" unicode="&#x17a;" horiz-adv-x="481" 
d="M4 50l365 414h-286l8 53h372l-8 -51l-364 -413h312l-7 -53h-399zM435 671l-257 -75l-8 41l254 95z" />
    <glyph glyph-name="Zdotaccent" unicode="&#x17b;" horiz-adv-x="612" 
d="M13 44l492 614h-392l10 65h493l-6 -42l-496 -615h408l-9 -66h-506zM426 819h-80l16 110h80z" />
    <glyph glyph-name="zdotaccent" unicode="&#x17c;" horiz-adv-x="481" 
d="M4 50l365 414h-286l8 53h372l-8 -51l-364 -413h312l-7 -53h-399zM338 613h-80l16 110h80z" />
    <glyph glyph-name="Zcaron" unicode="&#x17d;" horiz-adv-x="612" 
d="M13 44l492 614h-392l10 65h493l-6 -42l-496 -615h408l-9 -66h-506zM549 929l-137 -108h-54l-107 108h73l66 -65l82 65h77z" />
    <glyph glyph-name="zcaron" unicode="&#x17e;" horiz-adv-x="481" 
d="M4 50l365 414h-286l8 53h372l-8 -51l-364 -413h312l-7 -53h-399zM461 723l-137 -108h-54l-107 108h73l66 -65l82 65h77z" />
    <glyph glyph-name="uni018F" unicode="&#x18f;" horiz-adv-x="721" 
d="M565.5 579.5q-33.5 83.5 -157.5 83.5q-66 0 -111.5 -25.5t-69.5 -57.5t-46 -74q-6 -13 -13 -25q0 -2 -4 -2l-7 2l-55 24q-4 1 -3 5l3 9q35 59 65 98.5t94 77.5t157 38q112 0 172 -54.5t76.5 -138.5t3.5 -180q-14 -99 -58.5 -183t-120 -135.5t-178.5 -51.5
q-161 0 -218.5 103.5t-34.5 271.5q1 8 3.5 11.5t9.5 3.5h500q5 0 7.5 2t3.5 7q15 107 -18.5 190.5zM156 319q-11 0 -12 -9q-15 -106 24.5 -180t152.5 -74q206 0 253 262z" />
    <glyph glyph-name="florin" unicode="&#x192;" horiz-adv-x="433" 
d="M369 462h-132l-157 -500q-20 -62 -60.5 -95t-100.5 -33h-74l15 53l57 1q36 1 57 19t35 62l155 493h-83l18 55h83l25 82q20 61 61 92.5t99 31.5h89l-16 -54h-76q-28 0 -51.5 -20.5t-34.5 -54.5l-24 -77h133z" />
    <glyph glyph-name="uni01C4" unicode="&#x1c4;" horiz-adv-x="1292" 
d="M304 722q197 -2 274.5 -90t52.5 -266q-26 -185 -134 -275.5t-305 -90.5h-139l102 723zM138 66h62q155 0 243 69.5t110 228.5q23 161 -44.5 227.5t-220.5 66.5h-67zM693 44l492 614h-392l10 65h493l-6 -42l-496 -615h408l-9 -66h-506zM1229 929l-137 -108h-54l-107 108h73
l66 -65l82 65h77z" />
    <glyph glyph-name="uni01C5" unicode="&#x1c5;" horiz-adv-x="1161" 
d="M304 722q197 -2 274.5 -90t52.5 -266q-26 -185 -134 -275.5t-305 -90.5h-139l102 723zM138 66h62q155 0 243 69.5t110 228.5q23 161 -44.5 227.5t-220.5 66.5h-67zM684 50l365 414h-286l8 53h372l-8 -51l-364 -413h312l-7 -53h-399zM1141 723l-137 -108h-54l-107 108h73
l66 -65l82 65h77z" />
    <glyph glyph-name="uni01C6" unicode="&#x1c6;" horiz-adv-x="1060" 
d="M71.5 58q-47.5 68 -30.5 194q18 125 86 200t171 75q44 0 79 -16t65 -49l39 281h74l-104 -743h-59l7 75q-79 -85 -181 -85q-99 0 -146.5 68zM315.5 68.5q35.5 19.5 59 50.5t28.5 63l28 204q-43 81 -126 81q-75 0 -125.5 -54.5t-64.5 -157.5t21 -154.5t104 -51.5
q40 0 75.5 19.5zM583 50l365 414h-286l8 53h372l-8 -51l-364 -413h312l-7 -53h-399zM1040 723l-137 -108h-54l-107 108h73l66 -65l82 65h77z" />
    <glyph glyph-name="uni01C7" unicode="&#x1c7;" horiz-adv-x="969" 
d="M231 723l-92 -654h351l-10 -69h-427l102 723h76zM797.5 32q-36.5 -42 -116.5 -42q-35 0 -66.5 8.5t-45.5 16.5l18 72l20 -10q14 -7 31 -11.5t37 -4.5q48 0 70 27t31 93l77 542h73l-80 -564q-12 -85 -48.5 -127z" />
    <glyph glyph-name="uni01C8" unicode="&#x1c8;" horiz-adv-x="826" 
d="M231 723l-92 -654h351l-10 -69h-427l102 723h76zM777 632h-81l15 111h81zM636.5 -134.5q-33.5 -31.5 -106.5 -31.5q-35 0 -48.5 4.5t-13.5 6.5l6 48l55 2q37 2 54.5 19t23.5 57l77 546h73l-78 -550q-9 -70 -42.5 -101.5z" />
    <glyph glyph-name="uni01C9" unicode="&#x1c9;" horiz-adv-x="550" 
d="M68 34q-21 36 -12 99l85 610h72l-85 -605q-6 -42 7.5 -62.5t39.5 -21.5l28 -1l-6 -48q-25 -7 -42 -7q-66 0 -87 36zM501 632h-81l15 111h81zM360.5 -134.5q-33.5 -31.5 -106.5 -31.5q-35 0 -48.5 4.5t-13.5 6.5l6 48l55 2q37 2 54.5 19t23.5 57l77 546h73l-78 -550
q-9 -70 -42.5 -101.5z" />
    <glyph glyph-name="uni01CA" unicode="&#x1ca;" horiz-adv-x="1119" 
d="M697 723l-102 -723h-65l-320 597l-84 -597h-73l102 723h67l318 -592l84 592h73zM947.5 32q-36.5 -42 -116.5 -42q-35 0 -66.5 8.5t-45.5 16.5l18 72l20 -10q14 -7 31 -11.5t37 -4.5q48 0 70 27t31 93l77 542h73l-80 -564q-12 -85 -48.5 -127z" />
    <glyph glyph-name="uni01CB" unicode="&#x1cb;" horiz-adv-x="1008" 
d="M697 723l-102 -723h-65l-320 597l-84 -597h-73l102 723h67l318 -592l84 592h73zM959 632h-81l15 111h81zM818.5 -134.5q-33.5 -31.5 -106.5 -31.5q-35 0 -48.5 4.5t-13.5 6.5l6 48l55 2q37 2 54.5 19t23.5 57l77 546h73l-78 -550q-9 -70 -42.5 -101.5z" />
    <glyph glyph-name="uni01CC" unicode="&#x1cc;" horiz-adv-x="851" 
d="M110 517h70l-11 -74q27 37 73 59.5t105 22.5q79 0 123 -48.5t32 -138.5l-48 -338h-73l47 332q9 63 -20 97t-86 34q-63 0 -109 -28.5t-54 -82.5l-49 -352h-73zM802 632h-81l15 111h81zM661.5 -134.5q-33.5 -31.5 -106.5 -31.5q-35 0 -48.5 4.5t-13.5 6.5l6 48l55 2
q37 2 54.5 19t23.5 57l77 546h73l-78 -550q-9 -70 -42.5 -101.5z" />
    <glyph glyph-name="uni01EA" unicode="&#x1ea;" horiz-adv-x="721" 
d="M102.5 86q-67.5 96 -43.5 272q17 119 66 203.5t124 128t170 43.5q94 0 156.5 -43.5t87 -127.5t8.5 -202q-25 -177 -119.5 -273.5t-237.5 -96.5q-144 0 -211.5 96zM501.5 131q67.5 75 88.5 228q22 155 -24.5 231.5t-155.5 76.5t-178.5 -77t-91.5 -231q-21 -152 27 -227.5
t158 -75.5q109 0 176.5 75zM258.5 -34.5q26.5 23.5 86.5 41.5l54 -7q-55 -22 -80 -41.5t-29 -44.5q-5 -38 45 -38q19 0 36 4t28 9q4 2 6 2q4 0 3 -7l-4 -26q-1 -7 -8 -10q-12 -6 -35.5 -11t-48.5 -5q-47 0 -68 21t-16 57q4 32 30.5 55.5z" />
    <glyph glyph-name="uni01EB" unicode="&#x1eb;" horiz-adv-x="567" 
d="M76.5 62.5q-51.5 72.5 -34.5 192.5q11 80 47.5 141.5t94 96t129.5 34.5q71 0 118 -34.5t66 -95.5t8 -140t-47 -139.5t-92.5 -94t-128.5 -33.5q-109 0 -160.5 72.5zM371 106.5q47 56.5 60 151.5t-18 152t-108 57q-78 0 -127 -57.5t-62 -151.5q-13 -93 19.5 -150.5
t110.5 -57.5t125 56.5zM171.5 -33.5q26.5 23.5 86.5 41.5l54 -7q-55 -22 -80 -41.5t-29 -44.5q-5 -38 45 -38q19 0 36 4t28 9q4 2 6 2q4 0 3 -7l-4 -26q-1 -7 -8 -10q-12 -6 -35.5 -11t-48.5 -5q-47 0 -68 21t-16 57q4 32 30.5 55.5z" />
    <glyph glyph-name="uni01F1" unicode="&#x1f1;" horiz-adv-x="1292" 
d="M304 722q197 -2 274.5 -90t52.5 -266q-26 -185 -134 -275.5t-305 -90.5h-139l102 723zM138 66h62q155 0 243 69.5t110 228.5q23 161 -44.5 227.5t-220.5 66.5h-67zM693 44l492 614h-392l10 65h493l-6 -42l-496 -615h408l-9 -66h-506z" />
    <glyph glyph-name="uni01F2" unicode="&#x1f2;" horiz-adv-x="1161" 
d="M304 722q197 -2 274.5 -90t52.5 -266q-26 -185 -134 -275.5t-305 -90.5h-139l102 723zM138 66h62q155 0 243 69.5t110 228.5q23 161 -44.5 227.5t-220.5 66.5h-67zM684 50l365 414h-286l8 53h372l-8 -51l-364 -413h312l-7 -53h-399z" />
    <glyph glyph-name="uni01F3" unicode="&#x1f3;" horiz-adv-x="1060" 
d="M71.5 58q-47.5 68 -30.5 194q18 125 86 200t171 75q44 0 79 -16t65 -49l39 281h74l-104 -743h-59l7 75q-79 -85 -181 -85q-99 0 -146.5 68zM315.5 68.5q35.5 19.5 59 50.5t28.5 63l28 204q-43 81 -126 81q-75 0 -125.5 -54.5t-64.5 -157.5t21 -154.5t104 -51.5
q40 0 75.5 19.5zM583 50l365 414h-286l8 53h372l-8 -51l-364 -413h312l-7 -53h-399z" />
    <glyph glyph-name="uni01F4" unicode="&#x1f4;" horiz-adv-x="720" 
d="M153.5 34.5q-61.5 44.5 -86 127.5t-8.5 197q16 117 65.5 201t124 128.5t166.5 44.5q67 0 121.5 -29t85 -77.5t27.5 -103.5l-81 -7q-2 64 -47 107t-116 43q-105 0 -175.5 -78.5t-91.5 -222.5q-21 -152 28 -230t155 -78q62 0 110.5 29t77 72t36.5 86l12 72h-186l8 56
l261 -1l-52 -371h-59l16 116q-40 -56 -99 -91t-138 -35q-93 0 -154.5 44.5zM563 877l-257 -75l-8 41l254 95z" />
    <glyph glyph-name="uni01F5" unicode="&#x1f5;" horiz-adv-x="595" 
d="M37.5 -134q-59.5 37 -49.5 102q6 41 34 66t51 37t28 15q-3 2 -16 10t-20.5 21t-4.5 30q3 24 28 43t68 29q-45 26 -62.5 60t-10.5 82q11 77 76 120.5t164 43.5q48 0 81 -11.5t60 -34.5l133 52l-11 -76l-94 -18q5 -15 8 -37.5t1 -38.5q-10 -70 -70 -115.5t-162 -45.5l-23 1
q-58 -1 -84.5 -12.5t-28.5 -27.5q-2 -15 18.5 -21t78.5 -10l113 -7q81 -5 116 -41t27 -96q-10 -74 -80.5 -115.5t-188.5 -41.5q-120 0 -179.5 37zM384 280q39 28 47 81q8 54 -23.5 84t-97.5 30q-65 0 -106 -30.5t-48 -83.5q-7 -52 24.5 -80.5t97.5 -28.5q67 0 106 28z
M362 -96q43 24 50 73q5 37 -15.5 57t-72.5 23l-154 10q-18 2 -42.5 -10t-43.5 -34t-22 -47q-7 -47 38.5 -71.5t137.5 -24.5q81 0 124 24zM471 671l-257 -75l-8 41l254 95z" />
    <glyph glyph-name="Aringacute" unicode="&#x1fa;" horiz-adv-x="661" 
d="M579 1h-87l-42 212h-287l-103 -212h-73l339 697q-19 14 -27.5 36t-4.5 49q5 36 33 62.5t64 31.5l24 63h63l-38 -68q29 -10 43 -34.5t10 -56.5q-4 -25 -18 -46t-35 -35zM358.5 819q-18.5 -16 -21.5 -39q-3 -22 11 -39t36 -17q23 0 41.5 17t21.5 39q3 24 -11 39.5t-37 15.5
q-22 0 -40.5 -16zM440 279l-72 366l-177 -366h249z" />
    <glyph glyph-name="aringacute" unicode="&#x1fb;" horiz-adv-x="556" 
d="M387 0l7 50q-42 -32 -80 -46t-81 -14q-68 0 -115 33t-67 95.5t-8 147.5t49 143.5t90.5 88t115.5 29.5q43 0 73.5 -13.5t44 -27t35.5 -38.5l10 69h72l-74 -517h-72zM406 137l28 198q5 33 -9 64.5t-44.5 51t-71.5 19.5q-69 0 -123 -52.5t-68 -153.5q-9 -67 6 -116t49 -75.5
t83 -26.5q75 0 150 91zM455 671l-257 -75l-8 41l254 95zM388.5 608.5q-33.5 -28.5 -76.5 -28.5q-42 0 -66.5 29.5t-18.5 72.5q6 40 39 69t74 29q43 0 68.5 -29t19.5 -71q-6 -43 -39.5 -71.5zM370 719.5q-14 15.5 -37 15.5q-22 0 -40.5 -16t-22.5 -39q-3 -22 11 -39t36 -17
q23 0 41.5 17t21.5 39q4 24 -10 39.5z" />
    <glyph glyph-name="AEacute" unicode="&#x1fc;" horiz-adv-x="995" 
d="M882 0h-441l30 212h-252l-149 -212h-75l506 723h471l-11 -65h-345l-36 -261h264l-9 -64h-264l-38 -268h358zM535 667l-277 -388h222zM881 877l-257 -75l-8 41l254 95z" />
    <glyph glyph-name="aeacute" unicode="&#x1fd;" horiz-adv-x="927" 
d="M471 148.5q17 -45.5 54 -73.5t84 -28q60 0 99 24.5t77 66.5l46 -28q-41 -57 -102 -88.5t-136 -31.5q-73 0 -115 30.5t-70 76.5q-1 2 -2.5 2t-3.5 -2q-48 -48 -100.5 -77.5t-132.5 -29.5q-77 0 -115 39t-29 105q10 74 77.5 118t190.5 53l109 8l6 41q8 56 -21.5 87
t-92.5 31q-87 0 -160 -89l-57 23q40 59 99 90t133 31q138 0 160 -100q36 49 87.5 74.5t113.5 25.5q69 0 117.5 -33.5t68.5 -97.5t7 -153l-402 -1q-7 -48 10 -93.5zM574.5 450q-40.5 -22 -68 -62.5t-35.5 -94.5l325 -1q7 48 -7.5 89.5t-47.5 66t-80 24.5q-46 0 -86.5 -22z
M303 257q-188 -15 -202 -118q-6 -43 18 -68.5t74 -25.5q46 0 87.5 17t69 45.5t32.5 61.5l13 94zM632 671l-257 -75l-8 41l254 95z" />
    <glyph glyph-name="Oslashacute" unicode="&#x1fe;" horiz-adv-x="712" 
d="M739 686l-93 -91q40 -94 20 -235q-16 -117 -64.5 -200.5t-123.5 -126.5t-170 -43q-137 0 -202 85l-79 -76q-7 -7 -13 -7q-4 0 -11 6l-18 21q-6 6 -6 10t4 8l91 89q-40 90 -21 232q17 119 66 203.5t124 128t170 43.5q135 0 202 -87l82 79q10 10 16 3l27 -28q6 -7 -1 -14z
M148 193l406 398q-42 76 -150 76q-109 0 -174.5 -76t-87.5 -232q-14 -100 6 -166zM571 528l-406 -397q43 -75 154 -75q108 0 171.5 74t84.5 229q15 104 -4 169zM563 877l-257 -75l-8 41l254 95z" />
    <glyph glyph-name="oslashacute" unicode="&#x1ff;" horiz-adv-x="572" 
d="M491 413q27 -64 14 -156q-11 -79 -47 -139.5t-92.5 -94t-128.5 -33.5q-53 0 -93 18t-66 52l-76 -65l-28 35l82 70q-27 63 -14 155q11 80 47.5 141.5t94 96t129.5 34.5q52 0 92 -19t65 -54l77 66l28 -35zM119 153l296 254q-33 60 -110 60q-78 0 -127 -57.5t-62 -151.5
q-8 -62 3 -105zM431 361l-296 -253q34 -58 111 -58q78 0 125 56.5t60 151.5q9 58 0 103zM463 671l-257 -75l-8 41l254 95z" />
    <glyph glyph-name="uni0200" unicode="&#x200;" horiz-adv-x="693" 
d="M360 723h86l160 -723h-75l-47 209h-308l-106 -209h-75zM473 279l-81 371l-186 -371h267zM383 802l-30 -33l-130 121l48 50zM537 802l-31 -33l-129 121l48 50z" />
    <glyph glyph-name="uni0201" unicode="&#x201;" horiz-adv-x="556" 
d="M387 0l7 50q-42 -32 -80 -46t-81 -14q-68 0 -115 33t-67 95.5t-8 147.5t49 143.5t90.5 88t115.5 29.5q43 0 73.5 -13.5t44 -27t35.5 -38.5l10 69h72l-74 -517h-72zM406 137l28 198q5 33 -9 64.5t-44.5 51t-71.5 19.5q-69 0 -123 -52.5t-68 -153.5q-9 -67 6 -116t49 -75.5
t83 -26.5q75 0 150 91zM281 596l-30 -33l-130 121l48 50zM435 596l-31 -33l-129 121l48 50z" />
    <glyph glyph-name="uni0202" unicode="&#x202;" horiz-adv-x="693" 
d="M360 723h86l160 -723h-75l-47 209h-308l-106 -209h-75zM473 279l-81 371l-186 -371h267zM509 869q-9 21 -28 36t-47 15q-32 0 -52.5 -15t-36.5 -36h-59q17 43 57.5 72t97.5 29q56 0 90 -30.5t40 -70.5h-62z" />
    <glyph glyph-name="uni0203" unicode="&#x203;" horiz-adv-x="556" 
d="M387 0l7 50q-42 -32 -80 -46t-81 -14q-68 0 -115 33t-67 95.5t-8 147.5t49 143.5t90.5 88t115.5 29.5q43 0 73.5 -13.5t44 -27t35.5 -38.5l10 69h72l-74 -517h-72zM406 137l28 198q5 33 -9 64.5t-44.5 51t-71.5 19.5q-69 0 -123 -52.5t-68 -153.5q-9 -67 6 -116t49 -75.5
t83 -26.5q75 0 150 91zM407 663q-9 21 -28 36t-47 15q-32 0 -52.5 -15t-36.5 -36h-59q17 43 57.5 72t97.5 29q56 0 90 -30.5t40 -70.5h-62z" />
    <glyph glyph-name="uni0204" unicode="&#x204;" horiz-adv-x="617" 
d="M155 723h441l-11 -66h-367l-36 -259h335l-9 -66h-335l-37 -264l378 -1l-9 -67h-452zM363 802l-30 -33l-130 121l48 50zM517 802l-31 -33l-129 121l48 50z" />
    <glyph glyph-name="uni0205" unicode="&#x205;" horiz-adv-x="555" 
d="M138 104q35 -54 115 -54q103 0 148 84l65 -13q-27 -61 -86.5 -96t-133.5 -35q-71 0 -121.5 31.5t-72.5 91t-10 141.5q18 126 89 199.5t180 73.5q104 0 152.5 -67.5t31.5 -186.5l-4 -32h-376q-12 -83 23 -137zM427 295q11 77 -20 125t-105 48q-51 0 -89.5 -25t-61 -64.5
t-29.5 -83.5h305zM287 596l-30 -33l-130 121l48 50zM441 596l-31 -33l-129 121l48 50z" />
    <glyph glyph-name="uni0206" unicode="&#x206;" horiz-adv-x="617" 
d="M155 723h441l-11 -66h-367l-36 -259h335l-9 -66h-335l-37 -264l378 -1l-9 -67h-452zM489 869q-9 21 -28 36t-47 15q-32 0 -52.5 -15t-36.5 -36h-59q17 43 57.5 72t97.5 29q56 0 90 -30.5t40 -70.5h-62z" />
    <glyph glyph-name="uni0207" unicode="&#x207;" horiz-adv-x="555" 
d="M138 104q35 -54 115 -54q103 0 148 84l65 -13q-27 -61 -86.5 -96t-133.5 -35q-71 0 -121.5 31.5t-72.5 91t-10 141.5q18 126 89 199.5t180 73.5q104 0 152.5 -67.5t31.5 -186.5l-4 -32h-376q-12 -83 23 -137zM427 295q11 77 -20 125t-105 48q-51 0 -89.5 -25t-61 -64.5
t-29.5 -83.5h305zM413 663q-9 21 -28 36t-47 15q-32 0 -52.5 -15t-36.5 -36h-59q17 43 57.5 72t97.5 29q56 0 90 -30.5t40 -70.5h-62z" />
    <glyph glyph-name="uni0208" unicode="&#x208;" horiz-adv-x="270" 
d="M228 723l-102 -723h-73l102 723h73zM172 802l-30 -33l-130 121l48 50zM326 802l-31 -33l-129 121l48 50z" />
    <glyph glyph-name="uni0209" unicode="&#x209;" horiz-adv-x="238" 
d="M110 0h-73l73 517h73zM124 596l-30 -33l-130 121l48 50zM278 596l-31 -33l-129 121l48 50z" />
    <glyph glyph-name="uni020A" unicode="&#x20a;" horiz-adv-x="270" 
d="M228 723l-102 -723h-73l102 723h73zM298 869q-9 21 -28 36t-47 15q-32 0 -52.5 -15t-36.5 -36h-59q17 43 57.5 72t97.5 29q56 0 90 -30.5t40 -70.5h-62z" />
    <glyph glyph-name="uni020B" unicode="&#x20b;" horiz-adv-x="238" 
d="M110 0h-73l73 517h73zM250 663q-9 21 -28 36t-47 15q-32 0 -52.5 -15t-36.5 -36h-59q17 43 57.5 72t97.5 29q56 0 90 -30.5t40 -70.5h-62z" />
    <glyph glyph-name="uni020C" unicode="&#x20c;" horiz-adv-x="721" 
d="M102.5 86q-67.5 96 -43.5 272q17 119 66 203.5t124 128t170 43.5q94 0 156.5 -43.5t87 -127.5t8.5 -202q-25 -177 -119.5 -273.5t-237.5 -96.5q-144 0 -211.5 96zM501.5 131q67.5 75 88.5 228q22 155 -24.5 231.5t-155.5 76.5t-178.5 -77t-91.5 -231q-21 -152 27 -227.5
t158 -75.5q109 0 176.5 75zM396 802l-30 -33l-130 121l48 50zM550 802l-31 -33l-129 121l48 50z" />
    <glyph glyph-name="uni020D" unicode="&#x20d;" horiz-adv-x="567" 
d="M76.5 62.5q-51.5 72.5 -34.5 192.5q11 80 47.5 141.5t94 96t129.5 34.5q71 0 118 -34.5t66 -95.5t8 -140t-47 -139.5t-92.5 -94t-128.5 -33.5q-109 0 -160.5 72.5zM371 106.5q47 56.5 60 151.5t-18 152t-108 57q-78 0 -127 -57.5t-62 -151.5q-13 -93 19.5 -150.5
t110.5 -57.5t125 56.5zM289 596l-30 -33l-130 121l48 50zM443 596l-31 -33l-129 121l48 50z" />
    <glyph glyph-name="uni020E" unicode="&#x20e;" horiz-adv-x="721" 
d="M102.5 86q-67.5 96 -43.5 272q17 119 66 203.5t124 128t170 43.5q94 0 156.5 -43.5t87 -127.5t8.5 -202q-25 -177 -119.5 -273.5t-237.5 -96.5q-144 0 -211.5 96zM501.5 131q67.5 75 88.5 228q22 155 -24.5 231.5t-155.5 76.5t-178.5 -77t-91.5 -231q-21 -152 27 -227.5
t158 -75.5q109 0 176.5 75zM522 869q-9 21 -28 36t-47 15q-32 0 -52.5 -15t-36.5 -36h-59q17 43 57.5 72t97.5 29q56 0 90 -30.5t40 -70.5h-62z" />
    <glyph glyph-name="uni020F" unicode="&#x20f;" horiz-adv-x="567" 
d="M76.5 62.5q-51.5 72.5 -34.5 192.5q11 80 47.5 141.5t94 96t129.5 34.5q71 0 118 -34.5t66 -95.5t8 -140t-47 -139.5t-92.5 -94t-128.5 -33.5q-109 0 -160.5 72.5zM371 106.5q47 56.5 60 151.5t-18 152t-108 57q-78 0 -127 -57.5t-62 -151.5q-13 -93 19.5 -150.5
t110.5 -57.5t125 56.5zM415 663q-9 21 -28 36t-47 15q-32 0 -52.5 -15t-36.5 -36h-59q17 43 57.5 72t97.5 29q56 0 90 -30.5t40 -70.5h-62z" />
    <glyph glyph-name="uni0210" unicode="&#x210;" horiz-adv-x="671" 
d="M475 0l-92 323h-212l-45 -323h-73l102 723h271q112 0 164 -49.5t39 -141.5q-11 -81 -59.5 -127.5t-113.5 -67.5l98 -337h-79zM552 526q19 134 -141 134h-192l-39 -273h166q186 0 206 139zM357 802l-30 -33l-130 121l48 50zM511 802l-31 -33l-129 121l48 50z" />
    <glyph glyph-name="uni0211" unicode="&#x211;" horiz-adv-x="377" 
d="M110 517h69l-15 -104q34 49 93.5 81.5t114.5 32.5l-10 -71q-48 2 -94 -18t-77 -52t-36 -65l-45 -321h-73zM212 596l-30 -33l-130 121l48 50zM366 596l-31 -33l-129 121l48 50z" />
    <glyph glyph-name="uni0212" unicode="&#x212;" horiz-adv-x="671" 
d="M475 0l-92 323h-212l-45 -323h-73l102 723h271q112 0 164 -49.5t39 -141.5q-11 -81 -59.5 -127.5t-113.5 -67.5l98 -337h-79zM552 526q19 134 -141 134h-192l-39 -273h166q186 0 206 139zM483 869q-9 21 -28 36t-47 15q-32 0 -52.5 -15t-36.5 -36h-59q17 43 57.5 72
t97.5 29q56 0 90 -30.5t40 -70.5h-62z" />
    <glyph glyph-name="uni0213" unicode="&#x213;" horiz-adv-x="377" 
d="M110 517h69l-15 -104q34 49 93.5 81.5t114.5 32.5l-10 -71q-48 2 -94 -18t-77 -52t-36 -65l-45 -321h-73zM338 663q-9 21 -28 36t-47 15q-32 0 -52.5 -15t-36.5 -36h-59q17 43 57.5 72t97.5 29q56 0 90 -30.5t40 -70.5h-62z" />
    <glyph glyph-name="uni0214" unicode="&#x214;" horiz-adv-x="708" 
d="M307 -10q-133 0 -185 65t-34 197l67 471h76l-69 -486q-13 -90 26 -136t128 -46t142 45.5t65 136.5l69 486h73l-68 -483q-35 -250 -290 -250zM385 802l-30 -33l-130 121l48 50zM539 802l-31 -33l-129 121l48 50z" />
    <glyph glyph-name="uni0215" unicode="&#x215;" 
d="M142.5 9q-42.5 18 -66.5 58t-15 102l49 350h73l-48 -344q-9 -65 27 -95t87 -30q57 0 102.5 34.5t55.5 97.5l47 337h73l-74 -518h-59l9 81q-21 -36 -71 -63.5t-100 -27.5q-47 0 -89.5 18zM286 596l-30 -33l-130 121l48 50zM440 596l-31 -33l-129 121l48 50z" />
    <glyph glyph-name="uni0216" unicode="&#x216;" horiz-adv-x="708" 
d="M307 -10q-133 0 -185 65t-34 197l67 471h76l-69 -486q-13 -90 26 -136t128 -46t142 45.5t65 136.5l69 486h73l-68 -483q-35 -250 -290 -250zM511 869q-9 21 -28 36t-47 15q-32 0 -52.5 -15t-36.5 -36h-59q17 43 57.5 72t97.5 29q56 0 90 -30.5t40 -70.5h-62z" />
    <glyph glyph-name="uni0217" unicode="&#x217;" 
d="M142.5 9q-42.5 18 -66.5 58t-15 102l49 350h73l-48 -344q-9 -65 27 -95t87 -30q57 0 102.5 34.5t55.5 97.5l47 337h73l-74 -518h-59l9 81q-21 -36 -71 -63.5t-100 -27.5q-47 0 -89.5 18zM412 663q-9 21 -28 36t-47 15q-32 0 -52.5 -15t-36.5 -36h-59q17 43 57.5 72
t97.5 29q56 0 90 -30.5t40 -70.5h-62z" />
    <glyph glyph-name="Scommaaccent" unicode="&#x218;" horiz-adv-x="661" 
d="M162.5 12q-57.5 22 -92 65t-36.5 102l78 7q5 -64 57 -98.5t128 -34.5q85 0 144 35.5t68 93.5q7 51 -20.5 83.5t-90.5 47.5l-146 35q-79 18 -117.5 63t-29.5 114q8 60 47 107t101 73.5t137 26.5q80 0 133 -27.5t77.5 -73t23.5 -99.5l-76 -6q-2 73 -48 107t-120 34
q-44 0 -87 -15.5t-72.5 -46t-35.5 -74.5q-6 -43 20.5 -72.5t98.5 -47.5l140 -35q165 -39 143 -193q-8 -54 -46 -98t-103 -69.5t-149 -25.5q-69 0 -126.5 22zM211.5 -228.5q-1.5 3.5 1.5 6.5l33 51q3 4 3 6q1 7 -6 7h-8q-11 0 -10 11l9 64q1 10 11 10h54q8 0 6 -9l-10 -76
l-2 -8l-43 -58q-4 -5 -8 -6.5t-12 -1.5h-13q-4 0 -5.5 3.5z" />
    <glyph glyph-name="scommaaccent" unicode="&#x219;" horiz-adv-x="504" 
d="M72.5 28.5q-49.5 38.5 -52.5 103.5l65 12q14 -97 127 -97q57 0 100.5 24.5t49.5 65.5q9 65 -69 85l-106 24q-66 15 -93.5 47.5t-20.5 82.5q10 71 66.5 111t144.5 40q90 0 134 -41t38 -105l-65 -7q-6 96 -117 96q-50 0 -87.5 -20.5t-44.5 -69.5q-4 -26 13 -44t66 -31
l106 -28q63 -16 86.5 -53t17.5 -84q-6 -44 -37 -78t-80.5 -53t-110.5 -19q-81 0 -130.5 38.5zM135.5 -228.5q-1.5 3.5 1.5 6.5l33 51q3 4 3 6q1 7 -6 7h-8q-11 0 -10 11l9 64q1 10 11 10h54q8 0 6 -9l-10 -76l-2 -8l-43 -58q-4 -5 -8 -6.5t-12 -1.5h-13q-4 0 -5.5 3.5z" />
    <glyph glyph-name="uni021A" unicode="&#x21a;" horiz-adv-x="564" 
d="M70 723h535l-10 -69h-223l-92 -654h-73l92 654h-239zM178.5 -228.5q-1.5 3.5 1.5 6.5l33 51q3 4 3 6q1 7 -6 7h-8q-11 0 -10 11l9 64q1 10 11 10h54q8 0 6 -9l-10 -76l-2 -8l-43 -58q-4 -5 -8 -6.5t-12 -1.5h-13q-4 0 -5.5 3.5z" />
    <glyph glyph-name="uni021B" unicode="&#x21b;" horiz-adv-x="381" 
d="M224 462l-47 -334q-6 -44 4.5 -59.5t38.5 -15.5h69l-6 -47q-22 -8 -73 -8q-70 0 -93 29.5t-14 94.5l48 340h-84l8 55h86l30 172h65l-24 -172h118l-8 -55h-118zM143.5 -228.5q-1.5 3.5 1.5 6.5l33 51q3 4 3 6q1 7 -6 7h-8q-11 0 -10 11l9 64q1 10 11 10h54q8 0 6 -9
l-10 -76l-2 -8l-43 -58q-4 -5 -8 -6.5t-12 -1.5h-13q-4 0 -5.5 3.5z" />
    <glyph glyph-name="uni0237" unicode="&#x237;" horiz-adv-x="235" 
d="M59 -134.5q-34 -31.5 -106 -31.5q-39 0 -51.5 2.5t-11.5 8.5l7 48l55 2q36 2 54 19.5t24 56.5l77 546h73l-78 -550q-9 -70 -43 -101.5z" />
    <glyph glyph-name="uni0259" unicode="&#x259;" horiz-adv-x="555" 
d="M398 413q-35 54 -115 54q-103 0 -148 -84l-65 13q27 61 86.5 96t133.5 35q71 0 121.5 -31.5t72.5 -91t10 -141.5q-18 -126 -89 -199.5t-180 -73.5q-104 0 -152.5 67.5t-31.5 186.5l4 32h376q12 83 -23 137zM109 222q-11 -77 20 -125t105 -48q51 0 89.5 25t61 64.5
t29.5 83.5h-305z" />
    <glyph glyph-name="uni02BC" unicode="&#x2bc;" horiz-adv-x="145" 
d="M52 461q-1 3 1 6l46 114q5 12 -2 13h-7q-10 0 -8 9l15 112q1 8 10 8h54q6 0 5 -7l-18 -122l-1 -5l-52 -122q-2 -9 -17 -9h-21q-4 0 -5 3z" />
    <glyph glyph-name="circumflex" unicode="&#x2c6;" horiz-adv-x="308" 
d="M202 682l-85 -64h-73l138 107h54l106 -107h-77z" />
    <glyph glyph-name="caron" unicode="&#x2c7;" horiz-adv-x="308" 
d="M357 723l-137 -108h-54l-107 108h73l66 -65l82 65h77z" />
    <glyph glyph-name="breve" unicode="&#x2d8;" horiz-adv-x="308" 
d="M291.5 652.5q-42.5 -30.5 -98.5 -30.5q-57 0 -89 29t-37 72h59q10 -21 26 -36t48 -15q28 0 51.5 15t38.5 36h62q-18 -40 -60.5 -70.5z" />
    <glyph glyph-name="dotaccent" unicode="&#x2d9;" horiz-adv-x="105" 
d="M132 613h-80l16 110h80z" />
    <glyph glyph-name="ring" unicode="&#x2da;" horiz-adv-x="226" 
d="M223.5 606.5q-33.5 -28.5 -76.5 -28.5q-42 0 -66.5 29.5t-18.5 72.5q6 40 39 69t74 29q43 0 68.5 -29t19.5 -71q-6 -43 -39.5 -71.5zM205 717.5q-14 15.5 -37 15.5q-22 0 -40.5 -16t-22.5 -39q-3 -22 11 -39t36 -17q23 0 41.5 17t21.5 39q4 24 -10 39.5z" />
    <glyph glyph-name="ogonek" unicode="&#x2db;" horiz-adv-x="209" 
d="M-15.5 -31.5q26.5 23.5 86.5 41.5l54 -7q-55 -22 -80 -41.5t-29 -44.5q-5 -38 45 -38q19 0 36 4t28 9q4 2 6 2q4 0 3 -7l-4 -26q-1 -7 -8 -10q-12 -6 -35.5 -11t-48.5 -5q-47 0 -68 21t-16 57q4 32 30.5 55.5z" />
    <glyph glyph-name="tilde" unicode="&#x2dc;" horiz-adv-x="318" 
d="M264 642q-19 0 -33 3.5t-32 10.5q-32 12 -52 12q-16 0 -27.5 -4t-21 -9.5t-13.5 -7.5q-4 -3 -7 -3t-4 8l-6 24q-1 4 -1 5q0 2 6 7q21 14 37.5 21.5t38.5 7.5q16 0 30 -3.5t34 -10.5q35 -13 58 -13q16 0 28 4.5t30 13.5q5 3 8 3q4 0 6 -7l5 -28q1 -1 0 -4q-1 -4 -9 -8
q-34 -22 -75 -22z" />
    <glyph glyph-name="hungarumlaut" unicode="&#x2dd;" horiz-adv-x="374" 
d="M239 694h1q3 -4 2 -8t-7 -10l-140 -106q-9 -4 -10 -4q-3 0 -6 5l-12 17q-4 3 -3 7q0 4 3 6l137 127q8 5 12 -1zM395 694q3 -6 2 -8q-1 -5 -9 -10l-140 -106q-2 -1 -4.5 -2.5t-4.5 -1.5q-4 0 -7 5l-10 17q-3 4 -3 7.5t3 5.5l137 127q8 5 12 -1z" />
    <glyph glyph-name="gravecomb" unicode="&#x300;" horiz-adv-x="0" 
d="M33 637l-19 -41l-238 75l30 61z" />
    <glyph glyph-name="acutecomb" unicode="&#x301;" horiz-adv-x="0" 
d="M38 671l-257 -75l-8 41l254 95z" />
    <glyph glyph-name="uni0302" unicode="&#x302;" horiz-adv-x="0" 
d="M-106 682l-85 -64h-73l138 107h54l106 -107h-77z" />
    <glyph glyph-name="tildecomb" unicode="&#x303;" horiz-adv-x="0" 
d="M-54 642q-19 0 -33 3.5t-32 10.5q-32 12 -52 12q-16 0 -27.5 -4t-21 -9.5t-13.5 -7.5q-4 -3 -7 -3t-4 8l-6 24q-1 4 -1 5q0 2 6 7q21 14 37.5 21.5t38.5 7.5q16 0 30 -3.5t34 -10.5q35 -13 58 -13q16 0 28 4.5t30 13.5q5 3 8 3q4 0 6 -7l5 -28q1 -1 0 -4q-1 -4 -9 -8
q-34 -22 -75 -22z" />
    <glyph glyph-name="uni0304" unicode="&#x304;" horiz-adv-x="0" 
d="M32 653h-278l8 55h278z" />
    <glyph glyph-name="uni0306" unicode="&#x306;" horiz-adv-x="0" 
d="M-16.5 652.5q-42.5 -30.5 -98.5 -30.5q-57 0 -89 29t-37 72h59q10 -21 26 -36t48 -15q28 0 51.5 15t38.5 36h62q-18 -40 -60.5 -70.5z" />
    <glyph glyph-name="uni0307" unicode="&#x307;" horiz-adv-x="0" 
d="M27 613h-80l16 110h80z" />
    <glyph glyph-name="uni0308" unicode="&#x308;" horiz-adv-x="0" 
d="M-109 618h-73l15 105h73zM28 618h-75l15 105h75z" />
    <glyph glyph-name="uni030A" unicode="&#x30a;" horiz-adv-x="0" 
d="M-2.5 606.5q-33.5 -28.5 -76.5 -28.5q-42 0 -66.5 29.5t-18.5 72.5q6 40 39 69t74 29q43 0 68.5 -29t19.5 -71q-6 -43 -39.5 -71.5zM-21 717.5q-14 15.5 -37 15.5q-22 0 -40.5 -16t-22.5 -39q-3 -22 11 -39t36 -17q23 0 41.5 17t21.5 39q4 24 -10 39.5z" />
    <glyph glyph-name="uni030B" unicode="&#x30b;" horiz-adv-x="0" 
d="M-135 694h1q3 -4 2 -8t-7 -10l-140 -106q-9 -4 -10 -4q-3 0 -6 5l-12 17q-4 3 -3 7q0 4 3 6l137 127q8 5 12 -1zM21 694q3 -6 2 -8q-1 -5 -9 -10l-140 -106q-2 -1 -4.5 -2.5t-4.5 -1.5q-4 0 -7 5l-10 17q-3 4 -3 7.5t3 5.5l137 127q8 5 12 -1z" />
    <glyph glyph-name="uni030C" unicode="&#x30c;" horiz-adv-x="0" 
d="M49 723l-137 -108h-54l-107 108h73l66 -65l82 65h77z" />
    <glyph glyph-name="uni030F" unicode="&#x30f;" horiz-adv-x="0" 
d="M-142 596l-30 -33l-130 121l48 50zM12 596l-31 -33l-129 121l48 50z" />
    <glyph glyph-name="uni0311" unicode="&#x311;" horiz-adv-x="0" 
d="M-12 663q-9 21 -28 36t-47 15q-32 0 -52.5 -15t-36.5 -36h-59q17 43 57.5 72t97.5 29q56 0 90 -30.5t40 -70.5h-62z" />
    <glyph glyph-name="dotbelowcomb" unicode="&#x323;" horiz-adv-x="0" 
d="M-81 -147q-1 -8 -4.5 -11t-11.5 -3h-45q-7 0 -8.5 2.5t-0.5 9.5l12 82q1 7 2.5 9.5t6.5 2.5h53q5 0 7 -2.5t1 -9.5z" />
    <glyph glyph-name="uni0326" unicode="&#x326;" horiz-adv-x="0" 
d="M-165.5 -228.5q-1.5 3.5 1.5 6.5l33 51q3 4 3 6q1 7 -6 7h-8q-11 0 -10 11l9 64q1 10 11 10h54q8 0 6 -9l-10 -76l-2 -8l-43 -58q-4 -5 -8 -6.5t-12 -1.5h-13q-4 0 -5.5 3.5z" />
    <glyph glyph-name="uni0327" unicode="&#x327;" horiz-adv-x="0" 
d="M-116 -183q-33 -20 -77 -20q-53 0 -84 24l19 35q25 -23 62 -23q56 0 61 38q3 23 -14.5 33.5t-57.5 11.5q-8 0 -5 6l49 83h43l-33 -61q45 -3 62 -23.5t13 -48.5q-5 -35 -38 -55z" />
    <glyph glyph-name="uni0328" unicode="&#x328;" horiz-adv-x="0" 
d="M-224.5 -31.5q26.5 23.5 86.5 41.5l54 -7q-55 -22 -80 -41.5t-29 -44.5q-5 -38 45 -38q19 0 36 4t28 9q4 2 6 2q4 0 3 -7l-4 -26q-1 -7 -8 -10q-12 -6 -35.5 -11t-48.5 -5q-47 0 -68 21t-16 57q4 32 30.5 55.5z" />
    <glyph glyph-name="uni0394" unicode="&#x394;" horiz-adv-x="640" 
d="M-2 63l335 661l85 -1l147 -658l-9 -65h-567zM486 66l-124 574l-285 -574h409z" />
    <glyph glyph-name="uni03A9" unicode="&#x3a9;" horiz-adv-x="754" 
d="M293 629.5q-57 -37.5 -92 -100.5t-45 -139q-16 -114 26.5 -187.5t108.5 -127.5q12 -10 9 -27l-7 -48h-247l9 67h160q-43 38 -72 70t-56 101.5t-14 161.5q12 88 60 164t125 122.5t174 46.5q98 0 162.5 -47t90 -123t13.5 -162q-12 -88 -56 -155t-68 -88t-98 -80
q-4 -3 -5 -6q-1 -5 7 -5h143l-9 -67h-247l9 64q87 57 154 133t84 194q11 75 -6.5 138t-63 100.5t-119.5 37.5q-73 0 -130 -37.5z" />
    <glyph glyph-name="uni03BC" unicode="&#x3bc;" horiz-adv-x="581" 
d="M397 138l54 379h73l-74 -517h-69l11 80q-64 -48 -105.5 -68t-84.5 -20q-30 0 -51.5 7.5t-37.5 24.5l-26 -185h-73l96 678h73l-53 -374q-5 -39 21.5 -66.5t70.5 -27.5q75 0 175 89z" />
    <glyph glyph-name="pi" unicode="&#x3c0;" horiz-adv-x="650" 
d="M521 462l-65 -462h-71l64 462h-232q-18 -130 -53.5 -259t-70.5 -203h-66q37 90 70 211.5t50 240.5q1 10 -7 10h-95l8 55h596l-8 -55h-120z" />
    <glyph glyph-name="uni1E0C" unicode="&#x1e0c;" horiz-adv-x="693" 
d="M304 722q197 -2 274.5 -90t52.5 -266q-26 -185 -134 -275.5t-305 -90.5h-139l102 723zM138 66h62q155 0 243 69.5t110 228.5q23 161 -44.5 227.5t-220.5 66.5h-67zM310 -147q-1 -8 -4.5 -11t-11.5 -3h-45q-7 0 -8.5 2.5t-0.5 9.5l12 82q1 7 2.5 9.5t6.5 2.5h53
q5 0 7 -2.5t1 -9.5z" />
    <glyph glyph-name="uni1E0D" unicode="&#x1e0d;" horiz-adv-x="579" 
d="M71.5 58q-47.5 68 -30.5 194q18 125 86 200t171 75q44 0 79 -16t65 -49l39 281h74l-104 -743h-59l7 75q-79 -85 -181 -85q-99 0 -146.5 68zM315.5 68.5q35.5 19.5 59 50.5t28.5 63l28 204q-43 81 -126 81q-75 0 -125.5 -54.5t-64.5 -157.5t21 -154.5t104 -51.5
q40 0 75.5 19.5zM255 -147q-1 -8 -4.5 -11t-11.5 -3h-45q-7 0 -8.5 2.5t-0.5 9.5l12 82q1 7 2.5 9.5t6.5 2.5h53q5 0 7 -2.5t1 -9.5z" />
    <glyph glyph-name="uni1E24" unicode="&#x1e24;" horiz-adv-x="703" 
d="M174 342l-48 -342h-73l102 723h73l-45 -315h359l45 315h73l-102 -723h-73l48 342h-359zM319 -147q-1 -8 -4.5 -11t-11.5 -3h-45q-7 0 -8.5 2.5t-0.5 9.5l12 82q1 7 2.5 9.5t6.5 2.5h53q5 0 7 -2.5t1 -9.5z" />
    <glyph glyph-name="uni1E25" unicode="&#x1e25;" 
d="M141 743h70l-42 -300q46 32 73 47.5t57 25t66 9.5q76 0 113.5 -41t28.5 -109l-53 -375h-73l50 358q7 51 -15.5 78t-76.5 27q-43 0 -81 -18.5t-94 -61.5l-54 -383h-73zM268 -147q-1 -8 -4.5 -11t-11.5 -3h-45q-7 0 -8.5 2.5t-0.5 9.5l12 82q1 7 2.5 9.5t6.5 2.5h53
q5 0 7 -2.5t1 -9.5z" />
    <glyph glyph-name="uni1E44" unicode="&#x1e44;" horiz-adv-x="740" 
d="M697 723l-102 -723h-65l-320 597l-84 -597h-73l102 723h67l318 -592l84 592h73zM491 819h-80l16 110h80z" />
    <glyph glyph-name="uni1E45" unicode="&#x1e45;" 
d="M110 517h70l-11 -74q27 37 73 59.5t105 22.5q79 0 123 -48.5t32 -138.5l-48 -338h-73l47 332q9 63 -20 97t-86 34q-63 0 -109 -28.5t-54 -82.5l-49 -352h-73zM381 613h-80l16 110h80z" />
    <glyph glyph-name="uni1E5A" unicode="&#x1e5a;" horiz-adv-x="671" 
d="M475 0l-92 323h-212l-45 -323h-73l102 723h271q112 0 164 -49.5t39 -141.5q-11 -81 -59.5 -127.5t-113.5 -67.5l98 -337h-79zM552 526q19 134 -141 134h-192l-39 -273h166q186 0 206 139zM299 -147q-1 -8 -4.5 -11t-11.5 -3h-45q-7 0 -8.5 2.5t-0.5 9.5l12 82
q1 7 2.5 9.5t6.5 2.5h53q5 0 7 -2.5t1 -9.5z" />
    <glyph glyph-name="uni1E5B" unicode="&#x1e5b;" horiz-adv-x="377" 
d="M110 517h69l-15 -104q34 49 93.5 81.5t114.5 32.5l-10 -71q-48 2 -94 -18t-77 -52t-36 -65l-45 -321h-73zM89 -147q-1 -8 -4.5 -11t-11.5 -3h-45q-7 0 -8.5 2.5t-0.5 9.5l12 82q1 7 2.5 9.5t6.5 2.5h53q5 0 7 -2.5t1 -9.5z" />
    <glyph glyph-name="uni1E62" unicode="&#x1e62;" horiz-adv-x="661" 
d="M162.5 12q-57.5 22 -92 65t-36.5 102l78 7q5 -64 57 -98.5t128 -34.5q85 0 144 35.5t68 93.5q7 51 -20.5 83.5t-90.5 47.5l-146 35q-79 18 -117.5 63t-29.5 114q8 60 47 107t101 73.5t137 26.5q80 0 133 -27.5t77.5 -73t23.5 -99.5l-76 -6q-2 73 -48 107t-120 34
q-44 0 -87 -15.5t-72.5 -46t-35.5 -74.5q-6 -43 20.5 -72.5t98.5 -47.5l140 -35q165 -39 143 -193q-8 -54 -46 -98t-103 -69.5t-149 -25.5q-69 0 -126.5 22zM294 -147q-1 -8 -4.5 -11t-11.5 -3h-45q-7 0 -8.5 2.5t-0.5 9.5l12 82q1 7 2.5 9.5t6.5 2.5h53q5 0 7 -2.5t1 -9.5z
" />
    <glyph glyph-name="uni1E63" unicode="&#x1e63;" horiz-adv-x="504" 
d="M72.5 28.5q-49.5 38.5 -52.5 103.5l65 12q14 -97 127 -97q57 0 100.5 24.5t49.5 65.5q9 65 -69 85l-106 24q-66 15 -93.5 47.5t-20.5 82.5q10 71 66.5 111t144.5 40q90 0 134 -41t38 -105l-65 -7q-6 96 -117 96q-50 0 -87.5 -20.5t-44.5 -69.5q-4 -26 13 -44t66 -31
l106 -28q63 -16 86.5 -53t17.5 -84q-6 -44 -37 -78t-80.5 -53t-110.5 -19q-81 0 -130.5 38.5zM218 -147q-1 -8 -4.5 -11t-11.5 -3h-45q-7 0 -8.5 2.5t-0.5 9.5l12 82q1 7 2.5 9.5t6.5 2.5h53q5 0 7 -2.5t1 -9.5z" />
    <glyph glyph-name="uni1E6C" unicode="&#x1e6c;" horiz-adv-x="564" 
d="M70 723h535l-10 -69h-223l-92 -654h-73l92 654h-239zM261 -147q-1 -8 -4.5 -11t-11.5 -3h-45q-7 0 -8.5 2.5t-0.5 9.5l12 82q1 7 2.5 9.5t6.5 2.5h53q5 0 7 -2.5t1 -9.5z" />
    <glyph glyph-name="uni1E6D" unicode="&#x1e6d;" horiz-adv-x="381" 
d="M224 462l-47 -334q-6 -44 4.5 -59.5t38.5 -15.5h69l-6 -47q-22 -8 -73 -8q-70 0 -93 29.5t-14 94.5l48 340h-84l8 55h86l30 172h65l-24 -172h118l-8 -55h-118zM226 -147q-1 -8 -4.5 -11t-11.5 -3h-45q-7 0 -8.5 2.5t-0.5 9.5l12 82q1 7 2.5 9.5t6.5 2.5h53q5 0 7 -2.5
t1 -9.5z" />
    <glyph glyph-name="Wgrave" unicode="&#x1e80;" horiz-adv-x="949" 
d="M668 0h-74l-84 592l-253 -592h-71l-105 723h76l83 -611l259 611h61l86 -611l259 611h75zM668 843l-19 -41l-238 75l30 61z" />
    <glyph glyph-name="wgrave" unicode="&#x1e81;" horiz-adv-x="770" 
d="M541 0h-73l-73 406l-180 -406h-72l-89 517h70l70 -425l189 425h58l75 -424l184 424h70zM549 637l-19 -41l-238 75l30 61z" />
    <glyph glyph-name="Wacute" unicode="&#x1e82;" horiz-adv-x="949" 
d="M668 0h-74l-84 592l-253 -592h-71l-105 723h76l83 -611l259 611h61l86 -611l259 611h75zM686 877l-257 -75l-8 41l254 95z" />
    <glyph glyph-name="wacute" unicode="&#x1e83;" horiz-adv-x="770" 
d="M541 0h-73l-73 406l-180 -406h-72l-89 517h70l70 -425l189 425h58l75 -424l184 424h70zM567 671l-257 -75l-8 41l254 95z" />
    <glyph glyph-name="Wdieresis" unicode="&#x1e84;" horiz-adv-x="949" 
d="M668 0h-74l-84 592l-253 -592h-71l-105 723h76l83 -611l259 611h61l86 -611l259 611h75zM517 824h-73l15 105h73zM654 824h-75l15 105h75z" />
    <glyph glyph-name="wdieresis" unicode="&#x1e85;" horiz-adv-x="770" 
d="M541 0h-73l-73 406l-180 -406h-72l-89 517h70l70 -425l189 425h58l75 -424l184 424h70zM398 618h-73l15 105h73zM535 618h-75l15 105h75z" />
    <glyph glyph-name="uni1E92" unicode="&#x1e92;" horiz-adv-x="612" 
d="M13 44l492 614h-392l10 65h493l-6 -42l-496 -615h408l-9 -66h-506zM285 -147q-1 -8 -4.5 -11t-11.5 -3h-45q-7 0 -8.5 2.5t-0.5 9.5l12 82q1 7 2.5 9.5t6.5 2.5h53q5 0 7 -2.5t1 -9.5z" />
    <glyph glyph-name="uni1E93" unicode="&#x1e93;" horiz-adv-x="458" 
d="M4 50l365 414h-286l8 53h372l-8 -51l-364 -413h312l-7 -53h-399zM207 -147q-1 -8 -4.5 -11t-11.5 -3h-45q-7 0 -8.5 2.5t-0.5 9.5l12 82q1 7 2.5 9.5t6.5 2.5h53q5 0 7 -2.5t1 -9.5z" />
    <glyph glyph-name="uni1EB8" unicode="&#x1eb8;" horiz-adv-x="617" 
d="M155 723h441l-11 -66h-367l-36 -259h335l-9 -66h-335l-37 -264l378 -1l-9 -67h-452zM313 -147q-1 -8 -4.5 -11t-11.5 -3h-45q-7 0 -8.5 2.5t-0.5 9.5l12 82q1 7 2.5 9.5t6.5 2.5h53q5 0 7 -2.5t1 -9.5z" />
    <glyph glyph-name="uni1EB9" unicode="&#x1eb9;" horiz-adv-x="555" 
d="M138 104q35 -54 115 -54q103 0 148 84l65 -13q-27 -61 -86.5 -96t-133.5 -35q-71 0 -121.5 31.5t-72.5 91t-10 141.5q18 126 89 199.5t180 73.5q104 0 152.5 -67.5t31.5 -186.5l-4 -32h-376q-12 -83 23 -137zM427 295q11 77 -20 125t-105 48q-51 0 -89.5 -25t-61 -64.5
t-29.5 -83.5h305zM245 -147q-1 -8 -4.5 -11t-11.5 -3h-45q-7 0 -8.5 2.5t-0.5 9.5l12 82q1 7 2.5 9.5t6.5 2.5h53q5 0 7 -2.5t1 -9.5z" />
    <glyph glyph-name="uni1EBC" unicode="&#x1ebc;" horiz-adv-x="617" 
d="M155 723h441l-11 -66h-367l-36 -259h335l-9 -66h-335l-37 -264l378 -1l-9 -67h-452zM466 848q-19 0 -33 3.5t-32 10.5q-32 12 -52 12q-16 0 -27.5 -4t-21 -9.5t-13.5 -7.5q-4 -3 -7 -3t-4 8l-6 24q-1 4 -1 5q0 2 6 7q21 14 37.5 21.5t38.5 7.5q16 0 30 -3.5t34 -10.5
q35 -13 58 -13q16 0 28 4.5t30 13.5q5 3 8 3q4 0 6 -7l5 -28q1 -1 0 -4q-1 -4 -9 -8q-34 -22 -75 -22z" />
    <glyph glyph-name="uni1EBD" unicode="&#x1ebd;" horiz-adv-x="555" 
d="M138 104q35 -54 115 -54q103 0 148 84l65 -13q-27 -61 -86.5 -96t-133.5 -35q-71 0 -121.5 31.5t-72.5 91t-10 141.5q18 126 89 199.5t180 73.5q104 0 152.5 -67.5t31.5 -186.5l-4 -32h-376q-12 -83 23 -137zM427 295q11 77 -20 125t-105 48q-51 0 -89.5 -25t-61 -64.5
t-29.5 -83.5h305zM390 642q-19 0 -33 3.5t-32 10.5q-32 12 -52 12q-16 0 -27.5 -4t-21 -9.5t-13.5 -7.5q-4 -3 -7 -3t-4 8l-6 24q-1 4 -1 5q0 2 6 7q21 14 37.5 21.5t38.5 7.5q16 0 30 -3.5t34 -10.5q35 -13 58 -13q16 0 28 4.5t30 13.5q5 3 8 3q4 0 6 -7l5 -28q1 -1 0 -4
q-1 -4 -9 -8q-34 -22 -75 -22z" />
    <glyph glyph-name="uni1ECA" unicode="&#x1eca;" horiz-adv-x="270" 
d="M228 723l-102 -723h-73l102 723h73zM107 -147q-1 -8 -4.5 -11t-11.5 -3h-45q-7 0 -8.5 2.5t-0.5 9.5l12 82q1 7 2.5 9.5t6.5 2.5h53q5 0 7 -2.5t1 -9.5z" />
    <glyph glyph-name="uni1ECB" unicode="&#x1ecb;" horiz-adv-x="268" 
d="M206 632h-80l15 111h80zM114 0h-74l73 517h74zM114 -147q-1 -8 -4.5 -11t-11.5 -3h-45q-7 0 -8.5 2.5t-0.5 9.5l12 82q1 7 2.5 9.5t6.5 2.5h53q5 0 7 -2.5t1 -9.5z" />
    <glyph glyph-name="uni1ECC" unicode="&#x1ecc;" horiz-adv-x="721" 
d="M102.5 86q-67.5 96 -43.5 272q17 119 66 203.5t124 128t170 43.5q94 0 156.5 -43.5t87 -127.5t8.5 -202q-25 -177 -119.5 -273.5t-237.5 -96.5q-144 0 -211.5 96zM501.5 131q67.5 75 88.5 228q22 155 -24.5 231.5t-155.5 76.5t-178.5 -77t-91.5 -231q-21 -152 27 -227.5
t158 -75.5q109 0 176.5 75zM331 -147q-1 -8 -4.5 -11t-11.5 -3h-45q-7 0 -8.5 2.5t-0.5 9.5l12 82q1 7 2.5 9.5t6.5 2.5h53q5 0 7 -2.5t1 -9.5z" />
    <glyph glyph-name="uni1ECD" unicode="&#x1ecd;" horiz-adv-x="567" 
d="M76.5 62.5q-51.5 72.5 -34.5 192.5q11 80 47.5 141.5t94 96t129.5 34.5q71 0 118 -34.5t66 -95.5t8 -140t-47 -139.5t-92.5 -94t-128.5 -33.5q-109 0 -160.5 72.5zM371 106.5q47 56.5 60 151.5t-18 152t-108 57q-78 0 -127 -57.5t-62 -151.5q-13 -93 19.5 -150.5
t110.5 -57.5t125 56.5zM250 -147q-1 -8 -4.5 -11t-11.5 -3h-45q-7 0 -8.5 2.5t-0.5 9.5l12 82q1 7 2.5 9.5t6.5 2.5h53q5 0 7 -2.5t1 -9.5z" />
    <glyph glyph-name="uni1EE4" unicode="&#x1ee4;" horiz-adv-x="683" 
d="M307 -10q-133 0 -185 65t-34 197l67 471h76l-69 -486q-13 -90 26 -136t128 -46t142 45.5t65 136.5l69 486h73l-68 -483q-35 -250 -290 -250zM312 -147q-1 -8 -4.5 -11t-11.5 -3h-45q-7 0 -8.5 2.5t-0.5 9.5l12 82q1 7 2.5 9.5t6.5 2.5h53q5 0 7 -2.5t1 -9.5z" />
    <glyph glyph-name="uni1EE5" unicode="&#x1ee5;" 
d="M142.5 9q-42.5 18 -66.5 58t-15 102l49 350h73l-48 -344q-9 -65 27 -95t87 -30q57 0 102.5 34.5t55.5 97.5l47 337h73l-74 -518h-59l9 81q-21 -36 -71 -63.5t-100 -27.5q-47 0 -89.5 18zM258 -147q-1 -8 -4.5 -11t-11.5 -3h-45q-7 0 -8.5 2.5t-0.5 9.5l12 82q1 7 2.5 9.5
t6.5 2.5h53q5 0 7 -2.5t1 -9.5z" />
    <glyph glyph-name="Ygrave" unicode="&#x1ef2;" horiz-adv-x="576" 
d="M323 309l-43 -309h-73l44 310l-187 413h80l153 -347l247 347h80zM480 843l-19 -41l-238 75l30 61z" />
    <glyph glyph-name="ygrave" unicode="&#x1ef3;" horiz-adv-x="516" 
d="M8 -162.5q-16 2.5 -23.5 5t-8.5 3.5l7 48l54 -1q49 -1 74 15.5t40 44.5l29 56l-130 508h75l102 -422l222 422h71l-301 -569q-34 -62 -75.5 -87.5t-94.5 -25.5q-25 0 -41 2.5zM425 637l-19 -41l-238 75l30 61z" />
    <glyph glyph-name="uni1EF8" unicode="&#x1ef8;" horiz-adv-x="576" 
d="M323 309l-43 -309h-73l44 310l-187 413h80l153 -347l247 347h80zM427 848q-19 0 -33 3.5t-32 10.5q-32 12 -52 12q-16 0 -27.5 -4t-21 -9.5t-13.5 -7.5q-4 -3 -7 -3t-4 8l-6 24q-1 4 -1 5q0 2 6 7q21 14 37.5 21.5t38.5 7.5q16 0 30 -3.5t34 -10.5q35 -13 58 -13
q16 0 28 4.5t30 13.5q5 3 8 3q4 0 6 -7l5 -28q1 -1 0 -4q-1 -4 -9 -8q-34 -22 -75 -22z" />
    <glyph glyph-name="uni1EF9" unicode="&#x1ef9;" horiz-adv-x="516" 
d="M8 -162.5q-16 2.5 -23.5 5t-8.5 3.5l7 48l54 -1q49 -1 74 15.5t40 44.5l29 56l-130 508h75l102 -422l222 422h71l-301 -569q-34 -62 -75.5 -87.5t-94.5 -25.5q-25 0 -41 2.5zM372 642q-19 0 -33 3.5t-32 10.5q-32 12 -52 12q-16 0 -27.5 -4t-21 -9.5t-13.5 -7.5
q-4 -3 -7 -3t-4 8l-6 24q-1 4 -1 5q0 2 6 7q21 14 37.5 21.5t38.5 7.5q16 0 30 -3.5t34 -10.5q35 -13 58 -13q16 0 28 4.5t30 13.5q5 3 8 3q4 0 6 -7l5 -28q1 -1 0 -4q-1 -4 -9 -8q-34 -22 -75 -22z" />
    <glyph glyph-name="endash" unicode="&#x2013;" horiz-adv-x="547" 
d="M466 222l-417 -1l8 60l418 1z" />
    <glyph glyph-name="emdash" unicode="&#x2014;" horiz-adv-x="862" 
d="M780 222l-731 -1l8 60l732 1z" />
    <glyph glyph-name="quoteleft" unicode="&#x2018;" horiz-adv-x="231" 
d="M166 635l40 -2l-14 -98h-103l12 86l98 134h39z" />
    <glyph glyph-name="quoteright" unicode="&#x2019;" horiz-adv-x="204" 
d="M145 623l-40 2l14 98h103l-12 -86l-98 -134h-39z" />
    <glyph glyph-name="quotesinglbase" unicode="&#x201a;" horiz-adv-x="222" 
d="M54 -1l-40 2l14 99h103l-12 -86l-98 -134h-39z" />
    <glyph glyph-name="quotedblleft" unicode="&#x201c;" horiz-adv-x="394" 
d="M95 590l99 133h39l-72 -119l40 -1l-14 -100h-104zM262 590l98 133h39l-73 -119l41 -1l-14 -100h-103z" />
    <glyph glyph-name="quotedblright" unicode="&#x201d;" horiz-adv-x="400" 
d="M145 623l-40 2l14 98h103l-12 -86l-98 -134h-39zM311 623l-40 2l14 98h103l-12 -86l-98 -134h-39z" />
    <glyph glyph-name="quotedblbase" unicode="&#x201e;" horiz-adv-x="403" 
d="M227 -1l-40 2l14 99h103l-12 -86l-98 -134h-39zM57 -1l-40 2l14 99h103l-12 -86l-98 -134h-39z" />
    <glyph glyph-name="dagger" unicode="&#x2020;" horiz-adv-x="433" 
d="M432 395l-181 10l-64 -566h-80l95 566l-183 -10l9 71l177 -9l27 266h80l-50 -266l179 9z" />
    <glyph glyph-name="daggerdbl" unicode="&#x2021;" horiz-adv-x="433" 
d="M216 152l183 12l-10 -73l-177 10l-25 -262h-80l48 262l-179 -10l10 73l179 -12l35 249l-182 -11l10 72l177 -9l27 270h80l-50 -270l179 9l-10 -72l-180 11z" />
    <glyph glyph-name="bullet" unicode="&#x2022;" horiz-adv-x="308" 
d="M86.5 305.5q-21.5 25.5 -16.5 62.5q5 36 34 62t65 26q37 0 59 -26t17 -62q-5 -37 -34.5 -62.5t-66.5 -25.5q-36 0 -57.5 25.5z" />
    <glyph glyph-name="ellipsis" unicode="&#x2026;" horiz-adv-x="719" 
d="M620 0h-93l14 103h93zM108 0h-93l14 103h93zM364 0h-93l14 103h93z" />
    <glyph glyph-name="perthousand" unicode="&#x2030;" horiz-adv-x="1291" 
d="M393.5 678.5q38.5 -55.5 24.5 -151.5q-13 -96 -67 -151t-127 -55q-74 0 -113 55t-26 151q9 64 37 110.5t69.5 71.5t90.5 25q73 0 111.5 -55.5zM199 -4h-54l592 735h52zM315 408.5q36 44.5 46 118.5q10 73 -13 118.5t-73 45.5t-86 -45.5t-46 -118.5t12.5 -118t73.5 -45
q50 0 86 44.5zM792 348q38 -56 25 -151q-13 -96 -67 -151.5t-128 -55.5q-48 0 -82.5 25t-49.5 71.5t-6 110.5q9 63 37 110t69.5 72t89.5 25q74 0 112 -56zM1158 379q34 -25 48.5 -72t5.5 -110q-13 -96 -67 -151.5t-127 -55.5q-49 0 -83.5 25t-49.5 71.5t-6 110.5
q9 63 37 110t69.5 72t90.5 25q48 0 82 -25zM712.5 79.5q36.5 45.5 46.5 116.5q10 72 -13.5 118t-72.5 46q-48 0 -84.5 -46.5t-46.5 -117.5t13.5 -116.5t71.5 -45.5q49 0 85.5 45.5zM1108.5 79.5q36.5 45.5 46.5 116.5q10 72 -14 118t-72 46q-49 0 -85.5 -46.5t-46.5 -117.5
t13.5 -116.5t72.5 -45.5t85.5 45.5z" />
    <glyph glyph-name="guilsinglleft" unicode="&#x2039;" horiz-adv-x="265" 
d="M178 72h-43l-110 179l163 187h44l-135 -187z" />
    <glyph glyph-name="guilsinglright" unicode="&#x203a;" horiz-adv-x="265" 
d="M63 438h44l108 -187l-160 -179h-42l131 179z" />
    <glyph glyph-name="fraction" unicode="&#x2044;" horiz-adv-x="244" 
d="M-142 -4h-54l592 735h52z" />
    <glyph glyph-name="uni2070" unicode="&#x2070;" horiz-adv-x="407" 
d="M366.5 783q37.5 -61 21.5 -174q-16 -112 -70.5 -172t-129.5 -60q-74 0 -111.5 59.5t-21.5 171.5q16 114 71 175t129 61t111.5 -61zM286.5 465q37.5 47 51.5 144q14 99 -10.5 146.5t-78.5 47.5t-92 -48t-52 -146q-14 -97 11 -144t79 -47t91.5 47z" />
    <glyph glyph-name="uni2074" unicode="&#x2074;" horiz-adv-x="407" 
d="M355 835l-41 -291h71l-6 -43h-71l-17 -121h-47l18 121h-215l6 46l254 288h48zM266 544l31 222l-195 -222h164z" />
    <glyph glyph-name="uni2075" unicode="&#x2075;" horiz-adv-x="392" 
d="M410 835l-10 -41h-224l-35 -161q35 17 59.5 25.5t56.5 8.5q64 0 102.5 -35t29.5 -103q-10 -72 -64 -113.5t-131 -41.5q-47 0 -86.5 18t-63.5 51l38 28q27 -30 50 -43.5t62 -13.5q60 0 98 31t45 82q7 49 -19 74.5t-73 25.5q-30 0 -55 -9.5t-60 -28.5l-4 -2q-2 0 -3 1t-3 2
l-29 18l50 227h269z" />
    <glyph glyph-name="uni2076" unicode="&#x2076;" horiz-adv-x="395" 
d="M349.5 827q31.5 -23 39.5 -60l-41 -15q-14 29 -32.5 43.5t-54.5 14.5q-65 0 -107 -60t-54 -174q17 38 55 61t81 23q67 0 99.5 -39t24.5 -98q-9 -63 -57.5 -101.5t-114.5 -38.5q-78 0 -114 60t-21 167q16 113 72 176.5t141 63.5q52 0 83.5 -23zM144 596.5
q-35 -23.5 -41 -63.5q2 -54 25.5 -82t65.5 -28q44 0 77 27.5t39 70.5q6 42 -17 70.5t-67 28.5q-47 0 -82 -23.5z" />
    <glyph glyph-name="uni2077" unicode="&#x2077;" horiz-adv-x="357" 
d="M414 835l-7 -47q-74 -86 -145.5 -211t-91.5 -197h-52q26 79 89 195t150 219h-263l6 41h314z" />
    <glyph glyph-name="uni2078" unicode="&#x2078;" horiz-adv-x="392" 
d="M357 810.5q35 -34.5 27 -90.5q-9 -64 -85 -105q23 -9 38.5 -18t28.5 -32.5t8 -60.5q-8 -58 -59 -92t-128 -34q-75 0 -114.5 31.5t-31.5 87.5q5 33 29.5 64t71.5 51q-69 30 -58 102q8 56 56 93.5t115 37.5t102 -34.5zM173 780.5q-33 -24.5 -38 -61.5q-8 -59 56 -73l62 -15
q12 -3 31 10.5t35 35t20 44.5q5 38 -19.5 61t-69.5 23q-44 0 -77 -24.5zM282.5 440.5q34.5 23.5 40.5 61.5q4 30 -9.5 48t-47.5 26l-79 20q-13 3 -35 -9t-40.5 -35t-22.5 -50q-6 -40 22 -62.5t85 -22.5q52 0 86.5 23.5z" />
    <glyph glyph-name="uni2079" unicode="&#x2079;" horiz-adv-x="395" 
d="M80 402q-32 23 -40 60l41 15q12 -28 30.5 -43t54.5 -15q63 0 105.5 52t56.5 155l3 28q-17 -40 -54 -63t-83 -23q-67 0 -100 39t-25 99q9 63 57.5 101.5t114.5 38.5q78 0 114 -59.5t21 -167.5q-16 -114 -72 -177t-141 -63q-51 0 -83 23zM284 633q36 25 41 63
q-5 110 -90 110q-44 0 -76 -27.5t-38 -70.5q-6 -42 16 -71t66 -29q45 0 81 25z" />
    <glyph glyph-name="colonmonetary" unicode="&#x20a1;" horiz-adv-x="579" 
d="M299 97l-40 -97l-52 1l37 92q-25 1 -54 8l-41 -101l-53 1l49 120q-52 32 -74 94t-11 144q15 105 73 176.5t145 89.5l41 98h53l-38 -93q25 0 54 -7l41 100h53l-49 -121q50 -33 73 -108l-62 -16q-30 51 -53.5 71t-64.5 20q-76 0 -128.5 -56.5t-65.5 -151.5q-13 -96 23 -153
t112 -57q47 0 81.5 24.5t70.5 74.5l57 -17q-67 -117 -177 -136z" />
    <glyph glyph-name="franc" unicode="&#x20a3;" horiz-adv-x="603" 
d="M221 658l-38 -272h326l-9 -65h-326l-18 -132h168l-7 -50h-168l-20 -139h-83l19 138h-94l8 51h94l75 534h457l-10 -65h-374z" />
    <glyph glyph-name="lira" unicode="&#x20a4;" horiz-adv-x="602" 
d="M436 32l7 1q-55 -33 -127 -33h-342l9 64h38q39 0 69.5 36.5t41.5 107.5q-4 3 -2 17t2 22q0 5 -8 5h-108l8 51h108l-3 96h-92l7 51h84v27q0 37 4 62q14 100 76 147t153 47q63 0 114 -31.5t65 -78.5l-70 -25q-13 34 -38.5 51.5t-71.5 17.5q-57 0 -98.5 -32t-49.5 -89
q-2 -17 -1 -87q1 -9 8 -9h166l-7 -50l-167 -1l3 -96h151l-7 -50h-148q-5 -51 -26.5 -103t-57.5 -85h189q53 0 88 19t58 63l61 -18q-31 -64 -86 -97z" />
    <glyph glyph-name="uni20A6" unicode="&#x20a6;" horiz-adv-x="718" 
d="M666 436l-17 -125h59l-7 -48h-59l-37 -263h-65l-141 263l-226 -1l-37 -262h-73l37 262h-103l7 49h103l17 124h-103l7 49h103l34 239h67l128 -239h240l34 239h73l-34 -239h59l-7 -48h-59zM204 484h76l-60 113zM593 436h-207l68 -125h122zM374 311l-68 124h-109l-17 -124
h194zM569 263h-89l70 -132z" />
    <glyph glyph-name="uni20A9" unicode="&#x20a9;" horiz-adv-x="1016" 
d="M888 462l-46 -106h167l-7 -50h-181l-132 -306h-74l-43 306l-163 -1l-131 -305h-71l-44 305h-150l7 50h135l-15 106h-105l7 50h91l-31 212h76l29 -212h223l90 212h61l30 -211h225l90 211h75l-91 -211h121l-7 -50h-136zM497 511l46 1l-12 80zM815 462h-197l14 -106h138z
M565 356l-15 106l-74 -1l-46 -106zM228 355h136l45 106h-196zM749 306h-110l28 -194zM343 305h-108l26 -193z" />
    <glyph glyph-name="dong" unicode="&#x20ab;" horiz-adv-x="496" 
d="M526 658l-6 -44h-61l-68 -483h-62l9 61q-2 -2 -22.5 -22t-54 -33.5t-70.5 -13.5q-78 0 -120.5 55.5t-28.5 157.5q9 67 40.5 118.5t78 80t101.5 28.5q39 0 62.5 -12t45.5 -34q4 -4 7 -4q4 0 6 10l12 91h-140l6 44h140l9 64h64l-9 -64h61zM371 460q-21 25 -45.5 37.5
t-55.5 12.5q-60 0 -102.5 -44.5t-53.5 -126.5q-12 -82 18 -123.5t87 -41.5q31 0 58.5 14t45.5 36t21 44zM22 46h361l-6 -46h-361z" />
    <glyph glyph-name="Euro" unicode="&#x20ac;" 
d="M506 53q-39 -29 -86 -46t-95 -17q-118 0 -184.5 70.5t-71.5 198.5h-91l7 50h85q-15 24 -10 53q3 19 10 55h-85l7 50h92q40 126 124.5 196t199.5 70q49 0 91.5 -17t74.5 -48l-58 -50q-51 49 -111 49q-84 0 -143.5 -50.5t-91.5 -149.5l208 1l-7 -50l-214 -1q11 -21 6 -56
q-3 -18 -6 -52l215 1l-8 -51h-208q3 -99 50.5 -150t135.5 -51q34 0 68 12.5t62 32.5z" />
    <glyph glyph-name="uni20B9" unicode="&#x20b9;" horiz-adv-x="561" 
d="M593 676h-141q46 -39 45 -106h81l-7 -48h-81q-16 -67 -61.5 -106t-104.5 -57q-6 -1 -5 -9l83 -350h-90l-78 344h-226l9 60h186q87 0 135.5 27.5t63.5 90.5l-368 -1l7 48l367 1q1 102 -143 102h-211l8 51l538 1z" />
    <glyph glyph-name="uni20BA" unicode="&#x20ba;" horiz-adv-x="535" 
d="M510 225q-50 -107 -133 -166t-192 -59h-118l31 224l-77 -27l-11 53l97 33l14 103l-82 -28l-11 53l102 35l39 277h84l-35 -246l147 51l13 -53l-168 -58l-15 -103l151 52l12 -53l-171 -59l-27 -189h52q72 1 128 43t102 133z" />
    <glyph glyph-name="uni2113" unicode="&#x2113;" horiz-adv-x="481" 
d="M164 84.5q17 -33.5 65 -33.5q34 0 64 15l-80 -76q-86 0 -109.5 49t-22.5 88.5t1 47.5q0 5 -6 2l-53 -34l-18 48l86 57l36 260q15 110 70.5 167.5t129.5 57.5q67 0 95.5 -42.5t18.5 -111.5q-9 -67 -51 -130t-96 -114t-133 -115l-3 -20q-11 -82 6 -115.5zM171 293
q79 62 141 138t74 159q6 42 -10.5 64.5t-53.5 22.5q-48 0 -78.5 -43t-45.5 -147zM372 140q-7 -8 -6 -8q-39 -48 -73 -66z" />
    <glyph glyph-name="uni2116" unicode="&#x2116;" horiz-adv-x="1152" 
d="M697 723l-102 -723h-65l-320 597l-84 -597h-73l102 723h67l318 -592l84 592h73zM1109 685.5q35 -46.5 24 -122.5q-10 -74 -57.5 -120t-119.5 -46t-106.5 46t-24.5 120q11 76 59.5 122.5t118.5 46.5q71 0 106 -46.5zM921 656.5q-29 -32.5 -37 -90.5q-8 -60 11.5 -93.5
t66.5 -33.5t76 33.5t38 93.5q8 57 -12.5 90t-66.5 33q-47 0 -76 -32.5z" />
    <glyph glyph-name="uni2117" unicode="&#x2117;" horiz-adv-x="814" 
d="M180 40q-78 50 -116 135t-24 187q14 100 76 185.5t154 135.5t193 50t179.5 -50t116.5 -135.5t24 -185.5q-14 -102 -76 -187t-154.5 -135t-193.5 -50t-179 50zM528 84.5q77 39.5 130 111.5t66 166q13 92 -19.5 164.5t-98.5 112.5t-151 40q-86 0 -163.5 -40t-129 -112
t-64.5 -165q-13 -94 18 -166t97 -111.5t153 -39.5q85 0 162 39.5zM533.5 355q-42.5 -32 -104.5 -32h-96l-22 -158h-57l55 389h148q65 0 100 -26.5t28 -80.5q-9 -60 -51.5 -92zM510.5 492.5q-21.5 15.5 -63.5 15.5h-88l-19 -140h92q37 0 63.5 18.5t31.5 52.5q5 38 -16.5 53.5
z" />
    <glyph glyph-name="uni2120" unicode="&#x2120;" horiz-adv-x="956" 
d="M84 7.5q-36 13.5 -57.5 40.5t-22.5 64l49 4q3 -40 35.5 -61.5t79.5 -21.5q54 0 90.5 22t42.5 59q4 32 -13 52t-56 30l-92 21q-49 12 -73 40t-19 71q5 38 29.5 67t63.5 45.5t86 16.5q50 0 83 -17t48 -45.5t15 -62.5l-48 -3q-1 45 -30 66.5t-75 21.5q-27 0 -54 -10
t-45.5 -29t-22.5 -46q-3 -27 13.5 -45.5t61.5 -29.5l87 -22q103 -24 90 -121q-5 -33 -29 -60.5t-64.5 -43.5t-93.5 -16q-43 0 -79 13.5zM493 452h60l93 -392l206 392h61l-64 -452h-48l53 372l-193 -372h-46l-87 369l-52 -369h-47z" />
    <glyph glyph-name="trademark" unicode="&#x2122;" horiz-adv-x="896" 
d="M26 452h335l-6 -43h-140l-57 -409h-46l58 409h-150zM433 452h60l93 -392l206 392h61l-64 -452h-48l53 372l-193 -372h-47l-86 369l-52 -369h-47z" />
    <glyph glyph-name="estimated" unicode="&#x212e;" horiz-adv-x="814" 
d="M535 33q-85 -43 -176 -43q-101 0 -179 50t-116 135t-24 187q14 100 76 185.5t154 135.5t193 50q99 0 178 -48.5t118 -131t26 -178.5q-1 -7 -4.5 -10t-10.5 -3h-541l-40 -283q68 -55 174 -55q75 0 149.5 35t127.5 89h47q-67 -72 -152 -115zM278 650q-10 -6 -11 -17
l-33 -234h355l35 252q-71 45 -166 45q-99 0 -180 -46z" />
    <glyph glyph-name="uni2153" unicode="&#x2153;" horiz-adv-x="930" 
d="M138 675l-95 -33l5 37l113 52h34l-64 -455h-49zM151 -4h-54l592 735h52zM654.5 437.5q44.5 20.5 95.5 20.5q67 0 105 -32.5t31 -81.5q-10 -74 -103 -105q46 -13 69 -43.5t17 -73.5q-8 -57 -60.5 -94t-130.5 -37q-57 0 -93.5 18.5t-54.5 63.5l43 14q33 -55 111 -55
q56 0 91.5 24.5t41.5 63.5q6 44 -26 69.5t-80 25.5h-61l6 40l51 1q49 0 86.5 24.5t42.5 60.5q5 33 -21 55t-70 22q-75 0 -119 -56l-38 15q22 40 66.5 60.5z" />
    <glyph glyph-name="uni2154" unicode="&#x2154;" horiz-adv-x="1012" 
d="M15 322l169 146q60 51 85 82t29 64q6 42 -19.5 63t-62.5 21q-34 0 -65 -15.5t-54 -48.5l-38 14q26 45 68.5 68.5t97.5 23.5q61 0 95.5 -33t26.5 -91q-6 -40 -32 -74.5t-90 -91.5l-147 -129h232l-6 -42h-295zM233 -4h-54l592 735h52zM736.5 437.5q44.5 20.5 95.5 20.5
q67 0 105 -32.5t31 -81.5q-10 -74 -103 -105q46 -13 69 -43.5t17 -73.5q-8 -57 -60.5 -94t-130.5 -37q-57 0 -93.5 18.5t-54.5 63.5l43 14q33 -55 111 -55q56 0 91.5 24.5t41.5 63.5q6 44 -26 69.5t-80 25.5h-61l6 40l51 1q49 0 86.5 24.5t42.5 60.5q5 33 -21 55t-70 22
q-75 0 -119 -56l-38 15q22 40 66.5 60.5z" />
    <glyph glyph-name="oneeighth" unicode="&#x215b;" horiz-adv-x="932" 
d="M138 675l-95 -33l5 37l113 52h34l-64 -455h-49zM151 -4h-54l592 735h52zM842.5 422.5q35.5 -34.5 27.5 -90.5q-9 -64 -86 -105q23 -9 38.5 -18t29 -32.5t7.5 -60.5q-8 -58 -58.5 -92t-127.5 -34q-75 0 -115 31.5t-32 87.5q5 33 30 64t71 51q-69 30 -58 102q8 56 56 93.5
t115 37.5t102.5 -34.5zM659 392.5q-33 -24.5 -38 -61.5q-8 -59 55 -73l62 -15q12 -3 31.5 10.5t35.5 35t19 44.5q5 38 -19 61t-69 23q-44 0 -77 -24.5zM768 52.5q35 23.5 40 61.5q4 30 -9.5 48t-47.5 26l-79 20q-13 3 -35 -9t-40.5 -35t-22.5 -50q-6 -40 22 -62.5t85 -22.5
q52 0 87 23.5z" />
    <glyph glyph-name="threeeighths" unicode="&#x215c;" horiz-adv-x="1029" 
d="M154 719.5q45 20.5 96 20.5q67 0 105 -32.5t31 -81.5q-10 -74 -104 -105q46 -13 69.5 -43.5t17.5 -73.5q-8 -57 -61 -94t-131 -37q-57 0 -93 18.5t-54 63.5l43 14q33 -55 111 -55q56 0 91.5 24.5t40.5 63.5q6 44 -25.5 69.5t-79.5 25.5h-61l5 40l52 1q49 0 86 24.5
t43 60.5q5 33 -21.5 55t-70.5 22q-75 0 -118 -56l-38 15q21 40 66 60.5zM248 -4h-54l592 735h52zM939.5 422.5q35.5 -34.5 27.5 -90.5q-9 -64 -86 -105q23 -9 38.5 -18t29 -32.5t7.5 -60.5q-8 -58 -58.5 -92t-127.5 -34q-75 0 -115 31.5t-32 87.5q5 33 30 64t71 51
q-69 30 -58 102q8 56 56 93.5t115 37.5t102.5 -34.5zM756 392.5q-33 -24.5 -38 -61.5q-8 -59 55 -73l62 -15q12 -3 31.5 10.5t35.5 35t19 44.5q5 38 -19 61t-69 23q-44 0 -77 -24.5zM865 52.5q35 23.5 40 61.5q4 30 -9.5 48t-47.5 26l-79 20q-13 3 -35 -9t-40.5 -35
t-22.5 -50q-6 -40 22 -62.5t85 -22.5q52 0 87 23.5z" />
    <glyph glyph-name="fiveeighths" unicode="&#x215d;" horiz-adv-x="1031" 
d="M395 731l-10 -41h-224l-35 -161q35 17 59.5 25.5t56.5 8.5q64 0 102.5 -35t29.5 -103q-10 -72 -64 -113.5t-131 -41.5q-47 0 -86.5 18t-63.5 51l38 28q27 -30 50 -43.5t62 -13.5q60 0 98 31t45 82q7 49 -19 74.5t-73 25.5q-30 0 -55 -9.5t-60 -28.5l-5 -2q-1 0 -2 1t-3 2
l-29 18l50 227h269zM250 -4h-54l592 735h52zM941.5 422.5q35.5 -34.5 27.5 -90.5q-9 -64 -86 -105q23 -9 38.5 -18t29 -32.5t7.5 -60.5q-8 -58 -58.5 -92t-127.5 -34q-75 0 -115 31.5t-32 87.5q5 33 30 64t71 51q-69 30 -58 102q8 56 56 93.5t115 37.5t102.5 -34.5z
M758 392.5q-33 -24.5 -38 -61.5q-8 -59 55 -73l62 -15q12 -3 31.5 10.5t35.5 35t19 44.5q5 38 -19 61t-69 23q-44 0 -77 -24.5zM867 52.5q35 23.5 40 61.5q4 30 -9.5 48t-47.5 26l-79 20q-13 3 -35 -9t-40.5 -35t-22.5 -50q-6 -40 22 -62.5t85 -22.5q52 0 87 23.5z" />
    <glyph glyph-name="seveneighths" unicode="&#x215e;" horiz-adv-x="996" 
d="M399 730l-7 -47q-74 -86 -145.5 -211t-91.5 -197h-52q26 79 89 195t150 219h-263l6 41h314zM215 -4h-54l592 735h52zM906.5 422.5q35.5 -34.5 27.5 -90.5q-9 -64 -86 -105q23 -9 38.5 -18t29 -32.5t7.5 -60.5q-8 -58 -58.5 -92t-127.5 -34q-75 0 -115 31.5t-32 87.5
q5 33 30 64t71 51q-69 30 -58 102q8 56 56 93.5t115 37.5t102.5 -34.5zM723 392.5q-33 -24.5 -38 -61.5q-8 -59 55 -73l62 -15q12 -3 31.5 10.5t35.5 35t19 44.5q5 38 -19 61t-69 23q-44 0 -77 -24.5zM832 52.5q35 23.5 40 61.5q4 30 -9.5 48t-47.5 26l-79 20q-13 3 -35 -9
t-40.5 -35t-22.5 -50q-6 -40 22 -62.5t85 -22.5q52 0 87 23.5z" />
    <glyph glyph-name="partialdiff" unicode="&#x2202;" horiz-adv-x="580" 
d="M130 667q30 28 84.5 47t111.5 19q123 0 179.5 -93.5t30.5 -275.5q-25 -178 -104.5 -276t-199.5 -98q-68 0 -116 30t-69.5 82.5t-12.5 117.5q14 99 86 157.5t183 58.5q49 0 79 -11.5t67 -37.5q7 -4 10 -3t4 6q19 135 -23.5 207t-143.5 72q-44 0 -77 -12.5t-72 -36.5z
M233 52q46 0 88.5 28t74.5 78.5t48 116.5q2 6 3 15q2 12 -4 20q-18 27 -61 46.5t-89 19.5q-71 0 -122.5 -45t-61.5 -115q-6 -45 8 -82.5t44.5 -59.5t70.5 -22h1z" />
    <glyph glyph-name="emptyset" unicode="&#x2205;" horiz-adv-x="572" 
d="M473 480q30 -53 21 -116q-8 -56 -42 -102.5t-85 -74t-106 -27.5q-73 0 -122 46l-73 -60l-30 34l75 61q-33 54 -24 123q8 55 42 101.5t84.5 74t105.5 27.5q38 0 71 -13.5t57 -38.5l66 53l27 -34zM148 271l262 213q-39 38 -98 38q-43 0 -82.5 -21.5t-65.5 -58t-32 -78.5
q-7 -51 16 -93zM436 449l-259 -212q38 -32 91 -32q43 0 82.5 21.5t66 58t32.5 79.5q7 46 -13 85z" />
    <glyph glyph-name="product" unicode="&#x220f;" horiz-adv-x="637" 
d="M667 657h-103l-92 -657h-78l92 657h-245l-92 -657h-78l92 657h-102l10 66h606z" />
    <glyph glyph-name="summation" unicode="&#x2211;" horiz-adv-x="511" 
d="M-21 0l7 51l261 310l-160 307l8 55h430l-9 -64h-329l153 -292l-253 -301h363l-9 -66h-462z" />
    <glyph glyph-name="minus" unicode="&#x2212;" horiz-adv-x="546" 
d="M481 334l-417 -1l8 59l417 1z" />
    <glyph glyph-name="uni2219" unicode="&#x2219;" horiz-adv-x="309" 
d="M111.5 327.5q-14.5 16.5 -10.5 40.5q3 23 21.5 39t41.5 16q24 0 38 -16t11 -39q-3 -24 -21.5 -40.5t-42.5 -16.5q-23 0 -37.5 16.5z" />
    <glyph glyph-name="radical" unicode="&#x221a;" horiz-adv-x="616" 
d="M291 -161h-80l-106 461l-78 -29l-11 51l148 52l96 -453l362 904h66z" />
    <glyph glyph-name="infinity" unicode="&#x221e;" horiz-adv-x="707" 
d="M650 272q-7 -49 -32.5 -85.5t-63.5 -56t-80 -19.5q-46 0 -72.5 21t-58.5 66q-5 6 -7 6q-3 0 -9 -6l-27 -27q-23 -23 -59.5 -41.5t-75.5 -18.5q-40 0 -71.5 19.5t-46.5 55.5t-8 82q10 71 60.5 114t120.5 43q32 0 54.5 -10t37.5 -25t38 -44q6 -7 11 -7q4 0 11 7
q39 37 73.5 58t81.5 21q63 0 98 -41.5t25 -110.5v-1zM179 170q32 0 65.5 22.5t58.5 52.5q11 12 12 19q1 6 -8 23q-21 41 -45 61.5t-58 20.5q-41 0 -70.5 -27t-35.5 -71t16.5 -72.5t62.5 -28.5h2zM516 369q-33 0 -62 -20t-66 -58q-9 -9 -11 -20q-1 -8 5 -20q27 -47 56 -64
t54 -17q39 0 66 30.5t33 69.5q6 41 -14.5 70t-59.5 29h-1z" />
    <glyph glyph-name="integral" unicode="&#x222b;" horiz-adv-x="431" 
d="M261 786q48 49 117 49q40 0 63 -6t47 -22l-29 -68q-23 14 -41 19.5t-42 5.5q-39 0 -67 -27.5t-36 -82.5q-10 -71 -15 -144.5t-9 -181.5t-8 -175t-13 -132q-13 -92 -61.5 -142t-115.5 -50q-40 0 -62 5.5t-47 22.5l29 67q23 -13 41 -18.5t42 -5.5q37 0 65 27.5t35 82.5
q10 71 15 144.5t9 181.5t8 175.5t14 133.5q13 92 61 141z" />
    <glyph glyph-name="approxequal" unicode="&#x2248;" horiz-adv-x="554" 
d="M456 411q-33 -16 -75 -16q-25 0 -45 6t-46 18q-25 12 -44 18t-42 6q-35 0 -62.5 -14t-51.5 -37l-15 45q34 30 65 45.5t70 15.5q25 0 46 -6.5t47 -19.5q27 -12 45 -18t40 -6q34 0 58.5 14t46.5 37l17 -47q-21 -25 -54 -41zM428.5 217q-33.5 -16 -75.5 -16q-27 0 -47.5 6.5
t-47.5 19.5q-23 11 -41 17t-40 6q-35 0 -62 -14t-52 -38l-15 46q34 29 65 44t70 15q25 0 44.5 -6t48.5 -19q27 -12 45 -18t40 -6q34 0 58 13.5t47 36.5l16 -46q-20 -25 -53.5 -41z" />
    <glyph glyph-name="notequal" unicode="&#x2260;" horiz-adv-x="579" 
d="M341 431l-93 -161l226 1l-8 -59l-253 -1l-83 -143h-48l84 143h-117l8 59h144l94 161l-216 -1l9 60h242l79 134h45l-78 -134h129l-8 -59h-156z" />
    <glyph glyph-name="lessequal" unicode="&#x2264;" horiz-adv-x="539" 
d="M455 237l-384 161l10 71l430 162l-11 -73l-332 -125l297 -124zM434 65l-417 1l9 59l416 -1z" />
    <glyph glyph-name="greaterequal" unicode="&#x2265;" horiz-adv-x="539" 
d="M398 433l-299 125l11 73l385 -162l-10 -71l-431 -161l10 72zM453 125l-9 -59l-417 -1l8 59z" />
    <glyph glyph-name="lozenge" unicode="&#x25ca;" horiz-adv-x="466" 
d="M155 0l-106 361l213 362h64l107 -360l-214 -363h-64zM118 366l82 -305l164 300l-80 301z" />
    <glyph glyph-name="i.loclTRK" horiz-adv-x="238" 
d="M110 0h-73l73 517h73zM201 613h-80l16 110h80z" />
    <glyph glyph-name="p.001" horiz-adv-x="589" 
d="M116 517h72l-11 -73q3 3 27 26.5t65 40t86 16.5q62 0 106.5 -29.5t64 -88t7.5 -143.5t-48.5 -147.5t-92 -95.5t-123.5 -33q-42 0 -76.5 14t-69.5 48l-30 -213h-73zM389 103.5q55 57.5 69 160.5t-24.5 154.5t-107.5 51.5q-41 0 -76.5 -19t-58.5 -49t-27 -63l-30 -208
q46 -85 125 -85q75 0 130 57.5z" />
    <glyph glyph-name="q.001" horiz-adv-x="590" 
d="M364 -161l30 213q-45 -34 -82.5 -48t-80.5 -14q-68 0 -114.5 33t-66 95.5t-7.5 147.5t48.5 143.5t89 88t114.5 29.5q45 0 76 -14.5t45.5 -29t33.5 -39.5l11 73h72l-96 -678h-73zM405 131l30 208q5 33 -9.5 63t-45 49t-71.5 19q-70 0 -123 -51.5t-68 -154.5
q-14 -103 24 -160.5t114 -57.5q77 0 149 85z" />
    <glyph glyph-name="l.ss01" horiz-adv-x="268" 
d="M155 743h73l-104 -743h-73z" />
    <glyph glyph-name="zero.osf" horiz-adv-x="631" 
d="M504 690.5q54 -42.5 76.5 -126t5.5 -204.5q-17 -120 -63 -203.5t-111.5 -125t-143.5 -41.5q-77 0 -131.5 41.5t-76.5 124t-5 202.5q17 121 63 205.5t112 127t143 42.5t131 -42.5zM424 130.5q59 74.5 81 229.5q22 156 -17 232t-124 76t-145.5 -76t-82.5 -232
q-22 -154 17 -229t126 -75q86 0 145 74.5z" />
    <glyph glyph-name="one.osf" horiz-adv-x="377" 
d="M223 634l-150 -52l8 58l178 83h54l-102 -723h-77z" />
    <glyph glyph-name="two.osf" horiz-adv-x="568" 
d="M8 69l268 232q95 81 134.5 130t47.5 101q9 67 -31 100.5t-99 33.5q-54 0 -104 -24.5t-86 -77.5l-61 22q42 72 109.5 109.5t154.5 37.5q64 0 110.5 -23.5t69.5 -68.5t14 -107q-6 -43 -26.5 -80.5t-59 -78.5t-108.5 -103l-234 -205h370l-9 -67h-470z" />
    <glyph glyph-name="three.osf" horiz-adv-x="617" 
d="M214.5 704q70.5 33 151.5 33q71 0 122.5 -24t76.5 -65.5t17 -92.5q-16 -116 -164 -166q73 -21 110 -69.5t27 -116.5q-8 -59 -49 -107t-107 -75t-147 -27q-91 0 -148.5 30t-86.5 101l68 22q53 -88 177 -88q88 0 145 39.5t66 101.5q7 47 -15.5 81t-63.5 51.5t-90 17.5h-97
l9 64l81 1q51 0 96.5 17.5t74.5 49t34 69.5q5 35 -12 62.5t-52 43.5t-81 16q-60 0 -106.5 -21.5t-81.5 -66.5l-60 23q35 63 105.5 96z" />
    <glyph glyph-name="four.osf" horiz-adv-x="617" 
d="M518 723l-65 -462h113l-10 -68h-113l-27 -193h-74l28 193h-341l10 73l403 457h76zM377 261l49 352l-310 -352h261z" />
    <glyph glyph-name="five.osf" horiz-adv-x="641" 
d="M603 723l-16 -65h-356l-56 -256q55 28 94.5 41t90.5 13q66 0 117 -23.5t77 -73t15 -122.5q-11 -76 -53.5 -132t-109 -85.5t-146.5 -29.5q-75 0 -137.5 28.5t-102.5 81.5l60 45q41 -47 79.5 -69t99.5 -22q95 0 156.5 50t72.5 130q11 78 -31.5 118t-117.5 40
q-48 0 -88.5 -15.5t-92.5 -43.5q-6 -4 -9 -4q-2 0 -3 1.5t-4 3.5l-46 29l80 360h427z" />
    <glyph glyph-name="six.osf" horiz-adv-x="606" 
d="M524.5 703q50.5 -36 62.5 -95l-64 -25q-22 46 -51.5 69.5t-87.5 23.5q-97 0 -162.5 -85t-88.5 -246q-4 -27 -4 -41q27 61 86 97t129 36q72 0 119.5 -28.5t67 -78t11.5 -110.5q-9 -67 -48 -117.5t-97.5 -78t-127.5 -27.5q-83 0 -136.5 42.5t-74.5 124t-5 194.5
q17 118 63 204t116.5 131.5t159.5 45.5q82 0 132.5 -36zM199.5 336q-56.5 -38 -65.5 -101q3 -86 39.5 -130.5t103.5 -44.5q46 0 86 20t66.5 55.5t32.5 80.5q6 43 -7.5 79t-46 57.5t-79.5 21.5q-73 0 -129.5 -38z" />
    <glyph glyph-name="seven.osf" horiz-adv-x="570" 
d="M591 723l-11 -75q-77 -90 -157 -214.5t-139.5 -242.5t-80.5 -191h-82q25 77 77.5 186.5t130.5 234t171 237.5h-417l10 65h498z" />
    <glyph glyph-name="eight.osf" horiz-adv-x="617" 
d="M483.5 708q49.5 -25 72 -70t14.5 -104q-10 -68 -52.5 -107t-83.5 -59q5 -2 42 -17.5t61.5 -58t16.5 -102.5t-48.5 -105.5t-104.5 -70t-144 -24.5q-121 0 -183 50t-50 139q7 52 46.5 101.5t114.5 82.5q-37 16 -70.5 52t-22.5 110q8 58 45.5 105.5t97 75t129.5 27.5
t119.5 -25zM270 652q-40 -18 -66 -49.5t-31 -70.5q-6 -46 16 -75.5t72 -40.5l99 -24q18 -4 49 17t56.5 56t30.5 71q8 60 -30 97t-110 37q-46 0 -86 -18zM408.5 89.5q55.5 36.5 63.5 98.5q7 47 -14.5 76t-75.5 42l-126 31q-3 1 -7 1q-23 0 -56 -20.5t-60 -54.5t-33 -75
q-9 -64 35 -99.5t134 -35.5q84 0 139.5 36.5z" />
    <glyph glyph-name="nine.osf" horiz-adv-x="606" 
d="M90 27q-51 37 -64 96l66 23q21 -45 50 -68.5t86 -23.5q100 0 167 83.5t90 249.5q4 27 5 41q-27 -63 -86.5 -100t-131.5 -37q-71 0 -119.5 29t-68.5 79t-11 112q9 67 47.5 117t97.5 77.5t128 27.5q82 0 136 -42.5t74.5 -124t4.5 -194.5q-26 -182 -115 -282t-225 -100
q-80 0 -131 37zM375 373q43 18 71.5 50t33.5 71q-4 87 -40 131.5t-104 44.5q-70 0 -121 -44t-61 -112q-6 -43 7.5 -79t45.5 -58t79 -22q46 0 89 18z" />
    <glyph glyph-name="zero.tf" horiz-adv-x="692" 
d="M538 690.5q54 -42.5 76.5 -126t5.5 -204.5q-17 -120 -63 -203.5t-111.5 -125t-143.5 -41.5q-77 0 -131.5 41.5t-76.5 124t-5 202.5q17 121 63 205.5t112 127t143 42.5t131 -42.5zM458 130.5q59 74.5 81 229.5q22 156 -17 232t-124 76t-145.5 -76t-82.5 -232
q-22 -154 17 -229t126 -75q86 0 145 74.5z" />
    <glyph glyph-name="one.tf" horiz-adv-x="693" 
d="M586 72l-10 -72h-521l10 72h223l80 571l-226 -86l10 72l255 95h52l-92 -652h219z" />
    <glyph glyph-name="two.tf" horiz-adv-x="692" 
d="M86 69l268 232q95 81 134.5 130t47.5 101q9 67 -31 100.5t-99 33.5q-54 0 -104 -24.5t-86 -77.5l-61 22q42 72 109.5 109.5t154.5 37.5q64 0 110.5 -23.5t69.5 -68.5t14 -107q-6 -43 -26.5 -80.5t-59 -78.5t-108.5 -103l-234 -205h370l-9 -67h-470z" />
    <glyph glyph-name="three.tf" horiz-adv-x="692" 
d="M258.5 700q70.5 33 151.5 33q71 0 122.5 -24t76.5 -65.5t17 -92.5q-16 -116 -164 -166q73 -21 110 -69.5t27 -116.5q-8 -59 -49 -107t-107 -75t-147 -27q-91 0 -148.5 30t-86.5 101l68 22q53 -88 177 -88q88 0 145 39.5t66 101.5q7 47 -15.5 81t-63.5 51.5t-90 17.5h-97
l9 64l81 1q51 0 96.5 17.5t74.5 49t34 69.5q5 35 -12 62.5t-52 43.5t-81 16q-60 0 -106.5 -21.5t-81.5 -66.5l-60 23q35 63 105.5 96z" />
    <glyph glyph-name="four.tf" horiz-adv-x="692" 
d="M570 723l-65 -462h113l-10 -68h-113l-27 -193h-74l28 193h-341l10 73l403 457h76zM429 261l49 352l-310 -352h261z" />
    <glyph glyph-name="five.tf" horiz-adv-x="692" 
d="M641 723l-16 -65h-356l-56 -256q55 28 94.5 41t90.5 13q66 0 117 -23.5t77 -73t15 -122.5q-11 -76 -53.5 -132t-109 -85.5t-146.5 -29.5q-75 0 -137.5 28.5t-102.5 81.5l60 45q41 -47 79.5 -69t99.5 -22q95 0 156.5 50t72.5 130q11 78 -31.5 118t-117.5 40
q-48 0 -88.5 -15.5t-92.5 -43.5q-6 -4 -9 -4q-2 0 -3 1.5t-4 3.5l-46 29l80 360h427z" />
    <glyph glyph-name="six.tf" horiz-adv-x="692" 
d="M569.5 703q50.5 -36 62.5 -95l-64 -25q-22 46 -51.5 69.5t-87.5 23.5q-97 0 -162.5 -85t-88.5 -246q-4 -27 -4 -41q27 61 86 97t129 36q72 0 119.5 -28.5t67 -78t11.5 -110.5q-9 -67 -48 -117.5t-97.5 -78t-127.5 -27.5q-83 0 -136.5 42.5t-74.5 124t-5 194.5
q17 118 63 204t116.5 131.5t159.5 45.5q82 0 132.5 -36zM244.5 336q-56.5 -38 -65.5 -101q3 -86 39.5 -130.5t103.5 -44.5q46 0 86 20t66.5 55.5t32.5 80.5q6 43 -7.5 79t-46 57.5t-79.5 21.5q-73 0 -129.5 -38z" />
    <glyph glyph-name="seven.tf" horiz-adv-x="693" 
d="M664 723l-11 -75q-77 -91 -156.5 -215t-139.5 -242t-80 -191h-86q43 127 143 308.5t237 344.5h-462l10 70h545z" />
    <glyph glyph-name="eight.tf" horiz-adv-x="692" 
d="M529.5 708q49.5 -25 72 -70t14.5 -104q-10 -68 -52.5 -107t-83.5 -59q5 -2 42 -17.5t61.5 -58t16.5 -102.5t-48.5 -105.5t-104.5 -70t-144 -24.5q-121 0 -183 50t-50 139q7 52 46.5 101.5t114.5 82.5q-37 16 -70.5 52t-22.5 110q8 58 45.5 105.5t97 75t129.5 27.5
t119.5 -25zM316 652q-40 -18 -66 -49.5t-31 -70.5q-6 -46 16 -75.5t72 -40.5l99 -24q18 -4 49 17t56.5 56t30.5 71q8 60 -30 97t-110 37q-46 0 -86 -18zM454.5 89.5q55.5 36.5 63.5 98.5q7 47 -14.5 76t-75.5 42l-126 31q-3 1 -7 1q-23 0 -56 -20.5t-60 -54.5t-33 -75
q-9 -64 35 -99.5t134 -35.5q84 0 139.5 36.5z" />
    <glyph glyph-name="nine.tf" horiz-adv-x="692" 
d="M141 27q-51 37 -64 96l66 23q21 -45 50 -68.5t86 -23.5q100 0 167 83.5t90 249.5q4 27 5 41q-27 -63 -86.5 -100t-131.5 -37q-71 0 -119.5 29t-68.5 79t-11 112q9 67 47.5 117t97.5 77.5t128 27.5q82 0 136 -42.5t74.5 -124t4.5 -194.5q-26 -182 -115 -282t-225 -100
q-80 0 -131 37zM426 373q43 18 71.5 50t33.5 71q-4 87 -40 131.5t-104 44.5q-70 0 -121 -44t-61 -112q-6 -43 7.5 -79t45.5 -58t79 -22q46 0 89 18z" />
    <glyph glyph-name="zero.subs" horiz-adv-x="407" 
d="M288.5 230q37.5 -61 21.5 -174q-16 -112 -70.5 -172t-129.5 -60q-74 0 -111.5 59.5t-21.5 171.5q16 114 71 175t129 61t111.5 -61zM208.5 -88q37.5 47 51.5 144q14 99 -10.5 146.5t-78.5 47.5t-92 -48t-52 -146q-14 -97 11 -144t79 -47t91.5 47z" />
    <glyph glyph-name="one.subs" horiz-adv-x="293" 
d="M76 234l-94 -33l5 37l112 52h34l-64 -455h-49z" />
    <glyph glyph-name="two.subs" horiz-adv-x="375" 
d="M-47 -122l169 146q59 51 84 82t30 64q6 42 -19.5 63t-62.5 21q-34 0 -65.5 -15.5t-53.5 -48.5l-39 14q27 45 69.5 68.5t96.5 23.5q41 0 70 -15t43.5 -43t8.5 -67q-3 -27 -16 -50.5t-37.5 -49.5t-68.5 -65l-147 -129h233l-6 -42h-295z" />
    <glyph glyph-name="three.subs" horiz-adv-x="390" 
d="M91.5 272.5q44.5 20.5 95.5 20.5q67 0 105 -32.5t31 -81.5q-10 -74 -103 -105q46 -13 69 -43.5t17 -73.5q-8 -57 -60.5 -94t-130.5 -37q-57 0 -93.5 18.5t-54.5 63.5l43 14q33 -55 111 -55q56 0 91.5 24.5t41.5 63.5q6 44 -26 69.5t-80 25.5h-61l6 40l51 1
q49 0 86.5 24.5t42.5 60.5q5 33 -21 55t-70 22q-75 0 -119 -56l-38 15q22 40 66.5 60.5z" />
    <glyph glyph-name="four.subs" horiz-adv-x="407" 
d="M278 290l-41 -291h71l-6 -43h-71l-17 -121h-47l18 121h-215l6 46l254 288h48zM189 -1l31 222l-195 -222h164z" />
    <glyph glyph-name="five.subs" horiz-adv-x="392" 
d="M333 287l-10 -41h-224l-35 -161q35 17 59.5 25.5t56.5 8.5q64 0 102.5 -35t29.5 -103q-10 -72 -64 -113.5t-131 -41.5q-47 0 -86.5 18t-64.5 51l38 28q27 -30 50 -43.5t62 -13.5q60 0 98.5 31t45.5 82q7 49 -19.5 74.5t-73.5 25.5q-30 0 -54.5 -9.5t-59.5 -28.5l-5 -2
q-1 0 -2 1t-3 2l-29 18l50 227h269z" />
    <glyph glyph-name="six.subs" horiz-adv-x="395" 
d="M271.5 272q31.5 -23 39.5 -60l-41 -15q-14 29 -32.5 43.5t-54.5 14.5q-65 0 -107 -60t-54 -174q17 38 55 61t81 23q67 0 99.5 -39t24.5 -98q-9 -63 -57.5 -101.5t-114.5 -38.5q-78 0 -114 60t-21 167q16 113 72 176.5t141 63.5q52 0 83.5 -23zM66 41.5
q-35 -23.5 -41 -63.5q2 -54 25.5 -82t65.5 -28q44 0 77 27.5t39 70.5q6 42 -17 70.5t-67 28.5q-47 0 -82 -23.5z" />
    <glyph glyph-name="seven.subs" horiz-adv-x="357" 
d="M337 290l-7 -47q-49 -57 -99 -135.5t-87.5 -152.5t-50.5 -120h-52q16 48 49 117t82 147.5t107 149.5h-262l6 41h314z" />
    <glyph glyph-name="eight.subs" horiz-adv-x="392" 
d="M279.5 258.5q35.5 -34.5 27.5 -90.5q-9 -64 -86 -105q23 -9 38.5 -18t29 -32.5t7.5 -60.5q-8 -58 -58.5 -92t-127.5 -34q-75 0 -115 31.5t-32 87.5q5 33 30 64t71 51q-69 30 -58 102q8 56 56 93.5t115 37.5t102.5 -34.5zM96 228.5q-33 -24.5 -38 -61.5q-8 -59 55 -73
l62 -15q12 -3 31.5 10.5t35.5 35t19 44.5q5 38 -19 61t-69 23q-44 0 -77 -24.5zM205 -111.5q35 23.5 40 61.5q4 30 -9.5 48t-47.5 26l-79 20q-13 3 -35 -9t-40.5 -35t-22.5 -50q-6 -40 22 -62.5t85 -22.5q52 0 87 23.5z" />
    <glyph glyph-name="nine.subs" horiz-adv-x="395" 
d="M1.5 -153q-31.5 23 -39.5 60l41 15q12 -28 30.5 -43t54.5 -15q63 0 105.5 52t56.5 155l3 28q-17 -40 -54 -63t-83 -23q-67 0 -100 39t-25 99q9 63 57.5 101.5t114.5 38.5q78 0 114 -59.5t21 -167.5q-16 -114 -72.5 -177t-141.5 -63q-51 0 -82.5 23zM206 78q36 25 41 63
q-5 110 -91 110q-44 0 -75.5 -27.5t-37.5 -70.5q-6 -42 16 -71t66 -29q45 0 81 25z" />
    <glyph glyph-name="zero.dnom" horiz-adv-x="408" 
d="M311.5 395q37.5 -61 21.5 -174q-16 -112 -70.5 -172t-129.5 -60q-74 0 -111.5 59.5t-21.5 171.5q16 114 71 175t129 61t111.5 -61zM231.5 77q37.5 47 51.5 144q14 99 -10.5 146.5t-78.5 47.5t-92 -48t-52 -146q-14 -97 11 -144t79 -47t91.5 47z" />
    <glyph glyph-name="one.dnom" horiz-adv-x="293" 
d="M99 399l-94 -33l5 37l112 52h34l-64 -455h-49z" />
    <glyph glyph-name="two.dnom" horiz-adv-x="375" 
d="M-24 43l169 146q59 51 84 82t30 64q6 42 -19.5 63t-62.5 21q-34 0 -65.5 -15.5t-53.5 -48.5l-39 14q27 45 69.5 68.5t96.5 23.5q41 0 70 -15t43.5 -43t8.5 -67q-3 -27 -16 -50.5t-37.5 -49.5t-68.5 -65l-147 -129h233l-6 -42h-295z" />
    <glyph glyph-name="three.dnom" horiz-adv-x="390" 
d="M114.5 437.5q44.5 20.5 95.5 20.5q67 0 105 -32.5t31 -81.5q-10 -74 -103 -105q46 -13 69 -43.5t17 -73.5q-8 -57 -60.5 -94t-130.5 -37q-57 0 -93.5 18.5t-54.5 63.5l43 14q33 -55 111 -55q56 0 91.5 24.5t41.5 63.5q6 44 -26 69.5t-80 25.5h-61l6 40l51 1
q49 0 86.5 24.5t42.5 60.5q5 33 -21 55t-70 22q-75 0 -119 -56l-38 15q22 40 66.5 60.5z" />
    <glyph glyph-name="four.dnom" horiz-adv-x="407" 
d="M301 455l-41 -291h71l-6 -43h-71l-17 -121h-47l18 121h-215l6 46l254 288h48zM212 164l31 222l-195 -222h164z" />
    <glyph glyph-name="five.dnom" horiz-adv-x="392" 
d="M356 452l-10 -41h-224l-35 -161q35 17 59.5 25.5t56.5 8.5q64 0 102.5 -35t29.5 -103q-10 -72 -64 -113.5t-131 -41.5q-47 0 -86.5 18t-64.5 51l38 28q27 -30 50 -43.5t62 -13.5q60 0 98.5 31t45.5 82q7 49 -19.5 74.5t-73.5 25.5q-30 0 -54.5 -9.5t-59.5 -28.5l-4 -2
q-2 0 -3 1t-3 2l-29 18l50 227h269z" />
    <glyph glyph-name="six.dnom" horiz-adv-x="396" 
d="M294.5 437q31.5 -23 39.5 -60l-41 -15q-14 29 -32.5 43.5t-54.5 14.5q-65 0 -107 -60t-54 -174q17 38 55 61t81 23q67 0 99.5 -39t24.5 -98q-9 -63 -57.5 -101.5t-114.5 -38.5q-78 0 -114 60t-21 167q16 113 72 176.5t141 63.5q52 0 83.5 -23zM89 206.5
q-35 -23.5 -41 -63.5q2 -54 25.5 -82t65.5 -28q44 0 77 27.5t39 70.5q6 42 -17 70.5t-67 28.5q-47 0 -82 -23.5z" />
    <glyph glyph-name="seven.dnom" horiz-adv-x="357" 
d="M360 455l-7 -47q-49 -57 -99 -135.5t-87.5 -152.5t-50.5 -120h-52q16 48 49 117t82 147.5t107 149.5h-262l6 41h314z" />
    <glyph glyph-name="eight.dnom" horiz-adv-x="392" 
d="M302.5 422.5q35.5 -34.5 27.5 -90.5q-9 -64 -86 -105q23 -9 38.5 -18t29 -32.5t7.5 -60.5q-8 -58 -58.5 -92t-127.5 -34q-75 0 -115 31.5t-32 87.5q5 33 30 64t71 51q-69 30 -58 102q8 56 56 93.5t115 37.5t102.5 -34.5zM119 392.5q-33 -24.5 -38 -61.5q-8 -59 55 -73
l62 -15q12 -3 31.5 10.5t35.5 35t19 44.5q5 38 -19 61t-69 23q-44 0 -77 -24.5zM228 52.5q35 23.5 40 61.5q4 30 -9.5 48t-47.5 26l-79 20q-13 3 -35 -9t-40.5 -35t-22.5 -50q-6 -40 22 -62.5t85 -22.5q52 0 87 23.5z" />
    <glyph glyph-name="nine.dnom" horiz-adv-x="396" 
d="M24.5 12q-31.5 23 -39.5 60l41 15q12 -28 30.5 -43t54.5 -15q63 0 105.5 52t56.5 155l3 28q-17 -40 -54 -63t-83 -23q-67 0 -100 39t-25 99q9 63 57.5 101.5t114.5 38.5q78 0 114 -59.5t21 -167.5q-16 -114 -72.5 -177t-141.5 -63q-51 0 -82.5 23zM229 243q36 25 41 63
q-5 110 -91 110q-44 0 -75.5 -27.5t-37.5 -70.5q-6 -42 16 -71t66 -29q45 0 81 25z" />
    <glyph glyph-name="zero.numr" horiz-adv-x="408" 
d="M351.5 679q37.5 -61 21.5 -174q-16 -112 -70.5 -172t-129.5 -60q-74 0 -111.5 59.5t-21.5 171.5q16 114 71 175t129 61t111.5 -61zM271.5 361q37.5 47 51.5 144q14 99 -10.5 146.5t-78.5 47.5t-92 -48t-52 -146q-14 -97 11 -144t79 -47t91.5 47z" />
    <glyph glyph-name="one.numr" horiz-adv-x="296" 
d="M138 675l-95 -33l5 37l113 52h34l-64 -455h-49z" />
    <glyph glyph-name="two.numr" horiz-adv-x="376" 
d="M15 322l169 146q60 51 85 82t29 64q6 42 -19.5 63t-62.5 21q-34 0 -65 -15.5t-54 -48.5l-38 14q26 45 68.5 68.5t97.5 23.5q61 0 95.5 -33t26.5 -91q-6 -40 -32 -74.5t-90 -91.5l-147 -129h232l-6 -42h-295z" />
    <glyph glyph-name="three.numr" horiz-adv-x="390" 
d="M154 719.5q45 20.5 96 20.5q67 0 105 -32.5t31 -81.5q-10 -74 -104 -105q46 -13 69.5 -43.5t17.5 -73.5q-8 -57 -61 -94t-131 -37q-57 0 -93 18.5t-54 63.5l43 14q33 -55 111 -55q56 0 91.5 24.5t40.5 63.5q6 44 -25.5 69.5t-79.5 25.5h-61l5 40l52 1q49 0 86 24.5
t43 60.5q5 33 -21.5 55t-70.5 22q-75 0 -118 -56l-38 15q21 40 66 60.5z" />
    <glyph glyph-name="four.numr" horiz-adv-x="408" 
d="M340 731l-41 -291h71l-6 -43h-71l-17 -121h-47l18 121h-215l6 46l254 288h48zM251 440l31 222l-195 -222h164z" />
    <glyph glyph-name="five.numr" horiz-adv-x="392" 
d="M395 731l-10 -41h-224l-35 -161q35 17 59.5 25.5t56.5 8.5q64 0 102.5 -35t29.5 -103q-10 -72 -64 -113.5t-131 -41.5q-47 0 -86.5 18t-63.5 51l38 28q27 -30 50 -43.5t62 -13.5q60 0 98 31t45 82q7 49 -19 74.5t-73 25.5q-30 0 -55 -9.5t-60 -28.5l-5 -2q-1 0 -2 1t-3 2
l-29 18l50 227h269z" />
    <glyph glyph-name="six.numr" horiz-adv-x="396" 
d="M334.5 722q31.5 -23 39.5 -60l-41 -15q-14 29 -32.5 43.5t-54.5 14.5q-65 0 -107 -60t-54 -174q17 38 55 61t81 23q67 0 99.5 -39t24.5 -98q-9 -63 -57.5 -101.5t-114.5 -38.5q-78 0 -114 60t-21 167q16 113 72 176.5t141 63.5q52 0 83.5 -23zM129 491.5
q-35 -23.5 -41 -63.5q2 -54 25.5 -82t65.5 -28q44 0 77 27.5t39 70.5q6 42 -17 70.5t-67 28.5q-47 0 -82 -23.5z" />
    <glyph glyph-name="seven.numr" horiz-adv-x="357" 
d="M399 730l-7 -47q-74 -86 -145.5 -211t-91.5 -197h-52q26 79 89 195t150 219h-263l6 41h314z" />
    <glyph glyph-name="eight.numr" horiz-adv-x="392" 
d="M342 705.5q35 -34.5 27 -90.5q-9 -64 -85 -105q23 -9 38.5 -18t28.5 -32.5t8 -60.5q-8 -58 -59 -92t-128 -34q-75 0 -114.5 31.5t-31.5 87.5q5 33 29.5 64t71.5 51q-69 30 -58 102q8 56 56 93.5t115 37.5t102 -34.5zM158 675.5q-33 -24.5 -38 -61.5q-8 -59 56 -73l62 -15
q12 -3 31 10.5t35 35t20 44.5q5 38 -19.5 61t-69.5 23q-44 0 -77 -24.5zM267.5 335.5q34.5 23.5 40.5 61.5q4 30 -9.5 48t-47.5 26l-79 20q-13 3 -35 -9t-40.5 -35t-22.5 -50q-6 -40 22 -62.5t85 -22.5q52 0 86.5 23.5z" />
    <glyph glyph-name="nine.numr" horiz-adv-x="396" 
d="M65 297q-32 23 -40 60l41 15q12 -28 30.5 -43t54.5 -15q63 0 105.5 52t56.5 155l3 28q-17 -40 -54 -63t-83 -23q-67 0 -100 39t-25 99q9 63 57.5 101.5t114.5 38.5q78 0 114 -59.5t21 -167.5q-16 -114 -72 -177t-141 -63q-51 0 -83 23zM269 528q36 25 41 63
q-5 110 -90 110q-44 0 -76 -27.5t-38 -70.5q-6 -42 16 -71t66 -29q45 0 81 25z" />
    <glyph glyph-name="comma.tf" horiz-adv-x="286" 
d="M102 -1l-41 1l14 100h104l-12 -86l-98 -134h-39z" />
    <glyph glyph-name="period.tf" horiz-adv-x="286" 
d="M152 0h-93l14 103h93z" />
    <glyph glyph-name="bullet.uc" horiz-adv-x="308" 
d="M86.5 305.5q-21.5 25.5 -16.5 62.5q5 36 34 62t65 26q37 0 59 -26t17 -62q-5 -37 -34.5 -62.5t-66.5 -25.5q-36 0 -57.5 25.5z" />
    <glyph glyph-name="caroncomb.alt" horiz-adv-x="0" 
d="M-65 540.5q-2 2.5 0 5.5l40 70q3 6 2 8.5t-5 3.5l-7 1q-6 1 -7.5 2.5t-0.5 6.5l10 77q1 8 10 8h53q7 0 6 -7l-13 -87q0 -2 -0.5 -3t-0.5 -2l-44 -78q-3 -5 -7 -6.5t-11 -1.5h-20q-3 0 -5 2.5z" />
    </font>
</defs>
</svg>
