<?xml version="1.0" standalone="no"?>
<!DOCTYPE svg PUBLIC "-//W3C//DTD SVG 1.1//EN" "http://www.w3.org/Graphics/SVG/1.1/DTD/svg11.dtd" >
<svg xmlns="http://www.w3.org/2000/svg" xmlns:xlink="http://www.w3.org/1999/xlink" version="1.1">
<metadata>
Created by FontForge 20170731 at Thu Oct  4 21:53:48 2018
 By Aleksey,,,
</metadata>
<defs>
<font id="CheyenneSans-Thin" horiz-adv-x="571" >
  <font-face 
    font-family="Cheyenne Sans Thin"
    font-weight="100"
    font-stretch="normal"
    units-per-em="1000"
    panose-1="0 0 2 0 0 0 0 0 0 0"
    ascent="800"
    descent="-200"
    x-height="517"
    cap-height="723"
    bbox="-317 -230 1199 985"
    underline-thickness="50"
    underline-position="-200"
    unicode-range="U+000D-FB02"
  />
<missing-glyph horiz-adv-x="711" 
d="M603 805v-938q0 -15 -7.5 -21.5t-24.5 -6.5h-436q-15 0 -21 5.5t-6 18.5v940q0 11 5 17t14 6h459q17 0 17 -21zM549 772.5q-4 4.5 -11 4.5h-344l359 -834v817q0 8 -4 12.5zM164 -107q5 -5 17 -5h335l-357 828v-808q0 -10 5 -15z" />
    <glyph glyph-name="fi" unicode="fi" horiz-adv-x="605" 
d="M338 483h-142v-483h-39v483h-123v34h123v86q0 61 26 90.5t84 29.5h76v-34h-86q-34 0 -47.5 -19t-13.5 -59v-94h142v-34zM515 647h-48v96h48v-96zM511 0h-39v517h39v-517z" />
    <glyph glyph-name="fl" unicode="fl" horiz-adv-x="641" 
d="M338 483h-142v-483h-39v483h-123v34h123v86q0 61 26 90.5t84 29.5h76v-34h-86q-34 0 -47.5 -19t-13.5 -59v-94h142v-34zM490.5 35q-23.5 34 -23.5 91v617h39v-617q0 -47 17 -69.5t41 -22.5h32v-29q-16 -4 -33 -4q-49 0 -72.5 34z" />
    <glyph glyph-name="f_f.liga" unicode="ff" horiz-adv-x="752" 
d="M338 483h-142v-483h-39v483h-123v34h123v86q0 61 26 90.5t84 29.5h76v-34h-86q-34 0 -47.5 -19t-13.5 -59v-94h142v-34zM713 483h-143v-483h-39v483h-123v34h123v86q0 61 26.5 90.5t84.5 29.5h76v-34h-86q-35 0 -48.5 -19t-13.5 -59v-94h143v-34z" />
    <glyph glyph-name="colon_one_eight_F_colon.liga" unicode="&#x3a;&#x31;&#x38;F&#x3a;" horiz-adv-x="760" 
d="M749 761q11 0 11 -12v-736q0 -13 -11 -13h-737q-12 0 -12 13v736q0 12 12 12h737zM428 259.5q25 25.5 25 60.5q0 45 -37 70q27 26 27 58q0 31 -22.5 53t-52.5 22q-33 0 -55 -22t-22 -53t27 -58q-37 -25 -37 -70q0 -35 25.5 -60.5t61.5 -25.5q35 0 60 25.5zM239 515
q0 5 -4 5h-67q-4 0 -4 -5v-26q0 -4 4 -4h36v-242q0 -4 4 -4h27q4 0 4 4v272zM608 515q0 5 -4 5h-105q-4 0 -4 -5v-272q0 -4 4 -4h26q6 0 6 4v124h61q4 0 4 4v25q0 5 -4 5h-61v84h73q4 0 4 4v26zM338 419q-12 11 -12 29q0 17 12 29t30 12q17 0 28.5 -12t11.5 -29
q0 -18 -11.5 -29t-28.5 -11q-18 0 -30 11zM403.5 356.5q14.5 -14.5 14.5 -36.5q0 -21 -14.5 -36t-35.5 -15q-22 0 -37 15t-15 36q0 22 15 36.5t37 14.5q21 0 35.5 -14.5z" />
    <glyph glyph-name="colon_f_l_a_g_two_colon.liga" unicode="&#x3a;flag&#x32;&#x3a;" horiz-adv-x="1145" 
d="M1106 761v-760h-1067v760h1067zM1043 698h-535v-53h535v53zM196 585v59h-62v-59h62zM430 585v59h-61v-59h61zM313 527v58h-61v-58h61zM1043 528v55h-535v-55h535zM196 468v59h-61v-59h61zM369 527v-59h61v59h-61zM252 468v-58h61v58h-61zM1043 411v55h-535v-55h535z
M135 410v-59h61v59h-61zM369 410v-59h61v59h-61zM1043 294v55h-535v-55h535zM100 232v-55h943v55h-943zM1043 63v52h-942v-52h942z" />
    <glyph glyph-name="colon_f_l_a_g_colon.liga" unicode="&#x3a;flag&#x3a;" horiz-adv-x="1145" 
d="M1106 761v-760h-1067v760h1067zM97 702v-409h950v58h-540v59h540v58h-540v59h540v58h-540v59h540v58h-950zM214 585h-58v59h58v-59zM448 585h-58v59h58v-59zM331 527h-58v58h58v-58zM214 468h-58v59h58v-59zM448 468h-58v59h58v-59zM331 410h-58v58h58v-58zM214 351h-58
v59h58v-59zM448 351h-58v59h58v-59zM97 234v-58h950v58h-950zM1047 59v58h-950v-58h950z" />
    <glyph glyph-name=".notdef" horiz-adv-x="711" 
d="M603 805v-938q0 -15 -7.5 -21.5t-24.5 -6.5h-436q-15 0 -21 5.5t-6 18.5v940q0 11 5 17t14 6h459q17 0 17 -21zM549 772.5q-4 4.5 -11 4.5h-344l359 -834v817q0 8 -4 12.5zM164 -107q5 -5 17 -5h335l-357 828v-808q0 -10 5 -15z" />
    <glyph glyph-name="uni0000" horiz-adv-x="29" 
 />
    <glyph glyph-name="uni0000" horiz-adv-x="29" 
 />
    <glyph glyph-name="nonmarkingreturn" unicode="&#xd;" horiz-adv-x="231" 
 />
    <glyph glyph-name="space" unicode=" " horiz-adv-x="275" 
 />
    <glyph glyph-name="exclam" unicode="!" horiz-adv-x="226" 
d="M129 144h-32l-9 579h51zM143 0h-60v77h60v-77z" />
    <glyph glyph-name="quotedbl" unicode="&#x22;" horiz-adv-x="362" 
d="M270 536h-33l-20 187h75zM134 536h-33l-20 187h75z" />
    <glyph glyph-name="numbersign" unicode="#" horiz-adv-x="588" 
d="M431 449l-26 -168h107v-37h-112l-38 -245l-37 6l37 239h-160l-38 -245l-37 6l37 239h-120v37h126l26 168h-120v37h125l37 238l37 -5l-36 -233h160l37 238l37 -5l-36 -233h107v-37h-113zM394 449h-161l-26 -168h161z" />
    <glyph glyph-name="dollar" unicode="$" horiz-adv-x="560" 
d="M496 73q-25 -39 -70 -61t-103 -22q-8 0 -8 -6v-75h-37v81q-88 0 -145.5 32t-97.5 98l33 20q43 -56 90 -82t120 -26v307q-84 36 -128.5 64t-64.5 61t-20 81q0 78 57 129.5t148 58.5q7 0 7 7v61h37v-68q62 -6 110 -31.5t91 -69.5l-36 -27q-24 33 -65.5 55.5t-90.5 28.5h-2
q-7 0 -7 -7v-310l37 -16q88 -40 129 -84t41 -111q0 -49 -25 -88zM281 690q-36 0 -75 -17t-66 -50.5t-27 -80.5q0 -43 26.5 -73t51 -42.5t86.5 -40.5zM429 69.5q44 37.5 44 95.5q0 54 -36.5 90.5t-121.5 70.5v-294q70 0 114 37.5z" />
    <glyph glyph-name="percent" unicode="%" horiz-adv-x="875" 
d="M338 680q43 -54 43 -153q0 -100 -43 -154t-115 -54t-116 54t-44 154q0 99 44 153t116 54t115 -54zM230 -4h-39l488 735h37zM312.5 398q34.5 50 34.5 129q0 78 -34.5 128t-90.5 50t-90.5 -50t-34.5 -128t34.5 -128.5t90.5 -50.5t90.5 50zM769 352q43 -54 43 -153
q0 -101 -43 -155t-115 -54t-116 54t-44 155q0 99 44 153t116 54t115 -54zM717.5 43.5q28.5 23.5 44.5 64t16 90.5t-16 90.5t-44.5 64t-64.5 23.5t-64.5 -23.5t-44.5 -64.5t-16 -90q0 -50 16 -90.5t44.5 -64t64.5 -23.5t64.5 23.5z" />
    <glyph glyph-name="ampersand" unicode="&#x26;" horiz-adv-x="632" 
d="M352 715.5q40 -18.5 64.5 -53t24.5 -79.5q0 -108 -182 -199l204 -238q26 26 51 84.5t27 137.5h33q-2 -83 -24 -140t-64 -109l101 -119h-48l-79 90q-101 -95 -218 -95q-93 0 -148 51.5t-55 135.5q0 67 39.5 119.5t121.5 96.5q-47 48 -70 94t-23 93q0 41 20 75t56.5 54
t82.5 20t86 -18.5zM179 664q-31 -32 -31 -78q0 -43 24 -85t50 -70l15 -17q96 53 129.5 91.5t33.5 79.5q0 57 -39.5 84t-94.5 27q-56 0 -87 -32zM118 284q-38 -48 -38 -106q0 -64 47.5 -105t118.5 -41q53 0 102.5 23.5t89.5 62.5l-215 251q-67 -37 -105 -85z" />
    <glyph glyph-name="quotesingle" unicode="'" horiz-adv-x="241" 
d="M136 536h-33l-20 187h75z" />
    <glyph glyph-name="parenleft" unicode="(" horiz-adv-x="274" 
d="M163.5 504q-32.5 -115 -32.5 -227q0 -110 26.5 -217.5t80.5 -220.5h-24q-66 113 -98.5 216t-32.5 223q0 118 38.5 233t104.5 212h24q-54 -104 -86.5 -219z" />
    <glyph glyph-name="parenright" unicode=")" horiz-adv-x="284" 
d="M110.5 504q32.5 -115 32.5 -227q0 -110 -26.5 -217.5t-80.5 -220.5h24q66 113 98.5 216t32.5 223q0 118 -38.5 233t-104.5 212h-24q54 -104 86.5 -219z" />
    <glyph glyph-name="asterisk" unicode="*" horiz-adv-x="319" 
d="M166 560l-77 -120l-32 21l86 111l-116 34l11 32l112 -41l-7 126h41l-5 -126l113 47l10 -31l-114 -40l83 -105l-32 -24z" />
    <glyph glyph-name="plus" unicode="+" horiz-adv-x="527" 
d="M459 345h-176v-177h-37v176h-178v37h177v178h37v-177h177v-37z" />
    <glyph glyph-name="comma" unicode="," horiz-adv-x="204" 
d="M93 0h-36v80h83v-68l-69 -123h-32z" />
    <glyph glyph-name="hyphen" unicode="-" horiz-adv-x="371" 
d="M303 240l-235 -1v39l235 1v-39z" />
    <glyph glyph-name="period" unicode="." horiz-adv-x="187" 
d="M124 0h-61v77h61v-77z" />
    <glyph glyph-name="slash" unicode="/" horiz-adv-x="320" 
d="M263 723h42l-248 -782h-42z" />
    <glyph glyph-name="zero" unicode="0" horiz-adv-x="617" 
d="M438 691.5q57 -41.5 90 -125.5t33 -206t-33 -205t-90 -124t-130 -41t-129.5 40.5t-89 123.5t-32.5 204q0 122 33 206.5t90 126.5t129 42t129 -41.5zM461 112.5q56 81.5 56 247.5q0 167 -57 249.5t-151 82.5t-151.5 -83t-57.5 -249q0 -165 57.5 -247t152.5 -82t151 81.5z
" />
    <glyph glyph-name="one" unicode="1" horiz-adv-x="365" 
d="M192 669l-150 -60v39l151 75h42v-723h-43v669z" />
    <glyph glyph-name="two" unicode="2" horiz-adv-x="546" 
d="M48 50l239 246q81 83 115 135.5t34 109.5q0 53 -26 86.5t-64 48.5t-78 15q-57 0 -107 -24.5t-83 -75.5l-31 28q39 58 96.5 86t128.5 28q57 0 103.5 -22t74 -65t27.5 -104q0 -45 -16.5 -84.5t-51.5 -84t-100 -110.5l-218 -222h394v-41h-437v50z" />
    <glyph glyph-name="three" unicode="3" horiz-adv-x="605" 
d="M175 707q58 26 121 26q67 0 118.5 -23.5t79.5 -64.5t28 -91q0 -119 -144 -170q81 -22 123.5 -71.5t42.5 -118.5q0 -56 -30 -102.5t-89 -74t-142 -27.5q-71 0 -125 22.5t-106 75.5l32 29q43 -46 92.5 -66t111.5 -20q99 0 155.5 44.5t56.5 115.5q0 54 -31 92.5t-80 58
t-104 19.5h-97v39h80q58 0 106 20t76 55t28 79q0 39 -23 70.5t-64 49.5t-93 18q-60 0 -103.5 -21.5t-81.5 -63.5l-30 29q34 45 92 71z" />
    <glyph glyph-name="four" unicode="4" horiz-adv-x="611" 
d="M444 723v-473h116v-41h-116v-209h-39v209h-348v49l344 465h43zM401 250v406l-302 -406h302z" />
    <glyph glyph-name="five" unicode="5" horiz-adv-x="631" 
d="M532 723l-5 -40h-361l-23 -293q49 30 89.5 46t97.5 16q62 0 115 -22.5t85.5 -70.5t32.5 -122q0 -76 -35 -132t-96 -85.5t-137 -29.5q-66 0 -126.5 24t-108.5 73l28 30q50 -46 93 -67t107 -21q71 0 123.5 26t80 73t27.5 108q0 89 -54 133t-135 44q-55 0 -100 -19t-94 -50
q-4 -3 -5.5 -3.5t-3 1t-4.5 3.5l-27 18l28 360h408z" />
    <glyph glyph-name="six" unicode="6" horiz-adv-x="588" 
d="M525 636l-28 -31q-23 32 -43 51.5t-50 32.5t-74 13q-110 0 -170 -98.5t-60 -291.5l1 -40q16 73 74.5 117t136.5 44q71 0 121 -29t75 -79t25 -110q0 -66 -29.5 -115.5t-81 -75.5t-116.5 -26q-118 0 -184.5 95t-66.5 269q0 118 32.5 203t94 130.5t148.5 45.5
q131 0 195 -105zM176.5 349q-56.5 -43 -56.5 -120q39 -190 189 -190q52 0 93 22t64 62t23 90q0 47 -20.5 88t-59.5 66t-92 25q-84 0 -140.5 -43z" />
    <glyph glyph-name="seven" unicode="7" horiz-adv-x="562" 
d="M520 723v-40q-67 -99 -131.5 -231.5t-110 -256t-60.5 -195.5h-47q29 130 108 322t187 361h-424v40h478z" />
    <glyph glyph-name="eight" unicode="8" horiz-adv-x="607" 
d="M463.5 679q60.5 -54 60.5 -144q0 -51 -22.5 -88t-44 -54t-47.5 -33q4 -2 43 -15.5t71 -56.5t32 -105q0 -57 -32 -101t-89.5 -68t-133.5 -24q-117 0 -183 50.5t-66 139.5q0 50 30 102t107 89q-39 13 -78.5 49.5t-39.5 111.5q0 57 30.5 103t83.5 72t118 26q100 0 160.5 -54
zM208 671q-43 -21 -67.5 -57.5t-24.5 -81.5q0 -108 121 -132l114 -25q19 -4 50.5 20t54.5 64t23 81q0 69 -48 110.5t-128 41.5q-52 0 -95 -21zM454.5 73.5q57.5 42.5 57.5 112.5q0 55 -29 87t-90 46l-148 33q-20 5 -56.5 -17.5t-64.5 -64t-28 -89.5q0 -70 54.5 -110
t151.5 -40q95 0 152.5 42.5z" />
    <glyph glyph-name="nine" unicode="9" horiz-adv-x="588" 
d="M60 96l28 30q23 -32 43 -51.5t50 -32.5t73 -13q111 0 171 98.5t60 291.5l-1 40q-16 -73 -75 -117t-136 -44q-71 0 -121 29.5t-75 79t-25 110.5q0 66 29.5 115t81 75t116.5 26q118 0 184.5 -94.5t66.5 -268.5q0 -118 -32.5 -203.5t-94.5 -131t-149 -45.5q-131 0 -194 106z
M367 359.5q45 20.5 71.5 57.5t26.5 85q-39 190 -189 190q-52 0 -93 -22t-64 -61.5t-23 -89.5q0 -48 20.5 -89t59.5 -66t92 -25q54 0 99 20.5z" />
    <glyph glyph-name="colon" unicode=":" horiz-adv-x="187" 
d="M124 410h-61v78h61v-78zM124 3h-61v77h61v-77z" />
    <glyph glyph-name="semicolon" unicode=";" horiz-adv-x="218" 
d="M65 488h61v-78h-61v78zM98 0h-28v77h61v-68l-61 -140h-21z" />
    <glyph glyph-name="less" unicode="&#x3c;" horiz-adv-x="520" 
d="M446 174l-383 151v47l384 155v-49l-324 -129l323 -130v-45z" />
    <glyph glyph-name="equal" unicode="=" horiz-adv-x="527" 
d="M459 443l-391 -1v37l391 1v-37zM459 228l-391 -1v37l391 1v-37z" />
    <glyph glyph-name="greater" unicode="&#x3e;" horiz-adv-x="520" 
d="M397 349l-324 129v49l383 -155v-47l-382 -151v45z" />
    <glyph glyph-name="question" unicode="?" horiz-adv-x="508" 
d="M128.5 699q59.5 34 129.5 34q94 0 150 -48t56 -129q0 -41 -14 -75t-34 -61t-54 -65q-35 -40 -55.5 -67.5t-34.5 -63t-14 -78.5h-41q0 48 15 87t36.5 68.5t56.5 69.5q47 54 70.5 94t23.5 91q0 63 -43.5 99.5t-117.5 36.5q-57 0 -110 -31t-70 -72l-41 19q32 57 91.5 91z
M268 0h-60v77h60v-77z" />
    <glyph glyph-name="at" unicode="@" horiz-adv-x="813" 
d="M426 -110q-114 0 -199 48.5t-130 131.5t-45 184q0 105 49.5 194.5t137.5 142.5t199 53q87 0 164.5 -34t126 -104.5t48.5 -173.5q0 -73 -24.5 -131t-67 -90t-94.5 -32q-37 0 -56.5 12.5t-26.5 43.5q-1 7 -4 7q-2 0 -7 -5q-51 -72 -139 -72q-34 0 -64 21.5t-48.5 61
t-18.5 89.5q0 63 24 114.5t65.5 81.5t93.5 30q39 0 69.5 -18.5t47.5 -51.5q1 -2 3 -1t3 4l11 42h41l-38 -229q-3 -21 -3 -35q0 -29 11.5 -41t36.5 -12q37 0 68.5 26t49.5 72.5t18 106.5q0 93 -43 155.5t-109.5 92t-138.5 29.5q-101 0 -177.5 -47.5t-118.5 -127.5t-42 -176
q0 -87 38.5 -159.5t115 -116t185.5 -43.5q60 0 97 15.5t87 50.5l26 -34q-102 -75 -222 -75zM299 142.5q23 -34.5 64 -34.5q52 0 93.5 44t52.5 107q3 21 3 38q0 60 -29.5 91.5t-70.5 31.5q-61 0 -98.5 -52.5t-37.5 -129.5q0 -61 23 -95.5z" />
    <glyph glyph-name="A" unicode="A" horiz-adv-x="684" 
d="M315 723h55l264 -723h-43l-83 228h-331l-85 -228h-42zM493 271l-150 410l-152 -410h302z" />
    <glyph glyph-name="B" unicode="B" horiz-adv-x="653" 
d="M108 723h203q122 0 189 -48.5t67 -138.5q0 -64 -33.5 -105.5t-109.5 -63.5q80 -13 120.5 -57.5t40.5 -116.5q0 -95 -70.5 -144t-200.5 -49h-206v723zM323 386q84 0 144.5 32.5t60.5 112.5q0 77 -59 114.5t-162 37.5h-160v-297h176zM309 41q119 0 178 34.5t59 111.5
q0 82 -61.5 120t-161.5 38h-176v-304h162z" />
    <glyph glyph-name="C" unicode="C" horiz-adv-x="659" 
d="M469.5 706q56.5 -27 90 -72t39.5 -98l-43 -7q-15 74 -69 118.5t-143 44.5q-119 0 -179.5 -85t-60.5 -248q0 -160 61.5 -244t186.5 -84q75 0 129.5 40.5t71.5 112.5l42 -11q-5 -51 -41 -93t-90.5 -66t-113.5 -24q-140 0 -215 96t-75 273q0 178 73 276t209 98
q71 0 127.5 -27z" />
    <glyph glyph-name="D" unicode="D" horiz-adv-x="664" 
d="M228 722q199 -1 288 -86.5t89 -268.5q0 -190 -95 -278.5t-296 -88.5h-106v723zM151 41h60q180 0 266 74.5t86 247.5q0 122 -39.5 191.5t-115 98.5t-191.5 29h-66v-641z" />
    <glyph glyph-name="E" unicode="E" horiz-adv-x="608" 
d="M108 723h415v-40h-376v-297h350v-41h-350v-303l390 -1v-41h-429v723z" />
    <glyph glyph-name="F" unicode="F" horiz-adv-x="563" 
d="M517 723v-40h-366v-296h340v-41h-340v-346h-43v723h409z" />
    <glyph glyph-name="G" unicode="G" horiz-adv-x="705" 
d="M193 33.5q-65 43.5 -99 126.5t-34 199q0 118 35 202.5t100 128t154 43.5q59 0 114.5 -26.5t92 -71.5t41.5 -97l-46 -8q-7 45 -35.5 82t-72 58.5t-94.5 21.5q-117 0 -182.5 -86.5t-65.5 -240.5q0 -162 64.5 -249t183.5 -87q72 0 123 34t76 85t25 101v84h-202v35h241v-368
h-39v126q-31 -61 -88 -98.5t-137 -37.5q-90 0 -155 43.5z" />
    <glyph glyph-name="H" unicode="H" horiz-adv-x="693" 
d="M147 356v-356h-39v723h39v-326h399v326h39v-723h-39v356h-399z" />
    <glyph glyph-name="I" unicode="I" horiz-adv-x="255" 
d="M147 723v-723h-39v723h39z" />
    <glyph glyph-name="J" unicode="J" horiz-adv-x="364" 
d="M228.5 28q-27.5 -38 -94.5 -38q-37 0 -69 10.5t-41 18.5l10 43q7 -3 22.5 -11.5t34 -14t41.5 -5.5q47 0 66 27.5t19 95.5v569h39v-583q0 -74 -27.5 -112z" />
    <glyph glyph-name="K" unicode="K" horiz-adv-x="643" 
d="M552 0l-260 407l-143 -159v-248h-41v723h41v-417l384 417h54l-261 -285l278 -438h-52z" />
    <glyph glyph-name="L" unicode="L" horiz-adv-x="554" 
d="M151 723v-680h369v-43h-412v723h43z" />
    <glyph glyph-name="M" unicode="M" horiz-adv-x="849" 
d="M108 723h44l271 -679l275 679h43v-723h-43v616l-246 -616h-58l-243 608v-608h-43v723z" />
    <glyph glyph-name="N" unicode="N" horiz-adv-x="722" 
d="M614 723v-723h-34l-433 643v-643h-39v723h32l435 -645v645h39z" />
    <glyph glyph-name="O" unicode="O" horiz-adv-x="707" 
d="M137.5 85q-77.5 95 -77.5 273q0 181 78 278t217 97q138 0 215 -96.5t77 -276.5q0 -179 -77 -274.5t-216 -95.5t-216.5 95zM540.5 113q62.5 82 62.5 247q0 166 -63.5 249t-184.5 83q-122 0 -186.5 -83.5t-64.5 -248.5q0 -164 64.5 -246.5t187.5 -82.5q122 0 184.5 82z" />
    <glyph glyph-name="P" unicode="P" horiz-adv-x="625" 
d="M108 723h223q121 0 190.5 -48t69.5 -152t-68.5 -155t-185.5 -51h-186v-317h-43v723zM337 360q99 0 154.5 40t55.5 126q0 85 -55.5 120t-161.5 35h-179v-321h186z" />
    <glyph glyph-name="Q" unicode="Q" horiz-adv-x="711" 
d="M135.5 637q77.5 96 216.5 96t216 -95.5t77 -277.5q0 -128 -38.5 -212.5t-123.5 -129.5q45 -92 153 -97v-40q-49 0 -105.5 27t-90.5 93q-50 -11 -88 -11q-137 0 -215.5 94.5t-78.5 275.5t77.5 277zM166 112.5q64 -81.5 186 -81.5t186 82t64 247q0 163 -64 247.5t-186 84.5
t-186 -85t-64 -249t64 -245.5z" />
    <glyph glyph-name="R" unicode="R" horiz-adv-x="660" 
d="M536 0l-146 344h-243v-344h-39v723h255q106 0 164 -45.5t58 -133.5q0 -82 -45 -128.5t-109 -62.5l150 -353h-45zM489.5 421q53.5 36 53.5 116q0 76 -45.5 111t-135.5 35h-215v-298h182q107 0 160.5 36z" />
    <glyph glyph-name="S" unicode="S" horiz-adv-x="646" 
d="M151.5 37.5q-75.5 47.5 -91.5 129.5l42 9q16 -70 79.5 -108.5t147.5 -38.5q62 0 111 18.5t76 52t27 75.5q0 59 -31.5 96t-100.5 54l-161 40q-82 20 -124.5 61.5t-42.5 105.5q0 57 30 102.5t85 71.5t127 26q115 0 177 -55t70 -137l-40 -8q-14 83 -71 121t-138 38
q-46 0 -91.5 -17.5t-75.5 -53t-30 -87.5q0 -49 34.5 -82t116.5 -54l154 -40q155 -39 155 -180q0 -52 -29 -94.5t-87 -67.5t-141 -25q-102 0 -177.5 47.5z" />
    <glyph glyph-name="T" unicode="T" horiz-adv-x="545" 
d="M15 723h515v-40h-228v-683h-39v683h-248v40z" />
    <glyph glyph-name="U" unicode="U" horiz-adv-x="695" 
d="M527.5 48q-59.5 -58 -180.5 -58q-123 0 -181 60.5t-58 188.5v484h43v-501q0 -194 196 -194q201 0 201 194v501h39v-499q0 -118 -59.5 -176z" />
    <glyph glyph-name="V" unicode="V" horiz-adv-x="605" 
d="M329 0h-58l-256 723h43l242 -682l249 682h42z" />
    <glyph glyph-name="W" unicode="W" horiz-adv-x="942" 
d="M705 0h-55l-181 648l-185 -648h-52l-203 723h44l185 -674l192 674h39l189 -674l192 674h43z" />
    <glyph glyph-name="X" unicode="X" horiz-adv-x="610" 
d="M531 0l-226 332l-226 -332h-50l250 371l-239 352h52l212 -315l214 315h50l-238 -352l251 -371h-50z" />
    <glyph glyph-name="Y" unicode="Y" horiz-adv-x="539" 
d="M291 311v-311h-39v312l-242 411h44l218 -372l214 372h43z" />
    <glyph glyph-name="Z" unicode="Z" horiz-adv-x="588" 
d="M56 31l425 653h-416v39h467v-30l-427 -654h427v-39h-476v31z" />
    <glyph glyph-name="bracketleft" unicode="[" horiz-adv-x="270" 
d="M251 723v-36h-101l-1 -812h101v-36h-142l-1 884h144z" />
    <glyph glyph-name="backslash" unicode="\" horiz-adv-x="320" 
d="M14 723h42l248 -782h-43z" />
    <glyph glyph-name="bracketright" unicode="]" horiz-adv-x="289" 
d="M24 723v-36h101l1 -812h-101v-36h142l1 884h-144z" />
    <glyph glyph-name="asciicircum" unicode="^" horiz-adv-x="464" 
d="M231 463l-130 -327h-45l142 355q14 35 33 35q20 0 33 -35l144 -357h-48z" />
    <glyph glyph-name="underscore" unicode="_" horiz-adv-x="488" 
d="M420 -98l-352 -1v39l352 1v-39z" />
    <glyph glyph-name="grave" unicode="`" horiz-adv-x="265" 
d="M257 639l-10 -31l-239 78l14 45z" />
    <glyph glyph-name="a" unicode="a" horiz-adv-x="549" 
d="M104.5 28q-44.5 38 -44.5 104q0 58 24 92t76 51.5t141 24.5l119 10v44q0 62 -39.5 98.5t-105.5 36.5q-100 0 -169 -96l-33 20q34 52 85 83t119 31q83 0 132.5 -45.5t49.5 -123.5v-358h-36l-2 80q-84 -90 -195 -90q-77 0 -121.5 38zM318.5 47.5q44.5 20.5 73 53t28.5 66.5
v107l-100 -8q-85 -6 -131.5 -19.5t-67 -39.5t-20.5 -72q0 -50 35.5 -79t95.5 -29q42 0 86.5 20.5z" />
    <glyph glyph-name="b" unicode="b" horiz-adv-x="581" 
d="M187.5 20q-42.5 30 -58.5 58l-4 -78h-35v743h39v-294q23 26 66.5 52t113.5 26q106 0 159 -74.5t53 -192.5q0 -125 -59 -197.5t-164 -72.5q-68 0 -110.5 30zM427 86q52 59 52 174q0 106 -46 167.5t-131 61.5q-51 0 -96.5 -23.5t-76.5 -60.5v-232q0 -38 24 -72t62.5 -54
t78.5 -20q81 0 133 59z" />
    <glyph glyph-name="c" unicode="c" horiz-adv-x="538" 
d="M389.5 499q43.5 -28 80.5 -84l-33 -21q-44 54 -74 74.5t-74 20.5q-86 0 -137 -63.5t-51 -167.5q0 -105 50 -168t137 -63q51 0 87 25t70 80l33 -22q-36 -61 -83.5 -90.5t-110.5 -29.5q-69 0 -119.5 33.5t-77.5 93.5t-27 139q0 80 27 141t77.5 95.5t119.5 34.5
q62 0 105.5 -28z" />
    <glyph glyph-name="d" unicode="d" horiz-adv-x="568" 
d="M116.5 56.5q-56.5 66.5 -56.5 192.5t58.5 202t163.5 76q44 0 80 -15.5t77 -48.5v280h39v-743h-37v77q-20 -22 -38 -38.5t-52.5 -32.5t-80.5 -16q-97 0 -153.5 66.5zM357.5 49q37.5 22 59.5 54.5t22 62.5v249q-37 37 -75 55.5t-81 18.5q-86 0 -134 -62.5t-48 -173.5
q0 -112 48 -169t126 -57q45 0 82.5 22z" />
    <glyph glyph-name="e" unicode="e" horiz-adv-x="552" 
d="M150.5 91.5q48.5 -62.5 141.5 -62.5q117 0 152 93l37 -16q-20 -55 -70 -85.5t-119 -30.5q-68 0 -120.5 31t-82 90.5t-29.5 142.5q0 129 58.5 201t163.5 72q99 0 154.5 -65.5t55.5 -184.5v-29h-390q0 -94 48.5 -156.5zM451 287q0 90 -43 145.5t-127 55.5q-60 0 -100 -29
t-59.5 -75t-18.5 -97h348z" />
    <glyph glyph-name="f" unicode="f" horiz-adv-x="377" 
d="M338 483h-142v-483h-39v483h-123v34h123v86q0 61 26 90.5t84 29.5h76v-34h-86q-34 0 -47.5 -19t-13.5 -59v-94h142v-34z" />
    <glyph glyph-name="g" unicode="g" horiz-adv-x="579" 
d="M105 -133q-61 38 -61 107q0 42 24 69t45 40.5t26 17.5q-3 2 -16 10t-20 19t-7 25q0 21 20 38.5t57 28.5q-49 26 -69 57.5t-20 80.5q0 77 54 121t151 44q47 0 81.5 -12t65.5 -37l56 24l56 24v-58l-92 -20q9 -16 16 -41.5t7 -44.5q0 -69 -49.5 -112.5t-147.5 -43.5h-11
q-71 -1 -102.5 -15t-31.5 -33q0 -16 22.5 -23.5t84.5 -12.5l117 -7q150 -9 150 -132q0 -73 -61 -112.5t-172 -39.5q-112 0 -173 38zM440 362q0 61 -40 93.5t-117 32.5q-76 0 -118 -33t-42 -93q0 -59 41 -90t119 -31q157 0 157 121zM470 -19q0 42 -25.5 65t-84.5 27l-172 11
q-17 1 -41.5 -13t-43 -38.5t-18.5 -54.5q0 -54 53 -83t149 -29q183 0 183 115z" />
    <glyph glyph-name="h" unicode="h" 
d="M90 743h36v-303q67 49 106.5 68t90.5 19q76 0 117 -39t41 -105v-383h-39v368q0 121 -120 121q-49 0 -88 -19.5t-105 -69.5v-400h-39v743z" />
    <glyph glyph-name="i" unicode="i" horiz-adv-x="228" 
d="M138 647h-48v96h48v-96zM134 0h-39v517h39v-517z" />
    <glyph glyph-name="j" unicode="j" horiz-adv-x="256" 
d="M154 647h-49v96h49v-96zM126 -139.5q-23 -26.5 -87 -26.5q-36 0 -49.5 3.5t-13.5 5.5v26l62 1q39 1 55.5 20t16.5 65v562h39v-567q0 -63 -23 -89.5z" />
    <glyph glyph-name="k" unicode="k" horiz-adv-x="538" 
d="M449 0l-184 296l-136 -138v-158h-39v743h39v-529l296 303h55l-185 -188l204 -329h-50z" />
    <glyph glyph-name="l" unicode="l" horiz-adv-x="264" 
d="M113.5 35q-23.5 34 -23.5 91v617h39v-617q0 -47 17 -69.5t41 -22.5h32v-29q-16 -4 -33 -4q-49 0 -72.5 34z" />
    <glyph glyph-name="m" unicode="m" horiz-adv-x="884" 
d="M90 517h36v-77q21 38 61 62.5t96 24.5q61 0 106 -22.5t62 -63.5q49 86 164 86q76 0 127.5 -40t51.5 -152v-335h-39v335q0 87 -37 120.5t-103 33.5q-63 0 -108.5 -30t-45.5 -99v-360h-39v376q0 55 -39 84t-101 29q-36 0 -71 -13.5t-58.5 -42.5t-23.5 -73v-360h-39v517z
" />
    <glyph glyph-name="n" unicode="n" 
d="M90 517h36v-77q21 38 67 62.5t107 24.5q81 0 131 -48.5t50 -143.5v-335h-39v335q0 74 -37.5 114t-104.5 40q-74 0 -122.5 -33t-48.5 -96v-360h-39v517z" />
    <glyph glyph-name="o" unicode="o" horiz-adv-x="565" 
d="M118.5 62.5q-58.5 72.5 -58.5 192.5q0 80 26.5 141.5t77 96t120.5 34.5q69 0 119 -34t76 -95.5t26 -140.5q0 -121 -58.5 -194t-163.5 -73q-106 0 -164.5 72.5zM418.5 88.5q45.5 61.5 45.5 168.5t-46.5 169.5t-133.5 62.5q-88 0 -135.5 -63t-47.5 -169q0 -105 47.5 -167.5
t136.5 -62.5q88 0 133.5 61.5z" />
    <glyph glyph-name="p" unicode="p" horiz-adv-x="580" 
d="M90 517h37v-77q2 2 21 26t59.5 42.5t89.5 18.5q64 0 114.5 -29.5t79.5 -87.5t29 -142q0 -82 -28.5 -145t-81.5 -98t-124 -35q-45 0 -82 14t-75 46v-211h-39v678zM385 55.5q44 28.5 69 82.5t25 126q0 74 -25.5 125t-68 75.5t-93.5 24.5q-46 0 -83.5 -20.5t-58.5 -52
t-21 -61.5v-254q38 -36 75.5 -55t80.5 -19q56 0 100 28.5z" />
    <glyph glyph-name="q" unicode="q" horiz-adv-x="580" 
d="M451 -161v211q-39 -32 -76 -46t-81 -14q-71 0 -124 34.5t-81.5 97.5t-28.5 146q0 84 29 142.5t79 87.5t114 29q49 0 84 -16t47 -27.5t40 -43.5v77h37v-678h-39zM374.5 46q37.5 19 76.5 55v254q0 30 -21.5 61t-59 52t-83.5 21q-51 0 -93 -24.5t-67.5 -75.5t-25.5 -125
q0 -72 25 -126t69 -82.5t100 -28.5q42 0 79.5 19z" />
    <glyph glyph-name="r" unicode="r" horiz-adv-x="357" 
d="M90 517h36v-93q29 44 87 73.5t110 29.5v-40q-43 0 -88.5 -21.5t-75.5 -56t-30 -67.5v-342h-39v517z" />
    <glyph glyph-name="s" unicode="s" horiz-adv-x="497" 
d="M116.5 27q-49.5 37 -62.5 96l37 15q31 -111 154 -111q64 0 110.5 29t46.5 78q0 77 -86 98l-120 28q-65 16 -93.5 46.5t-28.5 75.5q0 70 48 107.5t129 37.5q85 0 131 -39.5t51 -99.5l-38 -9q-11 57 -49 83.5t-96 26.5q-56 0 -95.5 -25t-39.5 -82q0 -29 19.5 -50t72.5 -35
l123 -32q59 -15 86 -49.5t27 -81.5q0 -40 -24.5 -73t-69.5 -52t-104 -19q-79 0 -128.5 37z" />
    <glyph glyph-name="t" unicode="t" horiz-adv-x="361" 
d="M179 483v-362q0 -51 14 -69t46 -18h66v-29q-16 -5 -63 -5q-58 0 -80 26.5t-22 89.5v367h-84v34h84v175h39v-175h119v-34h-119z" />
    <glyph glyph-name="u" unicode="u" 
d="M194 8.5q-45 17.5 -74.5 58.5t-29.5 107v345h39v-345q0 -77 47 -111t106 -34q42 0 78 17t59 51.5t23 84.5v337h39v-518h-36v85q-8 -22 -32 -44t-57 -36.5t-69 -14.5q-48 0 -93 17.5z" />
    <glyph glyph-name="v" unicode="v" horiz-adv-x="513" 
d="M278 0h-43l-209 517h42l189 -469l190 469h39z" />
    <glyph glyph-name="w" unicode="w" horiz-adv-x="758" 
d="M578 0h-54l-145 450l-134 -450h-56l-158 517h42l144 -474l144 474h36l152 -472l137 472h41z" />
    <glyph glyph-name="x" unicode="x" horiz-adv-x="501" 
d="M427 0l-177 237l-176 -237h-49l200 268l-185 249h49l161 -218l162 218h49l-185 -249l200 -268h-49z" />
    <glyph glyph-name="y" unicode="y" horiz-adv-x="491" 
d="M57.5 -161.5q-15.5 3.5 -15.5 4.5v27h55q45 0 68.5 17t36.5 47l26 69l-202 514h42l181 -461l178 461h38l-226 -592q-36 -90 -135 -90q-31 0 -46.5 3.5z" />
    <glyph glyph-name="z" unicode="z" horiz-adv-x="467" 
d="M49 38l326 445h-305v34h346v-41l-324 -442h331v-34h-374v38z" />
    <glyph glyph-name="braceleft" unicode="{" horiz-adv-x="270" 
d="M144.5 699q26.5 24 78.5 24h28v-36h-28q-34 0 -48 -12t-14 -39v-227q0 -57 -25.5 -88.5t-66.5 -35.5q-6 -1 -6.5 -3.5t6.5 -3.5q41 -3 66.5 -33t25.5 -87v-229q0 -29 13.5 -41.5t49.5 -12.5h27v-36h-27q-55 0 -80.5 24.5t-25.5 65.5v229q0 25 -13 49t-39 39.5t-61 15.5
v38q55 1 84 31.5t29 77.5v227q0 39 26.5 63z" />
    <glyph glyph-name="bar" unicode="|" horiz-adv-x="254" 
d="M109 -161l-1 987h38v-987h-37z" />
    <glyph glyph-name="braceright" unicode="}" horiz-adv-x="285" 
d="M130.5 699q-26.5 24 -78.5 24h-28v-36h28q34 0 48 -12t14 -39v-227q0 -57 25.5 -88.5t66.5 -35.5q6 -1 6.5 -3.5t-6.5 -3.5q-41 -3 -66.5 -33t-25.5 -87v-229q0 -29 -13.5 -41.5t-49.5 -12.5h-27v-36h27q55 0 80.5 24.5t25.5 65.5v229q0 25 13 49t39 39.5t61 15.5v38
q-55 1 -84 31.5t-29 77.5v227q0 39 -26.5 63z" />
    <glyph glyph-name="asciitilde" unicode="~" horiz-adv-x="528" 
d="M426 339.5q-27 -12.5 -68 -12.5q-27 0 -48.5 5.5t-47.5 16.5q-24 10 -43.5 15.5t-41.5 5.5q-60 0 -103 -43l-12 32q25 22 50 34.5t62 12.5q23 0 43.5 -5.5t49.5 -16.5t49 -16.5t43 -5.5q35 0 55.5 11t38.5 30l13 -34q-13 -17 -40 -29.5z" />
    <glyph glyph-name="uni00A0" unicode="&#xa0;" horiz-adv-x="225" 
 />
    <glyph glyph-name="exclamdown" unicode="&#xa1;" horiz-adv-x="226" 
d="M83 440v77h60v-77h-60zM88 -161l9 533h32l10 -533h-51z" />
    <glyph glyph-name="cent" unicode="&#xa2;" horiz-adv-x="528" 
d="M400 133.5q-44 -29.5 -103 -32.5v-101h-40v103q-91 10 -143.5 81.5t-52.5 182.5q0 112 52.5 185.5t143.5 83.5v87h40v-85q57 -3 98 -31t76 -81l-33 -21q-44 54 -74 74.5t-74 20.5q-86 0 -137 -63.5t-51 -167.5q0 -105 50 -168t137 -63q51 0 87 25t70 80l33 -22
q-35 -58 -79 -87.5z" />
    <glyph glyph-name="sterling" unicode="&#xa3;" horiz-adv-x="582" 
d="M12 38h41q41 0 68 43.5t27 127.5q0 61 -13 140h-100v37h95l-20 75q-10 37 -10 74q0 60 26.5 105t71 69t96.5 24q39 0 76 -13.5t63 -35.5t36 -45l-37 -19q-19 35 -51.5 53t-84.5 18q-66 0 -110.5 -37t-44.5 -101q0 -36 8.5 -82t21.5 -84h176v-37h-171q14 -69 14 -124
q0 -74 -18.5 -118.5t-39.5 -68.5h213q56 0 91.5 19t52.5 64l36 -15q-22 -53 -68 -80t-112 -27h-333v38z" />
    <glyph glyph-name="currency" unicode="&#xa4;" horiz-adv-x="500" 
d="M153 229q-7 5 -12 -1l-48 -50l-28 31l53 52q-33 45 -33 103q0 54 30 95q4 7 -1 12l-48 49l29 28l53 -55q20 16 46.5 25t54.5 9q54 0 93 -30q8 -4 13 1l52 52l28 -29l-57 -57q34 -45 34 -100t-29 -93q-5 -8 1 -14l52 -49l-28 -29l-57 56q-47 -36 -102 -36q-53 0 -96 30z
M312.5 259q27.5 17 43.5 45t16 60t-16 60t-43.5 45t-61.5 17t-62 -17t-44 -45t-16 -60t16 -60t44 -45t62 -17t61.5 17z" />
    <glyph glyph-name="yen" unicode="&#xa5;" horiz-adv-x="563" 
d="M313 329h150v-37h-156v-100h156v-37h-156v-155h-45v154h-156v37h156v100h-156v37h141l-232 395h51l218 -372l220 372h45z" />
    <glyph glyph-name="brokenbar" unicode="&#xa6;" horiz-adv-x="254" 
d="M109 432l-1 394h38v-394h-37zM109 -161l-1 394h38v-394h-37z" />
    <glyph glyph-name="section" unicode="&#xa7;" horiz-adv-x="465" 
d="M126 -34.5q-56 31.5 -83 83.5l32 20q25 -44 71 -70t101 -26q58 0 94.5 23.5t36.5 65.5q0 32 -25.5 59t-89.5 53l-95 37q-111 43 -111 133q0 45 30 78.5t78 50.5q-63 31 -85.5 63t-22.5 71q0 36 22 64.5t61 45t90 16.5q56 0 102 -26.5t75 -67.5l-33 -21q-26 35 -61.5 55.5
t-77.5 20.5q-64 0 -100 -23t-36 -62q0 -29 21.5 -54t77.5 -48l88 -36q71 -30 103 -68.5t32 -86.5q0 -47 -26.5 -76t-70.5 -50q48 -27 72.5 -58t24.5 -70q0 -36 -22.5 -65.5t-63 -46t-91.5 -16.5q-62 0 -118 31.5zM319 226.5q26 12.5 42 35t16 48.5q0 41 -19 67t-75 49
l-64 25q-31 -2 -58.5 -17.5t-44.5 -39t-17 -47.5q0 -33 20 -55t77 -46l69 -30q28 -2 54 10.5z" />
    <glyph glyph-name="dieresis" unicode="&#xa8;" horiz-adv-x="176" 
d="M58 628h-48v95h48v-95zM167 628h-49v95h49v-95z" />
    <glyph glyph-name="copyright" unicode="&#xa9;" horiz-adv-x="809" 
d="M218.5 39.5q-85.5 49.5 -135.5 135t-50 187.5q0 100 50 185.5t135.5 135.5t186.5 50q100 0 185.5 -50t135.5 -135.5t50 -185.5q0 -102 -50 -187t-135 -135t-186 -50t-186.5 49.5zM567 74q75 41 120 116t45 172q0 95 -45 170.5t-120.5 117t-161.5 41.5q-89 0 -164 -41.5
t-119.5 -116.5t-44.5 -171q0 -97 44.5 -172t119.5 -116t164 -41q87 0 162 41zM494 550.5q38 -24.5 69 -68.5l-36 -21q-48 76 -117 76q-63 0 -103.5 -47.5t-40.5 -123.5q0 -77 40 -125t103 -48q40 0 73 22t53 60l31 -19q-29 -48 -70 -74.5t-89 -26.5q-54 0 -96 26t-65 73.5
t-23 109.5q0 61 23.5 109t65.5 75t95 27q49 0 87 -24.5z" />
    <glyph glyph-name="ordfeminine" unicode="&#xaa;" horiz-adv-x="421" 
d="M89 418.5q-29 23.5 -29 65.5q0 91 155 106l71 7v25q0 75 -90 75q-33 0 -55 -11.5t-42 -41.5l-31 13q17 35 51.5 54t80.5 19q57 0 89 -30t32 -82v-110q0 -32 4 -65l6 -42h-38l-8 50q-27 -29 -54.5 -42.5t-61.5 -13.5q-51 0 -80 23.5zM256 457q30 27 30 51v58l-59 -5
q-129 -10 -129 -76q0 -27 22 -43t57 -16q45 0 79 31z" />
    <glyph glyph-name="guillemotleft" unicode="&#xab;" horiz-adv-x="410" 
d="M201 76h-27l-143 175l144 183h28l-120 -183zM364 76h-27l-143 175l144 183h28l-120 -183z" />
    <glyph glyph-name="logicalnot" unicode="&#xac;" horiz-adv-x="527" 
d="M459 382v-173h-36l-1 136l-354 -1v37z" />
    <glyph glyph-name="uni00AD" unicode="&#xad;" horiz-adv-x="356" 
d="M301 240l-235 -1v39l235 1v-39z" />
    <glyph glyph-name="registered" unicode="&#xae;" horiz-adv-x="531" 
d="M148.5 299q-53.5 31 -84.5 84t-31 117t31 117t84.5 84.5t117.5 31.5q63 0 116.5 -31.5t84.5 -85t31 -116.5t-31 -116.5t-84.5 -84.5t-116.5 -31q-64 0 -117.5 31zM368 326.5q45 24.5 70 69.5t25 104t-25 104t-70 70t-102 25q-58 0 -103 -24.5t-70 -70t-25 -104.5
q0 -90 55 -144t143 -54q57 0 102 24.5zM181 614h100q35 0 53.5 -14t18.5 -42q0 -45 -50 -62l44 -113h-31l-42 111h-64v-111h-29v231zM274 522q49 0 49 32q0 33 -52 33h-61v-65h64z" />
    <glyph glyph-name="macron" unicode="&#xaf;" horiz-adv-x="265" 
d="M255 667h-245v37h245v-37z" />
    <glyph glyph-name="degree" unicode="&#xb0;" horiz-adv-x="452" 
d="M330.5 585q-41.5 -41 -104.5 -41q-64 0 -105 41t-41 105t41 105.5t105 41.5q63 0 104.5 -41.5t41.5 -105.5t-41.5 -105zM301.5 768.5q-28.5 30.5 -77.5 30.5q-47 0 -76 -30t-29 -78q0 -50 28.5 -81t77.5 -31q48 0 76.5 30.5t28.5 79.5t-28.5 79.5z" />
    <glyph glyph-name="plusminus" unicode="&#xb1;" horiz-adv-x="527" 
d="M459 450v-37h-177v-177h-36v176h-178v37h177v178h37v-177h177zM68 118l391 1v-37l-391 -1v37z" />
    <glyph glyph-name="uni00B2" unicode="&#xb2;" horiz-adv-x="370" 
d="M17 415l151 155q51 53 72 85.5t21 68.5q0 48 -32.5 71.5t-72.5 23.5q-35 0 -67 -15.5t-53 -47.5l-19 17q48 72 141 72q55 0 92 -31t37 -88q0 -41 -23 -78t-83 -99l-137 -139h248v-26h-275v31z" />
    <glyph glyph-name="uni00B3" unicode="&#xb3;" horiz-adv-x="385" 
d="M107 828.5q37 16.5 76 16.5q64 0 103 -32.5t39 -80.5q0 -75 -90 -106q51 -14 77.5 -45.5t26.5 -74.5q0 -55 -43 -91.5t-121 -36.5q-44 0 -78 14t-67 47l20 19q27 -30 58 -42.5t70 -12.5q62 0 98 28.5t36 72.5q0 50 -41 78.5t-95 28.5h-61v25h51q55 0 93.5 27.5t38.5 68.5
q0 38 -32 62.5t-82 24.5q-38 0 -65 -13.5t-51 -39.5l-19 18q21 28 58 44.5z" />
    <glyph glyph-name="acute" unicode="&#xb4;" horiz-adv-x="265" 
d="M257 686l-239 -78l-10 31l235 92z" />
    <glyph glyph-name="paragraph" unicode="&#xb6;" horiz-adv-x="534" 
d="M385 692v-775h-33v775h-43v-775h-34v379q-67 0 -116 29t-74 76t-25 100q0 57 25.5 108t76.5 82.5t124 31.5h158v-31h-59z" />
    <glyph glyph-name="periodcentered" unicode="&#xb7;" horiz-adv-x="168" 
d="M124 326h-80v77h80v-77z" />
    <glyph glyph-name="cedilla" unicode="&#xb8;" horiz-adv-x="191" 
d="M153.5 -180q-27.5 -19 -69.5 -19q-43 0 -75 23l11 28q12 -11 25.5 -16.5t34.5 -5.5q58 0 58 42q0 23 -18 34t-57 13q-6 0 -4 4l36 82h33l-25 -62q42 -3 60 -22.5t18 -46.5q0 -35 -27.5 -54z" />
    <glyph glyph-name="uni00B9" unicode="&#xb9;" horiz-adv-x="288" 
d="M96 801l-95 -38v25l95 47h27v-455h-27v421z" />
    <glyph glyph-name="ordmasculine" unicode="&#xba;" horiz-adv-x="419" 
d="M318.5 685.5q40.5 -46.5 40.5 -122.5q0 -75 -39.5 -120.5t-110.5 -45.5t-110 45.5t-39 120.5q0 76 40.5 122.5t108.5 46.5q69 0 109.5 -46.5zM128 662q-28 -36 -28 -96q0 -64 28 -100.5t81 -36.5t81.5 37t28.5 100q0 60 -28.5 96t-81.5 36t-81 -36z" />
    <glyph glyph-name="guillemotright" unicode="&#xbb;" horiz-adv-x="409" 
d="M44 434h27l144 -183l-143 -175h-26l118 175zM207 434h27l144 -183l-143 -175h-26l118 175z" />
    <glyph glyph-name="onequarter" unicode="&#xbc;" horiz-adv-x="935" 
d="M96 697l-95 -38v25l95 47h27v-455h-27v421zM186 -4h-39l488 735h37zM803 455v-298h73v-26h-73v-131h-24v131h-219v31l216 293h27zM776 157v256l-190 -256h190z" />
    <glyph glyph-name="onehalf" unicode="&#xbd;" horiz-adv-x="903" 
d="M96 697l-95 -38v25l95 47h27v-455h-27v421zM186 -4h-39l488 735h37zM550 31l151 155q50 52 71.5 85t21.5 69q0 34 -16 55t-40 30.5t-49 9.5q-36 0 -67.5 -15.5t-52.5 -47.5l-19 17q24 37 60 54.5t81 17.5q36 0 65 -14t46.5 -41t17.5 -65q0 -28 -10.5 -53t-32.5 -53
t-63 -70l-137 -139h248v-26h-275v31z" />
    <glyph glyph-name="threequarters" unicode="&#xbe;" horiz-adv-x="1032" 
d="M107 723.5q37 16.5 76 16.5q64 0 103 -32.5t39 -80.5q0 -75 -90 -106q51 -14 77.5 -45.5t26.5 -74.5q0 -55 -43 -91.5t-121 -36.5q-44 0 -78 14t-67 47l20 19q27 -30 58 -42.5t70 -12.5q62 0 98 28.5t36 72.5q0 50 -41 78.5t-95 28.5h-61v25h51q55 0 93.5 27.5t38.5 68.5
q0 38 -32 62.5t-82 24.5q-38 0 -65 -13.5t-51 -39.5l-19 18q21 28 58 44.5zM283 -4h-39l488 735h37zM900 455v-298h73v-26h-73v-131h-24v131h-219v31l216 293h27zM873 157v256l-190 -256h190z" />
    <glyph glyph-name="questiondown" unicode="&#xbf;" horiz-adv-x="493" 
d="M225 517h61v-77h-61v77zM364.5 -137q-59.5 -34 -129.5 -34q-94 0 -150 48.5t-56 129.5q0 38 13 67t32 50t53 51q35 31 56.5 55.5t36.5 59.5t15 81h41q0 -52 -15.5 -90t-38 -64t-58.5 -59q-46 -41 -68 -72.5t-22 -78.5q0 -63 43.5 -100t117.5 -37q57 0 110 31t70 73
l41 -20q-32 -57 -91.5 -91z" />
    <glyph glyph-name="Agrave" unicode="&#xc0;" horiz-adv-x="684" 
d="M315 723h55l264 -723h-43l-83 228h-331l-85 -228h-42zM493 271l-150 410l-152 -410h302zM449 845l-10 -31l-239 78l14 45z" />
    <glyph glyph-name="Aacute" unicode="&#xc1;" horiz-adv-x="684" 
d="M315 723h55l264 -723h-43l-83 228h-331l-85 -228h-42zM493 271l-150 410l-152 -410h302zM466 892l-239 -78l-10 31l235 92z" />
    <glyph glyph-name="Acircumflex" unicode="&#xc2;" horiz-adv-x="684" 
d="M315 723h55l264 -723h-43l-83 228h-331l-85 -228h-42zM493 271l-150 410l-152 -410h302zM342 894l-78 -60h-56l119 95h32l117 -95h-60z" />
    <glyph glyph-name="Atilde" unicode="&#xc3;" horiz-adv-x="684" 
d="M315 723h55l264 -723h-43l-83 228h-331l-85 -228h-42zM493 271l-150 410l-152 -410h302zM436.5 867.5q-14.5 -5.5 -37.5 -5.5q-18 0 -30 3t-33 10q-28 11 -48 11q-15 0 -25 -4t-18 -9t-12 -7q-5 -2 -7 -1.5t-3 5.5l-7 16q-1 2 -0.5 4t2.5 3q18 13 32 19.5t34 6.5
q22 0 58 -12q33 -13 58 -13q14 0 24 3.5t25 12.5q5 3 7.5 2.5t4.5 -5.5l8 -18q1 -1 1 -3t-6 -5q-13 -8 -27.5 -13.5z" />
    <glyph glyph-name="Adieresis" unicode="&#xc4;" horiz-adv-x="684" 
d="M315 723h55l264 -723h-43l-83 228h-331l-85 -228h-42zM493 271l-150 410l-152 -410h302zM311 834h-48v95h48v-95zM420 834h-49v95h49v-95z" />
    <glyph glyph-name="Aring" unicode="&#xc5;" horiz-adv-x="684" 
d="M315 723h55l264 -723h-43l-83 228h-331l-85 -228h-42zM493 271l-150 410l-152 -410h302zM411.5 820q-28.5 -28 -69.5 -28t-69 28.5t-28 70.5q0 39 28.5 66.5t68.5 27.5q41 0 69.5 -28t28.5 -68q0 -41 -28.5 -69zM381.5 930q-16.5 16 -40.5 16q-23 0 -40 -16t-17 -41
q0 -23 17 -40.5t40 -17.5q24 0 40.5 17t16.5 41q0 25 -16.5 41z" />
    <glyph glyph-name="AE" unicode="&#xc6;" horiz-adv-x="962" 
d="M891 0h-405v232h-261l-133 -232h-42l413 723h414v-39h-347v-299h278v-39h-278v-307h361v-39zM486 685l-242 -414h242v414z" />
    <glyph glyph-name="Ccedilla" unicode="&#xc7;" horiz-adv-x="659" 
d="M469.5 706q56.5 -27 90 -72t39.5 -98l-43 -7q-15 74 -69 118.5t-143 44.5q-119 0 -179.5 -85t-60.5 -248q0 -160 61.5 -244t186.5 -84q75 0 129.5 40.5t71.5 112.5l42 -11q-5 -51 -41 -93t-90.5 -66t-113.5 -24q-140 0 -215 96t-75 273q0 178 73 276t209 98
q71 0 127.5 -27zM393.5 -180q-27.5 -19 -69.5 -19q-43 0 -75 23l11 28q12 -11 25.5 -16.5t34.5 -5.5q58 0 58 42q0 23 -18 34t-57 13q-6 0 -4 4l36 82h33l-25 -62q42 -3 60 -22.5t18 -46.5q0 -35 -27.5 -54z" />
    <glyph glyph-name="Egrave" unicode="&#xc8;" horiz-adv-x="608" 
d="M108 723h415v-40h-376v-297h350v-41h-350v-303l390 -1v-41h-429v723zM437 845l-10 -31l-239 78l14 45z" />
    <glyph glyph-name="Eacute" unicode="&#xc9;" horiz-adv-x="608" 
d="M108 723h415v-40h-376v-297h350v-41h-350v-303l390 -1v-41h-429v723zM454 892l-239 -78l-10 31l235 92z" />
    <glyph glyph-name="Ecircumflex" unicode="&#xca;" horiz-adv-x="608" 
d="M108 723h415v-40h-376v-297h350v-41h-350v-303l390 -1v-41h-429v723zM330 894l-78 -60h-56l119 95h32l117 -95h-60z" />
    <glyph glyph-name="Edieresis" unicode="&#xcb;" horiz-adv-x="608" 
d="M108 723h415v-40h-376v-297h350v-41h-350v-303l390 -1v-41h-429v723zM299 834h-48v95h48v-95zM408 834h-49v95h49v-95z" />
    <glyph glyph-name="Igrave" unicode="&#xcc;" horiz-adv-x="255" 
d="M147 723v-723h-39v723h39zM239 845l-10 -31l-239 78l14 45z" />
    <glyph glyph-name="Iacute" unicode="&#xcd;" horiz-adv-x="255" 
d="M147 723v-723h-39v723h39zM256 892l-239 -78l-10 31l235 92z" />
    <glyph glyph-name="Icircumflex" unicode="&#xce;" horiz-adv-x="255" 
d="M147 723v-723h-39v723h39zM132 894l-78 -60h-56l119 95h32l117 -95h-60z" />
    <glyph glyph-name="Idieresis" unicode="&#xcf;" horiz-adv-x="255" 
d="M147 723v-723h-39v723h39zM101 834h-48v95h48v-95zM210 834h-49v95h49v-95z" />
    <glyph glyph-name="Eth" unicode="&#xd0;" horiz-adv-x="662" 
d="M514 635.5q89 -85.5 89 -268.5q0 -190 -95 -278.5t-296 -88.5h-106v344h-62q-6 0 -8 2.5t-2 7.5v22q0 9 7 9h65v338l120 -1q199 -1 288 -86.5zM475 115.5q86 74.5 86 247.5q0 122 -39.5 191.5t-115 98.5t-191.5 29h-66v-297h178q6 0 6 -8v-22q0 -6 -2.5 -8.5t-9.5 -2.5
h-172v-303h60q180 0 266 74.5z" />
    <glyph glyph-name="Ntilde" unicode="&#xd1;" horiz-adv-x="722" 
d="M614 723v-723h-34l-433 643v-643h-39v723h32l435 -645v645h39zM469.5 867.5q-14.5 -5.5 -37.5 -5.5q-18 0 -30 3t-33 10q-28 11 -48 11q-15 0 -25 -4t-18 -9t-12 -7q-5 -2 -7 -1.5t-3 5.5l-7 16q-1 2 -0.5 4t2.5 3q18 13 32 19.5t34 6.5q22 0 58 -12q33 -13 58 -13
q14 0 24 3.5t25 12.5q5 3 7.5 2.5t4.5 -5.5l8 -18q1 -1 1 -3t-6 -5q-13 -8 -27.5 -13.5z" />
    <glyph glyph-name="Ograve" unicode="&#xd2;" horiz-adv-x="707" 
d="M137.5 85q-77.5 95 -77.5 273q0 181 78 278t217 97q138 0 215 -96.5t77 -276.5q0 -179 -77 -274.5t-216 -95.5t-216.5 95zM540.5 113q62.5 82 62.5 247q0 166 -63.5 249t-184.5 83q-122 0 -186.5 -83.5t-64.5 -248.5q0 -164 64.5 -246.5t187.5 -82.5q122 0 184.5 82z
M463 845l-10 -31l-239 78l14 45z" />
    <glyph glyph-name="Oacute" unicode="&#xd3;" horiz-adv-x="707" 
d="M137.5 85q-77.5 95 -77.5 273q0 181 78 278t217 97q138 0 215 -96.5t77 -276.5q0 -179 -77 -274.5t-216 -95.5t-216.5 95zM540.5 113q62.5 82 62.5 247q0 166 -63.5 249t-184.5 83q-122 0 -186.5 -83.5t-64.5 -248.5q0 -164 64.5 -246.5t187.5 -82.5q122 0 184.5 82z
M480 892l-239 -78l-10 31l235 92z" />
    <glyph glyph-name="Ocircumflex" unicode="&#xd4;" horiz-adv-x="707" 
d="M137.5 85q-77.5 95 -77.5 273q0 181 78 278t217 97q138 0 215 -96.5t77 -276.5q0 -179 -77 -274.5t-216 -95.5t-216.5 95zM540.5 113q62.5 82 62.5 247q0 166 -63.5 249t-184.5 83q-122 0 -186.5 -83.5t-64.5 -248.5q0 -164 64.5 -246.5t187.5 -82.5q122 0 184.5 82z
M356 894l-78 -60h-56l119 95h32l117 -95h-60z" />
    <glyph glyph-name="Otilde" unicode="&#xd5;" horiz-adv-x="707" 
d="M137.5 85q-77.5 95 -77.5 273q0 181 78 278t217 97q138 0 215 -96.5t77 -276.5q0 -179 -77 -274.5t-216 -95.5t-216.5 95zM540.5 113q62.5 82 62.5 247q0 166 -63.5 249t-184.5 83q-122 0 -186.5 -83.5t-64.5 -248.5q0 -164 64.5 -246.5t187.5 -82.5q122 0 184.5 82z
M450.5 867.5q-14.5 -5.5 -37.5 -5.5q-18 0 -30 3t-33 10q-28 11 -48 11q-15 0 -25 -4t-18 -9t-12 -7q-5 -2 -7 -1.5t-3 5.5l-7 16q-1 2 -0.5 4t2.5 3q18 13 32 19.5t34 6.5q22 0 58 -12q33 -13 58 -13q14 0 24 3.5t25 12.5q5 3 7.5 2.5t4.5 -5.5l8 -18q1 -1 1 -3t-6 -5
q-13 -8 -27.5 -13.5z" />
    <glyph glyph-name="Odieresis" unicode="&#xd6;" horiz-adv-x="707" 
d="M137.5 85q-77.5 95 -77.5 273q0 181 78 278t217 97q138 0 215 -96.5t77 -276.5q0 -179 -77 -274.5t-216 -95.5t-216.5 95zM540.5 113q62.5 82 62.5 247q0 166 -63.5 249t-184.5 83q-122 0 -186.5 -83.5t-64.5 -248.5q0 -164 64.5 -246.5t187.5 -82.5q122 0 184.5 82z
M325 834h-48v95h48v-95zM434 834h-49v95h49v-95z" />
    <glyph glyph-name="multiply" unicode="&#xd7;" horiz-adv-x="504" 
d="M411 177l-160 159l-158 -159l-27 27l158 159l-159 159l27 26l159 -158l159 160l27 -26l-159 -161l160 -159z" />
    <glyph glyph-name="Oslash" unicode="&#xd8;" horiz-adv-x="690" 
d="M668 698l-83 -96q54 -94 54 -242q0 -179 -77.5 -274.5t-216.5 -95.5q-137 0 -211 89l-72 -82q-5 -6 -9 -6t-9 4l-17 16q-5 5 -6 7.5t2 6.5l82 95q-53 89 -53 238q0 181 77.5 278t216.5 97q133 0 211 -90l73 84q7 8 12 3l25 -21q5 -5 1 -11zM137 157l390 452
q-61 82 -181 82q-121 0 -183 -82.5t-62 -248.5q0 -125 36 -203zM553 566l-390 -452q63 -82 184 -82t181.5 81t60.5 247q0 127 -36 206z" />
    <glyph glyph-name="Ugrave" unicode="&#xd9;" horiz-adv-x="695" 
d="M527.5 48q-59.5 -58 -180.5 -58q-123 0 -181 60.5t-58 188.5v484h43v-501q0 -194 196 -194q201 0 201 194v501h39v-499q0 -118 -59.5 -176zM457 845l-10 -31l-239 78l14 45z" />
    <glyph glyph-name="Uacute" unicode="&#xda;" horiz-adv-x="695" 
d="M527.5 48q-59.5 -58 -180.5 -58q-123 0 -181 60.5t-58 188.5v484h43v-501q0 -194 196 -194q201 0 201 194v501h39v-499q0 -118 -59.5 -176zM474 892l-239 -78l-10 31l235 92z" />
    <glyph glyph-name="Ucircumflex" unicode="&#xdb;" horiz-adv-x="695" 
d="M527.5 48q-59.5 -58 -180.5 -58q-123 0 -181 60.5t-58 188.5v484h43v-501q0 -194 196 -194q201 0 201 194v501h39v-499q0 -118 -59.5 -176zM350 894l-78 -60h-56l119 95h32l117 -95h-60z" />
    <glyph glyph-name="Udieresis" unicode="&#xdc;" horiz-adv-x="695" 
d="M527.5 48q-59.5 -58 -180.5 -58q-123 0 -181 60.5t-58 188.5v484h43v-501q0 -194 196 -194q201 0 201 194v501h39v-499q0 -118 -59.5 -176zM319 834h-48v95h48v-95zM428 834h-49v95h49v-95z" />
    <glyph glyph-name="Yacute" unicode="&#xdd;" horiz-adv-x="539" 
d="M291 311v-311h-39v312l-242 411h44l218 -372l214 372h43zM390 892l-239 -78l-10 31l235 92z" />
    <glyph glyph-name="Thorn" unicode="&#xde;" horiz-adv-x="627" 
d="M524.5 226q-68.5 -49 -185.5 -49h-186v-177h-45v723h45v-158h180q120 0 190 -46t70 -139q0 -105 -68.5 -154zM491 492q-55 34 -159 34h-179v-310h186q207 0 207 164q0 78 -55 112z" />
    <glyph glyph-name="germandbls" unicode="&#xdf;" horiz-adv-x="569" 
d="M415.5 685q34.5 -38 34.5 -91q0 -37 -15 -60t-33 -34.5t-62 -34.5q-50 -27 -65 -40t-15 -37q0 -23 15 -33.5t62 -25.5q53 -17 86 -32.5t61.5 -50.5t28.5 -92q0 -52 -25 -89t-66.5 -56t-91.5 -19q-35 0 -74.5 9.5t-64.5 26.5l22 33q28 -16 52.5 -24t57.5 -8q69 0 109 33
t40 91q0 42 -20 68.5t-50 41t-77 29.5q-36 11 -55.5 19.5t-35 27t-15.5 50.5q0 35 22.5 59t77.5 51q6 3 33.5 17t42 34.5t14.5 48.5q0 42 -30.5 65.5t-84.5 23.5q-69 0 -110.5 -41.5t-41.5 -122.5v-522h-39v483h-74v34h73q0 95 55 150.5t145 55.5q79 0 113.5 -38z" />
    <glyph glyph-name="agrave" unicode="&#xe0;" horiz-adv-x="549" 
d="M104.5 28q-44.5 38 -44.5 104q0 58 24 92t76 51.5t141 24.5l119 10v44q0 62 -39.5 98.5t-105.5 36.5q-100 0 -169 -96l-33 20q34 52 85 83t119 31q83 0 132.5 -45.5t49.5 -123.5v-358h-36l-2 80q-84 -90 -195 -90q-77 0 -121.5 38zM318.5 47.5q44.5 20.5 73 53t28.5 66.5
v107l-100 -8q-85 -6 -131.5 -19.5t-67 -39.5t-20.5 -72q0 -50 35.5 -79t95.5 -29q42 0 86.5 20.5zM380 639l-10 -31l-239 78l14 45z" />
    <glyph glyph-name="aacute" unicode="&#xe1;" horiz-adv-x="549" 
d="M104.5 28q-44.5 38 -44.5 104q0 58 24 92t76 51.5t141 24.5l119 10v44q0 62 -39.5 98.5t-105.5 36.5q-100 0 -169 -96l-33 20q34 52 85 83t119 31q83 0 132.5 -45.5t49.5 -123.5v-358h-36l-2 80q-84 -90 -195 -90q-77 0 -121.5 38zM318.5 47.5q44.5 20.5 73 53t28.5 66.5
v107l-100 -8q-85 -6 -131.5 -19.5t-67 -39.5t-20.5 -72q0 -50 35.5 -79t95.5 -29q42 0 86.5 20.5zM397 686l-239 -78l-10 31l235 92z" />
    <glyph glyph-name="acircumflex" unicode="&#xe2;" horiz-adv-x="549" 
d="M104.5 28q-44.5 38 -44.5 104q0 58 24 92t76 51.5t141 24.5l119 10v44q0 62 -39.5 98.5t-105.5 36.5q-100 0 -169 -96l-33 20q34 52 85 83t119 31q83 0 132.5 -45.5t49.5 -123.5v-358h-36l-2 80q-84 -90 -195 -90q-77 0 -121.5 38zM318.5 47.5q44.5 20.5 73 53t28.5 66.5
v107l-100 -8q-85 -6 -131.5 -19.5t-67 -39.5t-20.5 -72q0 -50 35.5 -79t95.5 -29q42 0 86.5 20.5zM273 688l-78 -60h-56l119 95h32l117 -95h-60z" />
    <glyph glyph-name="atilde" unicode="&#xe3;" horiz-adv-x="549" 
d="M104.5 28q-44.5 38 -44.5 104q0 58 24 92t76 51.5t141 24.5l119 10v44q0 62 -39.5 98.5t-105.5 36.5q-100 0 -169 -96l-33 20q34 52 85 83t119 31q83 0 132.5 -45.5t49.5 -123.5v-358h-36l-2 80q-84 -90 -195 -90q-77 0 -121.5 38zM318.5 47.5q44.5 20.5 73 53t28.5 66.5
v107l-100 -8q-85 -6 -131.5 -19.5t-67 -39.5t-20.5 -72q0 -50 35.5 -79t95.5 -29q42 0 86.5 20.5zM367.5 661.5q-14.5 -5.5 -37.5 -5.5q-18 0 -30 3t-33 10q-28 11 -48 11q-15 0 -25 -4t-18 -9t-12 -7q-5 -2 -7 -1.5t-3 5.5l-7 16q-1 2 -0.5 4t2.5 3q18 13 32 19.5t34 6.5
q22 0 58 -12q33 -13 58 -13q14 0 24 3.5t25 12.5q5 3 7.5 2.5t4.5 -5.5l8 -18q1 -1 1 -3t-6 -5q-13 -8 -27.5 -13.5z" />
    <glyph glyph-name="adieresis" unicode="&#xe4;" horiz-adv-x="549" 
d="M104.5 28q-44.5 38 -44.5 104q0 58 24 92t76 51.5t141 24.5l119 10v44q0 62 -39.5 98.5t-105.5 36.5q-100 0 -169 -96l-33 20q34 52 85 83t119 31q83 0 132.5 -45.5t49.5 -123.5v-358h-36l-2 80q-84 -90 -195 -90q-77 0 -121.5 38zM318.5 47.5q44.5 20.5 73 53t28.5 66.5
v107l-100 -8q-85 -6 -131.5 -19.5t-67 -39.5t-20.5 -72q0 -50 35.5 -79t95.5 -29q42 0 86.5 20.5zM242 628h-48v95h48v-95zM351 628h-49v95h49v-95z" />
    <glyph glyph-name="aring" unicode="&#xe5;" horiz-adv-x="549" 
d="M104.5 28q-44.5 38 -44.5 104q0 58 24 92t76 51.5t141 24.5l119 10v44q0 62 -39.5 98.5t-105.5 36.5q-100 0 -169 -96l-33 20q34 52 85 83t119 31q83 0 132.5 -45.5t49.5 -123.5v-358h-36l-2 80q-84 -90 -195 -90q-77 0 -121.5 38zM318.5 47.5q44.5 20.5 73 53t28.5 66.5
v107l-100 -8q-85 -6 -131.5 -19.5t-67 -39.5t-20.5 -72q0 -50 35.5 -79t95.5 -29q42 0 86.5 20.5zM342.5 614q-28.5 -28 -69.5 -28t-69 28.5t-28 70.5q0 39 28.5 66.5t68.5 27.5q41 0 69.5 -28t28.5 -68q0 -41 -28.5 -69zM312.5 724q-16.5 16 -40.5 16q-23 0 -40 -16
t-17 -41q0 -23 17 -40.5t40 -17.5q24 0 40.5 17t16.5 41q0 25 -16.5 41z" />
    <glyph glyph-name="ae" unicode="&#xe6;" horiz-adv-x="933" 
d="M479.5 143.5q26.5 -51.5 71.5 -84t97 -32.5q70 0 109 27.5t69 71.5l31 -22q-26 -50 -83 -82t-128 -32q-78 0 -122.5 33t-76.5 82q-2 4 -5 0q-25 -32 -50.5 -55.5t-68 -41.5t-101.5 -18q-76 0 -119 38t-43 105q0 72 58 114.5t175 52.5l127 10v44q0 63 -39 99t-111 36
q-94 0 -166 -97l-30 21q32 54 86 84t118 30q72 0 114 -29t57 -88q29 58 80 87.5t120 29.5q67 0 117.5 -33t78.5 -95.5t28 -150.5l-420 -1q0 -52 26.5 -103.5zM549.5 463.5q-43.5 -25.5 -69 -72t-25.5 -107.5l376 -1q0 57 -24 104t-66 74.5t-95 27.5t-96.5 -25.5zM313 265
q-108 -8 -159.5 -40.5t-51.5 -89.5q0 -48 32 -77.5t88 -29.5q53 0 98.5 20t72.5 53.5t27 71.5v100z" />
    <glyph glyph-name="ccedilla" unicode="&#xe7;" horiz-adv-x="538" 
d="M389.5 499q43.5 -28 80.5 -84l-33 -21q-44 54 -74 74.5t-74 20.5q-86 0 -137 -63.5t-51 -167.5q0 -105 50 -168t137 -63q51 0 87 25t70 80l33 -22q-36 -61 -83.5 -90.5t-110.5 -29.5q-69 0 -119.5 33.5t-77.5 93.5t-27 139q0 80 27 141t77.5 95.5t119.5 34.5
q62 0 105.5 -28zM328.5 -180q-27.5 -19 -69.5 -19q-43 0 -75 23l11 28q12 -11 25.5 -16.5t34.5 -5.5q58 0 58 42q0 23 -18 34t-57 13q-6 0 -4 4l36 82h33l-25 -62q42 -3 60 -22.5t18 -46.5q0 -35 -27.5 -54z" />
    <glyph glyph-name="egrave" unicode="&#xe8;" horiz-adv-x="552" 
d="M150.5 91.5q48.5 -62.5 141.5 -62.5q117 0 152 93l37 -16q-20 -55 -70 -85.5t-119 -30.5q-68 0 -120.5 31t-82 90.5t-29.5 142.5q0 129 58.5 201t163.5 72q99 0 154.5 -65.5t55.5 -184.5v-29h-390q0 -94 48.5 -156.5zM451 287q0 90 -43 145.5t-127 55.5q-60 0 -100 -29
t-59.5 -75t-18.5 -97h348zM389 639l-10 -31l-239 78l14 45z" />
    <glyph glyph-name="eacute" unicode="&#xe9;" horiz-adv-x="552" 
d="M150.5 91.5q48.5 -62.5 141.5 -62.5q117 0 152 93l37 -16q-20 -55 -70 -85.5t-119 -30.5q-68 0 -120.5 31t-82 90.5t-29.5 142.5q0 129 58.5 201t163.5 72q99 0 154.5 -65.5t55.5 -184.5v-29h-390q0 -94 48.5 -156.5zM451 287q0 90 -43 145.5t-127 55.5q-60 0 -100 -29
t-59.5 -75t-18.5 -97h348zM406 686l-239 -78l-10 31l235 92z" />
    <glyph glyph-name="ecircumflex" unicode="&#xea;" horiz-adv-x="552" 
d="M150.5 91.5q48.5 -62.5 141.5 -62.5q117 0 152 93l37 -16q-20 -55 -70 -85.5t-119 -30.5q-68 0 -120.5 31t-82 90.5t-29.5 142.5q0 129 58.5 201t163.5 72q99 0 154.5 -65.5t55.5 -184.5v-29h-390q0 -94 48.5 -156.5zM451 287q0 90 -43 145.5t-127 55.5q-60 0 -100 -29
t-59.5 -75t-18.5 -97h348zM282 688l-78 -60h-56l119 95h32l117 -95h-60z" />
    <glyph glyph-name="edieresis" unicode="&#xeb;" horiz-adv-x="552" 
d="M150.5 91.5q48.5 -62.5 141.5 -62.5q117 0 152 93l37 -16q-20 -55 -70 -85.5t-119 -30.5q-68 0 -120.5 31t-82 90.5t-29.5 142.5q0 129 58.5 201t163.5 72q99 0 154.5 -65.5t55.5 -184.5v-29h-390q0 -94 48.5 -156.5zM451 287q0 90 -43 145.5t-127 55.5q-60 0 -100 -29
t-59.5 -75t-18.5 -97h348zM251 628h-48v95h48v-95zM360 628h-49v95h49v-95z" />
    <glyph glyph-name="igrave" unicode="&#xec;" horiz-adv-x="219" 
d="M129 0h-39v517h39v-517zM216 639l-10 -31l-239 78l14 45z" />
    <glyph glyph-name="iacute" unicode="&#xed;" horiz-adv-x="219" 
d="M129 0h-39v517h39v-517zM233 686l-239 -78l-10 31l235 92z" />
    <glyph glyph-name="icircumflex" unicode="&#xee;" horiz-adv-x="219" 
d="M129 0h-39v517h39v-517zM109 688l-78 -60h-56l119 95h32l117 -95h-60z" />
    <glyph glyph-name="idieresis" unicode="&#xef;" horiz-adv-x="219" 
d="M129 0h-39v517h39v-517zM78 628h-48v95h48v-95zM187 628h-49v95h49v-95z" />
    <glyph glyph-name="eth" unicode="&#xf0;" horiz-adv-x="594" 
d="M505.5 114.5q-28.5 -58.5 -82.5 -91.5t-128 -33q-69 0 -122.5 32.5t-83 91t-29.5 132.5q0 75 29 134.5t81 93t118 33.5q51 0 94 -17.5t74 -49.5q-48 113 -165 192l-171 -97l-19 31l157 87q-47 27 -121 57l36 24q58 -23 122 -59l108 60l16 -32l-91 -51
q109 -74 157.5 -174.5t48.5 -228.5q0 -76 -28.5 -134.5zM398.5 56q44.5 29 69.5 80t25 112t-25.5 112t-70.5 80.5t-99 29.5q-55 0 -100.5 -29.5t-71 -80.5t-25.5 -112t26 -111.5t71 -80t101 -29.5q55 0 99.5 29z" />
    <glyph glyph-name="ntilde" unicode="&#xf1;" 
d="M90 517h36v-77q21 38 67 62.5t107 24.5q81 0 131 -48.5t50 -143.5v-335h-39v335q0 74 -37.5 114t-104.5 40q-74 0 -122.5 -33t-48.5 -96v-360h-39v517zM390.5 661.5q-14.5 -5.5 -37.5 -5.5q-18 0 -30 3t-33 10q-28 11 -48 11q-15 0 -25 -4t-18 -9t-12 -7q-5 -2 -7 -1.5
t-3 5.5l-7 16q-1 2 -0.5 4t2.5 3q18 13 32 19.5t34 6.5q22 0 58 -12q33 -13 58 -13q14 0 24 3.5t25 12.5q5 3 7.5 2.5t4.5 -5.5l8 -18q1 -1 1 -3t-6 -5q-13 -8 -27.5 -13.5z" />
    <glyph glyph-name="ograve" unicode="&#xf2;" horiz-adv-x="565" 
d="M118.5 62.5q-58.5 72.5 -58.5 192.5q0 80 26.5 141.5t77 96t120.5 34.5q69 0 119 -34t76 -95.5t26 -140.5q0 -121 -58.5 -194t-163.5 -73q-106 0 -164.5 72.5zM418.5 88.5q45.5 61.5 45.5 168.5t-46.5 169.5t-133.5 62.5q-88 0 -135.5 -63t-47.5 -169q0 -105 47.5 -167.5
t136.5 -62.5q88 0 133.5 61.5zM392 639l-10 -31l-239 78l14 45z" />
    <glyph glyph-name="oacute" unicode="&#xf3;" horiz-adv-x="565" 
d="M118.5 62.5q-58.5 72.5 -58.5 192.5q0 80 26.5 141.5t77 96t120.5 34.5q69 0 119 -34t76 -95.5t26 -140.5q0 -121 -58.5 -194t-163.5 -73q-106 0 -164.5 72.5zM418.5 88.5q45.5 61.5 45.5 168.5t-46.5 169.5t-133.5 62.5q-88 0 -135.5 -63t-47.5 -169q0 -105 47.5 -167.5
t136.5 -62.5q88 0 133.5 61.5zM409 686l-239 -78l-10 31l235 92z" />
    <glyph glyph-name="ocircumflex" unicode="&#xf4;" horiz-adv-x="565" 
d="M118.5 62.5q-58.5 72.5 -58.5 192.5q0 80 26.5 141.5t77 96t120.5 34.5q69 0 119 -34t76 -95.5t26 -140.5q0 -121 -58.5 -194t-163.5 -73q-106 0 -164.5 72.5zM418.5 88.5q45.5 61.5 45.5 168.5t-46.5 169.5t-133.5 62.5q-88 0 -135.5 -63t-47.5 -169q0 -105 47.5 -167.5
t136.5 -62.5q88 0 133.5 61.5zM285 688l-78 -60h-56l119 95h32l117 -95h-60z" />
    <glyph glyph-name="otilde" unicode="&#xf5;" horiz-adv-x="565" 
d="M118.5 62.5q-58.5 72.5 -58.5 192.5q0 80 26.5 141.5t77 96t120.5 34.5q69 0 119 -34t76 -95.5t26 -140.5q0 -121 -58.5 -194t-163.5 -73q-106 0 -164.5 72.5zM418.5 88.5q45.5 61.5 45.5 168.5t-46.5 169.5t-133.5 62.5q-88 0 -135.5 -63t-47.5 -169q0 -105 47.5 -167.5
t136.5 -62.5q88 0 133.5 61.5zM379.5 661.5q-14.5 -5.5 -37.5 -5.5q-18 0 -30 3t-33 10q-28 11 -48 11q-15 0 -25 -4t-18 -9t-12 -7q-5 -2 -7 -1.5t-3 5.5l-7 16q-1 2 -0.5 4t2.5 3q18 13 32 19.5t34 6.5q22 0 58 -12q33 -13 58 -13q14 0 24 3.5t25 12.5q5 3 7.5 2.5
t4.5 -5.5l8 -18q1 -1 1 -3t-6 -5q-13 -8 -27.5 -13.5z" />
    <glyph glyph-name="odieresis" unicode="&#xf6;" horiz-adv-x="565" 
d="M118.5 62.5q-58.5 72.5 -58.5 192.5q0 80 26.5 141.5t77 96t120.5 34.5q69 0 119 -34t76 -95.5t26 -140.5q0 -121 -58.5 -194t-163.5 -73q-106 0 -164.5 72.5zM418.5 88.5q45.5 61.5 45.5 168.5t-46.5 169.5t-133.5 62.5q-88 0 -135.5 -63t-47.5 -169q0 -105 47.5 -167.5
t136.5 -62.5q88 0 133.5 61.5zM254 628h-48v95h48v-95zM363 628h-49v95h49v-95z" />
    <glyph glyph-name="divide" unicode="&#xf7;" horiz-adv-x="527" 
d="M304 480h-80v77h80v-77zM459 345l-391 -1v37l391 1v-37zM304 170h-80v77h80v-77z" />
    <glyph glyph-name="oslash" unicode="&#xf8;" horiz-adv-x="561" 
d="M467 414q34 -66 34 -157q0 -121 -58.5 -194t-163.5 -73q-106 0 -167 75l-70 -69l-27 28l76 74q-35 65 -35 157q0 80 26.5 141.5t77 96t120.5 34.5q106 0 166 -79l72 71l27 -28zM121 129l297 292q-47 68 -138 68q-88 0 -135.5 -63t-47.5 -169q0 -75 24 -128zM437 385
l-296 -291q48 -67 140 -67q88 0 133.5 61.5t45.5 168.5q0 73 -23 128z" />
    <glyph glyph-name="ugrave" unicode="&#xf9;" 
d="M194 8.5q-45 17.5 -74.5 58.5t-29.5 107v345h39v-345q0 -77 47 -111t106 -34q42 0 78 17t59 51.5t23 84.5v337h39v-518h-36v85q-8 -22 -32 -44t-57 -36.5t-69 -14.5q-48 0 -93 17.5zM380 639l-10 -31l-239 78l14 45z" />
    <glyph glyph-name="uacute" unicode="&#xfa;" 
d="M194 8.5q-45 17.5 -74.5 58.5t-29.5 107v345h39v-345q0 -77 47 -111t106 -34q42 0 78 17t59 51.5t23 84.5v337h39v-518h-36v85q-8 -22 -32 -44t-57 -36.5t-69 -14.5q-48 0 -93 17.5zM397 686l-239 -78l-10 31l235 92z" />
    <glyph glyph-name="ucircumflex" unicode="&#xfb;" 
d="M194 8.5q-45 17.5 -74.5 58.5t-29.5 107v345h39v-345q0 -77 47 -111t106 -34q42 0 78 17t59 51.5t23 84.5v337h39v-518h-36v85q-8 -22 -32 -44t-57 -36.5t-69 -14.5q-48 0 -93 17.5zM273 688l-78 -60h-56l119 95h32l117 -95h-60z" />
    <glyph glyph-name="udieresis" unicode="&#xfc;" 
d="M194 8.5q-45 17.5 -74.5 58.5t-29.5 107v345h39v-345q0 -77 47 -111t106 -34q42 0 78 17t59 51.5t23 84.5v337h39v-518h-36v85q-8 -22 -32 -44t-57 -36.5t-69 -14.5q-48 0 -93 17.5zM242 628h-48v95h48v-95zM351 628h-49v95h49v-95z" />
    <glyph glyph-name="yacute" unicode="&#xfd;" horiz-adv-x="491" 
d="M57.5 -161.5q-15.5 3.5 -15.5 4.5v27h55q45 0 68.5 17t36.5 47l26 69l-202 514h42l181 -461l178 461h38l-226 -592q-36 -90 -135 -90q-31 0 -46.5 3.5zM372 686l-239 -78l-10 31l235 92z" />
    <glyph glyph-name="thorn" unicode="&#xfe;" horiz-adv-x="580" 
d="M127 440q2 2 21 26t59.5 42.5t89.5 18.5q64 0 114.5 -29.5t79.5 -87.5t29 -142q0 -82 -28.5 -145t-81.5 -98t-124 -35q-82 0 -144 49q-7 5 -9 5q-4 0 -4 -12v-193h-39v884h37v-283zM204.5 46q37.5 -19 80.5 -19q56 0 100 28.5t69 82.5t25 126q0 74 -25.5 125t-68 75.5
t-93.5 24.5q-46 0 -83.5 -20.5t-58.5 -52t-21 -61.5v-254q38 -36 75.5 -55z" />
    <glyph glyph-name="ydieresis" unicode="&#xff;" horiz-adv-x="491" 
d="M57.5 -161.5q-15.5 3.5 -15.5 4.5v27h55q45 0 68.5 17t36.5 47l26 69l-202 514h42l181 -461l178 461h38l-226 -592q-36 -90 -135 -90q-31 0 -46.5 3.5zM217 628h-48v95h48v-95zM326 628h-49v95h49v-95z" />
    <glyph glyph-name="Amacron" unicode="&#x100;" horiz-adv-x="684" 
d="M315 723h55l264 -723h-43l-83 228h-331l-85 -228h-42zM493 271l-150 410l-152 -410h302zM464 873h-245v37h245v-37z" />
    <glyph glyph-name="amacron" unicode="&#x101;" horiz-adv-x="549" 
d="M104.5 28q-44.5 38 -44.5 104q0 58 24 92t76 51.5t141 24.5l119 10v44q0 62 -39.5 98.5t-105.5 36.5q-100 0 -169 -96l-33 20q34 52 85 83t119 31q83 0 132.5 -45.5t49.5 -123.5v-358h-36l-2 80q-84 -90 -195 -90q-77 0 -121.5 38zM318.5 47.5q44.5 20.5 73 53t28.5 66.5
v107l-100 -8q-85 -6 -131.5 -19.5t-67 -39.5t-20.5 -72q0 -50 35.5 -79t95.5 -29q42 0 86.5 20.5zM395 667h-245v37h245v-37z" />
    <glyph glyph-name="Abreve" unicode="&#x102;" horiz-adv-x="684" 
d="M315 723h55l264 -723h-43l-83 228h-331l-85 -228h-42zM493 271l-150 410l-152 -410h302zM427.5 868.5q-33.5 -28.5 -86.5 -28.5t-85 27t-40 62h47q1 -2 9.5 -15.5t26.5 -23.5t42 -10q50 0 81 49h49q-10 -32 -43.5 -60.5z" />
    <glyph glyph-name="abreve" unicode="&#x103;" horiz-adv-x="549" 
d="M104.5 28q-44.5 38 -44.5 104q0 58 24 92t76 51.5t141 24.5l119 10v44q0 62 -39.5 98.5t-105.5 36.5q-100 0 -169 -96l-33 20q34 52 85 83t119 31q83 0 132.5 -45.5t49.5 -123.5v-358h-36l-2 80q-84 -90 -195 -90q-77 0 -121.5 38zM318.5 47.5q44.5 20.5 73 53t28.5 66.5
v107l-100 -8q-85 -6 -131.5 -19.5t-67 -39.5t-20.5 -72q0 -50 35.5 -79t95.5 -29q42 0 86.5 20.5zM358.5 662.5q-33.5 -28.5 -86.5 -28.5t-85 27t-40 62h47q1 -2 9.5 -15.5t26.5 -23.5t42 -10q50 0 81 49h49q-10 -32 -43.5 -60.5z" />
    <glyph glyph-name="Aogonek" unicode="&#x104;" horiz-adv-x="684" 
d="M315 723h55l264 -723h-43l-83 228h-331l-85 -228h-42zM493 271l-150 410l-152 -410h302zM512.5 -31q24.5 24 83.5 41l33 -9q-52 -24 -75 -44.5t-23 -47.5q0 -21 13.5 -31t42.5 -10q20 0 38 4t26 8q7 4 7 -3v-19q0 -3 -1 -5t-4 -3q-12 -6 -33 -10.5t-43 -4.5
q-45 0 -67 20.5t-22 55.5q0 34 24.5 58z" />
    <glyph glyph-name="aogonek" unicode="&#x105;" horiz-adv-x="549" 
d="M104.5 28q-44.5 38 -44.5 104q0 58 24 92t76 51.5t141 24.5l119 10v44q0 62 -39.5 98.5t-105.5 36.5q-100 0 -169 -96l-33 20q34 52 85 83t119 31q83 0 132.5 -45.5t49.5 -123.5v-358h-36l-2 80q-84 -90 -195 -90q-77 0 -121.5 38zM318.5 47.5q44.5 20.5 73 53t28.5 66.5
v107l-100 -8q-85 -6 -131.5 -19.5t-67 -39.5t-20.5 -72q0 -50 35.5 -79t95.5 -29q42 0 86.5 20.5zM341.5 -28q24.5 24 83.5 41l33 -9q-52 -24 -75 -44.5t-23 -47.5q0 -21 13.5 -31t42.5 -10q20 0 38 4t26 8q7 4 7 -3v-19q0 -3 -1 -5t-4 -3q-12 -6 -33 -10.5t-43 -4.5
q-45 0 -67 20.5t-22 55.5q0 34 24.5 58z" />
    <glyph glyph-name="Cacute" unicode="&#x106;" horiz-adv-x="659" 
d="M469.5 706q56.5 -27 90 -72t39.5 -98l-43 -7q-15 74 -69 118.5t-143 44.5q-119 0 -179.5 -85t-60.5 -248q0 -160 61.5 -244t186.5 -84q75 0 129.5 40.5t71.5 112.5l42 -11q-5 -51 -41 -93t-90.5 -66t-113.5 -24q-140 0 -215 96t-75 273q0 178 73 276t209 98
q71 0 127.5 -27zM474 892l-239 -78l-10 31l235 92z" />
    <glyph glyph-name="cacute" unicode="&#x107;" horiz-adv-x="538" 
d="M389.5 499q43.5 -28 80.5 -84l-33 -21q-44 54 -74 74.5t-74 20.5q-86 0 -137 -63.5t-51 -167.5q0 -105 50 -168t137 -63q51 0 87 25t70 80l33 -22q-36 -61 -83.5 -90.5t-110.5 -29.5q-69 0 -119.5 33.5t-77.5 93.5t-27 139q0 80 27 141t77.5 95.5t119.5 34.5
q62 0 105.5 -28zM407 686l-239 -78l-10 31l235 92z" />
    <glyph glyph-name="Ccircumflex" unicode="&#x108;" horiz-adv-x="659" 
d="M469.5 706q56.5 -27 90 -72t39.5 -98l-43 -7q-15 74 -69 118.5t-143 44.5q-119 0 -179.5 -85t-60.5 -248q0 -160 61.5 -244t186.5 -84q75 0 129.5 40.5t71.5 112.5l42 -11q-5 -51 -41 -93t-90.5 -66t-113.5 -24q-140 0 -215 96t-75 273q0 178 73 276t209 98
q71 0 127.5 -27zM350 894l-78 -60h-56l119 95h32l117 -95h-60z" />
    <glyph glyph-name="ccircumflex" unicode="&#x109;" horiz-adv-x="538" 
d="M389.5 499q43.5 -28 80.5 -84l-33 -21q-44 54 -74 74.5t-74 20.5q-86 0 -137 -63.5t-51 -167.5q0 -105 50 -168t137 -63q51 0 87 25t70 80l33 -22q-36 -61 -83.5 -90.5t-110.5 -29.5q-69 0 -119.5 33.5t-77.5 93.5t-27 139q0 80 27 141t77.5 95.5t119.5 34.5
q62 0 105.5 -28zM283 688l-78 -60h-56l119 95h32l117 -95h-60z" />
    <glyph glyph-name="Cdotaccent" unicode="&#x10a;" horiz-adv-x="659" 
d="M469.5 706q56.5 -27 90 -72t39.5 -98l-43 -7q-15 74 -69 118.5t-143 44.5q-119 0 -179.5 -85t-60.5 -248q0 -160 61.5 -244t186.5 -84q75 0 129.5 40.5t71.5 112.5l42 -11q-5 -51 -41 -93t-90.5 -66t-113.5 -24q-140 0 -215 96t-75 273q0 178 73 276t209 98
q71 0 127.5 -27zM374 834h-48v95h48v-95z" />
    <glyph glyph-name="cdotaccent" unicode="&#x10b;" horiz-adv-x="538" 
d="M389.5 499q43.5 -28 80.5 -84l-33 -21q-44 54 -74 74.5t-74 20.5q-86 0 -137 -63.5t-51 -167.5q0 -105 50 -168t137 -63q51 0 87 25t70 80l33 -22q-36 -61 -83.5 -90.5t-110.5 -29.5q-69 0 -119.5 33.5t-77.5 93.5t-27 139q0 80 27 141t77.5 95.5t119.5 34.5
q62 0 105.5 -28zM307 628h-48v95h48v-95z" />
    <glyph glyph-name="Ccaron" unicode="&#x10c;" horiz-adv-x="659" 
d="M469.5 706q56.5 -27 90 -72t39.5 -98l-43 -7q-15 74 -69 118.5t-143 44.5q-119 0 -179.5 -85t-60.5 -248q0 -160 61.5 -244t186.5 -84q75 0 129.5 40.5t71.5 112.5l42 -11q-5 -51 -41 -93t-90.5 -66t-113.5 -24q-140 0 -215 96t-75 273q0 178 73 276t209 98
q71 0 127.5 -27zM484 929l-117 -95h-32l-120 95h57l78 -60l74 60h60z" />
    <glyph glyph-name="ccaron" unicode="&#x10d;" horiz-adv-x="538" 
d="M389.5 499q43.5 -28 80.5 -84l-33 -21q-44 54 -74 74.5t-74 20.5q-86 0 -137 -63.5t-51 -167.5q0 -105 50 -168t137 -63q51 0 87 25t70 80l33 -22q-36 -61 -83.5 -90.5t-110.5 -29.5q-69 0 -119.5 33.5t-77.5 93.5t-27 139q0 80 27 141t77.5 95.5t119.5 34.5
q62 0 105.5 -28zM417 723l-117 -95h-32l-120 95h57l78 -60l74 60h60z" />
    <glyph glyph-name="Dcaron" unicode="&#x10e;" horiz-adv-x="664" 
d="M228 722q199 -1 288 -86.5t89 -268.5q0 -190 -95 -278.5t-296 -88.5h-106v723zM151 41h60q180 0 266 74.5t86 247.5q0 122 -39.5 191.5t-115 98.5t-191.5 29h-66v-641zM457 929l-117 -95h-32l-120 95h57l78 -60l74 60h60z" />
    <glyph glyph-name="dcaron" unicode="&#x10f;" horiz-adv-x="568" 
d="M116.5 56.5q-56.5 66.5 -56.5 192.5t58.5 202t163.5 76q44 0 80 -15.5t77 -48.5v280h39v-743h-37v77q-20 -22 -38 -38.5t-52.5 -32.5t-80.5 -16q-97 0 -153.5 66.5zM357.5 49q37.5 22 59.5 54.5t22 62.5v249q-37 37 -75 55.5t-81 18.5q-86 0 -134 -62.5t-48 -173.5
q0 -112 48 -169t126 -57q45 0 82.5 22zM540.5 555.5q-1.5 2.5 -0.5 4.5l29 68q2 5 1.5 6.5t-4.5 2.5l-5 1q-4 0 -6 1.5t-2 5.5v72q0 6 6 6h42q5 0 5 -5v-80l-1 -4l-32 -74q-3 -7 -13 -7h-15q-3 0 -4.5 2.5z" />
    <glyph glyph-name="Dcroat" unicode="&#x110;" horiz-adv-x="662" 
d="M514 635.5q89 -85.5 89 -268.5q0 -190 -95 -278.5t-296 -88.5h-106v344h-62q-6 0 -8 2.5t-2 7.5v22q0 9 7 9h65v338l120 -1q199 -1 288 -86.5zM475 115.5q86 74.5 86 247.5q0 122 -39.5 191.5t-115 98.5t-191.5 29h-66v-297h178q6 0 6 -8v-22q0 -6 -2.5 -8.5t-9.5 -2.5
h-172v-303h60q180 0 266 74.5z" />
    <glyph glyph-name="dcroat" unicode="&#x111;" horiz-adv-x="589" 
d="M564 611h-86v-611h-37v77q-20 -22 -38 -38.5t-52.5 -32.5t-80.5 -16q-97 0 -153.5 66.5t-56.5 192.5t58.5 202t163.5 76q44 0 80 -15.5t77 -48.5v148h-156v34h156v98h39v-98h86v-34zM439 415q-37 37 -75 55.5t-81 18.5q-86 0 -134 -62.5t-48 -173.5q0 -112 48 -169
t126 -57q45 0 82.5 22t59.5 54.5t22 62.5v249z" />
    <glyph glyph-name="Emacron" unicode="&#x112;" horiz-adv-x="608" 
d="M108 723h415v-40h-376v-297h350v-41h-350v-303l390 -1v-41h-429v723zM452 873h-245v37h245v-37z" />
    <glyph glyph-name="emacron" unicode="&#x113;" horiz-adv-x="552" 
d="M150.5 91.5q48.5 -62.5 141.5 -62.5q117 0 152 93l37 -16q-20 -55 -70 -85.5t-119 -30.5q-68 0 -120.5 31t-82 90.5t-29.5 142.5q0 129 58.5 201t163.5 72q99 0 154.5 -65.5t55.5 -184.5v-29h-390q0 -94 48.5 -156.5zM451 287q0 90 -43 145.5t-127 55.5q-60 0 -100 -29
t-59.5 -75t-18.5 -97h348zM404 667h-245v37h245v-37z" />
    <glyph glyph-name="Ebreve" unicode="&#x114;" horiz-adv-x="608" 
d="M108 723h415v-40h-376v-297h350v-41h-350v-303l390 -1v-41h-429v723zM415.5 868.5q-33.5 -28.5 -86.5 -28.5t-85 27t-40 62h47q1 -2 9.5 -15.5t26.5 -23.5t42 -10q50 0 81 49h49q-10 -32 -43.5 -60.5z" />
    <glyph glyph-name="ebreve" unicode="&#x115;" horiz-adv-x="552" 
d="M150.5 91.5q48.5 -62.5 141.5 -62.5q117 0 152 93l37 -16q-20 -55 -70 -85.5t-119 -30.5q-68 0 -120.5 31t-82 90.5t-29.5 142.5q0 129 58.5 201t163.5 72q99 0 154.5 -65.5t55.5 -184.5v-29h-390q0 -94 48.5 -156.5zM451 287q0 90 -43 145.5t-127 55.5q-60 0 -100 -29
t-59.5 -75t-18.5 -97h348zM367.5 662.5q-33.5 -28.5 -86.5 -28.5t-85 27t-40 62h47q1 -2 9.5 -15.5t26.5 -23.5t42 -10q50 0 81 49h49q-10 -32 -43.5 -60.5z" />
    <glyph glyph-name="Edotaccent" unicode="&#x116;" horiz-adv-x="608" 
d="M108 723h415v-40h-376v-297h350v-41h-350v-303l390 -1v-41h-429v723zM354 834h-48v95h48v-95z" />
    <glyph glyph-name="edotaccent" unicode="&#x117;" horiz-adv-x="552" 
d="M150.5 91.5q48.5 -62.5 141.5 -62.5q117 0 152 93l37 -16q-20 -55 -70 -85.5t-119 -30.5q-68 0 -120.5 31t-82 90.5t-29.5 142.5q0 129 58.5 201t163.5 72q99 0 154.5 -65.5t55.5 -184.5v-29h-390q0 -94 48.5 -156.5zM451 287q0 90 -43 145.5t-127 55.5q-60 0 -100 -29
t-59.5 -75t-18.5 -97h348zM306 628h-48v95h48v-95z" />
    <glyph glyph-name="Eogonek" unicode="&#x118;" horiz-adv-x="608" 
d="M108 723h415v-40h-376v-297h350v-41h-350v-303l390 -1v-41h-429v723zM416.5 -32q24.5 24 83.5 41l33 -9q-52 -24 -75 -44.5t-23 -47.5q0 -21 13.5 -31t42.5 -10q20 0 38 4t26 8q7 4 7 -3v-19q0 -3 -1 -5t-4 -3q-12 -6 -33 -10.5t-43 -4.5q-45 0 -67 20.5t-22 55.5
q0 34 24.5 58z" />
    <glyph glyph-name="eogonek" unicode="&#x119;" horiz-adv-x="552" 
d="M150.5 91.5q48.5 -62.5 141.5 -62.5q117 0 152 93l37 -16q-20 -55 -70 -85.5t-119 -30.5q-68 0 -120.5 31t-82 90.5t-29.5 142.5q0 129 58.5 201t163.5 72q99 0 154.5 -65.5t55.5 -184.5v-29h-390q0 -94 48.5 -156.5zM451 287q0 90 -43 145.5t-127 55.5q-60 0 -100 -29
t-59.5 -75t-18.5 -97h348zM263.5 -24q24.5 24 83.5 41l33 -9q-52 -24 -75 -44.5t-23 -47.5q0 -21 13.5 -31t42.5 -10q20 0 38 4t26 8q7 4 7 -3v-19q0 -3 -1 -5t-4 -3q-12 -6 -33 -10.5t-43 -4.5q-45 0 -67 20.5t-22 55.5q0 34 24.5 58z" />
    <glyph glyph-name="Ecaron" unicode="&#x11a;" horiz-adv-x="608" 
d="M108 723h415v-40h-376v-297h350v-41h-350v-303l390 -1v-41h-429v723zM464 929l-117 -95h-32l-120 95h57l78 -60l74 60h60z" />
    <glyph glyph-name="ecaron" unicode="&#x11b;" horiz-adv-x="552" 
d="M150.5 91.5q48.5 -62.5 141.5 -62.5q117 0 152 93l37 -16q-20 -55 -70 -85.5t-119 -30.5q-68 0 -120.5 31t-82 90.5t-29.5 142.5q0 129 58.5 201t163.5 72q99 0 154.5 -65.5t55.5 -184.5v-29h-390q0 -94 48.5 -156.5zM451 287q0 90 -43 145.5t-127 55.5q-60 0 -100 -29
t-59.5 -75t-18.5 -97h348zM416 723l-117 -95h-32l-120 95h57l78 -60l74 60h60z" />
    <glyph glyph-name="Gcircumflex" unicode="&#x11c;" horiz-adv-x="705" 
d="M193 33.5q-65 43.5 -99 126.5t-34 199q0 118 35 202.5t100 128t154 43.5q59 0 114.5 -26.5t92 -71.5t41.5 -97l-46 -8q-7 45 -35.5 82t-72 58.5t-94.5 21.5q-117 0 -182.5 -86.5t-65.5 -240.5q0 -162 64.5 -249t183.5 -87q72 0 123 34t76 85t25 101v84h-202v35h241v-368
h-39v126q-31 -61 -88 -98.5t-137 -37.5q-90 0 -155 43.5zM349 894l-78 -60h-56l119 95h32l117 -95h-60z" />
    <glyph glyph-name="gcircumflex" unicode="&#x11d;" horiz-adv-x="579" 
d="M105 -133q-61 38 -61 107q0 42 24 69t45 40.5t26 17.5q-3 2 -16 10t-20 19t-7 25q0 21 20 38.5t57 28.5q-49 26 -69 57.5t-20 80.5q0 77 54 121t151 44q47 0 81.5 -12t65.5 -37l56 24l56 24v-58l-92 -20q9 -16 16 -41.5t7 -44.5q0 -69 -49.5 -112.5t-147.5 -43.5h-11
q-71 -1 -102.5 -15t-31.5 -33q0 -16 22.5 -23.5t84.5 -12.5l117 -7q150 -9 150 -132q0 -73 -61 -112.5t-172 -39.5q-112 0 -173 38zM440 362q0 61 -40 93.5t-117 32.5q-76 0 -118 -33t-42 -93q0 -59 41 -90t119 -31q157 0 157 121zM470 -19q0 42 -25.5 65t-84.5 27l-172 11
q-17 1 -41.5 -13t-43 -38.5t-18.5 -54.5q0 -54 53 -83t149 -29q183 0 183 115zM286 688l-78 -60h-56l119 95h32l117 -95h-60z" />
    <glyph glyph-name="Gbreve" unicode="&#x11e;" horiz-adv-x="705" 
d="M193 33.5q-65 43.5 -99 126.5t-34 199q0 118 35 202.5t100 128t154 43.5q59 0 114.5 -26.5t92 -71.5t41.5 -97l-46 -8q-7 45 -35.5 82t-72 58.5t-94.5 21.5q-117 0 -182.5 -86.5t-65.5 -240.5q0 -162 64.5 -249t183.5 -87q72 0 123 34t76 85t25 101v84h-202v35h241v-368
h-39v126q-31 -61 -88 -98.5t-137 -37.5q-90 0 -155 43.5zM434.5 868.5q-33.5 -28.5 -86.5 -28.5t-85 27t-40 62h47q1 -2 9.5 -15.5t26.5 -23.5t42 -10q50 0 81 49h49q-10 -32 -43.5 -60.5z" />
    <glyph glyph-name="gbreve" unicode="&#x11f;" horiz-adv-x="579" 
d="M105 -133q-61 38 -61 107q0 42 24 69t45 40.5t26 17.5q-3 2 -16 10t-20 19t-7 25q0 21 20 38.5t57 28.5q-49 26 -69 57.5t-20 80.5q0 77 54 121t151 44q47 0 81.5 -12t65.5 -37l56 24l56 24v-58l-92 -20q9 -16 16 -41.5t7 -44.5q0 -69 -49.5 -112.5t-147.5 -43.5h-11
q-71 -1 -102.5 -15t-31.5 -33q0 -16 22.5 -23.5t84.5 -12.5l117 -7q150 -9 150 -132q0 -73 -61 -112.5t-172 -39.5q-112 0 -173 38zM440 362q0 61 -40 93.5t-117 32.5q-76 0 -118 -33t-42 -93q0 -59 41 -90t119 -31q157 0 157 121zM470 -19q0 42 -25.5 65t-84.5 27l-172 11
q-17 1 -41.5 -13t-43 -38.5t-18.5 -54.5q0 -54 53 -83t149 -29q183 0 183 115zM371.5 662.5q-33.5 -28.5 -86.5 -28.5t-85 27t-40 62h47q1 -2 9.5 -15.5t26.5 -23.5t42 -10q50 0 81 49h49q-10 -32 -43.5 -60.5z" />
    <glyph glyph-name="Gdotaccent" unicode="&#x120;" horiz-adv-x="705" 
d="M193 33.5q-65 43.5 -99 126.5t-34 199q0 118 35 202.5t100 128t154 43.5q59 0 114.5 -26.5t92 -71.5t41.5 -97l-46 -8q-7 45 -35.5 82t-72 58.5t-94.5 21.5q-117 0 -182.5 -86.5t-65.5 -240.5q0 -162 64.5 -249t183.5 -87q72 0 123 34t76 85t25 101v84h-202v35h241v-368
h-39v126q-31 -61 -88 -98.5t-137 -37.5q-90 0 -155 43.5zM373 834h-48v95h48v-95z" />
    <glyph glyph-name="gdotaccent" unicode="&#x121;" horiz-adv-x="579" 
d="M105 -133q-61 38 -61 107q0 42 24 69t45 40.5t26 17.5q-3 2 -16 10t-20 19t-7 25q0 21 20 38.5t57 28.5q-49 26 -69 57.5t-20 80.5q0 77 54 121t151 44q47 0 81.5 -12t65.5 -37l56 24l56 24v-58l-92 -20q9 -16 16 -41.5t7 -44.5q0 -69 -49.5 -112.5t-147.5 -43.5h-11
q-71 -1 -102.5 -15t-31.5 -33q0 -16 22.5 -23.5t84.5 -12.5l117 -7q150 -9 150 -132q0 -73 -61 -112.5t-172 -39.5q-112 0 -173 38zM440 362q0 61 -40 93.5t-117 32.5q-76 0 -118 -33t-42 -93q0 -59 41 -90t119 -31q157 0 157 121zM470 -19q0 42 -25.5 65t-84.5 27l-172 11
q-17 1 -41.5 -13t-43 -38.5t-18.5 -54.5q0 -54 53 -83t149 -29q183 0 183 115zM310 628h-48v95h48v-95z" />
    <glyph glyph-name="Gcommaaccent" unicode="&#x122;" horiz-adv-x="705" 
d="M193 33.5q-65 43.5 -99 126.5t-34 199q0 118 35 202.5t100 128t154 43.5q59 0 114.5 -26.5t92 -71.5t41.5 -97l-46 -8q-7 45 -35.5 82t-72 58.5t-94.5 21.5q-117 0 -182.5 -86.5t-65.5 -240.5q0 -162 64.5 -249t183.5 -87q72 0 123 34t76 85t25 101v84h-202v35h241v-368
h-39v126q-31 -61 -88 -98.5t-137 -37.5q-90 0 -155 43.5zM323.5 -227.5q-1.5 2.5 0.5 5.5l24 52q4 9 -4 9h-8q-7 0 -7 9v64q0 8 6 8h44q6 0 6 -7v-74l-1 -6l-30 -57q-2 -4 -5 -5t-9 -1h-12q-3 0 -4.5 2.5z" />
    <glyph glyph-name="gcommaaccent" unicode="&#x123;" horiz-adv-x="579" 
d="M247 701l34 65h31l-32 -69h23v-81h-56v85zM105 -133q-61 38 -61 107q0 42 24 69t45 40.5t26 17.5q-3 2 -16 10t-20 19t-7 25q0 21 20 38.5t57 28.5q-49 26 -69 57.5t-20 80.5q0 77 54 121t151 44q47 0 81.5 -12t65.5 -37l56 24l56 24v-58l-92 -20q9 -16 16 -41.5t7 -44.5
q0 -69 -49.5 -112.5t-147.5 -43.5h-11q-71 -1 -102.5 -15t-31.5 -33q0 -16 22.5 -23.5t84.5 -12.5l117 -7q150 -9 150 -132q0 -73 -61 -112.5t-172 -39.5q-112 0 -173 38zM440 362q0 61 -40 93.5t-117 32.5q-76 0 -118 -33t-42 -93q0 -59 41 -90t119 -31q157 0 157 121z
M470 -19q0 42 -25.5 65t-84.5 27l-172 11q-17 1 -41.5 -13t-43 -38.5t-18.5 -54.5q0 -54 53 -83t149 -29q183 0 183 115z" />
    <glyph glyph-name="Hcircumflex" unicode="&#x124;" horiz-adv-x="693" 
d="M147 356v-356h-39v723h39v-326h399v326h39v-723h-39v356h-399zM347 894l-78 -60h-56l119 95h32l117 -95h-60z" />
    <glyph glyph-name="hcircumflex" unicode="&#x125;" 
d="M90 743h36v-303q67 49 106.5 68t90.5 19q76 0 117 -39t41 -105v-383h-39v368q0 121 -120 121q-49 0 -88 -19.5t-105 -69.5v-400h-39v743zM318 688l-78 -60h-56l119 95h32l117 -95h-60z" />
    <glyph glyph-name="Hbar" unicode="&#x126;" horiz-adv-x="689" 
d="M684 595v-21q0 -6 -2.5 -8t-9.5 -2h-90v-564h-39v356h-399v-356h-39v564h-90q-6 0 -8 2t-2 7v21q0 9 7 9h93v120h39v-120h399v120h39v-120h96q6 0 6 -8zM543 564h-399v-167h399v167z" />
    <glyph glyph-name="hbar" unicode="&#x127;" horiz-adv-x="569" 
d="M438 488q41 -39 41 -105v-383h-39v368q0 121 -120 121q-49 0 -88 -19.5t-105 -69.5v-400h-39v611h-69v34h69v98h36v-98h177v-34h-177v-171q67 49 106.5 68t90.5 19q76 0 117 -39z" />
    <glyph glyph-name="Itilde" unicode="&#x128;" horiz-adv-x="255" 
d="M147 723v-723h-39v723h39zM226.5 867.5q-14.5 -5.5 -37.5 -5.5q-18 0 -30 3t-33 10q-28 11 -48 11q-15 0 -25 -4t-18 -9t-12 -7q-5 -2 -7 -1.5t-3 5.5l-7 16q-1 2 -0.5 4t2.5 3q18 13 32 19.5t34 6.5q22 0 58 -12q33 -13 58 -13q14 0 24 3.5t25 12.5q5 3 7.5 2.5
t4.5 -5.5l8 -18q1 -1 1 -3t-6 -5q-13 -8 -27.5 -13.5z" />
    <glyph glyph-name="itilde" unicode="&#x129;" horiz-adv-x="219" 
d="M129 0h-39v517h39v-517zM203.5 661.5q-14.5 -5.5 -37.5 -5.5q-18 0 -30 3t-33 10q-28 11 -48 11q-15 0 -25 -4t-18 -9t-12 -7q-5 -2 -7 -1.5t-3 5.5l-7 16q-1 2 -0.5 4t2.5 3q18 13 32 19.5t34 6.5q22 0 58 -12q33 -13 58 -13q14 0 24 3.5t25 12.5q5 3 7.5 2.5t4.5 -5.5
l8 -18q1 -1 1 -3t-6 -5q-13 -8 -27.5 -13.5z" />
    <glyph glyph-name="Imacron" unicode="&#x12a;" horiz-adv-x="255" 
d="M147 723v-723h-39v723h39zM254 873h-245v37h245v-37z" />
    <glyph glyph-name="imacron" unicode="&#x12b;" horiz-adv-x="219" 
d="M129 0h-39v517h39v-517zM231 667h-245v37h245v-37z" />
    <glyph glyph-name="Ibreve" unicode="&#x12c;" horiz-adv-x="255" 
d="M147 723v-723h-39v723h39zM217.5 868.5q-33.5 -28.5 -86.5 -28.5t-85 27t-40 62h47q1 -2 9.5 -15.5t26.5 -23.5t42 -10q50 0 81 49h49q-10 -32 -43.5 -60.5z" />
    <glyph glyph-name="ibreve" unicode="&#x12d;" horiz-adv-x="219" 
d="M129 0h-39v517h39v-517zM194.5 662.5q-33.5 -28.5 -86.5 -28.5t-85 27t-40 62h47q1 -2 9.5 -15.5t26.5 -23.5t42 -10q50 0 81 49h49q-10 -32 -43.5 -60.5z" />
    <glyph glyph-name="Iogonek" unicode="&#x12e;" horiz-adv-x="255" 
d="M147 723v-723h-39v723h39zM28.5 -32q24.5 24 83.5 41l33 -9q-52 -24 -75 -44.5t-23 -47.5q0 -21 13.5 -31t42.5 -10q20 0 38 4t26 8q7 4 7 -3v-19q0 -3 -1 -5t-4 -3q-12 -6 -33 -10.5t-43 -4.5q-45 0 -67 20.5t-22 55.5q0 34 24.5 58z" />
    <glyph glyph-name="iogonek" unicode="&#x12f;" horiz-adv-x="219" 
d="M129 0h-39v517h39v-517zM133 628h-48v95h48v-95zM9.5 -29q24.5 24 83.5 41l33 -9q-52 -24 -75 -44.5t-23 -47.5q0 -21 13.5 -31t42.5 -10q20 0 38 4t26 8q7 4 7 -3v-19q0 -3 -1 -5t-4 -3q-12 -6 -33 -10.5t-43 -4.5q-45 0 -67 20.5t-22 55.5q0 34 24.5 58z" />
    <glyph glyph-name="Idotaccent" unicode="&#x130;" horiz-adv-x="255" 
d="M147 723v-723h-39v723h39zM156 834h-48v95h48v-95z" />
    <glyph glyph-name="dotlessi" unicode="&#x131;" horiz-adv-x="219" 
d="M129 0h-39v517h39v-517z" />
    <glyph glyph-name="IJ" unicode="&#x132;" horiz-adv-x="619" 
d="M147 723v-723h-39v723h39zM483.5 28q-27.5 -38 -94.5 -38q-37 0 -69 10.5t-41 18.5l10 43q7 -3 22.5 -11.5t34 -14t41.5 -5.5q47 0 66 27.5t19 95.5v569h39v-583q0 -74 -27.5 -112z" />
    <glyph glyph-name="ij" unicode="&#x133;" horiz-adv-x="484" 
d="M138 647h-48v96h48v-96zM134 0h-39v517h39v-517zM382 647h-49v96h49v-96zM354 -139.5q-23 -26.5 -87 -26.5q-36 0 -49.5 3.5t-13.5 5.5v26l62 1q39 1 55.5 20t16.5 65v562h39v-567q0 -63 -23 -89.5z" />
    <glyph glyph-name="Jcircumflex" unicode="&#x134;" horiz-adv-x="364" 
d="M228.5 28q-27.5 -38 -94.5 -38q-37 0 -69 10.5t-41 18.5l10 43q7 -3 22.5 -11.5t34 -14t41.5 -5.5q47 0 66 27.5t19 95.5v569h39v-583q0 -74 -27.5 -112zM239 894l-78 -60h-56l119 95h32l117 -95h-60z" />
    <glyph glyph-name="jcircumflex" unicode="&#x135;" horiz-adv-x="216" 
d="M105 -139.5q-23 -26.5 -87 -26.5q-43 0 -53.5 1.5t-10.5 7.5v26l63 1q39 1 55.5 20t16.5 65v562h39v-567q0 -63 -23 -89.5zM108 688l-78 -60h-56l119 95h32l117 -95h-60z" />
    <glyph glyph-name="Kcommaaccent" unicode="&#x136;" horiz-adv-x="643" 
d="M552 0l-260 407l-143 -159v-248h-41v723h41v-417l384 417h54l-261 -285l278 -438h-52zM299.5 -227.5q-1.5 2.5 0.5 5.5l24 52q4 9 -4 9h-8q-7 0 -7 9v64q0 8 6 8h44q6 0 6 -7v-74l-1 -6l-30 -57q-2 -4 -5 -5t-9 -1h-12q-3 0 -4.5 2.5z" />
    <glyph glyph-name="kcommaaccent" unicode="&#x137;" horiz-adv-x="538" 
d="M449 0l-184 296l-136 -138v-158h-39v743h39v-529l296 303h55l-185 -188l204 -329h-50zM236.5 -227.5q-1.5 2.5 0.5 5.5l24 52q4 9 -4 9h-8q-7 0 -7 9v64q0 8 6 8h44q6 0 6 -7v-74l-1 -6l-30 -57q-2 -4 -5 -5t-9 -1h-12q-3 0 -4.5 2.5z" />
    <glyph glyph-name="kgreenlandic" unicode="&#x138;" horiz-adv-x="538" 
d="M449 0l-184 296l-136 -138v-158h-39v517h39v-303l296 303h55l-185 -188l204 -329h-50z" />
    <glyph glyph-name="Lacute" unicode="&#x139;" horiz-adv-x="554" 
d="M151 723v-680h369v-43h-412v723h43zM257 892l-239 -78l-10 31l235 92z" />
    <glyph glyph-name="lacute" unicode="&#x13a;" horiz-adv-x="264" 
d="M113.5 35q-23.5 34 -23.5 91v617h39v-617q0 -47 17 -69.5t41 -22.5h32v-29q-16 -4 -33 -4q-49 0 -72.5 34zM230 931l-239 -78l-10 31l235 92z" />
    <glyph glyph-name="Lcommaaccent" unicode="&#x13b;" horiz-adv-x="554" 
d="M151 723v-680h369v-43h-412v723h43zM277.5 -227.5q-1.5 2.5 0.5 5.5l24 52q4 9 -4 9h-8q-7 0 -7 9v64q0 8 6 8h44q6 0 6 -7v-74l-1 -6l-30 -57q-2 -4 -5 -5t-9 -1h-12q-3 0 -4.5 2.5z" />
    <glyph glyph-name="lcommaaccent" unicode="&#x13c;" horiz-adv-x="264" 
d="M113.5 35q-23.5 34 -23.5 91v617h39v-617q0 -47 17 -69.5t41 -22.5h32v-29q-16 -4 -33 -4q-49 0 -72.5 34zM75.5 -227.5q-1.5 2.5 0.5 5.5l24 52q4 9 -4 9h-8q-7 0 -7 9v64q0 8 6 8h44q6 0 6 -7v-74l-1 -6l-30 -57q-2 -4 -5 -5t-9 -1h-12q-3 0 -4.5 2.5z" />
    <glyph glyph-name="Lcaron" unicode="&#x13d;" horiz-adv-x="554" 
d="M151 723v-680h369v-43h-412v723h43zM347.5 555.5q-1.5 2.5 -0.5 4.5l29 68q2 5 1.5 6.5t-4.5 2.5l-5 1q-4 0 -6 1.5t-2 5.5v72q0 6 6 6h42q5 0 5 -5v-80l-1 -4l-32 -74q-3 -7 -13 -7h-15q-3 0 -4.5 2.5z" />
    <glyph glyph-name="lcaron" unicode="&#x13e;" horiz-adv-x="264" 
d="M113.5 35q-23.5 34 -23.5 91v617h39v-617q0 -47 17 -69.5t41 -22.5h32v-29q-16 -4 -33 -4q-49 0 -72.5 34zM187.5 555.5q-1.5 2.5 -0.5 4.5l29 68q2 5 1.5 6.5t-4.5 2.5l-5 1q-4 0 -6 1.5t-2 5.5v72q0 6 6 6h42q5 0 5 -5v-80l-1 -4l-32 -74q-3 -7 -13 -7h-15
q-3 0 -4.5 2.5z" />
    <glyph glyph-name="Ldot" unicode="&#x13f;" horiz-adv-x="557" 
d="M151 723v-680h369v-43h-412v723h43zM496 349h-80v77h80v-77z" />
    <glyph glyph-name="ldot" unicode="&#x140;" horiz-adv-x="289" 
d="M113.5 35q-23.5 34 -23.5 91v617h39v-617q0 -47 17 -69.5t41 -22.5h32v-29q-16 -4 -33 -4q-49 0 -72.5 34zM301 251h-80v77h80v-77z" />
    <glyph glyph-name="Lslash" unicode="&#x141;" horiz-adv-x="552" 
d="M518 43v-43h-412v336l-67 -17q-7 -1 -7 5v23q0 7 5 9l69 18v349h43v-338l163 41q7 1 7 -5v-23q0 -6 -6 -8l-164 -42v-305h369z" />
    <glyph glyph-name="lslash" unicode="&#x142;" horiz-adv-x="220" 
d="M137 296v-170q0 -47 17 -69.5t41 -22.5h32v-29q-16 -4 -33 -4q-49 0 -72.5 34t-23.5 91v134l-95 -90v45l95 89v439h39v-403l97 91v-43z" />
    <glyph glyph-name="Nacute" unicode="&#x143;" horiz-adv-x="722" 
d="M614 723v-723h-34l-433 643v-643h-39v723h32l435 -645v645h39zM499 892l-239 -78l-10 31l235 92z" />
    <glyph glyph-name="nacute" unicode="&#x144;" 
d="M90 517h36v-77q21 38 67 62.5t107 24.5q81 0 131 -48.5t50 -143.5v-335h-39v335q0 74 -37.5 114t-104.5 40q-74 0 -122.5 -33t-48.5 -96v-360h-39v517zM420 686l-239 -78l-10 31l235 92z" />
    <glyph glyph-name="Ncommaaccent" unicode="&#x145;" horiz-adv-x="722" 
d="M614 723v-723h-34l-433 643v-643h-39v723h32l435 -645v645h39zM306.5 -227.5q-1.5 2.5 0.5 5.5l24 52q4 9 -4 9h-8q-7 0 -7 9v64q0 8 6 8h44q6 0 6 -7v-74l-1 -6l-30 -57q-2 -4 -5 -5t-9 -1h-12q-3 0 -4.5 2.5z" />
    <glyph glyph-name="ncommaaccent" unicode="&#x146;" 
d="M90 517h36v-77q21 38 67 62.5t107 24.5q81 0 131 -48.5t50 -143.5v-335h-39v335q0 74 -37.5 114t-104.5 40q-74 0 -122.5 -33t-48.5 -96v-360h-39v517zM256.5 -227.5q-1.5 2.5 0.5 5.5l24 52q4 9 -4 9h-8q-7 0 -7 9v64q0 8 6 8h44q6 0 6 -7v-74l-1 -6l-30 -57
q-2 -4 -5 -5t-9 -1h-12q-3 0 -4.5 2.5z" />
    <glyph glyph-name="Ncaron" unicode="&#x147;" horiz-adv-x="722" 
d="M614 723v-723h-34l-433 643v-643h-39v723h32l435 -645v645h39zM509 929l-117 -95h-32l-120 95h57l78 -60l74 60h60z" />
    <glyph glyph-name="ncaron" unicode="&#x148;" 
d="M90 517h36v-77q21 38 67 62.5t107 24.5q81 0 131 -48.5t50 -143.5v-335h-39v335q0 74 -37.5 114t-104.5 40q-74 0 -122.5 -33t-48.5 -96v-360h-39v517zM430 723l-117 -95h-32l-120 95h57l78 -60l74 60h60z" />
    <glyph glyph-name="napostrophe" unicode="&#x149;" horiz-adv-x="588" 
d="M29.5 467.5q-1.5 2.5 -0.5 4.5l30 117q3 10 -2 10h-5q-8 0 -8 7v111q0 6 6 6h42q4 0 4 -5v-119v-4l-34 -123q-1 -7 -12 -7h-16q-3 0 -4.5 2.5zM107 517h36v-77q21 38 67 62.5t107 24.5q81 0 131 -48.5t50 -143.5v-335h-39v335q0 74 -37.5 114t-104.5 40q-74 0 -122.5 -33
t-48.5 -96v-360h-39v517z" />
    <glyph glyph-name="Eng" unicode="&#x14a;" horiz-adv-x="730" 
d="M620 721.5q2 -1.5 2 -7.5v-759q0 -60 -29 -93t-95 -33q-27 0 -49.5 5t-29.5 10q-4 3 -4 9l3 24q1 7 8 4q35 -13 68 -13q42 0 62.5 21t20.5 71v52l-417 612q-9 13 -9 0v-615q0 -9 -10 -9h-24q-9 0 -9 10v704q0 6 2 7.5t7 1.5h20q9 0 14 -6l415 -616q5 -5 7 -5q3 0 5 2.5
t2 5.5v611q0 8 8 8h25q5 0 7 -1.5z" />
    <glyph glyph-name="eng" unicode="&#x14b;" horiz-adv-x="583" 
d="M323.5 -164.5q-9.5 1.5 -9.5 7.5v24l55 1q39 1 56 21t17 66v407q0 128 -124 128q-86 0 -189 -92v-398h-39v517h36v-78q65 52 106.5 70t90.5 18q74 0 116 -39.5t42 -104.5v-423q0 -126 -111 -126q-37 0 -46.5 1.5z" />
    <glyph glyph-name="Omacron" unicode="&#x14c;" horiz-adv-x="707" 
d="M137.5 85q-77.5 95 -77.5 273q0 181 78 278t217 97q138 0 215 -96.5t77 -276.5q0 -179 -77 -274.5t-216 -95.5t-216.5 95zM540.5 113q62.5 82 62.5 247q0 166 -63.5 249t-184.5 83q-122 0 -186.5 -83.5t-64.5 -248.5q0 -164 64.5 -246.5t187.5 -82.5q122 0 184.5 82z
M478 873h-245v37h245v-37z" />
    <glyph glyph-name="omacron" unicode="&#x14d;" horiz-adv-x="565" 
d="M118.5 62.5q-58.5 72.5 -58.5 192.5q0 80 26.5 141.5t77 96t120.5 34.5q69 0 119 -34t76 -95.5t26 -140.5q0 -121 -58.5 -194t-163.5 -73q-106 0 -164.5 72.5zM418.5 88.5q45.5 61.5 45.5 168.5t-46.5 169.5t-133.5 62.5q-88 0 -135.5 -63t-47.5 -169q0 -105 47.5 -167.5
t136.5 -62.5q88 0 133.5 61.5zM407 667h-245v37h245v-37z" />
    <glyph glyph-name="Obreve" unicode="&#x14e;" horiz-adv-x="707" 
d="M137.5 85q-77.5 95 -77.5 273q0 181 78 278t217 97q138 0 215 -96.5t77 -276.5q0 -179 -77 -274.5t-216 -95.5t-216.5 95zM540.5 113q62.5 82 62.5 247q0 166 -63.5 249t-184.5 83q-122 0 -186.5 -83.5t-64.5 -248.5q0 -164 64.5 -246.5t187.5 -82.5q122 0 184.5 82z
M441.5 868.5q-33.5 -28.5 -86.5 -28.5t-85 27t-40 62h47q1 -2 9.5 -15.5t26.5 -23.5t42 -10q50 0 81 49h49q-10 -32 -43.5 -60.5z" />
    <glyph glyph-name="obreve" unicode="&#x14f;" horiz-adv-x="565" 
d="M118.5 62.5q-58.5 72.5 -58.5 192.5q0 80 26.5 141.5t77 96t120.5 34.5q69 0 119 -34t76 -95.5t26 -140.5q0 -121 -58.5 -194t-163.5 -73q-106 0 -164.5 72.5zM418.5 88.5q45.5 61.5 45.5 168.5t-46.5 169.5t-133.5 62.5q-88 0 -135.5 -63t-47.5 -169q0 -105 47.5 -167.5
t136.5 -62.5q88 0 133.5 61.5zM370.5 662.5q-33.5 -28.5 -86.5 -28.5t-85 27t-40 62h47q1 -2 9.5 -15.5t26.5 -23.5t42 -10q50 0 81 49h49q-10 -32 -43.5 -60.5z" />
    <glyph glyph-name="Ohungarumlaut" unicode="&#x150;" horiz-adv-x="707" 
d="M137.5 85q-77.5 95 -77.5 273q0 181 78 278t217 97q138 0 215 -96.5t77 -276.5q0 -179 -77 -274.5t-216 -95.5t-216.5 95zM540.5 113q62.5 82 62.5 247q0 166 -63.5 249t-184.5 83q-122 0 -186.5 -83.5t-64.5 -248.5q0 -164 64.5 -246.5t187.5 -82.5q122 0 184.5 82z
M406 908q3 -3 3 -6q0 -2 -5 -7l-121 -114q-8 -6 -12 1l-9 13q-5 5 0 10l114 129q4 5 9 0zM544 908q3 -3 3 -5q0 -3 -6 -8l-121 -114q-8 -6 -12 1l-8 13q-5 5 0 10l114 129q2 2 4.5 2t3.5 -2z" />
    <glyph glyph-name="ohungarumlaut" unicode="&#x151;" horiz-adv-x="565" 
d="M118.5 62.5q-58.5 72.5 -58.5 192.5q0 80 26.5 141.5t77 96t120.5 34.5q69 0 119 -34t76 -95.5t26 -140.5q0 -121 -58.5 -194t-163.5 -73q-106 0 -164.5 72.5zM418.5 88.5q45.5 61.5 45.5 168.5t-46.5 169.5t-133.5 62.5q-88 0 -135.5 -63t-47.5 -169q0 -105 47.5 -167.5
t136.5 -62.5q88 0 133.5 61.5zM335 702q3 -3 3 -6q0 -2 -5 -7l-121 -114q-8 -6 -12 1l-9 13q-5 5 0 10l114 129q4 5 9 0zM473 702q3 -3 3 -5q0 -3 -6 -8l-121 -114q-8 -6 -12 1l-8 13q-5 5 0 10l114 129q2 2 4.5 2t3.5 -2z" />
    <glyph glyph-name="OE" unicode="&#x152;" horiz-adv-x="1099" 
d="M1028 0h-426v137q-36 -72 -99 -109.5t-149 -37.5q-139 0 -216.5 95t-77.5 273q0 181 78 278t217 97q86 0 148.5 -37.5t98.5 -110.5v138h411v-39h-366v-299h287v-39h-287v-307h381v-39zM537.5 112.5q60.5 81.5 60.5 247.5q0 332 -243 332q-122 0 -185 -83.5t-63 -248.5
q0 -164 63.5 -246.5t185.5 -82.5q121 0 181.5 81.5z" />
    <glyph glyph-name="oe" unicode="&#x153;" horiz-adv-x="1011" 
d="M172 23q-54 33 -83 93t-29 139q0 80 29.5 142t83.5 96t125 34t125.5 -35.5t82.5 -99.5q5 -7 7 -7q3 0 6 7q27 63 81.5 99t124.5 36q107 0 166.5 -74t59.5 -205h-418q0 -59 26.5 -109.5t71 -80.5t97.5 -30q59 0 103.5 25t71.5 73l33 -22q-69 -114 -208 -114
q-70 0 -124 33.5t-84 93.5q-3 9 -8 9q-4 0 -10 -12q-29 -59 -82.5 -91.5t-122.5 -32.5q-71 0 -125 33zM401 56.5q44 28.5 68 80.5t24 120t-24.5 120.5t-69 81.5t-101.5 29q-58 0 -103 -29t-69.5 -81.5t-24.5 -120.5t24.5 -120t69.5 -80.5t104 -28.5q58 0 102 28.5z
M628 461.5q-44 -26.5 -68.5 -73t-24.5 -104.5l376 -1q0 57 -23.5 104t-65.5 74t-95 27q-55 0 -99 -26.5z" />
    <glyph glyph-name="Racute" unicode="&#x154;" horiz-adv-x="660" 
d="M536 0l-146 344h-243v-344h-39v723h255q106 0 164 -45.5t58 -133.5q0 -82 -45 -128.5t-109 -62.5l150 -353h-45zM489.5 421q53.5 36 53.5 116q0 76 -45.5 111t-135.5 35h-215v-298h182q107 0 160.5 36zM441 892l-239 -78l-10 31l235 92z" />
    <glyph glyph-name="racute" unicode="&#x155;" horiz-adv-x="357" 
d="M90 517h36v-93q29 44 87 73.5t110 29.5v-40q-43 0 -88.5 -21.5t-75.5 -56t-30 -67.5v-342h-39v517zM323 686l-239 -78l-10 31l235 92z" />
    <glyph glyph-name="Rcommaaccent" unicode="&#x156;" horiz-adv-x="660" 
d="M536 0l-146 344h-243v-344h-39v723h255q106 0 164 -45.5t58 -133.5q0 -82 -45 -128.5t-109 -62.5l150 -353h-45zM489.5 421q53.5 36 53.5 116q0 76 -45.5 111t-135.5 35h-215v-298h182q107 0 160.5 36zM293.5 -227.5q-1.5 2.5 0.5 5.5l24 52q4 9 -4 9h-8q-7 0 -7 9v64
q0 8 6 8h44q6 0 6 -7v-74l-1 -6l-30 -57q-2 -4 -5 -5t-9 -1h-12q-3 0 -4.5 2.5z" />
    <glyph glyph-name="rcommaaccent" unicode="&#x157;" horiz-adv-x="357" 
d="M90 517h36v-93q29 44 87 73.5t110 29.5v-40q-43 0 -88.5 -21.5t-75.5 -56t-30 -67.5v-342h-39v517zM78.5 -227.5q-1.5 2.5 0.5 5.5l24 52q4 9 -4 9h-8q-7 0 -7 9v64q0 8 6 8h44q6 0 6 -7v-74l-1 -6l-30 -57q-2 -4 -5 -5t-9 -1h-12q-3 0 -4.5 2.5z" />
    <glyph glyph-name="Rcaron" unicode="&#x158;" horiz-adv-x="660" 
d="M536 0l-146 344h-243v-344h-39v723h255q106 0 164 -45.5t58 -133.5q0 -82 -45 -128.5t-109 -62.5l150 -353h-45zM489.5 421q53.5 36 53.5 116q0 76 -45.5 111t-135.5 35h-215v-298h182q107 0 160.5 36zM451 929l-117 -95h-32l-120 95h57l78 -60l74 60h60z" />
    <glyph glyph-name="rcaron" unicode="&#x159;" horiz-adv-x="357" 
d="M90 517h36v-93q29 44 87 73.5t110 29.5v-40q-43 0 -88.5 -21.5t-75.5 -56t-30 -67.5v-342h-39v517zM333 723l-117 -95h-32l-120 95h57l78 -60l74 60h60z" />
    <glyph glyph-name="Sacute" unicode="&#x15a;" horiz-adv-x="646" 
d="M151.5 37.5q-75.5 47.5 -91.5 129.5l42 9q16 -70 79.5 -108.5t147.5 -38.5q62 0 111 18.5t76 52t27 75.5q0 59 -31.5 96t-100.5 54l-161 40q-82 20 -124.5 61.5t-42.5 105.5q0 57 30 102.5t85 71.5t127 26q115 0 177 -55t70 -137l-40 -8q-14 83 -71 121t-138 38
q-46 0 -91.5 -17.5t-75.5 -53t-30 -87.5q0 -49 34.5 -82t116.5 -54l154 -40q155 -39 155 -180q0 -52 -29 -94.5t-87 -67.5t-141 -25q-102 0 -177.5 47.5zM447 892l-239 -78l-10 31l235 92z" />
    <glyph glyph-name="sacute" unicode="&#x15b;" horiz-adv-x="497" 
d="M116.5 27q-49.5 37 -62.5 96l37 15q31 -111 154 -111q64 0 110.5 29t46.5 78q0 77 -86 98l-120 28q-65 16 -93.5 46.5t-28.5 75.5q0 70 48 107.5t129 37.5q85 0 131 -39.5t51 -99.5l-38 -9q-11 57 -49 83.5t-96 26.5q-56 0 -95.5 -25t-39.5 -82q0 -29 19.5 -50t72.5 -35
l123 -32q59 -15 86 -49.5t27 -81.5q0 -40 -24.5 -73t-69.5 -52t-104 -19q-79 0 -128.5 37zM360 686l-239 -78l-10 31l235 92z" />
    <glyph glyph-name="Scircumflex" unicode="&#x15c;" horiz-adv-x="646" 
d="M151.5 37.5q-75.5 47.5 -91.5 129.5l42 9q16 -70 79.5 -108.5t147.5 -38.5q62 0 111 18.5t76 52t27 75.5q0 59 -31.5 96t-100.5 54l-161 40q-82 20 -124.5 61.5t-42.5 105.5q0 57 30 102.5t85 71.5t127 26q115 0 177 -55t70 -137l-40 -8q-14 83 -71 121t-138 38
q-46 0 -91.5 -17.5t-75.5 -53t-30 -87.5q0 -49 34.5 -82t116.5 -54l154 -40q155 -39 155 -180q0 -52 -29 -94.5t-87 -67.5t-141 -25q-102 0 -177.5 47.5zM323 894l-78 -60h-56l119 95h32l117 -95h-60z" />
    <glyph glyph-name="scircumflex" unicode="&#x15d;" horiz-adv-x="497" 
d="M116.5 27q-49.5 37 -62.5 96l37 15q31 -111 154 -111q64 0 110.5 29t46.5 78q0 77 -86 98l-120 28q-65 16 -93.5 46.5t-28.5 75.5q0 70 48 107.5t129 37.5q85 0 131 -39.5t51 -99.5l-38 -9q-11 57 -49 83.5t-96 26.5q-56 0 -95.5 -25t-39.5 -82q0 -29 19.5 -50t72.5 -35
l123 -32q59 -15 86 -49.5t27 -81.5q0 -40 -24.5 -73t-69.5 -52t-104 -19q-79 0 -128.5 37zM236 688l-78 -60h-56l119 95h32l117 -95h-60z" />
    <glyph glyph-name="Scedilla" unicode="&#x15e;" horiz-adv-x="646" 
d="M151.5 37.5q-75.5 47.5 -91.5 129.5l42 9q16 -70 79.5 -108.5t147.5 -38.5q62 0 111 18.5t76 52t27 75.5q0 59 -31.5 96t-100.5 54l-161 40q-82 20 -124.5 61.5t-42.5 105.5q0 57 30 102.5t85 71.5t127 26q115 0 177 -55t70 -137l-40 -8q-14 83 -71 121t-138 38
q-46 0 -91.5 -17.5t-75.5 -53t-30 -87.5q0 -49 34.5 -82t116.5 -54l154 -40q155 -39 155 -180q0 -52 -29 -94.5t-87 -67.5t-141 -25q-102 0 -177.5 47.5zM360.5 -180q-27.5 -19 -69.5 -19q-43 0 -75 23l11 28q12 -11 25.5 -16.5t34.5 -5.5q58 0 58 42q0 23 -18 34t-57 13
q-6 0 -4 4l36 82h33l-25 -62q42 -3 60 -22.5t18 -46.5q0 -35 -27.5 -54z" />
    <glyph glyph-name="scedilla" unicode="&#x15f;" horiz-adv-x="497" 
d="M116.5 27q-49.5 37 -62.5 96l37 15q31 -111 154 -111q64 0 110.5 29t46.5 78q0 77 -86 98l-120 28q-65 16 -93.5 46.5t-28.5 75.5q0 70 48 107.5t129 37.5q85 0 131 -39.5t51 -99.5l-38 -9q-11 57 -49 83.5t-96 26.5q-56 0 -95.5 -25t-39.5 -82q0 -29 19.5 -50t72.5 -35
l123 -32q59 -15 86 -49.5t27 -81.5q0 -40 -24.5 -73t-69.5 -52t-104 -19q-79 0 -128.5 37zM287.5 -180q-27.5 -19 -69.5 -19q-43 0 -75 23l11 28q12 -11 25.5 -16.5t34.5 -5.5q58 0 58 42q0 23 -18 34t-57 13q-6 0 -4 4l36 82h33l-25 -62q42 -3 60 -22.5t18 -46.5
q0 -35 -27.5 -54z" />
    <glyph glyph-name="Scaron" unicode="&#x160;" horiz-adv-x="646" 
d="M151.5 37.5q-75.5 47.5 -91.5 129.5l42 9q16 -70 79.5 -108.5t147.5 -38.5q62 0 111 18.5t76 52t27 75.5q0 59 -31.5 96t-100.5 54l-161 40q-82 20 -124.5 61.5t-42.5 105.5q0 57 30 102.5t85 71.5t127 26q115 0 177 -55t70 -137l-40 -8q-14 83 -71 121t-138 38
q-46 0 -91.5 -17.5t-75.5 -53t-30 -87.5q0 -49 34.5 -82t116.5 -54l154 -40q155 -39 155 -180q0 -52 -29 -94.5t-87 -67.5t-141 -25q-102 0 -177.5 47.5zM457 929l-117 -95h-32l-120 95h57l78 -60l74 60h60z" />
    <glyph glyph-name="scaron" unicode="&#x161;" horiz-adv-x="497" 
d="M116.5 27q-49.5 37 -62.5 96l37 15q31 -111 154 -111q64 0 110.5 29t46.5 78q0 77 -86 98l-120 28q-65 16 -93.5 46.5t-28.5 75.5q0 70 48 107.5t129 37.5q85 0 131 -39.5t51 -99.5l-38 -9q-11 57 -49 83.5t-96 26.5q-56 0 -95.5 -25t-39.5 -82q0 -29 19.5 -50t72.5 -35
l123 -32q59 -15 86 -49.5t27 -81.5q0 -40 -24.5 -73t-69.5 -52t-104 -19q-79 0 -128.5 37zM370 723l-117 -95h-32l-120 95h57l78 -60l74 60h60z" />
    <glyph glyph-name="uni0162" unicode="&#x162;" horiz-adv-x="545" 
d="M15 723h515v-40h-228v-683h-39v683h-248v40zM327.5 -180q-27.5 -19 -69.5 -19q-43 0 -75 23l11 28q12 -11 25.5 -16.5t34.5 -5.5q58 0 58 42q0 23 -18 34t-57 13q-6 0 -4 4l36 82h33l-25 -62q42 -3 60 -22.5t18 -46.5q0 -35 -27.5 -54z" />
    <glyph glyph-name="uni0163" unicode="&#x163;" horiz-adv-x="361" 
d="M179 483v-362q0 -51 14 -69t46 -18h66v-29q-16 -5 -63 -5q-58 0 -80 26.5t-22 89.5v367h-84v34h84v175h39v-175h119v-34h-119zM299.5 -180q-27.5 -19 -69.5 -19q-43 0 -75 23l11 28q12 -11 25.5 -16.5t34.5 -5.5q58 0 58 42q0 23 -18 34t-57 13q-6 0 -4 4l36 82h33
l-25 -62q42 -3 60 -22.5t18 -46.5q0 -35 -27.5 -54z" />
    <glyph glyph-name="Tcaron" unicode="&#x164;" horiz-adv-x="545" 
d="M15 723h515v-40h-228v-683h-39v683h-248v40zM418 929l-117 -95h-32l-120 95h57l78 -60l74 60h60z" />
    <glyph glyph-name="tcaron" unicode="&#x165;" horiz-adv-x="361" 
d="M179 483v-362q0 -51 14 -69t46 -18h66v-29q-16 -5 -63 -5q-58 0 -80 26.5t-22 89.5v367h-84v34h84v175h39v-175h119v-34h-119zM297.5 568.5q-1.5 2.5 -0.5 4.5l29 68q2 5 1.5 6.5t-4.5 2.5l-5 1q-4 0 -6 1.5t-2 5.5v72q0 6 6 6h42q5 0 5 -5v-80l-1 -4l-32 -74
q-3 -7 -13 -7h-15q-3 0 -4.5 2.5z" />
    <glyph glyph-name="Tbar" unicode="&#x166;" horiz-adv-x="545" 
d="M302 683v-291h191v-41h-191v-351h-39v351h-127v41h127v291h-248v40h515v-40h-228z" />
    <glyph glyph-name="tbar" unicode="&#x167;" horiz-adv-x="333" 
d="M303 34v-29q-16 -5 -63 -5q-58 0 -80 26.5t-22 89.5v157h-92v34h92v176h-84v34h84v175h39v-175h119v-34h-119v-176h92v-34h-92v-152q0 -51 14 -69t46 -18h66z" />
    <glyph glyph-name="Utilde" unicode="&#x168;" horiz-adv-x="695" 
d="M527.5 48q-59.5 -58 -180.5 -58q-123 0 -181 60.5t-58 188.5v484h43v-501q0 -194 196 -194q201 0 201 194v501h39v-499q0 -118 -59.5 -176zM444.5 867.5q-14.5 -5.5 -37.5 -5.5q-18 0 -30 3t-33 10q-28 11 -48 11q-15 0 -25 -4t-18 -9t-12 -7q-5 -2 -7 -1.5t-3 5.5l-7 16
q-1 2 -0.5 4t2.5 3q18 13 32 19.5t34 6.5q22 0 58 -12q33 -13 58 -13q14 0 24 3.5t25 12.5q5 3 7.5 2.5t4.5 -5.5l8 -18q1 -1 1 -3t-6 -5q-13 -8 -27.5 -13.5z" />
    <glyph glyph-name="utilde" unicode="&#x169;" 
d="M194 8.5q-45 17.5 -74.5 58.5t-29.5 107v345h39v-345q0 -77 47 -111t106 -34q42 0 78 17t59 51.5t23 84.5v337h39v-518h-36v85q-8 -22 -32 -44t-57 -36.5t-69 -14.5q-48 0 -93 17.5zM367.5 661.5q-14.5 -5.5 -37.5 -5.5q-18 0 -30 3t-33 10q-28 11 -48 11q-15 0 -25 -4
t-18 -9t-12 -7q-5 -2 -7 -1.5t-3 5.5l-7 16q-1 2 -0.5 4t2.5 3q18 13 32 19.5t34 6.5q22 0 58 -12q33 -13 58 -13q14 0 24 3.5t25 12.5q5 3 7.5 2.5t4.5 -5.5l8 -18q1 -1 1 -3t-6 -5q-13 -8 -27.5 -13.5z" />
    <glyph glyph-name="Umacron" unicode="&#x16a;" horiz-adv-x="695" 
d="M527.5 48q-59.5 -58 -180.5 -58q-123 0 -181 60.5t-58 188.5v484h43v-501q0 -194 196 -194q201 0 201 194v501h39v-499q0 -118 -59.5 -176zM472 873h-245v37h245v-37z" />
    <glyph glyph-name="umacron" unicode="&#x16b;" 
d="M194 8.5q-45 17.5 -74.5 58.5t-29.5 107v345h39v-345q0 -77 47 -111t106 -34q42 0 78 17t59 51.5t23 84.5v337h39v-518h-36v85q-8 -22 -32 -44t-57 -36.5t-69 -14.5q-48 0 -93 17.5zM395 667h-245v37h245v-37z" />
    <glyph glyph-name="Ubreve" unicode="&#x16c;" horiz-adv-x="695" 
d="M527.5 48q-59.5 -58 -180.5 -58q-123 0 -181 60.5t-58 188.5v484h43v-501q0 -194 196 -194q201 0 201 194v501h39v-499q0 -118 -59.5 -176zM435.5 868.5q-33.5 -28.5 -86.5 -28.5t-85 27t-40 62h47q1 -2 9.5 -15.5t26.5 -23.5t42 -10q50 0 81 49h49q-10 -32 -43.5 -60.5z
" />
    <glyph glyph-name="ubreve" unicode="&#x16d;" 
d="M194 8.5q-45 17.5 -74.5 58.5t-29.5 107v345h39v-345q0 -77 47 -111t106 -34q42 0 78 17t59 51.5t23 84.5v337h39v-518h-36v85q-8 -22 -32 -44t-57 -36.5t-69 -14.5q-48 0 -93 17.5zM358.5 662.5q-33.5 -28.5 -86.5 -28.5t-85 27t-40 62h47q1 -2 9.5 -15.5t26.5 -23.5
t42 -10q50 0 81 49h49q-10 -32 -43.5 -60.5z" />
    <glyph glyph-name="Uring" unicode="&#x16e;" horiz-adv-x="695" 
d="M527.5 48q-59.5 -58 -180.5 -58q-123 0 -181 60.5t-58 188.5v484h43v-501q0 -194 196 -194q201 0 201 194v501h39v-499q0 -118 -59.5 -176zM419.5 820q-28.5 -28 -69.5 -28t-69 28.5t-28 70.5q0 39 28.5 66.5t68.5 27.5q41 0 69.5 -28t28.5 -68q0 -41 -28.5 -69z
M389.5 930q-16.5 16 -40.5 16q-23 0 -40 -16t-17 -41q0 -23 17 -40.5t40 -17.5q24 0 40.5 17t16.5 41q0 25 -16.5 41z" />
    <glyph glyph-name="uring" unicode="&#x16f;" 
d="M194 8.5q-45 17.5 -74.5 58.5t-29.5 107v345h39v-345q0 -77 47 -111t106 -34q42 0 78 17t59 51.5t23 84.5v337h39v-518h-36v85q-8 -22 -32 -44t-57 -36.5t-69 -14.5q-48 0 -93 17.5zM342.5 614q-28.5 -28 -69.5 -28t-69 28.5t-28 70.5q0 39 28.5 66.5t68.5 27.5
q41 0 69.5 -28t28.5 -68q0 -41 -28.5 -69zM312.5 724q-16.5 16 -40.5 16q-23 0 -40 -16t-17 -41q0 -23 17 -40.5t40 -17.5q24 0 40.5 17t16.5 41q0 25 -16.5 41z" />
    <glyph glyph-name="Uhungarumlaut" unicode="&#x170;" horiz-adv-x="695" 
d="M527.5 48q-59.5 -58 -180.5 -58q-123 0 -181 60.5t-58 188.5v484h43v-501q0 -194 196 -194q201 0 201 194v501h39v-499q0 -118 -59.5 -176zM400 908q3 -3 3 -6q0 -2 -5 -7l-121 -114q-8 -6 -12 1l-9 13q-5 5 0 10l114 129q4 5 9 0zM538 908q3 -3 3 -5q0 -3 -6 -8
l-121 -114q-8 -6 -12 1l-8 13q-5 5 0 10l114 129q2 2 4.5 2t3.5 -2z" />
    <glyph glyph-name="uhungarumlaut" unicode="&#x171;" 
d="M194 8.5q-45 17.5 -74.5 58.5t-29.5 107v345h39v-345q0 -77 47 -111t106 -34q42 0 78 17t59 51.5t23 84.5v337h39v-518h-36v85q-8 -22 -32 -44t-57 -36.5t-69 -14.5q-48 0 -93 17.5zM323 702q3 -3 3 -6q0 -2 -5 -7l-121 -114q-8 -6 -12 1l-9 13q-5 5 0 10l114 129
q4 5 9 0zM461 702q3 -3 3 -5q0 -3 -6 -8l-121 -114q-8 -6 -12 1l-8 13q-5 5 0 10l114 129q2 2 4.5 2t3.5 -2z" />
    <glyph glyph-name="Uogonek" unicode="&#x172;" horiz-adv-x="695" 
d="M527.5 48q-59.5 -58 -180.5 -58q-123 0 -181 60.5t-58 188.5v484h43v-501q0 -194 196 -194q201 0 201 194v501h39v-499q0 -118 -59.5 -176zM305.5 -33q24.5 24 83.5 41l33 -9q-52 -24 -75 -44.5t-23 -47.5q0 -21 13.5 -31t42.5 -10q20 0 38 4t26 8q7 4 7 -3v-19
q0 -3 -1 -5t-4 -3q-12 -6 -33 -10.5t-43 -4.5q-45 0 -67 20.5t-22 55.5q0 34 24.5 58z" />
    <glyph glyph-name="uogonek" unicode="&#x173;" 
d="M194 8.5q-45 17.5 -74.5 58.5t-29.5 107v345h39v-345q0 -77 47 -111t106 -34q42 0 78 17t59 51.5t23 84.5v337h39v-518h-36v85q-8 -22 -32 -44t-57 -36.5t-69 -14.5q-48 0 -93 17.5zM360.5 -31q24.5 24 83.5 41l33 -9q-52 -24 -75 -44.5t-23 -47.5q0 -21 13.5 -31
t42.5 -10q20 0 38 4t26 8q7 4 7 -3v-19q0 -3 -1 -5t-4 -3q-12 -6 -33 -10.5t-43 -4.5q-45 0 -67 20.5t-22 55.5q0 34 24.5 58z" />
    <glyph glyph-name="Wcircumflex" unicode="&#x174;" horiz-adv-x="942" 
d="M705 0h-55l-181 648l-185 -648h-52l-203 723h44l185 -674l192 674h39l189 -674l192 674h43zM476 894l-78 -60h-56l119 95h32l117 -95h-60z" />
    <glyph glyph-name="wcircumflex" unicode="&#x175;" horiz-adv-x="758" 
d="M578 0h-54l-145 450l-134 -450h-56l-158 517h42l144 -474l144 474h36l152 -472l137 472h41zM383 688l-78 -60h-56l119 95h32l117 -95h-60z" />
    <glyph glyph-name="Ycircumflex" unicode="&#x176;" horiz-adv-x="539" 
d="M291 311v-311h-39v312l-242 411h44l218 -372l214 372h43zM266 894l-78 -60h-56l119 95h32l117 -95h-60z" />
    <glyph glyph-name="ycircumflex" unicode="&#x177;" horiz-adv-x="491" 
d="M57.5 -161.5q-15.5 3.5 -15.5 4.5v27h55q45 0 68.5 17t36.5 47l26 69l-202 514h42l181 -461l178 461h38l-226 -592q-36 -90 -135 -90q-31 0 -46.5 3.5zM248 688l-78 -60h-56l119 95h32l117 -95h-60z" />
    <glyph glyph-name="Ydieresis" unicode="&#x178;" horiz-adv-x="539" 
d="M291 311v-311h-39v312l-242 411h44l218 -372l214 372h43zM235 834h-48v95h48v-95zM344 834h-49v95h49v-95z" />
    <glyph glyph-name="Zacute" unicode="&#x179;" horiz-adv-x="588" 
d="M56 31l425 653h-416v39h467v-30l-427 -654h427v-39h-476v31zM423 892l-239 -78l-10 31l235 92z" />
    <glyph glyph-name="zacute" unicode="&#x17a;" horiz-adv-x="467" 
d="M49 38l326 445h-305v34h346v-41l-324 -442h331v-34h-374v38zM376 686l-239 -78l-10 31l235 92z" />
    <glyph glyph-name="Zdotaccent" unicode="&#x17b;" horiz-adv-x="588" 
d="M56 31l425 653h-416v39h467v-30l-427 -654h427v-39h-476v31zM323 834h-48v95h48v-95z" />
    <glyph glyph-name="zdotaccent" unicode="&#x17c;" horiz-adv-x="467" 
d="M49 38l326 445h-305v34h346v-41l-324 -442h331v-34h-374v38zM276 628h-48v95h48v-95z" />
    <glyph glyph-name="Zcaron" unicode="&#x17d;" horiz-adv-x="588" 
d="M56 31l425 653h-416v39h467v-30l-427 -654h427v-39h-476v31zM433 929l-117 -95h-32l-120 95h57l78 -60l74 60h60z" />
    <glyph glyph-name="zcaron" unicode="&#x17e;" horiz-adv-x="467" 
d="M49 38l326 445h-305v34h346v-41l-324 -442h331v-34h-374v38zM386 723l-117 -95h-32l-120 95h57l78 -60l74 60h60z" />
    <glyph glyph-name="uni018F" unicode="&#x18f;" horiz-adv-x="706" 
d="M545 594.5q-51 96.5 -191 96.5q-80 0 -128 -31.5t-68 -69.5t-32 -82q-6 -18 -7 -20t-3.5 -1t-3.5 1l-37 12q-3 1 -2.5 3.5t1.5 5.5q2 6 22.5 65t89 109t168.5 50q164 0 228 -111t64 -265q0 -156 -69 -261.5t-223 -105.5q-159 0 -226.5 103.5t-67.5 266.5q0 6 1.5 8.5
t6.5 2.5h522q3 0 4.5 0.5t1.5 4.5q0 122 -51 218.5zM119 330q-8 0 -8 -6q0 -122 56 -207t187 -85t185 85t57 213h-477z" />
    <glyph glyph-name="florin" unicode="&#x192;" horiz-adv-x="395" 
d="M311 483h-143l-91 -523q-22 -126 -133 -126h-55l5 33l56 1q39 1 59 20.5t28 66.5l92 528h-83l6 34h83l15 86q21 120 132 120h75l-5 -34h-80q-31 0 -53 -22t-29 -60l-16 -90h143z" />
    <glyph glyph-name="uni01C4" unicode="&#x1c4;" horiz-adv-x="1252" 
d="M228 722q199 -1 288 -86.5t89 -268.5q0 -190 -95 -278.5t-296 -88.5h-106v723zM151 41h60q180 0 266 74.5t86 247.5q0 122 -39.5 191.5t-115 98.5t-191.5 29h-66v-641zM720 31l425 653h-416v39h467v-30l-427 -654h427v-39h-476v31zM1097 929l-117 -95h-32l-120 95h57
l78 -60l74 60h60z" />
    <glyph glyph-name="uni01C5" unicode="&#x1c5;" horiz-adv-x="1131" 
d="M228 722q199 -1 288 -86.5t89 -268.5q0 -190 -95 -278.5t-296 -88.5h-106v723zM151 41h60q180 0 266 74.5t86 247.5q0 122 -39.5 191.5t-115 98.5t-191.5 29h-66v-641zM713 38l326 445h-305v34h346v-41l-324 -442h331v-34h-374v38zM1050 723l-117 -95h-32l-120 95h57
l78 -60l74 60h60z" />
    <glyph glyph-name="uni01C6" unicode="&#x1c6;" horiz-adv-x="1035" 
d="M116.5 56.5q-56.5 66.5 -56.5 192.5t58.5 202t163.5 76q44 0 80 -15.5t77 -48.5v280h39v-743h-37v77q-20 -22 -38 -38.5t-52.5 -32.5t-80.5 -16q-97 0 -153.5 66.5zM357.5 49q37.5 22 59.5 54.5t22 62.5v249q-37 37 -75 55.5t-81 18.5q-86 0 -134 -62.5t-48 -173.5
q0 -112 48 -169t126 -57q45 0 82.5 22zM617 38l326 445h-305v34h346v-41l-324 -442h331v-34h-374v38zM954 723l-117 -95h-32l-120 95h57l78 -60l74 60h60z" />
    <glyph glyph-name="uni01C7" unicode="&#x1c7;" horiz-adv-x="948" 
d="M151 723v-680h369v-43h-412v723h43zM812.5 28q-27.5 -38 -94.5 -38q-37 0 -69 10.5t-41 18.5l10 43q7 -3 22.5 -11.5t34 -14t41.5 -5.5q47 0 66 27.5t19 95.5v569h39v-583q0 -74 -27.5 -112z" />
    <glyph glyph-name="uni01C8" unicode="&#x1c8;" horiz-adv-x="810" 
d="M151 723v-680h369v-43h-412v723h43zM708 647h-49v96h49v-96zM680 -139.5q-23 -26.5 -87 -26.5q-36 0 -49.5 3.5t-13.5 5.5v26l62 1q39 1 55.5 20t16.5 65v562h39v-567q0 -63 -23 -89.5z" />
    <glyph glyph-name="uni01C9" unicode="&#x1c9;" horiz-adv-x="520" 
d="M113.5 35q-23.5 34 -23.5 91v617h39v-617q0 -47 17 -69.5t41 -22.5h32v-29q-16 -4 -33 -4q-49 0 -72.5 34zM418 647h-49v96h49v-96zM390 -139.5q-23 -26.5 -87 -26.5q-36 0 -49.5 3.5t-13.5 5.5v26l62 1q39 1 55.5 20t16.5 65v562h39v-567q0 -63 -23 -89.5z" />
    <glyph glyph-name="uni01CA" unicode="&#x1ca;" horiz-adv-x="1086" 
d="M614 723v-723h-34l-433 643v-643h-39v723h32l435 -645v645h39zM950.5 28q-27.5 -38 -94.5 -38q-37 0 -69 10.5t-41 18.5l10 43q7 -3 22.5 -11.5t34 -14t41.5 -5.5q47 0 66 27.5t19 95.5v569h39v-583q0 -74 -27.5 -112z" />
    <glyph glyph-name="uni01CB" unicode="&#x1cb;" horiz-adv-x="978" 
d="M614 723v-723h-34l-433 643v-643h-39v723h32l435 -645v645h39zM876 647h-49v96h49v-96zM848 -139.5q-23 -26.5 -87 -26.5q-36 0 -49.5 3.5t-13.5 5.5v26l62 1q39 1 55.5 20t16.5 65v562h39v-567q0 -63 -23 -89.5z" />
    <glyph glyph-name="uni01CC" unicode="&#x1cc;" horiz-adv-x="827" 
d="M90 517h36v-77q21 38 67 62.5t107 24.5q81 0 131 -48.5t50 -143.5v-335h-39v335q0 74 -37.5 114t-104.5 40q-74 0 -122.5 -33t-48.5 -96v-360h-39v517zM725 647h-49v96h49v-96zM697 -139.5q-23 -26.5 -87 -26.5q-36 0 -49.5 3.5t-13.5 5.5v26l62 1q39 1 55.5 20t16.5 65
v562h39v-567q0 -63 -23 -89.5z" />
    <glyph glyph-name="uni01EA" unicode="&#x1ea;" horiz-adv-x="707" 
d="M137.5 85q-77.5 95 -77.5 273q0 181 78 278t217 97q138 0 215 -96.5t77 -276.5q0 -179 -77 -274.5t-216 -95.5t-216.5 95zM540.5 113q62.5 82 62.5 247q0 166 -63.5 249t-184.5 83q-122 0 -186.5 -83.5t-64.5 -248.5q0 -164 64.5 -246.5t187.5 -82.5q122 0 184.5 82z
M312.5 -33q24.5 24 83.5 41l33 -9q-52 -24 -75 -44.5t-23 -47.5q0 -21 13.5 -31t42.5 -10q20 0 38 4t26 8q7 4 7 -3v-19q0 -3 -1 -5t-4 -3q-12 -6 -33 -10.5t-43 -4.5q-45 0 -67 20.5t-22 55.5q0 34 24.5 58z" />
    <glyph glyph-name="uni01EB" unicode="&#x1eb;" horiz-adv-x="565" 
d="M118.5 62.5q-58.5 72.5 -58.5 192.5q0 80 26.5 141.5t77 96t120.5 34.5q69 0 119 -34t76 -95.5t26 -140.5q0 -121 -58.5 -194t-163.5 -73q-106 0 -164.5 72.5zM418.5 88.5q45.5 61.5 45.5 168.5t-46.5 169.5t-133.5 62.5q-88 0 -135.5 -63t-47.5 -169q0 -105 47.5 -167.5
t136.5 -62.5q88 0 133.5 61.5zM233.5 -32q24.5 24 83.5 41l33 -9q-52 -24 -75 -44.5t-23 -47.5q0 -21 13.5 -31t42.5 -10q20 0 38 4t26 8q7 4 7 -3v-19q0 -3 -1 -5t-4 -3q-12 -6 -33 -10.5t-43 -4.5q-45 0 -67 20.5t-22 55.5q0 34 24.5 58z" />
    <glyph glyph-name="uni01F1" unicode="&#x1f1;" horiz-adv-x="1252" 
d="M228 722q199 -1 288 -86.5t89 -268.5q0 -190 -95 -278.5t-296 -88.5h-106v723zM151 41h60q180 0 266 74.5t86 247.5q0 122 -39.5 191.5t-115 98.5t-191.5 29h-66v-641zM720 31l425 653h-416v39h467v-30l-427 -654h427v-39h-476v31z" />
    <glyph glyph-name="uni01F2" unicode="&#x1f2;" horiz-adv-x="1131" 
d="M228 722q199 -1 288 -86.5t89 -268.5q0 -190 -95 -278.5t-296 -88.5h-106v723zM151 41h60q180 0 266 74.5t86 247.5q0 122 -39.5 191.5t-115 98.5t-191.5 29h-66v-641zM713 38l326 445h-305v34h346v-41l-324 -442h331v-34h-374v38z" />
    <glyph glyph-name="uni01F3" unicode="&#x1f3;" horiz-adv-x="1035" 
d="M116.5 56.5q-56.5 66.5 -56.5 192.5t58.5 202t163.5 76q44 0 80 -15.5t77 -48.5v280h39v-743h-37v77q-20 -22 -38 -38.5t-52.5 -32.5t-80.5 -16q-97 0 -153.5 66.5zM357.5 49q37.5 22 59.5 54.5t22 62.5v249q-37 37 -75 55.5t-81 18.5q-86 0 -134 -62.5t-48 -173.5
q0 -112 48 -169t126 -57q45 0 82.5 22zM617 38l326 445h-305v34h346v-41l-324 -442h331v-34h-374v38z" />
    <glyph glyph-name="uni01F4" unicode="&#x1f4;" horiz-adv-x="705" 
d="M193 33.5q-65 43.5 -99 126.5t-34 199q0 118 35 202.5t100 128t154 43.5q59 0 114.5 -26.5t92 -71.5t41.5 -97l-46 -8q-7 45 -35.5 82t-72 58.5t-94.5 21.5q-117 0 -182.5 -86.5t-65.5 -240.5q0 -162 64.5 -249t183.5 -87q72 0 123 34t76 85t25 101v84h-202v35h241v-368
h-39v126q-31 -61 -88 -98.5t-137 -37.5q-90 0 -155 43.5zM473 892l-239 -78l-10 31l235 92z" />
    <glyph glyph-name="uni01F5" unicode="&#x1f5;" horiz-adv-x="579" 
d="M105 -133q-61 38 -61 107q0 42 24 69t45 40.5t26 17.5q-3 2 -16 10t-20 19t-7 25q0 21 20 38.5t57 28.5q-49 26 -69 57.5t-20 80.5q0 77 54 121t151 44q47 0 81.5 -12t65.5 -37l56 24l56 24v-58l-92 -20q9 -16 16 -41.5t7 -44.5q0 -69 -49.5 -112.5t-147.5 -43.5h-11
q-71 -1 -102.5 -15t-31.5 -33q0 -16 22.5 -23.5t84.5 -12.5l117 -7q150 -9 150 -132q0 -73 -61 -112.5t-172 -39.5q-112 0 -173 38zM440 362q0 61 -40 93.5t-117 32.5q-76 0 -118 -33t-42 -93q0 -59 41 -90t119 -31q157 0 157 121zM470 -19q0 42 -25.5 65t-84.5 27l-172 11
q-17 1 -41.5 -13t-43 -38.5t-18.5 -54.5q0 -54 53 -83t149 -29q183 0 183 115zM410 686l-239 -78l-10 31l235 92z" />
    <glyph glyph-name="Aringacute" unicode="&#x1fa;" horiz-adv-x="621" 
d="M584 0h-46l-79 232h-304l-79 -232h-40l237 691q-27 11 -43.5 36t-16.5 57q0 37 25 63.5t63 30.5l15 62h53l-28 -67q30 -9 48.5 -34t18.5 -57q0 -30 -15.5 -54t-41.5 -35zM269.5 740.5q17.5 -17.5 39.5 -17.5q24 0 40.5 17.5t16.5 40.5q0 25 -16.5 41.5t-40.5 16.5
q-23 0 -40 -16.5t-17 -41.5q0 -23 17.5 -40.5zM447 271l-139 412l-140 -412h279z" />
    <glyph glyph-name="aringacute" unicode="&#x1fb;" horiz-adv-x="549" 
d="M104.5 28q-44.5 38 -44.5 104q0 58 24 92t76 51.5t141 24.5l119 10v44q0 62 -39.5 98.5t-105.5 36.5q-100 0 -169 -96l-33 20q34 52 85 83t119 31q83 0 132.5 -45.5t49.5 -123.5v-358h-36l-2 80q-84 -90 -195 -90q-77 0 -121.5 38zM318.5 47.5q44.5 20.5 73 53t28.5 66.5
v107l-100 -8q-85 -6 -131.5 -19.5t-67 -39.5t-20.5 -72q0 -50 35.5 -79t95.5 -29q42 0 86.5 20.5zM397 686l-239 -78l-10 31l235 92zM342.5 614q-28.5 -28 -69.5 -28t-69 28.5t-28 70.5q0 39 28.5 66.5t68.5 27.5q41 0 69.5 -28t28.5 -68q0 -41 -28.5 -69zM312.5 724
q-16.5 16 -40.5 16q-23 0 -40 -16t-17 -41q0 -23 17 -40.5t40 -17.5q24 0 40.5 17t16.5 41q0 25 -16.5 41z" />
    <glyph glyph-name="AEacute" unicode="&#x1fc;" horiz-adv-x="962" 
d="M891 0h-405v232h-261l-133 -232h-42l413 723h414v-39h-347v-299h278v-39h-278v-307h361v-39zM486 685l-242 -414h242v414zM791 892l-239 -78l-10 31l235 92z" />
    <glyph glyph-name="aeacute" unicode="&#x1fd;" horiz-adv-x="933" 
d="M479.5 143.5q26.5 -51.5 71.5 -84t97 -32.5q70 0 109 27.5t69 71.5l31 -22q-26 -50 -83 -82t-128 -32q-78 0 -122.5 33t-76.5 82q-2 4 -5 0q-25 -32 -50.5 -55.5t-68 -41.5t-101.5 -18q-76 0 -119 38t-43 105q0 72 58 114.5t175 52.5l127 10v44q0 63 -39 99t-111 36
q-94 0 -166 -97l-30 21q32 54 86 84t118 30q72 0 114 -29t57 -88q29 58 80 87.5t120 29.5q67 0 117.5 -33t78.5 -95.5t28 -150.5l-420 -1q0 -52 26.5 -103.5zM549.5 463.5q-43.5 -25.5 -69 -72t-25.5 -107.5l376 -1q0 57 -24 104t-66 74.5t-95 27.5t-96.5 -25.5zM313 265
q-108 -8 -159.5 -40.5t-51.5 -89.5q0 -48 32 -77.5t88 -29.5q53 0 98.5 20t72.5 53.5t27 71.5v100zM579 686l-239 -78l-10 31l235 92z" />
    <glyph glyph-name="Oslashacute" unicode="&#x1fe;" horiz-adv-x="690" 
d="M668 698l-83 -96q54 -94 54 -242q0 -179 -77.5 -274.5t-216.5 -95.5q-137 0 -211 89l-72 -82q-5 -6 -9 -6t-9 4l-17 16q-5 5 -6 7.5t2 6.5l82 95q-53 89 -53 238q0 181 77.5 278t216.5 97q133 0 211 -90l73 84q7 8 12 3l25 -21q5 -5 1 -11zM137 157l390 452
q-61 82 -181 82q-121 0 -183 -82.5t-62 -248.5q0 -125 36 -203zM553 566l-390 -452q63 -82 184 -82t181.5 81t60.5 247q0 127 -36 206zM470 892l-239 -78l-10 31l235 92z" />
    <glyph glyph-name="oslashacute" unicode="&#x1ff;" horiz-adv-x="561" 
d="M467 414q34 -66 34 -157q0 -121 -58.5 -194t-163.5 -73q-106 0 -167 75l-70 -69l-27 28l76 74q-35 65 -35 157q0 80 26.5 141.5t77 96t120.5 34.5q106 0 166 -79l72 71l27 -28zM121 129l297 292q-47 68 -138 68q-88 0 -135.5 -63t-47.5 -169q0 -75 24 -128zM437 385
l-296 -291q48 -67 140 -67q88 0 133.5 61.5t45.5 168.5q0 73 -23 128zM405 686l-239 -78l-10 31l235 92z" />
    <glyph glyph-name="uni0200" unicode="&#x200;" horiz-adv-x="684" 
d="M315 723h55l264 -723h-43l-83 228h-331l-85 -228h-42zM493 271l-150 410l-152 -410h302zM303 801l-17 -26l-136 127l30 37zM440 801l-18 -26l-135 127l30 37z" />
    <glyph glyph-name="uni0201" unicode="&#x201;" horiz-adv-x="549" 
d="M104.5 28q-44.5 38 -44.5 104q0 58 24 92t76 51.5t141 24.5l119 10v44q0 62 -39.5 98.5t-105.5 36.5q-100 0 -169 -96l-33 20q34 52 85 83t119 31q83 0 132.5 -45.5t49.5 -123.5v-358h-36l-2 80q-84 -90 -195 -90q-77 0 -121.5 38zM318.5 47.5q44.5 20.5 73 53t28.5 66.5
v107l-100 -8q-85 -6 -131.5 -19.5t-67 -39.5t-20.5 -72q0 -50 35.5 -79t95.5 -29q42 0 86.5 20.5zM234 595l-17 -26l-136 127l30 37zM371 595l-18 -26l-135 127l30 37z" />
    <glyph glyph-name="uni0202" unicode="&#x202;" horiz-adv-x="684" 
d="M315 723h55l264 -723h-43l-83 228h-331l-85 -228h-42zM493 271l-150 410l-152 -410h302zM419 883q-31 49 -81 49q-24 0 -39.5 -8.5t-22 -16.5t-16.5 -24h-47q8 35 40 62t85 27t86.5 -28.5t43.5 -60.5h-49z" />
    <glyph glyph-name="uni0203" unicode="&#x203;" horiz-adv-x="549" 
d="M104.5 28q-44.5 38 -44.5 104q0 58 24 92t76 51.5t141 24.5l119 10v44q0 62 -39.5 98.5t-105.5 36.5q-100 0 -169 -96l-33 20q34 52 85 83t119 31q83 0 132.5 -45.5t49.5 -123.5v-358h-36l-2 80q-84 -90 -195 -90q-77 0 -121.5 38zM318.5 47.5q44.5 20.5 73 53t28.5 66.5
v107l-100 -8q-85 -6 -131.5 -19.5t-67 -39.5t-20.5 -72q0 -50 35.5 -79t95.5 -29q42 0 86.5 20.5zM350 677q-31 49 -81 49q-24 0 -39.5 -8.5t-22 -16.5t-16.5 -24h-47q8 35 40 62t85 27t86.5 -28.5t43.5 -60.5h-49z" />
    <glyph glyph-name="uni0204" unicode="&#x204;" horiz-adv-x="608" 
d="M108 723h415v-40h-376v-297h350v-41h-350v-303l390 -1v-41h-429v723zM291 801l-17 -26l-136 127l30 37zM428 801l-18 -26l-135 127l30 37z" />
    <glyph glyph-name="uni0205" unicode="&#x205;" horiz-adv-x="552" 
d="M150.5 91.5q48.5 -62.5 141.5 -62.5q117 0 152 93l37 -16q-20 -55 -70 -85.5t-119 -30.5q-68 0 -120.5 31t-82 90.5t-29.5 142.5q0 129 58.5 201t163.5 72q99 0 154.5 -65.5t55.5 -184.5v-29h-390q0 -94 48.5 -156.5zM451 287q0 90 -43 145.5t-127 55.5q-60 0 -100 -29
t-59.5 -75t-18.5 -97h348zM243 595l-17 -26l-136 127l30 37zM380 595l-18 -26l-135 127l30 37z" />
    <glyph glyph-name="uni0206" unicode="&#x206;" horiz-adv-x="608" 
d="M108 723h415v-40h-376v-297h350v-41h-350v-303l390 -1v-41h-429v723zM407 883q-31 49 -81 49q-24 0 -39.5 -8.5t-22 -16.5t-16.5 -24h-47q8 35 40 62t85 27t86.5 -28.5t43.5 -60.5h-49z" />
    <glyph glyph-name="uni0207" unicode="&#x207;" horiz-adv-x="552" 
d="M150.5 91.5q48.5 -62.5 141.5 -62.5q117 0 152 93l37 -16q-20 -55 -70 -85.5t-119 -30.5q-68 0 -120.5 31t-82 90.5t-29.5 142.5q0 129 58.5 201t163.5 72q99 0 154.5 -65.5t55.5 -184.5v-29h-390q0 -94 48.5 -156.5zM451 287q0 90 -43 145.5t-127 55.5q-60 0 -100 -29
t-59.5 -75t-18.5 -97h348zM359 677q-31 49 -81 49q-24 0 -39.5 -8.5t-22 -16.5t-16.5 -24h-47q8 35 40 62t85 27t86.5 -28.5t43.5 -60.5h-49z" />
    <glyph glyph-name="uni0208" unicode="&#x208;" horiz-adv-x="255" 
d="M147 723v-723h-39v723h39zM93 801l-17 -26l-136 127l30 37zM230 801l-18 -26l-135 127l30 37z" />
    <glyph glyph-name="uni0209" unicode="&#x209;" horiz-adv-x="219" 
d="M129 0h-39v517h39v-517zM70 595l-17 -26l-136 127l30 37zM207 595l-18 -26l-135 127l30 37z" />
    <glyph glyph-name="uni020A" unicode="&#x20a;" horiz-adv-x="255" 
d="M147 723v-723h-39v723h39zM209 883q-31 49 -81 49q-24 0 -39.5 -8.5t-22 -16.5t-16.5 -24h-47q8 35 40 62t85 27t86.5 -28.5t43.5 -60.5h-49z" />
    <glyph glyph-name="uni020B" unicode="&#x20b;" horiz-adv-x="219" 
d="M129 0h-39v517h39v-517zM186 677q-31 49 -81 49q-24 0 -39.5 -8.5t-22 -16.5t-16.5 -24h-47q8 35 40 62t85 27t86.5 -28.5t43.5 -60.5h-49z" />
    <glyph glyph-name="uni020C" unicode="&#x20c;" horiz-adv-x="707" 
d="M137.5 85q-77.5 95 -77.5 273q0 181 78 278t217 97q138 0 215 -96.5t77 -276.5q0 -179 -77 -274.5t-216 -95.5t-216.5 95zM540.5 113q62.5 82 62.5 247q0 166 -63.5 249t-184.5 83q-122 0 -186.5 -83.5t-64.5 -248.5q0 -164 64.5 -246.5t187.5 -82.5q122 0 184.5 82z
M317 801l-17 -26l-136 127l30 37zM454 801l-18 -26l-135 127l30 37z" />
    <glyph glyph-name="uni020D" unicode="&#x20d;" horiz-adv-x="565" 
d="M118.5 62.5q-58.5 72.5 -58.5 192.5q0 80 26.5 141.5t77 96t120.5 34.5q69 0 119 -34t76 -95.5t26 -140.5q0 -121 -58.5 -194t-163.5 -73q-106 0 -164.5 72.5zM418.5 88.5q45.5 61.5 45.5 168.5t-46.5 169.5t-133.5 62.5q-88 0 -135.5 -63t-47.5 -169q0 -105 47.5 -167.5
t136.5 -62.5q88 0 133.5 61.5zM246 595l-17 -26l-136 127l30 37zM383 595l-18 -26l-135 127l30 37z" />
    <glyph glyph-name="uni020E" unicode="&#x20e;" horiz-adv-x="707" 
d="M137.5 85q-77.5 95 -77.5 273q0 181 78 278t217 97q138 0 215 -96.5t77 -276.5q0 -179 -77 -274.5t-216 -95.5t-216.5 95zM540.5 113q62.5 82 62.5 247q0 166 -63.5 249t-184.5 83q-122 0 -186.5 -83.5t-64.5 -248.5q0 -164 64.5 -246.5t187.5 -82.5q122 0 184.5 82z
M433 883q-31 49 -81 49q-24 0 -39.5 -8.5t-22 -16.5t-16.5 -24h-47q8 35 40 62t85 27t86.5 -28.5t43.5 -60.5h-49z" />
    <glyph glyph-name="uni020F" unicode="&#x20f;" horiz-adv-x="565" 
d="M118.5 62.5q-58.5 72.5 -58.5 192.5q0 80 26.5 141.5t77 96t120.5 34.5q69 0 119 -34t76 -95.5t26 -140.5q0 -121 -58.5 -194t-163.5 -73q-106 0 -164.5 72.5zM418.5 88.5q45.5 61.5 45.5 168.5t-46.5 169.5t-133.5 62.5q-88 0 -135.5 -63t-47.5 -169q0 -105 47.5 -167.5
t136.5 -62.5q88 0 133.5 61.5zM362 677q-31 49 -81 49q-24 0 -39.5 -8.5t-22 -16.5t-16.5 -24h-47q8 35 40 62t85 27t86.5 -28.5t43.5 -60.5h-49z" />
    <glyph glyph-name="uni0210" unicode="&#x210;" horiz-adv-x="660" 
d="M536 0l-146 344h-243v-344h-39v723h255q106 0 164 -45.5t58 -133.5q0 -82 -45 -128.5t-109 -62.5l150 -353h-45zM489.5 421q53.5 36 53.5 116q0 76 -45.5 111t-135.5 35h-215v-298h182q107 0 160.5 36zM278 801l-17 -26l-136 127l30 37zM415 801l-18 -26l-135 127l30 37z
" />
    <glyph glyph-name="uni0211" unicode="&#x211;" horiz-adv-x="357" 
d="M90 517h36v-93q29 44 87 73.5t110 29.5v-40q-43 0 -88.5 -21.5t-75.5 -56t-30 -67.5v-342h-39v517zM160 595l-17 -26l-136 127l30 37zM297 595l-18 -26l-135 127l30 37z" />
    <glyph glyph-name="uni0212" unicode="&#x212;" horiz-adv-x="660" 
d="M536 0l-146 344h-243v-344h-39v723h255q106 0 164 -45.5t58 -133.5q0 -82 -45 -128.5t-109 -62.5l150 -353h-45zM489.5 421q53.5 36 53.5 116q0 76 -45.5 111t-135.5 35h-215v-298h182q107 0 160.5 36zM394 883q-31 49 -81 49q-24 0 -39.5 -8.5t-22 -16.5t-16.5 -24h-47
q8 35 40 62t85 27t86.5 -28.5t43.5 -60.5h-49z" />
    <glyph glyph-name="uni0213" unicode="&#x213;" horiz-adv-x="357" 
d="M90 517h36v-93q29 44 87 73.5t110 29.5v-40q-43 0 -88.5 -21.5t-75.5 -56t-30 -67.5v-342h-39v517zM276 677q-31 49 -81 49q-24 0 -39.5 -8.5t-22 -16.5t-16.5 -24h-47q8 35 40 62t85 27t86.5 -28.5t43.5 -60.5h-49z" />
    <glyph glyph-name="uni0214" unicode="&#x214;" horiz-adv-x="695" 
d="M527.5 48q-59.5 -58 -180.5 -58q-123 0 -181 60.5t-58 188.5v484h43v-501q0 -194 196 -194q201 0 201 194v501h39v-499q0 -118 -59.5 -176zM311 801l-17 -26l-136 127l30 37zM448 801l-18 -26l-135 127l30 37z" />
    <glyph glyph-name="uni0215" unicode="&#x215;" 
d="M194 8.5q-45 17.5 -74.5 58.5t-29.5 107v345h39v-345q0 -77 47 -111t106 -34q42 0 78 17t59 51.5t23 84.5v337h39v-518h-36v85q-8 -22 -32 -44t-57 -36.5t-69 -14.5q-48 0 -93 17.5zM234 595l-17 -26l-136 127l30 37zM371 595l-18 -26l-135 127l30 37z" />
    <glyph glyph-name="uni0216" unicode="&#x216;" horiz-adv-x="695" 
d="M527.5 48q-59.5 -58 -180.5 -58q-123 0 -181 60.5t-58 188.5v484h43v-501q0 -194 196 -194q201 0 201 194v501h39v-499q0 -118 -59.5 -176zM427 883q-31 49 -81 49q-24 0 -39.5 -8.5t-22 -16.5t-16.5 -24h-47q8 35 40 62t85 27t86.5 -28.5t43.5 -60.5h-49z" />
    <glyph glyph-name="uni0217" unicode="&#x217;" 
d="M194 8.5q-45 17.5 -74.5 58.5t-29.5 107v345h39v-345q0 -77 47 -111t106 -34q42 0 78 17t59 51.5t23 84.5v337h39v-518h-36v85q-8 -22 -32 -44t-57 -36.5t-69 -14.5q-48 0 -93 17.5zM350 677q-31 49 -81 49q-24 0 -39.5 -8.5t-22 -16.5t-16.5 -24h-47q8 35 40 62t85 27
t86.5 -28.5t43.5 -60.5h-49z" />
    <glyph glyph-name="Scommaaccent" unicode="&#x218;" horiz-adv-x="646" 
d="M151.5 37.5q-75.5 47.5 -91.5 129.5l42 9q16 -70 79.5 -108.5t147.5 -38.5q62 0 111 18.5t76 52t27 75.5q0 59 -31.5 96t-100.5 54l-161 40q-82 20 -124.5 61.5t-42.5 105.5q0 57 30 102.5t85 71.5t127 26q115 0 177 -55t70 -137l-40 -8q-14 83 -71 121t-138 38
q-46 0 -91.5 -17.5t-75.5 -53t-30 -87.5q0 -49 34.5 -82t116.5 -54l154 -40q155 -39 155 -180q0 -52 -29 -94.5t-87 -67.5t-141 -25q-102 0 -177.5 47.5zM286.5 -227.5q-1.5 2.5 0.5 5.5l24 52q4 9 -4 9h-8q-7 0 -7 9v64q0 8 6 8h44q6 0 6 -7v-74l-1 -6l-30 -57q-2 -4 -5 -5
t-9 -1h-12q-3 0 -4.5 2.5z" />
    <glyph glyph-name="scommaaccent" unicode="&#x219;" horiz-adv-x="497" 
d="M116.5 27q-49.5 37 -62.5 96l37 15q31 -111 154 -111q64 0 110.5 29t46.5 78q0 77 -86 98l-120 28q-65 16 -93.5 46.5t-28.5 75.5q0 70 48 107.5t129 37.5q85 0 131 -39.5t51 -99.5l-38 -9q-11 57 -49 83.5t-96 26.5q-56 0 -95.5 -25t-39.5 -82q0 -29 19.5 -50t72.5 -35
l123 -32q59 -15 86 -49.5t27 -81.5q0 -40 -24.5 -73t-69.5 -52t-104 -19q-79 0 -128.5 37zM213.5 -227.5q-1.5 2.5 0.5 5.5l24 52q4 9 -4 9h-8q-7 0 -7 9v64q0 8 6 8h44q6 0 6 -7v-74l-1 -6l-30 -57q-2 -4 -5 -5t-9 -1h-12q-3 0 -4.5 2.5z" />
    <glyph glyph-name="uni021A" unicode="&#x21a;" horiz-adv-x="545" 
d="M15 723h515v-40h-228v-683h-39v683h-248v40zM253.5 -227.5q-1.5 2.5 0.5 5.5l24 52q4 9 -4 9h-8q-7 0 -7 9v64q0 8 6 8h44q6 0 6 -7v-74l-1 -6l-30 -57q-2 -4 -5 -5t-9 -1h-12q-3 0 -4.5 2.5z" />
    <glyph glyph-name="uni021B" unicode="&#x21b;" horiz-adv-x="361" 
d="M179 483v-362q0 -51 14 -69t46 -18h66v-29q-16 -5 -63 -5q-58 0 -80 26.5t-22 89.5v367h-84v34h84v175h39v-175h119v-34h-119zM225.5 -227.5q-1.5 2.5 0.5 5.5l24 52q4 9 -4 9h-8q-7 0 -7 9v64q0 8 6 8h44q6 0 6 -7v-74l-1 -6l-30 -57q-2 -4 -5 -5t-9 -1h-12
q-3 0 -4.5 2.5z" />
    <glyph glyph-name="uni0237" unicode="&#x237;" horiz-adv-x="216" 
d="M105 -139.5q-23 -26.5 -87 -26.5q-43 0 -53.5 1.5t-10.5 7.5v26l63 1q39 1 55.5 20t16.5 65v562h39v-567q0 -63 -23 -89.5z" />
    <glyph glyph-name="uni0259" unicode="&#x259;" horiz-adv-x="552" 
d="M401.5 425.5q-48.5 62.5 -141.5 62.5q-117 0 -152 -93l-37 16q20 55 70 85.5t119 30.5q68 0 120.5 -31t82 -90.5t29.5 -142.5q0 -129 -58.5 -201t-163.5 -72q-99 0 -154.5 65.5t-55.5 184.5v29h390q0 94 -48.5 156.5zM101 230q0 -90 43 -145.5t127 -55.5q60 0 100 29
t59.5 75t18.5 97h-348z" />
    <glyph glyph-name="uni02BC" unicode="&#x2bc;" horiz-adv-x="126" 
d="M29.5 467.5q-1.5 2.5 -0.5 4.5l30 117q3 10 -2 10h-5q-8 0 -8 7v111q0 6 6 6h42q4 0 4 -5v-119v-4l-34 -123q-1 -7 -12 -7h-16q-3 0 -4.5 2.5z" />
    <glyph glyph-name="circumflex" unicode="&#x2c6;" horiz-adv-x="273" 
d="M136 688l-78 -60h-56l119 95h32l117 -95h-60z" />
    <glyph glyph-name="caron" unicode="&#x2c7;" horiz-adv-x="273" 
d="M270 723l-117 -95h-32l-120 95h57l78 -60l74 60h60z" />
    <glyph glyph-name="breve" unicode="&#x2d8;" horiz-adv-x="272" 
d="M220.5 662.5q-33.5 -28.5 -86.5 -28.5t-85 27t-40 62h47q1 -2 9.5 -15.5t26.5 -23.5t42 -10q50 0 81 49h49q-10 -32 -43.5 -60.5z" />
    <glyph glyph-name="dotaccent" unicode="&#x2d9;" horiz-adv-x="68" 
d="M58 628h-48v95h48v-95z" />
    <glyph glyph-name="ring" unicode="&#x2da;" horiz-adv-x="214" 
d="M176.5 614q-28.5 -28 -69.5 -28t-69 28.5t-28 70.5q0 39 28.5 66.5t68.5 27.5q41 0 69.5 -28t28.5 -68q0 -41 -28.5 -69zM146.5 724q-16.5 16 -40.5 16q-23 0 -40 -16t-17 -41q0 -23 17 -40.5t40 -17.5q24 0 40.5 17t16.5 41q0 25 -16.5 41z" />
    <glyph glyph-name="ogonek" unicode="&#x2db;" horiz-adv-x="190" 
d="M34.5 -30q24.5 24 83.5 41l33 -9q-52 -24 -75 -44.5t-23 -47.5q0 -21 13.5 -31t42.5 -10q20 0 38 4t26 8q7 4 7 -3v-19q0 -3 -1 -5t-4 -3q-12 -6 -33 -10.5t-43 -4.5q-45 0 -67 20.5t-22 55.5q0 34 24.5 58z" />
    <glyph glyph-name="tilde" unicode="&#x2dc;" horiz-adv-x="275" 
d="M231.5 661.5q-14.5 -5.5 -37.5 -5.5q-18 0 -30 3t-33 10q-28 11 -48 11q-15 0 -25 -4t-18 -9t-12 -7q-5 -2 -7 -1.5t-3 5.5l-7 16q-1 2 -0.5 4t2.5 3q18 13 32 19.5t34 6.5q22 0 58 -12q33 -13 58 -13q14 0 24 3.5t25 12.5q5 3 7.5 2.5t4.5 -5.5l8 -18q1 -1 1 -3t-6 -5
q-13 -8 -27.5 -13.5z" />
    <glyph glyph-name="hungarumlaut" unicode="&#x2dd;" horiz-adv-x="344" 
d="M175 702q3 -3 3 -6q0 -2 -5 -7l-121 -114q-8 -6 -12 1l-9 13q-5 5 0 10l114 129q4 5 9 0zM313 702q3 -3 3 -5q0 -3 -6 -8l-121 -114q-8 -6 -12 1l-8 13q-5 5 0 10l114 129q2 2 4.5 2t3.5 -2z" />
    <glyph glyph-name="gravecomb" unicode="&#x300;" horiz-adv-x="0" 
d="M-8 639l-10 -31l-239 78l14 45z" />
    <glyph glyph-name="acutecomb" unicode="&#x301;" horiz-adv-x="0" 
d="M-8 686l-239 -78l-10 31l235 92z" />
    <glyph glyph-name="uni0302" unicode="&#x302;" horiz-adv-x="0" 
d="M-137 688l-78 -60h-56l119 95h32l117 -95h-60z" />
    <glyph glyph-name="tildecomb" unicode="&#x303;" horiz-adv-x="0" 
d="M-43.5 661.5q-14.5 -5.5 -37.5 -5.5q-18 0 -30 3t-33 10q-28 11 -48 11q-15 0 -25 -4t-18 -9t-12 -7q-5 -2 -7 -1.5t-3 5.5l-7 16q-1 2 -0.5 4t2.5 3q18 13 32 19.5t34 6.5q22 0 58 -12q33 -13 58 -13q14 0 24 3.5t25 12.5q5 3 7.5 2.5t4.5 -5.5l8 -18q1 -1 1 -3t-6 -5
q-13 -8 -27.5 -13.5z" />
    <glyph glyph-name="uni0304" unicode="&#x304;" horiz-adv-x="0" 
d="M-10 667h-245v37h245v-37z" />
    <glyph glyph-name="uni0306" unicode="&#x306;" horiz-adv-x="0" 
d="M-51.5 662.5q-33.5 -28.5 -86.5 -28.5t-85 27t-40 62h47q1 -2 9.5 -15.5t26.5 -23.5t42 -10q50 0 81 49h49q-10 -32 -43.5 -60.5z" />
    <glyph glyph-name="uni0307" unicode="&#x307;" horiz-adv-x="0" 
d="M-10 628h-48v95h48v-95z" />
    <glyph glyph-name="uni0308" unicode="&#x308;" horiz-adv-x="0" 
d="M-118 628h-48v95h48v-95zM-9 628h-49v95h49v-95z" />
    <glyph glyph-name="uni030A" unicode="&#x30a;" horiz-adv-x="0" 
d="M-37.5 614q-28.5 -28 -69.5 -28t-69 28.5t-28 70.5q0 39 28.5 66.5t68.5 27.5q41 0 69.5 -28t28.5 -68q0 -41 -28.5 -69zM-67.5 724q-16.5 16 -40.5 16q-23 0 -40 -16t-17 -41q0 -23 17 -40.5t40 -17.5q24 0 40.5 17t16.5 41q0 25 -16.5 41z" />
    <glyph glyph-name="uni030B" unicode="&#x30b;" horiz-adv-x="0" 
d="M-169 702q3 -3 3 -6q0 -2 -5 -7l-121 -114q-8 -6 -12 1l-9 13q-5 5 0 10l114 129q4 5 9 0zM-31 702q3 -3 3 -5q0 -3 -6 -8l-121 -114q-8 -6 -12 1l-8 13q-5 5 0 10l114 129q2 2 4.5 2t3.5 -2z" />
    <glyph glyph-name="uni030C" unicode="&#x30c;" horiz-adv-x="0" 
d="M-3 723l-117 -95h-32l-120 95h57l78 -60l74 60h60z" />
    <glyph glyph-name="uni030F" unicode="&#x30f;" horiz-adv-x="0" 
d="M-164 595l-17 -26l-136 127l30 37zM-27 595l-18 -26l-135 127l30 37z" />
    <glyph glyph-name="uni0311" unicode="&#x311;" horiz-adv-x="0" 
d="M-43 677q-31 49 -81 49q-24 0 -39.5 -8.5t-22 -16.5t-16.5 -24h-47q8 35 40 62t85 27t86.5 -28.5t43.5 -60.5h-49z" />
    <glyph glyph-name="dotbelowcomb" unicode="&#x323;" horiz-adv-x="0" 
d="M-10 -149q0 -7 -2 -9.5t-9 -2.5h-29q-6 0 -8 2t-2 8v81q0 6 1.5 8t6.5 2h34q5 0 6.5 -2t1.5 -8v-79z" />
    <glyph glyph-name="uni0326" unicode="&#x326;" horiz-adv-x="0" 
d="M-71.5 -227.5q-1.5 2.5 0.5 5.5l24 52q4 9 -4 9h-8q-7 0 -7 9v64q0 8 6 8h44q6 0 6 -7v-74l-1 -6l-30 -57q-2 -4 -5 -5t-9 -1h-12q-3 0 -4.5 2.5z" />
    <glyph glyph-name="uni0327" unicode="&#x327;" horiz-adv-x="0" 
d="M-37.5 -180q-27.5 -19 -69.5 -19q-43 0 -75 23l11 28q12 -11 25.5 -16.5t34.5 -5.5q58 0 58 42q0 23 -18 34t-57 13q-6 0 -4 4l36 82h33l-25 -62q42 -3 60 -22.5t18 -46.5q0 -35 -27.5 -54z" />
    <glyph glyph-name="uni0328" unicode="&#x328;" horiz-adv-x="0" 
d="M-155.5 -30q24.5 24 83.5 41l33 -9q-52 -24 -75 -44.5t-23 -47.5q0 -21 13.5 -31t42.5 -10q20 0 38 4t26 8q7 4 7 -3v-19q0 -3 -1 -5t-4 -3q-12 -6 -33 -10.5t-43 -4.5q-45 0 -67 20.5t-22 55.5q0 34 24.5 58z" />
    <glyph glyph-name="uni0394" unicode="&#x394;" horiz-adv-x="621" 
d="M39 48l249 676l47 -1l247 -672v-51h-543v48zM541 41l-230 631l-230 -631h460z" />
    <glyph glyph-name="uni03A9" unicode="&#x3a9;" horiz-adv-x="748" 
d="M231.5 648.5q-57.5 -42.5 -86 -110.5t-28.5 -145q0 -87 34 -154.5t77 -108.5t95 -78q10 -7 10 -23v-29h-228v41h171q-4 3 -56.5 40t-101.5 125.5t-49 191.5q0 90 35.5 166.5t104.5 122.5t164 46t164 -46.5t105 -122.5t36 -165q0 -100 -40 -174t-11 -47t-143 -126
q-4 -4 -4 -7q0 -4 8 -4h154v-41h-229v44q56 40 101 82t80.5 110t35.5 157q0 77 -28.5 145t-86.5 110.5t-142 42.5t-141.5 -42.5z" />
    <glyph glyph-name="uni03BC" unicode="&#x3bc;" horiz-adv-x="567" 
d="M341.5 53.5q46.5 26.5 96.5 76.5v387h39v-517h-36v80q-62 -50 -103 -70t-86 -20q-38 0 -68 10.5t-55 35.5v-197h-39v678h39v-383q0 -28 16.5 -52.5t44 -39.5t60.5 -15q45 0 91.5 26.5z" />
    <glyph glyph-name="pi" unicode="&#x3c0;" horiz-adv-x="641" 
d="M481 483v-483h-39l-1 483h-267q0 -144 -17 -276t-42 -207h-33q24 91 40 215.5t16 257.5q0 10 -8 10h-101v34h583v-34h-131z" />
    <glyph glyph-name="uni1E0C" unicode="&#x1e0c;" horiz-adv-x="670" 
d="M228 722q199 -1 288 -86.5t89 -268.5q0 -190 -95 -278.5t-296 -88.5h-106v723zM151 41h60q180 0 266 74.5t86 247.5q0 122 -39.5 191.5t-115 98.5t-191.5 29h-66v-641zM357 -149q0 -7 -2 -9.5t-9 -2.5h-29q-6 0 -8 2t-2 8v81q0 6 1.5 8t6.5 2h34q5 0 6.5 -2t1.5 -8v-79z
" />
    <glyph glyph-name="uni1E0D" unicode="&#x1e0d;" horiz-adv-x="568" 
d="M116.5 56.5q-56.5 66.5 -56.5 192.5t58.5 202t163.5 76q44 0 80 -15.5t77 -48.5v280h39v-743h-37v77q-20 -22 -38 -38.5t-52.5 -32.5t-80.5 -16q-97 0 -153.5 66.5zM357.5 49q37.5 22 59.5 54.5t22 62.5v249q-37 37 -75 55.5t-81 18.5q-86 0 -134 -62.5t-48 -173.5
q0 -112 48 -169t126 -57q45 0 82.5 22zM309 -149q0 -7 -2 -9.5t-9 -2.5h-29q-6 0 -8 2t-2 8v81q0 6 1.5 8t6.5 2h34q5 0 6.5 -2t1.5 -8v-79z" />
    <glyph glyph-name="uni1E24" unicode="&#x1e24;" horiz-adv-x="693" 
d="M147 356v-356h-39v723h39v-326h399v326h39v-723h-39v356h-399zM372 -149q0 -7 -2 -9.5t-9 -2.5h-29q-6 0 -8 2t-2 8v81q0 6 1.5 8t6.5 2h34q5 0 6.5 -2t1.5 -8v-79z" />
    <glyph glyph-name="uni1E25" unicode="&#x1e25;" 
d="M90 743h36v-303q67 49 106.5 68t90.5 19q76 0 117 -39t41 -105v-383h-39v368q0 121 -120 121q-49 0 -88 -19.5t-105 -69.5v-400h-39v743zM321 -149q0 -7 -2 -9.5t-9 -2.5h-29q-6 0 -8 2t-2 8v81q0 6 1.5 8t6.5 2h34q5 0 6.5 -2t1.5 -8v-79z" />
    <glyph glyph-name="uni1E44" unicode="&#x1e44;" horiz-adv-x="722" 
d="M614 723v-723h-34l-433 643v-643h-39v723h32l435 -645v645h39zM399 834h-48v95h48v-95z" />
    <glyph glyph-name="uni1E45" unicode="&#x1e45;" 
d="M90 517h36v-77q21 38 67 62.5t107 24.5q81 0 131 -48.5t50 -143.5v-335h-39v335q0 74 -37.5 114t-104.5 40q-74 0 -122.5 -33t-48.5 -96v-360h-39v517zM320 628h-48v95h48v-95z" />
    <glyph glyph-name="uni1E5A" unicode="&#x1e5a;" horiz-adv-x="660" 
d="M536 0l-146 344h-243v-344h-39v723h255q106 0 164 -45.5t58 -133.5q0 -82 -45 -128.5t-109 -62.5l150 -353h-45zM489.5 421q53.5 36 53.5 116q0 76 -45.5 111t-135.5 35h-215v-298h182q107 0 160.5 36zM349 -149q0 -7 -2 -9.5t-9 -2.5h-29q-6 0 -8 2t-2 8v81q0 6 1.5 8
t6.5 2h34q5 0 6.5 -2t1.5 -8v-79z" />
    <glyph glyph-name="uni1E5B" unicode="&#x1e5b;" horiz-adv-x="357" 
d="M90 517h36v-93q29 44 87 73.5t110 29.5v-40q-43 0 -88.5 -21.5t-75.5 -56t-30 -67.5v-342h-39v517zM134 -149q0 -7 -2 -9.5t-9 -2.5h-29q-6 0 -8 2t-2 8v81q0 6 1.5 8t6.5 2h34q5 0 6.5 -2t1.5 -8v-79z" />
    <glyph glyph-name="uni1E62" unicode="&#x1e62;" horiz-adv-x="646" 
d="M151.5 37.5q-75.5 47.5 -91.5 129.5l42 9q16 -70 79.5 -108.5t147.5 -38.5q62 0 111 18.5t76 52t27 75.5q0 59 -31.5 96t-100.5 54l-161 40q-82 20 -124.5 61.5t-42.5 105.5q0 57 30 102.5t85 71.5t127 26q115 0 177 -55t70 -137l-40 -8q-14 83 -71 121t-138 38
q-46 0 -91.5 -17.5t-75.5 -53t-30 -87.5q0 -49 34.5 -82t116.5 -54l154 -40q155 -39 155 -180q0 -52 -29 -94.5t-87 -67.5t-141 -25q-102 0 -177.5 47.5zM342 -149q0 -7 -2 -9.5t-9 -2.5h-29q-6 0 -8 2t-2 8v81q0 6 1.5 8t6.5 2h34q5 0 6.5 -2t1.5 -8v-79z" />
    <glyph glyph-name="uni1E63" unicode="&#x1e63;" horiz-adv-x="497" 
d="M116.5 27q-49.5 37 -62.5 96l37 15q31 -111 154 -111q64 0 110.5 29t46.5 78q0 77 -86 98l-120 28q-65 16 -93.5 46.5t-28.5 75.5q0 70 48 107.5t129 37.5q85 0 131 -39.5t51 -99.5l-38 -9q-11 57 -49 83.5t-96 26.5q-56 0 -95.5 -25t-39.5 -82q0 -29 19.5 -50t72.5 -35
l123 -32q59 -15 86 -49.5t27 -81.5q0 -40 -24.5 -73t-69.5 -52t-104 -19q-79 0 -128.5 37zM269 -149q0 -7 -2 -9.5t-9 -2.5h-29q-6 0 -8 2t-2 8v81q0 6 1.5 8t6.5 2h34q5 0 6.5 -2t1.5 -8v-79z" />
    <glyph glyph-name="uni1E6C" unicode="&#x1e6c;" horiz-adv-x="545" 
d="M15 723h515v-40h-228v-683h-39v683h-248v40zM309 -149q0 -7 -2 -9.5t-9 -2.5h-29q-6 0 -8 2t-2 8v81q0 6 1.5 8t6.5 2h34q5 0 6.5 -2t1.5 -8v-79z" />
    <glyph glyph-name="uni1E6D" unicode="&#x1e6d;" horiz-adv-x="361" 
d="M179 483v-362q0 -51 14 -69t46 -18h66v-29q-16 -5 -63 -5q-58 0 -80 26.5t-22 89.5v367h-84v34h84v175h39v-175h119v-34h-119zM281 -149q0 -7 -2 -9.5t-9 -2.5h-29q-6 0 -8 2t-2 8v81q0 6 1.5 8t6.5 2h34q5 0 6.5 -2t1.5 -8v-79z" />
    <glyph glyph-name="Wgrave" unicode="&#x1e80;" horiz-adv-x="942" 
d="M705 0h-55l-181 648l-185 -648h-52l-203 723h44l185 -674l192 674h39l189 -674l192 674h43zM583 845l-10 -31l-239 78l14 45z" />
    <glyph glyph-name="wgrave" unicode="&#x1e81;" horiz-adv-x="758" 
d="M578 0h-54l-145 450l-134 -450h-56l-158 517h42l144 -474l144 474h36l152 -472l137 472h41zM490 639l-10 -31l-239 78l14 45z" />
    <glyph glyph-name="Wacute" unicode="&#x1e82;" horiz-adv-x="942" 
d="M705 0h-55l-181 648l-185 -648h-52l-203 723h44l185 -674l192 674h39l189 -674l192 674h43zM600 892l-239 -78l-10 31l235 92z" />
    <glyph glyph-name="wacute" unicode="&#x1e83;" horiz-adv-x="758" 
d="M578 0h-54l-145 450l-134 -450h-56l-158 517h42l144 -474l144 474h36l152 -472l137 472h41zM507 686l-239 -78l-10 31l235 92z" />
    <glyph glyph-name="Wdieresis" unicode="&#x1e84;" horiz-adv-x="942" 
d="M705 0h-55l-181 648l-185 -648h-52l-203 723h44l185 -674l192 674h39l189 -674l192 674h43zM445 834h-48v95h48v-95zM554 834h-49v95h49v-95z" />
    <glyph glyph-name="wdieresis" unicode="&#x1e85;" horiz-adv-x="758" 
d="M578 0h-54l-145 450l-134 -450h-56l-158 517h42l144 -474l144 474h36l152 -472l137 472h41zM352 628h-48v95h48v-95zM461 628h-49v95h49v-95z" />
    <glyph glyph-name="uni1E92" unicode="&#x1e92;" horiz-adv-x="588" 
d="M56 31l425 653h-416v39h467v-30l-427 -654h427v-39h-476v31zM331 -149q0 -7 -2 -9.5t-9 -2.5h-29q-6 0 -8 2t-2 8v81q0 6 1.5 8t6.5 2h34q5 0 6.5 -2t1.5 -8v-79z" />
    <glyph glyph-name="uni1E93" unicode="&#x1e93;" horiz-adv-x="431" 
d="M49 38l326 445h-305v34h346v-41l-324 -442h331v-34h-374v38zM250 -149q0 -7 -2 -9.5t-9 -2.5h-29q-6 0 -8 2t-2 8v81q0 6 1.5 8t6.5 2h34q5 0 6.5 -2t1.5 -8v-79z" />
    <glyph glyph-name="uni1EB8" unicode="&#x1eb8;" horiz-adv-x="608" 
d="M108 723h415v-40h-376v-297h350v-41h-350v-303l390 -1v-41h-429v723zM373 -149q0 -7 -2 -9.5t-9 -2.5h-29q-6 0 -8 2t-2 8v81q0 6 1.5 8t6.5 2h34q5 0 6.5 -2t1.5 -8v-79z" />
    <glyph glyph-name="uni1EB9" unicode="&#x1eb9;" horiz-adv-x="552" 
d="M150.5 91.5q48.5 -62.5 141.5 -62.5q117 0 152 93l37 -16q-20 -55 -70 -85.5t-119 -30.5q-68 0 -120.5 31t-82 90.5t-29.5 142.5q0 129 58.5 201t163.5 72q99 0 154.5 -65.5t55.5 -184.5v-29h-390q0 -94 48.5 -156.5zM451 287q0 90 -43 145.5t-127 55.5q-60 0 -100 -29
t-59.5 -75t-18.5 -97h348zM298 -149q0 -7 -2 -9.5t-9 -2.5h-29q-6 0 -8 2t-2 8v81q0 6 1.5 8t6.5 2h34q5 0 6.5 -2t1.5 -8v-79z" />
    <glyph glyph-name="uni1EBC" unicode="&#x1ebc;" horiz-adv-x="608" 
d="M108 723h415v-40h-376v-297h350v-41h-350v-303l390 -1v-41h-429v723zM424.5 867.5q-14.5 -5.5 -37.5 -5.5q-18 0 -30 3t-33 10q-28 11 -48 11q-15 0 -25 -4t-18 -9t-12 -7q-5 -2 -7 -1.5t-3 5.5l-7 16q-1 2 -0.5 4t2.5 3q18 13 32 19.5t34 6.5q22 0 58 -12q33 -13 58 -13
q14 0 24 3.5t25 12.5q5 3 7.5 2.5t4.5 -5.5l8 -18q1 -1 1 -3t-6 -5q-13 -8 -27.5 -13.5z" />
    <glyph glyph-name="uni1EBD" unicode="&#x1ebd;" horiz-adv-x="552" 
d="M150.5 91.5q48.5 -62.5 141.5 -62.5q117 0 152 93l37 -16q-20 -55 -70 -85.5t-119 -30.5q-68 0 -120.5 31t-82 90.5t-29.5 142.5q0 129 58.5 201t163.5 72q99 0 154.5 -65.5t55.5 -184.5v-29h-390q0 -94 48.5 -156.5zM451 287q0 90 -43 145.5t-127 55.5q-60 0 -100 -29
t-59.5 -75t-18.5 -97h348zM376.5 661.5q-14.5 -5.5 -37.5 -5.5q-18 0 -30 3t-33 10q-28 11 -48 11q-15 0 -25 -4t-18 -9t-12 -7q-5 -2 -7 -1.5t-3 5.5l-7 16q-1 2 -0.5 4t2.5 3q18 13 32 19.5t34 6.5q22 0 58 -12q33 -13 58 -13q14 0 24 3.5t25 12.5q5 3 7.5 2.5t4.5 -5.5
l8 -18q1 -1 1 -3t-6 -5q-13 -8 -27.5 -13.5z" />
    <glyph glyph-name="uni1ECA" unicode="&#x1eca;" horiz-adv-x="255" 
d="M147 723v-723h-39v723h39zM154 -149q0 -7 -2 -9.5t-9 -2.5h-29q-6 0 -8 2t-2 8v81q0 6 1.5 8t6.5 2h34q5 0 6.5 -2t1.5 -8v-79z" />
    <glyph glyph-name="uni1ECB" unicode="&#x1ecb;" horiz-adv-x="257" 
d="M138 647h-48v96h48v-96zM134 0h-39v517h39v-517zM167 -149q0 -7 -2 -9.5t-9 -2.5h-29q-6 0 -8 2t-2 8v81q0 6 1.5 8t6.5 2h34q5 0 6.5 -2t1.5 -8v-79z" />
    <glyph glyph-name="uni1ECC" unicode="&#x1ecc;" horiz-adv-x="707" 
d="M137.5 85q-77.5 95 -77.5 273q0 181 78 278t217 97q138 0 215 -96.5t77 -276.5q0 -179 -77 -274.5t-216 -95.5t-216.5 95zM540.5 113q62.5 82 62.5 247q0 166 -63.5 249t-184.5 83q-122 0 -186.5 -83.5t-64.5 -248.5q0 -164 64.5 -246.5t187.5 -82.5q122 0 184.5 82z
M381 -149q0 -7 -2 -9.5t-9 -2.5h-29q-6 0 -8 2t-2 8v81q0 6 1.5 8t6.5 2h34q5 0 6.5 -2t1.5 -8v-79z" />
    <glyph glyph-name="uni1ECD" unicode="&#x1ecd;" horiz-adv-x="565" 
d="M118.5 62.5q-58.5 72.5 -58.5 192.5q0 80 26.5 141.5t77 96t120.5 34.5q69 0 119 -34t76 -95.5t26 -140.5q0 -121 -58.5 -194t-163.5 -73q-106 0 -164.5 72.5zM418.5 88.5q45.5 61.5 45.5 168.5t-46.5 169.5t-133.5 62.5q-88 0 -135.5 -63t-47.5 -169q0 -105 47.5 -167.5
t136.5 -62.5q88 0 133.5 61.5zM307 -149q0 -7 -2 -9.5t-9 -2.5h-29q-6 0 -8 2t-2 8v81q0 6 1.5 8t6.5 2h34q5 0 6.5 -2t1.5 -8v-79z" />
    <glyph glyph-name="uni1EE4" unicode="&#x1ee4;" horiz-adv-x="669" 
d="M527.5 48q-59.5 -58 -180.5 -58q-123 0 -181 60.5t-58 188.5v484h43v-501q0 -194 196 -194q201 0 201 194v501h39v-499q0 -118 -59.5 -176zM355 -149q0 -7 -2 -9.5t-9 -2.5h-29q-6 0 -8 2t-2 8v81q0 6 1.5 8t6.5 2h34q5 0 6.5 -2t1.5 -8v-79z" />
    <glyph glyph-name="uni1EE5" unicode="&#x1ee5;" 
d="M194 8.5q-45 17.5 -74.5 58.5t-29.5 107v345h39v-345q0 -77 47 -111t106 -34q42 0 78 17t59 51.5t23 84.5v337h39v-518h-36v85q-8 -22 -32 -44t-57 -36.5t-69 -14.5q-48 0 -93 17.5zM309 -149q0 -7 -2 -9.5t-9 -2.5h-29q-6 0 -8 2t-2 8v81q0 6 1.5 8t6.5 2h34q5 0 6.5 -2
t1.5 -8v-79z" />
    <glyph glyph-name="Ygrave" unicode="&#x1ef2;" horiz-adv-x="539" 
d="M291 311v-311h-39v312l-242 411h44l218 -372l214 372h43zM373 845l-10 -31l-239 78l14 45z" />
    <glyph glyph-name="ygrave" unicode="&#x1ef3;" horiz-adv-x="491" 
d="M57.5 -161.5q-15.5 3.5 -15.5 4.5v27h55q45 0 68.5 17t36.5 47l26 69l-202 514h42l181 -461l178 461h38l-226 -592q-36 -90 -135 -90q-31 0 -46.5 3.5zM355 639l-10 -31l-239 78l14 45z" />
    <glyph glyph-name="uni1EF8" unicode="&#x1ef8;" horiz-adv-x="539" 
d="M291 311v-311h-39v312l-242 411h44l218 -372l214 372h43zM360.5 867.5q-14.5 -5.5 -37.5 -5.5q-18 0 -30 3t-33 10q-28 11 -48 11q-15 0 -25 -4t-18 -9t-12 -7q-5 -2 -7 -1.5t-3 5.5l-7 16q-1 2 -0.5 4t2.5 3q18 13 32 19.5t34 6.5q22 0 58 -12q33 -13 58 -13
q14 0 24 3.5t25 12.5q5 3 7.5 2.5t4.5 -5.5l8 -18q1 -1 1 -3t-6 -5q-13 -8 -27.5 -13.5z" />
    <glyph glyph-name="uni1EF9" unicode="&#x1ef9;" horiz-adv-x="491" 
d="M57.5 -161.5q-15.5 3.5 -15.5 4.5v27h55q45 0 68.5 17t36.5 47l26 69l-202 514h42l181 -461l178 461h38l-226 -592q-36 -90 -135 -90q-31 0 -46.5 3.5zM342.5 661.5q-14.5 -5.5 -37.5 -5.5q-18 0 -30 3t-33 10q-28 11 -48 11q-15 0 -25 -4t-18 -9t-12 -7q-5 -2 -7 -1.5
t-3 5.5l-7 16q-1 2 -0.5 4t2.5 3q18 13 32 19.5t34 6.5q22 0 58 -12q33 -13 58 -13q14 0 24 3.5t25 12.5q5 3 7.5 2.5t4.5 -5.5l8 -18q1 -1 1 -3t-6 -5q-13 -8 -27.5 -13.5z" />
    <glyph glyph-name="endash" unicode="&#x2013;" horiz-adv-x="527" 
d="M459 234l-391 -1v39l391 1v-39z" />
    <glyph glyph-name="emdash" unicode="&#x2014;" horiz-adv-x="840" 
d="M772 234l-704 -1v39l704 1v-39z" />
    <glyph glyph-name="quoteleft" unicode="&#x2018;" horiz-adv-x="218" 
d="M116 644h35v-79h-83v68l69 123h32z" />
    <glyph glyph-name="quoteright" unicode="&#x2019;" horiz-adv-x="184" 
d="M102 644h-35v79h83v-68l-69 -123h-32z" />
    <glyph glyph-name="quotesinglbase" unicode="&#x201a;" horiz-adv-x="205" 
d="M98 0h-35v80h83v-68l-69 -123h-32z" />
    <glyph glyph-name="quotedblleft" unicode="&#x201c;" horiz-adv-x="356" 
d="M63 601l70 122h32l-54 -111h35v-80h-83v69zM206 601l69 122h32l-54 -111h36v-80h-83v69z" />
    <glyph glyph-name="quotedblright" unicode="&#x201d;" horiz-adv-x="356" 
d="M102 644h-35v79h83v-68l-69 -123h-32zM245 644h-35v79h82v-68l-69 -123h-32z" />
    <glyph glyph-name="quotedblbase" unicode="&#x201e;" horiz-adv-x="354" 
d="M242 0h-35v80h83v-68l-69 -123h-32zM96 0h-35v80h83v-68l-69 -123h-32z" />
    <glyph glyph-name="dagger" unicode="&#x2020;" horiz-adv-x="394" 
d="M394 408l-180 6l10 -575h-52l9 575l-181 -6v46l178 -5l-6 274h52l-7 -274l177 5v-46z" />
    <glyph glyph-name="daggerdbl" unicode="&#x2021;" horiz-adv-x="394" 
d="M214 148l180 7v-47l-177 5l7 -274h-52l6 274l-178 -5v47l181 -7v266l-181 -6v46l178 -5l-6 274h52l-7 -274l177 5v-46l-180 6v-266z" />
    <glyph glyph-name="bullet" unicode="&#x2022;" horiz-adv-x="287" 
d="M93.5 318q-20.5 21 -20.5 50t20.5 49.5t49.5 20.5t49.5 -20.5t20.5 -49.5t-20.5 -50t-49.5 -21t-49.5 21z" />
    <glyph glyph-name="ellipsis" unicode="&#x2026;" horiz-adv-x="645" 
d="M582 0h-61v77h61v-77zM122 0h-61v77h61v-77zM352 0h-61v77h61v-77z" />
    <glyph glyph-name="perthousand" unicode="&#x2030;" horiz-adv-x="1263" 
d="M338 680q43 -54 43 -153q0 -100 -43 -154t-115 -54t-116 54t-44 154q0 99 44 153t116 54t115 -54zM230 -4h-39l488 735h37zM312.5 398q34.5 50 34.5 129q0 78 -34.5 128t-90.5 50t-90.5 -50t-34.5 -128t34.5 -128.5t90.5 -50.5t90.5 50zM769 352q43 -54 43 -153
q0 -101 -43 -155t-115 -54t-116 54t-44 155q0 99 44 153t116 54t115 -54zM1156 352q43 -54 43 -153q0 -101 -43 -155t-115 -54t-116 54t-44 155q0 99 44 153t116 54t115 -54zM717.5 43.5q28.5 23.5 44.5 64t16 90.5t-16 90.5t-44.5 64t-64.5 23.5t-64.5 -23.5t-44.5 -64.5
t-16 -90q0 -50 16 -90.5t44.5 -64t64.5 -23.5t64.5 23.5zM1104.5 43.5q28.5 23.5 44.5 64t16 90.5t-16 90.5t-44.5 64t-64.5 23.5t-64.5 -23.5t-44.5 -64.5t-16 -90q0 -50 16 -90.5t44.5 -64t64.5 -23.5t64.5 23.5z" />
    <glyph glyph-name="guilsinglleft" unicode="&#x2039;" horiz-adv-x="247" 
d="M201 76h-27l-143 175l144 183h28l-120 -183z" />
    <glyph glyph-name="guilsinglright" unicode="&#x203a;" horiz-adv-x="248" 
d="M45 434h27l144 -183l-143 -175h-26l118 175z" />
    <glyph glyph-name="fraction" unicode="&#x2044;" horiz-adv-x="245" 
d="M-102 -4h-39l488 735h37z" />
    <glyph glyph-name="uni2070" unicode="&#x2070;" horiz-adv-x="402" 
d="M290.5 783.5q44.5 -60.5 44.5 -174.5q0 -113 -44.5 -172.5t-114.5 -59.5q-71 0 -114.5 59t-43.5 172q0 114 44.5 175t113.5 61q70 0 114.5 -60.5zM271.5 453.5q35.5 51.5 35.5 155.5q0 105 -35.5 157t-95.5 52q-59 0 -95 -52t-36 -157q0 -103 36.5 -155t95.5 -52
t94.5 51.5z" />
    <glyph glyph-name="uni2074" unicode="&#x2074;" horiz-adv-x="402" 
d="M270 835v-298h73v-26h-73v-131h-24v131h-219v31l216 293h27zM243 537v256l-190 -256h190z" />
    <glyph glyph-name="uni2075" unicode="&#x2075;" horiz-adv-x="387" 
d="M328 835l-4 -25h-227l-14 -185q29 19 55.5 29t62.5 10q61 0 103.5 -33.5t42.5 -101.5q0 -72 -47.5 -113.5t-120.5 -41.5q-42 0 -80 15t-68 46l17 19q32 -29 59 -42.5t67 -13.5q67 0 106 36t39 94q0 56 -34 84t-84 28q-35 0 -63.5 -12t-58.5 -32q-3 -1 -4 -1.5t-2 0.5
t-3 2l-17 11l18 227h257z" />
    <glyph glyph-name="uni2076" unicode="&#x2076;" horiz-adv-x="390" 
d="M311 785l-17 -19q-23 31 -44.5 46t-60.5 15q-73 0 -110.5 -68.5t-33.5 -202.5q10 46 46.5 73.5t85.5 27.5q67 0 103 -39t36 -98q0 -63 -40 -99.5t-103 -36.5q-74 0 -115.5 59.5t-41.5 169.5q0 112 45 175t128 63q82 0 122 -66zM91.5 604.5q-35.5 -27.5 -35.5 -75.5
q26 -119 119 -119q50 0 82 30.5t32 78.5q0 46 -29.5 79.5t-79.5 33.5q-53 0 -88.5 -27.5z" />
    <glyph glyph-name="uni2077" unicode="&#x2077;" horiz-adv-x="352" 
d="M331 835v-25q-42 -62 -82.5 -145.5t-69.5 -161.5t-38 -123h-29q17 80 67 201.5t118 228.5h-267v25h301z" />
    <glyph glyph-name="uni2078" unicode="&#x2078;" horiz-adv-x="387" 
d="M280 811q38 -34 38 -90q0 -32 -14 -55.5t-23 -30.5t-35 -25q23 -8 40 -16.5t34.5 -32t17.5 -62.5q0 -55 -44 -88t-117 -33q-74 0 -115 31.5t-41 87.5q0 32 19 64.5t67 55.5q-25 8 -49.5 31t-24.5 71q0 54 42 90t104 36q63 0 101 -34zM95 790.5q-34 -28.5 -34 -71.5
q0 -68 76 -83l72 -16q12 -3 31.5 12.5t34 40.5t14.5 51q0 43 -30 69t-80 26t-84 -28.5zM274 430q36 27 36 71q0 34 -18.5 54.5t-56.5 29.5l-93 20q-13 3 -36 -11t-40.5 -40t-17.5 -56q0 -44 34.5 -69.5t95.5 -25.5q60 0 96 27z" />
    <glyph glyph-name="uni2079" unicode="&#x2079;" horiz-adv-x="390" 
d="M23 445l17 19q23 -31 44.5 -46t60.5 -15q73 0 110.5 68.5t33.5 202.5q-10 -46 -46.5 -74t-85.5 -28q-67 0 -103 39t-36 99q0 62 40 99t102 37q75 0 116.5 -59.5t41.5 -168.5q0 -112 -45.5 -175.5t-127.5 -63.5t-122 66zM241.5 627q35.5 29 35.5 74q-24 119 -118 119
q-50 0 -82 -30.5t-32 -78.5q0 -46 29.5 -79.5t79.5 -33.5q52 0 87.5 29z" />
    <glyph glyph-name="colonmonetary" unicode="&#x20a1;" horiz-adv-x="569" 
d="M408 131q-40 -29 -91 -36l-26 -95h-41l25 93q-24 1 -51 8l-27 -101h-42l31 115q-59 30 -91.5 93.5t-32.5 150.5q0 109 49.5 181.5t135.5 86.5l26 96h42l-25 -93q27 0 50 -6l28 99h41l-31 -114q51 -25 94 -91l-33 -21q-44 54 -74 74.5t-74 20.5q-86 0 -137 -63.5
t-51 -167.5q0 -105 50 -168t137 -63q51 0 87 25t70 80l33 -22q-32 -53 -72 -82z" />
    <glyph glyph-name="franc" unicode="&#x20a3;" horiz-adv-x="592" 
d="M148 684v-312h356v-39h-356v-149l177 1v-37l-177 -1v-147h-45v147h-97v37h97v539h430v-39h-385z" />
    <glyph glyph-name="lira" unicode="&#x20a4;" horiz-adv-x="582" 
d="M457 27q-46 -27 -112 -27h-333v38h41q41 -1 68 43t27 128q0 6 -2 42q-1 5 -8 5h-109v37h111l-19 110h-92v37h85l-4 21q-7 41 -7 78q0 102 52 148t139 46q39 0 76 -13.5t63 -35.5t36 -45l-37 -19q-19 35 -51.5 53t-84.5 18q-66 0 -110.5 -37t-44.5 -101q0 -24 14 -105
q2 -8 10 -8l180 1v-37l-183 -1l19 -110l164 1v-37h-158q2 -22 2 -34q0 -52 -14.5 -101.5t-42.5 -82.5h213q56 0 91.5 19t52.5 64l36 -15q-22 -53 -68 -80z" />
    <glyph glyph-name="uni20A6" unicode="&#x20a6;" horiz-adv-x="691" 
d="M615 434v-119h70v-37h-70v-278h-34l-187 278l-246 -1v-277h-39v277h-103v37h103v119h-103v37h103v253h32l170 -253l265 1v252h39v-252h70v-37h-70zM148 470h116l-116 173v-173zM576 434l-240 -1l80 -118h160v119zM369 315l-80 118h-141v-119zM576 278h-135l135 -200v200z
" />
    <glyph glyph-name="uni20A9" unicode="&#x20a9;" horiz-adv-x="967" 
d="M831 434l-34 -119h160v-37h-171l-80 -278h-55l-78 278l-209 -1l-79 -277h-52l-78 277h-137v37h127l-34 119h-93v37h83l-71 253h44l69 -253h236l72 253h39l71 -252h238l72 252h43l-73 -252h116v-37h-126zM419 470l101 1l-50 177zM789 434h-218l34 -119h150zM563 315
l-33 119l-121 -1l-34 -119zM186 314h149l33 119h-214zM744 278h-129l64 -229zM324 277h-128l63 -228z" />
    <glyph glyph-name="dong" unicode="&#x20ab;" horiz-adv-x="480" 
d="M465 653v-34h-62v-488h-35v64q-2 -2 -17.5 -21.5t-49 -35t-73.5 -15.5q-52 0 -93.5 24t-66 71.5t-24.5 115.5q0 67 24 119t68 80.5t101 28.5q42 0 66.5 -12t51.5 -35q7 -5 8 -5q3 0 3 10v99h-152v34h152v69h37v-69h62zM363 466q-56 56 -123 56t-109 -49.5t-42 -135.5
t42 -131t105 -45q36 0 65 16t45.5 40.5t16.5 48.5v200zM63 34h345v-34h-345v34z" />
    <glyph glyph-name="Euro" unicode="&#x20ac;" horiz-adv-x="553" 
d="M515 35q-69 -45 -151 -45q-122 0 -196.5 71.5t-93.5 205.5h-91v37h87q-2 36 -2 55q0 34 3 64h-88v37h92q21 131 94 202t189 71q39 0 78.5 -13t73.5 -36l-28 -38q-58 45 -122 45q-99 0 -159 -58.5t-78 -172.5l228 1v-37l-232 -1q-3 -30 -3 -64q0 -19 2 -55l233 1v-37
l-229 -1q17 -115 78.5 -175t167.5 -60q68 0 123 37z" />
    <glyph glyph-name="uni20B9" unicode="&#x20b9;" horiz-adv-x="525" 
d="M511 687h-148q61 -40 67 -119h81v-37h-81q-10 -124 -147 -165q-6 -1 -4 -7l131 -359h-49l-131 356h-230v39h174q101 0 152 31.5t56 104.5l-380 -1v37l380 1q-11 116 -174 116h-208v39l511 1v-37z" />
    <glyph glyph-name="uni20BA" unicode="&#x20ba;" horiz-adv-x="480" 
d="M471 212q-32 -104 -101 -158t-160 -54h-107v226l-72 -26l-14 42l86 31v116l-72 -26l-14 42l86 31v287h45v-270l149 54l16 -42l-165 -60v-115l149 54l16 -42l-165 -60v-203h61q78 0 131 43t89 141z" />
    <glyph glyph-name="uni2113" unicode="&#x2113;" horiz-adv-x="441" 
d="M152 97q10 -37 30.5 -52.5t55.5 -15.5q27 0 48 8l-45 -47q-85 0 -110 54t-26 94.5t-2 47.5q-1 5 -6 2l-49 -35l-21 33l76 54v279q0 105 42 159.5t106 54.5q57 0 89 -40.5t32 -106.5q0 -67 -34 -131.5t-80.5 -117.5t-115.5 -119v-17q0 -67 10 -104zM142 269
q75 64 133.5 149t58.5 179q0 46 -21.5 70.5t-62.5 24.5q-54 0 -81 -47t-27 -158v-218zM363 119q-3 -5 -4 -7l-1 -1q-18 -29 -33.5 -47t-38.5 -27z" />
    <glyph glyph-name="uni2116" unicode="&#x2116;" horiz-adv-x="1141" 
d="M614 723v-723h-34l-433 643v-643h-39v723h32l435 -645v645h39zM1040.5 685.5q40.5 -46.5 40.5 -122.5q0 -75 -39.5 -120.5t-110.5 -45.5t-110 45.5t-39 120.5q0 76 40.5 122.5t108.5 46.5q69 0 109.5 -46.5zM850 662q-28 -36 -28 -96q0 -64 28 -100.5t81 -36.5t81.5 37
t28.5 100q0 60 -28.5 96t-81.5 36t-81 -36z" />
    <glyph glyph-name="uni2117" unicode="&#x2117;" horiz-adv-x="809" 
d="M218.5 39.5q-85.5 49.5 -135.5 135t-50 187.5q0 100 50 185.5t135.5 135.5t186.5 50q100 0 185.5 -50t135.5 -135.5t50 -185.5q0 -102 -50 -187t-135 -135t-186 -50t-186.5 49.5zM567 74q75 41 120 116t45 172q0 95 -45 170.5t-120.5 117t-161.5 41.5q-89 0 -164 -41.5
t-119.5 -116.5t-44.5 -171q0 -97 44.5 -172t119.5 -116t164 -41q87 0 162 41zM520.5 362.5q-37.5 -31.5 -99.5 -31.5h-100v-167h-39v390h136q65 0 102.5 -25t37.5 -75q0 -60 -37.5 -91.5zM491 502q-27 17 -74 17h-96v-153h100q42 0 69.5 19.5t27.5 58.5q0 41 -27 58z" />
    <glyph glyph-name="uni2120" unicode="&#x2120;" horiz-adv-x="934" 
d="M95 23.5q-47 29.5 -57 80.5l26 6q10 -44 49.5 -68t92.5 -24q38 0 69 11.5t47.5 32.5t16.5 47q0 37 -19.5 60.5t-62.5 33.5l-101 25q-51 13 -77.5 39t-26.5 66q0 35 18.5 63.5t53 45t79.5 16.5q72 0 111 -34.5t44 -85.5l-26 -5q-8 51 -44 75t-86 24q-29 0 -57.5 -11
t-47 -33t-18.5 -55q0 -31 21.5 -51.5t72.5 -33.5l96 -25q97 -24 97 -112q0 -33 -18 -59.5t-54.5 -42t-87.5 -15.5q-64 0 -111 29.5zM472 452h27l169 -424l172 424h27v-452h-27v385l-153 -385h-37l-152 380v-380h-26v452z" />
    <glyph glyph-name="trademark" unicode="&#x2122;" horiz-adv-x="871" 
d="M9 452h322v-25h-142v-427h-25v427h-155v25zM408 452h28l169 -424l172 424h27v-452h-27v385l-153 -385h-37l-152 380v-380h-27v452z" />
    <glyph glyph-name="estimated" unicode="&#x212e;" horiz-adv-x="809" 
d="M574.5 33q-79.5 -43 -169.5 -43q-101 0 -186.5 49.5t-135.5 135t-50 187.5q0 100 50 185.5t135.5 135.5t186.5 50q99 0 184.5 -48.5t136 -131t50.5 -178.5q0 -7 -3 -10t-10 -3h-541v-286q75 -56 183 -56q74 0 144.5 36.5t117.5 91.5h43q-56 -72 -135.5 -115zM231 653
q-9 -6 -9 -17v-240h355v258q-77 45 -172 45q-99 0 -174 -46z" />
    <glyph glyph-name="uni2153" unicode="&#x2153;" horiz-adv-x="918" 
d="M96 697l-95 -38v25l95 47h27v-455h-27v421zM186 -4h-39l488 735h37zM640 441.5q37 16.5 76 16.5q64 0 103 -32.5t39 -80.5q0 -75 -90 -106q51 -14 77.5 -45.5t26.5 -74.5q0 -55 -43 -91.5t-121 -36.5q-44 0 -78 14t-67 47l20 19q27 -30 58 -42.5t70 -12.5q62 0 98 28.5
t36 72.5q0 50 -41 78.5t-95 28.5h-61v25h51q55 0 93.5 27.5t38.5 68.5q0 38 -32 62.5t-82 24.5q-38 0 -65 -13.5t-51 -39.5l-19 18q21 28 58 44.5z" />
    <glyph glyph-name="uni2154" unicode="&#x2154;" horiz-adv-x="1000" 
d="M17 310l151 155q51 53 72 85.5t21 68.5q0 48 -32.5 71.5t-72.5 23.5q-35 0 -67 -15.5t-53 -47.5l-19 17q48 72 141 72q55 0 92 -31t37 -88q0 -41 -23 -78t-83 -99l-137 -139h248v-26h-275v31zM268 -4h-39l488 735h37zM722 441.5q37 16.5 76 16.5q64 0 103 -32.5t39 -80.5
q0 -75 -90 -106q51 -14 77.5 -45.5t26.5 -74.5q0 -55 -43 -91.5t-121 -36.5q-44 0 -78 14t-67 47l20 19q27 -30 58 -42.5t70 -12.5q62 0 98 28.5t36 72.5q0 50 -41 78.5t-95 28.5h-61v25h51q55 0 93.5 27.5t38.5 68.5q0 38 -32 62.5t-82 24.5q-38 0 -65 -13.5t-51 -39.5
l-19 18q21 28 58 44.5z" />
    <glyph glyph-name="oneeighth" unicode="&#x215b;" horiz-adv-x="920" 
d="M96 697l-95 -38v25l95 47h27v-455h-27v421zM186 -4h-39l488 735h37zM813 423q38 -34 38 -90q0 -32 -14 -55.5t-23 -30.5t-35 -25q23 -8 40 -16.5t34.5 -32t17.5 -62.5q0 -55 -44 -88t-117 -33q-74 0 -115 31.5t-41 87.5q0 32 19 64.5t67 55.5q-25 8 -49.5 31t-24.5 71
q0 54 42 90t104 36q63 0 101 -34zM628 402.5q-34 -28.5 -34 -71.5q0 -68 76 -83l72 -16q12 -3 31.5 12.5t34 40.5t14.5 51q0 43 -30 69t-80 26t-84 -28.5zM807 42q36 27 36 71q0 34 -18.5 54.5t-56.5 29.5l-93 20q-13 3 -36 -11t-40.5 -40t-17.5 -56q0 -44 34.5 -69.5
t95.5 -25.5q60 0 96 27z" />
    <glyph glyph-name="threeeighths" unicode="&#x215c;" horiz-adv-x="1017" 
d="M107 723.5q37 16.5 76 16.5q64 0 103 -32.5t39 -80.5q0 -75 -90 -106q51 -14 77.5 -45.5t26.5 -74.5q0 -55 -43 -91.5t-121 -36.5q-44 0 -78 14t-67 47l20 19q27 -30 58 -42.5t70 -12.5q62 0 98 28.5t36 72.5q0 50 -41 78.5t-95 28.5h-61v25h51q55 0 93.5 27.5t38.5 68.5
q0 38 -32 62.5t-82 24.5q-38 0 -65 -13.5t-51 -39.5l-19 18q21 28 58 44.5zM283 -4h-39l488 735h37zM910 423q38 -34 38 -90q0 -32 -14 -55.5t-23 -30.5t-35 -25q23 -8 40 -16.5t34.5 -32t17.5 -62.5q0 -55 -44 -88t-117 -33q-74 0 -115 31.5t-41 87.5q0 32 19 64.5t67 55.5
q-25 8 -49.5 31t-24.5 71q0 54 42 90t104 36q63 0 101 -34zM725 402.5q-34 -28.5 -34 -71.5q0 -68 76 -83l72 -16q12 -3 31.5 12.5t34 40.5t14.5 51q0 43 -30 69t-80 26t-84 -28.5zM904 42q36 27 36 71q0 34 -18.5 54.5t-56.5 29.5l-93 20q-13 3 -36 -11t-40.5 -40
t-17.5 -56q0 -44 34.5 -69.5t95.5 -25.5q60 0 96 27z" />
    <glyph glyph-name="fiveeighths" unicode="&#x215d;" horiz-adv-x="1019" 
d="M328 731l-4 -25h-227l-14 -185q29 19 55.5 29t62.5 10q61 0 103.5 -33.5t42.5 -101.5q0 -72 -47.5 -113.5t-120.5 -41.5q-42 0 -80 15t-68 46l17 19q32 -29 59 -42.5t67 -13.5q67 0 106 36t39 94q0 56 -34 84t-84 28q-35 0 -63.5 -12t-58.5 -32q-3 -1 -4 -1.5t-2 0.5
t-3 2l-17 11l18 227h257zM285 -4h-39l488 735h37zM912 423q38 -34 38 -90q0 -32 -14 -55.5t-23 -30.5t-35 -25q23 -8 40 -16.5t34.5 -32t17.5 -62.5q0 -55 -44 -88t-117 -33q-74 0 -115 31.5t-41 87.5q0 32 19 64.5t67 55.5q-25 8 -49.5 31t-24.5 71q0 54 42 90t104 36
q63 0 101 -34zM727 402.5q-34 -28.5 -34 -71.5q0 -68 76 -83l72 -16q12 -3 31.5 12.5t34 40.5t14.5 51q0 43 -30 69t-80 26t-84 -28.5zM906 42q36 27 36 71q0 34 -18.5 54.5t-56.5 29.5l-93 20q-13 3 -36 -11t-40.5 -40t-17.5 -56q0 -44 34.5 -69.5t95.5 -25.5q60 0 96 27z
" />
    <glyph glyph-name="seveneighths" unicode="&#x215e;" horiz-adv-x="984" 
d="M331 730v-25q-42 -62 -82.5 -145.5t-69.5 -161.5t-38 -123h-29q17 80 67 201.5t118 228.5h-267v25h301zM250 -4h-39l488 735h37zM877 423q38 -34 38 -90q0 -32 -14 -55.5t-23 -30.5t-35 -25q23 -8 40 -16.5t34.5 -32t17.5 -62.5q0 -55 -44 -88t-117 -33q-74 0 -115 31.5
t-41 87.5q0 32 19 64.5t67 55.5q-25 8 -49.5 31t-24.5 71q0 54 42 90t104 36q63 0 101 -34zM692 402.5q-34 -28.5 -34 -71.5q0 -68 76 -83l72 -16q12 -3 31.5 12.5t34 40.5t14.5 51q0 43 -30 69t-80 26t-84 -28.5zM871 42q36 27 36 71q0 34 -18.5 54.5t-56.5 29.5l-93 20
q-13 3 -36 -11t-40.5 -40t-17.5 -56q0 -44 34.5 -69.5t95.5 -25.5q60 0 96 27z" />
    <glyph glyph-name="partialdiff" unicode="&#x2202;" horiz-adv-x="572" 
d="M92 668q26 30 77 47.5t103 17.5q118 0 182.5 -93t64.5 -273q0 -181 -63.5 -279t-178.5 -98q-64 0 -115 29.5t-79.5 81.5t-28.5 116q0 96 64.5 152t177.5 56q51 0 83.5 -11.5t77.5 -38.5q12 -6 12 1q0 158 -55.5 236t-159.5 78q-45 0 -76 -12.5t-69 -38.5zM269 32
q51 0 94.5 30.5t71.5 86.5t35 129q1 6 1 15q0 13 -7 20q-26 29 -78.5 49.5t-103.5 20.5q-52 0 -93.5 -22t-64.5 -60.5t-23 -86.5q0 -49 22.5 -90.5t61 -66.5t83.5 -25h1z" />
    <glyph glyph-name="emptyset" unicode="&#x2205;" horiz-adv-x="562" 
d="M438 476q37 -51 37 -112q0 -53 -26.5 -97.5t-71 -70.5t-96.5 -26q-71 0 -125 46l-64 -59l-27 27l65 59q-42 53 -42 121q0 52 26 96.5t70 70.5t97 26q38 0 72 -14t61 -39l57 52l25 -27zM156 267l232 213q-21 20 -49 31t-58 11q-43 0 -79.5 -21.5t-57.5 -58t-21 -78.5
q0 -55 33 -97zM413 452l-231 -212q43 -35 99 -35q43 0 79.5 21.5t58 58t21.5 79.5q0 48 -27 88z" />
    <glyph glyph-name="product" unicode="&#x220f;" horiz-adv-x="611" 
d="M598 683h-109v-683h-44v683h-278v-683h-45v683h-108v40h584v-40z" />
    <glyph glyph-name="summation" unicode="&#x2211;" horiz-adv-x="484" 
d="M24 0v33l221 329l-206 326v35h407v-39h-351l201 -321l-216 -324h384v-39h-440z" />
    <glyph glyph-name="minus" unicode="&#x2212;" horiz-adv-x="527" 
d="M459 345l-391 -1v37l391 1v-37z" />
    <glyph glyph-name="uni2219" unicode="&#x2219;" horiz-adv-x="287" 
d="M110.5 334.5q-13.5 13.5 -13.5 33.5t13.5 33t32.5 13q20 0 33 -13t13 -33t-13.5 -33.5t-32.5 -13.5t-32.5 13.5z" />
    <glyph glyph-name="radical" unicode="&#x221a;" horiz-adv-x="586" 
d="M330 -161h-48l-179 483l-72 -29l-13 36l117 45l168 -479l245 930h40z" />
    <glyph glyph-name="infinity" unicode="&#x221e;" horiz-adv-x="671" 
d="M622 272q0 -70 -41.5 -110.5t-102.5 -40.5q-43 0 -71 19.5t-64 61.5q-5 6 -8 6q-2 0 -7 -6q-3 -3 -21.5 -25t-50.5 -39t-68 -17q-38 0 -69.5 18.5t-50.5 52t-19 76.5q0 66 41.5 106.5t107.5 40.5q43 0 70 -17.5t62 -56.5q9 -7 11 -7q3 0 10 7q31 35 60.5 54.5t74.5 19.5
q60 0 98 -38.5t38 -103.5v-1zM192 165q34 0 65.5 23.5t53.5 54.5q10 13 10 20q0 5 -3.5 11t-8.5 14q-28 43 -56.5 64.5t-64.5 21.5q-43 0 -70 -28.5t-27 -74.5t28.5 -76t69.5 -30h3zM485 374q-35 0 -62 -21.5t-60 -60.5q-9 -12 -9 -21q0 -10 9 -21q60 -85 126 -85
q42 0 66 31.5t24 73.5q0 43 -26 73.5t-67 30.5h-1z" />
    <glyph glyph-name="integral" unicode="&#x222b;" horiz-adv-x="415" 
d="M197.5 791.5q39.5 43.5 96.5 43.5q41 0 63 -5.5t51 -23.5l-15 -43q-28 15 -47.5 21t-44.5 6q-42 0 -70.5 -29t-28.5 -84q0 -75 6.5 -151.5t19.5 -191.5q13 -128 19 -197.5t6 -143.5q0 -52 -18.5 -89t-48.5 -56t-65 -19q-41 0 -62.5 5.5t-51.5 23.5l15 43q28 -15 47.5 -21
t44.5 -6q40 0 68 29t28 84q0 76 -6.5 152t-19.5 190t-19.5 190t-6.5 152q0 77 39.5 120.5z" />
    <glyph glyph-name="approxequal" unicode="&#x2248;" horiz-adv-x="528" 
d="M425.5 420.5q-27.5 -12.5 -67.5 -12.5q-24 0 -42.5 5t-48.5 16q-25 10 -45.5 15.5t-44.5 5.5q-61 0 -103 -42l-12 32q25 22 50 34.5t62 12.5q23 0 43.5 -5.5t49.5 -16.5t49 -16.5t43 -5.5q35 0 55.5 11t38.5 30l13 -35q-13 -16 -40.5 -28.5zM425 234q-27 -13 -67 -13
q-27 0 -48.5 5.5t-47.5 16.5q-24 10 -43.5 15.5t-41.5 5.5q-62 0 -103 -43l-12 33q25 22 50 34t62 12q23 0 43.5 -5.5t49.5 -16.5t49 -16.5t43 -5.5q34 0 54.5 11t39.5 30l13 -34q-14 -16 -41 -29z" />
    <glyph glyph-name="notequal" unicode="&#x2260;" horiz-adv-x="569" 
d="M315 443l-79 -179l221 1v-37l-238 -1l-64 -143h-36l65 143h-118v37h134l81 179l-215 -1v37l231 1l60 132h34l-59 -132h125v-37h-142z" />
    <glyph glyph-name="lessequal" unicode="&#x2264;" horiz-adv-x="518" 
d="M448 254l-382 152v47l383 154v-48l-323 -129l322 -130v-46zM449 81l-391 1v37l391 -1v-37z" />
    <glyph glyph-name="greaterequal" unicode="&#x2265;" horiz-adv-x="518" 
d="M392 430l-324 129v48l383 -154v-47l-382 -152v46zM459 119v-37l-391 -1v37z" />
    <glyph glyph-name="lozenge" unicode="&#x25ca;" horiz-adv-x="426" 
d="M186 0l-148 361l154 362h48l149 -360l-154 -363h-49zM87 366l127 -325l126 320l-126 322z" />
    <glyph glyph-name="i.loclTRK" horiz-adv-x="219" 
d="M129 0h-39v517h39v-517zM133 628h-48v95h48v-95z" />
    <glyph glyph-name="p.001" horiz-adv-x="577" 
d="M98 517h37v-77q3 3 22.5 26.5t59.5 42t89 18.5q64 0 114 -29t79 -87.5t29 -142.5q0 -83 -28.5 -146t-81.5 -97.5t-124 -34.5q-44 0 -81 14t-76 46v-211h-39v678zM394 55.5q44 28.5 68.5 82t24.5 126.5q0 74 -25.5 125t-67.5 75.5t-93 24.5q-46 0 -83.5 -21t-59 -52
t-21.5 -61v-254q39 -36 76.5 -55t79.5 -19q57 0 101 28.5z" />
    <glyph glyph-name="q.001" horiz-adv-x="580" 
d="M451 -161v211q-39 -32 -76 -46t-81 -14q-71 0 -124 34.5t-81.5 97.5t-28.5 146q0 84 29 142.5t79 87.5t114 29q49 0 84 -16t47 -27.5t40 -43.5v77h37v-678h-39zM374.5 46q37.5 19 76.5 55v254q0 30 -21.5 61t-59 52t-83.5 21q-51 0 -93 -24.5t-67.5 -75.5t-25.5 -125
q0 -72 25 -126t69 -82.5t100 -28.5q42 0 79.5 19z" />
    <glyph glyph-name="l.ss01" horiz-adv-x="253" 
d="M107 743h39v-743h-39v743z" />
    <glyph glyph-name="zero.osf" horiz-adv-x="617" 
d="M438 691.5q57 -41.5 90 -125.5t33 -206t-33 -205t-90 -124t-130 -41t-129.5 40.5t-89 123.5t-32.5 204q0 122 33 206.5t90 126.5t129 42t129 -41.5zM461 112.5q56 81.5 56 247.5q0 167 -57 249.5t-151 82.5t-151.5 -83t-57.5 -249q0 -165 57.5 -247t152.5 -82t151 81.5z
" />
    <glyph glyph-name="one.osf" horiz-adv-x="365" 
d="M192 669l-150 -60v39l151 75h42v-723h-43v669z" />
    <glyph glyph-name="two.osf" horiz-adv-x="546" 
d="M48 50l239 246q81 83 115 135.5t34 109.5q0 53 -26 86.5t-64 48.5t-78 15q-57 0 -107 -24.5t-83 -75.5l-31 28q39 58 96.5 86t128.5 28q57 0 103.5 -22t74 -65t27.5 -104q0 -45 -16.5 -84.5t-51.5 -84t-100 -110.5l-218 -222h394v-41h-437v50z" />
    <glyph glyph-name="three.osf" horiz-adv-x="605" 
d="M175 712q58 26 121 26q67 0 118.5 -23.5t79.5 -64.5t28 -91q0 -119 -144 -170q81 -22 123.5 -71.5t42.5 -118.5q0 -56 -30 -102.5t-89 -74t-142 -27.5q-71 0 -125 22.5t-106 75.5l32 29q43 -46 92.5 -66t111.5 -20q99 0 155.5 44.5t56.5 115.5q0 54 -31 92.5t-80 58
t-104 19.5h-97v39h80q58 0 106 20t76 55t28 79q0 39 -23 70.5t-64 49.5t-93 18q-60 0 -103.5 -21.5t-81.5 -63.5l-30 29q34 45 92 71z" />
    <glyph glyph-name="four.osf" horiz-adv-x="611" 
d="M444 723v-473h116v-41h-116v-209h-39v209h-348v49l344 465h43zM401 250v406l-302 -406h302z" />
    <glyph glyph-name="five.osf" horiz-adv-x="631" 
d="M532 723l-5 -40h-361l-23 -293q49 30 89.5 46t97.5 16q62 0 115 -22.5t85.5 -70.5t32.5 -122q0 -76 -35 -132t-96 -85.5t-137 -29.5q-66 0 -126.5 24t-108.5 73l28 30q50 -46 93 -67t107 -21q71 0 123.5 26t80 73t27.5 108q0 89 -54 133t-135 44q-55 0 -100 -19t-94 -50
q-4 -3 -5.5 -3.5t-3 1t-4.5 3.5l-27 18l28 360h408z" />
    <glyph glyph-name="six.osf" horiz-adv-x="588" 
d="M525 636l-28 -31q-23 32 -43 51.5t-50 32.5t-74 13q-110 0 -170 -98.5t-60 -291.5l1 -40q16 73 74.5 117t136.5 44q71 0 121 -29t75 -79t25 -110q0 -66 -29.5 -115.5t-81 -75.5t-116.5 -26q-118 0 -184.5 95t-66.5 269q0 118 32.5 203t94 130.5t148.5 45.5
q131 0 195 -105zM176.5 349q-56.5 -43 -56.5 -120q39 -190 189 -190q52 0 93 22t64 62t23 90q0 47 -20.5 88t-59.5 66t-92 25q-84 0 -140.5 -43z" />
    <glyph glyph-name="seven.osf" horiz-adv-x="562" 
d="M520 723v-40q-67 -99 -131.5 -231.5t-110 -256t-60.5 -195.5h-47q29 130 108 322t187 361h-424v40h478z" />
    <glyph glyph-name="eight.osf" horiz-adv-x="607" 
d="M463.5 679q60.5 -54 60.5 -144q0 -51 -22.5 -88t-44 -54t-47.5 -33q4 -2 43 -15.5t71 -56.5t32 -105q0 -57 -32 -101t-89.5 -68t-133.5 -24q-117 0 -183 50.5t-66 139.5q0 50 30 102t107 89q-39 13 -78.5 49.5t-39.5 111.5q0 57 30.5 103t83.5 72t118 26q100 0 160.5 -54
zM208 671q-43 -21 -67.5 -57.5t-24.5 -81.5q0 -108 121 -132l114 -25q19 -4 50.5 20t54.5 64t23 81q0 69 -48 110.5t-128 41.5q-52 0 -95 -21zM454.5 73.5q57.5 42.5 57.5 112.5q0 55 -29 87t-90 46l-148 33q-20 5 -56.5 -17.5t-64.5 -64t-28 -89.5q0 -70 54.5 -110
t151.5 -40q95 0 152.5 42.5z" />
    <glyph glyph-name="nine.osf" horiz-adv-x="588" 
d="M60 96l28 30q23 -32 43 -51.5t50 -32.5t73 -13q111 0 171 98.5t60 291.5l-1 40q-16 -73 -75 -117t-136 -44q-71 0 -121 29.5t-75 79t-25 110.5q0 66 29.5 115t81 75t116.5 26q118 0 184.5 -94.5t66.5 -268.5q0 -118 -32.5 -203.5t-94.5 -131t-149 -45.5q-131 0 -194 106z
M367 359.5q45 20.5 71.5 57.5t26.5 85q-39 190 -189 190q-52 0 -93 -22t-64 -61.5t-23 -89.5q0 -48 20.5 -89t59.5 -66t92 -25q54 0 99 20.5z" />
    <glyph glyph-name="zero.tf" horiz-adv-x="692" 
d="M479 691.5q57 -41.5 90 -125.5t33 -206t-33 -205t-90 -124t-130 -41t-129.5 40.5t-89 123.5t-32.5 204q0 122 33 206.5t90 126.5t129 42t129 -41.5zM502 112.5q56 81.5 56 247.5q0 167 -57 249.5t-151 82.5t-151.5 -83t-57.5 -249q0 -165 57.5 -247t152.5 -82t151 81.5z
" />
    <glyph glyph-name="one.tf" horiz-adv-x="692" 
d="M625 42v-42h-519v42h236v636l-224 -98v46l225 98h42v-682h240z" />
    <glyph glyph-name="two.tf" horiz-adv-x="692" 
d="M140 50l239 246q81 83 115 135.5t34 109.5q0 53 -26 86.5t-64 48.5t-78 15q-57 0 -107 -24.5t-83 -75.5l-31 28q39 58 96.5 86t128.5 28q57 0 103.5 -22t74 -65t27.5 -104q0 -45 -16.5 -84.5t-51.5 -84t-100 -110.5l-218 -222h394v-41h-437v50z" />
    <glyph glyph-name="three.tf" horiz-adv-x="692" 
d="M229 707q58 26 121 26q67 0 118.5 -23.5t79.5 -64.5t28 -91q0 -119 -144 -170q81 -22 123.5 -71.5t42.5 -118.5q0 -56 -30 -102.5t-89 -74t-142 -27.5q-71 0 -125 22.5t-106 75.5l32 29q43 -46 92.5 -66t111.5 -20q99 0 155.5 44.5t56.5 115.5q0 54 -31 92.5t-80 58
t-104 19.5h-97v39h80q58 0 106 20t76 55t28 79q0 39 -23 70.5t-64 49.5t-93 18q-60 0 -103.5 -21.5t-81.5 -63.5l-30 29q34 45 92 71z" />
    <glyph glyph-name="four.tf" horiz-adv-x="692" 
d="M501 723v-473h116v-41h-116v-209h-39v209h-348v49l344 465h43zM458 250v406l-302 -406h302z" />
    <glyph glyph-name="five.tf" horiz-adv-x="692" 
d="M577 723l-5 -40h-361l-23 -293q49 30 89.5 46t97.5 16q62 0 115 -22.5t85.5 -70.5t32.5 -122q0 -76 -35 -132t-96 -85.5t-137 -29.5q-66 0 -126.5 24t-108.5 73l28 30q50 -46 93 -67t107 -21q71 0 123.5 26t80 73t27.5 108q0 89 -54 133t-135 44q-55 0 -100 -19t-94 -50
q-4 -3 -5.5 -3.5t-3 1t-4.5 3.5l-27 18l28 360h408z" />
    <glyph glyph-name="six.tf" horiz-adv-x="692" 
d="M578 636l-28 -31q-23 32 -43 51.5t-50 32.5t-74 13q-110 0 -170 -98.5t-60 -291.5l1 -40q16 73 74.5 117t136.5 44q71 0 121 -29t75 -79t25 -110q0 -66 -29.5 -115.5t-81 -75.5t-116.5 -26q-118 0 -184.5 95t-66.5 269q0 118 32.5 203t94 130.5t148.5 45.5
q131 0 195 -105zM229.5 349q-56.5 -43 -56.5 -120q39 -190 189 -190q52 0 93 22t64 62t23 90q0 47 -20.5 88t-59.5 66t-92 25q-84 0 -140.5 -43z" />
    <glyph glyph-name="seven.tf" horiz-adv-x="692" 
d="M603 723v-40q-67 -99 -131 -231.5t-109.5 -256t-60.5 -195.5h-48q30 131 109 322.5t187 360.5h-483v40h536z" />
    <glyph glyph-name="eight.tf" horiz-adv-x="692" 
d="M514.5 679q60.5 -54 60.5 -144q0 -51 -22.5 -88t-44 -54t-47.5 -33q4 -2 43 -15.5t71 -56.5t32 -105q0 -57 -32 -101t-89.5 -68t-133.5 -24q-117 0 -183 50.5t-66 139.5q0 50 30 102t107 89q-39 13 -78.5 49.5t-39.5 111.5q0 57 30.5 103t83.5 72t118 26q100 0 160.5 -54
zM259 671q-43 -21 -67.5 -57.5t-24.5 -81.5q0 -108 121 -132l114 -25q19 -4 50.5 20t54.5 64t23 81q0 69 -48 110.5t-128 41.5q-52 0 -95 -21zM505.5 73.5q57.5 42.5 57.5 112.5q0 55 -29 87t-90 46l-148 33q-20 5 -56.5 -17.5t-64.5 -64t-28 -89.5q0 -70 54.5 -110
t151.5 -40q95 0 152.5 42.5z" />
    <glyph glyph-name="nine.tf" horiz-adv-x="692" 
d="M122 96l28 30q23 -32 43 -51.5t50 -32.5t73 -13q111 0 171 98.5t60 291.5l-1 40q-16 -73 -75 -117t-136 -44q-71 0 -121 29.5t-75 79t-25 110.5q0 66 29.5 115t81 75t116.5 26q118 0 184.5 -94.5t66.5 -268.5q0 -118 -32.5 -203.5t-94.5 -131t-149 -45.5q-131 0 -194 106
zM429 359.5q45 20.5 71.5 57.5t26.5 85q-39 190 -189 190q-52 0 -93 -22t-64 -61.5t-23 -89.5q0 -48 20.5 -89t59.5 -66t92 -25q54 0 99 20.5z" />
    <glyph glyph-name="zero.subs" horiz-adv-x="402" 
d="M290.5 230.5q44.5 -60.5 44.5 -174.5q0 -113 -44.5 -172.5t-114.5 -59.5q-71 0 -114.5 59t-43.5 172q0 114 44.5 175t113.5 61q70 0 114.5 -60.5zM271.5 -99.5q35.5 51.5 35.5 155.5q0 105 -35.5 157t-95.5 52q-59 0 -95 -52t-36 -157q0 -103 36.5 -155t95.5 -52
t94.5 51.5z" />
    <glyph glyph-name="one.subs" horiz-adv-x="288" 
d="M96 256l-95 -38v25l95 47h27v-455h-27v421z" />
    <glyph glyph-name="two.subs" horiz-adv-x="370" 
d="M17 -134l151 155q50 52 71.5 85t21.5 69q0 34 -16 55t-40 30.5t-49 9.5q-36 0 -67.5 -15.5t-52.5 -47.5l-19 17q24 37 60 54.5t81 17.5q36 0 65 -14t46.5 -41t17.5 -65q0 -28 -10.5 -53t-32.5 -53t-63 -70l-137 -139h248v-26h-275v31z" />
    <glyph glyph-name="three.subs" horiz-adv-x="385" 
d="M107 276.5q37 16.5 76 16.5q64 0 103 -32.5t39 -80.5q0 -75 -90 -106q51 -14 77.5 -45.5t26.5 -74.5q0 -55 -43 -91.5t-121 -36.5q-44 0 -78 14t-67 47l20 19q27 -30 58 -42.5t70 -12.5q62 0 98 28.5t36 72.5q0 50 -41 78.5t-95 28.5h-61v25h51q55 0 93.5 27.5t38.5 68.5
q0 38 -32 62.5t-82 24.5q-38 0 -65 -13.5t-51 -39.5l-19 18q21 28 58 44.5z" />
    <glyph glyph-name="four.subs" horiz-adv-x="402" 
d="M270 290v-298h73v-26h-73v-131h-24v131h-219v31l216 293h27zM243 -8v256l-190 -256h190z" />
    <glyph glyph-name="five.subs" horiz-adv-x="387" 
d="M328 287l-4 -25h-227l-14 -185q29 19 55.5 29t62.5 10q61 0 103.5 -33.5t42.5 -101.5q0 -72 -47.5 -113.5t-120.5 -41.5q-42 0 -80 15t-68 46l17 19q32 -29 59 -42.5t67 -13.5q67 0 106 36t39 94q0 56 -34 84t-84 28q-35 0 -63.5 -12t-58.5 -32q-3 -1 -4 -1.5t-2 0.5
t-3 2l-17 11l18 227h257z" />
    <glyph glyph-name="six.subs" horiz-adv-x="390" 
d="M311 230l-17 -19q-23 31 -44.5 46t-60.5 15q-73 0 -110.5 -68.5t-33.5 -202.5q10 46 46.5 73.5t85.5 27.5q67 0 103 -39t36 -98q0 -63 -40 -99.5t-103 -36.5q-74 0 -115.5 59.5t-41.5 169.5q0 112 45 175t128 63q82 0 122 -66zM91.5 49.5q-35.5 -27.5 -35.5 -75.5
q26 -119 119 -119q50 0 82 30.5t32 78.5q0 46 -29.5 79.5t-79.5 33.5q-53 0 -88.5 -27.5z" />
    <glyph glyph-name="seven.subs" horiz-adv-x="352" 
d="M331 290v-25q-42 -63 -82.5 -146t-69 -161t-38.5 -123h-29q18 82 67.5 202.5t117.5 227.5h-267v25h301z" />
    <glyph glyph-name="eight.subs" horiz-adv-x="387" 
d="M280 259q38 -34 38 -90q0 -32 -14 -55.5t-23 -30.5t-35 -25q23 -8 40 -16.5t34.5 -32t17.5 -62.5q0 -55 -44 -88t-117 -33q-74 0 -115 31.5t-41 87.5q0 32 19 64.5t67 55.5q-25 8 -49.5 31t-24.5 71q0 54 42 90t104 36q63 0 101 -34zM95 238.5q-34 -28.5 -34 -71.5
q0 -68 76 -83l72 -16q12 -3 31.5 12.5t34 40.5t14.5 51q0 43 -30 69t-80 26t-84 -28.5zM274 -122q36 27 36 71q0 34 -18.5 54.5t-56.5 29.5l-93 20q-13 3 -36 -11t-40.5 -40t-17.5 -56q0 -44 34.5 -69.5t95.5 -25.5q60 0 96 27z" />
    <glyph glyph-name="nine.subs" horiz-adv-x="390" 
d="M23 -110l17 19q23 -31 44.5 -46t60.5 -15q73 0 110.5 68.5t33.5 202.5q-10 -46 -46.5 -74t-85.5 -28q-67 0 -103 39t-36 99q0 62 40 99t102 37q75 0 116.5 -59.5t41.5 -168.5q0 -112 -45.5 -175.5t-127.5 -63.5t-122 66zM241.5 72q35.5 29 35.5 74q-24 119 -118 119
q-50 0 -82 -30.5t-32 -78.5q0 -46 29.5 -79.5t79.5 -33.5q52 0 87.5 29z" />
    <glyph glyph-name="zero.dnom" horiz-adv-x="402" 
d="M290.5 395.5q44.5 -60.5 44.5 -174.5q0 -113 -44.5 -172.5t-114.5 -59.5q-71 0 -114.5 59t-43.5 172q0 114 44.5 175t113.5 61q70 0 114.5 -60.5zM271.5 65.5q35.5 51.5 35.5 155.5q0 105 -35.5 157t-95.5 52q-59 0 -95 -52t-36 -157q0 -103 36.5 -155t95.5 -52
t94.5 51.5z" />
    <glyph glyph-name="one.dnom" horiz-adv-x="288" 
d="M96 421l-95 -38v25l95 47h27v-455h-27v421z" />
    <glyph glyph-name="two.dnom" horiz-adv-x="370" 
d="M17 31l151 155q50 52 71.5 85t21.5 69q0 34 -16 55t-40 30.5t-49 9.5q-36 0 -67.5 -15.5t-52.5 -47.5l-19 17q24 37 60 54.5t81 17.5q36 0 65 -14t46.5 -41t17.5 -65q0 -28 -10.5 -53t-32.5 -53t-63 -70l-137 -139h248v-26h-275v31z" />
    <glyph glyph-name="three.dnom" horiz-adv-x="385" 
d="M107 441.5q37 16.5 76 16.5q64 0 103 -32.5t39 -80.5q0 -75 -90 -106q51 -14 77.5 -45.5t26.5 -74.5q0 -55 -43 -91.5t-121 -36.5q-44 0 -78 14t-67 47l20 19q27 -30 58 -42.5t70 -12.5q62 0 98 28.5t36 72.5q0 50 -41 78.5t-95 28.5h-61v25h51q55 0 93.5 27.5t38.5 68.5
q0 38 -32 62.5t-82 24.5q-38 0 -65 -13.5t-51 -39.5l-19 18q21 28 58 44.5z" />
    <glyph glyph-name="four.dnom" horiz-adv-x="402" 
d="M270 455v-298h73v-26h-73v-131h-24v131h-219v31l216 293h27zM243 157v256l-190 -256h190z" />
    <glyph glyph-name="five.dnom" horiz-adv-x="387" 
d="M328 452l-4 -25h-227l-14 -185q29 19 55.5 29t62.5 10q61 0 103.5 -33.5t42.5 -101.5q0 -72 -47.5 -113.5t-120.5 -41.5q-42 0 -80 15t-68 46l17 19q32 -29 59 -42.5t67 -13.5q67 0 106 36t39 94q0 56 -34 84t-84 28q-35 0 -63.5 -12t-58.5 -32q-3 -1 -4 -1.5t-2 0.5
t-3 2l-17 11l18 227h257z" />
    <glyph glyph-name="six.dnom" horiz-adv-x="390" 
d="M311 395l-17 -19q-23 31 -44.5 46t-60.5 15q-73 0 -110.5 -68.5t-33.5 -202.5q10 46 46.5 73.5t85.5 27.5q67 0 103 -39t36 -98q0 -63 -40 -99.5t-103 -36.5q-74 0 -115.5 59.5t-41.5 169.5q0 112 45 175t128 63q82 0 122 -66zM91.5 214.5q-35.5 -27.5 -35.5 -75.5
q26 -119 119 -119q50 0 82 30.5t32 78.5q0 46 -29.5 79.5t-79.5 33.5q-53 0 -88.5 -27.5z" />
    <glyph glyph-name="seven.dnom" horiz-adv-x="352" 
d="M331 455v-25q-42 -63 -82.5 -146t-69 -161t-38.5 -123h-29q18 82 67.5 202.5t117.5 227.5h-267v25h301z" />
    <glyph glyph-name="eight.dnom" horiz-adv-x="387" 
d="M280 423q38 -34 38 -90q0 -32 -14 -55.5t-23 -30.5t-35 -25q23 -8 40 -16.5t34.5 -32t17.5 -62.5q0 -55 -44 -88t-117 -33q-74 0 -115 31.5t-41 87.5q0 32 19 64.5t67 55.5q-25 8 -49.5 31t-24.5 71q0 54 42 90t104 36q63 0 101 -34zM95 402.5q-34 -28.5 -34 -71.5
q0 -68 76 -83l72 -16q12 -3 31.5 12.5t34 40.5t14.5 51q0 43 -30 69t-80 26t-84 -28.5zM274 42q36 27 36 71q0 34 -18.5 54.5t-56.5 29.5l-93 20q-13 3 -36 -11t-40.5 -40t-17.5 -56q0 -44 34.5 -69.5t95.5 -25.5q60 0 96 27z" />
    <glyph glyph-name="nine.dnom" horiz-adv-x="390" 
d="M23 55l17 19q23 -31 44.5 -46t60.5 -15q73 0 110.5 68.5t33.5 202.5q-10 -46 -46.5 -74t-85.5 -28q-67 0 -103 39t-36 99q0 62 40 99t102 37q75 0 116.5 -59.5t41.5 -168.5q0 -112 -45.5 -175.5t-127.5 -63.5t-122 66zM241.5 237q35.5 29 35.5 74q-24 119 -118 119
q-50 0 -82 -30.5t-32 -78.5q0 -46 29.5 -79.5t79.5 -33.5q52 0 87.5 29z" />
    <glyph glyph-name="zero.numr" horiz-adv-x="402" 
d="M290.5 679.5q44.5 -60.5 44.5 -174.5q0 -113 -44.5 -172.5t-114.5 -59.5q-71 0 -114.5 59t-43.5 172q0 114 44.5 175t113.5 61q70 0 114.5 -60.5zM271.5 349.5q35.5 51.5 35.5 155.5q0 105 -35.5 157t-95.5 52q-59 0 -95 -52t-36 -157q0 -103 36.5 -155t95.5 -52
t94.5 51.5z" />
    <glyph glyph-name="one.numr" horiz-adv-x="288" 
d="M96 697l-95 -38v25l95 47h27v-455h-27v421z" />
    <glyph glyph-name="two.numr" horiz-adv-x="370" 
d="M17 310l151 155q51 53 72 85.5t21 68.5q0 48 -32.5 71.5t-72.5 23.5q-35 0 -67 -15.5t-53 -47.5l-19 17q48 72 141 72q55 0 92 -31t37 -88q0 -41 -23 -78t-83 -99l-137 -139h248v-26h-275v31z" />
    <glyph glyph-name="three.numr" horiz-adv-x="385" 
d="M107 723.5q37 16.5 76 16.5q64 0 103 -32.5t39 -80.5q0 -75 -90 -106q51 -14 77.5 -45.5t26.5 -74.5q0 -55 -43 -91.5t-121 -36.5q-44 0 -78 14t-67 47l20 19q27 -30 58 -42.5t70 -12.5q62 0 98 28.5t36 72.5q0 50 -41 78.5t-95 28.5h-61v25h51q55 0 93.5 27.5t38.5 68.5
q0 38 -32 62.5t-82 24.5q-38 0 -65 -13.5t-51 -39.5l-19 18q21 28 58 44.5z" />
    <glyph glyph-name="four.numr" horiz-adv-x="402" 
d="M270 731v-298h73v-26h-73v-131h-24v131h-219v31l216 293h27zM243 433v256l-190 -256h190z" />
    <glyph glyph-name="five.numr" horiz-adv-x="387" 
d="M328 731l-4 -25h-227l-14 -185q29 19 55.5 29t62.5 10q61 0 103.5 -33.5t42.5 -101.5q0 -72 -47.5 -113.5t-120.5 -41.5q-42 0 -80 15t-68 46l17 19q32 -29 59 -42.5t67 -13.5q67 0 106 36t39 94q0 56 -34 84t-84 28q-35 0 -63.5 -12t-58.5 -32q-3 -1 -4 -1.5t-2 0.5
t-3 2l-17 11l18 227h257z" />
    <glyph glyph-name="six.numr" horiz-adv-x="390" 
d="M311 680l-17 -19q-23 31 -44.5 46t-60.5 15q-73 0 -110.5 -68.5t-33.5 -202.5q10 46 46.5 73.5t85.5 27.5q67 0 103 -39t36 -98q0 -63 -40 -99.5t-103 -36.5q-74 0 -115.5 59.5t-41.5 169.5q0 112 45 175t128 63q82 0 122 -66zM91.5 499.5q-35.5 -27.5 -35.5 -75.5
q26 -119 119 -119q50 0 82 30.5t32 78.5q0 46 -29.5 79.5t-79.5 33.5q-53 0 -88.5 -27.5z" />
    <glyph glyph-name="seven.numr" horiz-adv-x="352" 
d="M331 730v-25q-42 -62 -82.5 -145.5t-69.5 -161.5t-38 -123h-29q17 80 67 201.5t118 228.5h-267v25h301z" />
    <glyph glyph-name="eight.numr" horiz-adv-x="387" 
d="M280 706q38 -34 38 -90q0 -32 -14 -55.5t-23 -30.5t-35 -25q23 -8 40 -16.5t34.5 -32t17.5 -62.5q0 -55 -44 -88t-117 -33q-74 0 -115 31.5t-41 87.5q0 32 19 64.5t67 55.5q-25 8 -49.5 31t-24.5 71q0 54 42 90t104 36q63 0 101 -34zM95 685.5q-34 -28.5 -34 -71.5
q0 -68 76 -83l72 -16q12 -3 31.5 12.5t34 40.5t14.5 51q0 43 -30 69t-80 26t-84 -28.5zM274 325q36 27 36 71q0 34 -18.5 54.5t-56.5 29.5l-93 20q-13 3 -36 -11t-40.5 -40t-17.5 -56q0 -44 34.5 -69.5t95.5 -25.5q60 0 96 27z" />
    <glyph glyph-name="nine.numr" horiz-adv-x="390" 
d="M23 340l17 19q23 -31 44.5 -46t60.5 -15q73 0 110.5 68.5t33.5 202.5q-10 -46 -46.5 -74t-85.5 -28q-67 0 -103 39t-36 99q0 62 40 99t102 37q75 0 116.5 -59.5t41.5 -168.5q0 -112 -45.5 -175.5t-127.5 -63.5t-122 66zM241.5 522q35.5 29 35.5 74q-24 119 -118 119
q-50 0 -82 -30.5t-32 -78.5q0 -46 29.5 -79.5t79.5 -33.5q52 0 87.5 29z" />
    <glyph glyph-name="comma.tf" horiz-adv-x="282" 
d="M154 0h-36v80h83v-68l-69 -123h-32z" />
    <glyph glyph-name="period.tf" horiz-adv-x="282" 
d="M179 0h-61v77h61v-77z" />
    <glyph glyph-name="bullet.uc" horiz-adv-x="287" 
d="M93.5 318q-20.5 21 -20.5 50t20.5 49.5t49.5 20.5t49.5 -20.5t20.5 -49.5t-20.5 -50t-49.5 -21t-49.5 21z" />
    <glyph glyph-name="caroncomb.alt" horiz-adv-x="0" 
d="M-75.5 555.5q-1.5 2.5 -0.5 4.5l29 68q2 5 1.5 6.5t-4.5 2.5l-5 1q-4 0 -6 1.5t-2 5.5v72q0 6 6 6h42q5 0 5 -5v-80l-1 -4l-32 -74q-3 -7 -13 -7h-15q-3 0 -4.5 2.5z" />
    </font>
</defs>
</svg>
